<?xml version="1.0" encoding="UTF-8" standalone="no"?>
<!DOCTYPE svg PUBLIC "-//W3C//DTD SVG 1.1//EN"
 "http://www.w3.org/Graphics/SVG/1.1/DTD/svg11.dtd">
<!-- Generated by graphviz version 2.49.3 (20211027.1534)
 -->
<!-- Pages: 1 -->
<svg width="305pt" height="332pt"
 viewBox="0.00 0.00 304.89 332.00" xmlns="http://www.w3.org/2000/svg" xmlns:xlink="http://www.w3.org/1999/xlink">
<g id="graph0" class="graph" transform="scale(1 1) rotate(0) translate(4 328)">
<polygon fill="white" stroke="transparent" points="-4,4 -4,-328 300.89,-328 300.89,4 -4,4"/>
<!-- [0,0,0] -->
<g id="node1" class="node">
<title>[0,0,0]</title>
<ellipse fill="none" stroke="black" cx="148.45" cy="-306" rx="34.39" ry="18"/>
<text text-anchor="middle" x="148.45" y="-302.3" font-family="Times,serif" font-size="14.00">[0,0,0]</text>
</g>
<!-- [0,0,1] -->
<g id="node2" class="node">
<title>[0,0,1]</title>
<ellipse fill="none" stroke="black" cx="148.45" cy="-234" rx="34.39" ry="18"/>
<text text-anchor="middle" x="148.45" y="-230.3" font-family="Times,serif" font-size="14.00">[0,0,1]</text>
</g>
<!-- [0,0,0]&#45;&gt;[0,0,1] -->
<g id="edge1" class="edge">
<title>[0,0,0]&#45;&gt;[0,0,1]</title>
<path fill="none" stroke="black" d="M148.45,-287.7C148.45,-279.98 148.45,-270.71 148.45,-262.11"/>
<polygon fill="black" stroke="black" points="151.95,-262.1 148.45,-252.1 144.95,-262.1 151.95,-262.1"/>
</g>
<!-- [0,1,0] -->
<g id="node3" class="node">
<title>[0,1,0]</title>
<ellipse fill="none" stroke="black" cx="235.45" cy="-234" rx="34.39" ry="18"/>
<text text-anchor="middle" x="235.45" y="-230.3" font-family="Times,serif" font-size="14.00">[0,1,0]</text>
</g>
<!-- [0,0,0]&#45;&gt;[0,1,0] -->
<g id="edge2" class="edge">
<title>[0,0,0]&#45;&gt;[0,1,0]</title>
<path fill="none" stroke="black" d="M166.47,-290.5C178.84,-280.55 195.44,-267.19 209.26,-256.07"/>
<polygon fill="black" stroke="black" points="211.85,-258.48 217.44,-249.49 207.46,-253.03 211.85,-258.48"/>
</g>
<!-- [1,0,0] -->
<g id="node4" class="node">
<title>[1,0,0]</title>
<ellipse fill="none" stroke="black" cx="43.45" cy="-234" rx="34.39" ry="18"/>
<text text-anchor="middle" x="43.45" y="-230.3" font-family="Times,serif" font-size="14.00">[1,0,0]</text>
</g>
<!-- [0,0,0]&#45;&gt;[1,0,0] -->
<g id="edge3" class="edge">
<title>[0,0,0]&#45;&gt;[1,0,0]</title>
<path fill="none" stroke="black" d="M127.95,-291.34C112.2,-280.83 90.22,-266.18 72.63,-254.46"/>
<polygon fill="black" stroke="black" points="74.15,-251.26 63.89,-248.63 70.27,-257.09 74.15,-251.26"/>
</g>
<!-- [1,0,1] -->
<g id="node5" class="node">
<title>[1,0,1]</title>
<ellipse fill="none" stroke="black" cx="34.45" cy="-162" rx="34.39" ry="18"/>
<text text-anchor="middle" x="34.45" y="-158.3" font-family="Times,serif" font-size="14.00">[1,0,1]</text>
</g>
<!-- [0,0,1]&#45;&gt;[1,0,1] -->
<g id="edge4" class="edge">
<title>[0,0,1]&#45;&gt;[1,0,1]</title>
<path fill="none" stroke="black" d="M127,-219.83C109.44,-209.05 84.38,-193.66 64.76,-181.62"/>
<polygon fill="black" stroke="black" points="66.53,-178.6 56.18,-176.35 62.87,-184.56 66.53,-178.6"/>
</g>
<!-- [0,1,1] -->
<g id="node6" class="node">
<title>[0,1,1]</title>
<ellipse fill="none" stroke="black" cx="244.45" cy="-162" rx="34.39" ry="18"/>
<text text-anchor="middle" x="244.45" y="-158.3" font-family="Times,serif" font-size="14.00">[0,1,1]</text>
</g>
<!-- [0,0,1]&#45;&gt;[0,1,1] -->
<g id="edge5" class="edge">
<title>[0,0,1]&#45;&gt;[0,1,1]</title>
<path fill="none" stroke="black" d="M167.87,-218.83C181.93,-208.59 201.12,-194.59 216.77,-183.18"/>
<polygon fill="black" stroke="black" points="219.03,-185.86 225.05,-177.14 214.91,-180.21 219.03,-185.86"/>
</g>
<!-- [0,1,0]&#45;&gt;[0,1,0] -->
<g id="edge6" class="edge">
<title>[0,1,0]&#45;&gt;[0,1,0]</title>
<path fill="none" stroke="black" d="M260,-246.71C274.41,-249.42 287.89,-245.18 287.89,-234 287.89,-225.53 280.15,-221.04 270.13,-220.55"/>
<polygon fill="black" stroke="black" points="269.71,-217.07 260,-221.29 270.23,-224.05 269.71,-217.07"/>
</g>
<!-- [0,1,0]&#45;&gt;[0,1,1] -->
<g id="edge7" class="edge">
<title>[0,1,0]&#45;&gt;[0,1,1]</title>
<path fill="none" stroke="black" d="M237.67,-215.7C238.66,-207.98 239.86,-198.71 240.96,-190.11"/>
<polygon fill="black" stroke="black" points="244.44,-190.47 242.25,-180.1 237.5,-189.58 244.44,-190.47"/>
</g>
<!-- [1,1,0] -->
<g id="node7" class="node">
<title>[1,1,0]</title>
<ellipse fill="none" stroke="black" cx="139.45" cy="-162" rx="34.39" ry="18"/>
<text text-anchor="middle" x="139.45" y="-158.3" font-family="Times,serif" font-size="14.00">[1,1,0]</text>
</g>
<!-- [0,1,0]&#45;&gt;[1,1,0] -->
<g id="edge8" class="edge">
<title>[0,1,0]&#45;&gt;[1,1,0]</title>
<path fill="none" stroke="black" d="M216.02,-218.83C201.97,-208.59 182.78,-194.59 167.12,-183.18"/>
<polygon fill="black" stroke="black" points="168.99,-180.21 158.85,-177.14 164.86,-185.86 168.99,-180.21"/>
</g>
<!-- [1,0,0]&#45;&gt;[1,0,0] -->
<g id="edge9" class="edge">
<title>[1,0,0]&#45;&gt;[1,0,0]</title>
<path fill="none" stroke="black" d="M68,-246.71C82.41,-249.42 95.89,-245.18 95.89,-234 95.89,-225.53 88.15,-221.04 78.13,-220.55"/>
<polygon fill="black" stroke="black" points="77.71,-217.07 68,-221.29 78.23,-224.05 77.71,-217.07"/>
</g>
<!-- [1,0,0]&#45;&gt;[1,0,1] -->
<g id="edge10" class="edge">
<title>[1,0,0]&#45;&gt;[1,0,1]</title>
<path fill="none" stroke="black" d="M41.22,-215.7C40.23,-207.98 39.04,-198.71 37.93,-190.11"/>
<polygon fill="black" stroke="black" points="41.39,-189.58 36.65,-180.1 34.45,-190.47 41.39,-189.58"/>
</g>
<!-- [1,0,0]&#45;&gt;[1,1,0] -->
<g id="edge11" class="edge">
<title>[1,0,0]&#45;&gt;[1,1,0]</title>
<path fill="none" stroke="black" d="M62.87,-218.83C76.93,-208.59 96.12,-194.59 111.77,-183.18"/>
<polygon fill="black" stroke="black" points="114.03,-185.86 120.05,-177.14 109.91,-180.21 114.03,-185.86"/>
</g>
<!-- [1,0,1]&#45;&gt;[1,0,1] -->
<g id="edge14" class="edge">
<title>[1,0,1]&#45;&gt;[1,0,1]</title>
<path fill="none" stroke="black" d="M59,-174.71C73.41,-177.42 86.89,-173.18 86.89,-162 86.89,-153.53 79.15,-149.04 69.13,-148.55"/>
<polygon fill="black" stroke="black" points="68.71,-145.07 59,-149.29 69.23,-152.05 68.71,-145.07"/>
</g>
<!-- [1,1,1] -->
<g id="node8" class="node">
<title>[1,1,1]</title>
<ellipse fill="none" stroke="black" cx="139.45" cy="-90" rx="34.39" ry="18"/>
<text text-anchor="middle" x="139.45" y="-86.3" font-family="Times,serif" font-size="14.00">[1,1,1]</text>
</g>
<!-- [1,0,1]&#45;&gt;[1,1,1] -->
<g id="edge15" class="edge">
<title>[1,0,1]&#45;&gt;[1,1,1]</title>
<path fill="none" stroke="black" d="M54.94,-147.34C70.7,-136.83 92.67,-122.18 110.26,-110.46"/>
<polygon fill="black" stroke="black" points="112.63,-113.09 119,-104.63 108.74,-107.26 112.63,-113.09"/>
</g>
<!-- [1,0,2] -->
<g id="node9" class="node">
<title>[1,0,2]</title>
<ellipse fill="none" stroke="black" cx="34.45" cy="-90" rx="34.39" ry="18"/>
<text text-anchor="middle" x="34.45" y="-86.3" font-family="Times,serif" font-size="14.00">[1,0,2]</text>
</g>
<!-- [1,0,1]&#45;&gt;[1,0,2] -->
<g id="edge16" class="edge">
<title>[1,0,1]&#45;&gt;[1,0,2]</title>
<path fill="none" stroke="black" d="M34.45,-143.7C34.45,-135.98 34.45,-126.71 34.45,-118.11"/>
<polygon fill="black" stroke="black" points="37.95,-118.1 34.45,-108.1 30.95,-118.1 37.95,-118.1"/>
</g>
<!-- [0,1,1]&#45;&gt;[0,1,1] -->
<g id="edge12" class="edge">
<title>[0,1,1]&#45;&gt;[0,1,1]</title>
<path fill="none" stroke="black" d="M269,-174.71C283.41,-177.42 296.89,-173.18 296.89,-162 296.89,-153.53 289.15,-149.04 279.13,-148.55"/>
<polygon fill="black" stroke="black" points="278.71,-145.07 269,-149.29 279.23,-152.05 278.71,-145.07"/>
</g>
<!-- [0,1,1]&#45;&gt;[1,1,1] -->
<g id="edge13" class="edge">
<title>[0,1,1]&#45;&gt;[1,1,1]</title>
<path fill="none" stroke="black" d="M223.95,-147.34C208.2,-136.83 186.22,-122.18 168.63,-110.46"/>
<polygon fill="black" stroke="black" points="170.15,-107.26 159.89,-104.63 166.27,-113.09 170.15,-107.26"/>
</g>
<!-- [1,1,0]&#45;&gt;[1,1,0] -->
<g id="edge17" class="edge">
<title>[1,1,0]&#45;&gt;[1,1,0]</title>
<path fill="none" stroke="black" d="M164,-174.71C178.41,-177.42 191.89,-173.18 191.89,-162 191.89,-153.53 184.15,-149.04 174.13,-148.55"/>
<polygon fill="black" stroke="black" points="173.71,-145.07 164,-149.29 174.23,-152.05 173.71,-145.07"/>
</g>
<!-- [1,1,0]&#45;&gt;[1,1,1] -->
<g id="edge18" class="edge">
<title>[1,1,0]&#45;&gt;[1,1,1]</title>
<path fill="none" stroke="black" d="M139.45,-143.7C139.45,-135.98 139.45,-126.71 139.45,-118.11"/>
<polygon fill="black" stroke="black" points="142.95,-118.1 139.45,-108.1 135.95,-118.1 142.95,-118.1"/>
</g>
<!-- [1,1,1]&#45;&gt;[1,1,1] -->
<g id="edge19" class="edge">
<title>[1,1,1]&#45;&gt;[1,1,1]</title>
<path fill="none" stroke="black" d="M164,-102.71C178.41,-105.42 191.89,-101.18 191.89,-90 191.89,-81.53 184.15,-77.04 174.13,-76.55"/>
<polygon fill="black" stroke="black" points="173.71,-73.07 164,-77.29 174.23,-80.05 173.71,-73.07"/>
</g>
<!-- [1,1,2] -->
<g id="node10" class="node">
<title>[1,1,2]</title>
<ellipse fill="none" stroke="black" cx="139.45" cy="-18" rx="34.39" ry="18"/>
<text text-anchor="middle" x="139.45" y="-14.3" font-family="Times,serif" font-size="14.00">[1,1,2]</text>
</g>
<!-- [1,1,1]&#45;&gt;[1,1,2] -->
<g id="edge20" class="edge">
<title>[1,1,1]&#45;&gt;[1,1,2]</title>
<path fill="none" stroke="black" d="M139.45,-71.7C139.45,-63.98 139.45,-54.71 139.45,-46.11"/>
<polygon fill="black" stroke="black" points="142.95,-46.1 139.45,-36.1 135.95,-46.1 142.95,-46.1"/>
</g>
</g>
</svg>
