<svg xmlns="http://www.w3.org/2000/svg" width="305pt" height="332pt" viewBox="0 0 304.89 332"><g class="graph"><path fill="#fff" stroke="transparent" d="M0 332V0h304.89v332z"/><g class="node" transform="translate(4 328)"><ellipse cx="148.45" cy="-306" fill="none" stroke="#000" rx="34.39" ry="18"/><text x="148.45" y="-302.3" font-family="Times New Roman,serif" font-size="14" text-anchor="middle">[0,0,0]</text></g><g class="node" transform="translate(4 328)"><ellipse cx="148.45" cy="-234" fill="none" stroke="#000" rx="34.39" ry="18"/><text x="148.45" y="-230.3" font-family="Times New Roman,serif" font-size="14" text-anchor="middle">[0,0,1]</text></g><g class="edge" transform="translate(4 328)"><path fill="none" stroke="#000" d="M148.45-287.7v25.59"/><path stroke="#000" d="m151.95-262.1-3.5 10-3.5-10z"/></g><g class="node" transform="translate(4 328)"><ellipse cx="235.45" cy="-234" fill="none" stroke="#000" rx="34.39" ry="18"/><text x="235.45" y="-230.3" font-family="Times New Roman,serif" font-size="14" text-anchor="middle">[0,1,0]</text></g><g class="edge" transform="translate(4 328)"><path fill="none" stroke="#000" d="M166.47-290.5c12.37 9.95 28.97 23.31 42.79 34.43"/><path stroke="#000" d="m211.85-258.48 5.59 8.99-9.98-3.54z"/></g><g class="node" transform="translate(4 328)"><ellipse cx="43.45" cy="-234" fill="none" stroke="#000" rx="34.39" ry="18"/><text x="43.45" y="-230.3" font-family="Times New Roman,serif" font-size="14" text-anchor="middle">[1,0,0]</text></g><g class="edge" transform="translate(4 328)"><path fill="none" stroke="#000" d="M127.95-291.34c-15.75 10.51-37.73 25.16-55.32 36.88"/><path stroke="#000" d="m74.15-251.26-10.26 2.63 6.38-8.46z"/></g><g class="node" transform="translate(4 328)"><ellipse cx="34.45" cy="-162" fill="none" stroke="#000" rx="34.39" ry="18"/><text x="34.45" y="-158.3" font-family="Times New Roman,serif" font-size="14" text-anchor="middle">[1,0,1]</text></g><g class="edge" transform="translate(4 328)"><path fill="none" stroke="#000" d="M127-219.83c-17.56 10.78-42.62 26.17-62.24 38.21"/><path stroke="#000" d="m66.53-178.6-10.35 2.25 6.69-8.21z"/></g><g class="node" transform="translate(4 328)"><ellipse cx="244.45" cy="-162" fill="none" stroke="#000" rx="34.39" ry="18"/><text x="244.45" y="-158.3" font-family="Times New Roman,serif" font-size="14" text-anchor="middle">[0,1,1]</text></g><g class="edge" transform="translate(4 328)"><path fill="none" stroke="#000" d="M167.87-218.83c14.06 10.24 33.25 24.24 48.9 35.65"/><path stroke="#000" d="m219.03-185.86 6.02 8.72-10.14-3.07z"/></g><g class="edge" transform="translate(4 328)"><path fill="none" stroke="#000" d="M260-246.71c14.41-2.71 27.89 1.53 27.89 12.71 0 8.47-7.74 12.96-17.76 13.45"/><path stroke="#000" d="m269.71-217.07-9.71-4.22 10.23-2.76z"/></g><g class="edge" transform="translate(4 328)"><path fill="none" stroke="#000" d="M237.67-215.7c.99 7.72 2.19 16.99 3.29 25.59"/><path stroke="#000" d="m244.44-190.47-2.19 10.37-4.75-9.48z"/></g><g class="node" transform="translate(4 328)"><ellipse cx="139.45" cy="-162" fill="none" stroke="#000" rx="34.39" ry="18"/><text x="139.45" y="-158.3" font-family="Times New Roman,serif" font-size="14" text-anchor="middle">[1,1,0]</text></g><g class="edge" transform="translate(4 328)"><path fill="none" stroke="#000" d="M216.02-218.83c-14.05 10.24-33.24 24.24-48.9 35.65"/><path stroke="#000" d="m168.99-180.21-10.14 3.07 6.01-8.72z"/></g><g class="edge" transform="translate(4 328)"><path fill="none" stroke="#000" d="M68-246.71c14.41-2.71 27.89 1.53 27.89 12.71 0 8.47-7.74 12.96-17.76 13.45"/><path stroke="#000" d="M77.71-217.07 68-221.29l10.23-2.76z"/></g><g class="edge" transform="translate(4 328)"><path fill="none" stroke="#000" d="M41.22-215.7c-.99 7.72-2.18 16.99-3.29 25.59"/><path stroke="#000" d="m41.39-189.58-4.74 9.48-2.2-10.37z"/></g><g class="edge" transform="translate(4 328)"><path fill="none" stroke="#000" d="M62.87-218.83c14.06 10.24 33.25 24.24 48.9 35.65"/><path stroke="#000" d="m114.03-185.86 6.02 8.72-10.14-3.07z"/></g><g class="edge" transform="translate(4 328)"><path fill="none" stroke="#000" d="M59-174.71c14.41-2.71 27.89 1.53 27.89 12.71 0 8.47-7.74 12.96-17.76 13.45"/><path stroke="#000" d="M68.71-145.07 59-149.29l10.23-2.76z"/></g><g class="node" transform="translate(4 328)"><ellipse cx="139.45" cy="-90" fill="none" stroke="#000" rx="34.39" ry="18"/><text x="139.45" y="-86.3" font-family="Times New Roman,serif" font-size="14" text-anchor="middle">[1,1,1]</text></g><g class="edge" transform="translate(4 328)"><path fill="none" stroke="#000" d="M54.94-147.34c15.76 10.51 37.73 25.16 55.32 36.88"/><path stroke="#000" d="m112.63-113.09 6.37 8.46-10.26-2.63z"/></g><g class="node" transform="translate(4 328)"><ellipse cx="34.45" cy="-90" fill="none" stroke="#000" rx="34.39" ry="18"/><text x="34.45" y="-86.3" font-family="Times New Roman,serif" font-size="14" text-anchor="middle">[1,0,2]</text></g><g class="edge" transform="translate(4 328)"><path fill="none" stroke="#000" d="M34.45-143.7v25.59"/><path stroke="#000" d="m37.95-118.1-3.5 10-3.5-10z"/></g><g class="edge" transform="translate(4 328)"><path fill="none" stroke="#000" d="M269-174.71c14.41-2.71 27.89 1.53 27.89 12.71 0 8.47-7.74 12.96-17.76 13.45"/><path stroke="#000" d="m278.71-145.07-9.71-4.22 10.23-2.76z"/></g><g class="edge" transform="translate(4 328)"><path fill="none" stroke="#000" d="M223.95-147.34c-15.75 10.51-37.73 25.16-55.32 36.88"/><path stroke="#000" d="m170.15-107.26-10.26 2.63 6.38-8.46z"/></g><g class="edge" transform="translate(4 328)"><path fill="none" stroke="#000" d="M164-174.71c14.41-2.71 27.89 1.53 27.89 12.71 0 8.47-7.74 12.96-17.76 13.45"/><path stroke="#000" d="m173.71-145.07-9.71-4.22 10.23-2.76z"/></g><g class="edge" transform="translate(4 328)"><path fill="none" stroke="#000" d="M139.45-143.7v25.59"/><path stroke="#000" d="m142.95-118.1-3.5 10-3.5-10z"/></g><g class="edge" transform="translate(4 328)"><path fill="none" stroke="#000" d="M164-102.71c14.41-2.71 27.89 1.53 27.89 12.71 0 8.47-7.74 12.96-17.76 13.45"/><path stroke="#000" d="M173.71-73.07 164-77.29l10.23-2.76z"/></g><g class="node" transform="translate(4 328)"><ellipse cx="139.45" cy="-18" fill="none" stroke="#000" rx="34.39" ry="18"/><text x="139.45" y="-14.3" font-family="Times New Roman,serif" font-size="14" text-anchor="middle">[1,1,2]</text></g><g class="edge" transform="translate(4 328)"><path fill="none" stroke="#000" d="M139.45-71.7v25.59"/><path stroke="#000" d="m142.95-46.1-3.5 10-3.5-10z"/></g></g></svg>