<svg xmlns="http://www.w3.org/2000/svg" xmlns:xlink="http://www.w3.org/1999/xlink" width="303.96" height="303.96" viewBox="0 0 227.97 227.97"><defs><symbol id="d" overflow="visible"><path d="M2.219-2.172c.656 0 1.312-.062 1.734-.203.844-.281 1.11-1.016 1.11-1.328 0-.578-.672-1.125-1.5-1.125-1.797 0-3.22 1.406-3.22 2.953 0 1.14.907 1.953 2.235 1.953.25 0 .938-.015 1.531-.234.579-.235 1.11-.797 1.11-.922 0-.078-.282-.422-.375-.422-.063 0-.172.078-.25.156-.532.563-1.219.735-1.985.735-.718 0-.859-.235-.859-.797 0-.188.047-.516.11-.766ZM2-2.687c.172-.735.375-.891.547-1.047.344-.36.719-.407 1.015-.407.36 0 .641 0 .641.438 0 1.015-1.375.844-2.172.844Zm0 0" style="stroke:none"/></symbol><symbol id="g" overflow="visible"><path d="M5.734-3.312c.079-.282.204-.766.204-.829 0-.218-.297-.609-.61-.609-.156 0-.656.25-.797.688-.031.14-.484 1.953-.562 2.28a7 7 0 0 0-.14.61c-.157.203-.438.563-.954.563-.578 0-.469-.328-.469-.563 0-.61.313-1.375.594-2.094.094-.265.125-.328.125-.5 0-.578-.703-1.062-1.25-1.062C.813-4.828.172-3.312.172-3.11c0 .14.297.297.39.297.11 0 .313-.157.36-.282.328-1.11.734-1.047.89-1.047.079 0 .032-.171.032.047s-.125.5-.157.625c-.421 1.047-.609 1.61-.609 2.094 0 1.14 1.14 1.453 1.719 1.453.297 0 .828-.094 1.234-.484.25.375.938.484 1.172.484.375 0 .75-.25.953-.61.25-.405.422-1.046.422-1.109 0-.14-.281-.296-.375-.296a.56.56 0 0 0-.297.093c-.015.016-.047.157-.11.407-.202.78-.28.828-.546.828-.14 0-.094.078-.094-.203 0-.172.032-.329.14-.72.063-.28.173-.687.22-.905Zm0 0" style="stroke:none"/></symbol><symbol id="h" overflow="visible"><path d="M5.516-3.766c0-.906-.797-1.078-.797-1.078-.407 0-.907.594-.907.922 0 .281.25.516.344.563.422.25.453.312.453.515 0 .219-.437 2.235-1.593 2.235-.72 0-.594-.422-.594-.61 0-.578.281-1.297.594-2.093.078-.204.109-.297.109-.454 0-.578-.703-1.062-1.25-1.062C.813-4.828.172-3.312.172-3.11c0 .14.297.297.39.297.11 0 .313-.157.36-.282.312-1.078.719-1.047.89-1.047.079 0 .032-.171.032.047s-.125.516-.157.594c-.453 1.156-.593 1.61-.593 2.078 0 1.063.984 1.5 1.86 1.5 1.718 0 2.562-2.984 2.562-3.844m0 0" style="stroke:none"/></symbol><symbol id="e" overflow="visible"><path d="M2.516-4.625c0-.187-.188-.39-.47-.39-.5.5-1 .437-1.483.437v.64c.359 0 .953-.046 1.015-.078v3.25c0 .235.188.125-.5.125H.61v.657a53 53 0 0 1 1.438-.047c.219 0 1.094.031 1.437.047v-.657h-.453c-.703 0-.515.11-.515-.125Zm0 0" style="stroke:none"/></symbol><symbol id="f" overflow="visible"><path d="M3.516-1.656h-.407c-.046.343-.062.625-.14.687-.063.047-.453-.015-.563-.015H1.125l.14.343c.735-.656.97-.843 1.391-1.171.516-.422 1.047-.985 1.047-1.657 0-.844-.922-1.547-1.812-1.547-.86 0-1.641.797-1.641 1.438 0 .36.484.594.563.594.156 0 .546-.313.546-.563 0-.125-.234-.578-.328-.578.14-.297.422-.25.75-.25.703 0 .86.344.86.906 0 .61-.375.953-.594 1.203L.375-.594C.297-.53.25-.39.25 0h3.219l.281-1.656Zm0 0" style="stroke:none"/></symbol><symbol id="i" overflow="visible"><path d="M4.922-2.516c0-1.562-1.094-2.218-1.828-2.218-1.375 0-2.86 1.593-2.86 3C.234-.812 1 .109 2.031.109c.625 0 1.453-.28 1.985-.703.062.235.562.703 1.015.703.532 0 1.016-.703 1.016-.859 0-.078-.234-.281-.297-.281s-.281.203-.312.281c-.172.484-.36.313-.375.313-.313 0-.141-.61-.141-.844 0-.219-.047-.125.047-.25.937-1.172 1.203-2.438 1.203-2.453 0-.016-.188-.266-.297-.266-.094 0-.266.203-.328.375a5.1 5.1 0 0 1-.922 1.86l.297.124Zm-.969 1.25c-.875.766-1.515.829-1.906.829-.594 0-.735-.282-.735-.922 0-.485.22-1.453.532-1.953.468-.735.89-.876 1.234-.876.985 0 .813 1.141.813 1.922v1.047Zm0 0" style="stroke:none"/></symbol><symbol id="j" overflow="visible"><path d="M1.328-2.328c0-1.625.656-1.89 1.188-1.89.093 0 .578-.032.687.062-.031.015-.265.484-.265.61 0 .25.359.608.624.608.266 0 .641-.328.641-.624 0-.672-.937-1.235-1.703-1.235-1.25 0-2.344 1.25-2.344 2.484C.156-1.03 1.328.11 2.484.11c1.329 0 1.829-1.359 1.829-1.453 0-.11-.282-.265-.313-.265-.078 0-.281.203-.297.265-.297.922-.765.875-1.125.875-.531 0-1.25-.265-1.25-1.86m0 0" style="stroke:none"/></symbol><symbol id="k" overflow="visible"><path d="M4.86-2.297c0-1.265-1.157-2.5-2.36-2.5-1.25 0-2.406 1.266-2.406 2.5C.094-1 1.313.11 2.484.11 3.688.11 4.86-1.03 4.86-2.297M2.5-.469c-.437 0-.75-.156-1.031-.625-.25-.437-.188-.922-.188-1.281 0-.39-.062-.812.188-1.25.265-.469.61-.625 1.015-.625.438 0 .735.172 1 .594.25.437.204.906.204 1.281 0 .36.046.781-.172 1.219l-.047.125c-.219.437-.485.562-.969.562m0 0" style="stroke:none"/></symbol><symbol id="l" overflow="visible"><path d="M2.078-1.937c.219.046.86.046.86.765 0 .5-.172.734-.954.734-.843 0-1.03-.406-1.218-1.25C.734-1.812.563-2.03.453-2.03c-.125 0-.297.25-.297.422v1.312c0 .172.172.406.282.406.046 0 .187-.062.375-.25.015-.015.015-.03.078-.093.312.28.89.343 1.093.343 1.141 0 1.782-.828 1.782-1.546 0-.532-.36-.938-.47-1.063-.343-.328-.843-.453-1.265-.531-.562-.11-1.047-.063-1.047-.64 0-.36.079-.61.938-.61 1.094 0 .969.75.984 1.047.016.093.281.25.297.25.14 0 .313-.203.313-.391V-4.39c0-.171-.172-.406-.282-.406a.6.6 0 0 0-.328.172c-.031.047-.14.125-.062.063-.235-.188-.766-.235-.922-.235-1.219 0-1.766.844-1.766 1.39 0 .36.203.75.469.97.328.25.734.359 1.453.5m0 0" style="stroke:none"/></symbol><clipPath id="a"><path d="M0 170h227.969v2H0Zm0 0"/></clipPath><clipPath id="b"><path d="M224 167h3.969v7H224Zm0 0"/></clipPath><clipPath id="c"><path d="M56 0h2v227.969h-2Zm0 0"/></clipPath></defs><g clip-path="url(#a)"><path d="M-56.693 0h225.816" style="fill:none;stroke-width:1.19553;stroke-linecap:butt;stroke-linejoin:miter;stroke:#000;stroke-opacity:1;stroke-miterlimit:10" transform="matrix(1 0 0 -1 57.291 170.679)"/></g><g clip-path="url(#b)"><path d="M-1.912 2.55C-1.755 1.593-.002.16.48 0 0-.16-1.755-1.595-1.91-2.552" style="fill:none;stroke-width:.9564;stroke-linecap:round;stroke-linejoin:round;stroke:#000;stroke-opacity:1;stroke-miterlimit:10" transform="matrix(1 0 0 -1 226.415 170.679)"/></g><g clip-path="url(#c)"><path d="M-.002-56.692v225.816" style="fill:none;stroke-width:1.19553;stroke-linecap:butt;stroke-linejoin:miter;stroke:#000;stroke-opacity:1;stroke-miterlimit:10" transform="matrix(1 0 0 -1 57.291 170.679)"/></g><path d="M-1.914 2.549C-1.754 1.596 0 .159.476.002c-.476-.16-2.23-1.598-2.39-2.55" style="fill:none;stroke-width:.9564;stroke-linecap:round;stroke-linejoin:round;stroke:#000;stroke-opacity:1;stroke-miterlimit:10" transform="matrix(0 -1 -1 0 57.291 1.555)"/><path d="M-.002 0h22.61" style="fill:none;stroke-width:1.19553;stroke-linecap:butt;stroke-linejoin:miter;stroke:#000;stroke-opacity:1;stroke-miterlimit:10" transform="matrix(1 0 0 -1 57.291 170.679)"/><path d="M85.637 170.68c-1.7-.32-4.461-1.278-6.375-2.39v4.78c1.914-1.117 4.676-2.074 6.375-2.39" style="stroke:none;fill-rule:nonzero;fill:#000;fill-opacity:1"/><use xlink:href="#d" x="80.645" y="182.014" style="fill:#000;fill-opacity:1"/><use xlink:href="#e" x="86.16" y="183.509" style="fill:#000;fill-opacity:1"/><path d="M-.002 0v22.609" style="fill:none;stroke-width:1.19553;stroke-linecap:butt;stroke-linejoin:miter;stroke:#000;stroke-opacity:1;stroke-miterlimit:10" transform="matrix(1 0 0 -1 57.291 170.679)"/><path d="M57.29 142.332c-.317 1.7-1.274 4.465-2.392 6.375h4.786c-1.118-1.91-2.075-4.676-2.395-6.375" style="stroke:none;fill-rule:nonzero;fill:#000;fill-opacity:1"/><use xlink:href="#d" x="40.399" y="143.799" style="fill:#000;fill-opacity:1"/><use xlink:href="#f" x="45.914" y="145.294" style="fill:#000;fill-opacity:1"/><path d="m-.002 0 106.777 26.695" style="fill:none;stroke-width:1.59404;stroke-linecap:butt;stroke-linejoin:miter;stroke:#00008b;stroke-opacity:1;stroke-miterlimit:10" transform="matrix(1 0 0 -1 57.291 170.679)"/><path d="M170.68 142.332c-2.051.121-5.512-.184-8.035-.918l1.375 5.508c1.882-1.836 4.792-3.734 6.66-4.59" style="stroke:none;fill-rule:nonzero;fill:#00008b;fill-opacity:1"/><use xlink:href="#g" x="177.785" y="144.546" style="fill:#000;fill-opacity:1"/><path d="m-.002 0 54.05 128.367" style="fill:none;stroke-width:1.59404;stroke-linecap:butt;stroke-linejoin:miter;stroke:#00008b;stroke-opacity:1;stroke-miterlimit:10" transform="matrix(1 0 0 -1 57.291 170.679)"/><path d="M113.984 36.031c-1.132 1.715-3.453 4.297-5.554 5.875l5.234 2.207c-.34-2.61-.113-6.074.32-8.082" style="stroke:none;fill-rule:nonzero;fill:#00008b;fill-opacity:1"/><use xlink:href="#h" x="110.977" y="28.925" style="fill:#000;fill-opacity:1"/><path d="M11.338 2.835a12.75 12.75 0 0 1-7.426 8.66" style="fill:none;stroke-width:.3985;stroke-linecap:butt;stroke-linejoin:miter;stroke:#000;stroke-opacity:1;stroke-miterlimit:10" transform="matrix(1 0 0 -1 57.291 170.679)"/><use xlink:href="#i" x="67.713" y="161.326" style="fill:#000;fill-opacity:1"/><path d="M56.693 134.648 85.041 21.26" style="fill:none;stroke-width:.3985;stroke-linecap:butt;stroke-linejoin:miter;stroke:#000;stroke-opacity:1;stroke-dasharray:2.98883,2.98883;stroke-miterlimit:10" transform="matrix(1 0 0 -1 57.291 170.679)"/><path d="m-.002 0 78.43 19.609" style="fill:none;stroke-width:1.59404;stroke-linecap:butt;stroke-linejoin:miter;stroke:#00008b;stroke-opacity:1;stroke-miterlimit:10" transform="matrix(1 0 0 -1 57.291 170.679)"/><path d="M142.332 149.418c-2.05.125-5.508-.184-8.035-.918l1.379 5.508c1.883-1.836 4.789-3.73 6.656-4.59" style="stroke:none;fill-rule:nonzero;fill:#00008b;fill-opacity:1"/><use xlink:href="#h" x="130.778" y="160.953" style="fill:#000;fill-opacity:1"/><g style="fill:#000;fill-opacity:1"><use xlink:href="#j" x="138.452" y="160.953"/><use xlink:href="#k" x="142.875" y="160.953"/><use xlink:href="#l" x="147.857" y="160.953"/></g><use xlink:href="#i" x="153.452" y="160.953" style="fill:#000;fill-opacity:1"/></svg>