<svg xmlns="http://www.w3.org/2000/svg" width="206pt" height="260pt" viewBox="0 0 206 260"><g class="graph"><path fill="#fff" stroke="transparent" d="M0 260V0h206v260z"/><g class="node" transform="translate(4 256)"><ellipse cx="135" cy="-234" fill="none" stroke="#000" rx="27" ry="18"/><text x="135" y="-230.3" font-family="Times New Roman,serif" font-size="14" text-anchor="middle">1</text></g><g class="node" transform="translate(4 256)"><ellipse cx="99" cy="-162" fill="none" stroke="#000" rx="27" ry="18"/><text x="99" y="-158.3" font-family="Times New Roman,serif" font-size="14" text-anchor="middle">2</text></g><path fill="none" stroke="#000" d="M130.65 39.24c-5.82 11.3-13.54 26.32-19.35 37.61" class="edge"/><g class="node" transform="translate(4 256)"><ellipse cx="171" cy="-162" fill="none" stroke="#000" rx="27" ry="18"/><text x="171" y="-158.3" font-family="Times New Roman,serif" font-size="14" text-anchor="middle">5</text></g><path fill="none" stroke="#000" d="M147.35 39.24c5.82 11.3 13.54 26.32 19.35 37.61" class="edge"/><g class="node" transform="translate(4 256)"><ellipse cx="27" cy="-90" fill="none" stroke="#000" rx="27" ry="18"/><text x="27" y="-86.3" font-family="Times New Roman,serif" font-size="14" text-anchor="middle">3</text></g><path fill="none" stroke="#000" d="M88.43 109.17c-12.41 12.06-30.16 29.32-42.63 41.45" class="edge"/><g class="node" transform="translate(4 256)"><ellipse cx="99" cy="-90" fill="none" stroke="#000" rx="27" ry="18"/><text x="99" y="-86.3" font-family="Times New Roman,serif" font-size="14" text-anchor="middle">4</text></g><path fill="none" stroke="#000" d="M103 112.3v35.6" class="edge"/><g class="node" transform="translate(4 256)"><ellipse cx="171" cy="-90" fill="none" stroke="#000" rx="27" ry="18"/><text x="171" y="-86.3" font-family="Times New Roman,serif" font-size="14" text-anchor="middle">7</text></g><path fill="none" stroke="#000" d="M117.57 109.17c12.41 12.06 30.16 29.32 42.63 41.45" class="edge"/><g class="node" transform="translate(4 256)"><ellipse cx="99" cy="-18" fill="none" stroke="#000" rx="27" ry="18"/><text x="99" y="-14.3" font-family="Times New Roman,serif" font-size="14" text-anchor="middle">6</text></g><path fill="none" stroke="#000" d="M103 184.3v35.6" class="edge"/></g></svg>