<?xml version="1.0" encoding="UTF-8"?><svg xmlns="http://www.w3.org/2000/svg" xmlns:xlink="http://www.w3.org/1999/xlink" width="394pt" height="220pt" viewBox="0.00 0.00 394.00 220.00"><g id="graph0" class="graph" transform="scale(1 1) rotate(0) translate(4 216)"><polygon fill="white" stroke="transparent" points="-4,4 -4,-216 390,-216 390,4 -4,4"/><g id="clust1" class="cluster"><title>cluster_1</title><polygon fill="none" stroke="black" points="8,-8 8,-204 150,-204 150,-8 8,-8"/></g><g id="clust3" class="cluster"><title>cluster_3</title><polygon fill="none" stroke="black" points="236,-8 236,-204 378,-204 378,-8 236,-8"/></g><g id="clust2" class="cluster"><title>cluster_2</title><polygon fill="none" stroke="black" points="158,-80 158,-204 228,-204 228,-80 158,-80"/></g><g id="node1" class="node"><title>1</title><ellipse fill="none" stroke="black" cx="79" cy="-178" rx="27" ry="18"/><text text-anchor="middle" x="79" y="-174.3" font-family="Times New Roman,serif" font-size="14.00">1</text></g><g id="node2" class="node"><title>2</title><ellipse fill="none" stroke="black" cx="43" cy="-106" rx="27" ry="18"/><text text-anchor="middle" x="43" y="-102.3" font-family="Times New Roman,serif" font-size="14.00">2</text></g><g id="edge1" class="edge"><title>1--2</title><path fill="none" stroke="black" d="M70.65,-160.76C64.83,-149.46 57.11,-134.44 51.3,-123.15"/></g><g id="node3" class="node"><title>3</title><ellipse fill="none" stroke="black" cx="115" cy="-106" rx="27" ry="18"/><text text-anchor="middle" x="115" y="-102.3" font-family="Times New Roman,serif" font-size="14.00">3</text></g><g id="edge2" class="edge"><title>1--3</title><path fill="none" stroke="black" d="M87.35,-160.76C93.17,-149.46 100.89,-134.44 106.7,-123.15"/></g><g id="node4" class="node"><title>4</title><ellipse fill="none" stroke="black" cx="43" cy="-34" rx="27" ry="18"/><text text-anchor="middle" x="43" y="-30.3" font-family="Times New Roman,serif" font-size="14.00">4</text></g><g id="edge3" class="edge"><title>2--4</title><path fill="none" stroke="black" d="M43,-87.7C43,-76.85 43,-62.92 43,-52.1"/></g><g id="node5" class="node"><title>5</title><ellipse fill="none" stroke="black" cx="115" cy="-34" rx="27" ry="18"/><text text-anchor="middle" x="115" y="-30.3" font-family="Times New Roman,serif" font-size="14.00">5</text></g><g id="edge4" class="edge"><title>2--5</title><path fill="none" stroke="black" d="M57.57,-90.83C69.98,-78.77 87.73,-61.51 100.2,-49.38"/></g><g id="node6" class="node"><title>6</title><ellipse fill="none" stroke="black" cx="193" cy="-178" rx="27" ry="18"/><text text-anchor="middle" x="193" y="-174.3" font-family="Times New Roman,serif" font-size="14.00">6</text></g><g id="node7" class="node"><title>7</title><ellipse fill="none" stroke="black" cx="193" cy="-106" rx="27" ry="18"/><text text-anchor="middle" x="193" y="-102.3" font-family="Times New Roman,serif" font-size="14.00">7</text></g><g id="edge5" class="edge"><title>6--7</title><path fill="none" stroke="black" d="M193,-159.7C193,-148.85 193,-134.92 193,-124.1"/></g><g id="node8" class="node"><title>8</title><ellipse fill="none" stroke="black" cx="307" cy="-178" rx="27" ry="18"/><text text-anchor="middle" x="307" y="-174.3" font-family="Times New Roman,serif" font-size="14.00">8</text></g><g id="node9" class="node"><title>9</title><ellipse fill="none" stroke="black" cx="307" cy="-106" rx="27" ry="18"/><text text-anchor="middle" x="307" y="-102.3" font-family="Times New Roman,serif" font-size="14.00">9</text></g><g id="edge6" class="edge"><title>8--9</title><path fill="none" stroke="black" d="M307,-159.7C307,-148.85 307,-134.92 307,-124.1"/></g><g id="node10" class="node"><title>10</title><ellipse fill="none" stroke="black" cx="271" cy="-34" rx="27" ry="18"/><text text-anchor="middle" x="271" y="-30.3" font-family="Times New Roman,serif" font-size="14.00">10</text></g><g id="edge7" class="edge"><title>9--10</title><path fill="none" stroke="black" d="M298.65,-88.76C292.83,-77.46 285.11,-62.44 279.3,-51.15"/></g><g id="node11" class="node"><title>11</title><ellipse fill="none" stroke="black" cx="343" cy="-34" rx="27" ry="18"/><text text-anchor="middle" x="343" y="-30.3" font-family="Times New Roman,serif" font-size="14.00">11</text></g><g id="edge8" class="edge"><title>9--11</title><path fill="none" stroke="black" d="M315.35,-88.76C321.17,-77.46 328.89,-62.44 334.7,-51.15"/></g></g></svg>