<svg xmlns="http://www.w3.org/2000/svg" width="221pt" height="148pt" viewBox="0 0 221 148"><g class="graph"><path fill="#fff" stroke="transparent" d="M0 148V0h221v148z"/><path fill="none" stroke="#000" d="M67 136V12h142v124z" class="cluster"/><g class="node" transform="translate(4 144)"><ellipse cx="27" cy="-106" fill="none" stroke="#000" rx="27" ry="18"/><text x="27" y="-102.3" font-family="Times New Roman,serif" font-size="14" text-anchor="middle">b</text></g><g class="node" transform="translate(4 144)"><ellipse cx="134" cy="-106" fill="none" stroke="#000" rx="27" ry="18"/><text x="134" y="-102.3" font-family="Times New Roman,serif" font-size="14" text-anchor="middle">1</text></g><g class="node" transform="translate(4 144)"><ellipse cx="98" cy="-34" fill="none" stroke="#000" rx="27" ry="18"/><text x="98" y="-30.3" font-family="Times New Roman,serif" font-size="14" text-anchor="middle">2</text></g><path fill="none" stroke="#000" d="M129.65 55.24c-5.82 11.3-13.54 26.32-19.35 37.61" class="edge"/><g class="node" transform="translate(4 144)"><ellipse cx="170" cy="-34" fill="none" stroke="#000" rx="27" ry="18"/><text x="170" y="-30.3" font-family="Times New Roman,serif" font-size="14" text-anchor="middle">a</text></g><path fill="none" stroke="#000" d="M146.35 55.24c5.82 11.3 13.54 26.32 19.35 37.61" class="edge"/></g></svg>