<?xml version="1.0" encoding="UTF-8" standalone="no" ?>
<svg width="221pt" height="148pt" viewBox="0.00 0.00 221.00 148.00" xmlns="http://www.w3.org/2000/svg" xmlns:xlink="http://www.w3.org/1999/xlink">
<g id="graph0" class="graph" transform="scale(1 1) rotate(0) translate(4 144)">
<polygon fill="white" stroke="transparent" points="-4,4 -4,-144 217,-144 217,4 -4,4" />
<g id="clust1" class="cluster">
<title>cluster_1</title>
<polygon fill="none" stroke="black" points="63,-8 63,-132 205,-132 205,-8 63,-8" />
</g><g id="node1" class="node">
<title>b</title>
<ellipse fill="none" stroke="black" cx="27" cy="-106" rx="27" ry="18" />
<text text-anchor="middle" x="27" y="-102.3" font-family="Times New Roman,serif" font-size="14.00">b</text>
</g><g id="node2" class="node">
<title>1</title>
<ellipse fill="none" stroke="black" cx="134" cy="-106" rx="27" ry="18" />
<text text-anchor="middle" x="134" y="-102.3" font-family="Times New Roman,serif" font-size="14.00">1</text>
</g><g id="node3" class="node">
<title>2</title>
<ellipse fill="none" stroke="black" cx="98" cy="-34" rx="27" ry="18" />
<text text-anchor="middle" x="98" y="-30.3" font-family="Times New Roman,serif" font-size="14.00">2</text>
</g><g id="edge1" class="edge">
<title>1&#45;&#45;2</title>
<path fill="none" stroke="black" d="M125.65,-88.76C119.83,-77.46 112.11,-62.44 106.3,-51.15" />
</g><g id="node4" class="node">
<title>a</title>
<ellipse fill="none" stroke="black" cx="170" cy="-34" rx="27" ry="18" />
<text text-anchor="middle" x="170" y="-30.3" font-family="Times New Roman,serif" font-size="14.00">a</text>
</g><g id="edge2" class="edge">
<title>1&#45;&#45;a</title>
<path fill="none" stroke="black" d="M142.35,-88.76C148.17,-77.46 155.89,-62.44 161.7,-51.15" />
</g>
</g>
</svg>
