<svg xmlns="http://www.w3.org/2000/svg" width="244pt" height="220pt" viewBox="0 0 244 220"><g class="graph"><path fill="#fff" stroke="transparent" d="M0 220V0h244v220z"/><path fill="none" stroke="#000" d="M12 208V12h142v196zM162 136V12h70v124z" class="cluster"/><g class="node" transform="translate(4 216)"><ellipse cx="79" cy="-178" fill="none" stroke="#000" rx="27" ry="18"/><text x="79" y="-174.3" font-family="Times New Roman,serif" font-size="14" text-anchor="middle">1</text></g><g class="node" transform="translate(4 216)"><ellipse cx="43" cy="-106" fill="none" stroke="#000" rx="27" ry="18"/><text x="43" y="-102.3" font-family="Times New Roman,serif" font-size="14" text-anchor="middle">2</text></g><path fill="none" stroke="#000" d="M74.65 55.24c-5.82 11.3-13.54 26.32-19.35 37.61" class="edge"/><g class="node" transform="translate(4 216)"><ellipse cx="115" cy="-106" fill="none" stroke="#000" rx="27" ry="18"/><text x="115" y="-102.3" font-family="Times New Roman,serif" font-size="14" text-anchor="middle">a</text></g><path fill="none" stroke="#000" d="M91.35 55.24c5.82 11.3 13.54 26.32 19.35 37.61" class="edge"/><g class="node" transform="translate(4 216)"><ellipse cx="43" cy="-34" fill="none" stroke="#000" rx="27" ry="18"/><text x="43" y="-30.3" font-family="Times New Roman,serif" font-size="14" text-anchor="middle">4</text></g><path fill="none" stroke="#000" d="M47 128.3v35.6" class="edge"/><g class="node" transform="translate(4 216)"><ellipse cx="115" cy="-34" fill="none" stroke="#000" rx="27" ry="18"/><text x="115" y="-30.3" font-family="Times New Roman,serif" font-size="14" text-anchor="middle">5</text></g><path fill="none" stroke="#000" d="M61.57 125.17c12.41 12.06 30.16 29.32 42.63 41.45" class="edge"/><g class="node" transform="translate(4 216)"><ellipse cx="193" cy="-178" fill="none" stroke="#000" rx="27" ry="18"/><text x="193" y="-174.3" font-family="Times New Roman,serif" font-size="14" text-anchor="middle">6</text></g><g class="node" transform="translate(4 216)"><ellipse cx="193" cy="-106" fill="none" stroke="#000" rx="27" ry="18"/><text x="193" y="-102.3" font-family="Times New Roman,serif" font-size="14" text-anchor="middle">b</text></g><path fill="none" stroke="#000" d="M197 56.3v35.6" class="edge"/></g></svg>