<svg xmlns="http://www.w3.org/2000/svg" xmlns:xlink="http://www.w3.org/1999/xlink" width="224" height="145pt" viewBox="0 0 168 145"><defs><symbol id="a" overflow="visible"><path d="M4.516-6.734h-3.47l-.5 3.672h.767c.39-.47.718-.641 1.25-.641.89 0 1.453.625 1.453 1.625 0 .969-.563 1.562-1.47 1.562-.733 0-1.171-.375-1.374-1.14H.328c.125.547.219.812.406 1.062.391.516 1.079.813 1.829.813 1.359 0 2.312-.985 2.312-2.406 0-1.344-.89-2.25-2.172-2.25-.484 0-.86.125-1.25.406l.266-1.875h2.797Zm0 0" style="stroke:none"/></symbol><symbol id="b" overflow="visible"><path d="M2.61-6.875c-.626 0-1.188.297-1.547.75-.438.61-.657 1.531-.657 2.797C.406-1 1.172.219 2.61.219 4.031.219 4.813-1 4.813-3.266c0-1.328-.204-2.218-.657-2.859-.343-.469-.906-.75-1.547-.75m0 .75c.906 0 1.359.922 1.359 2.781 0 1.953-.438 2.875-1.375 2.875-.89 0-1.328-.953-1.328-2.843s.437-2.813 1.343-2.813m0 0" style="stroke:none"/></symbol><symbol id="c" overflow="visible"><path d="M2.453-4.89V0h.844v-6.875H2.75C2.453-5.812 2.266-5.672.969-5.5v.61Zm0 0" style="stroke:none"/></symbol><symbol id="d" overflow="visible"><path d="M4.813-.828H1.265c.078-.563.39-.922 1.218-1.438l.938-.53c.953-.517 1.437-1.22 1.437-2.063 0-.578-.234-1.11-.625-1.485-.406-.36-.906-.531-1.53-.531-.86 0-1.5.313-1.86.906-.25.36-.344.782-.375 1.469h.844c.03-.453.078-.734.203-.969a1.3 1.3 0 0 1 1.156-.672C3.422-6.14 4-5.594 4-4.844c0 .547-.312 1.032-.906 1.36l-.875.515C.813-2.156.406-1.516.329-.016h4.484Zm0 0" style="stroke:none"/></symbol><symbol id="e" overflow="visible"><path d="M2.094-3.156h.469c.906 0 1.39.422 1.39 1.25 0 .86-.531 1.39-1.39 1.39C1.64-.516 1.203-.984 1.14-2H.297c.047.563.14.922.297 1.219.36.672 1.015 1 1.937 1 1.375 0 2.282-.844 2.282-2.14 0-.876-.344-1.345-1.141-1.626.625-.265.937-.734.937-1.437 0-1.172-.765-1.891-2.046-1.891-1.36 0-2.094.766-2.11 2.219h.828c.016-.422.047-.657.157-.86.187-.39.609-.625 1.125-.625.75 0 1.187.454 1.187 1.188 0 .484-.172.781-.531.937-.235.11-.547.141-1.125.157Zm0 0" style="stroke:none"/></symbol><symbol id="f" overflow="visible"><path d="M3.11-1.656V0h.828v-1.656h1v-.75h-1v-4.469h-.61L.266-2.547v.89Zm0-.75H1l2.11-3.031Zm0 0" style="stroke:none"/></symbol><symbol id="g" overflow="visible"><path d="M1.906-3.469h3.64v-.86h-3.64v-2.437h4.14v-.859H.939V0h.968Zm0 0" style="stroke:none"/></symbol><symbol id="h" overflow="visible"><path d="M1.563-5.484h-.86V0h.86Zm0-2.141H.688v1.11h.875Zm0 0" style="stroke:none"/></symbol><symbol id="i" overflow="visible"><path d="M4.219-5.484v.797c-.438-.657-.922-.954-1.61-.954-1.328 0-2.25 1.235-2.25 3 0 .922.22 1.579.704 2.141.406.484.921.734 1.484.734.656 0 1.125-.28 1.594-.968v.28c0 1.454-.407 2-1.5 2-.735 0-1.125-.296-1.203-.921H.547c.078 1.016.89 1.656 2.078 1.656.797 0 1.469-.265 1.828-.703.422-.516.578-1.187.578-2.484v-4.578Zm-1.516.656c.906 0 1.438.766 1.438 2.156 0 1.328-.532 2.11-1.438 2.11s-1.422-.782-1.422-2.141c0-1.328.516-2.125 1.422-2.125m0 0" style="stroke:none"/></symbol><symbol id="j" overflow="visible"><path d="M2-1.094H.906V0H2Zm0 0" style="stroke:none"/></symbol><symbol id="l" overflow="visible"><path d="M2.703-5.39V0h.922v-7.562h-.61c-.312 1.171-.53 1.328-1.953 1.515v.656Zm0 0" style="stroke:none"/></symbol></defs><path d="M0 0h168v145H0z" style="fill:#fff;fill-opacity:1;stroke:none"/><path d="M24.875 131.156h142.2v-120h-142.2Zm0 0" style="stroke:none;fill-rule:nonzero;fill:#fff;fill-opacity:1"/><path d="M250 270.002h236.999m-192.559 0v-2.37m74.063 2.37v-2.37m74.062 2.37v-2.37" style="fill:none;stroke-width:.833333;stroke-linecap:square;stroke-linejoin:round;stroke:#262626;stroke-opacity:1;stroke-miterlimit:10" transform="matrix(.6 0 0 .6 -125.125 -30.845)"/><g style="fill:#262626;fill-opacity:1"><use xlink:href="#a" x="43.438" y="144.155"/><use xlink:href="#b" x="48.719" y="144.155"/><use xlink:href="#b" x="54.001" y="144.155"/></g><g style="fill:#262626;fill-opacity:1"><use xlink:href="#c" x="85.175" y="144.155"/><use xlink:href="#b" x="90.457" y="144.155"/><use xlink:href="#b" x="95.739" y="144.155"/><use xlink:href="#b" x="101.021" y="144.155"/></g><g style="fill:#262626;fill-opacity:1"><use xlink:href="#c" x="129.613" y="144.155"/><use xlink:href="#a" x="134.894" y="144.155"/><use xlink:href="#b" x="140.176" y="144.155"/><use xlink:href="#b" x="145.458" y="144.155"/></g><path d="M250 270.002v-200m0 175.618h2.37M250 194.442h2.37M250 143.264h2.37M250 92.085h2.37" style="fill:none;stroke-width:.833333;stroke-linecap:square;stroke-linejoin:round;stroke:#262626;stroke-opacity:1;stroke-miterlimit:10" transform="matrix(.6 0 0 .6 -125.125 -30.845)"/><g style="fill:#262626;fill-opacity:1"><use xlink:href="#c" x="-.125" y="120.128"/><use xlink:href="#b" x="5.157" y="120.128"/><use xlink:href="#b" x="10.439" y="120.128"/><use xlink:href="#b" x="15.721" y="120.128"/></g><g style="fill:#262626;fill-opacity:1"><use xlink:href="#d" x="-.125" y="89.421"/><use xlink:href="#b" x="5.157" y="89.421"/><use xlink:href="#b" x="10.439" y="89.421"/><use xlink:href="#b" x="15.721" y="89.421"/></g><g style="fill:#262626;fill-opacity:1"><use xlink:href="#e" x="-.125" y="58.714"/><use xlink:href="#b" x="5.157" y="58.714"/><use xlink:href="#b" x="10.439" y="58.714"/><use xlink:href="#b" x="15.721" y="58.714"/></g><g style="fill:#262626;fill-opacity:1"><use xlink:href="#f" x="-.125" y="28.008"/><use xlink:href="#b" x="5.157" y="28.008"/><use xlink:href="#b" x="10.439" y="28.008"/><use xlink:href="#b" x="15.721" y="28.008"/></g><g style="fill:#000;fill-opacity:1"><use xlink:href="#g" x="82.775" y="7.187"/><use xlink:href="#h" x="89.16" y="7.187"/><use xlink:href="#i" x="91.48" y="7.187"/><use xlink:href="#j" x="97.291" y="7.187"/><use xlink:href="#k" x="100.196" y="7.187"/><use xlink:href="#l" x="103.101" y="7.187"/></g><path d="m486.634 157.554-.618-.052-.619.124-.618.058h-.619l-.625-.397-.618.202-.619-.273-.625-.339-.618-.657-.619-.782-.625-.866-.618-1.035-.625-1.497-.625-1.478-.619-1.504-.625-1.133-.625-1.406-.625-1.178-.625-1.4-.625-1.263-.625-1.185-1.25-1.992-.625-1.081-.625-1.309-.631-1.315-.625-1.302-.625-.866-.632-.722-.625-.43-.631-.658-.625-.787-.632-1.1-.631-1.4-.625-1.673-.632-2.299-.631-2.428-.632-2.572-.631-2.539-.632-2.702-.631-2.63-.632-2.936-.631-2.702-.632-3.587-.631-3.047-.638-1.953-.632-.592-.638-.15-.632-.651-.638-.404-.631-.078-.638.312-.632.619-.638.417-.638.09-.638-.624-.638-.306-.638.02-.638.624-.638.586-.638 1.25-.638.547-.638.13-.638-.02-.644.333-.638.534-.638.82-.645 1.458-.638 1.198-.644 1.81-.645 1.882-.638 1.797-.645.963-.644 1.224-.645.67-.644.508-.645.697-.644.104-.645.684-.644.325-.645.157-.644.3-.645.292-.65.8-.645.567-.651.742-.645.88-.651 1.12-.645 1.217-.65 1.386-.652 1.485-.644 1.438-.651 1.387-.651 1.36-.651 1.114-.651.977-.651.599-.651.918-.651.462-.658.599-.651.234-.651.124-.651.032-.658.183-.65.09-.658-.116h-.651l-.658-.046-.657.664-.658 1.074-.651 1.836-.658 1.778-.657 2.448-.658 2.083-.657 2.116-.658 1.517-.657 1.51-.664 1.08-.658.97-.658 1.14-.664.664-.657.775-.658 1.08-.664 1.414-.664 1.445-.657 1.393-.664 1.074-.664.918-.658.742-.664.931-.664.586-.664.502-.664.534-.664.625-.67.208-.665.039-.664-.384-.664.058-.67.47-.665.793-.67.69-.664.827-.67.86-.665 1.14-.67 1.106-.671 1.27-.67 1.243-.671 1.445-.67 1.322-.671 1.191-.671 1.341-.67 1.29-.671 1.067-.67.99-.671 1.08-.677.918-.671.84-.677.716-.67.82-.678.788-.67.801-.677.736-.677.755-.678.371-.677.41-.67.456-.677.853-.677.736-.684.475-.677.677-.677.566-.677.326-.684.202-.677.208-.677.553-.684 1.179-.677 1.237-.683 1.002-.684.02-.677-2.012-.683-1.146-.684 1.66-.684 3.275-.683 2.377-.684 1.178-.683.807-.684.645-.684.67-.69.528-.683.403-.684.489-.69.312-.684.593-.69.423-.69.488-.683.534-.69.443-.69.332-.69.175-.69.313-.691.046-.69.507-.69.43-.69.462-.69.645-.69.638-.697.58-.69.488-.697.449-.69.442-.697.365-.69.39-.696.28-.697-.136-.696.104-.69.091-.697.059-.697.123-.696-.117-.704.072-.696-.026-.697.26-.696.209-.704.065-.696.11-.703.124-.697.306-.703.553-.697.306-.703.404-.703.208-.703.098-.703.065-.703.15-.703.182-.704.606-.703.403-.703.267-.71.384-.703.274-.703.377-.71.502-.702.162-.71.508-.71.28-.703.56-.71.254-.71.332-.709.287-.71-.118-.709.196-.71-.026-.71-.287-.709-.267-.71-.37-.716.038-.71-.13-.715.45-.71.63-.716.34-.71.103-.716.235-.716.358-.716.228-.716.306-.717.351-.716.163-.716.293-.716.104-.716.378-.716.13h-.723l-.716-.059-.723.385-.716.37-.723.593-.722.573-.716.547-.723.553-.723.365-.722.358-.723.273-.723.332-.722.313-.723.078-.723.163-.729.228-.722.175-.73.26-.722.333-.73.117-.722.234-.73.04-.728.058-.723.215-.73-.098-.728.267-.73.189-.729.371-.735.287-.73.097-.729.384-.729.235-.736.286-.729.28-.735.534-.73.338-.735.385-.736.54-.736.371-.735.43-.73.631-.735.45-.736.514-.742.638-.736.534-.735.397-.736.41-.742.384-.736.41-.742.26-.736.268-.742.56-.742.039-.742.293-.736.247-.742.124" style="fill:none;stroke-width:.833333;stroke-linecap:butt;stroke-linejoin:round;stroke:#0072bd;stroke-opacity:1;stroke-miterlimit:10" transform="matrix(.6 0 0 .6 -125.125 -30.845)"/><path d="M147.676 23.758a2.749 2.749 0 1 1 0 5.5 2.749 2.749 0 1 1 0-5.5m0-.5a3.25 3.25 0 1 0 0 6.5 3.25 3.25 0 0 0 0-6.5m0 0" style="stroke:none;fill-rule:nonzero;fill:red;fill-opacity:1"/></svg>