<svg xmlns="http://www.w3.org/2000/svg" xmlns:xlink="http://www.w3.org/1999/xlink" width="173pt" height="145pt" viewBox="0 0 173 145"><defs><symbol id="a" overflow="visible"><path d="M4.516-6.734h-3.47l-.5 3.672h.767c.39-.47.718-.641 1.25-.641.89 0 1.453.625 1.453 1.625 0 .969-.563 1.562-1.47 1.562-.733 0-1.171-.375-1.374-1.14H.328c.125.547.219.812.406 1.062.391.516 1.079.813 1.829.813 1.359 0 2.312-.985 2.312-2.406 0-1.344-.89-2.25-2.172-2.25-.484 0-.86.125-1.25.406l.266-1.875h2.797Zm0 0" style="stroke:none"/></symbol><symbol id="b" overflow="visible"><path d="M2.61-6.875c-.626 0-1.188.297-1.547.75-.438.61-.657 1.531-.657 2.797C.406-1 1.172.219 2.61.219 4.031.219 4.813-1 4.813-3.266c0-1.328-.204-2.218-.657-2.859-.343-.469-.906-.75-1.547-.75m0 .75c.906 0 1.359.922 1.359 2.781 0 1.953-.438 2.875-1.375 2.875-.89 0-1.328-.953-1.328-2.843s.437-2.813 1.343-2.813m0 0" style="stroke:none"/></symbol><symbol id="c" overflow="visible"><path d="M2.453-4.89V0h.844v-6.875H2.75C2.453-5.812 2.266-5.672.969-5.5v.61Zm0 0" style="stroke:none"/></symbol><symbol id="d" overflow="visible"><path d="M4.813-.828H1.265c.078-.563.39-.922 1.218-1.438l.938-.53c.953-.517 1.437-1.22 1.437-2.063 0-.578-.234-1.11-.625-1.485-.406-.36-.906-.531-1.53-.531-.86 0-1.5.313-1.86.906-.25.36-.344.782-.375 1.469h.844c.03-.453.078-.734.203-.969a1.3 1.3 0 0 1 1.156-.672C3.422-6.14 4-5.594 4-4.844c0 .547-.312 1.032-.906 1.36l-.875.515C.813-2.156.406-1.516.329-.016h4.484Zm0 0" style="stroke:none"/></symbol><symbol id="e" overflow="visible"><path d="M3.11-1.656V0h.828v-1.656h1v-.75h-1v-4.469h-.61L.266-2.547v.89Zm0-.75H1l2.11-3.031Zm0 0" style="stroke:none"/></symbol><symbol id="f" overflow="visible"><path d="M4.734-5.078c-.171-1.125-.89-1.797-1.906-1.797-.75 0-1.406.375-1.812.984-.422.672-.61 1.516-.61 2.75 0 1.172.156 1.891.578 2.5.36.563.938.86 1.688.86 1.281 0 2.203-.953 2.203-2.297 0-1.266-.86-2.156-2.062-2.156q-1.008 0-1.547.75c0-1.703.547-2.641 1.5-2.641.593 0 1 .375 1.125 1.047ZM2.704-3.5c.812 0 1.312.578 1.312 1.484 0 .86-.563 1.5-1.344 1.5-.766 0-1.36-.656-1.36-1.53 0-.86.563-1.454 1.391-1.454m0 0" style="stroke:none"/></symbol><symbol id="g" overflow="visible"><path d="M3.719-3.625c.703-.422.922-.766.922-1.406 0-1.094-.828-1.844-2.032-1.844-1.187 0-2.015.75-2.015 1.828 0 .656.219.984.906 1.422-.766.39-1.156.953-1.156 1.719 0 1.25.922 2.125 2.265 2.125 1.329 0 2.266-.875 2.266-2.125 0-.766-.375-1.328-1.156-1.719m-1.11-2.5c.72 0 1.172.422 1.172 1.11 0 .64-.469 1.077-1.172 1.077S1.438-4.374 1.438-5.03c0-.672.468-1.094 1.171-1.094m0 2.89c.844 0 1.407.547 1.407 1.344 0 .829-.563 1.375-1.422 1.375-.813 0-1.39-.562-1.39-1.359 0-.828.562-1.36 1.405-1.36m0 0" style="stroke:none"/></symbol><symbol id="h" overflow="visible"><path d="M1.906-3.469h3.64v-.86h-3.64v-2.437h4.14v-.859H.939V0h.968Zm0 0" style="stroke:none"/></symbol><symbol id="i" overflow="visible"><path d="M1.563-5.484h-.86V0h.86Zm0-2.141H.688v1.11h.875Zm0 0" style="stroke:none"/></symbol><symbol id="j" overflow="visible"><path d="M4.219-5.484v.797c-.438-.657-.922-.954-1.61-.954-1.328 0-2.25 1.235-2.25 3 0 .922.22 1.579.704 2.141.406.484.921.734 1.484.734.656 0 1.125-.28 1.594-.968v.28c0 1.454-.407 2-1.5 2-.735 0-1.125-.296-1.203-.921H.547c.078 1.016.89 1.656 2.078 1.656.797 0 1.469-.265 1.828-.703.422-.516.578-1.187.578-2.484v-4.578Zm-1.516.656c.906 0 1.438.766 1.438 2.156 0 1.328-.532 2.11-1.438 2.11s-1.422-.782-1.422-2.141c0-1.328.516-2.125 1.422-2.125m0 0" style="stroke:none"/></symbol><symbol id="k" overflow="visible"><path d="M2-1.094H.906V0H2Zm0 0" style="stroke:none"/></symbol><symbol id="m" overflow="visible"><path d="M2.703-5.39V0h.922v-7.562h-.61c-.312 1.171-.53 1.328-1.953 1.515v.656Zm0 0" style="stroke:none"/></symbol><symbol id="n" overflow="visible"><path d="M5.297-.906H1.39c.093-.625.422-1.031 1.343-1.578l1.047-.594c1.031-.563 1.563-1.344 1.563-2.281 0-.625-.25-1.203-.688-1.61-.437-.406-.984-.593-1.687-.593-.938 0-1.64.343-2.047.984-.266.406-.375.875-.406 1.64h.922c.03-.515.093-.828.218-1.078.25-.453.735-.734 1.282-.734.843 0 1.468.61 1.468 1.422 0 .61-.343 1.125-1.015 1.5l-.953.562c-1.547.891-2 1.61-2.079 3.25h4.938Zm0 0" style="stroke:none"/></symbol></defs><path d="M0 0h173v145H0z" style="fill:#fff;fill-opacity:1;stroke:none"/><path d="M28.707 131.156h142.8v-120h-142.8Zm0 0" style="stroke:none;fill-rule:nonzero;fill:#fff;fill-opacity:1"/><path d="M562.001 825.002h238.002m-193.379 0v-2.383m74.375 2.383v-2.383m74.375 2.383v-2.383" style="fill:none;stroke-width:.833333;stroke-linecap:square;stroke-linejoin:round;stroke:#262626;stroke-opacity:1;stroke-miterlimit:10" transform="matrix(.6 0 0 .6 -308.494 -363.845)"/><g style="fill:#262626;fill-opacity:1"><use xlink:href="#a" x="47.381" y="144.155"/><use xlink:href="#b" x="52.663" y="144.155"/><use xlink:href="#b" x="57.945" y="144.155"/></g><g style="fill:#262626;fill-opacity:1"><use xlink:href="#c" x="89.306" y="144.155"/><use xlink:href="#b" x="94.588" y="144.155"/><use xlink:href="#b" x="99.87" y="144.155"/><use xlink:href="#b" x="105.152" y="144.155"/></g><g style="fill:#262626;fill-opacity:1"><use xlink:href="#c" x="133.931" y="144.155"/><use xlink:href="#a" x="139.213" y="144.155"/><use xlink:href="#b" x="144.495" y="144.155"/><use xlink:href="#b" x="149.777" y="144.155"/></g><path d="M562.001 825.002v-200m0 182.656h2.377m-2.377-42.246h2.377m-2.377-42.239h2.377m-2.377-42.24h2.377m-2.377-42.246h2.377" style="fill:none;stroke-width:.833333;stroke-linecap:square;stroke-linejoin:round;stroke:#262626;stroke-opacity:1;stroke-miterlimit:10" transform="matrix(.6 0 0 .6 -308.494 -363.845)"/><g style="fill:#262626;fill-opacity:1"><use xlink:href="#d" x="3.706" y="124.349"/><use xlink:href="#b" x="8.988" y="124.349"/><use xlink:href="#b" x="14.27" y="124.349"/><use xlink:href="#b" x="19.552" y="124.349"/></g><g style="fill:#262626;fill-opacity:1"><use xlink:href="#e" x="3.706" y="99.004"/><use xlink:href="#b" x="8.988" y="99.004"/><use xlink:href="#b" x="14.27" y="99.004"/><use xlink:href="#b" x="19.552" y="99.004"/></g><g style="fill:#262626;fill-opacity:1"><use xlink:href="#f" x="3.706" y="73.658"/><use xlink:href="#b" x="8.988" y="73.658"/><use xlink:href="#b" x="14.27" y="73.658"/><use xlink:href="#b" x="19.552" y="73.658"/></g><g style="fill:#262626;fill-opacity:1"><use xlink:href="#g" x="3.706" y="48.313"/><use xlink:href="#b" x="8.988" y="48.313"/><use xlink:href="#b" x="14.27" y="48.313"/><use xlink:href="#b" x="19.552" y="48.313"/></g><g style="fill:#262626;fill-opacity:1"><use xlink:href="#c" x="-1.094" y="22.968"/><use xlink:href="#b" x="4.188" y="22.968"/><use xlink:href="#b" x="9.47" y="22.968"/><use xlink:href="#b" x="14.752" y="22.968"/><use xlink:href="#b" x="20.034" y="22.968"/></g><g style="fill:#000;fill-opacity:1"><use xlink:href="#h" x="83.907" y="7.188"/><use xlink:href="#i" x="90.292" y="7.188"/><use xlink:href="#j" x="92.612" y="7.188"/><use xlink:href="#k" x="98.422" y="7.188"/><use xlink:href="#l" x="101.327" y="7.188"/><use xlink:href="#m" x="104.232" y="7.188"/><use xlink:href="#n" x="110.043" y="7.188"/></g><path d="m799.632 723.257-.619-.078-.625.072-.618-.046-.625-.104-.619-.293-.625-.143-.625-.443-.625-.137-.618-.247-.625-.436-.625-.462-.625-.762-.625-.417-.625-.195-.625-.475-.625-.32-.632-.729-.625-.807-.625-.775-.631-.82-.625-.638-.625-.247-.632-.56-.631-.515-.625-.696-.632-.768-.631-.775-.625-.619-.632-.586-.631-.527-.632-.762-.632-.918-.631-.976-.632-1.08-.631-1.153-.632-1.263-.638-1.406-.631-1.51-.632-1.98-.638-2.546-.631-3.717-.638-5.306-.632-9.07-.638-16.672-.638-18.841-.631-5.476-.638 12.012-.638 17.038-.638 11.693-.638 5.677-.638 1.595-.638-.88-.638-.728-.638-.736-.638-1.302-.638-2.487-.645-2.95-.638-1.816-.638-.631-.645-.254-.638-4.2-.644-12.975-.645-17.142-.638-3.385-.644 16.022-.645 18.77-.644 11.888-.645 5.514-.638 2.839-.644 1.412-.651.866-.645-.065-.644-.8-.645-2.377-.644-3.587-.652-3.835-.644-3.418-.645-2.135-.65.866-.645 2.207-.651-.118-.651-3.118-.645-3.47-.65-.254-.652 4.714-.65 6.093-.652 3.685-.651.417-.651-1.738-.651.612-.651 3.945-.651 5.351-.651 3.614-.658 2.018-.65 1.601-.652.873-.657-.339-.651-1.445-.658-3.724-.658-7.135-.65-5.88-.658 2.436-.658 7.532-.657 5.528-.658 1.64-.65-2.435-.658-5.631-.664-3.822-.658 1.654-.658 4.31-.657 3.698-.658 4.108-.664 3.77-.657 2.343-.664 1.094-.658.71-.664 1.282-.657 1.556-.665 1.022-.664.56-.657.15-.664.02-.664-.34-.664-.722-.664-1.504-.664-2.715-.665-5.325-.67-8.92-.664-8.196-.664-1.126-.67 7.024-.665 8.438-.664 4.857-.67.37-.665-4.192-.67-5.065-.67.306-.671 5.39-.664 4.122-.67 1.087-.671.488-.671 1.126-.67.638-.671-2.259-.67-6.041-.678-10.345-.67-9.408-.671-.052-.677 10.93-.67 14.337-.678 10.71-.67 5.859-.677 1.973-.671.078-.677.787-.677 2.344-.677 2.175-.677.533-.677-.006-.677 1.178-.678 1.25-.677.983-.677 1.016-.677.97-.683.677-.677-.39-.678-1.329-.683-2.155-.677-1.953-.684-.599-.683 2.103-.678 3.38-.683 2.961-.684 2.318-.683 2.233-.684 2.188-.683 1.699-.684 1.341-.684.267-.683-.86-.684-.195-.69 1.595-.684 2.461-.683 1.55-.69.768-.684.312-.69-.156-.69-.833-.684-1.556-.69-1.654-.69-1.087-.69-.547-.69-.058-.69 1.998-.69 3.581-.69 3.281-.69 2.031-.69.58-.697-.41-.69-.853-.697.26-.69 1.647-.697 2.305-.69 1.999-.696 1.426-.697.93-.69.43-.697.085-.696-.482-.697-1.198-.697-1.27-.696-.038-.697 1.972-.703 2.22-.697 1.804-.696 1.321-.703.873-.697.761-.696.385-.704.436-.703.384-.696.319-.703-.085-.704-.67-.703-.196-.703.918-.703 1.342-.703.911-.703.273-.703-.416-.703-.117-.71.644-.703 1.048-.71.925-.703.436-.71.365-.703-.202-.71-.73-.709-.65-.703-.079-.71.144-.71.605-.709 1.257-.71 1.145-.71.704-.715.169-.71-.339-.71-.097-.71.293-.716-.254-.71-3.203-.715-7.149-.716-3.92-.71 4.122-.716 6.439-.716 4.342-.717 2.54-.716 1.184-.716.846-.716.697-.716.508-.716-.43-.716-.918-.717-.814-.722.287-.716.482-.723-1.4-.716-2.038-.723 1.283-.722 3.633-.717 2.532-.722.664-.723-.41-.723-.977-.722-.768-.723 1.582-.723 1.485-.722.911-.73.586-.722.872-.723 1.049-.729.976-.722.847-1.459.729-.722-.098-.73-.085-.729.209-.729.605-.73.534-.728.215-.73-.078-1.458-.013-.735-.3-.73-.37-.729-.255-.736.443-.729.736-.735.905-.736.468-.73-.123-.735-.606-.736-.124-.735.756-.736.638-.736.494-.735.6-.742.95-.736 1.055-.736.918-.742.742-.736.482-.742.423-.736.384-.742.43-.742.39-.736.41-.742.313-.742.24-.742.144-.742.006-.743-.006-.748-.098-.742.046-.743.02-.748.162" style="fill:none;stroke-width:.833333;stroke-linecap:butt;stroke-linejoin:round;stroke:#0072bd;stroke-opacity:1;stroke-miterlimit:10" transform="matrix(.6 0 0 .6 -308.494 -363.845)"/><path d="M153.938 15.625a2.749 2.749 0 1 1 0 5.5 2.749 2.749 0 1 1 0-5.5m0-.5a3.25 3.25 0 1 0 0 6.5 3.25 3.25 0 0 0 0-6.5m-6.907-.383a2.751 2.751 0 0 1 0 5.5 2.749 2.749 0 1 1 0-5.5m0-.5a3.25 3.25 0 1 0 0 6.5 3.25 3.25 0 0 0 0-6.5m-7.754 22.824a2.749 2.749 0 1 1 0 5.5 2.749 2.749 0 1 1 0-5.5m0-.5a3.25 3.25 0 1 0 0 6.5 3.25 3.25 0 0 0 0-6.5m-6.656 8.098a2.749 2.749 0 1 1 0 5.5 2.749 2.749 0 1 1 0-5.5m0-.5a3.25 3.25 0 1 0 0 6.5 3.25 3.25 0 0 0 0-6.5m0 0" style="stroke:none;fill-rule:nonzero;fill:red;fill-opacity:1"/><path d="M129.86 47.813a2.749 2.749 0 1 1 .001 5.498 2.749 2.749 0 0 1-.002-5.498m0-.5a3.25 3.25 0 1 0 0 6.5 3.25 3.25 0 0 0 0-6.5m-8.738-1.043a2.749 2.749 0 1 1 0 5.5 2.749 2.749 0 1 1 0-5.5m0-.5a3.25 3.25 0 1 0 0 6.5 3.25 3.25 0 0 0 0-6.5m-2.402 7.359a2.749 2.749 0 1 1 0 5.5 2.749 2.749 0 1 1 0-5.5m0-.5a3.25 3.25 0 1 0 0 6.5 3.25 3.25 0 0 0 0-6.5m-4.829-8.469a2.749 2.749 0 1 1 0 5.5 2.749 2.749 0 1 1 0-5.5m0-.5a3.25 3.25 0 1 0 0 6.5 3.25 3.25 0 0 0 0-6.5m-8.937 30.121a2.749 2.749 0 1 1 0 5.5 2.749 2.749 0 1 1 0-5.5m0-.5a3.25 3.25 0 1 0 0 6.5 3.25 3.25 0 0 0 0-6.5m-9.461 11.438a2.749 2.749 0 1 1-2.75 2.75c0-1.516 1.23-2.75 2.75-2.75m0-.5a3.25 3.25 0 1 0 0 6.5 3.25 3.25 0 0 0 0-6.5m-25.265 12.41a2.749 2.749 0 1 1 0 5.5 2.75 2.75 0 0 1-2.75-2.75c0-1.52 1.234-2.75 2.75-2.75m0-.5a3.25 3.25 0 1 0 0 6.5 3.25 3.25 0 0 0 0-6.5m-6.45 10.008a2.749 2.749 0 1 1-2.75 2.75c0-1.516 1.23-2.75 2.75-2.75m0-.5a3.25 3.25 0 1 0 0 6.5 3.25 3.25 0 0 0 0-6.5m0 0" style="stroke:none;fill-rule:nonzero;fill:red;fill-opacity:1"/></svg>