<svg xmlns="http://www.w3.org/2000/svg" xmlns:xlink="http://www.w3.org/1999/xlink" width="172pt" height="145pt" viewBox="0 0 172 145"><defs><symbol id="a" overflow="visible"><path d="M4.516-6.734h-3.47l-.5 3.672h.767c.39-.47.718-.641 1.25-.641.89 0 1.453.625 1.453 1.625 0 .969-.563 1.562-1.47 1.562-.733 0-1.171-.375-1.374-1.14H.328c.125.547.219.812.406 1.062.391.516 1.079.813 1.829.813 1.359 0 2.312-.985 2.312-2.406 0-1.344-.89-2.25-2.172-2.25-.484 0-.86.125-1.25.406l.266-1.875h2.797Zm0 0" style="stroke:none"/></symbol><symbol id="b" overflow="visible"><path d="M2.61-6.875c-.626 0-1.188.297-1.547.75-.438.61-.657 1.531-.657 2.797C.406-1 1.172.219 2.61.219 4.031.219 4.813-1 4.813-3.266c0-1.328-.204-2.218-.657-2.859-.343-.469-.906-.75-1.547-.75m0 .75c.906 0 1.359.922 1.359 2.781 0 1.953-.438 2.875-1.375 2.875-.89 0-1.328-.953-1.328-2.843s.437-2.813 1.343-2.813m0 0" style="stroke:none"/></symbol><symbol id="c" overflow="visible"><path d="M2.453-4.89V0h.844v-6.875H2.75C2.453-5.812 2.266-5.672.969-5.5v.61Zm0 0" style="stroke:none"/></symbol><symbol id="d" overflow="visible"><path d="M3.11-1.656V0h.828v-1.656h1v-.75h-1v-4.469h-.61L.266-2.547v.89Zm0-.75H1l2.11-3.031Zm0 0" style="stroke:none"/></symbol><symbol id="e" overflow="visible"><path d="M4.734-5.078c-.171-1.125-.89-1.797-1.906-1.797-.75 0-1.406.375-1.812.984-.422.672-.61 1.516-.61 2.75 0 1.172.156 1.891.578 2.5.36.563.938.86 1.688.86 1.281 0 2.203-.953 2.203-2.297 0-1.266-.86-2.156-2.062-2.156q-1.008 0-1.547.75c0-1.703.547-2.641 1.5-2.641.593 0 1 .375 1.125 1.047ZM2.704-3.5c.812 0 1.312.578 1.312 1.484 0 .86-.563 1.5-1.344 1.5-.766 0-1.36-.656-1.36-1.53 0-.86.563-1.454 1.391-1.454m0 0" style="stroke:none"/></symbol><symbol id="f" overflow="visible"><path d="M3.719-3.625c.703-.422.922-.766.922-1.406 0-1.094-.828-1.844-2.032-1.844-1.187 0-2.015.75-2.015 1.828 0 .656.219.984.906 1.422-.766.39-1.156.953-1.156 1.719 0 1.25.922 2.125 2.265 2.125 1.329 0 2.266-.875 2.266-2.125 0-.766-.375-1.328-1.156-1.719m-1.11-2.5c.72 0 1.172.422 1.172 1.11 0 .64-.469 1.077-1.172 1.077S1.438-4.374 1.438-5.03c0-.672.468-1.094 1.171-1.094m0 2.89c.844 0 1.407.547 1.407 1.344 0 .829-.563 1.375-1.422 1.375-.813 0-1.39-.562-1.39-1.359 0-.828.562-1.36 1.405-1.36m0 0" style="stroke:none"/></symbol><symbol id="g" overflow="visible"><path d="M1.906-3.469h3.64v-.86h-3.64v-2.437h4.14v-.859H.939V0h.968Zm0 0" style="stroke:none"/></symbol><symbol id="h" overflow="visible"><path d="M1.563-5.484h-.86V0h.86Zm0-2.141H.688v1.11h.875Zm0 0" style="stroke:none"/></symbol><symbol id="i" overflow="visible"><path d="M4.219-5.484v.797c-.438-.657-.922-.954-1.61-.954-1.328 0-2.25 1.235-2.25 3 0 .922.22 1.579.704 2.141.406.484.921.734 1.484.734.656 0 1.125-.28 1.594-.968v.28c0 1.454-.407 2-1.5 2-.735 0-1.125-.296-1.203-.921H.547c.078 1.016.89 1.656 2.078 1.656.797 0 1.469-.265 1.828-.703.422-.516.578-1.187.578-2.484v-4.578Zm-1.516.656c.906 0 1.438.766 1.438 2.156 0 1.328-.532 2.11-1.438 2.11s-1.422-.782-1.422-2.141c0-1.328.516-2.125 1.422-2.125m0 0" style="stroke:none"/></symbol><symbol id="j" overflow="visible"><path d="M2-1.094H.906V0H2Zm0 0" style="stroke:none"/></symbol><symbol id="l" overflow="visible"><path d="M2.703-5.39V0h.922v-7.562h-.61c-.312 1.171-.53 1.328-1.953 1.515v.656Zm0 0" style="stroke:none"/></symbol><symbol id="m" overflow="visible"><path d="M2.313-3.484h.5c1 0 1.53.468 1.53 1.39 0 .938-.562 1.516-1.515 1.516-1.015 0-1.515-.516-1.578-1.61H.328c.047.594.156 1 .328 1.329.39.734 1.11 1.093 2.125 1.093 1.531 0 2.516-.906 2.516-2.343 0-.97-.375-1.485-1.266-1.797.688-.281 1.032-.813 1.032-1.578 0-1.297-.844-2.078-2.25-2.078-1.5 0-2.297.843-2.329 2.437h.922c.016-.453.063-.719.172-.953.203-.422.672-.672 1.25-.672.813 0 1.297.484 1.297 1.297 0 .547-.187.86-.594 1.047-.25.093-.578.14-1.219.156Zm0 0" style="stroke:none"/></symbol></defs><path d="M0 0h172v145H0z" style="fill:#fff;fill-opacity:1;stroke:none"/><path d="M28.707 131.156h142.2v-120h-142.2Zm0 0" style="stroke:none;fill-rule:nonzero;fill:#fff;fill-opacity:1"/><path d="M875.001 825.002H1112m-192.565 0v-2.37m74.062 2.37v-2.37m74.063 2.37v-2.37" style="fill:none;stroke-width:.833333;stroke-linecap:square;stroke-linejoin:round;stroke:#262626;stroke-opacity:1;stroke-miterlimit:10" transform="matrix(.6 0 0 .6 -496.294 -363.845)"/><g style="fill:#262626;fill-opacity:1"><use xlink:href="#a" x="47.269" y="144.155"/><use xlink:href="#b" x="52.551" y="144.155"/><use xlink:href="#b" x="57.833" y="144.155"/></g><g style="fill:#262626;fill-opacity:1"><use xlink:href="#c" x="89.006" y="144.155"/><use xlink:href="#b" x="94.288" y="144.155"/><use xlink:href="#b" x="99.57" y="144.155"/><use xlink:href="#b" x="104.852" y="144.155"/></g><g style="fill:#262626;fill-opacity:1"><use xlink:href="#c" x="133.444" y="144.155"/><use xlink:href="#a" x="138.726" y="144.155"/><use xlink:href="#b" x="144.008" y="144.155"/><use xlink:href="#b" x="149.289" y="144.155"/></g><path d="M875.001 825.002v-200m0 176.51h2.37m-2.37-51.054h2.37m-2.37-51.048h2.37m-2.37-51.049h2.37" style="fill:none;stroke-width:.833333;stroke-linecap:square;stroke-linejoin:round;stroke:#262626;stroke-opacity:1;stroke-miterlimit:10" transform="matrix(.6 0 0 .6 -496.294 -363.845)"/><g style="fill:#262626;fill-opacity:1"><use xlink:href="#d" x="3.706" y="120.662"/><use xlink:href="#b" x="8.988" y="120.662"/><use xlink:href="#b" x="14.27" y="120.662"/><use xlink:href="#b" x="19.552" y="120.662"/></g><g style="fill:#262626;fill-opacity:1"><use xlink:href="#e" x="3.706" y="90.031"/><use xlink:href="#b" x="8.988" y="90.031"/><use xlink:href="#b" x="14.27" y="90.031"/><use xlink:href="#b" x="19.552" y="90.031"/></g><g style="fill:#262626;fill-opacity:1"><use xlink:href="#f" x="3.706" y="59.401"/><use xlink:href="#b" x="8.988" y="59.401"/><use xlink:href="#b" x="14.27" y="59.401"/><use xlink:href="#b" x="19.552" y="59.401"/></g><g style="fill:#262626;fill-opacity:1"><use xlink:href="#c" x="-1.094" y="28.77"/><use xlink:href="#b" x="4.188" y="28.77"/><use xlink:href="#b" x="9.47" y="28.77"/><use xlink:href="#b" x="14.752" y="28.77"/><use xlink:href="#b" x="20.034" y="28.77"/></g><g style="fill:#000;fill-opacity:1"><use xlink:href="#g" x="83.607" y="7.188"/><use xlink:href="#h" x="89.992" y="7.188"/><use xlink:href="#i" x="92.312" y="7.188"/><use xlink:href="#j" x="98.122" y="7.188"/><use xlink:href="#k" x="101.027" y="7.188"/><use xlink:href="#l" x="103.932" y="7.188"/><use xlink:href="#m" x="109.743" y="7.188"/></g><path d="m1111.635 812.235-.618-.189-.619-.195-.618-.378-.625-.52-.619-.534-.618-.397-.619-.463-.625-.364-.618-.521-.625-.612-.619-.638-.625-.905-.618-.846-.625-.912-.625-1.087-.619-.853-.625-.885-.625-.86-.625-.722-.625-.88-.625-1.008-.625-.671-.625-.983-.625-1.087-.625-1.341-.631-1.472-.625-1.966-.625-2.272-.632-3.158-.625-4.68-.631-8.783-.625-18.79-.632-34.407-.631-39.023-.625-12.272-.632 24.394-.631 35.436-.632 25.183-.631 12.643-.632 5.013-.631.684-.632-2.553-.631-4.68-.632-4.48-.638-1.419-.631 1.66-.632 2.298-.638.651-.631-3.007-.638-8.842-.632-18.112-.638-25.02-.638-15.207-.631 6.393-.638 18.756-.638 15.078-.638 7.806-.638 4.467-.638 3.424-.638 2.507-.638.533-.638-1.569-.638-4.16-.645-10.761-.638-23.405-.638-36.426-.645-31.758-.638-5.326-.644 24.48-.638 34.57-.645 27.702-.644 16.985-.638 9.668-.645 4.519-.644 1.165-.645.215-.644 1.79-.645 2.813-.644 1.927-.645-.104-.645-1.537-.644-2.67-.651-5-.645-5.767-.644-1.42-.651 1.153-.645-.54-.65-.261-.645 2.773-.651 4.7-.651 3.55-.651 2.278-.645.54-.651-1.842-.651-5.293-.651-8.926-.651-10.3-.651-13.873-.658-26.114-.65-33.528-.652-16.543-.65 12.695-.658 26.908-.651 26.06-.658 21.616-.651 14.505-.658 7.168-.65 1.686-.658-3.001-.658-9.447-.657-18.405-.651-21.256-.658-8.275-.657 10.006-.658 15.67-.658 10.112-.664 6.074-.657 6.471-.658 6.543-.657 4.362-.664 1.348-.658-.339-.664-.319-.657 1.85-.665 3.417-.657 3.288-.664 2.383-.664 1.165-.664.938-.664.22-.658.02-.664-.488-.664-1.016-.67-1.653-.665-3.737-.664-5.606-.664-5.221-.67-5.02-.664-8.828-.664-14.212-.671-11.777-.664 3.138-.67 16.953-.671 16.992-.664 10.58-.67 5.136-.671 2.52-.671 1.165-.67-.338-.671-1.888-.67-5.026-.671-9.193-.67-7.735-.671 1.739-.678 7.806-.67 6.998-.67 5.04-.678 2.858-.67.221-.677-1.81-.678-2.487-.67-.618-.677 1.204-.677 2.174-.677 2.78-.677 2.162-.678 1.445-.677.964-.677.716-.677.24-.677.346-.677.462-.684.17-.677.051-.683.26-.677.255-.684-.228-.677-.527-.684-1.23-.683-1.74-.677-.403-.684 1.478-.683 2.168-.684 1.198-.684.475-1.367.612-.69.098-.683-.28-.684-.287-.69-.416-.684-1.003-.69-2.148-.683-2.318-.69-.885-.684.976-.69 1.537-.69.892-.69.43-.69-.398-.69-.618-.69-1.127-.69-1.12-.691.118-.69 1.198-.697 1.328-.69.97-.69.872-.697.749-.69.547-.696.319-.69-.007-.697.098-.697-.124-.696-.143-.697-.514-.696-.71-.697-.417-.697-.215-.696.372-.697.449-.697.58-.703.455-.696-.156-.697-1.068-.703-3.236-.697-9.03-.703-18.802-.703-23.34-.696-13.743-.704 7.038-.703 22.064-.703 20-.703 10.872-.703 4.909-.703 2.936-.703 1.556-.703.651-.71-.45-.703-.793h-.703l-.71 1.614-.703 2.487-.71 1.367-.71.86-.703 1.191-.71.853-.709.404-.71-.593-.71-1.204-.709-.384-.71.345-.709.162-.71-.67-.716-4.74-.71-15.215-.709-22.8-.716-8-.71 15.644-.716 18.802-.716 10.326-.71 2.877-.716 2.455-.716 1.588-.716.931-.716.567-.716.188-.717-.182-.716.143-.716.15-.723-.325-.716-1.433-.716-1.634-.722-2.643-.717-2.35-.722.86-.723 1.36-.716 1.881-.723 1.68-.722 1.55-.723.514-.723.039-.722 1.393-.723 2.26-.723 3.027-.729 1.796-.723.814-.722.026-.73-.3-.722-.683-.73-1.36-.722-2.181-.729-1.869-.73-1.562-.728-1.543-.73-1.81-.729-3.262-.729-2.832-.729-1.439-.73.879-.728 2.663-.73 4.27-.735 4.929-.73 4.674-.728 4.128-.736 3.32-.736 2.683-.729 1.673-.736.807-.735-.013-.736-.736-.736-.878-.735-.86-.736-.306-.736-.397-.735-.612-.736-.605-.742 1.171-.736 2.69-.736 2.812-.742 1.634-.742-.241-.736-2.591-.742-4.024-.742-2.122-.742 1.55-.742 4.498" style="fill:none;stroke-width:.833333;stroke-linecap:butt;stroke-linejoin:round;stroke:#0072bd;stroke-opacity:1;stroke-miterlimit:10" transform="matrix(.6 0 0 .6 -496.294 -363.845)"/><path d="M157.582 33.941a2.751 2.751 0 0 1 0 5.5 2.749 2.749 0 1 1 0-5.5m0-.5a3.25 3.25 0 1 0 0 6.5 3.25 3.25 0 0 0 0-6.5m-6.84 15.286a2.749 2.749 0 1 1 0 5.5 2.75 2.75 0 0 1-2.75-2.75c0-1.52 1.235-2.75 2.75-2.75m0-.5a3.25 3.25 0 1 0 0 6.5 3.25 3.25 0 0 0 0-6.5m-5.746-32.164a2.749 2.749 0 1 1 0 5.5 2.749 2.749 0 1 1 0-5.5m0-.5a3.25 3.25 0 1 0 0 6.5 3.25 3.25 0 0 0 0-6.5m-6.57 66.101c1.515 0 2.75 1.23 2.75 2.75s-1.235 2.75-2.75 2.75a2.749 2.749 0 1 1 0-5.5m0-.5a3.25 3.25 0 1 0 0 6.5 3.25 3.25 0 0 0 0-6.5m-6.242-60.836a2.749 2.749 0 1 1 0 5.5 2.749 2.749 0 1 1 0-5.5m0-.5a3.25 3.25 0 1 0 0 6.5 3.25 3.25 0 0 0 0-6.5m-4.715 30.652c1.515 0 2.75 1.23 2.75 2.75s-1.235 2.75-2.75 2.75a2.749 2.749 0 1 1 0-5.5m0-.5a3.25 3.25 0 1 0 0 6.5 3.25 3.25 0 0 0 0-6.5m-11.129 9.891a2.749 2.749 0 1 1 0 5.5 2.749 2.749 0 1 1 0-5.5m0-.5a3.25 3.25 0 1 0 0 6.5 3.25 3.25 0 0 0 0-6.5m-4.82 19.883a2.749 2.749 0 1 1 0 5.5 2.749 2.749 0 1 1 0-5.5m0-.5a3.25 3.25 0 1 0 0 6.5 3.25 3.25 0 0 0 0-6.5m-3.637 12.348a2.749 2.749 0 1 1 0 5.5 2.749 2.749 0 1 1 0-5.5m0-.5a3.25 3.25 0 1 0 0 6.5 3.25 3.25 0 0 0 0-6.5m-13.496 5.175a2.749 2.749 0 1 1 0 5.5 2.749 2.749 0 1 1 0-5.5m0-.5a3.25 3.25 0 1 0 0 6.5 3.25 3.25 0 0 0 0-6.5M79.8 58.05a2.75 2.75 0 0 1 2.75 2.75 2.749 2.749 0 1 1-2.75-2.75m0-.5a3.25 3.25 0 1 0 0 6.5 3.25 3.25 0 0 0 0-6.5M67.918 72.727a2.749 2.749 0 1 1 0 5.5 2.749 2.749 0 1 1 0-5.5m0-.5a3.25 3.25 0 1 0 0 6.5 3.25 3.25 0 0 0 0-6.5M60.613 99.79a2.754 2.754 0 0 1 2.75 2.75 2.749 2.749 0 1 1-2.75-2.75m0-.5a3.25 3.25 0 1 0 0 6.5 3.25 3.25 0 0 0 0-6.5m-10.441-.485a2.749 2.749 0 1 1 0 5.5 2.75 2.75 0 0 1-2.75-2.75c0-1.52 1.234-2.75 2.75-2.75m0-.5a3.25 3.25 0 1 0 0 6.5 3.25 3.25 0 0 0 0-6.5M38.7 113.773a2.749 2.749 0 1 1 0 5.5 2.749 2.749 0 1 1 0-5.5m0-.5a3.25 3.25 0 1 0 0 6.5 3.25 3.25 0 0 0 0-6.5m0 0" style="stroke:none;fill-rule:nonzero;fill:red;fill-opacity:1"/></svg>