<svg xmlns="http://www.w3.org/2000/svg" xmlns:xlink="http://www.w3.org/1999/xlink" width="169pt" height="145pt" viewBox="0 0 169 145"><defs><symbol id="a" overflow="visible"><path d="M4.516-6.734h-3.47l-.5 3.672h.767c.39-.47.718-.641 1.25-.641.89 0 1.453.625 1.453 1.625 0 .969-.563 1.562-1.47 1.562-.733 0-1.171-.375-1.374-1.14H.328c.125.547.219.812.406 1.062.391.516 1.079.813 1.829.813 1.359 0 2.312-.985 2.312-2.406 0-1.344-.89-2.25-2.172-2.25-.484 0-.86.125-1.25.406l.266-1.875h2.797Zm0 0" style="stroke:none"/></symbol><symbol id="b" overflow="visible"><path d="M2.61-6.875c-.626 0-1.188.297-1.547.75-.438.61-.657 1.531-.657 2.797C.406-1 1.172.219 2.61.219 4.031.219 4.813-1 4.813-3.266c0-1.328-.204-2.218-.657-2.859-.343-.469-.906-.75-1.547-.75m0 .75c.906 0 1.359.922 1.359 2.781 0 1.953-.438 2.875-1.375 2.875-.89 0-1.328-.953-1.328-2.843s.437-2.813 1.343-2.813m0 0" style="stroke:none"/></symbol><symbol id="c" overflow="visible"><path d="M2.453-4.89V0h.844v-6.875H2.75C2.453-5.812 2.266-5.672.969-5.5v.61Zm0 0" style="stroke:none"/></symbol><symbol id="d" overflow="visible"><path d="M4.813-.828H1.265c.078-.563.39-.922 1.218-1.438l.938-.53c.953-.517 1.437-1.22 1.437-2.063 0-.578-.234-1.11-.625-1.485-.406-.36-.906-.531-1.53-.531-.86 0-1.5.313-1.86.906-.25.36-.344.782-.375 1.469h.844c.03-.453.078-.734.203-.969a1.3 1.3 0 0 1 1.156-.672C3.422-6.14 4-5.594 4-4.844c0 .547-.312 1.032-.906 1.36l-.875.515C.813-2.156.406-1.516.329-.016h4.484Zm0 0" style="stroke:none"/></symbol><symbol id="e" overflow="visible"><path d="M3.11-1.656V0h.828v-1.656h1v-.75h-1v-4.469h-.61L.266-2.547v.89Zm0-.75H1l2.11-3.031Zm0 0" style="stroke:none"/></symbol><symbol id="f" overflow="visible"><path d="M4.734-5.078c-.171-1.125-.89-1.797-1.906-1.797-.75 0-1.406.375-1.812.984-.422.672-.61 1.516-.61 2.75 0 1.172.156 1.891.578 2.5.36.563.938.86 1.688.86 1.281 0 2.203-.953 2.203-2.297 0-1.266-.86-2.156-2.062-2.156q-1.008 0-1.547.75c0-1.703.547-2.641 1.5-2.641.593 0 1 .375 1.125 1.047ZM2.704-3.5c.812 0 1.312.578 1.312 1.484 0 .86-.563 1.5-1.344 1.5-.766 0-1.36-.656-1.36-1.53 0-.86.563-1.454 1.391-1.454m0 0" style="stroke:none"/></symbol><symbol id="g" overflow="visible"><path d="M1.906-3.469h3.64v-.86h-3.64v-2.437h4.14v-.859H.939V0h.968Zm0 0" style="stroke:none"/></symbol><symbol id="h" overflow="visible"><path d="M1.563-5.484h-.86V0h.86Zm0-2.141H.688v1.11h.875Zm0 0" style="stroke:none"/></symbol><symbol id="i" overflow="visible"><path d="M4.219-5.484v.797c-.438-.657-.922-.954-1.61-.954-1.328 0-2.25 1.235-2.25 3 0 .922.22 1.579.704 2.141.406.484.921.734 1.484.734.656 0 1.125-.28 1.594-.968v.28c0 1.454-.407 2-1.5 2-.735 0-1.125-.296-1.203-.921H.547c.078 1.016.89 1.656 2.078 1.656.797 0 1.469-.265 1.828-.703.422-.516.578-1.187.578-2.484v-4.578Zm-1.516.656c.906 0 1.438.766 1.438 2.156 0 1.328-.532 2.11-1.438 2.11s-1.422-.782-1.422-2.141c0-1.328.516-2.125 1.422-2.125m0 0" style="stroke:none"/></symbol><symbol id="j" overflow="visible"><path d="M2-1.094H.906V0H2Zm0 0" style="stroke:none"/></symbol><symbol id="l" overflow="visible"><path d="M5.297-.906H1.39c.093-.625.422-1.031 1.343-1.578l1.047-.594c1.031-.563 1.563-1.344 1.563-2.281 0-.625-.25-1.203-.688-1.61-.437-.406-.984-.593-1.687-.593-.938 0-1.64.343-2.047.984-.266.406-.375.875-.406 1.64h.922c.03-.515.093-.828.218-1.078.25-.453.735-.734 1.282-.734.843 0 1.468.61 1.468 1.422 0 .61-.343 1.125-1.015 1.5l-.953.562c-1.547.891-2 1.61-2.079 3.25h4.938Zm0 0" style="stroke:none"/></symbol></defs><path d="M0 0h169v145H0z" style="fill:#fff;fill-opacity:1;stroke:none"/><path d="M24.875 131.156h142.8v-120h-142.8Zm0 0" style="stroke:none;fill-rule:nonzero;fill:#fff;fill-opacity:1"/><path d="M562 270.002h238.001m-193.379 0v-2.383m74.375 2.383v-2.383m74.375 2.383v-2.383" style="fill:none;stroke-width:.833333;stroke-linecap:square;stroke-linejoin:round;stroke:#262626;stroke-opacity:1;stroke-miterlimit:10" transform="matrix(.6 0 0 .6 -312.325 -30.845)"/><g style="fill:#262626;fill-opacity:1"><use xlink:href="#a" x="43.55" y="144.155"/><use xlink:href="#b" x="48.832" y="144.155"/><use xlink:href="#b" x="54.114" y="144.155"/></g><g style="fill:#262626;fill-opacity:1"><use xlink:href="#c" x="85.475" y="144.155"/><use xlink:href="#b" x="90.757" y="144.155"/><use xlink:href="#b" x="96.039" y="144.155"/><use xlink:href="#b" x="101.321" y="144.155"/></g><g style="fill:#262626;fill-opacity:1"><use xlink:href="#c" x="130.1" y="144.155"/><use xlink:href="#a" x="135.382" y="144.155"/><use xlink:href="#b" x="140.664" y="144.155"/><use xlink:href="#b" x="145.946" y="144.155"/></g><path d="M562 270.002v-200m0 163.971h2.383M562 178.361h2.383M562 122.743h2.383" style="fill:none;stroke-width:.833333;stroke-linecap:square;stroke-linejoin:round;stroke:#262626;stroke-opacity:1;stroke-miterlimit:10" transform="matrix(.6 0 0 .6 -312.325 -30.845)"/><g style="fill:#262626;fill-opacity:1"><use xlink:href="#d" x="-.125" y="113.138"/><use xlink:href="#b" x="5.157" y="113.138"/><use xlink:href="#b" x="10.439" y="113.138"/><use xlink:href="#b" x="15.721" y="113.138"/></g><g style="fill:#262626;fill-opacity:1"><use xlink:href="#e" x="-.125" y="79.77"/><use xlink:href="#b" x="5.157" y="79.77"/><use xlink:href="#b" x="10.439" y="79.77"/><use xlink:href="#b" x="15.721" y="79.77"/></g><g style="fill:#262626;fill-opacity:1"><use xlink:href="#f" x="-.125" y="46.402"/><use xlink:href="#b" x="5.157" y="46.402"/><use xlink:href="#b" x="10.439" y="46.402"/><use xlink:href="#b" x="15.721" y="46.402"/></g><g style="fill:#000;fill-opacity:1"><use xlink:href="#g" x="83.075" y="7.187"/><use xlink:href="#h" x="89.46" y="7.187"/><use xlink:href="#i" x="91.78" y="7.187"/><use xlink:href="#j" x="97.591" y="7.187"/><use xlink:href="#k" x="100.496" y="7.187"/><use xlink:href="#l" x="103.401" y="7.187"/></g><path d="m799.63 201.845-.618.078-.625.143-.619.078-.625.293-.618.267-.625.312-.625.026-.619.007-.625-.13-.625-.078-.625-.013-.625-.267-.625-.306-.625-.371-.625-.41-.625-.066-.625-.156-.631-.15-.625-.188-.625-.313-.632-.384-.625-.247-.631-.424-.625-.364-.632-.619-.631-.638-.625-.911-.632-1.003-.631-1.08-.632-.886-.631-.631-.632-.41-.631-.294-.632-.527-.631-1.055-.632-1.816-.638-3.34-.631-7.174-.632-14.772-.638-17.312-.631-4.388-.638 10.222-.632 10.58-.638 1.536-.632-7.774-.638-14.668-.638-12.715-.638-1.185-.638 7.468-.638 3.685-.631-8.913-.645-15.827-.638-4.427-.638 12.155-.638 18.796-.638 15.397-.638 10.195-.644 6.374-.638 3.45-.645 1.153-.638-.645-.644-2.982-.638-9.59-.645-15.579-.644-5.833-.645 9.297-.638 13.457-.645 9.023-.644 5.046-.645 2.226-.644.293-.645-1.51-.65-2.963-.645-4.446-.645-6.25-.644-11.823-.651-18.704-.645-11.224-.65 2.714-.645-.423-.652-11.27-.644-2.258-.651 15.768-.651 16.81-.651 8.776-.651 4.062-.645 1.433-.65-4.056-.652-13.477-.657-15.885-.651-6.921-.651-4.954-.652-7-.65 8.94-.658 21.523-.651 14.525-.658 3.535-.65-1.934-.658-5.976-.651-12.845-.658-11.126-.657 1.035-.658 5.787-.651 3.412-.658 6.862-.657 11.146-.658 10.983-.657 7.832-.658 4.844-.664 2.617-.657 1.087-.658 1.27-.664 1.432-.658.872-.657-.807-.664-3.958-.658-9.792-.664-21.458-.664-34.362-.657-27.175-.664-3.307-.665 14.68-.664 26.902-.664 29.088-.664 19.18-.664 9.857-.664 4.772-.664 2.409-.67 1.96-.665 1.835-.664 1.146-.67-1.035-.664-5.065-.67-9.349-.665-12.61-.67-16.348-.671-15.684-.664-1.237-.67 16.257-.671 19.87-.67 11.158-.671.912-.67-1.042-.672 5.482-.67 9.518-.67 6.4-.678-.059-.67-9.993-.67-8.132-.678 7.253-.67 10.43-.678 3.932-.67 3.164-.677 4.245-.677 2.8-.677.553-.678-.873-.67-1.465-.677-1.34-.677-1.368-.677-1.536-.684-.717-.677.743-.677 1.647-.677 1.712-.684 1.719-.677 2.24-.683 2.44-.678 1.986-.683.905-.677-.215-.684-1.178-.683-1.36-.684-.756-.684-.397-.677-.365-.683-.045-.69 1.836-.684 3.15-.684 1.628-.683.782-.684 1.862-.69 2.467-.683 1.061-.69.007-.684-.371-.69-.593-.684-1.06-.69-2.494-.69-6.472-.69-14.466-.69-20.866-.69-12.278-.69 8.118-.69 18.685-.69 15.52-.69 9.473-.69 5.359-.698 3.144-.69 1.621-.69.703-.696.124-.69.228-.697.534-.697.716-.69.69-.696.462-.697.378-.697.423-.696.508-.697.657-.696.743-.697.449-.697-.73-.703-.956-.696.449-.697 1.452-.703 1.152-.697.749-.703.586-.697.384-.703.234-.703.24-.703.144-.703-.013-.703-.039-.703.17-1.407.69-.703-.04-.703-.351-.71-.632-.703-.553-.703-.189-.71-.039-.702-.17-.71-1.086-.71-3.275-.703-7.61-.71-15.014-.71-18.086-.709-2.2-.71 16.048-.709 14.837-.71 7.103-.71 3.958-.715 2.67-.71 1.757-.71-.28-.716-2.194-.71.371-.716 3.184-.71 2.149-.715.286-.717-.775-.716-1.028-.71-.352-.715.566-.717 1.309-.716 1.087-.716.703-.723.235-.716-.88-.716-2.017-.723-1.595-.716.227-.722-1.556-.716-8.053-.723-7.988-.716 3.157-.723 8.815-.723 5.215-.722 2.52-.723 1.894-.723 1.784-.722.925-.723.566-.723.28-.722-.156-.73-.287-.722.124-.73.664-.722.632-.729.09-.723.046-.729-.162-.729-.111-.73-.007-.728.202-.73.13-.729-.02-.729-.188-.729-.247-.73-.47-.728-.546-.736.104-.73.54-.735.775-.729.43-.736.313-.735.09-.73.04-.735-.033-.736-.15-.736-.11-.735-.254-.736-.593-.736-1.002-.735-.632-.742.332-.736.476-.736-.118-.742-.729-.736-.612-.742-.228-.742.398-.736.592-.742.716-.742.833-.742 1.023-.742 1.009-.743.827-.742.514-.742-.059-.749-.54-.742-1.146-.749-1.341" style="fill:none;stroke-width:.833333;stroke-linecap:butt;stroke-linejoin:round;stroke:#0072bd;stroke-opacity:1;stroke-miterlimit:10" transform="matrix(.6 0 0 .6 -312.325 -30.845)"/><path d="M152.012 51.8a2.749 2.749 0 1 1 0 5.5 2.749 2.749 0 1 1 0-5.5m0-.5a3.25 3.25 0 1 0 0 6.5 3.25 3.25 0 0 0 0-6.5m-4.586-18.71a2.749 2.749 0 1 1 .002 5.498 2.749 2.749 0 0 1-.002-5.498m0-.5a3.25 3.25 0 1 0 0 6.5 3.25 3.25 0 0 0 0-6.5m-4.613 20.234a2.749 2.749 0 1 1-2.75 2.75c0-1.515 1.23-2.75 2.75-2.75m0-.5a3.25 3.25 0 1 0 0 6.5 3.25 3.25 0 0 0 0-6.5m-6.586-16.789a2.754 2.754 0 0 1 2.75 2.75 2.749 2.749 0 1 1-2.75-2.75m0-.5a3.25 3.25 0 1 0 0 6.5 3.25 3.25 0 0 0 0-6.5m0 0" style="stroke:none;fill-rule:nonzero;fill:red;fill-opacity:1"/><path d="M131.93 31.77a2.749 2.749 0 1 1 0 5.5 2.749 2.749 0 1 1 0-5.5m0-.5a3.25 3.25 0 1 0 0 6.5 3.25 3.25 0 0 0 0-6.5m-3.14 10.484a2.749 2.749 0 1 1 0 5.5 2.749 2.749 0 1 1 0-5.5m0-.5a3.25 3.25 0 1 0 0 6.5 3.25 3.25 0 0 0 0-6.5m-7.911-24.508a2.749 2.749 0 1 1 0 5.5 2.749 2.749 0 1 1 0-5.5m0-.5a3.25 3.25 0 1 0 0 6.5 3.25 3.25 0 0 0 0-6.5m-6.793 30.801a2.751 2.751 0 0 1 0 5.5 2.749 2.749 0 1 1 0-5.5m0-.5a3.25 3.25 0 1 0 0 6.5 3.25 3.25 0 0 0 0-6.5m-4.43 30.723c1.516 0 2.75 1.23 2.75 2.75a2.754 2.754 0 0 1-2.75 2.75 2.749 2.749 0 1 1 0-5.5m0-.5a3.25 3.25 0 1 0 0 6.5 3.25 3.25 0 0 0 0-6.5m-5.273 15.546a2.749 2.749 0 1 1 0 5.5 2.75 2.75 0 0 1-2.75-2.75c0-1.52 1.234-2.75 2.75-2.75m0-.5a3.25 3.25 0 1 0 0 6.5 3.25 3.25 0 0 0 0-6.5M91.66 70.277a2.749 2.749 0 1 1 0 5.5 2.75 2.75 0 0 1-2.75-2.75c0-1.52 1.235-2.75 2.75-2.75m0-.5a3.25 3.25 0 1 0 0 6.5 3.25 3.25 0 0 0 0-6.5M71.094 84.559a2.749 2.749 0 1 1 0 5.5 2.749 2.749 0 1 1 0-5.5m0-.5a3.25 3.25 0 1 0 0 6.5 3.25 3.25 0 0 0 0-6.5m-11.582 18.363a2.749 2.749 0 1 1 0 5.5 2.749 2.749 0 1 1 0-5.5m0-.5a3.25 3.25 0 1 0 0 6.5 3.25 3.25 0 0 0 0-6.5m0 0" style="stroke:none;fill-rule:nonzero;fill:red;fill-opacity:1"/></svg>