<svg xmlns="http://www.w3.org/2000/svg" xmlns:xlink="http://www.w3.org/1999/xlink" width="172pt" height="145pt" viewBox="0 0 172 145"><defs><symbol id="a" overflow="visible"><path d="M4.516-6.734h-3.47l-.5 3.672h.767c.39-.47.718-.641 1.25-.641.89 0 1.453.625 1.453 1.625 0 .969-.563 1.562-1.47 1.562-.733 0-1.171-.375-1.374-1.14H.328c.125.547.219.812.406 1.062.391.516 1.079.813 1.829.813 1.359 0 2.312-.985 2.312-2.406 0-1.344-.89-2.25-2.172-2.25-.484 0-.86.125-1.25.406l.266-1.875h2.797Zm0 0" style="stroke:none"/></symbol><symbol id="b" overflow="visible"><path d="M2.61-6.875c-.626 0-1.188.297-1.547.75-.438.61-.657 1.531-.657 2.797C.406-1 1.172.219 2.61.219 4.031.219 4.813-1 4.813-3.266c0-1.328-.204-2.218-.657-2.859-.343-.469-.906-.75-1.547-.75m0 .75c.906 0 1.359.922 1.359 2.781 0 1.953-.438 2.875-1.375 2.875-.89 0-1.328-.953-1.328-2.843s.437-2.813 1.343-2.813m0 0" style="stroke:none"/></symbol><symbol id="c" overflow="visible"><path d="M2.453-4.89V0h.844v-6.875H2.75C2.453-5.812 2.266-5.672.969-5.5v.61Zm0 0" style="stroke:none"/></symbol><symbol id="d" overflow="visible"><path d="M4.813-.828H1.265c.078-.563.39-.922 1.218-1.438l.938-.53c.953-.517 1.437-1.22 1.437-2.063 0-.578-.234-1.11-.625-1.485-.406-.36-.906-.531-1.53-.531-.86 0-1.5.313-1.86.906-.25.36-.344.782-.375 1.469h.844c.03-.453.078-.734.203-.969a1.3 1.3 0 0 1 1.156-.672C3.422-6.14 4-5.594 4-4.844c0 .547-.312 1.032-.906 1.36l-.875.515C.813-2.156.406-1.516.329-.016h4.484Zm0 0" style="stroke:none"/></symbol><symbol id="e" overflow="visible"><path d="M3.11-1.656V0h.828v-1.656h1v-.75h-1v-4.469h-.61L.266-2.547v.89Zm0-.75H1l2.11-3.031Zm0 0" style="stroke:none"/></symbol><symbol id="f" overflow="visible"><path d="M4.734-5.078c-.171-1.125-.89-1.797-1.906-1.797-.75 0-1.406.375-1.812.984-.422.672-.61 1.516-.61 2.75 0 1.172.156 1.891.578 2.5.36.563.938.86 1.688.86 1.281 0 2.203-.953 2.203-2.297 0-1.266-.86-2.156-2.062-2.156q-1.008 0-1.547.75c0-1.703.547-2.641 1.5-2.641.593 0 1 .375 1.125 1.047ZM2.704-3.5c.812 0 1.312.578 1.312 1.484 0 .86-.563 1.5-1.344 1.5-.766 0-1.36-.656-1.36-1.53 0-.86.563-1.454 1.391-1.454m0 0" style="stroke:none"/></symbol><symbol id="g" overflow="visible"><path d="M3.719-3.625c.703-.422.922-.766.922-1.406 0-1.094-.828-1.844-2.032-1.844-1.187 0-2.015.75-2.015 1.828 0 .656.219.984.906 1.422-.766.39-1.156.953-1.156 1.719 0 1.25.922 2.125 2.265 2.125 1.329 0 2.266-.875 2.266-2.125 0-.766-.375-1.328-1.156-1.719m-1.11-2.5c.72 0 1.172.422 1.172 1.11 0 .64-.469 1.077-1.172 1.077S1.438-4.374 1.438-5.03c0-.672.468-1.094 1.171-1.094m0 2.89c.844 0 1.407.547 1.407 1.344 0 .829-.563 1.375-1.422 1.375-.813 0-1.39-.562-1.39-1.359 0-.828.562-1.36 1.405-1.36m0 0" style="stroke:none"/></symbol><symbol id="h" overflow="visible"><path d="M1.906-3.469h3.64v-.86h-3.64v-2.437h4.14v-.859H.939V0h.968Zm0 0" style="stroke:none"/></symbol><symbol id="i" overflow="visible"><path d="M1.563-5.484h-.86V0h.86Zm0-2.141H.688v1.11h.875Zm0 0" style="stroke:none"/></symbol><symbol id="j" overflow="visible"><path d="M4.219-5.484v.797c-.438-.657-.922-.954-1.61-.954-1.328 0-2.25 1.235-2.25 3 0 .922.22 1.579.704 2.141.406.484.921.734 1.484.734.656 0 1.125-.28 1.594-.968v.28c0 1.454-.407 2-1.5 2-.735 0-1.125-.296-1.203-.921H.547c.078 1.016.89 1.656 2.078 1.656.797 0 1.469-.265 1.828-.703.422-.516.578-1.187.578-2.484v-4.578Zm-1.516.656c.906 0 1.438.766 1.438 2.156 0 1.328-.532 2.11-1.438 2.11s-1.422-.782-1.422-2.141c0-1.328.516-2.125 1.422-2.125m0 0" style="stroke:none"/></symbol><symbol id="k" overflow="visible"><path d="M2-1.094H.906V0H2Zm0 0" style="stroke:none"/></symbol><symbol id="m" overflow="visible"><path d="M2.313-3.484h.5c1 0 1.53.468 1.53 1.39 0 .938-.562 1.516-1.515 1.516-1.015 0-1.515-.516-1.578-1.61H.328c.047.594.156 1 .328 1.329.39.734 1.11 1.093 2.125 1.093 1.531 0 2.516-.906 2.516-2.343 0-.97-.375-1.485-1.266-1.797.688-.281 1.032-.813 1.032-1.578 0-1.297-.844-2.078-2.25-2.078-1.5 0-2.297.843-2.329 2.437h.922c.016-.453.063-.719.172-.953.203-.422.672-.672 1.25-.672.813 0 1.297.484 1.297 1.297 0 .547-.187.86-.594 1.047-.25.093-.578.14-1.219.156Zm0 0" style="stroke:none"/></symbol></defs><path d="M0 0h172v145H0z" style="fill:#fff;fill-opacity:1;stroke:none"/><path d="M28.707 131.156h142.2v-120h-142.2Zm0 0" style="stroke:none;fill-rule:nonzero;fill:#fff;fill-opacity:1"/><path d="M875.001 270.002H1112m-192.565 0v-2.37m74.062 2.37v-2.37m74.063 2.37v-2.37" style="fill:none;stroke-width:.833333;stroke-linecap:square;stroke-linejoin:round;stroke:#262626;stroke-opacity:1;stroke-miterlimit:10" transform="matrix(.6 0 0 .6 -496.294 -30.845)"/><g style="fill:#262626;fill-opacity:1"><use xlink:href="#a" x="47.269" y="144.155"/><use xlink:href="#b" x="52.551" y="144.155"/><use xlink:href="#b" x="57.833" y="144.155"/></g><g style="fill:#262626;fill-opacity:1"><use xlink:href="#c" x="89.006" y="144.155"/><use xlink:href="#b" x="94.288" y="144.155"/><use xlink:href="#b" x="99.57" y="144.155"/><use xlink:href="#b" x="104.852" y="144.155"/></g><g style="fill:#262626;fill-opacity:1"><use xlink:href="#c" x="133.444" y="144.155"/><use xlink:href="#a" x="138.726" y="144.155"/><use xlink:href="#b" x="144.008" y="144.155"/><use xlink:href="#b" x="149.289" y="144.155"/></g><path d="M875.001 270.002v-200m0 186.191h2.37m-2.37-28.919h2.37m-2.37-28.926h2.37m-2.37-28.925h2.37m-2.37-28.926h2.37m-2.37-28.926h2.37m-2.37-28.926h2.37" style="fill:none;stroke-width:.833333;stroke-linecap:square;stroke-linejoin:round;stroke:#262626;stroke-opacity:1;stroke-miterlimit:10" transform="matrix(.6 0 0 .6 -496.294 -30.845)"/><g style="fill:#262626;fill-opacity:1"><use xlink:href="#d" x="3.706" y="126.473"/><use xlink:href="#b" x="8.988" y="126.473"/><use xlink:href="#b" x="14.27" y="126.473"/><use xlink:href="#b" x="19.552" y="126.473"/></g><g style="fill:#262626;fill-opacity:1"><use xlink:href="#e" x="3.706" y="109.118"/><use xlink:href="#b" x="8.988" y="109.118"/><use xlink:href="#b" x="14.27" y="109.118"/><use xlink:href="#b" x="19.552" y="109.118"/></g><g style="fill:#262626;fill-opacity:1"><use xlink:href="#f" x="3.706" y="91.763"/><use xlink:href="#b" x="8.988" y="91.763"/><use xlink:href="#b" x="14.27" y="91.763"/><use xlink:href="#b" x="19.552" y="91.763"/></g><g style="fill:#262626;fill-opacity:1"><use xlink:href="#g" x="3.706" y="74.407"/><use xlink:href="#b" x="8.988" y="74.407"/><use xlink:href="#b" x="14.27" y="74.407"/><use xlink:href="#b" x="19.552" y="74.407"/></g><g style="fill:#262626;fill-opacity:1"><use xlink:href="#c" x="-1.094" y="57.052"/><use xlink:href="#b" x="4.188" y="57.052"/><use xlink:href="#b" x="9.47" y="57.052"/><use xlink:href="#b" x="14.752" y="57.052"/><use xlink:href="#b" x="20.034" y="57.052"/></g><g style="fill:#262626;fill-opacity:1"><use xlink:href="#c" x="-1.094" y="39.697"/><use xlink:href="#d" x="4.188" y="39.697"/><use xlink:href="#b" x="9.47" y="39.697"/><use xlink:href="#b" x="14.752" y="39.697"/><use xlink:href="#b" x="20.034" y="39.697"/></g><g style="fill:#262626;fill-opacity:1"><use xlink:href="#c" x="-1.094" y="22.342"/><use xlink:href="#e" x="4.188" y="22.342"/><use xlink:href="#b" x="9.47" y="22.342"/><use xlink:href="#b" x="14.752" y="22.342"/><use xlink:href="#b" x="20.034" y="22.342"/></g><g style="fill:#000;fill-opacity:1"><use xlink:href="#h" x="86.607" y="7.187"/><use xlink:href="#i" x="92.992" y="7.187"/><use xlink:href="#j" x="95.312" y="7.187"/><use xlink:href="#k" x="101.122" y="7.187"/><use xlink:href="#l" x="104.027" y="7.187"/><use xlink:href="#m" x="106.932" y="7.187"/></g><path d="m1111.635 187.886-.618-.247-.619-.26-.618-.45-.625-.553-.619-.755-.618-.788-.619-.886-.625-.768-.618-.905-.625-.918-.619-.423-.625-.28-.618.02-.625-.033-.625-.098-.619.287-.625.306-.625.286-.625.339-.625.17-1.25-.131-.625-.488-.625-.56-.625-.69-.631-.801-.625-.938-.625-.664-.632-.58-.625-.279-.631-.208-.625-.41-.632-.404-.631-.528-.625-.813-.632-1.003-.631-1.14-.632-1.06-.631-1.166-.632-1.49-.631-2.384-.632-3.515-.631-3.184-.632-4.03-.638-7.825-.631-13.399-.632-15.755-.638-14.33-.631-8.137-.638 3.62-.632 13.69-.638 15.756-.638 12.194-.631 6.869-.638 3.743-.638 2.292-.638 1.81-.638 1.77-.638 1.31-.638 1.04-.638.678-.638.495-.638.306-.645-.098-.638-.163-.638-.39-.645.123-.638-.039-.644-.032-.638-.866-.645-2.064-.644-3.496-.638-2.787-.645-3.06-.644-11.308-.645-25.912-.644-18.183-.645 9.531-.644 21.4-.645 16.068-.645 9.381-.644 3.672-.651-.469-.645-2.285-.644-1.393-.651.306-.645.475-.65-2.767-.645-10.351-.651-16.44-.651-11.79-.651-4.59-.645-12.46-.651-14.375-.651 7.005-.651 22.61-.651 18.777-.651 10.006-.658 4.792-.65 3.502-.652 3.562-.65 2.793-.658 1.92-.651 1.563-.658 2.03-.651 2.605-.658 3.008-.65 2.09-.658.306-.658-1.875-.657-4.558-.651-4.414-.658-.553-.657 4.121-.658 5.586-.658 3.828-.664 1.387-.657-1.113-.658-2.943-.657-4.837-.664-9.05-.658-8.027-.664 2.988-.657 12.174-.665 10.378-.657 4.42-.664.053-.664-1.856-.664-1.471-.664-.612-.658.944-.664 1.803-.664 1.7-.67 1.12-.665-.378-.664-3.893-.664-9.076-.67-12.689-.664-7.422-.664 4.506-.671 8.196-.664 2.48-.67 3.054-.671 8.32-.664 6.582-.67 2.63-.671 5.092-.671 7.324-.67 5.247-.671 2.76-.67 1.016-.671-.41-.67-2.272-.671-3.88-.678-3.067-.67.235-.67 3.314-.678 4.368-.67 4.03-.677 3.21-.678 1.972-.67 1.107-.677 1.01-.677.774-.677.73-.677.8-.678 1.009-.677.827-.677.781-.677.82-.677 1.12-.677 1.205-.684.918-.677.657-.683.352-.677-.215-.684.091-.677 1.14-.684.865-.683-.143-.677-.072-.684 1.042-.683 1.543-.684 1.061-.684.664-.683.56-.684.554-.69.507-.683.404-.684.352-.69.234-.684-.078-.69-.554-.683-1.223-.69-1.498-.684-.254-.69 1.647-.69 2.455-.69 2.161-.69 1.556-.69 1.211-.69.957-.69.86-.691.852-.69.788-.697.69-.69.573-.69.495-.697.43-.69.397-.696.469-.69.455-.697.56-.697.482-.696.417-.697.332-.696.175-.697.098-.697-.02-.696.033-.697-.143-.697-.41-.703-.742-.696-.671-.697.254-.703 1.133-.697 1.302-.703 1.152-.703.95-.696.652-.704.475-.703.397-.703.495-.703.482-.703.416-.703.495-.703.482-.703.495-.71.449-.703.41-.703.443-.71.495-.703.52-.71.352-.71.293-.703.384-.71.267-.709.273-.71.196-.71.215-.709.273-.71.17-.709-.046-.71-.04-.716-.078-.71-.195-.709-.345-.716-.423-.71-.104-.716.039-.716.097-.71-.28-.716-.234-.716.163-.716.73-.716 1.002-.716.761-.717.47-.716.312-.716-.078-.723-.443-.716-.222-.716-.227-.722-1.023-.717-.755-.722 1.081-.723 1.953-.716 1.602-.723.937-.722.586-.723.417-.723.325-.722.339-.723.182-.723.287-.729.221-.723.208-.722.215-.73.228-.722.195-.73.144-.722.104-.729.13-.73.098-.728.123-.73.202-.729.052-.729.078-.729.013-1.458.065-.73.111-.735.098-.73.02-.728.032-.736.006-.736.02-.729-.072-.736-.176-.735-.325-.736-.547-.736-.599-.735-.293-.736.235-.736.37-.735.352-.736.209-.742.253-.736.365-.736.495-.742.534-.742.423-.736.384-.742.293-.742.24-.742.085-.742.033" style="fill:none;stroke-width:.833333;stroke-linecap:butt;stroke-linejoin:round;stroke:#0072bd;stroke-opacity:1;stroke-miterlimit:10" transform="matrix(.6 0 0 .6 -496.294 -30.845)"/><path d="M152.27 24.016a2.749 2.749 0 1 1 0 5.5 2.749 2.749 0 1 1 0-5.5m0-.5a3.25 3.25 0 1 0 0 6.5 3.25 3.25 0 0 0 0-6.5m-10.747-1.121a2.749 2.749 0 1 1 0 5.5 2.749 2.749 0 1 1 0-5.5m0-.5a3.25 3.25 0 1 0 0 6.5 3.25 3.25 0 0 0 0-6.5m-6.601-9.153a2.754 2.754 0 0 1 2.75 2.75 2.749 2.749 0 1 1-2.75-2.75m0-.5a3.25 3.25 0 1 0 0 6.5 3.25 3.25 0 0 0 0-6.5m-7.453 45.602c1.515 0 2.75 1.23 2.75 2.75s-1.235 2.75-2.75 2.75a2.749 2.749 0 1 1 0-5.5m0-.5a3.25 3.25 0 1 0 0 6.5 3.25 3.25 0 0 0 0-6.5m-3.559-6.129a2.749 2.749 0 1 1 0 5.5 2.749 2.749 0 1 1 0-5.5m0-.5a3.25 3.25 0 1 0 0 6.5 3.25 3.25 0 0 0 0-6.5m-3.18 16.145a2.749 2.749 0 1 1 .002 5.497 2.749 2.749 0 0 1-.002-5.498m0-.5a3.25 3.25 0 1 0 0 6.5 3.25 3.25 0 0 0 0-6.5m-3.59-16.234a2.749 2.749 0 1 1 0 5.5 2.749 2.749 0 1 1 0-5.5m0-.5a3.25 3.25 0 1 0 0 6.5 3.25 3.25 0 0 0 0-6.5m-6.43 29.047a2.749 2.749 0 1 1 0 5.5 2.75 2.75 0 0 1-2.75-2.75c0-1.52 1.235-2.75 2.75-2.75m0-.5a3.25 3.25 0 1 0 0 6.5 3.25 3.25 0 0 0 0-6.5M93.977 99.203c1.515 0 2.75 1.23 2.75 2.75s-1.235 2.75-2.75 2.75a2.749 2.749 0 1 1 0-5.5m0-.5a3.25 3.25 0 1 0 0 6.5 3.25 3.25 0 0 0 0-6.5m0 0" style="stroke:none;fill-rule:nonzero;fill:red;fill-opacity:1"/></svg>