<svg xmlns="http://www.w3.org/2000/svg" xmlns:xlink="http://www.w3.org/1999/xlink" width="169pt" height="145pt" viewBox="0 0 169 145"><defs><symbol id="a" overflow="visible"><path d="M4.516-6.734h-3.47l-.5 3.672h.767c.39-.47.718-.641 1.25-.641.89 0 1.453.625 1.453 1.625 0 .969-.563 1.562-1.47 1.562-.733 0-1.171-.375-1.374-1.14H.328c.125.547.219.812.406 1.062.391.516 1.079.813 1.829.813 1.359 0 2.312-.985 2.312-2.406 0-1.344-.89-2.25-2.172-2.25-.484 0-.86.125-1.25.406l.266-1.875h2.797Zm0 0" style="stroke:none"/></symbol><symbol id="b" overflow="visible"><path d="M2.61-6.875c-.626 0-1.188.297-1.547.75-.438.61-.657 1.531-.657 2.797C.406-1 1.172.219 2.61.219 4.031.219 4.813-1 4.813-3.266c0-1.328-.204-2.218-.657-2.859-.343-.469-.906-.75-1.547-.75m0 .75c.906 0 1.359.922 1.359 2.781 0 1.953-.438 2.875-1.375 2.875-.89 0-1.328-.953-1.328-2.843s.437-2.813 1.343-2.813m0 0" style="stroke:none"/></symbol><symbol id="c" overflow="visible"><path d="M2.453-4.89V0h.844v-6.875H2.75C2.453-5.812 2.266-5.672.969-5.5v.61Zm0 0" style="stroke:none"/></symbol><symbol id="d" overflow="visible"><path d="M4.813-.828H1.265c.078-.563.39-.922 1.218-1.438l.938-.53c.953-.517 1.437-1.22 1.437-2.063 0-.578-.234-1.11-.625-1.485-.406-.36-.906-.531-1.53-.531-.86 0-1.5.313-1.86.906-.25.36-.344.782-.375 1.469h.844c.03-.453.078-.734.203-.969a1.3 1.3 0 0 1 1.156-.672C3.422-6.14 4-5.594 4-4.844c0 .547-.312 1.032-.906 1.36l-.875.515C.813-2.156.406-1.516.329-.016h4.484Zm0 0" style="stroke:none"/></symbol><symbol id="e" overflow="visible"><path d="M2.094-3.156h.469c.906 0 1.39.422 1.39 1.25 0 .86-.531 1.39-1.39 1.39C1.64-.516 1.203-.984 1.14-2H.297c.047.563.14.922.297 1.219.36.672 1.015 1 1.937 1 1.375 0 2.282-.844 2.282-2.14 0-.876-.344-1.345-1.141-1.626.625-.265.937-.734.937-1.437 0-1.172-.765-1.891-2.046-1.891-1.36 0-2.094.766-2.11 2.219h.828c.016-.422.047-.657.157-.86.187-.39.609-.625 1.125-.625.75 0 1.187.454 1.187 1.188 0 .484-.172.781-.531.937-.235.11-.547.141-1.125.157Zm0 0" style="stroke:none"/></symbol><symbol id="f" overflow="visible"><path d="M3.11-1.656V0h.828v-1.656h1v-.75h-1v-4.469h-.61L.266-2.547v.89Zm0-.75H1l2.11-3.031Zm0 0" style="stroke:none"/></symbol><symbol id="g" overflow="visible"><path d="M1.906-3.469h3.64v-.86h-3.64v-2.437h4.14v-.859H.939V0h.968Zm0 0" style="stroke:none"/></symbol><symbol id="h" overflow="visible"><path d="M1.563-5.484h-.86V0h.86Zm0-2.141H.688v1.11h.875Zm0 0" style="stroke:none"/></symbol><symbol id="i" overflow="visible"><path d="M4.219-5.484v.797c-.438-.657-.922-.954-1.61-.954-1.328 0-2.25 1.235-2.25 3 0 .922.22 1.579.704 2.141.406.484.921.734 1.484.734.656 0 1.125-.28 1.594-.968v.28c0 1.454-.407 2-1.5 2-.735 0-1.125-.296-1.203-.921H.547c.078 1.016.89 1.656 2.078 1.656.797 0 1.469-.265 1.828-.703.422-.516.578-1.187.578-2.484v-4.578Zm-1.516.656c.906 0 1.438.766 1.438 2.156 0 1.328-.532 2.11-1.438 2.11s-1.422-.782-1.422-2.141c0-1.328.516-2.125 1.422-2.125m0 0" style="stroke:none"/></symbol><symbol id="j" overflow="visible"><path d="M2-1.094H.906V0H2Zm0 0" style="stroke:none"/></symbol><symbol id="l" overflow="visible"><path d="M3.422-1.828V0h.922v-1.828h1.093v-.828H4.345v-4.906h-.688L.296-2.798v.969Zm0-.828H1.094l2.328-3.328Zm0 0" style="stroke:none"/></symbol></defs><path d="M0 0h169v145H0z" style="fill:#fff;fill-opacity:1;stroke:none"/><path d="M24.875 131.125h142.8v-120h-142.8Zm0 0" style="stroke:none;fill-rule:nonzero;fill:#fff;fill-opacity:1"/><path d="M1187 270.002h238.001m-193.378 0v-2.383m74.375 2.383v-2.383m74.375 2.383v-2.383" style="fill:none;stroke-width:.833333;stroke-linecap:square;stroke-linejoin:round;stroke:#262626;stroke-opacity:1;stroke-miterlimit:10" transform="matrix(.6 0 0 .6 -687.325 -30.876)"/><g style="fill:#262626;fill-opacity:1"><use xlink:href="#a" x="43.55" y="144.124"/><use xlink:href="#b" x="48.832" y="144.124"/><use xlink:href="#b" x="54.114" y="144.124"/></g><g style="fill:#262626;fill-opacity:1"><use xlink:href="#c" x="85.475" y="144.124"/><use xlink:href="#b" x="90.757" y="144.124"/><use xlink:href="#b" x="96.039" y="144.124"/><use xlink:href="#b" x="101.321" y="144.124"/></g><g style="fill:#262626;fill-opacity:1"><use xlink:href="#c" x="130.1" y="144.124"/><use xlink:href="#a" x="135.382" y="144.124"/><use xlink:href="#b" x="140.664" y="144.124"/><use xlink:href="#b" x="145.946" y="144.124"/></g><path d="M1187 270.002v-200m0 174.505h2.383M1187 198.752h2.383M1187 152.997h2.383M1187 107.242h2.383" style="fill:none;stroke-width:.833333;stroke-linecap:square;stroke-linejoin:round;stroke:#262626;stroke-opacity:1;stroke-miterlimit:10" transform="matrix(.6 0 0 .6 -687.325 -30.876)"/><g style="fill:#262626;fill-opacity:1"><use xlink:href="#d" x="-.125" y="119.428"/><use xlink:href="#b" x="5.157" y="119.428"/><use xlink:href="#b" x="10.439" y="119.428"/><use xlink:href="#b" x="15.721" y="119.428"/></g><g style="fill:#262626;fill-opacity:1"><use xlink:href="#e" x="-.125" y="91.975"/><use xlink:href="#b" x="5.157" y="91.975"/><use xlink:href="#b" x="10.439" y="91.975"/><use xlink:href="#b" x="15.721" y="91.975"/></g><g style="fill:#262626;fill-opacity:1"><use xlink:href="#f" x="-.125" y="64.522"/><use xlink:href="#b" x="5.157" y="64.522"/><use xlink:href="#b" x="10.439" y="64.522"/><use xlink:href="#b" x="15.721" y="64.522"/></g><g style="fill:#262626;fill-opacity:1"><use xlink:href="#a" x="-.125" y="37.069"/><use xlink:href="#b" x="5.157" y="37.069"/><use xlink:href="#b" x="10.439" y="37.069"/><use xlink:href="#b" x="15.721" y="37.069"/></g><g style="fill:#000;fill-opacity:1"><use xlink:href="#g" x="83.076" y="7.156"/><use xlink:href="#h" x="89.461" y="7.156"/><use xlink:href="#i" x="91.781" y="7.156"/><use xlink:href="#j" x="97.591" y="7.156"/><use xlink:href="#k" x="100.496" y="7.156"/><use xlink:href="#l" x="103.401" y="7.156"/></g><path d="m1424.63 245.712-.618-.371-.625-.19-.619-.396-.625-.228-.618-.222-.625-.104-.625-.215-.619-.071-.625-.248-.625-.39-.625-.443-.625-.71-.625-.592-.625-.716-.625-.886-.625-.696-.625-.814-.631-.977-.625-.872-.625-1.12-.632-1.282-.625-1.094-.631-1.243-.625-1.257-.632-1.367-.631-1.309-.625-1.478-.632-1.393-.631-1.367-.632-1.296-.631-1.393-.632-2.018-.631-2.904-.632-4.915-.631-9.72-.632-19.284-.638-31.029-.631-29.889-.632-7.624-.638 18.04-.631 25.775-.638 19.076-.632 9.746-.638 2.578-.631-.677-.638-.742-.638.56-.638.638-.638-1.276-.639-2.676-.638-4.518-.638-7.279-.638-10.143-.638-12.455-.638-12.395-.638-10.873-.644-9.381-.638-7.383-.638-5.091-.645-1.328-.638 3.795-.644 11.367-.638 17.435-.645 16.765-.644 10.722-.645 2.227-.638-4.707-.644-8.542-.645-5.82-.645.078-.644 4.42-.645 4.74-.65 3.014-.645.391-.645 1.615-.644 5.058-.651 7.709-.645 6.992-.65 4.954-.645 3.503-.651 2.942-.645 2.56-.651 1.438-.651-.853-.651-3.691-.651-7.188-.645-7.279-.65-2.688-.652 3.261-.657 7.038-.651 6.133-.651 2.852-.651.162-.651.41-.658 2.448-.651 3.34-.658 3.073-.65 2.214-.658 1.035-.651.039-.658-.814-.657-2.786-.658-5.899-.65-6.992-.658-4.258-.658-5.195-.658-12.513-.657-21.029-.658-23.203-.664-19.056-.657-12.122-.658 3.268-.664 21.947-.657 30.208-.658 24.759-.664 15.208-.658 8.861-.664 5.736-.664 4.407-.664 3.978-.657 3.294-.664 3.002-.664 2.448-.665 1.946-.664 1.582-.664 1.491-.664 1.439-.664 1.08-.67.867-.664.384-.665.247h-.67l-.664-.267-.67-.28-.665-.696-.67-1.237-.67-1.589-.665-1.888-.67-2.826-.671-5.533-.67-9.174-.671-12.923-.67-14.967-.671-9.121-.671 7.037-.67 19.5-.678 18.814-.67 11.29-.67 5.52-.678 2.76-.67 1.387-.678.267-.67-.319-1.354-.924-.677-.489-.677.437-.671 1.673-.677 1.973-.677.924-.677-1.016-.684-.612-.677 1.57-.677 2.46-.677 1.973-.684 1.1-.677.781-.683.606-.677.488-.684.254-.677.332-.684.098-.683-.423-.684-.69-.684.02-.677.748-.69.683-.683.371-.684-.917-.683-3.23-.684-2.343-.684 1.393-.69 3.314-.683 1.419-.69-.99-.684-2.949-.69-3.607-.684-2.669-.69-1.048-.69.644-.69 1.687-.69 1.66-.69.683-.69-.41-.69-1.595-.69-.983-.69 1.608-.69 3.1-.697 2.87-.69 1.393-.69.287-.697-.345-.69-.222-.697.235-.697.508-.69.254-.696-.28-.697-.71-.697-.885-.696-.938-.697-.69-.696-.73-.697-.064-.697.306-.703.56-.696.078-.697-.235-.703.105-.697.468-.703.86-.703.644-.697.573-.703.371-.703.059-.703-.384-.703-.717-.703-1.516-.703-3.184-.703-6.185-.704-8.529-.703-7.05-.71-1.452-.702 3.607-.704 4.74-.71 3.71-.702 3.125-.71 1.68-.71-.488-.703-3.112-.71-4.506-.709-3.007-.71 2.22-.71 6.562-.709 5.755-.71 2.969-.71 1.224-.715.013-.71-1.061-.71-2.8-.716-3.893-.71-1.986-.716-.358-.71-3.789-.715-13.847-.716-32.168-.717-47.181-.71-25.222-.715 23.946-.717 44.987-.716 30.267-.722 13.743-.716 4.798-.717 1.843-.716-.41-.722-3.19-.717-2.774-.722.286-.716 1.648-.723 1.764-.716 1.569-.723.677-.722-.352-.723-.325-.723-.371-.722-.215-.723.911-.723.32-.722-.248-.723-.97-.73-1.458-.722-1.621-.73-1.465-.722-1.14-.729-2.454-.723-3.516-.729-4.909-.729-5.768-.729-8.646-.73-14.804-.728-20.873-.73-19.57-.729-9.668-.729 3.516-.729 12.233-.73 16.178-.735 15.508-.729 11.517-.736 10.286-.729 8.828-.736 6.537-.735 3.913-.73 2.402-.735 1.374-.736.416-.735.202-.736-.215-.736-.644-.735-1.725-.736-3.282-.742-6.1-.736-10.189-.736-13.522-.742-11.849-.736-1.289-.742 10.026-.742 14.245-.736 11.152-.742 6.602-.742 3.034-.742.86-.742-.15-.743-1.062-.742-2.161-.748-3.425-.743-3.17-.742-2.579-.749-2.37" style="fill:none;stroke-width:.833333;stroke-linecap:butt;stroke-linejoin:round;stroke:#0072bd;stroke-opacity:1;stroke-miterlimit:10" transform="matrix(.6 0 0 .6 -687.325 -30.876)"/><path d="M152.773 34.527a2.749 2.749 0 1 1 0 5.5 2.749 2.749 0 1 1 0-5.5m0-.5a3.25 3.25 0 1 0 0 6.5 3.25 3.25 0 0 0 0-6.5m-8.035-5.382a2.749 2.749 0 1 1 0 5.5 2.749 2.749 0 1 1 0-5.5m0-.5a3.25 3.25 0 1 0 0 6.5 3.25 3.25 0 0 0 0-6.5M141.27 54.59a2.749 2.749 0 1 1 0 5.5 2.749 2.749 0 1 1 0-5.5m0-.5a3.25 3.25 0 1 0 0 6.5 3.25 3.25 0 0 0 0-6.5m-7.383 17.129c1.515 0 2.75 1.23 2.75 2.75s-1.235 2.75-2.75 2.75a2.749 2.749 0 1 1 0-5.5m0-.5a3.25 3.25 0 1 0 0 6.5 3.25 3.25 0 0 0 0-6.5m-9.043-48.617a2.749 2.749 0 1 1 0 5.5 2.749 2.749 0 1 1 0-5.5m0-.5a3.25 3.25 0 1 0 0 6.5 3.25 3.25 0 0 0 0-6.5m-13.172 45.89a2.749 2.749 0 1 1 0 5.5 2.749 2.749 0 1 1 0-5.5m0-.5a3.25 3.25 0 1 0 0 6.5 3.25 3.25 0 0 0 0-6.5m-18.356 40.68a2.749 2.749 0 1 1 0 5.5 2.749 2.749 0 1 1 0-5.5m0-.5a3.25 3.25 0 1 0 0 6.5 3.25 3.25 0 0 0 0-6.5m-17.98-10.391a2.749 2.749 0 1 1 0 5.5 2.75 2.75 0 0 1-2.75-2.75c0-1.52 1.234-2.75 2.75-2.75m0-.5a3.25 3.25 0 1 0 0 6.5 3.25 3.25 0 0 0 0-6.5m0 0" style="stroke:none;fill-rule:nonzero;fill:red;fill-opacity:1"/><path d="M71.52 100.23a2.749 2.749 0 1 1-2.75 2.75c0-1.515 1.23-2.75 2.75-2.75m0-.5a3.25 3.25 0 1 0 0 6.5 3.25 3.25 0 0 0 0-6.5m-6.836-67.636c1.515 0 2.75 1.23 2.75 2.75s-1.235 2.75-2.75 2.75a2.749 2.749 0 1 1 0-5.5m0-.5a3.25 3.25 0 1 0 0 6.5 3.25 3.25 0 0 0 0-6.5M49.504 45.3a2.749 2.749 0 1 1 0 5.5 2.749 2.749 0 1 1 0-5.5m0-.5a3.25 3.25 0 1 0 0 6.5 3.25 3.25 0 0 0 0-6.5m-9.695 26.958c1.515 0 2.75 1.23 2.75 2.75s-1.235 2.75-2.75 2.75a2.749 2.749 0 1 1 0-5.5m0-.5a3.25 3.25 0 1 0 0 6.5 3.25 3.25 0 0 0 0-6.5m0 0" style="stroke:none;fill-rule:nonzero;fill:red;fill-opacity:1"/></svg>