<svg xmlns="http://www.w3.org/2000/svg" xmlns:xlink="http://www.w3.org/1999/xlink" width="169pt" height="145pt" viewBox="0 0 169 145"><defs><symbol id="a" overflow="visible"><path d="M4.516-6.734h-3.47l-.5 3.672h.767c.39-.47.718-.641 1.25-.641.89 0 1.453.625 1.453 1.625 0 .969-.563 1.562-1.47 1.562-.733 0-1.171-.375-1.374-1.14H.328c.125.547.219.812.406 1.062.391.516 1.079.813 1.829.813 1.359 0 2.312-.985 2.312-2.406 0-1.344-.89-2.25-2.172-2.25-.484 0-.86.125-1.25.406l.266-1.875h2.797Zm0 0" style="stroke:none"/></symbol><symbol id="b" overflow="visible"><path d="M2.61-6.875c-.626 0-1.188.297-1.547.75-.438.61-.657 1.531-.657 2.797C.406-1 1.172.219 2.61.219 4.031.219 4.813-1 4.813-3.266c0-1.328-.204-2.218-.657-2.859-.343-.469-.906-.75-1.547-.75m0 .75c.906 0 1.359.922 1.359 2.781 0 1.953-.438 2.875-1.375 2.875-.89 0-1.328-.953-1.328-2.843s.437-2.813 1.343-2.813m0 0" style="stroke:none"/></symbol><symbol id="c" overflow="visible"><path d="M2.453-4.89V0h.844v-6.875H2.75C2.453-5.812 2.266-5.672.969-5.5v.61Zm0 0" style="stroke:none"/></symbol><symbol id="d" overflow="visible"><path d="M4.813-.828H1.265c.078-.563.39-.922 1.218-1.438l.938-.53c.953-.517 1.437-1.22 1.437-2.063 0-.578-.234-1.11-.625-1.485-.406-.36-.906-.531-1.53-.531-.86 0-1.5.313-1.86.906-.25.36-.344.782-.375 1.469h.844c.03-.453.078-.734.203-.969a1.3 1.3 0 0 1 1.156-.672C3.422-6.14 4-5.594 4-4.844c0 .547-.312 1.032-.906 1.36l-.875.515C.813-2.156.406-1.516.329-.016h4.484Zm0 0" style="stroke:none"/></symbol><symbol id="e" overflow="visible"><path d="M3.11-1.656V0h.828v-1.656h1v-.75h-1v-4.469h-.61L.266-2.547v.89Zm0-.75H1l2.11-3.031Zm0 0" style="stroke:none"/></symbol><symbol id="f" overflow="visible"><path d="M4.734-5.078c-.171-1.125-.89-1.797-1.906-1.797-.75 0-1.406.375-1.812.984-.422.672-.61 1.516-.61 2.75 0 1.172.156 1.891.578 2.5.36.563.938.86 1.688.86 1.281 0 2.203-.953 2.203-2.297 0-1.266-.86-2.156-2.062-2.156q-1.008 0-1.547.75c0-1.703.547-2.641 1.5-2.641.593 0 1 .375 1.125 1.047ZM2.704-3.5c.812 0 1.312.578 1.312 1.484 0 .86-.563 1.5-1.344 1.5-.766 0-1.36-.656-1.36-1.53 0-.86.563-1.454 1.391-1.454m0 0" style="stroke:none"/></symbol><symbol id="g" overflow="visible"><path d="M3.719-3.625c.703-.422.922-.766.922-1.406 0-1.094-.828-1.844-2.032-1.844-1.187 0-2.015.75-2.015 1.828 0 .656.219.984.906 1.422-.766.39-1.156.953-1.156 1.719 0 1.25.922 2.125 2.265 2.125 1.329 0 2.266-.875 2.266-2.125 0-.766-.375-1.328-1.156-1.719m-1.11-2.5c.72 0 1.172.422 1.172 1.11 0 .64-.469 1.077-1.172 1.077S1.438-4.374 1.438-5.03c0-.672.468-1.094 1.171-1.094m0 2.89c.844 0 1.407.547 1.407 1.344 0 .829-.563 1.375-1.422 1.375-.813 0-1.39-.562-1.39-1.359 0-.828.562-1.36 1.405-1.36m0 0" style="stroke:none"/></symbol><symbol id="h" overflow="visible"><path d="M1.906-3.469h3.64v-.86h-3.64v-2.437h4.14v-.859H.939V0h.968Zm0 0" style="stroke:none"/></symbol><symbol id="i" overflow="visible"><path d="M1.563-5.484h-.86V0h.86Zm0-2.141H.688v1.11h.875Zm0 0" style="stroke:none"/></symbol><symbol id="j" overflow="visible"><path d="M4.219-5.484v.797c-.438-.657-.922-.954-1.61-.954-1.328 0-2.25 1.235-2.25 3 0 .922.22 1.579.704 2.141.406.484.921.734 1.484.734.656 0 1.125-.28 1.594-.968v.28c0 1.454-.407 2-1.5 2-.735 0-1.125-.296-1.203-.921H.547c.078 1.016.89 1.656 2.078 1.656.797 0 1.469-.265 1.828-.703.422-.516.578-1.187.578-2.484v-4.578Zm-1.516.656c.906 0 1.438.766 1.438 2.156 0 1.328-.532 2.11-1.438 2.11s-1.422-.782-1.422-2.141c0-1.328.516-2.125 1.422-2.125m0 0" style="stroke:none"/></symbol><symbol id="k" overflow="visible"><path d="M2-1.094H.906V0H2Zm0 0" style="stroke:none"/></symbol><symbol id="m" overflow="visible"><path d="M5.438-7.406H.484v.906h4C2.72-3.984 2-2.437 1.438 0h.984c.406-2.375 1.344-4.406 3.016-6.64Zm0 0" style="stroke:none"/></symbol></defs><path d="M0 0h169v145H0z" style="fill:#fff;fill-opacity:1;stroke:none"/><path d="M24.875 131.125h142.8v-120h-142.8Zm0 0" style="stroke:none;fill-rule:nonzero;fill:#fff;fill-opacity:1"/><path d="M562 547.002h238.001m-193.379 0v-2.383m74.375 2.383v-2.383m74.375 2.383v-2.383" style="fill:none;stroke-width:.833333;stroke-linecap:square;stroke-linejoin:round;stroke:#262626;stroke-opacity:1;stroke-miterlimit:10" transform="matrix(.6 0 0 .6 -312.325 -197.076)"/><g style="fill:#262626;fill-opacity:1"><use xlink:href="#a" x="43.55" y="144.124"/><use xlink:href="#b" x="48.832" y="144.124"/><use xlink:href="#b" x="54.114" y="144.124"/></g><g style="fill:#262626;fill-opacity:1"><use xlink:href="#c" x="85.475" y="144.124"/><use xlink:href="#b" x="90.757" y="144.124"/><use xlink:href="#b" x="96.039" y="144.124"/><use xlink:href="#b" x="101.321" y="144.124"/></g><g style="fill:#262626;fill-opacity:1"><use xlink:href="#c" x="130.1" y="144.124"/><use xlink:href="#a" x="135.382" y="144.124"/><use xlink:href="#b" x="140.664" y="144.124"/><use xlink:href="#b" x="145.946" y="144.124"/></g><path d="M562 547.002v-200m0 171.96h2.383M562 472.015h2.383M562 425.069h2.383M562 378.115h2.383" style="fill:none;stroke-width:.833333;stroke-linecap:square;stroke-linejoin:round;stroke:#262626;stroke-opacity:1;stroke-miterlimit:10" transform="matrix(.6 0 0 .6 -312.325 -197.076)"/><g style="fill:#262626;fill-opacity:1"><use xlink:href="#d" x="-.125" y="117.902"/><use xlink:href="#b" x="5.157" y="117.902"/><use xlink:href="#b" x="10.439" y="117.902"/><use xlink:href="#b" x="15.721" y="117.902"/></g><g style="fill:#262626;fill-opacity:1"><use xlink:href="#e" x="-.125" y="89.732"/><use xlink:href="#b" x="5.157" y="89.732"/><use xlink:href="#b" x="10.439" y="89.732"/><use xlink:href="#b" x="15.721" y="89.732"/></g><g style="fill:#262626;fill-opacity:1"><use xlink:href="#f" x="-.125" y="61.563"/><use xlink:href="#b" x="5.157" y="61.563"/><use xlink:href="#b" x="10.439" y="61.563"/><use xlink:href="#b" x="15.721" y="61.563"/></g><g style="fill:#262626;fill-opacity:1"><use xlink:href="#g" x="-.125" y="33.394"/><use xlink:href="#b" x="5.157" y="33.394"/><use xlink:href="#b" x="10.439" y="33.394"/><use xlink:href="#b" x="15.721" y="33.394"/></g><g style="fill:#000;fill-opacity:1"><use xlink:href="#h" x="83.075" y="7.156"/><use xlink:href="#i" x="89.46" y="7.156"/><use xlink:href="#j" x="91.78" y="7.156"/><use xlink:href="#k" x="97.591" y="7.156"/><use xlink:href="#l" x="100.496" y="7.156"/><use xlink:href="#m" x="103.401" y="7.156"/></g><path d="m799.63 479.235-.618-.176-.625.04-.619-.137-.625-.104-.618-.15-.625-.013-.625-.202-.619-.02-.625-.306-.625-.312-.625-.254-.625-.469-.625-.449-.625-.508-.625-.742-.625-.71-.625-.859-.631-.827-.625-.605-.625-.67-.632-.528-.625-.495-.631-.599-.625-.618-.632-.853-.631-.873-.625-1.315-.632-1.569-.631-2.513-.632-4.31-.631-8.567-.632-17.897-.631-30.521-.632-32.233-.631-10.13-.632 17.962-.638 27.793-.631 22.155-.632 13.43-.638 7.728-.631 4.135-.638 1.653-.632.091-.638-.957-.632-.84-.638-.299-.638.17-.638.592-.638.345-.638-.28-.631-1.237-.645-2.149-.638-2.083-.638-1.51-.638.11-.638.762-.638.046-.644-1.133-.638-4.245-.645-9.883-.638-11.706-.644-2.539-.638 7.494-.645 6.165-.644-.182-.645-4.681-.638-2.91-.645 3.3-.644 8.171-.645 7.806-.644 5.573-.645 3.613-.65 2.826-.645 2.005-.645 1.999-.644 1.784-.651 1.256-.645.462-.65-.254-.645-.67-.652-.423-.644 1.054-.651 2.383-.651 2.403-.651 1.582-.651-.528-.645-2.513-.65-2.337-.652-.17-.657 2.39-.651 2.975-.651 2.832-.652 1.947-.65 1.51-.658 1.205-.651.345-.658-1.296-.65-3.476-.658-5.026-.651-5.521-.658-7.572-.657-7.962-.658-.697-.651 8.985-.658 11.517-.657 7.962-.658 4.583-.657 2.676-.658 1.758-.664 1.276-.657.814-.658.657-.664.046-.658-.619-.657-.729-.664-.358-.658.033-.664.722-.664 1.354-.657 1.693-.664 1.498-.665 1.412-.664 1.062-.664 1.093-.664.912-.664.748-.664.69-.664.26-.67-.266-.665-1.27-.664-2.487-.67-4.381-.664-5.28-.67-2.031-.665 2.578-.67 3.893-.671 3.281-.664 2.22-.67 1.23-.671 1.238-.67 1.94-.671 2.318-.67 1.998-.672 1.361-.67 1.061-.67.677-.678.58-.67.508-.67.143-.678-.104-.67-.235-.678.397-.67 1.218-.677 1.445-.677 1.198-.677.866-.678.742-.67.612-.677.39-.677.47-.677.24-.684.274-.677.534-.677.592-.677.456-.684.351-.677.378-.683.326-.678.377-.683.241-.677.384-.684.345-.683.059-.684-.026-.684.267-.677.65-.683.645-.69.54-.684-.182-.684-1.295-.683-.866-.684.905-.69 1.875-.683 1.185-.69.566-.684.248-.69.078-.684-.13-.69-.28-.69.071-.69.488-.69.528-.69.39-.69.326-.69.189-.69.078-.69.124-.69.306-.698.377-.69.313-.69.338-.696.28-.69.358-.697.43-.697.482-.69.377-.696.209-.697.175-.697.157-.696.117-.697.052-.696-.091-.697-.124-.697-.306-.703-.176-.696.013-.697.235-.703.364-.697.3-.703.306-.697.202-.703.26-.703.228-.703.156-.703.072-.703.032-.703.072-.703.097-.704.007-.703-.345-.703-.358-.71-.254-.703-.085-.703.046-.71-.026-.702-.026-.71-.43-.71-.306-.703.39-.71.9-.71.885-.709.677-.71.566-.709.332-.71.235-.71.26-.715.17-.71.11-.71.039-.716.006-.71-.026-.716-.182-.71-.221-.715-.098-.717-.156-.716-.436-.71-.769-.715-1.419-.717-2.07-.716-2.617-.716-.456-.723 2.624-.716 2.955-.716 1.726-.723.716-.716.39-.722.235-.716.058-.723.111-.716.189-.723.15h-.723l-.722.09-.723.21-.723.2-.722.164-.723.136-.723.092-.722-.046-.73.052-.722.143-.73.085-.722-.072-.729-.722-.723-1.309-.729-1.536-.729-.059-.73 1.432-.728 1.367-.73.769-.729.39-.729.144-.729.123-.73-.026-.728.033-.736.176-.73.084-.735.156-.729-.039-.736-.169-.735-.215h-.73l-.735.248-.736.338-.736.365-.735.325-.736.332-.736.202-.735.17-.742.175-.736.222-.736.195-.742.124-.736.11-.742.026-.742.15-.736.02-.742-.046-.742-.052-.742-.033-.742.04-.743.143-.742.234-.742.137-.749.078-.742-.15-.749-.28" style="fill:none;stroke-width:.833333;stroke-linecap:butt;stroke-linejoin:round;stroke:#0072bd;stroke-opacity:1;stroke-miterlimit:10" transform="matrix(.6 0 0 .6 -312.325 -197.076)"/><path d="M154.293 15.418a2.749 2.749 0 1 1 0 5.5 2.749 2.749 0 1 1 0-5.5m0-.5a3.25 3.25 0 1 0 0 6.5 3.25 3.25 0 0 0 0-6.5m-10.324 35.367a2.749 2.749 0 1 1 0 5.5 2.749 2.749 0 1 1 0-5.5m0-.5a3.25 3.25 0 1 0 0 6.5 3.25 3.25 0 0 0 0-6.5M133.496 77.41a2.754 2.754 0 0 1 2.75 2.75 2.749 2.749 0 1 1-2.75-2.75m0-.5a3.25 3.25 0 1 0 0 6.5 3.25 3.25 0 0 0 0-6.5M128 66.402a2.749 2.749 0 1 1 0 5.5 2.75 2.75 0 0 1-2.75-2.75c0-1.52 1.234-2.75 2.75-2.75m0-.5a3.25 3.25 0 1 0 0 6.5 3.25 3.25 0 0 0 0-6.5M115.688 87a2.749 2.749 0 1 1-2.75 2.75c0-1.516 1.23-2.75 2.75-2.75m0-.5a3.25 3.25 0 1 0 0 6.5 3.25 3.25 0 0 0 0-6.5m-52.723 26.246c1.515 0 2.75 1.23 2.75 2.75s-1.235 2.75-2.75 2.75a2.749 2.749 0 1 1 0-5.5m0-.5a3.25 3.25 0 1 0 0 6.5 3.25 3.25 0 0 0 0-6.5m0 0" style="stroke:none;fill-rule:nonzero;fill:red;fill-opacity:1"/></svg>