<svg xmlns="http://www.w3.org/2000/svg" xmlns:xlink="http://www.w3.org/1999/xlink" width="224" height="145pt" viewBox="0 0 168 145"><defs><symbol id="a" overflow="visible"><path d="M4.516-6.734h-3.47l-.5 3.672h.767c.39-.47.718-.641 1.25-.641.89 0 1.453.625 1.453 1.625 0 .969-.563 1.562-1.47 1.562-.733 0-1.171-.375-1.374-1.14H.328c.125.547.219.812.406 1.062.391.516 1.079.813 1.829.813 1.359 0 2.312-.985 2.312-2.406 0-1.344-.89-2.25-2.172-2.25-.484 0-.86.125-1.25.406l.266-1.875h2.797Zm0 0" style="stroke:none"/></symbol><symbol id="b" overflow="visible"><path d="M2.61-6.875c-.626 0-1.188.297-1.547.75-.438.61-.657 1.531-.657 2.797C.406-1 1.172.219 2.61.219 4.031.219 4.813-1 4.813-3.266c0-1.328-.204-2.218-.657-2.859-.343-.469-.906-.75-1.547-.75m0 .75c.906 0 1.359.922 1.359 2.781 0 1.953-.438 2.875-1.375 2.875-.89 0-1.328-.953-1.328-2.843s.437-2.813 1.343-2.813m0 0" style="stroke:none"/></symbol><symbol id="c" overflow="visible"><path d="M2.453-4.89V0h.844v-6.875H2.75C2.453-5.812 2.266-5.672.969-5.5v.61Zm0 0" style="stroke:none"/></symbol><symbol id="d" overflow="visible"><path d="M4.813-.828H1.265c.078-.563.39-.922 1.218-1.438l.938-.53c.953-.517 1.437-1.22 1.437-2.063 0-.578-.234-1.11-.625-1.485-.406-.36-.906-.531-1.53-.531-.86 0-1.5.313-1.86.906-.25.36-.344.782-.375 1.469h.844c.03-.453.078-.734.203-.969a1.3 1.3 0 0 1 1.156-.672C3.422-6.14 4-5.594 4-4.844c0 .547-.312 1.032-.906 1.36l-.875.515C.813-2.156.406-1.516.329-.016h4.484Zm0 0" style="stroke:none"/></symbol><symbol id="e" overflow="visible"><path d="M3.11-1.656V0h.828v-1.656h1v-.75h-1v-4.469h-.61L.266-2.547v.89Zm0-.75H1l2.11-3.031Zm0 0" style="stroke:none"/></symbol><symbol id="f" overflow="visible"><path d="M4.734-5.078c-.171-1.125-.89-1.797-1.906-1.797-.75 0-1.406.375-1.812.984-.422.672-.61 1.516-.61 2.75 0 1.172.156 1.891.578 2.5.36.563.938.86 1.688.86 1.281 0 2.203-.953 2.203-2.297 0-1.266-.86-2.156-2.062-2.156q-1.008 0-1.547.75c0-1.703.547-2.641 1.5-2.641.593 0 1 .375 1.125 1.047ZM2.704-3.5c.812 0 1.312.578 1.312 1.484 0 .86-.563 1.5-1.344 1.5-.766 0-1.36-.656-1.36-1.53 0-.86.563-1.454 1.391-1.454m0 0" style="stroke:none"/></symbol><symbol id="g" overflow="visible"><path d="M3.719-3.625c.703-.422.922-.766.922-1.406 0-1.094-.828-1.844-2.032-1.844-1.187 0-2.015.75-2.015 1.828 0 .656.219.984.906 1.422-.766.39-1.156.953-1.156 1.719 0 1.25.922 2.125 2.265 2.125 1.329 0 2.266-.875 2.266-2.125 0-.766-.375-1.328-1.156-1.719m-1.11-2.5c.72 0 1.172.422 1.172 1.11 0 .64-.469 1.077-1.172 1.077S1.438-4.374 1.438-5.03c0-.672.468-1.094 1.171-1.094m0 2.89c.844 0 1.407.547 1.407 1.344 0 .829-.563 1.375-1.422 1.375-.813 0-1.39-.562-1.39-1.359 0-.828.562-1.36 1.405-1.36m0 0" style="stroke:none"/></symbol><symbol id="h" overflow="visible"><path d="M1.906-3.469h3.64v-.86h-3.64v-2.437h4.14v-.859H.939V0h.968Zm0 0" style="stroke:none"/></symbol><symbol id="i" overflow="visible"><path d="M1.563-5.484h-.86V0h.86Zm0-2.141H.688v1.11h.875Zm0 0" style="stroke:none"/></symbol><symbol id="j" overflow="visible"><path d="M4.219-5.484v.797c-.438-.657-.922-.954-1.61-.954-1.328 0-2.25 1.235-2.25 3 0 .922.22 1.579.704 2.141.406.484.921.734 1.484.734.656 0 1.125-.28 1.594-.968v.28c0 1.454-.407 2-1.5 2-.735 0-1.125-.296-1.203-.921H.547c.078 1.016.89 1.656 2.078 1.656.797 0 1.469-.265 1.828-.703.422-.516.578-1.187.578-2.484v-4.578Zm-1.516.656c.906 0 1.438.766 1.438 2.156 0 1.328-.532 2.11-1.438 2.11s-1.422-.782-1.422-2.141c0-1.328.516-2.125 1.422-2.125m0 0" style="stroke:none"/></symbol><symbol id="k" overflow="visible"><path d="M2-1.094H.906V0H2Zm0 0" style="stroke:none"/></symbol><symbol id="m" overflow="visible"><path d="M4.094-3.984c.765-.47 1-.844 1-1.563 0-1.187-.907-2.016-2.219-2.016S.641-6.733.641-5.546c0 .719.25 1.078 1.015 1.563C.813-3.547.391-2.937.391-2.094.39-.719 1.406.234 2.875.234s2.484-.953 2.484-2.328c0-.844-.421-1.453-1.265-1.89M2.875-6.75c.781 0 1.281.484 1.281 1.234 0 .704-.515 1.172-1.281 1.172-.781 0-1.281-.468-1.281-1.203 0-.719.5-1.203 1.281-1.203m0 3.188c.922 0 1.547.609 1.547 1.484 0 .906-.61 1.5-1.563 1.5-.906 0-1.53-.61-1.53-1.485 0-.906.609-1.5 1.546-1.5m0 0" style="stroke:none"/></symbol></defs><path d="M0 0h168v145H0z" style="fill:#fff;fill-opacity:1;stroke:none"/><path d="M24.875 131.156h142.2v-120h-142.2Zm0 0" style="stroke:none;fill-rule:nonzero;fill:#fff;fill-opacity:1"/><path d="M875 547.002h237m-192.56 0v-2.37m74.063 2.37v-2.37m74.062 2.37v-2.37" style="fill:none;stroke-width:.833333;stroke-linecap:square;stroke-linejoin:round;stroke:#262626;stroke-opacity:1;stroke-miterlimit:10" transform="matrix(.6 0 0 .6 -500.125 -197.045)"/><g style="fill:#262626;fill-opacity:1"><use xlink:href="#a" x="43.437" y="144.155"/><use xlink:href="#b" x="48.719" y="144.155"/><use xlink:href="#b" x="54.001" y="144.155"/></g><g style="fill:#262626;fill-opacity:1"><use xlink:href="#c" x="85.175" y="144.155"/><use xlink:href="#b" x="90.457" y="144.155"/><use xlink:href="#b" x="95.739" y="144.155"/><use xlink:href="#b" x="101.021" y="144.155"/></g><g style="fill:#262626;fill-opacity:1"><use xlink:href="#c" x="129.612" y="144.155"/><use xlink:href="#a" x="134.894" y="144.155"/><use xlink:href="#b" x="140.176" y="144.155"/><use xlink:href="#b" x="145.458" y="144.155"/></g><path d="M875 547.002v-200m0 172.591h2.37M875 475.856h2.37m-2.37-43.73h2.37M875 388.389h2.37" style="fill:none;stroke-width:.833333;stroke-linecap:square;stroke-linejoin:round;stroke:#262626;stroke-opacity:1;stroke-miterlimit:10" transform="matrix(.6 0 0 .6 -500.125 -197.045)"/><g style="fill:#262626;fill-opacity:1"><use xlink:href="#d" x="-.125" y="118.31"/><use xlink:href="#b" x="5.157" y="118.31"/><use xlink:href="#b" x="10.439" y="118.31"/><use xlink:href="#b" x="15.721" y="118.31"/></g><g style="fill:#262626;fill-opacity:1"><use xlink:href="#e" x="-.125" y="92.07"/><use xlink:href="#b" x="5.157" y="92.07"/><use xlink:href="#b" x="10.439" y="92.07"/><use xlink:href="#b" x="15.721" y="92.07"/></g><g style="fill:#262626;fill-opacity:1"><use xlink:href="#f" x="-.125" y="65.829"/><use xlink:href="#b" x="5.157" y="65.829"/><use xlink:href="#b" x="10.439" y="65.829"/><use xlink:href="#b" x="15.721" y="65.829"/></g><g style="fill:#262626;fill-opacity:1"><use xlink:href="#g" x="-.125" y="39.588"/><use xlink:href="#b" x="5.157" y="39.588"/><use xlink:href="#b" x="10.439" y="39.588"/><use xlink:href="#b" x="15.721" y="39.588"/></g><g style="fill:#000;fill-opacity:1"><use xlink:href="#h" x="82.776" y="7.187"/><use xlink:href="#i" x="89.161" y="7.187"/><use xlink:href="#j" x="91.481" y="7.187"/><use xlink:href="#k" x="97.291" y="7.187"/><use xlink:href="#l" x="100.196" y="7.187"/><use xlink:href="#m" x="103.101" y="7.187"/></g><path d="m1111.634 470.374-.618-.631-.619-.358-.618-.41-.619-.508-.625-.586-.618-.501-.619-.651-.625-.58-.618-.846-.619-1.224-.625-1.374-.618-1.432-.625-1.14-.625-.787-.619-.573-.625.117-.625.313-.625.247-.625.202-.625-.293-.625-.332-.625.039-.625-.208-.625-.306-.625-.606-.631-.651-.625-.905-.625-.71-.632-.794-.625-.449-.631-.456-.625-.52-.632-.606-.631-.86-.625-1.067-.632-1.38-.631-1.732-.632-1.4-.631-1.289-.632-1.582-.631-2.506-.632-3.054-.631-2.402-.632-2.969-.631-6.126-.638-11.29-.632-16.868-.638-18.346-.631-8.47-.638 8.873-.632 18.562-.638 16.295-.632 10.059-.638 4.55-.638 2.032-.638.84-.638.319-.638.351-.638.45-.638.748-.638.684-.638.397-.638.215-.638-.43-.644-.384-.638-.58-.638-.22-.645-.49-.638-.709-.644-1.159-.645-2.076-.638-3.288-.644-2.858-.645-4.278-.645-9.212-.644-11.777-.645-4.434-.644 6.869-.645 11.426-.644 8.639-.645 4.948-.644 2.077-.645-.736-.65-2.402-.645-.573-.651 1.757-.645 1.322-.651-2.122-.645-6.947-.65-9.538-.652-6.224-.644 3.529-.651 8.587-.651 5.86-.651-.313-.651-7.702-.651-16.393-.651-23.203-.651-14.922-.658 7.884-.651 22.682-.651 20.209-.651 11.601-.658 4.831-.65 1.764-.658 2.097-.658 3.594-.65 3.333-.658 2.422-.658 1.445-.651.352-.658-.424-.657-.95-.658-.586-.657.501-.658.404-.657-1.218-.664-2.864-.658-2.324-.657-2.364-.665-4.264-.657-2.773-.658-.75-.664-.26-.664 1.335-.657 4.681-.664 4.251-.664-1.699-.658-4.31-.664.241-.664 5.482-.664 5.866-.664 4.518-.664 4.043-.67 3.327-.665 2.292-.664 1.953-.664 1.51-.67.807-.665.222-.67-.43-.664-1.159-.67-.768-.665.592-.67.905-.671-.09-.67.26-.671.703-.67.527-.671-.013-.671-1.914-.67-4.01-.671-3.516-.67-.957-.671.879-.677 2.812-.67 5.306-.678 5.625-.67 3.568-.678 1.315-.67.378-.677 1.386-.677 2.403-.677 2.344-.678 2.155-.67 1.66-.677 1.354-.677 1.048-.684.918-.677.645-.677.716-.677.631-.684.495-.677.312-.677.28-.684.026-.677.02-.683 1.152-.684.808-.677-.899-.683-.768-.684 1.048-.684 2.005-.683 1.198-.684.554-.683.397-.684.65-.684.84-.69.945-.683.872-.684.71-.69.481-.684.228-.69.111-.69-.456-.683-.742-.69.326-.69 1.627-.69 1.927-.69 1.296-.69 1.029-.691.963-.69.912-.69.898-.69.8-.69.69-.697.496-.69.475-.697.508-.69.423-.696.443-.69.436-.697.553-.697.475-.696.443-.69.43-.697.325-.697.28-.696.098-.704.046-.696-.332-.697-.808-.696-1.992-.703-3.646-.697-1.51-.703 3.379-.697 4.466-.703 2.728-.697 1.536-.703.88-.703.618-.703.384-.703.273-.703.352-.703.325-.703.547-.704.469-.703.462-.71.39-.702.333-.704.416-.71.515-.702.534-.71.39-.71.365-.703.397-.71.306-.709.312-.71.196-.71.162-.709.241-.71.19-.71.045-.709.09-.71.105-.716.189-.71.293-.715.254-.71.24-.716-.273-.71-1.627-.716-4.096-.716-2.35-.716 2.917-.716 3.776-.717 1.621-.716.384-.716.43-.716.749-.716.631-.716.404-.723.104-.716.039-.723-.332-.716-.248-.723.547-.722 1.016-.716.684-.723.104-.723.123-.722.678-.723.768-.723.618-.722.32-.723.357-.723.248-.729.221-.722.189-.73.26-.722.26-.73.177-.722.117-.73.15-.728.084-.723.078-.73.196-.728.013-.73.058-.729.065-.735.098-.73.078-.729.202-.729.156-.736.085-.729.097-.735.118-.73.143-.735.078-.736.032-.736.013-.735-.123-.73-.202-.735-.202-.742-.078-.736.078-.736.384-.735.586-.736.567-.742.488-.736.417-.742.364-.736.287-.742.24-.742.098-.742.15-.736.02-.742.104" style="fill:none;stroke-width:.833333;stroke-linecap:butt;stroke-linejoin:round;stroke:#0072bd;stroke-opacity:1;stroke-miterlimit:10" transform="matrix(.6 0 0 .6 -500.125 -197.045)"/><path d="M148.438 23.113a2.749 2.749 0 1 1 0 5.5 2.749 2.749 0 1 1 0-5.5m0-.5a3.25 3.25 0 1 0 0 6.5 3.25 3.25 0 0 0 0-6.5m-10.747 13.989a2.749 2.749 0 1 1 .002 5.502 2.749 2.749 0 0 1-.002-5.502m0-.5a3.25 3.25 0 1 0 0 6.5 3.25 3.25 0 0 0 0-6.5m-5.433 5.598a2.749 2.749 0 1 1 0 5.5 2.75 2.75 0 0 1-2.75-2.75c0-1.52 1.234-2.75 2.75-2.75m0-.5a3.25 3.25 0 1 0 0 6.5 3.25 3.25 0 0 0 0-6.5m-3.121-26.235c1.515 0 2.75 1.23 2.75 2.75s-1.235 2.75-2.75 2.75a2.749 2.749 0 1 1 0-5.5m0-.5a3.25 3.25 0 1 0 0 6.5 3.25 3.25 0 0 0 0-6.5m-9.852 39.105a2.749 2.749 0 1 1 0 5.5 2.749 2.749 0 1 1 0-5.5m0-.5a3.25 3.25 0 1 0 0 6.5 3.25 3.25 0 0 0 0-6.5m-12 15.29a2.749 2.749 0 1 1 0 5.5 2.749 2.749 0 1 1 0-5.5m0-.5a3.25 3.25 0 1 0 0 6.5 3.25 3.25 0 0 0 0-6.5M78.07 100.172a2.749 2.749 0 1 1 0 5.5 2.749 2.749 0 1 1 0-5.5m0-.5a3.25 3.25 0 1 0 0 6.5 3.25 3.25 0 0 0 0-6.5m-16.125 8.922a2.749 2.749 0 1 1-2.75 2.75c0-1.516 1.23-2.75 2.75-2.75m0-.5a3.25 3.25 0 1 0 0 6.5 3.25 3.25 0 0 0 0-6.5m0 0" style="stroke:none;fill-rule:nonzero;fill:red;fill-opacity:1"/></svg>