<svg xmlns="http://www.w3.org/2000/svg" width="227pt" height="260pt" viewBox="0 0 227.09 260"><g class="graph"><path fill="#fff" d="M0 260V0h227.09v260z"/><g class="node" transform="translate(4 256)"><ellipse cx="109.55" cy="-234" fill="none" stroke="#000" rx="27" ry="18"/><text x="109.55" y="-230.3" font-family="Times New Roman,serif" font-size="14" text-anchor="middle">∅</text></g><g class="node" transform="translate(4 256)"><ellipse cx="109.55" cy="-162" fill="none" stroke="#000" rx="27" ry="18"/><text x="109.55" y="-158.3" font-family="Times New Roman,serif" font-size="14" text-anchor="middle">{x}</text></g><g stroke="#000" class="edge"><path fill="none" d="M113.55 40.3v25.59"/><path d="m117.05 65.9-3.5 10-3.5-10z"/></g><g class="node" transform="translate(4 256)"><ellipse cx="37.55" cy="-162" fill="none" stroke="#000" rx="27" ry="18"/><text x="37.55" y="-158.3" font-family="Times New Roman,serif" font-size="14" text-anchor="middle">{y}</text></g><g stroke="#000" class="edge"><path fill="none" d="M98.98 37.17C88.8 47.06 75.02 60.45 63.52 71.64"/><path d="m65.95 74.15-9.61 4.47 4.73-9.49z"/></g><g class="node" transform="translate(4 256)"><ellipse cx="181.55" cy="-162" fill="none" stroke="#000" rx="27" ry="18"/><text x="181.55" y="-158.3" font-family="Times New Roman,serif" font-size="14" text-anchor="middle">{z}</text></g><g stroke="#000" class="edge"><path fill="none" d="M128.12 37.17c10.18 9.89 23.95 23.28 35.46 34.47"/><path d="m166.02 69.13 4.73 9.49-9.61-4.47z"/></g><g class="node" transform="translate(4 256)"><ellipse cx="30.55" cy="-90" fill="none" stroke="#000" rx="30.59" ry="18"/><text x="30.55" y="-86.3" font-family="Times New Roman,serif" font-size="14" text-anchor="middle">{x,y}</text></g><g stroke="#000" class="edge"><path fill="none" d="M97.94 108.83c-11.25 9.96-26.63 23.6-39.43 34.94"/><path d="m60.74 146.46-9.8 4.02 5.16-9.26z"/></g><g class="node" transform="translate(4 256)"><ellipse cx="188.55" cy="-90" fill="none" stroke="#000" rx="30.59" ry="18"/><text x="188.55" y="-86.3" font-family="Times New Roman,serif" font-size="14" text-anchor="middle">{x,z}</text></g><g stroke="#000" class="edge"><path fill="none" d="M129.16 108.83c11.24 9.96 26.63 23.6 39.42 34.94"/><path d="m170.99 141.22 5.17 9.26-9.81-4.02z"/></g><g stroke="#000" class="edge"><path fill="none" d="M39.82 112.3c-.77 7.72-1.7 16.99-2.56 25.59"/><path d="m40.74 138.29-4.48 9.61-2.49-10.3z"/></g><g class="node" transform="translate(4 256)"><ellipse cx="109.55" cy="-90" fill="none" stroke="#000" rx="30.59" ry="18"/><text x="109.55" y="-86.3" font-family="Times New Roman,serif" font-size="14" text-anchor="middle">{y,z}</text></g><g stroke="#000" class="edge"><path fill="none" d="M56.12 109.17c9.95 9.67 23.33 22.68 34.67 33.71"/><path d="m93.52 140.65 4.73 9.48-9.61-4.46z"/></g><g stroke="#000" class="edge"><path fill="none" d="M170.98 109.17c-9.95 9.67-23.33 22.68-34.68 33.71"/><path d="m138.45 145.67-9.61 4.46 4.73-9.48z"/></g><g stroke="#000" class="edge"><path fill="none" d="M187.28 112.3c.77 7.72 1.7 16.99 2.56 25.59"/><path d="m193.32 137.6-2.48 10.3-4.48-9.61z"/></g><g class="node" transform="translate(4 256)"><ellipse cx="109.55" cy="-18" fill="none" stroke="#000" rx="37.09" ry="18"/><text x="109.55" y="-14.3" font-family="Times New Roman,serif" font-size="14" text-anchor="middle">{x,y,z}</text></g><g stroke="#000" class="edge"><path fill="none" d="m50.92 181.5 37.74 33.45"/><path d="m91.22 212.54 5.16 9.25-9.81-4.01z"/></g><g stroke="#000" class="edge"><path fill="none" d="M113.55 184.3v25.59"/><path d="m117.05 209.9-3.5 10-3.5-10z"/></g><g stroke="#000" class="edge"><path fill="none" d="M176.18 181.5c-10.9 9.66-25.43 22.53-37.75 33.45"/><path d="m140.52 217.78-9.81 4.01 5.17-9.25z"/></g></g></svg>