<svg xmlns="http://www.w3.org/2000/svg" width="156" height="332pt" viewBox="0 0 117 332"><g class="graph"><path fill="#fff" stroke="transparent" d="M0 332V0h117v332z"/><g class="node" transform="translate(4 328)"><ellipse cx="82" cy="-306" fill="none" stroke="#000" rx="27" ry="18"/><text x="82" y="-302.3" font-family="Times New Roman,serif" font-size="14" text-anchor="middle">u</text></g><g class="node" transform="translate(4 328)"><ellipse cx="55" cy="-234" fill="none" stroke="#000" rx="27" ry="18"/><text x="55" y="-230.3" font-family="Times New Roman,serif" font-size="14" text-anchor="middle">w</text></g><path fill="none" stroke="#000" d="M79.6 39.59c-4.24 11-9.79 25.38-14.06 36.45" class="edge"/><g class="node" transform="translate(4 328)"><ellipse cx="55" cy="-162" fill="none" stroke="#000" rx="27" ry="18"/><text x="55" y="-158.3" font-family="Times New Roman,serif" font-size="14" text-anchor="middle">x</text></g><path fill="none" stroke="#000" d="M53.16 111.59c-1.2 11-1.21 25.38-.04 36.45M64.84 111.59c1.2 11 1.21 25.38.04 36.45" class="edge"/><g class="node" transform="translate(4 328)"><ellipse cx="55" cy="-90" fill="none" stroke="#000" rx="27" ry="18"/><text x="55" y="-86.3" font-family="Times New Roman,serif" font-size="14" text-anchor="middle">y</text></g><path fill="none" stroke="#000" d="M53.16 183.59c-1.2 11-1.21 25.38-.04 36.45M64.84 183.59c1.2 11 1.21 25.38.04 36.45M72.75 222.07C80.96 212.1 90.62 198.25 95 184c15.55-50.57 3.23-114.23-4.28-144.08" class="edge"/><g class="node" transform="translate(4 328)"><ellipse cx="27" cy="-18" fill="none" stroke="#000" rx="27" ry="18"/><text x="27" y="-14.3" font-family="Times New Roman,serif" font-size="14" text-anchor="middle">v</text></g><path fill="none" stroke="#000" d="M52.36 255.59c-4.46 11.16-10.32 25.81-14.77 36.94M26.45 292.08C19.22 262.22 7.45 198.56 23 148c4.38-14.25 14.04-28.1 22.25-38.07" class="edge"/></g></svg>