<?xml version="1.0" encoding="UTF-8"?><svg xmlns="http://www.w3.org/2000/svg" xmlns:xlink="http://www.w3.org/1999/xlink" width="117pt" height="332pt" viewBox="0.00 0.00 117.00 332.00"><g id="graph0" class="graph" transform="scale(1 1) rotate(0) translate(4 328)"><polygon fill="white" stroke="transparent" points="-4,4 -4,-328 113,-328 113,4 -4,4"/><g id="node1" class="node"><title>u</title><ellipse fill="none" stroke="black" cx="82" cy="-306" rx="27" ry="18"/><text text-anchor="middle" x="82" y="-302.3" font-family="Times New Roman,serif" font-size="14.00">u</text></g><g id="node2" class="node"><title>w</title><ellipse fill="none" stroke="black" cx="55" cy="-234" rx="27" ry="18"/><text text-anchor="middle" x="55" y="-230.3" font-family="Times New Roman,serif" font-size="14.00">w</text></g><g id="edge1" class="edge"><title>u--w</title><path fill="none" stroke="black" d="M75.6,-288.41C71.36,-277.41 65.81,-263.03 61.54,-251.96"/></g><g id="node3" class="node"><title>x</title><ellipse fill="none" stroke="black" cx="55" cy="-162" rx="27" ry="18"/><text text-anchor="middle" x="55" y="-158.3" font-family="Times New Roman,serif" font-size="14.00">x</text></g><g id="edge2" class="edge"><title>w--x</title><path fill="none" stroke="black" d="M49.16,-216.41C47.96,-205.41 47.95,-191.03 49.12,-179.96"/></g><g id="edge6" class="edge"><title>w--x</title><path fill="none" stroke="black" d="M60.84,-216.41C62.04,-205.41 62.05,-191.03 60.88,-179.96"/></g><g id="node4" class="node"><title>y</title><ellipse fill="none" stroke="black" cx="55" cy="-90" rx="27" ry="18"/><text text-anchor="middle" x="55" y="-86.3" font-family="Times New Roman,serif" font-size="14.00">y</text></g><g id="edge3" class="edge"><title>x--y</title><path fill="none" stroke="black" d="M49.16,-144.41C47.96,-133.41 47.95,-119.03 49.12,-107.96"/></g><g id="edge7" class="edge"><title>x--y</title><path fill="none" stroke="black" d="M60.84,-144.41C62.04,-133.41 62.05,-119.03 60.88,-107.96"/></g><g id="edge4" class="edge"><title>y--u</title><path fill="none" stroke="black" d="M68.75,-105.93C76.96,-115.9 86.62,-129.75 91,-144 106.55,-194.57 94.23,-258.23 86.72,-288.08"/></g><g id="node5" class="node"><title>v</title><ellipse fill="none" stroke="black" cx="27" cy="-18" rx="27" ry="18"/><text text-anchor="middle" x="27" y="-14.3" font-family="Times New Roman,serif" font-size="14.00">v</text></g><g id="edge8" class="edge"><title>y--v</title><path fill="none" stroke="black" d="M48.36,-72.41C43.9,-61.25 38.04,-46.6 33.59,-35.47"/></g><g id="edge5" class="edge"><title>v--w</title><path fill="none" stroke="black" d="M22.45,-35.92C15.22,-65.78 3.45,-129.44 19,-180 23.38,-194.25 33.04,-208.1 41.25,-218.07"/></g></g></svg>