<svg xmlns="http://www.w3.org/2000/svg" width="232" height="188pt" viewBox="0 0 174 188"><g class="graph"><path fill="#fff" stroke="transparent" d="M0 188V0h174v188z"/><g class="node" transform="translate(4 184)"><ellipse cx="27" cy="-162" fill="none" stroke="#000" rx="27" ry="18"/><text x="27" y="-158.3" font-family="Times New Roman,serif" font-size="14" text-anchor="middle">w</text></g><g class="node" transform="translate(4 184)"><ellipse cx="27" cy="-90" fill="none" stroke="#000" rx="27" ry="18"/><text x="27" y="-86.3" font-family="Times New Roman,serif" font-size="14" text-anchor="middle">y</text></g><path fill="none" stroke="#000" d="M31 40.3v35.6" class="edge"/><g class="node" transform="translate(4 184)"><ellipse cx="126" cy="-162" fill="none" stroke="#000" rx="27" ry="18"/><text x="126" y="-158.3" font-family="Times New Roman,serif" font-size="14" text-anchor="middle">u</text></g><g class="node" transform="translate(4 184)"><ellipse cx="112" cy="-90" fill="none" stroke="#000" rx="27" ry="18"/><text x="112" y="-86.3" font-family="Times New Roman,serif" font-size="14" text-anchor="middle">v</text></g><path fill="none" stroke="#000" d="M126.61 39.95c-2.17 10.84-4.97 24.87-7.15 35.77" class="edge"/><g class="node" transform="translate(4 184)"><ellipse cx="139" cy="-18" fill="none" stroke="#000" rx="27" ry="18"/><text x="139" y="-14.3" font-family="Times New Roman,serif" font-size="14" text-anchor="middle">x</text></g><path fill="none" stroke="#000" d="M122.4 111.59c4.24 11 9.79 25.38 14.06 36.45M147.66 148.13c4.29-18.01 9.29-47.3 4.34-72.13-2.57-12.9-8.34-26.59-13.32-36.82" class="edge"/></g></svg>