<?xml version="1.0" encoding="UTF-8" standalone="no" ?>
<!DOCTYPE svg PUBLIC "-//W3C//DTD SVG 1.1//EN" "http://www.w3.org/Graphics/SVG/1.1/DTD/svg11.dtd">
<!-- Generated by graphviz version 4.0.0 (20220529.0937)
 -->
<!-- Pages: 1 -->
<svg width="174pt" height="188pt" viewBox="0.00 0.00 174.00 188.00" xmlns="http://www.w3.org/2000/svg" xmlns:xlink="http://www.w3.org/1999/xlink">
<g id="graph0" class="graph" transform="scale(1 1) rotate(0) translate(4 184)">
<polygon fill="white" stroke="transparent" points="-4,4 -4,-184 170,-184 170,4 -4,4" />
<!-- w -->
<g id="node1" class="node">
<title>w</title>
<ellipse fill="none" stroke="black" cx="27" cy="-162" rx="27" ry="18" />
<text text-anchor="middle" x="27" y="-158.3" font-family="Times New Roman,serif" font-size="14.00">w</text>
</g>
<!-- y -->
<g id="node2" class="node">
<title>y</title>
<ellipse fill="none" stroke="black" cx="27" cy="-90" rx="27" ry="18" />
<text text-anchor="middle" x="27" y="-86.3" font-family="Times New Roman,serif" font-size="14.00">y</text>
</g>
<!-- w&#45;&#45;y -->
<g id="edge1" class="edge">
<title>w&#45;&#45;y</title>
<path fill="none" stroke="black" d="M27,-143.7C27,-132.85 27,-118.92 27,-108.1" />
</g>
<!-- u -->
<g id="node3" class="node">
<title>u</title>
<ellipse fill="none" stroke="black" cx="126" cy="-162" rx="27" ry="18" />
<text text-anchor="middle" x="126" y="-158.3" font-family="Times New Roman,serif" font-size="14.00">u</text>
</g>
<!-- v -->
<g id="node4" class="node">
<title>v</title>
<ellipse fill="none" stroke="black" cx="112" cy="-90" rx="27" ry="18" />
<text text-anchor="middle" x="112" y="-86.3" font-family="Times New Roman,serif" font-size="14.00">v</text>
</g>
<!-- u&#45;&#45;v -->
<g id="edge2" class="edge">
<title>u&#45;&#45;v</title>
<path fill="none" stroke="black" d="M122.61,-144.05C120.44,-133.21 117.64,-119.18 115.46,-108.28" />
</g>
<!-- x -->
<g id="node5" class="node">
<title>x</title>
<ellipse fill="none" stroke="black" cx="139" cy="-18" rx="27" ry="18" />
<text text-anchor="middle" x="139" y="-14.3" font-family="Times New Roman,serif" font-size="14.00">x</text>
</g>
<!-- v&#45;&#45;x -->
<g id="edge3" class="edge">
<title>v&#45;&#45;x</title>
<path fill="none" stroke="black" d="M118.4,-72.41C122.64,-61.41 128.19,-47.03 132.46,-35.96" />
</g>
<!-- x&#45;&#45;u -->
<g id="edge4" class="edge">
<title>x&#45;&#45;u</title>
<path fill="none" stroke="black" d="M143.66,-35.87C147.95,-53.88 152.95,-83.17 148,-108 145.43,-120.9 139.66,-134.59 134.68,-144.82" />
</g>
</g>
</svg>
