<svg xmlns="http://www.w3.org/2000/svg" width="312.067" height="312.067" viewBox="0 0 234.05 234.05"><defs><clipPath id="a"><path d="M180 19h54.05v115H180Zm0 0"/></clipPath><clipPath id="b"><path d="M133 67h101.05v67H133Zm0 0"/></clipPath><clipPath id="c"><path d="M19 180h115v54.05H19Zm0 0"/></clipPath><clipPath id="d"><path d="M67 133h67v101.05H67Zm0 0"/></clipPath><clipPath id="e"><path d="M100 180h115v54.05H100Zm0 0"/></clipPath><clipPath id="f"><path d="M180 100h54.05v115H180Zm0 0"/></clipPath><clipPath id="g"><path d="M133 100h101.05v67H133Zm0 0"/></clipPath><clipPath id="h"><path d="M100 133h67v101.05h-67Zm0 0"/></clipPath><clipPath id="i"><path d="M215 102h19.05v30H215Zm0 0"/></clipPath><clipPath id="j"><path d="M102 215h30v19.05h-30Zm0 0"/></clipPath></defs><g clip-path="url(#a)"><path d="M113.39.002 80.177 80.177" style="fill:none;stroke-width:1.19553;stroke-linecap:butt;stroke-linejoin:miter;stroke:#3f464d;stroke-opacity:1;stroke-miterlimit:10" transform="matrix(1 0 0 -1 117.025 117.025)"/></g><path d="m46.659.002 33.52 80.175M46.659.002l33.52-80.18M46.659.002l-79.653 32.992M80.178 80.177l-80.18 33.211m32.997-80.394L-.002 113.388" style="fill:none;stroke-width:1.19553;stroke-linecap:butt;stroke-linejoin:miter;stroke:#3f464d;stroke-opacity:1;stroke-miterlimit:10" transform="matrix(1 0 0 -1 117.025 117.025)"/><g clip-path="url(#b)"><path d="M32.995 32.994 113.389.002" style="fill:none;stroke-width:1.19553;stroke-linecap:butt;stroke-linejoin:miter;stroke:#3f464d;stroke-opacity:1;stroke-miterlimit:10" transform="matrix(1 0 0 -1 117.025 117.025)"/></g><path d="M32.995 32.994-46.658.002M-.002 113.388l-80.175-33.21m80.175-33.52-80.175 33.52m80.175-33.52 80.18 33.52m-80.18-33.52-32.992-79.653M-80.177 80.177-113.388.002m80.394 32.992L-113.388.002m80.394 32.992 32.992 80.394m-32.992-80.394L-.002-46.66M-113.388.002l33.21-80.18m33.52 80.18-33.52-80.18m33.52 80.18-33.52 80.175M-46.658.002l79.653-32.997" style="fill:none;stroke-width:1.19553;stroke-linecap:butt;stroke-linejoin:miter;stroke:#3f464d;stroke-opacity:1;stroke-miterlimit:10" transform="matrix(1 0 0 -1 117.025 117.025)"/><g clip-path="url(#c)"><path d="M-80.177-80.178-.002-113.39" style="fill:none;stroke-width:1.19553;stroke-linecap:butt;stroke-linejoin:miter;stroke:#3f464d;stroke-opacity:1;stroke-miterlimit:10" transform="matrix(1 0 0 -1 117.025 117.025)"/></g><g clip-path="url(#d)"><path d="m-32.994-32.995 32.992-80.394" style="fill:none;stroke-width:1.19553;stroke-linecap:butt;stroke-linejoin:miter;stroke:#3f464d;stroke-opacity:1;stroke-miterlimit:10" transform="matrix(1 0 0 -1 117.025 117.025)"/></g><path d="M-32.994-32.995-113.388.002m80.394-32.997L46.66.002" style="fill:none;stroke-width:1.19553;stroke-linecap:butt;stroke-linejoin:miter;stroke:#3f464d;stroke-opacity:1;stroke-miterlimit:10" transform="matrix(1 0 0 -1 117.025 117.025)"/><g clip-path="url(#e)"><path d="m-.002-113.39 80.18 33.212" style="fill:none;stroke-width:1.19553;stroke-linecap:butt;stroke-linejoin:miter;stroke:#3f464d;stroke-opacity:1;stroke-miterlimit:10" transform="matrix(1 0 0 -1 117.025 117.025)"/></g><path d="m-.002-46.659 80.18-33.52m-80.18 33.52-80.175-33.52m80.175 33.52 32.997 79.653" style="fill:none;stroke-width:1.19553;stroke-linecap:butt;stroke-linejoin:miter;stroke:#3f464d;stroke-opacity:1;stroke-miterlimit:10" transform="matrix(1 0 0 -1 117.025 117.025)"/><g clip-path="url(#f)"><path d="M80.178-80.178 113.39.002" style="fill:none;stroke-width:1.19553;stroke-linecap:butt;stroke-linejoin:miter;stroke:#3f464d;stroke-opacity:1;stroke-miterlimit:10" transform="matrix(1 0 0 -1 117.025 117.025)"/></g><g clip-path="url(#g)"><path d="M32.995-32.995 113.389.002" style="fill:none;stroke-width:1.19553;stroke-linecap:butt;stroke-linejoin:miter;stroke:#3f464d;stroke-opacity:1;stroke-miterlimit:10" transform="matrix(1 0 0 -1 117.025 117.025)"/></g><g clip-path="url(#h)"><path d="M32.995-32.995-.002-113.389" style="fill:none;stroke-width:1.19553;stroke-linecap:butt;stroke-linejoin:miter;stroke:#3f464d;stroke-opacity:1;stroke-miterlimit:10" transform="matrix(1 0 0 -1 117.025 117.025)"/></g><path d="M32.995-32.995-.002 46.658" style="fill:none;stroke-width:1.19553;stroke-linecap:butt;stroke-linejoin:miter;stroke:#3f464d;stroke-opacity:1;stroke-miterlimit:10" transform="matrix(1 0 0 -1 117.025 117.025)"/><path d="M49.9.002a3.24 3.24 0 0 1-3.24 3.238 3.24 3.24 0 1 1 0-6.48A3.24 3.24 0 0 1 49.902.002Zm0 0" style="fill-rule:nonzero;fill:#2a9bc9;fill-opacity:1;stroke-width:.79701;stroke-linecap:butt;stroke-linejoin:miter;stroke:#475762;stroke-opacity:1;stroke-miterlimit:10" transform="matrix(1 0 0 -1 117.025 117.025)"/><path d="M233.652 117.023a3.237 3.237 0 0 0-3.238-3.238 3.24 3.24 0 0 0-3.242 3.238 3.24 3.24 0 0 0 3.242 3.243c1.79 0 3.238-1.45 3.238-3.243m0 0" style="stroke:none;fill-rule:nonzero;fill:#2a9bc9;fill-opacity:1"/><g clip-path="url(#i)"><path d="M116.627.002a3.237 3.237 0 0 1-3.238 3.238 3.24 3.24 0 0 1-3.242-3.238 3.24 3.24 0 0 1 3.242-3.243c1.79 0 3.238 1.45 3.238 3.243Zm0 0" style="fill:none;stroke-width:.79701;stroke-linecap:butt;stroke-linejoin:miter;stroke:#475762;stroke-opacity:1;stroke-miterlimit:10" transform="matrix(1 0 0 -1 117.025 117.025)"/></g><path d="M36.233 32.994a3.24 3.24 0 0 1-3.238 3.238 3.24 3.24 0 0 1-3.243-3.238 3.24 3.24 0 1 1 6.48 0Zm47.183 47.183a3.24 3.24 0 1 1-6.48 0 3.24 3.24 0 1 1 6.48 0ZM3.24 46.658a3.24 3.24 0 1 1-6.48.003 3.24 3.24 0 0 1 6.48-.003Zm0 66.73a3.24 3.24 0 0 1-3.242 3.239 3.24 3.24 0 1 1 3.242-3.238Zm-32.992-80.394a3.24 3.24 0 1 1-6.481-.005 3.24 3.24 0 0 1 6.481.005Zm-47.183 47.183a3.244 3.244 0 0 1-3.242 3.243 3.244 3.244 0 0 1-3.243-3.243 3.244 3.244 0 0 1 3.243-3.242 3.244 3.244 0 0 1 3.242 3.242ZM-43.42.002a3.24 3.24 0 1 1-6.48-.005 3.24 3.24 0 0 1 6.48.005Zm-66.726 0a3.24 3.24 0 1 1-6.482-.006 3.24 3.24 0 0 1 6.482.006Zm80.394-32.997a3.24 3.24 0 0 1-3.242 3.243 3.24 3.24 0 0 1-3.238-3.243 3.24 3.24 0 0 1 6.48 0Zm-47.183-47.183a3.242 3.242 0 1 1-6.485 0 3.24 3.24 0 0 1 3.243-3.238 3.24 3.24 0 0 1 3.242 3.238ZM3.24-46.659a3.24 3.24 0 1 1-6.48 0 3.24 3.24 0 1 1 6.48 0Zm0 0" style="fill-rule:nonzero;fill:#2a9bc9;fill-opacity:1;stroke-width:.79701;stroke-linecap:butt;stroke-linejoin:miter;stroke:#475762;stroke-opacity:1;stroke-miterlimit:10" transform="matrix(1 0 0 -1 117.025 117.025)"/><path d="M120.266 230.414a3.24 3.24 0 0 0-3.243-3.242 3.24 3.24 0 0 0-3.238 3.242c0 1.79 1.45 3.238 3.238 3.238a3.24 3.24 0 0 0 3.243-3.238m0 0" style="stroke:none;fill-rule:nonzero;fill:#2a9bc9;fill-opacity:1"/><g clip-path="url(#j)"><path d="M3.24-113.39a3.24 3.24 0 0 1-3.242 3.243 3.24 3.24 0 0 1-3.238-3.242c0-1.79 1.45-3.238 3.238-3.238a3.24 3.24 0 0 1 3.243 3.238Zm0 0" style="fill:none;stroke-width:.79701;stroke-linecap:butt;stroke-linejoin:miter;stroke:#475762;stroke-opacity:1;stroke-miterlimit:10" transform="matrix(1 0 0 -1 117.025 117.025)"/></g><path d="M36.233-32.995a3.24 3.24 0 0 1-3.238 3.243 3.24 3.24 0 0 1-3.243-3.243 3.24 3.24 0 0 1 3.243-3.238 3.24 3.24 0 0 1 3.238 3.238Zm47.183-47.183a3.24 3.24 0 0 1-3.238 3.242 3.24 3.24 0 0 1-3.242-3.242c0-1.79 1.45-3.238 3.242-3.238a3.236 3.236 0 0 1 3.238 3.238Zm0 0" style="fill-rule:nonzero;fill:#2a9bc9;fill-opacity:1;stroke-width:.79701;stroke-linecap:butt;stroke-linejoin:miter;stroke:#475762;stroke-opacity:1;stroke-miterlimit:10" transform="matrix(1 0 0 -1 117.025 117.025)"/></svg>