<svg xmlns="http://www.w3.org/2000/svg" width="206pt" height="116pt" viewBox="0 0 206 116"><g class="graph"><path fill="#fff" stroke="transparent" d="M0 116V0h206v116z"/><g class="node" transform="translate(4 112)"><ellipse cx="27" cy="-90" fill="none" stroke="#000" rx="27" ry="18"/><text x="27" y="-86.3" font-family="Times New Roman,serif" font-size="14" text-anchor="middle">u</text></g><g class="node" transform="translate(4 112)"><ellipse cx="27" cy="-18" fill="none" stroke="#000" rx="27" ry="18"/><text x="27" y="-14.3" font-family="Times New Roman,serif" font-size="14" text-anchor="middle">x</text></g><path fill="none" stroke="#000" d="M31 40.3v35.6" class="edge"/><g class="node" transform="translate(4 112)"><ellipse cx="99" cy="-18" fill="none" stroke="#000" rx="27" ry="18"/><text x="99" y="-14.3" font-family="Times New Roman,serif" font-size="14" text-anchor="middle">y</text></g><path fill="none" stroke="#000" d="M45.57 37.17C57.98 49.23 75.73 66.49 88.2 78.62" class="edge"/><g class="node" transform="translate(4 112)"><ellipse cx="171" cy="-18" fill="none" stroke="#000" rx="27" ry="18"/><text x="171" y="-14.3" font-family="Times New Roman,serif" font-size="14" text-anchor="middle">z</text></g><path fill="none" stroke="#000" d="M52.25 33.33c27.22 13.23 74.15 36.04 101.42 49.3" class="edge"/><g class="node" transform="translate(4 112)"><ellipse cx="99" cy="-90" fill="none" stroke="#000" rx="27" ry="18"/><text x="99" y="-86.3" font-family="Times New Roman,serif" font-size="14" text-anchor="middle">v</text></g><path fill="none" stroke="#000" d="M88.43 37.17C76.02 49.23 58.27 66.49 45.8 78.62M103 40.3v35.6M117.57 37.17c12.41 12.06 30.16 29.32 42.63 41.45" class="edge"/><g class="node" transform="translate(4 112)"><ellipse cx="171" cy="-90" fill="none" stroke="#000" rx="27" ry="18"/><text x="171" y="-86.3" font-family="Times New Roman,serif" font-size="14" text-anchor="middle">w</text></g><path fill="none" stroke="#000" d="M153.75 33.33C126.53 46.56 79.6 69.37 52.33 82.63M160.43 37.17c-12.41 12.06-30.16 29.32-42.63 41.45M175 40.3v35.6" class="edge"/></g></svg>