<svg xmlns="http://www.w3.org/2000/svg" width="404" height="336" viewBox="0 0 302.64 252.4"><g class="graph"><path fill="#fff" stroke="transparent" d="M0 252.4V0h302.64v252.4z"/><g class="node" transform="translate(4 248.4)"><ellipse cx="207.48" cy="-18" fill="none" stroke="#000" rx="27" ry="18"/><text x="207.48" y="-14.3" font-family="Times New Roman,serif" font-size="14" text-anchor="middle">m</text></g><g class="node" transform="translate(4 248.4)"><ellipse cx="267.64" cy="-122.2" fill="none" stroke="#000" rx="27" ry="18"/><text x="267.64" y="-118.5" font-family="Times New Roman,serif" font-size="14" text-anchor="middle">p</text></g><path fill="none" stroke="#000" d="M221.42 213.19c11.21-19.42 29.34-50.81 40.47-70.1" class="edge"/><g class="node" transform="translate(4 248.4)"><ellipse cx="87.16" cy="-18" fill="none" stroke="#000" rx="27" ry="18"/><text x="87.16" y="-14.3" font-family="Times New Roman,serif" font-size="14" text-anchor="middle">q</text></g><path fill="none" stroke="#000" d="M184.48 230.4h-65.99" class="edge"/><g class="node" transform="translate(4 248.4)"><ellipse cx="87.16" cy="-226.4" fill="none" stroke="#000" rx="27" ry="18"/><text x="87.16" y="-222.7" font-family="Times New Roman,serif" font-size="14" text-anchor="middle">r</text></g><path fill="none" stroke="#000" d="M201.64 213.35C179.02 174.17 123.56 78.12 100.97 39" class="edge"/><g class="node" transform="translate(4 248.4)"><ellipse cx="27" cy="-122.2" fill="none" stroke="#000" rx="27" ry="18"/><text x="27" y="-118.5" font-family="Times New Roman,serif" font-size="14" text-anchor="middle">n</text></g><path fill="none" stroke="#000" d="M58.14 126.2H244.6M40.93 143.41c11.22 19.42 29.34 50.81 40.48 70.1M40.93 108.99c11.22-19.42 29.34-50.82 40.48-70.11" class="edge"/><g class="node" transform="translate(4 248.4)"><ellipse cx="207.48" cy="-226.4" fill="none" stroke="#000" rx="27" ry="18"/><text x="207.48" y="-222.7" font-family="Times New Roman,serif" font-size="14" text-anchor="middle">l</text></g><path fill="none" stroke="#000" d="M221.42 39.2c11.21 19.43 29.34 50.82 40.47 70.11M201.64 39.05c-22.62 39.18-78.08 135.23-100.67 174.35M184.48 22h-65.99" class="edge"/></g></svg>