<svg xmlns="http://www.w3.org/2000/svg" width="519.36" height="141.667" viewBox="0 0 389.52 106.25"><defs><clipPath id="a"><path d="M5 60h48v46.25H5Zm0 0"/></clipPath><clipPath id="b"><path d="M51 60h49v46.25H51Zm0 0"/></clipPath><clipPath id="c"><path d="M0 0h118v106.25H0Zm0 0"/></clipPath><clipPath id="d"><path d="M7 81h30v25.25H7Zm0 0"/></clipPath><clipPath id="e"><path d="M67 81h30v25.25H67Zm0 0"/></clipPath><clipPath id="f"><path d="M125 0h137v106.25H125Zm0 0"/></clipPath><clipPath id="g"><path d="M151 0h86v106.25h-86Zm0 0"/></clipPath><clipPath id="h"><path d="M153 84h30v22.25h-30Zm0 0"/></clipPath><clipPath id="i"><path d="M204 84h30v22.25h-30Zm0 0"/></clipPath><clipPath id="j"><path d="M268 0h121.52v106.25H268Zm0 0"/></clipPath><clipPath id="k"><path d="M301 0h85v106.25h-85Zm0 0"/></clipPath><clipPath id="l"><path d="M285 0h85v106.25h-85Zm0 0"/></clipPath><clipPath id="m"><path d="M318 37h71.52v61H318Zm0 0"/></clipPath><clipPath id="n"><path d="M382 42h7.52v8H382Zm0 0"/></clipPath><clipPath id="o"><path d="M371 31h18.52v30H371Zm0 0"/></clipPath><clipPath id="p"><path d="M303 88h30v18.25h-30Zm0 0"/></clipPath><clipPath id="q"><path d="M338 88h30v18.25h-30Zm0 0"/></clipPath><clipPath id="r"><path d="M365 65h24.52v30H365Zm0 0"/></clipPath><clipPath id="s"><path d="M382 42h7.52v8H382Zm0 0"/></clipPath><clipPath id="t"><path d="M371 31h18.52v30H371Zm0 0"/></clipPath></defs><path d="m26.959 8.762 21.57 7.007M-.002 28.348v22.675M-26.959 8.762l-21.57 7.007" style="fill:none;stroke-width:1.19553;stroke-linecap:butt;stroke-linejoin:miter;stroke:#3f464d;stroke-opacity:1;stroke-miterlimit:10" transform="matrix(1 0 0 -1 52.166 54.664)"/><g clip-path="url(#a)"><path d="M-16.662-22.934-29.99-41.28" style="fill:none;stroke-width:1.19553;stroke-linecap:butt;stroke-linejoin:miter;stroke:#3f464d;stroke-opacity:1;stroke-miterlimit:10" transform="matrix(1 0 0 -1 52.166 54.664)"/></g><g clip-path="url(#b)"><path d="M16.662-22.934 29.99-41.28" style="fill:none;stroke-width:1.19553;stroke-linecap:butt;stroke-linejoin:miter;stroke:#3f464d;stroke-opacity:1;stroke-miterlimit:10" transform="matrix(1 0 0 -1 52.166 54.664)"/></g><g clip-path="url(#c)"><path d="M48.53 15.77-.003 51.022-48.529 15.77l18.539-57.05h59.98l18.54 57.05" style="fill:none;stroke-width:1.19553;stroke-linecap:butt;stroke-linejoin:miter;stroke:#3f464d;stroke-opacity:1;stroke-miterlimit:10" transform="matrix(1 0 0 -1 52.166 54.664)"/></g><path d="M26.959 8.762h-53.918l43.621-31.696L-.002 28.348l-16.66-51.282L26.959 8.762" style="fill:none;stroke-width:1.19553;stroke-linecap:butt;stroke-linejoin:miter;stroke:#3f464d;stroke-opacity:1;stroke-miterlimit:10" transform="matrix(1 0 0 -1 52.166 54.664)"/><path d="M30.201 8.762a3.24 3.24 0 1 1-6.481-.005 3.24 3.24 0 0 1 6.481.005Zm21.567 7.008a3.24 3.24 0 0 1-3.239 3.238 3.24 3.24 0 0 1-3.242-3.239 3.24 3.24 0 0 1 3.242-3.242c1.79 0 3.239 1.45 3.239 3.242ZM3.24 28.348a3.24 3.24 0 0 1-3.242 3.238 3.24 3.24 0 1 1 3.242-3.238Zm0 22.675a3.24 3.24 0 1 1-6.48.003 3.24 3.24 0 0 1 6.48-.003ZM-23.72 8.762a3.24 3.24 0 1 1-6.48-.005 3.24 3.24 0 0 1 6.48.005Zm-21.567 7.008a3.24 3.24 0 0 1-3.242 3.238 3.24 3.24 0 0 1-3.239-3.239 3.24 3.24 0 0 1 3.239-3.242 3.24 3.24 0 0 1 3.242 3.242Zm31.867-38.704a3.244 3.244 0 0 1-3.242 3.243 3.244 3.244 0 0 1-3.242-3.243 3.244 3.244 0 0 1 3.242-3.242 3.244 3.244 0 0 1 3.242 3.242Zm0 0" style="fill-rule:nonzero;fill:#2a9bc9;fill-opacity:1;stroke-width:.79701;stroke-linecap:butt;stroke-linejoin:miter;stroke:#475762;stroke-opacity:1;stroke-miterlimit:10" transform="matrix(1 0 0 -1 52.166 54.664)"/><path d="M25.414 95.945a3.24 3.24 0 0 0-3.238-3.242 3.24 3.24 0 1 0 3.238 3.242m0 0" style="stroke:none;fill-rule:nonzero;fill:#2a9bc9;fill-opacity:1"/><g clip-path="url(#d)"><path d="M-26.752-41.281a3.24 3.24 0 0 1-3.238 3.242 3.24 3.24 0 1 1 3.238-3.242Zm0 0" style="fill:none;stroke-width:.79701;stroke-linecap:butt;stroke-linejoin:miter;stroke:#475762;stroke-opacity:1;stroke-miterlimit:10" transform="matrix(1 0 0 -1 52.166 54.664)"/></g><path d="M19.904-22.934a3.244 3.244 0 0 1-3.242 3.243 3.244 3.244 0 0 1-3.242-3.243 3.244 3.244 0 0 1 3.242-3.242 3.244 3.244 0 0 1 3.242 3.242Zm0 0" style="fill-rule:nonzero;fill:#2a9bc9;fill-opacity:1;stroke-width:.79701;stroke-linecap:butt;stroke-linejoin:miter;stroke:#475762;stroke-opacity:1;stroke-miterlimit:10" transform="matrix(1 0 0 -1 52.166 54.664)"/><path d="M85.398 95.945a3.24 3.24 0 0 0-3.242-3.242 3.24 3.24 0 0 0-3.238 3.242 3.24 3.24 0 0 0 6.48 0m0 0" style="stroke:none;fill-rule:nonzero;fill:#2a9bc9;fill-opacity:1"/><g clip-path="url(#e)"><path d="M33.232-41.281a3.24 3.24 0 0 1-3.242 3.242 3.24 3.24 0 0 1-3.238-3.242 3.24 3.24 0 0 1 6.48 0Zm0 0" style="fill:none;stroke-width:.79701;stroke-linecap:butt;stroke-linejoin:miter;stroke:#475762;stroke-opacity:1;stroke-miterlimit:10" transform="matrix(1 0 0 -1 52.166 54.664)"/></g><g clip-path="url(#f)"><path d="m192.76 0-25.512 44.187h-51.027L90.709 0l25.512-44.188h51.027L192.76 0" style="fill:none;stroke-width:1.19553;stroke-linecap:butt;stroke-linejoin:miter;stroke:#3f464d;stroke-opacity:1;stroke-miterlimit:10" transform="matrix(1 0 0 -1 52.166 54.664)"/></g><path d="m141.732 0 24.551 14.172M141.732 0l-24.546 14.172M141.732 0v-28.348" style="fill:none;stroke-width:1.19553;stroke-linecap:butt;stroke-linejoin:miter;stroke:#3f464d;stroke-opacity:1;stroke-miterlimit:10" transform="matrix(1 0 0 -1 52.166 54.664)"/><g clip-path="url(#g)"><path d="m167.248-44.188-.965 58.36-50.062 30.015" style="fill:none;stroke-width:1.19553;stroke-linecap:butt;stroke-linejoin:miter;stroke:#3f464d;stroke-opacity:1;stroke-miterlimit:10" transform="matrix(1 0 0 -1 52.166 54.664)"/><path d="m167.248 44.187-50.062-30.015-.965-58.36" style="fill:none;stroke-width:1.19553;stroke-linecap:butt;stroke-linejoin:miter;stroke:#3f464d;stroke-opacity:1;stroke-miterlimit:10" transform="matrix(1 0 0 -1 52.166 54.664)"/></g><path d="m90.709 0 51.023-28.348L192.76 0" style="fill:none;stroke-width:1.19553;stroke-linecap:butt;stroke-linejoin:miter;stroke:#3f464d;stroke-opacity:1;stroke-miterlimit:10" transform="matrix(1 0 0 -1 52.166 54.664)"/><path d="M195.998 0a3.24 3.24 0 1 1-6.48 0 3.24 3.24 0 1 1 6.48 0Zm-25.512 44.187a3.24 3.24 0 1 1-6.481.003 3.24 3.24 0 0 1 6.481-.003Zm-51.023 0a3.24 3.24 0 1 1-6.48.003 3.24 3.24 0 0 1 6.48-.003ZM93.951 0a3.24 3.24 0 1 1-6.48 0 3.24 3.24 0 1 1 6.48 0Zm0 0" style="fill-rule:nonzero;fill:#2a9bc9;fill-opacity:1;stroke-width:.79701;stroke-linecap:butt;stroke-linejoin:miter;stroke:#475762;stroke-opacity:1;stroke-miterlimit:10" transform="matrix(1 0 0 -1 52.166 54.664)"/><path d="M171.629 98.852c0-1.79-1.45-3.239-3.242-3.239a3.24 3.24 0 1 0 3.242 3.238m0 0" style="stroke:none;fill-rule:nonzero;fill:#2a9bc9;fill-opacity:1"/><g clip-path="url(#h)"><path d="M119.463-44.188c0 1.79-1.45 3.239-3.242 3.239a3.24 3.24 0 1 1 3.242-3.238Zm0 0" style="fill:none;stroke-width:.79701;stroke-linecap:butt;stroke-linejoin:miter;stroke:#475762;stroke-opacity:1;stroke-miterlimit:10" transform="matrix(1 0 0 -1 52.166 54.664)"/></g><path d="M222.652 98.852a3.237 3.237 0 0 0-3.238-3.239 3.24 3.24 0 0 0-3.242 3.239 3.24 3.24 0 1 0 6.48 0m0 0" style="stroke:none;fill-rule:nonzero;fill:#2a9bc9;fill-opacity:1"/><g clip-path="url(#i)"><path d="M170.486-44.188a3.237 3.237 0 0 1-3.238 3.239 3.24 3.24 0 0 1-3.242-3.239 3.24 3.24 0 1 1 6.48 0Zm0 0" style="fill:none;stroke-width:.79701;stroke-linecap:butt;stroke-linejoin:miter;stroke:#475762;stroke-opacity:1;stroke-miterlimit:10" transform="matrix(1 0 0 -1 52.166 54.664)"/></g><path d="M169.525 14.172a3.242 3.242 0 1 1-6.484 0 3.24 3.24 0 0 1 3.242-3.238 3.24 3.24 0 0 1 3.242 3.238Zm-49.097 0a3.242 3.242 0 1 1-6.485 0 3.24 3.24 0 0 1 3.243-3.238 3.24 3.24 0 0 1 3.242 3.238Zm24.547-42.52a3.24 3.24 0 1 1-6.48.003 3.24 3.24 0 0 1 6.48-.003Zm0 28.348a3.24 3.24 0 1 1-6.48 0 3.24 3.24 0 1 1 6.48 0Zm0 0" style="fill-rule:nonzero;fill:#2a9bc9;fill-opacity:1;stroke-width:.79701;stroke-linecap:butt;stroke-linejoin:miter;stroke:#475762;stroke-opacity:1;stroke-miterlimit:10" transform="matrix(1 0 0 -1 52.166 54.664)"/><g clip-path="url(#j)"><path d="m333.717 8.86-17.45 30.226-32.8 11.937-32.797-11.937-17.453-30.227 6.062-34.37 26.739-22.438h34.902l26.738 22.437 6.059 34.371" style="fill:none;stroke-width:1.19553;stroke-linecap:butt;stroke-linejoin:miter;stroke:#3f464d;stroke-opacity:1;stroke-miterlimit:10" transform="matrix(1 0 0 -1 52.166 54.664)"/></g><path d="M333.717 8.86h-100.5" style="fill:none;stroke-width:1.19553;stroke-linecap:butt;stroke-linejoin:miter;stroke:#3f464d;stroke-opacity:1;stroke-miterlimit:10" transform="matrix(1 0 0 -1 52.166 54.664)"/><g clip-path="url(#k)"><path d="m316.268 39.086-50.25-87.035" style="fill:none;stroke-width:1.19553;stroke-linecap:butt;stroke-linejoin:miter;stroke:#3f464d;stroke-opacity:1;stroke-miterlimit:10" transform="matrix(1 0 0 -1 52.166 54.664)"/></g><g clip-path="url(#l)"><path d="m250.67 39.086 50.25-87.035" style="fill:none;stroke-width:1.19553;stroke-linecap:butt;stroke-linejoin:miter;stroke:#3f464d;stroke-opacity:1;stroke-miterlimit:10" transform="matrix(1 0 0 -1 52.166 54.664)"/></g><path d="M283.467 0v51.023m0-51.023-44.188-25.512" style="fill:none;stroke-width:1.19553;stroke-linecap:butt;stroke-linejoin:miter;stroke:#3f464d;stroke-opacity:1;stroke-miterlimit:10" transform="matrix(1 0 0 -1 52.166 54.664)"/><g clip-path="url(#m)"><path d="m283.467 0 44.191-25.512" style="fill:none;stroke-width:1.19553;stroke-linecap:butt;stroke-linejoin:miter;stroke:#3f464d;stroke-opacity:1;stroke-miterlimit:10" transform="matrix(1 0 0 -1 52.166 54.664)"/></g><g clip-path="url(#n)"><path d="M389.125 45.805a3.24 3.24 0 1 0-6.48-.003 3.24 3.24 0 0 0 6.48.003m0 0" style="stroke:none;fill-rule:nonzero;fill:#2a9bc9;fill-opacity:1"/></g><g clip-path="url(#o)"><path d="M336.959 8.86a3.24 3.24 0 1 1-6.48.003 3.24 3.24 0 0 1 6.48-.004Zm0 0" style="fill:none;stroke-width:.79701;stroke-linecap:butt;stroke-linejoin:miter;stroke:#475762;stroke-opacity:1;stroke-miterlimit:10" transform="matrix(1 0 0 -1 52.166 54.664)"/></g><path d="M319.506 39.086a3.24 3.24 0 1 1-6.482.003 3.24 3.24 0 0 1 6.482-.003Zm-32.797 11.937a3.24 3.24 0 1 1-6.48.003 3.24 3.24 0 0 1 6.48-.003Zm-32.797-11.937a3.244 3.244 0 0 1-3.242 3.242 3.24 3.24 0 1 1 0-6.48 3.24 3.24 0 0 1 3.242 3.238ZM236.459 8.86a3.24 3.24 0 1 1-6.48.003 3.24 3.24 0 0 1 6.48-.004Zm6.063-34.372a3.244 3.244 0 0 1-3.243 3.242 3.244 3.244 0 0 1-3.242-3.242 3.244 3.244 0 0 1 3.242-3.242 3.244 3.244 0 0 1 3.243 3.242Zm0 0" style="fill-rule:nonzero;fill:#2a9bc9;fill-opacity:1;stroke-width:.79701;stroke-linecap:butt;stroke-linejoin:miter;stroke:#475762;stroke-opacity:1;stroke-miterlimit:10" transform="matrix(1 0 0 -1 52.166 54.664)"/><path d="M321.422 102.613a3.24 3.24 0 0 0-3.238-3.242 3.24 3.24 0 1 0 3.238 3.242m0 0" style="stroke:none;fill-rule:nonzero;fill:#2a9bc9;fill-opacity:1"/><g clip-path="url(#p)"><path d="M269.256-47.95a3.24 3.24 0 0 1-3.238 3.243 3.24 3.24 0 1 1 3.238-3.242Zm0 0" style="fill:none;stroke-width:.79701;stroke-linecap:butt;stroke-linejoin:miter;stroke:#475762;stroke-opacity:1;stroke-miterlimit:10" transform="matrix(1 0 0 -1 52.166 54.664)"/></g><path d="M356.328 102.613a3.242 3.242 0 1 0-6.484 0 3.24 3.24 0 0 0 3.242 3.239 3.24 3.24 0 0 0 3.242-3.239m0 0" style="stroke:none;fill-rule:nonzero;fill:#2a9bc9;fill-opacity:1"/><g clip-path="url(#q)"><path d="M304.162-47.95a3.242 3.242 0 1 1-6.484 0 3.24 3.24 0 0 1 3.242-3.238 3.24 3.24 0 0 1 3.242 3.239Zm0 0" style="fill:none;stroke-width:.79701;stroke-linecap:butt;stroke-linejoin:miter;stroke:#475762;stroke-opacity:1;stroke-miterlimit:10" transform="matrix(1 0 0 -1 52.166 54.664)"/></g><path d="M383.063 80.176a3.24 3.24 0 1 0-6.481 0 3.24 3.24 0 1 0 6.48 0m0 0" style="stroke:none;fill-rule:nonzero;fill:#2a9bc9;fill-opacity:1"/><g clip-path="url(#r)"><path d="M330.897-25.512a3.24 3.24 0 1 1-6.481 0 3.24 3.24 0 1 1 6.48 0Zm0 0" style="fill:none;stroke-width:.79701;stroke-linecap:butt;stroke-linejoin:miter;stroke:#475762;stroke-opacity:1;stroke-miterlimit:10" transform="matrix(1 0 0 -1 52.166 54.664)"/></g><g clip-path="url(#s)"><path d="M389.125 45.805a3.24 3.24 0 1 0-6.48-.003 3.24 3.24 0 0 0 6.48.003m0 0" style="stroke:none;fill-rule:nonzero;fill:#2a9bc9;fill-opacity:1"/></g><g clip-path="url(#t)"><path d="M336.959 8.86a3.24 3.24 0 1 1-6.48.003 3.24 3.24 0 0 1 6.48-.004Zm0 0" style="fill:none;stroke-width:.79701;stroke-linecap:butt;stroke-linejoin:miter;stroke:#475762;stroke-opacity:1;stroke-miterlimit:10" transform="matrix(1 0 0 -1 52.166 54.664)"/></g><path d="M286.709 0a3.24 3.24 0 1 1-6.48 0 3.24 3.24 0 1 1 6.48 0Zm0 0" style="fill-rule:nonzero;fill:#2a9bc9;fill-opacity:1;stroke-width:.79701;stroke-linecap:butt;stroke-linejoin:miter;stroke:#475762;stroke-opacity:1;stroke-miterlimit:10" transform="matrix(1 0 0 -1 52.166 54.664)"/></svg>