<svg xmlns="http://www.w3.org/2000/svg" xmlns:xlink="http://www.w3.org/1999/xlink" width="663.16" height="133.24" viewBox="0 0 497.37 99.93"><defs><symbol id="a" overflow="visible"><path d="m7-4.672-.203-2.406H.375L.156-4.5h.61c.156-1.766.125-1.937 1.64-1.937.172 0 .438 0 .531.015.22.047.032-.016.032.219v5.25c0 .344.187.312-.86.312h-.578v.657c.578-.047 1.594-.047 2.063-.047.453 0 1.484 0 2.062.047v-.657h-.578c-1.047 0-.875.032-.875-.312v-5.25c0-.203-.172-.172.016-.219.11-.016.375-.016.562-.016 1.516 0 1.485.172 1.625 1.938h.61Zm0 0" style="stroke:none"/></symbol><symbol id="b" overflow="visible"><path d="M4.313-1.344c0-.11-.25-.297-.313-.297-.078 0-.281.235-.297.313-.36 1.031-1.078.86-1.172.86-.5 0-.781-.25-1-.626-.312-.468-.25-1.015-.25-1.203h2.61c.218 0 .422-.172.422-.375 0-.984-.72-2.125-1.954-2.125-1.156 0-2.265 1.203-2.265 2.438C.094-1.016 1.328.109 2.469.109c1.219 0 1.844-1.265 1.844-1.453m-.829-1.5H1.297c.047-1.312.719-1.406 1.062-1.406 1.016 0 .938 1.188.938 1.406Zm0 0" style="stroke:none"/></symbol><symbol id="c" overflow="visible"><path d="M3.484-1.39v-.75h-.609v.718c0 .75-.11.953-.484.953-.672 0-.5-.734-.5-.906v-2.61h1.422v-.64H1.89v-1.828h-.594c-.016.983-.124 1.875-1.28 1.922v.547h.843v2.593C.86-.17 1.97.11 2.33.11c.702 0 1.155-.859 1.155-1.5m0 0" style="stroke:none"/></symbol><symbol id="d" overflow="visible"><path d="M3.797-3.953c0-.328-.485-.781-.906-.781-.735 0-1.266.843-1.407 1.265h.344V-4.75l-1.734.14v.626c.89 0 .781-.094.781.39v2.672c0 .453.078.281-.781.281v.657l1.328-.047c.39 0 .86 0 1.422.047v-.657h-.375c-.735 0-.578.063-.578-.296V-2.47c0-.984.25-1.719 1-1.719.062 0-.047-.046-.016-.046L3-4.5c-.031 0-.406.297-.406.547 0 .281.39.594.61.594.171 0 .593-.282.593-.594m0 0" style="stroke:none"/></symbol><symbol id="e" overflow="visible"><path d="M4.984-1.047v-.734h-.593v.734c0 .578-.079.469-.188.469C3.875-.578 4-.86 4-.906v-2c0-.406-.047-.922-.406-1.297-.39-.375-1-.594-1.485-.594-.812 0-1.687.64-1.687 1.297 0 .297.39.625.64.625.282 0 .626-.36.626-.61 0-.124-.22-.624-.344-.624.062-.079.437-.141.75-.141.484 0 .875.234.875 1.125v.203c-.328.016-1.031.047-1.656.344C.563-2.234.14-1.547.14-1.11.14-.297 1.28.109 1.906.109c.672 0 1.297-.562 1.485-1.03h-.344c.031.405.484.984.953.984.203 0 .984-.297.984-1.11M2.97-1.563c0 .954-.531 1.126-.985 1.126-.484 0-.734-.188-.734-.672 0-.563.25-1.22 1.719-1.266Zm0 0" style="stroke:none"/></symbol><symbol id="f" overflow="visible"><path d="M5.5-.156v-.485c-.687 0-.766.172-.781-.125v-1.906c0-.86-.047-1.281-.36-1.64-.125-.172-.578-.422-1.156-.422-.844 0-1.453.765-1.547.953h.266v-3.485L.14-7.125v.625c.875 0 .78-.094.78.406v5.172c0 .453.063.281-.78.281v.657l1.312-.047 1.281.047v-.657c-.843 0-.78.172-.78-.28V-2.75c0-1.031.546-1.437 1.171-1.437.64 0 .563.375.563.953v2.312c0 .453.078.281-.782.281v.657L4.22-.031 5.5.016Zm0 0" style="stroke:none"/></symbol><symbol id="g" overflow="visible"><path d="M5.422-.156v-.485c-.86 0-.781.11-.781-.39v-6.235l-1.782.141v.625c.875 0 .782-.094.782.406v2.14l.297-.108c-.282-.36-.844-.672-1.376-.672-1.171 0-2.406 1.14-2.406 2.437C.156-1.03 1.313.11 2.453.11c.64 0 1.203-.39 1.453-.703l-.297-.11v.829l1.813-.14ZM3.609-1.328c0 .172.047.078-.062.234-.297.485-.61.657-1.047.657-.453 0-.687-.204-.922-.594-.266-.407-.25-.86-.25-1.266 0-.36-.016-.86.266-1.297.203-.312.468-.594 1.015-.594.344 0 .625.094.938.547.11.172.062.079.062.266Zm0 0" style="stroke:none"/></symbol><symbol id="h" overflow="visible"><path d="M4.86-2.297c0-1.265-1.157-2.5-2.36-2.5-1.25 0-2.406 1.266-2.406 2.5C.094-1 1.313.11 2.484.11 3.688.11 4.86-1.03 4.86-2.297m-1.173-.078c0 .36.047.781-.171 1.219l-.047.125c-.219.437-.485.562-.969.562-.437 0-.75-.156-1.031-.625-.25-.437-.188-.922-.188-1.281 0-.39-.062-.812.188-1.25.265-.469.61-.625 1.015-.625.438 0 .735.172 1 .594.25.437.204.906.204 1.281m0 0" style="stroke:none"/></symbol><symbol id="i" overflow="visible"><path d="M5.5-.156v-.485c-.687 0-.766.172-.781-.125v-1.906c0-.86-.047-1.281-.36-1.64-.125-.172-.578-.422-1.156-.422-.734 0-1.375.593-1.656 1.218h.344V-4.75l-1.75.14v.626c.875 0 .78-.094.78.39v2.672c0 .453.063.281-.78.281v.657l1.312-.047 1.281.047v-.657c-.843 0-.78.172-.78-.28V-2.75c0-1.031.546-1.437 1.171-1.437.64 0 .563.375.563.953v2.312c0 .453.078.281-.782.281v.657L4.22-.031 5.5.016Zm0 0" style="stroke:none"/></symbol><symbol id="j" overflow="visible"><path d="M7.313-.156v-.485H6.89c-.766 0-.61.063-.61-.296v-5.25c0-.36-.156-.313.61-.313h.422v-.656c-.532.047-1.266.047-1.641.047s-1.125 0-1.656-.047v.656h.422c.765 0 .609-.047.609.313v2.156h-2.64v-2.157c0-.359-.141-.312.624-.312h.406v-.656c-.515.047-1.25.047-1.64.047-.375 0-1.125 0-1.64-.047v.656h.406c.765 0 .609-.047.609.313v5.25c0 .359.156.296-.61.296H.156v.657c.516-.047 1.266-.047 1.64-.047.376 0 1.126 0 1.642.047v-.657H3.03c-.765 0-.625.063-.625-.296v-2.454h2.64v2.454c0 .359.157.296-.609.296h-.421v.657c.53-.047 1.265-.047 1.64-.047.39 0 1.125 0 1.657.047Zm0 0" style="stroke:none"/></symbol><symbol id="k" overflow="visible"><path d="M5.313-.156v-.485c-.704 0-.766.032-1-.25L3.077-2.5c.203-.266.578-.766.813-1.016.312-.359.609-.468 1.25-.468v-.657c-.438.032-.735.047-1 .047-.297 0-.828-.015-1.125-.047V-4c.39.031.28 0 .28.156 0 .172-.046.172-.093.235l-.484.625-.672-.86c-.078-.094-.031 0-.031-.047 0-.156-.016-.093.343-.093v-.657l-1.25.047c-.203 0-.671-.015-1.125-.047v.657c.891 0 .766-.047 1.235.562l.89 1.172c-.375.469-.375.5-.843 1.063C.78-.61.328-.641-.062-.641v.657C.375-.016.688-.031.952-.031l1.11.047v-.641c-.391-.047-.282 0-.282-.156 0-.219.235-.438.719-1l.625.843c.078.11.172.157.172.22 0 .093.078.077-.36.077v.657l1.25-.047c.266 0 .657.015 1.125.047Zm0 0" style="stroke:none"/></symbol><symbol id="m" overflow="visible"><path d="M3.469 2.234c0-.03-.047-.171-.219-.343C2 .64 1.734-1.125 1.734-2.656c0-1.735.329-3.36 1.563-4.594.125-.125.172-.25.172-.281 0-.078-.203-.282-.266-.282-.11 0-1.172.86-1.765 2.125C.922-4.593.813-3.483.813-2.655c0 .781.109 1.984.656 3.11C2.062 1.687 3.094 2.5 3.203 2.5c.063 0 .266-.203.266-.266m0 0" style="stroke:none"/></symbol><symbol id="n" overflow="visible"><path d="M6.797-2.484c0-.094-.172-.344-.297-.344-.11 0-.297.234-.297.328-.078 1.438-.969 2.078-2.062 2.078-.61 0-2.391-.172-2.391-3.14 0-2.985 1.781-3.157 2.39-3.157 1.079 0 1.798.75 1.985 2.203.031.141.203.329.344.329.156 0 .328-.188.328-.391v-2.375c0-.172-.172-.406-.281-.406a.43.43 0 0 0-.282.172l-.406.593c-.219-.218-.844-.765-1.797-.765C2.156-7.36.375-5.61.375-3.562.375-1.5 2.172.217 4.031.217c1.625 0 2.766-1.546 2.766-2.702m0 0" style="stroke:none"/></symbol><symbol id="o" overflow="visible"><path d="M5.5-.156v-.485c-.86 0-.781.11-.781-.39V-4.75l-1.813.14v.626c.875 0 .781-.094.781.39v1.781c0 .86-.296 1.376-1.03 1.376-.829 0-.704-.297-.704-.813v-3.5l-1.812.14v.626c.953 0 .78-.125.78.75v1.5c0 .78.173 1.843 1.688 1.843.563 0 1.172-.437 1.454-1.062h-.344V.125L5.5-.015Zm0 0" style="stroke:none"/></symbol><symbol id="p" overflow="visible"><path d="M5.36-2.312c0-1.266-1.141-2.422-2.282-2.422-.781 0-1.328.515-1.5.703l.313.11v-3.345l-1.797.141v.625c.89 0 .781-.094.781.406V0h.516l.28-.469c.016.031.563.578 1.298.578 1.187 0 2.39-1.14 2.39-2.421m-1.173-.016c0 .375.032.86-.265 1.297-.203.312-.453.593-.985.593C2.485-.437 2.25-.624 2-1c-.14-.203-.094-.11-.094-.297v-2.047c0-.187-.047-.094.063-.25.39-.562.828-.594 1.062-.594.453 0 .672.204.922.594.25.406.235.86.235 1.266m0 0" style="stroke:none"/></symbol><symbol id="r" overflow="visible"><path d="M3.047-2.656c0-.766-.11-1.985-.656-3.11C1.797-6.984.766-7.812.67-7.812c-.062 0-.28.218-.28.28 0 .032.046.157.234.329.984 1 1.5 2.469 1.5 4.547 0 1.703-.328 3.344-1.562 4.594a.6.6 0 0 0-.172.296c0 .063.218.266.28.266.095 0 1.157-.844 1.75-2.11.517-1.093.626-2.202.626-3.046m0 0" style="stroke:none"/></symbol><symbol id="s" overflow="visible"><path d="M7.36-3.531c0-2.047-1.673-3.828-3.485-3.828-1.797 0-3.5 1.765-3.5 3.828 0 2.031 1.719 3.75 3.5 3.75 1.813 0 3.484-1.75 3.484-3.75m-1.376-.14c0 2.64-1.187 3.296-2.109 3.296-.953 0-2.125-.703-2.125-3.297s1.297-3.11 2.125-3.11c.86 0 2.11.548 2.11 3.11m0 0" style="stroke:none"/></symbol><symbol id="t" overflow="visible"><path d="M4.313-1.344c0-.11-.282-.265-.313-.265-.078 0-.281.203-.297.265-.297.922-.765.875-1.125.875-.531 0-1.25-.265-1.25-1.86 0-1.624.656-1.89 1.188-1.89.093 0 .578-.031.687.063-.031.015-.265.484-.265.61 0 .25.359.608.624.608.266 0 .641-.328.641-.624 0-.672-.937-1.235-1.703-1.235-1.25 0-2.344 1.25-2.344 2.484C.156-1.03 1.328.11 2.484.11c1.329 0 1.829-1.359 1.829-1.453m0 0" style="stroke:none"/></symbol><symbol id="u" overflow="visible"><path d="M7.219-3.516C7.219-5.406 5.703-7.14 4-7.14H.172v.641h.422c.765 0 .61-.047.61.313v5.25c0 .359.155.296-.61.296H.172V0H4c1.672 0 3.219-1.64 3.219-3.516m-1.344 0c0 1.11-.14 1.594-.5 2.079-.203.265-.64.796-1.64.796H2.718c-.469 0-.313.11-.313-.234v-5.39c0-.329-.156-.235.313-.235h1c.625 0 1.172.172 1.687.875.422.594.469 1.344.469 2.11m0 0" style="stroke:none"/></symbol><symbol id="G" overflow="visible"><path d="M3.484-.156v-.485h-.421c-.797 0-.657.063-.657-.296v-5.25c0-.36-.14-.313.656-.313h.422v-.656c-.515.047-1.296.047-1.687.047-.375 0-1.172 0-1.703-.047v.656H.53c.797 0 .64-.047.64.313v5.25c0 .359.157.296-.64.296H.094v.657c.531-.047 1.328-.047 1.703-.047.39 0 1.172 0 1.687.047Zm0 0" style="stroke:none"/></symbol><symbol id="H" overflow="visible"><path d="M3.766-1.437c0-.532-.36-.938-.47-1.063-.343-.328-.843-.453-1.265-.531-.562-.11-1.047-.063-1.047-.64 0-.36.079-.61.938-.61 1.094 0 .969.75.984 1.047.016.093.422.203.422.203l-.125.047c.14 0 .313-.203.313-.391v-1.016c0-.171-.172-.406-.282-.406a.6.6 0 0 0-.328.172c-.031.047-.14.125-.062.063-.235-.188-.766-.235-.922-.235-1.219 0-1.766.844-1.766 1.39 0 .36.203.75.469.97.328.25.734.359 1.453.5.219.046.86.046.86.765 0 .5-.172.734-.954.734-.843 0-1.03-.406-1.218-1.25C.734-1.812.563-2.03.453-2.03c-.125 0-.297.25-.297.422v1.312c0 .172.172.406.282.406.046 0 .187-.062.375-.25.015-.015.015-.03.078-.093.312.28.89.343 1.093.343 1.141 0 1.782-.828 1.782-1.546m0 0" style="stroke:none"/></symbol><clipPath id="l"><path d="M166 89h22v10.93h-22Zm0 0"/></clipPath><clipPath id="q"><path d="M188 89h8v10.93h-8Zm0 0"/></clipPath><clipPath id="v"><path d="M488 18h9.371v41H488Zm0 0"/></clipPath><clipPath id="w"><path d="M482 12h15.371v52H482Zm0 0"/></clipPath><clipPath id="x"><path d="M467 28h30.371v37H467Zm0 0"/></clipPath><clipPath id="y"><path d="M461 22h36.371v49H461Zm0 0"/></clipPath><clipPath id="z"><path d="M463 58h34.371v19H463Zm0 0"/></clipPath><clipPath id="A"><path d="M457 52h40.371v30H457Zm0 0"/></clipPath><clipPath id="B"><path d="M467 0h30.371v29H467Zm0 0"/></clipPath><clipPath id="C"><path d="M461 0h36.371v35H461Zm0 0"/></clipPath><clipPath id="D"><path d="M457 0h40.371v25H457Zm0 0"/></clipPath><clipPath id="E"><path d="M457 42h40.371v40H457Zm0 0"/></clipPath><clipPath id="F"><path d="M476 12h21.371v42H476Zm0 0"/></clipPath></defs><path d="M-39.67-7.363 0 59.527-2.85 7.365Zm0 0" style="fill-rule:nonzero;fill:#2f717b;fill-opacity:.6;stroke-width:.3985;stroke-linecap:butt;stroke-linejoin:miter;stroke:#000;stroke-opacity:.6;stroke-miterlimit:10" transform="matrix(1 0 0 -1 39.87 66.602)"/><path d="m42.52 0-82.19-7.363L-2.85 7.364Zm0 0" style="fill-rule:nonzero;fill:#2f7b6c;fill-opacity:.6;stroke-width:.3985;stroke-linecap:butt;stroke-linejoin:miter;stroke:#000;stroke-opacity:.6;stroke-miterlimit:10" transform="matrix(1 0 0 -1 39.87 66.602)"/><path d="M.001 59.528 42.521 0-2.85 7.364Zm0 0" style="fill-rule:nonzero;fill:#b95546;fill-opacity:.6;stroke-width:.3985;stroke-linecap:butt;stroke-linejoin:miter;stroke:#000;stroke-opacity:.6;stroke-miterlimit:10" transform="matrix(1 0 0 -1 39.87 66.602)"/><use xlink:href="#a" x="13.13" y="98.351" style="fill:#000;fill-opacity:1"/><g style="fill:#000;fill-opacity:1"><use xlink:href="#b" x="19.506" y="98.351"/><use xlink:href="#c" x="23.929" y="98.351"/><use xlink:href="#d" x="27.805" y="98.351"/><use xlink:href="#e" x="31.71" y="98.351"/><use xlink:href="#f" x="36.692" y="98.351"/><use xlink:href="#b" x="42.231" y="98.351"/><use xlink:href="#g" x="46.654" y="98.351"/><use xlink:href="#d" x="52.193" y="98.351"/><use xlink:href="#h" x="56.099" y="98.351"/><use xlink:href="#i" x="61.08" y="98.351"/></g><path d="M144.001 10.489H92.978L82.775-4.82m10.203 15.309v51.023" style="fill:none;stroke-width:.3985;stroke-linecap:butt;stroke-linejoin:miter;stroke:#000;stroke-opacity:1;stroke-dasharray:.3985,1.99255;stroke-miterlimit:10" transform="matrix(1 0 0 -1 39.87 66.602)"/><path d="m144.001 61.512-10.203-15.308H82.775l10.203 15.308Zm0 0" style="fill-rule:nonzero;fill:#b95546;fill-opacity:.6;stroke-width:.3985;stroke-linecap:butt;stroke-linejoin:miter;stroke:#000;stroke-opacity:.6;stroke-miterlimit:10" transform="matrix(1 0 0 -1 39.87 66.602)"/><path d="M133.798 46.204V-4.82H82.775v51.024Zm0 0" style="fill-rule:nonzero;fill:#2f717b;fill-opacity:.6;stroke-width:.3985;stroke-linecap:butt;stroke-linejoin:miter;stroke:#000;stroke-opacity:.6;stroke-miterlimit:10" transform="matrix(1 0 0 -1 39.87 66.602)"/><path d="M144.001 10.489v51.023l-10.203-15.308V-4.82Zm0 0" style="fill-rule:nonzero;fill:#2f7b6c;fill-opacity:.6;stroke-width:.3985;stroke-linecap:butt;stroke-linejoin:miter;stroke:#000;stroke-opacity:.6;stroke-miterlimit:10" transform="matrix(1 0 0 -1 39.87 66.602)"/><g style="fill:#000;fill-opacity:1"><use xlink:href="#j" x="110.203" y="97.44"/><use xlink:href="#b" x="117.675" y="97.44"/><use xlink:href="#k" x="122.098" y="97.44"/><use xlink:href="#e" x="127.359" y="97.44"/><use xlink:href="#f" x="132.34" y="97.44"/><use xlink:href="#b" x="137.879" y="97.44"/><use xlink:href="#g" x="142.302" y="97.44"/><use xlink:href="#d" x="147.842" y="97.44"/><use xlink:href="#h" x="151.747" y="97.44"/><use xlink:href="#i" x="156.728" y="97.44"/></g><g clip-path="url(#l)" style="fill:#000;fill-opacity:1"><use xlink:href="#m" x="165.585" y="97.44"/><use xlink:href="#n" x="169.461" y="97.44"/><use xlink:href="#o" x="176.654" y="97.44"/><use xlink:href="#p" x="182.193" y="97.44"/></g><g clip-path="url(#q)" style="fill:#000;fill-opacity:1"><use xlink:href="#b" x="188.011" y="97.44"/><use xlink:href="#r" x="192.434" y="97.44"/></g><path d="m248.318 27.211-27.215 10.207-40.817-10.207" style="fill:none;stroke-width:.3985;stroke-linecap:butt;stroke-linejoin:miter;stroke:#000;stroke-opacity:1;stroke-dasharray:.3985,1.99255;stroke-miterlimit:10" transform="matrix(1 0 0 -1 39.87 66.602)"/><path d="m214.302 61.23 6.8-23.812-6.8-44.222" style="fill:none;stroke-width:.3985;stroke-linecap:butt;stroke-linejoin:miter;stroke:#000;stroke-opacity:1;stroke-dasharray:.3985,1.99255;stroke-miterlimit:10" transform="matrix(1 0 0 -1 39.87 66.602)"/><path d="m248.318 27.211-40.82-10.203 6.804 44.223Zm0 0" style="fill-rule:nonzero;fill:#787878;fill-opacity:.5;stroke-width:.3985;stroke-linecap:butt;stroke-linejoin:miter;stroke:#000;stroke-opacity:.5;stroke-miterlimit:10" transform="matrix(1 0 0 -1 39.87 66.602)"/><path d="m248.318 27.211-40.82-10.203 6.804-23.812Zm0 0" style="fill-rule:nonzero;fill:#2f717b;fill-opacity:.5;stroke-width:.3985;stroke-linecap:butt;stroke-linejoin:miter;stroke:#000;stroke-opacity:.5;stroke-miterlimit:10" transform="matrix(1 0 0 -1 39.87 66.602)"/><path d="m180.286 27.211 27.211-10.203 6.805 44.223Zm0 0" style="fill-rule:nonzero;fill:#2f7b6c;fill-opacity:.5;stroke-width:.3985;stroke-linecap:butt;stroke-linejoin:miter;stroke:#000;stroke-opacity:.5;stroke-miterlimit:10" transform="matrix(1 0 0 -1 39.87 66.602)"/><path d="m180.286 27.211 27.211-10.203 6.805-23.812Zm0 0" style="fill-rule:nonzero;fill:#b95546;fill-opacity:.5;stroke-width:.3985;stroke-linecap:butt;stroke-linejoin:miter;stroke:#000;stroke-opacity:.5;stroke-miterlimit:10" transform="matrix(1 0 0 -1 39.87 66.602)"/><g style="fill:#000;fill-opacity:1"><use xlink:href="#s" x="229.826" y="98.351"/><use xlink:href="#t" x="237.577" y="98.351"/><use xlink:href="#c" x="242" y="98.351"/><use xlink:href="#e" x="245.876" y="98.351"/><use xlink:href="#f" x="250.857" y="98.351"/><use xlink:href="#b" x="256.396" y="98.351"/><use xlink:href="#g" x="260.82" y="98.351"/><use xlink:href="#d" x="266.359" y="98.351"/><use xlink:href="#h" x="270.264" y="98.351"/><use xlink:href="#i" x="275.245" y="98.351"/></g><path d="m319.325 64.13-3.68-7.356-20.98-14.54-9.285-1.624 15.238 13.531Zm0 0" style="fill-rule:nonzero;fill:#2f717b;fill-opacity:.6;stroke-width:.3985;stroke-linecap:butt;stroke-linejoin:miter;stroke:#000;stroke-opacity:.6;stroke-miterlimit:10" transform="matrix(1 0 0 -1 39.87 66.602)"/><path d="m285.38 40.61 9.285 1.625 5.742-23.52-5.742-16.164-9.285 13.531Zm0 0" style="fill-rule:nonzero;fill:#b95546;fill-opacity:.5;stroke-width:.3985;stroke-linecap:butt;stroke-linejoin:miter;stroke:#000;stroke-opacity:.5;stroke-miterlimit:10" transform="matrix(1 0 0 -1 39.87 66.602)"/><path d="M300.407 18.715h24.524l9.422-16.164-18.707-9.988-20.98 9.988Zm0 0" style="fill-rule:nonzero;fill:#2f7b6c;fill-opacity:.5;stroke-width:.3985;stroke-linecap:butt;stroke-linejoin:miter;stroke:#000;stroke-opacity:.5;stroke-miterlimit:10" transform="matrix(1 0 0 -1 39.87 66.602)"/><path d="m315.646 56.774 18.707-14.54-9.422-23.519h-24.524l-5.742 23.52Zm0 0" style="fill-rule:nonzero;fill:#787878;fill-opacity:.6;stroke-width:.3985;stroke-linecap:butt;stroke-linejoin:miter;stroke:#000;stroke-opacity:.6;stroke-miterlimit:10" transform="matrix(1 0 0 -1 39.87 66.602)"/><path d="m319.325 64.13 20.977-9.989 9.289-13.531-15.238 1.625-18.707 14.539Zm0 0" style="fill-rule:nonzero;fill:#b95546;fill-opacity:.6;stroke-width:.3985;stroke-linecap:butt;stroke-linejoin:miter;stroke:#000;stroke-opacity:.6;stroke-miterlimit:10" transform="matrix(1 0 0 -1 39.87 66.602)"/><path d="m334.353 42.235 15.238-1.625V16.082l-15.238-13.53-9.422 16.163Zm0 0" style="fill-rule:nonzero;fill:#2f717b;fill-opacity:.4;stroke-width:.3985;stroke-linecap:butt;stroke-linejoin:miter;stroke:#000;stroke-opacity:.4;stroke-miterlimit:10" transform="matrix(1 0 0 -1 39.87 66.602)"/><path d="m300.618 54.141 9.418-16.164h24.528l5.738 16.164m-30.266-16.164-9.418-23.52-15.238 1.625" style="fill:none;stroke-width:.3985;stroke-linecap:butt;stroke-linejoin:miter;stroke:#000;stroke-opacity:1;stroke-dasharray:.3985,1.99255;stroke-miterlimit:10" transform="matrix(1 0 0 -1 39.87 66.602)"/><path d="m315.646-7.437 3.68 7.355-18.708 14.54" style="fill:none;stroke-width:.3985;stroke-linecap:butt;stroke-linejoin:miter;stroke:#000;stroke-opacity:1;stroke-dasharray:.3985,1.99255;stroke-miterlimit:10" transform="matrix(1 0 0 -1 39.87 66.602)"/><path d="m319.325-.082 20.977 14.54 9.289 1.624m-9.289-1.625-5.738 23.52" style="fill:none;stroke-width:.3985;stroke-linecap:butt;stroke-linejoin:miter;stroke:#000;stroke-opacity:1;stroke-dasharray:.3985,1.99255;stroke-miterlimit:10" transform="matrix(1 0 0 -1 39.87 66.602)"/><g style="fill:#000;fill-opacity:1"><use xlink:href="#u" x="326.27" y="98.351"/><use xlink:href="#h" x="333.881" y="98.351"/></g><g style="fill:#000;fill-opacity:1"><use xlink:href="#g" x="339.142" y="98.351"/><use xlink:href="#b" x="344.681" y="98.351"/><use xlink:href="#t" x="349.104" y="98.351"/><use xlink:href="#e" x="353.528" y="98.351"/><use xlink:href="#f" x="358.509" y="98.351"/><use xlink:href="#b" x="364.048" y="98.351"/><use xlink:href="#g" x="368.472" y="98.351"/><use xlink:href="#d" x="374.011" y="98.351"/><use xlink:href="#h" x="377.916" y="98.351"/><use xlink:href="#i" x="382.897" y="98.351"/></g><g clip-path="url(#v)"><path d="m497.176 18.414-9.051 10.211 9.05 29.473Zm0 0" style="stroke:none;fill-rule:nonzero;fill:#787878;fill-opacity:.6"/></g><g clip-path="url(#w)"><path d="m457.306 48.188-9.051-10.211 9.05-29.473Zm0 0" style="fill:none;stroke-width:.3985;stroke-linecap:butt;stroke-linejoin:miter;stroke:#000;stroke-opacity:.6;stroke-miterlimit:10" transform="matrix(1 0 0 -1 39.87 66.602)"/></g><g clip-path="url(#x)"><path d="m467.059 64.406 21.066-35.781 9.05 29.473Zm0 0" style="stroke:none;fill-rule:nonzero;fill:#787878;fill-opacity:.5"/></g><g clip-path="url(#y)"><path d="m427.189 2.196 21.066 35.781 9.05-29.473Zm0 0" style="fill:none;stroke-width:.3985;stroke-linecap:butt;stroke-linejoin:miter;stroke:#000;stroke-opacity:.5;stroke-miterlimit:10" transform="matrix(1 0 0 -1 39.87 66.602)"/></g><g clip-path="url(#z)"><path d="m467.059 64.406-3.97 11.906 34.087-18.214Zm0 0" style="stroke:none;fill-rule:nonzero;fill:#b95546;fill-opacity:.5"/></g><g clip-path="url(#A)"><path d="m427.189 2.196-3.97-11.907 34.087 18.215Zm0 0" style="fill:none;stroke-width:.3985;stroke-linecap:butt;stroke-linejoin:miter;stroke:#000;stroke-opacity:.5;stroke-miterlimit:10" transform="matrix(1 0 0 -1 39.87 66.602)"/></g><path d="m427.189 2.196-3.97-11.907L393.1 8.505Zm0 0" style="fill-rule:nonzero;fill:#b95546;fill-opacity:.4;stroke-width:.3985;stroke-linecap:butt;stroke-linejoin:miter;stroke:#000;stroke-opacity:.4;stroke-miterlimit:10" transform="matrix(1 0 0 -1 39.87 66.602)"/><path d="M427.189 2.196 408.57 37.977 393.1 8.504Zm0 0L408.57 37.977h39.684Zm0 0" style="fill-rule:nonzero;fill:#2f7b6c;fill-opacity:.4;stroke-width:.3985;stroke-linecap:butt;stroke-linejoin:miter;stroke:#000;stroke-opacity:.4;stroke-miterlimit:10" transform="matrix(1 0 0 -1 39.87 66.602)"/><path d="m393.099 48.188 15.472-10.211L393.1 8.504Zm0 0 15.472-10.211 18.618 28.43Zm0 0" style="fill-rule:nonzero;fill:#2f717b;fill-opacity:.5;stroke-width:.3985;stroke-linecap:butt;stroke-linejoin:miter;stroke:#000;stroke-opacity:.5;stroke-miterlimit:10" transform="matrix(1 0 0 -1 39.87 66.602)"/><path d="M448.255 37.977h-39.684l18.618 28.43Zm0 0" style="fill-rule:nonzero;fill:#2f717b;fill-opacity:.4;stroke-width:.3985;stroke-linecap:butt;stroke-linejoin:miter;stroke:#000;stroke-opacity:.4;stroke-miterlimit:10" transform="matrix(1 0 0 -1 39.87 66.602)"/><g clip-path="url(#B)"><path d="m488.125 28.625 9.05-10.21L467.06.194Zm0 0" style="stroke:none;fill-rule:nonzero;fill:#2f7b6c;fill-opacity:.3"/></g><g clip-path="url(#C)"><path d="m448.255 37.977 9.05 10.21-30.116 18.22Zm0 0" style="fill:none;stroke-width:.3985;stroke-linecap:butt;stroke-linejoin:miter;stroke:#000;stroke-opacity:.3;stroke-miterlimit:10" transform="matrix(1 0 0 -1 39.87 66.602)"/></g><path d="m423.22 54.5-30.121-6.312 9.05-29.473-9.05-10.21" style="fill:none;stroke-width:.3985;stroke-linecap:butt;stroke-linejoin:miter;stroke:#000;stroke-opacity:1;stroke-dasharray:.3985,1.99255;stroke-miterlimit:10" transform="matrix(1 0 0 -1 39.87 66.602)"/><g clip-path="url(#D)"><path d="M457.306 48.188 423.22 54.5l3.969 11.907" style="fill:none;stroke-width:.3985;stroke-linecap:butt;stroke-linejoin:miter;stroke:#000;stroke-opacity:1;stroke-dasharray:.3985,1.99255;stroke-miterlimit:10" transform="matrix(1 0 0 -1 39.87 66.602)"/></g><g clip-path="url(#E)"><path d="m457.306 8.504-15.473 10.211L423.22-9.71" style="fill:none;stroke-width:.3985;stroke-linecap:butt;stroke-linejoin:miter;stroke:#000;stroke-opacity:1;stroke-dasharray:.3985,1.99255;stroke-miterlimit:10" transform="matrix(1 0 0 -1 39.87 66.602)"/></g><path d="M441.833 18.715H402.15L423.22-9.71" style="fill:none;stroke-width:.3985;stroke-linecap:butt;stroke-linejoin:miter;stroke:#000;stroke-opacity:1;stroke-dasharray:.3985,1.99255;stroke-miterlimit:10" transform="matrix(1 0 0 -1 39.87 66.602)"/><g clip-path="url(#F)"><path d="m441.833 18.715 15.473 29.473" style="fill:none;stroke-width:.3985;stroke-linecap:butt;stroke-linejoin:miter;stroke:#000;stroke-opacity:1;stroke-dasharray:.3985,1.99255;stroke-miterlimit:10" transform="matrix(1 0 0 -1 39.87 66.602)"/></g><path d="M441.833 18.715 423.22 54.5l-21.07-35.785" style="fill:none;stroke-width:.3985;stroke-linecap:butt;stroke-linejoin:miter;stroke:#000;stroke-opacity:1;stroke-dasharray:.3985,1.99255;stroke-miterlimit:10" transform="matrix(1 0 0 -1 39.87 66.602)"/><g style="fill:#000;fill-opacity:1"><use xlink:href="#G" x="439.154" y="98.351"/><use xlink:href="#t" x="442.75" y="98.351"/><use xlink:href="#h" x="447.174" y="98.351"/><use xlink:href="#H" x="452.155" y="98.351"/><use xlink:href="#e" x="456.08" y="98.351"/><use xlink:href="#f" x="461.062" y="98.351"/><use xlink:href="#b" x="466.601" y="98.351"/><use xlink:href="#g" x="471.024" y="98.351"/><use xlink:href="#d" x="476.564" y="98.351"/><use xlink:href="#h" x="480.469" y="98.351"/><use xlink:href="#i" x="485.45" y="98.351"/></g></svg>