<svg xmlns="http://www.w3.org/2000/svg" width="134pt" height="188pt" viewBox="0 0 134 188"><g class="graph"><path fill="#fff" stroke="transparent" d="M0 188V0h134v188z"/><g class="node" transform="translate(4 184)"><ellipse cx="27" cy="-162" fill="none" stroke="#000" rx="27" ry="18"/><text x="27" y="-158.3" font-family="Times New Roman,serif" font-size="14" text-anchor="middle">x</text></g><g class="node" transform="translate(4 184)"><ellipse cx="44" cy="-90" fill="none" stroke="#000" rx="27" ry="18"/><text x="44" y="-86.3" font-family="Times New Roman,serif" font-size="14" text-anchor="middle">y</text></g><g class="edge" transform="translate(4 184)"><path fill="none" stroke="#000" d="M31.12-144.05c2.63 10.84 6.04 24.87 8.68 35.77"/></g><g class="node" transform="translate(4 184)"><ellipse cx="71" cy="-18" fill="none" stroke="#000" rx="27" ry="18"/><text x="71" y="-14.3" font-family="Times New Roman,serif" font-size="14" text-anchor="middle">z</text></g><g class="edge" transform="translate(4 184)"><path fill="none" stroke="#000" d="M50.4-72.41c4.24 11 9.79 25.38 14.06 36.45"/></g><g class="node" transform="translate(4 184)"><ellipse cx="99" cy="-162" fill="none" stroke="#000" rx="27" ry="18"/><text x="99" y="-158.3" font-family="Times New Roman,serif" font-size="14" text-anchor="middle">w</text></g><g class="edge" transform="translate(4 184)"><path fill="none" stroke="#000" d="M87.07-145.81c-9.23 11.74-21.94 27.92-31.16 39.65"/></g><g class="edge" transform="translate(4 184)"><path fill="none" stroke="#000" d="M95.62-143.87c-5.38 27.29-15.84 80.35-21.23 107.68"/></g></g></svg>