<?xml version="1.0" encoding="UTF-8"?><svg xmlns="http://www.w3.org/2000/svg" xmlns:xlink="http://www.w3.org/1999/xlink" width="172pt" height="277pt" viewBox="0.00 0.00 172.00 277.00"><g id="graph0" class="graph" transform="scale(1 1) rotate(0) translate(4 273)"><polygon fill="white" stroke="transparent" points="-4,4 -4,-273 168,-273 168,4 -4,4"/><g id="node1" class="node"><title>x</title><ellipse fill="none" stroke="black" cx="27" cy="-164" rx="27" ry="18"/><text text-anchor="middle" x="27" y="-160.3" font-family="Times New Roman,serif" font-size="14.00">x</text></g><g id="node2" class="node"><title>y</title><ellipse fill="none" stroke="black" cx="82" cy="-91" rx="27" ry="18"/><text text-anchor="middle" x="82" y="-87.3" font-family="Times New Roman,serif" font-size="14.00">y</text></g><g id="edge1" class="edge"><title>x--y</title><path fill="none" stroke="black" d="M38.93,-147.59C48.16,-135.68 60.87,-119.28 70.09,-107.38"/></g><g id="node3" class="node"><title>z</title><ellipse fill="none" stroke="black" cx="109" cy="-18" rx="27" ry="18"/><text text-anchor="middle" x="109" y="-14.3" font-family="Times New Roman,serif" font-size="14.00">z</text></g><g id="edge2" class="edge"><title>y--z</title><path fill="none" stroke="black" d="M88.4,-73.17C92.7,-61.86 98.35,-47 102.65,-35.71"/></g><g id="node4" class="node"><title>v</title><ellipse fill="none" stroke="black" cx="82" cy="-251" rx="27" ry="18"/><text text-anchor="middle" x="82" y="-247.3" font-family="Times New Roman,serif" font-size="14.00">v</text></g><g id="edge3" class="edge"><title>v--x</title><path fill="none" stroke="black" d="M71.65,-234.01C61.82,-218.82 47.12,-196.09 37.3,-180.92"/></g><g id="edge4" class="edge"><title>v--y</title><path fill="none" stroke="black" d="M82,-232.79C82,-202.4 82,-139.57 82,-109.19"/></g><g id="node5" class="node"><title>w</title><ellipse fill="none" stroke="black" cx="137" cy="-164" rx="27" ry="18"/><text text-anchor="middle" x="137" y="-160.3" font-family="Times New Roman,serif" font-size="14.00">w</text></g><g id="edge7" class="edge"><title>v--w</title><path fill="none" stroke="black" d="M92.35,-234.01C102.18,-218.82 116.88,-196.09 126.7,-180.92"/><text text-anchor="middle" x="115.5" y="-203.8" font-family="Times New Roman,serif" font-size="14.00">e</text></g><g id="edge5" class="edge"><title>w--y</title><path fill="none" stroke="black" d="M125.07,-147.59C115.84,-135.68 103.13,-119.28 93.91,-107.38"/></g><g id="edge6" class="edge"><title>w--z</title><path fill="none" stroke="black" d="M133.68,-145.92C128.29,-118.2 117.7,-63.76 112.32,-36.06"/></g></g></svg>