<svg xmlns="http://www.w3.org/2000/svg" width="172pt" height="260pt" viewBox="0 0 172 260"><g class="graph"><path fill="#fff" stroke="transparent" d="M0 260V0h172v260z"/><g class="node" transform="translate(4 256)"><ellipse cx="27" cy="-162" fill="none" stroke="#000" rx="27" ry="18"/><text x="27" y="-158.3" font-family="Times New Roman,serif" font-size="14" text-anchor="middle">x</text></g><g class="node" transform="translate(4 256)"><ellipse cx="82" cy="-90" fill="none" stroke="#000" rx="27" ry="18"/><text x="82" y="-86.3" font-family="Times New Roman,serif" font-size="14" text-anchor="middle">y</text></g><g class="edge" transform="translate(4 256)"><path fill="none" stroke="#000" d="M38.93-145.81c9.23 11.74 21.94 27.92 31.16 39.65"/></g><g class="node" transform="translate(4 256)"><ellipse cx="109" cy="-18" fill="none" stroke="#000" rx="27" ry="18"/><text x="109" y="-14.3" font-family="Times New Roman,serif" font-size="14" text-anchor="middle">z</text></g><g class="edge" transform="translate(4 256)"><path fill="none" stroke="#000" d="M88.4-72.41c4.24 11 9.79 25.38 14.06 36.45"/></g><g class="node" transform="translate(4 256)"><ellipse cx="54" cy="-234" fill="none" stroke="#000" rx="27" ry="18"/><text x="54" y="-230.3" font-family="Times New Roman,serif" font-size="14" text-anchor="middle">v</text></g><g class="edge" transform="translate(4 256)"><path fill="none" stroke="#000" d="M47.6-216.41c-4.24 11-9.79 25.38-14.06 36.45"/></g><g class="edge" transform="translate(4 256)"><path fill="none" stroke="#000" d="M57.38-215.87c5.38 27.29 15.84 80.35 21.23 107.68"/></g><g class="node" transform="translate(4 256)"><ellipse cx="137" cy="-162" fill="none" stroke="#000" rx="27" ry="18"/><text x="137" y="-158.3" font-family="Times New Roman,serif" font-size="14" text-anchor="middle">w</text></g><g class="edge" transform="translate(4 256)"><path fill="none" stroke="#000" d="M125.07-145.81c-9.23 11.74-21.94 27.92-31.16 39.65"/></g><g class="edge" transform="translate(4 256)"><path fill="none" stroke="#000" d="M133.62-143.87c-5.38 27.29-15.84 80.35-21.23 107.68"/></g></g></svg>