<?xml version="1.0" encoding="UTF-8" standalone="no" ?>
<!DOCTYPE svg PUBLIC "-//W3C//DTD SVG 1.1//EN" "http://www.w3.org/Graphics/SVG/1.1/DTD/svg11.dtd">
<!-- Generated by graphviz version 4.0.0 (20220529.0937)
 -->
<!-- Pages: 1 -->
<svg width="134pt" height="188pt" viewBox="0.00 0.00 134.00 188.00" xmlns="http://www.w3.org/2000/svg" xmlns:xlink="http://www.w3.org/1999/xlink">
<g id="graph0" class="graph" transform="scale(1 1) rotate(0) translate(4 184)">
<polygon fill="white" stroke="transparent" points="-4,4 -4,-184 130,-184 130,4 -4,4" />
<!-- x -->
<g id="node1" class="node">
<title>x</title>
<ellipse fill="none" stroke="black" cx="27" cy="-162" rx="27" ry="18" />
<text text-anchor="middle" x="27" y="-158.3" font-family="Times New Roman,serif" font-size="14.00">x</text>
</g>
<!-- y -->
<g id="node2" class="node">
<title>y</title>
<ellipse fill="none" stroke="black" cx="44" cy="-90" rx="27" ry="18" />
<text text-anchor="middle" x="44" y="-86.3" font-family="Times New Roman,serif" font-size="14.00">y</text>
</g>
<!-- x&#45;&#45;y -->
<g id="edge1" class="edge">
<title>x&#45;&#45;y</title>
<path fill="none" stroke="black" d="M31.12,-144.05C33.75,-133.21 37.16,-119.18 39.8,-108.28" />
</g>
<!-- z -->
<g id="node3" class="node">
<title>z</title>
<ellipse fill="none" stroke="black" cx="71" cy="-18" rx="27" ry="18" />
<text text-anchor="middle" x="71" y="-14.3" font-family="Times New Roman,serif" font-size="14.00">z</text>
</g>
<!-- y&#45;&#45;z -->
<g id="edge2" class="edge">
<title>y&#45;&#45;z</title>
<path fill="none" stroke="black" d="M50.4,-72.41C54.64,-61.41 60.19,-47.03 64.46,-35.96" />
</g>
<!-- w -->
<g id="node4" class="node">
<title>w</title>
<ellipse fill="none" stroke="black" cx="99" cy="-162" rx="27" ry="18" />
<text text-anchor="middle" x="99" y="-158.3" font-family="Times New Roman,serif" font-size="14.00">w</text>
</g>
<!-- w&#45;&#45;y -->
<g id="edge3" class="edge">
<title>w&#45;&#45;y</title>
<path fill="none" stroke="black" d="M87.07,-145.81C77.84,-134.07 65.13,-117.89 55.91,-106.16" />
</g>
<!-- w&#45;&#45;z -->
<g id="edge4" class="edge">
<title>w&#45;&#45;z</title>
<path fill="none" stroke="black" d="M95.62,-143.87C90.24,-116.58 79.78,-63.52 74.39,-36.19" />
</g>
</g>
</svg>
