<?xml version="1.0" encoding="UTF-8" standalone="no" ?>
<svg width="172pt" height="260pt" viewBox="0.00 0.00 172.00 260.00" xmlns="http://www.w3.org/2000/svg" xmlns:xlink="http://www.w3.org/1999/xlink">
<g id="graph0" class="graph" transform="scale(1 1) rotate(0) translate(4 256)">
<polygon fill="white" stroke="transparent" points="-4,4 -4,-256 168,-256 168,4 -4,4" /><g id="node1" class="node">
<title>x</title>
<ellipse fill="none" stroke="black" cx="27" cy="-162" rx="27" ry="18" />
<text text-anchor="middle" x="27" y="-158.3" font-family="Times New Roman,serif" font-size="14.00">x</text>
</g><g id="node2" class="node">
<title>y</title>
<ellipse fill="none" stroke="black" cx="82" cy="-90" rx="27" ry="18" />
<text text-anchor="middle" x="82" y="-86.3" font-family="Times New Roman,serif" font-size="14.00">y</text>
</g><g id="edge1" class="edge">
<title>x&#45;&#45;y</title>
<path fill="none" stroke="black" d="M38.93,-145.81C48.16,-134.07 60.87,-117.89 70.09,-106.16" />
</g><g id="node3" class="node">
<title>z</title>
<ellipse fill="none" stroke="black" cx="109" cy="-18" rx="27" ry="18" />
<text text-anchor="middle" x="109" y="-14.3" font-family="Times New Roman,serif" font-size="14.00">z</text>
</g><g id="edge2" class="edge">
<title>y&#45;&#45;z</title>
<path fill="none" stroke="black" d="M88.4,-72.41C92.64,-61.41 98.19,-47.03 102.46,-35.96" />
</g><g id="node4" class="node">
<title>v</title>
<ellipse fill="none" stroke="black" cx="54" cy="-234" rx="27" ry="18" />
<text text-anchor="middle" x="54" y="-230.3" font-family="Times New Roman,serif" font-size="14.00">v</text>
</g><g id="edge3" class="edge">
<title>v&#45;&#45;x</title>
<path fill="none" stroke="black" d="M47.6,-216.41C43.36,-205.41 37.81,-191.03 33.54,-179.96" />
</g><g id="edge4" class="edge">
<title>v&#45;&#45;y</title>
<path fill="none" stroke="black" d="M57.38,-215.87C62.76,-188.58 73.22,-135.52 78.61,-108.19" />
</g><g id="node5" class="node">
<title>w</title>
<ellipse fill="none" stroke="black" cx="137" cy="-162" rx="27" ry="18" />
<text text-anchor="middle" x="137" y="-158.3" font-family="Times New Roman,serif" font-size="14.00">w</text>
</g><g id="edge5" class="edge">
<title>w&#45;&#45;y</title>
<path fill="none" stroke="black" d="M125.07,-145.81C115.84,-134.07 103.13,-117.89 93.91,-106.16" />
</g><g id="edge6" class="edge">
<title>w&#45;&#45;z</title>
<path fill="none" stroke="black" d="M133.62,-143.87C128.24,-116.58 117.78,-63.52 112.39,-36.19" />
</g>
</g>
</svg>
