<svg xmlns="http://www.w3.org/2000/svg" width="149pt" height="260pt" viewBox="0 0 149 260"><g class="graph"><path fill="#fff" stroke="transparent" d="M0 260V0h149v260z"/><g class="node" transform="translate(4 256)"><ellipse cx="27" cy="-162" fill="none" stroke="#000" rx="27" ry="18"/><text x="27" y="-158.3" font-family="Times New Roman,serif" font-size="14" text-anchor="middle">x</text></g><g class="node" transform="translate(4 256)"><ellipse cx="87" cy="-90" fill="none" stroke="#000" rx="27" ry="18"/><text x="87" y="-86.3" font-family="Times New Roman,serif" font-size="14" text-anchor="middle">y</text></g><g class="edge" transform="translate(4 256)"><path fill="none" stroke="#000" d="M40.02-145.81c10.06 11.74 23.93 27.92 33.99 39.65"/></g><g class="node" transform="translate(4 256)"><ellipse cx="114" cy="-18" fill="none" stroke="#000" rx="27" ry="18"/><text x="114" y="-14.3" font-family="Times New Roman,serif" font-size="14" text-anchor="middle">z</text></g><g class="edge" transform="translate(4 256)"><path fill="none" stroke="#000" d="M93.4-72.41c4.24 11 9.79 25.38 14.06 36.45"/></g><g class="node" transform="translate(4 256)"><ellipse cx="91" cy="-234" fill="none" stroke="#000" rx="27" ry="18"/><text x="91" y="-230.3" font-family="Times New Roman,serif" font-size="14" text-anchor="middle">vw</text></g><g class="edge" transform="translate(4 256)"><path fill="none" stroke="#000" d="M77.43-218.15c-10.86 11.87-26.02 28.45-36.88 40.33"/></g><g class="edge" transform="translate(4 256)"><path fill="none" stroke="#000" d="M85.97-216.15c-3.7 27.33-5.21 81.01-3.05 108.33"/></g><g class="edge" transform="translate(4 256)"><path fill="none" stroke="#000" d="M95.08-216.15c2.16 27.33.65 81.01-3.05 108.33"/></g><g class="edge" transform="translate(4 256)"><path fill="none" stroke="#000" d="M98.6-216.62c4.51 10.31 9.99 24.01 13.4 36.62 12.61 46.57 15.05 59.92 11 108-1.02 12.09-3.32 25.57-5.35 35.91"/></g></g></svg>