<svg xmlns="http://www.w3.org/2000/svg" width="172pt" height="277pt" viewBox="0 0 172 277"><g class="graph"><path fill="#fff" stroke="transparent" d="M0 277V0h172v277z"/><g class="node" transform="translate(4 273)"><ellipse cx="27" cy="-164" fill="none" stroke="#000" rx="27" ry="18"/><text x="27" y="-160.3" font-family="Times New Roman,serif" font-size="14" text-anchor="middle">x</text></g><g class="node" transform="translate(4 273)"><ellipse cx="82" cy="-91" fill="none" stroke="#000" rx="27" ry="18"/><text x="82" y="-87.3" font-family="Times New Roman,serif" font-size="14" text-anchor="middle">y</text></g><g class="edge" transform="translate(4 273)"><path fill="none" stroke="#000" d="M38.93-147.59c9.23 11.91 21.94 28.31 31.16 40.21"/></g><g class="node" transform="translate(4 273)"><ellipse cx="109" cy="-18" fill="none" stroke="#000" rx="27" ry="18"/><text x="109" y="-14.3" font-family="Times New Roman,serif" font-size="14" text-anchor="middle">z</text></g><g class="edge" transform="translate(4 273)"><path fill="none" stroke="#000" d="M88.4-73.17c4.3 11.31 9.95 26.17 14.25 37.46"/></g><g class="node" transform="translate(4 273)"><ellipse cx="82" cy="-251" fill="none" stroke="#000" rx="27" ry="18"/><text x="82" y="-247.3" font-family="Times New Roman,serif" font-size="14" text-anchor="middle">v</text></g><g class="edge" transform="translate(4 273)"><path fill="none" stroke="#000" d="M71.65-234.01c-9.83 15.19-24.53 37.92-34.35 53.09"/></g><g class="edge" transform="translate(4 273)"><path fill="none" stroke="#000" d="M82-232.79v123.6"/></g><g class="node" transform="translate(4 273)"><ellipse cx="137" cy="-164" fill="none" stroke="#000" rx="27" ry="18"/><text x="137" y="-160.3" font-family="Times New Roman,serif" font-size="14" text-anchor="middle">w</text></g><g class="edge" transform="translate(4 273)"><path fill="none" stroke="#000" d="M92.35-234.01c9.83 15.19 24.53 37.92 34.35 53.09"/><text x="115.5" y="-203.8" font-family="Times New Roman,serif" font-size="14" text-anchor="middle">e</text></g><g class="edge" transform="translate(4 273)"><path fill="none" stroke="#000" d="M125.07-147.59c-9.23 11.91-21.94 28.31-31.16 40.21"/></g><g class="edge" transform="translate(4 273)"><path fill="none" stroke="#000" d="M133.68-145.92c-5.39 27.72-15.98 82.16-21.36 109.86"/></g></g></svg>