<svg xmlns="http://www.w3.org/2000/svg" xmlns:xlink="http://www.w3.org/1999/xlink" width="372" height="233pt" viewBox="0 0 279 233"><defs><symbol id="a" overflow="visible"><path d="M.766-8.016V0h.922v-3.172c0-1.187.609-1.953 1.562-1.953.297 0 .594.094.813.25.265.203.375.469.375.875v4h.906v-4.36c0-.968-.688-1.562-1.813-1.562-.812 0-1.312.25-1.844.953v-3.047Zm0 0" style="stroke:none"/></symbol><symbol id="b" overflow="visible"><path d="M1.656-5.766H.734V0h.922Zm0-2.25H.72v1.157h.937Zm0 0" style="stroke:none"/></symbol><symbol id="c" overflow="visible"><path d="M4.813-4.156c0-1.14-.75-1.766-2.079-1.766-1.343 0-2.218.688-2.218 1.75 0 .906.468 1.328 1.828 1.656l.86.22c.64.155.89.39.89.796 0 .547-.547.906-1.344.906-.5 0-.906-.14-1.14-.39-.141-.157-.22-.328-.266-.735H.375C.422-.39 1.172.25 2.672.25c1.453 0 2.375-.719 2.375-1.828 0-.86-.484-1.328-1.625-1.594l-.875-.219c-.75-.171-1.078-.421-1.078-.828 0-.531.484-.86 1.219-.86.75 0 1.14.313 1.156.923Zm0 0" style="stroke:none"/></symbol><symbol id="d" overflow="visible"><path d="M2.797-5.766h-.953v-1.578H.937v1.578h-.78v.75h.78v4.36c0 .594.391.906 1.11.906.234 0 .437-.016.75-.078v-.766c-.14.031-.25.047-.438.047-.406 0-.515-.11-.515-.515v-3.954h.953Zm0 0" style="stroke:none"/></symbol><symbol id="e" overflow="visible"><path d="M2.984-5.922C1.36-5.922.391-4.782.391-2.844.39-.89 1.359.25 3 .25c1.625 0 2.61-1.156 2.61-3.047 0-2-.954-3.125-2.626-3.125M3-5.078c1.031 0 1.656.844 1.656 2.266 0 1.374-.64 2.218-1.656 2.218s-1.64-.843-1.64-2.25c0-1.39.624-2.234 1.64-2.234m0 0" style="stroke:none"/></symbol><symbol id="f" overflow="visible"><path d="M4.438-5.766v.844c-.454-.703-.97-1-1.688-1-1.39 0-2.36 1.297-2.36 3.14 0 .97.22 1.673.72 2.25.437.516.984.782 1.578.782.687 0 1.187-.312 1.671-1.031v.297c0 1.547-.437 2.109-1.578 2.109C2 1.625 1.594 1.313 1.5.656H.578c.078 1.078.922 1.735 2.188 1.735.843 0 1.547-.266 1.922-.735.437-.531.609-1.25.609-2.61v-4.812Zm-1.594.688c.969 0 1.515.812 1.515 2.266 0 1.406-.562 2.218-1.515 2.218s-1.5-.828-1.5-2.25c0-1.406.547-2.234 1.5-2.234m0 0" style="stroke:none"/></symbol><symbol id="g" overflow="visible"><path d="M.766-5.766V0h.922v-2.984c0-1.391.578-2.016 1.843-1.985v-.922c-.156-.03-.25-.03-.36-.03-.593 0-1.03.343-1.562 1.202v-1.047Zm0 0" style="stroke:none"/></symbol><symbol id="h" overflow="visible"><path d="M5.89-.531c-.109.015-.156.015-.202.015-.313 0-.5-.171-.5-.453v-3.39c0-1.016-.75-1.563-2.157-1.563-.86 0-1.531.234-1.922.656-.265.297-.375.641-.39 1.204h.922c.078-.704.5-1.016 1.343-1.016.844 0 1.297.297 1.297.86v.234c-.015.39-.218.547-.953.64-1.297.172-1.5.203-1.86.36-.671.28-1 .78-1 1.53C.469-.405 1.189.25 2.36.25c.72 0 1.297-.25 1.954-.844.062.594.343.844.953.844.187 0 .312-.016.625-.094ZM4.282-1.812c0 .312-.093.5-.36.75-.374.343-.827.515-1.374.515-.703 0-1.125-.344-1.125-.922 0-.61.39-.922 1.39-1.062.97-.125 1.157-.172 1.47-.313Zm0 0" style="stroke:none"/></symbol><symbol id="i" overflow="visible"><path d="M.766-5.766V0h.922v-3.625c0-.828.609-1.5 1.359-1.5.687 0 1.062.422 1.062 1.156V0h.922v-3.625c0-.828.61-1.5 1.36-1.5.672 0 1.062.422 1.062 1.156V0h.922v-4.328c0-1.031-.594-1.594-1.672-1.594-.766 0-1.219.219-1.766.875-.343-.625-.796-.875-1.546-.875-.766 0-1.297.281-1.782.969v-.813Zm0 0" style="stroke:none"/></symbol><symbol id="k" overflow="visible"><path d="M2.844-5.766h-.969v-.906c0-.375.219-.578.64-.578.079 0 .11 0 .329.016V-8c-.219-.047-.328-.047-.516-.047-.86 0-1.36.485-1.36 1.297v.984H.204v.75H.97V0h.906v-5.016h.969Zm0 0" style="stroke:none"/></symbol><symbol id="l" overflow="visible"><path d="m4.25-3.14 3.016-4.876h-1.22l-2.28 3.907-2.36-3.907H.141L3.234-3.14V0H4.25Zm0 0" style="stroke:none"/></symbol><symbol id="m" overflow="visible"><path d="M7.797-4.234H4.453v.906h2.438v.219c0 1.422-1.047 2.453-2.516 2.453-.812 0-1.547-.297-2.016-.813C1.83-2.03 1.5-2.984 1.5-3.984c0-1.97 1.125-3.266 2.828-3.266 1.219 0 2.094.625 2.313 1.656h1.047c-.282-1.625-1.516-2.562-3.36-2.562-.969 0-1.766.265-2.39.781C1-6.609.484-5.375.484-3.922.484-1.469 1.984.25 4.156.25 5.25.25 6.11-.156 6.891-1.016L7.156.047h.64Zm0 0" style="stroke:none"/></symbol><symbol id="n" overflow="visible"><path d="M2.047-3.453h2.64C5.595-3.453 6-3.016 6-2.031v.719c0 .5.078.984.219 1.312h1.25v-.25C7.079-.516 7-.797 6.984-1.875c-.015-1.312-.218-1.719-1.093-2.078.906-.453 1.265-1 1.265-1.922 0-1.39-.86-2.14-2.437-2.14H1.016V0h1.03Zm0-.906v-2.75h2.469c.578 0 .906.078 1.156.297q.422.35.422 1.078c0 .953-.485 1.375-1.578 1.375Zm0 0" style="stroke:none"/></symbol><symbol id="s" overflow="visible"><path d="M5.64-2.578c0-.875-.062-1.406-.234-1.828-.375-.953-1.25-1.516-2.328-1.516-1.61 0-2.64 1.219-2.64 3.11 0 1.906 1 3.062 2.625 3.062 1.312 0 2.234-.75 2.453-2h-.922c-.25.766-.766 1.156-1.5 1.156a1.61 1.61 0 0 1-1.39-.75c-.22-.328-.298-.656-.313-1.234Zm-4.218-.75c.078-1.063.719-1.75 1.64-1.75.938 0 1.594.719 1.594 1.75Zm0 0" style="stroke:none"/></symbol><symbol id="t" overflow="visible"><path d="M2.516-8.016-.094.22h.61l2.609-8.235Zm0 0" style="stroke:none"/></symbol><symbol id="u" overflow="visible"><path d="M2.188-7.531A1.88 1.88 0 0 0 .312-5.656c0 1.031.844 1.89 1.891 1.89 1.016 0 1.86-.859 1.86-1.859 0-1.078-.813-1.906-1.875-1.906m0 .765c.624 0 1.124.5 1.124 1.125a1.1 1.1 0 0 1-1.109 1.094 1.107 1.107 0 0 1-1.125-1.11c0-.609.5-1.109 1.11-1.109m4.515-1.03L2.36.218h.72l4.343-8.016Zm.86 4.25c-1.032 0-1.86.843-1.86 1.874A1.86 1.86 0 0 0 7.578.203a1.867 1.867 0 0 0 1.875-1.86c0-1.046-.828-1.89-1.89-1.89m0 .78c.625 0 1.125.485 1.125 1.11 0 .593-.5 1.094-1.11 1.094-.625 0-1.125-.5-1.125-1.11s.5-1.094 1.11-1.094m0 0" style="stroke:none"/></symbol><symbol id="o" overflow="visible"><path d="M3.266-1.75V0h.89v-1.75h1.047v-.797H4.156v-4.687H3.5L.281-2.687v.937Zm0-.797h-2.22l2.22-3.187Zm0 0" style="stroke:none"/></symbol><symbol id="p" overflow="visible"><path d="M1.906-1.047H.875V0h1.031Zm0 0" style="stroke:none"/></symbol><symbol id="q" overflow="visible"><path d="M4.766-7.094H1.094l-.532 3.86h.813c.422-.485.75-.657 1.313-.657.953 0 1.546.657 1.546 1.704 0 1.015-.593 1.64-1.546 1.64-.782 0-1.25-.39-1.454-1.187h-.89c.125.578.219.859.437 1.109.407.547 1.125.86 1.922.86 1.422 0 2.422-1.047 2.422-2.547 0-1.391-.922-2.36-2.281-2.36-.5 0-.906.125-1.313.438l.282-1.985h2.953Zm0 0" style="stroke:none"/></symbol><symbol id="r" overflow="visible"><path d="M4.984-5.344c-.171-1.187-.937-1.89-2.015-1.89a2.27 2.27 0 0 0-1.906 1.03c-.438.72-.625 1.595-.625 2.907 0 1.219.156 1.985.593 2.625.375.594 1 .906 1.782.906 1.343 0 2.312-1.015 2.312-2.421 0-1.329-.89-2.266-2.172-2.266-.687 0-1.25.25-1.625.781.016-1.781.578-2.781 1.578-2.781.625 0 1.047.406 1.188 1.11Zm-2.14 1.657c.86 0 1.39.609 1.39 1.562 0 .922-.609 1.578-1.421 1.578s-1.438-.687-1.438-1.61c0-.905.61-1.53 1.469-1.53m0 0" style="stroke:none"/></symbol><symbol id="v" overflow="visible"><path d="M2.75-7.234c-.656 0-1.266.297-1.625.797C.656-5.797.438-4.844.438-3.5c0 2.438.796 3.734 2.312 3.734 1.5 0 2.313-1.296 2.313-3.671 0-1.407-.22-2.344-.688-3-.36-.5-.953-.797-1.625-.797m0 .78c.953 0 1.422.97 1.422 2.938C4.172-1.453 3.703-.5 2.734-.5c-.937 0-1.406-1-1.406-2.984 0-2 .469-2.97 1.422-2.97m0 0" style="stroke:none"/></symbol><symbol id="w" overflow="visible"><path d="M2.594-5.156V0h.875v-7.234H2.89c-.313 1.109-.516 1.265-1.875 1.437v.64Zm0 0" style="stroke:none"/></symbol><symbol id="x" overflow="visible"><path d="M5.063-.875H1.328c.094-.594.406-.969 1.281-1.5l1-.562c.985-.547 1.5-1.297 1.5-2.188a2.1 2.1 0 0 0-.656-1.547c-.422-.375-.937-.562-1.61-.562-.905 0-1.577.328-1.968.937-.25.39-.36.844-.375 1.563h.875c.031-.485.094-.782.219-1.016.218-.437.687-.703 1.219-.703.796 0 1.39.578 1.39 1.36 0 .577-.328 1.077-.953 1.437l-.922.531C.844-2.265.422-1.594.344-.015h4.719Zm0 0" style="stroke:none"/></symbol><symbol id="y" overflow="visible"><path d="M2.203-3.328h.485c.968 0 1.468.453 1.468 1.312 0 .922-.547 1.47-1.453 1.47-.969 0-1.437-.5-1.5-1.548h-.89c.046.578.14.953.312 1.281C1-.125 1.688.234 2.656.234c1.469 0 2.407-.89 2.407-2.25 0-.921-.36-1.421-1.204-1.718q.985-.423.985-1.5c0-1.25-.797-2-2.157-2-1.42 0-2.187.797-2.217 2.328h.875c.015-.438.062-.688.172-.907.187-.406.64-.64 1.187-.64.781 0 1.25.469 1.25 1.25 0 .5-.187.812-.578.984-.234.094-.562.14-1.172.157Zm0 0" style="stroke:none"/></symbol><symbol id="z" overflow="visible"><path d="M-3.656-2.016v-3.828h-.89v3.828H-7.11v-4.359h-.907v5.39H0v-1.03Zm0 0" style="stroke:none"/></symbol><symbol id="A" overflow="visible"><path d="M-5.766-.766H0v-.921h-2.984c-1.391 0-2.016-.579-1.985-1.844h-.922c-.03.156-.03.25-.03.36 0 .593.343 1.03 1.202 1.562h-1.047Zm0 0" style="stroke:none"/></symbol><symbol id="B" overflow="visible"><path d="M-2.578-5.64c-.875 0-1.406.062-1.828.234-.953.375-1.516 1.25-1.516 2.328 0 1.61 1.219 2.64 3.11 2.64 1.906 0 3.062-1 3.062-2.624 0-1.313-.75-2.235-2-2.454v.922c.766.25 1.156.766 1.156 1.5a1.61 1.61 0 0 1-.75 1.39c-.328.22-.656.298-1.234.313Zm-.75 4.218c-1.063-.078-1.75-.719-1.75-1.64 0-.938.719-1.594 1.75-1.594Zm0 0" style="stroke:none"/></symbol><symbol id="C" overflow="visible"><path d="M2.39-5.437h-8.156v.812H-5c-.594.422-.922 1.078-.922 1.828 0 1.516 1.234 2.516 3.156 2.516C-.906-.281.25-1.22.25-2.75c0-.797-.281-1.36-.906-1.781H2.39Zm-7.468 2.515c0-.984.875-1.61 2.266-1.61 1.328 0 2.203.641 2.203 1.61 0 1.016-.891 1.672-2.235 1.672s-2.234-.656-2.234-1.672m0 0" style="stroke:none"/></symbol><symbol id="D" overflow="visible"><path d="M0-5.297h-5.766v.906H-2.5c1.188 0 1.953.625 1.953 1.579 0 .718-.437 1.187-1.14 1.187h-4.079v.906h4.454C-.36-.719.25-1.437.25-2.547c0-.86-.297-1.39-1.047-1.937H0Zm0 0" style="stroke:none"/></symbol><symbol id="E" overflow="visible"><path d="M-5.766-.766H0v-.921h-3.172c-1.187 0-1.953-.625-1.953-1.563 0-.734.438-1.187 1.125-1.187h4v-.922h-4.36c-.952 0-1.562.718-1.562 1.828 0 .86.328 1.406 1.125 1.922h-.969Zm0 0" style="stroke:none"/></symbol><symbol id="F" overflow="visible"><path d="M-3.828-5.187c-.563.046-.922.171-1.25.39-.531.39-.844 1.094-.844 1.89 0 1.563 1.219 2.563 3.14 2.563C-.921-.344.25-1.328.25-2.89c0-1.375-.828-2.25-2.234-2.359v.922c.922.156 1.39.625 1.39 1.406 0 1.016-.828 1.625-2.187 1.625-1.438 0-2.297-.594-2.297-1.594 0-.765.453-1.25 1.25-1.359Zm0 0" style="stroke:none"/></symbol><symbol id="G" overflow="visible"><path d="m-5.766-4.266 4.485 1.594-4.485 1.469v.984L.016-2.172l.922.36c.406.156.562.343.562.734 0 .156-.031.281-.062.484h.812c.11-.187.14-.375.14-.61a1.5 1.5 0 0 0-.265-.858c-.219-.297-.453-.454-.922-.626l-6.969-2.578Zm0 0" style="stroke:none"/></symbol></defs><path d="M0 0h279v233H0z" style="fill:#fff;fill-opacity:1;stroke:none"/><path d="M32.273 202.266h245.403V12.664H32.273Zm0 0" style="stroke:none;fill-rule:nonzero;fill:#fff;fill-opacity:1"/><g style="fill:#000;fill-opacity:1"><use xlink:href="#a" x="111.176" y="8.016"/><use xlink:href="#b" x="117.291" y="8.016"/><use xlink:href="#c" x="119.733" y="8.016"/><use xlink:href="#d" x="125.233" y="8.016"/><use xlink:href="#e" x="128.291" y="8.016"/><use xlink:href="#f" x="134.407" y="8.016"/><use xlink:href="#g" x="140.523" y="8.016"/><use xlink:href="#h" x="144.186" y="8.016"/><use xlink:href="#i" x="150.302" y="8.016"/><use xlink:href="#j" x="159.465" y="8.016"/><use xlink:href="#e" x="162.523" y="8.016"/><use xlink:href="#k" x="168.639" y="8.016"/><use xlink:href="#j" x="171.696" y="8.016"/><use xlink:href="#l" x="174.754" y="8.016"/><use xlink:href="#m" x="182.091" y="8.016"/><use xlink:href="#n" x="190.649" y="8.016"/></g><path d="M80.613 202.266v-94.801H43.43v94.8Zm74.364 0v-94.801h-37.184v94.8Zm37.18 0V12.664h-37.18v189.602Zm74.363 0V12.664h-37.18v189.602Zm0 0" style="stroke:none;fill-rule:nonzero;fill:#0072bd;fill-opacity:.6"/><path d="M807.591 386V227.999h61.973V386m0 0h61.966m0 0V227.999h61.973m0 158.001V69.997h61.966V386m0 0h61.972m0 0V69.997h61.967V386" style="fill:none;stroke-width:.833333;stroke-linecap:square;stroke-linejoin:miter;stroke:#000;stroke-opacity:1;stroke-miterlimit:10" transform="matrix(.6 0 0 .6 -441.125 -29.334)"/><path d="M788.997 386h409.004M788.997 69.997h409.004M807.591 386v-4.089M881.367 386v-4.089m73.77 4.089v-4.089m73.776 4.089v-4.089m73.769 4.089v-4.089m73.776 4.089v-4.089M807.591 69.997v4.095m73.776-4.095v4.095m73.77-4.095v4.095m73.776-4.095v4.095m73.769-4.095v4.095m73.776-4.095v4.095" style="fill:none;stroke-width:.833333;stroke-linecap:square;stroke-linejoin:round;stroke:#262626;stroke-opacity:1;stroke-miterlimit:10" transform="matrix(.6 0 0 .6 -441.125 -29.334)"/><use xlink:href="#o" x="40.43" y="216.466" style="fill:#262626;fill-opacity:1"/><g style="fill:#262626;fill-opacity:1"><use xlink:href="#o" x="80.494" y="216.466"/><use xlink:href="#p" x="86.054" y="216.466"/><use xlink:href="#q" x="88.834" y="216.466"/></g><use xlink:href="#q" x="128.958" y="216.466" style="fill:#262626;fill-opacity:1"/><g style="fill:#262626;fill-opacity:1"><use xlink:href="#q" x="169.022" y="216.466"/><use xlink:href="#p" x="174.582" y="216.466"/><use xlink:href="#q" x="177.362" y="216.466"/></g><use xlink:href="#r" x="217.486" y="216.466" style="fill:#262626;fill-opacity:1"/><g style="fill:#262626;fill-opacity:1"><use xlink:href="#r" x="257.55" y="216.466"/><use xlink:href="#p" x="263.11" y="216.466"/><use xlink:href="#q" x="265.89" y="216.466"/></g><g style="fill:#262626;fill-opacity:1"><use xlink:href="#n" x="136.675" y="231.266"/><use xlink:href="#h" x="144.617" y="231.266"/><use xlink:href="#d" x="150.733" y="231.266"/><use xlink:href="#s" x="153.791" y="231.266"/><use xlink:href="#t" x="159.907" y="231.266"/><use xlink:href="#u" x="162.965" y="231.266"/></g><path d="M788.997 386V69.997M1198.001 386V69.997M788.997 386h4.095m-4.095-39.499h4.095m-4.095-39.498h4.095m-4.095-39.506h4.095m-4.095-39.498h4.095m-4.095-39.499h4.095m-4.095-39.499h4.095m-4.095-39.498h4.095m-4.095-39.506h4.095M1198.001 386h-4.088m4.088-39.499h-4.088m4.088-39.498h-4.088m4.088-39.506h-4.088m4.088-39.498h-4.088m4.088-39.499h-4.088m4.088-39.499h-4.088m4.088-39.498h-4.088m4.088-39.506h-4.088" style="fill:none;stroke-width:.833333;stroke-linecap:square;stroke-linejoin:round;stroke:#262626;stroke-opacity:1;stroke-miterlimit:10" transform="matrix(.6 0 0 .6 -441.125 -29.334)"/><use xlink:href="#v" x="22.275" y="206.166" style="fill:#262626;fill-opacity:1"/><g style="fill:#262626;fill-opacity:1"><use xlink:href="#v" x="13.875" y="182.466"/><use xlink:href="#p" x="19.435" y="182.466"/><use xlink:href="#q" x="22.215" y="182.466"/></g><use xlink:href="#w" x="22.275" y="158.766" style="fill:#262626;fill-opacity:1"/><g style="fill:#262626;fill-opacity:1"><use xlink:href="#w" x="13.875" y="135.066"/><use xlink:href="#p" x="19.435" y="135.066"/><use xlink:href="#q" x="22.215" y="135.066"/></g><use xlink:href="#x" x="22.275" y="111.366" style="fill:#262626;fill-opacity:1"/><g style="fill:#262626;fill-opacity:1"><use xlink:href="#x" x="13.875" y="87.666"/><use xlink:href="#p" x="19.435" y="87.666"/><use xlink:href="#q" x="22.215" y="87.666"/></g><use xlink:href="#y" x="22.275" y="63.966" style="fill:#262626;fill-opacity:1"/><g style="fill:#262626;fill-opacity:1"><use xlink:href="#y" x="13.875" y="40.266"/><use xlink:href="#p" x="19.435" y="40.266"/><use xlink:href="#q" x="22.215" y="40.266"/></g><use xlink:href="#o" x="22.275" y="16.566" style="fill:#262626;fill-opacity:1"/><g style="fill:#262626;fill-opacity:1"><use xlink:href="#z" x="7.875" y="133.566"/><use xlink:href="#A" x="7.875" y="126.845"/><use xlink:href="#B" x="7.875" y="123.182"/><use xlink:href="#C" x="7.875" y="117.066"/><use xlink:href="#D" x="7.875" y="110.95"/><use xlink:href="#B" x="7.875" y="104.834"/><use xlink:href="#E" x="7.875" y="98.718"/><use xlink:href="#F" x="7.875" y="92.602"/><use xlink:href="#G" x="7.875" y="87.102"/></g></svg>