<svg xmlns="http://www.w3.org/2000/svg" xmlns:xlink="http://www.w3.org/1999/xlink" width="287pt" height="232pt" viewBox="0 0 287 232"><defs><symbol id="a" overflow="visible"><path d="M2.75-7.234c-.656 0-1.266.297-1.625.797C.656-5.797.438-4.844.438-3.5c0 2.438.796 3.734 2.312 3.734 1.5 0 2.313-1.296 2.313-3.671 0-1.407-.22-2.344-.688-3-.36-.5-.953-.797-1.625-.797m0 .78c.953 0 1.422.97 1.422 2.938C4.172-1.453 3.703-.5 2.734-.5c-.937 0-1.406-1-1.406-2.984 0-2 .469-2.97 1.422-2.97m0 0" style="stroke:none"/></symbol><symbol id="b" overflow="visible"><path d="M5.063-.875H1.328c.094-.594.406-.969 1.281-1.5l1-.562c.985-.547 1.5-1.297 1.5-2.188a2.1 2.1 0 0 0-.656-1.547c-.422-.375-.937-.562-1.61-.562-.905 0-1.577.328-1.968.937-.25.39-.36.844-.375 1.563h.875c.031-.485.094-.782.219-1.016.218-.437.687-.703 1.219-.703.796 0 1.39.578 1.39 1.36 0 .577-.328 1.077-.953 1.437l-.922.531C.844-2.265.422-1.594.344-.015h4.719Zm0 0" style="stroke:none"/></symbol><symbol id="c" overflow="visible"><path d="M3.266-1.75V0h.89v-1.75h1.047v-.797H4.156v-4.687H3.5L.281-2.687v.937Zm0-.797h-2.22l2.22-3.187Zm0 0" style="stroke:none"/></symbol><symbol id="d" overflow="visible"><path d="M4.984-5.344c-.171-1.187-.937-1.89-2.015-1.89a2.27 2.27 0 0 0-1.906 1.03c-.438.72-.625 1.595-.625 2.907 0 1.219.156 1.985.593 2.625.375.594 1 .906 1.782.906 1.343 0 2.312-1.015 2.312-2.421 0-1.329-.89-2.266-2.172-2.266-.687 0-1.25.25-1.625.781.016-1.781.578-2.781 1.578-2.781.625 0 1.047.406 1.188 1.11Zm-2.14 1.657c.86 0 1.39.609 1.39 1.562 0 .922-.609 1.578-1.421 1.578s-1.438-.687-1.438-1.61c0-.905.61-1.53 1.469-1.53m0 0" style="stroke:none"/></symbol><symbol id="e" overflow="visible"><path d="M3.906-3.812c.75-.454.969-.813.969-1.485 0-1.14-.86-1.937-2.125-1.937-1.25 0-2.125.797-2.125 1.922 0 .687.219 1.046.953 1.5-.812.406-1.203 1-1.203 1.796 0 1.329.969 2.25 2.375 2.25s2.375-.921 2.375-2.25c0-.796-.39-1.39-1.219-1.796M2.75-6.453c.75 0 1.234.453 1.234 1.172 0 .687-.5 1.125-1.234 1.125-.75 0-1.234-.438-1.234-1.14C1.516-6 2-6.454 2.75-6.454m0 3.047c.875 0 1.484.578 1.484 1.422 0 .859-.593 1.437-1.5 1.437-.859 0-1.468-.594-1.468-1.437 0-.86.593-1.422 1.484-1.422m0 0" style="stroke:none"/></symbol><symbol id="f" overflow="visible"><path d="M2.594-5.156V0h.875v-7.234H2.89c-.313 1.109-.516 1.265-1.875 1.437v.64Zm0 0" style="stroke:none"/></symbol><symbol id="l" overflow="visible"><path d="M2.844-3.125H.454v.719h2.39Zm0 0" style="stroke:none"/></symbol><symbol id="m" overflow="visible"><path d="M1.906-1.047H.875V0h1.031Zm0 0" style="stroke:none"/></symbol><symbol id="g" overflow="visible"><path d="m5.14 0 2.266-6.719V0h.969v-8.016H6.953L4.625-1.03 2.25-8.016H.828V0h.969v-6.719L4.063 0Zm0 0" style="stroke:none"/></symbol><symbol id="h" overflow="visible"><path d="M2.984-5.922C1.36-5.922.391-4.782.391-2.844.39-.89 1.359.25 3 .25c1.625 0 2.61-1.156 2.61-3.047 0-2-.954-3.125-2.626-3.125M3-5.078c1.031 0 1.656.844 1.656 2.266 0 1.374-.64 2.218-1.656 2.218s-1.64-.843-1.64-2.25c0-1.39.624-2.234 1.64-2.234m0 0" style="stroke:none"/></symbol><symbol id="i" overflow="visible"><path d="M.766-5.766V0h.922v-3.172c0-1.187.625-1.953 1.562-1.953.734 0 1.188.438 1.188 1.125v4h.921v-4.36c0-.952-.718-1.562-1.828-1.562-.86 0-1.406.328-1.922 1.125v-.969Zm0 0" style="stroke:none"/></symbol><symbol id="j" overflow="visible"><path d="M2.797-5.766h-.953v-1.578H.937v1.578h-.78v.75h.78v4.36c0 .594.391.906 1.11.906.234 0 .437-.016.75-.078v-.766c-.14.031-.25.047-.438.047-.406 0-.515-.11-.515-.515v-3.954h.953Zm0 0" style="stroke:none"/></symbol><symbol id="k" overflow="visible"><path d="M.766-8.016V0h.922v-3.172c0-1.187.609-1.953 1.562-1.953.297 0 .594.094.813.25.265.203.375.469.375.875v4h.906v-4.36c0-.968-.688-1.562-1.813-1.562-.812 0-1.312.25-1.844.953v-3.047Zm0 0" style="stroke:none"/></symbol><symbol id="t" overflow="visible"><path d="M1.672-8.016H.75V0h.922Zm0 0" style="stroke:none"/></symbol><symbol id="u" overflow="visible"><path d="M1.656-5.766H.734V0h.922Zm0-2.25H.72v1.157h.937Zm0 0" style="stroke:none"/></symbol><symbol id="v" overflow="visible"><path d="M5.64-2.578c0-.875-.062-1.406-.234-1.828-.375-.953-1.25-1.516-2.328-1.516-1.61 0-2.64 1.219-2.64 3.11 0 1.906 1 3.062 2.625 3.062 1.312 0 2.234-.75 2.453-2h-.922c-.25.766-.766 1.156-1.5 1.156a1.61 1.61 0 0 1-1.39-.75c-.22-.328-.298-.656-.313-1.234Zm-4.218-.75c.078-1.063.719-1.75 1.64-1.75.938 0 1.594.719 1.594 1.75Zm0 0" style="stroke:none"/></symbol><symbol id="x" overflow="visible"><path d="M5.188-3.828c-.047-.563-.172-.922-.391-1.25-.39-.531-1.094-.844-1.89-.844-1.563 0-2.563 1.219-2.563 3.14C.344-.921 1.328.25 2.89.25c1.375 0 2.25-.828 2.359-2.234h-.922c-.156.922-.625 1.39-1.406 1.39-1.016 0-1.625-.828-1.625-2.187 0-1.438.594-2.297 1.594-2.297.765 0 1.25.453 1.359 1.25Zm0 0" style="stroke:none"/></symbol><symbol id="y" overflow="visible"><path d="M5.89-.531c-.109.015-.156.015-.202.015-.313 0-.5-.171-.5-.453v-3.39c0-1.016-.75-1.563-2.157-1.563-.86 0-1.531.234-1.922.656-.265.297-.375.641-.39 1.204h.922c.078-.704.5-1.016 1.343-1.016.844 0 1.297.297 1.297.86v.234c-.015.39-.218.547-.953.64-1.297.172-1.5.203-1.86.36-.671.28-1 .78-1 1.53C.469-.405 1.189.25 2.36.25c.72 0 1.297-.25 1.954-.844.062.594.343.844.953.844.187 0 .312-.016.625-.094ZM4.282-1.812c0 .312-.093.5-.36.75-.374.343-.827.515-1.374.515-.703 0-1.125-.344-1.125-.922 0-.61.39-.922 1.39-1.062.97-.125 1.157-.172 1.47-.313Zm0 0" style="stroke:none"/></symbol><symbol id="z" overflow="visible"><path d="M.766-5.766V0h.922v-2.984c0-1.391.578-2.016 1.843-1.985v-.922c-.156-.03-.25-.03-.36-.03-.593 0-1.03.343-1.562 1.202v-1.047Zm0 0" style="stroke:none"/></symbol><symbol id="A" overflow="visible"><path d="M2.844-5.766h-.969v-.906c0-.375.219-.578.64-.578.079 0 .11 0 .329.016V-8c-.219-.047-.328-.047-.516-.047-.86 0-1.36.485-1.36 1.297v.984H.204v.75H.97V0h.906v-5.016h.969Zm0 0" style="stroke:none"/></symbol><symbol id="B" overflow="visible"><path d="M2.047-3.453h2.64C5.595-3.453 6-3.016 6-2.031v.719c0 .5.078.984.219 1.312h1.25v-.25C7.079-.516 7-.797 6.984-1.875c-.015-1.312-.218-1.719-1.093-2.078.906-.453 1.265-1 1.265-1.922 0-1.39-.86-2.14-2.437-2.14H1.016V0h1.03Zm0-.906v-2.75h2.469c.578 0 .906.078 1.156.297q.422.35.422 1.078c0 .953-.485 1.375-1.578 1.375Zm0 0" style="stroke:none"/></symbol><symbol id="C" overflow="visible"><path d="M7.797-4.234H4.453v.906h2.438v.219c0 1.422-1.047 2.453-2.516 2.453-.812 0-1.547-.297-2.016-.813C1.83-2.03 1.5-2.984 1.5-3.984c0-1.97 1.125-3.266 2.828-3.266 1.219 0 2.094.625 2.313 1.656h1.047c-.282-1.625-1.516-2.562-3.36-2.562-.969 0-1.766.265-2.39.781C1-6.609.484-5.375.484-3.922.484-1.469 1.984.25 4.156.25 5.25.25 6.11-.156 6.891-1.016L7.156.047h.64Zm0 0" style="stroke:none"/></symbol><symbol id="n" overflow="visible"><path d="M-3.453-2.047v-2.64c0-.907.437-1.313 1.422-1.313h.719c.5 0 .984-.078 1.312-.219v-1.25h-.25c-.266.39-.547.469-1.625.485-1.312.015-1.719.218-2.078 1.093-.453-.906-1-1.265-1.922-1.265-1.39 0-2.14.86-2.14 2.437v3.703H0v-1.03Zm-.906 0h-2.75v-2.469c0-.578.078-.906.297-1.156q.35-.422 1.078-.422c.953 0 1.375.485 1.375 1.578Zm0 0" style="stroke:none"/></symbol><symbol id="o" overflow="visible"><path d="M-.531-5.89c.015.109.015.156.015.202 0 .313-.171.5-.453.5h-3.39c-1.016 0-1.563.75-1.563 2.157 0 .86.234 1.531.656 1.922.297.265.641.375 1.204.39v-.922c-.704-.078-1.016-.5-1.016-1.343 0-.844.297-1.297.86-1.297h.234c.39.015.547.218.64.953.172 1.297.203 1.5.36 1.86.28.671.78 1 1.53 1C-.405-.469.25-1.189.25-2.36c0-.72-.25-1.297-.844-1.953C0-4.375.25-4.656.25-5.266c0-.187-.016-.312-.094-.625Zm-1.281 1.609c.312 0 .5.093.75.36.343.374.515.827.515 1.374 0 .703-.344 1.125-.922 1.125-.61 0-.922-.39-1.062-1.39-.125-.97-.172-1.157-.313-1.47Zm0 0" style="stroke:none"/></symbol><symbol id="p" overflow="visible"><path d="M-5.766-2.797v.953h-1.578v.907h1.578v.78h.75v-.78h4.36c.594 0 .906-.391.906-1.11 0-.234-.016-.437-.078-.75h-.766c.031.14.047.25.047.438 0 .406-.11.515-.515.515h-3.954v-.953Zm0 0" style="stroke:none"/></symbol><symbol id="q" overflow="visible"><path d="M-2.578-5.64c-.875 0-1.406.062-1.828.234-.953.375-1.516 1.25-1.516 2.328 0 1.61 1.219 2.64 3.11 2.64 1.906 0 3.062-1 3.062-2.624 0-1.313-.75-2.235-2-2.454v.922c.766.25 1.156.766 1.156 1.5a1.61 1.61 0 0 1-.75 1.39c-.328.22-.656.298-1.234.313Zm-.75 4.218c-1.063-.078-1.75-.719-1.75-1.64 0-.938.719-1.594 1.75-1.594Zm0 0" style="stroke:none"/></symbol><symbol id="r" overflow="visible"><path d="M-8.016-2.516.22.094v-.61l-8.235-2.609Zm0 0" style="stroke:none"/></symbol><symbol id="s" overflow="visible"><path d="M-7.531-2.187A1.88 1.88 0 0 0-5.656-.313c1.031 0 1.89-.843 1.89-1.89 0-1.016-.859-1.86-1.859-1.86-1.078 0-1.906.813-1.906 1.875m.765 0c0-.626.5-1.126 1.125-1.126.61 0 1.094.5 1.094 1.11 0 .625-.484 1.125-1.11 1.125-.609 0-1.109-.5-1.109-1.11m-1.03-4.516L.218-2.36v-.72l-8.016-4.343Zm4.25-.86c0 1.032.843 1.86 1.874 1.86A1.86 1.86 0 0 0 .203-7.578a1.867 1.867 0 0 0-1.86-1.875c-1.046 0-1.89.828-1.89 1.89m.78 0c0-.625.485-1.125 1.11-1.125.593 0 1.094.5 1.094 1.11 0 .625-.5 1.125-1.11 1.125a1.1 1.1 0 0 1-1.094-1.11m0 0" style="stroke:none"/></symbol></defs><path d="M0 0h287v232H0z" style="fill:#fff;fill-opacity:1;stroke:none"/><path d="M35.414 202.266h245.402V12.664H35.414Zm0 0" style="stroke:none;fill-rule:nonzero;fill:#fff;fill-opacity:1"/><path d="M249.997 825V508.997M318.168 825V508.997M386.332 825V508.997M454.503 825V508.997M522.667 825V508.997M590.83 825V508.997M659.001 825V508.997m0 316.003H249.997m409.004-39.499H249.997m409.004-39.498H249.997m409.004-39.506H249.997m409.004-39.498H249.997M659.001 627.5H249.997m409.004-39.499H249.997m409.004-39.498H249.997m409.004-39.506H249.997" style="fill:none;stroke-width:.833333;stroke-linecap:butt;stroke-linejoin:round;stroke:#262626;stroke-opacity:.14902;stroke-miterlimit:10" transform="matrix(.6 0 0 .6 -114.584 -292.734)"/><path d="M249.997 825h409.004M249.997 508.997h409.004M249.997 825v-4.089M318.168 825v-4.089M386.332 825v-4.089M454.503 825v-4.089M522.667 825v-4.089M590.83 825v-4.089M659.001 825v-4.089M249.997 508.997v4.095m68.171-4.095v4.095m68.164-4.095v4.095m68.171-4.095v4.095m68.164-4.095v4.095m68.163-4.095v4.095m68.171-4.095v4.095" style="fill:none;stroke-width:.833333;stroke-linecap:square;stroke-linejoin:round;stroke:#262626;stroke-opacity:1;stroke-miterlimit:10" transform="matrix(.6 0 0 .6 -114.584 -292.734)"/><use xlink:href="#a" x="32.416" y="216.466" style="fill:#262626;fill-opacity:1"/><use xlink:href="#b" x="73.316" y="216.466" style="fill:#262626;fill-opacity:1"/><use xlink:href="#c" x="114.216" y="216.466" style="fill:#262626;fill-opacity:1"/><use xlink:href="#d" x="155.116" y="216.466" style="fill:#262626;fill-opacity:1"/><use xlink:href="#e" x="196.016" y="216.466" style="fill:#262626;fill-opacity:1"/><g style="fill:#262626;fill-opacity:1"><use xlink:href="#f" x="234.216" y="216.466"/><use xlink:href="#a" x="239.776" y="216.466"/></g><g style="fill:#262626;fill-opacity:1"><use xlink:href="#f" x="275.116" y="216.466"/><use xlink:href="#b" x="280.676" y="216.466"/></g><g style="fill:#262626;fill-opacity:1"><use xlink:href="#g" x="142.816" y="231.266"/><use xlink:href="#h" x="151.979" y="231.266"/><use xlink:href="#i" x="158.094" y="231.266"/><use xlink:href="#j" x="164.21" y="231.266"/><use xlink:href="#k" x="167.268" y="231.266"/></g><path d="M249.997 825V508.997M659.001 825V508.997M249.997 825h4.095m-4.095-39.499h4.095m-4.095-39.498h4.095m-4.095-39.506h4.095m-4.095-39.498h4.095m-4.095-39.499h4.095m-4.095-39.499h4.095m-4.095-39.498h4.095m-4.095-39.506h4.095M659.001 825h-4.088m4.088-39.499h-4.088m4.088-39.498h-4.088m4.088-39.506h-4.088m4.088-39.498h-4.088m4.088-39.499h-4.088m4.088-39.499h-4.088m4.088-39.498h-4.088m4.088-39.506h-4.088" style="fill:none;stroke-width:.833333;stroke-linecap:square;stroke-linejoin:round;stroke:#262626;stroke-opacity:1;stroke-miterlimit:10" transform="matrix(.6 0 0 .6 -114.584 -292.734)"/><g style="fill:#262626;fill-opacity:1"><use xlink:href="#l" x="14.016" y="206.166"/><use xlink:href="#a" x="17.346" y="206.166"/><use xlink:href="#m" x="22.906" y="206.166"/><use xlink:href="#b" x="25.686" y="206.166"/></g><use xlink:href="#a" x="25.416" y="182.466" style="fill:#262626;fill-opacity:1"/><g style="fill:#262626;fill-opacity:1"><use xlink:href="#a" x="17.016" y="158.766"/><use xlink:href="#m" x="22.576" y="158.766"/><use xlink:href="#b" x="25.356" y="158.766"/></g><g style="fill:#262626;fill-opacity:1"><use xlink:href="#a" x="17.016" y="135.066"/><use xlink:href="#m" x="22.576" y="135.066"/><use xlink:href="#c" x="25.356" y="135.066"/></g><g style="fill:#262626;fill-opacity:1"><use xlink:href="#a" x="17.016" y="111.366"/><use xlink:href="#m" x="22.576" y="111.366"/><use xlink:href="#d" x="25.356" y="111.366"/></g><g style="fill:#262626;fill-opacity:1"><use xlink:href="#a" x="17.016" y="87.666"/><use xlink:href="#m" x="22.576" y="87.666"/><use xlink:href="#e" x="25.356" y="87.666"/></g><use xlink:href="#f" x="25.416" y="63.966" style="fill:#262626;fill-opacity:1"/><g style="fill:#262626;fill-opacity:1"><use xlink:href="#f" x="17.016" y="40.266"/><use xlink:href="#m" x="22.576" y="40.266"/><use xlink:href="#b" x="25.356" y="40.266"/></g><g style="fill:#262626;fill-opacity:1"><use xlink:href="#f" x="17.016" y="16.566"/><use xlink:href="#m" x="22.576" y="16.566"/><use xlink:href="#c" x="25.356" y="16.566"/></g><g style="fill:#262626;fill-opacity:1"><use xlink:href="#n" x="8.016" y="125.766"/><use xlink:href="#o" x="8.016" y="117.824"/><use xlink:href="#p" x="8.016" y="111.708"/><use xlink:href="#q" x="8.016" y="108.65"/><use xlink:href="#r" x="8.016" y="102.534"/><use xlink:href="#s" x="8.016" y="99.476"/></g><g style="fill:#000;fill-opacity:1"><use xlink:href="#t" x="115.816" y="8.016"/><use xlink:href="#u" x="118.258" y="8.016"/><use xlink:href="#i" x="120.7" y="8.016"/><use xlink:href="#v" x="126.816" y="8.016"/><use xlink:href="#w" x="132.932" y="8.016"/><use xlink:href="#x" x="135.99" y="8.016"/><use xlink:href="#k" x="141.489" y="8.016"/><use xlink:href="#y" x="147.605" y="8.016"/><use xlink:href="#z" x="153.721" y="8.016"/><use xlink:href="#j" x="157.384" y="8.016"/><use xlink:href="#w" x="160.442" y="8.016"/><use xlink:href="#h" x="163.5" y="8.016"/><use xlink:href="#A" x="169.616" y="8.016"/><use xlink:href="#w" x="172.674" y="8.016"/><use xlink:href="#B" x="175.732" y="8.016"/><use xlink:href="#C" x="183.674" y="8.016"/><use xlink:href="#B" x="192.231" y="8.016"/></g><path d="m284.086 588.001 34.082-59.251L352.25 825l34.082-59.251h34.082l34.089-39.499 34.082-39.499 34.082 39.499 34.082-39.499 34.082 78.998L624.919 825l34.082-98.75" style="fill:none;stroke-width:.833333;stroke-linecap:butt;stroke-linejoin:round;stroke:#0072bd;stroke-opacity:1;stroke-miterlimit:10" transform="matrix(.6 0 0 .6 -114.584 -292.734)"/></svg>