<svg xmlns="http://www.w3.org/2000/svg" xmlns:xlink="http://www.w3.org/1999/xlink" width="384" height="496pt" viewBox="0 0 288 496"><defs><symbol id="a" overflow="visible"><path d="M2.75-7.234c-.656 0-1.266.297-1.625.797C.656-5.797.438-4.844.438-3.5c0 2.438.796 3.734 2.312 3.734 1.5 0 2.313-1.296 2.313-3.671 0-1.407-.22-2.344-.688-3-.36-.5-.953-.797-1.625-.797m0 .78c.953 0 1.422.97 1.422 2.938C4.172-1.453 3.703-.5 2.734-.5c-.937 0-1.406-1-1.406-2.984 0-2 .469-2.97 1.422-2.97m0 0" style="stroke:none"/></symbol><symbol id="b" overflow="visible"><path d="M1.906-1.047H.875V0h1.031Zm0 0" style="stroke:none"/></symbol><symbol id="c" overflow="visible"><path d="M4.766-7.094H1.094l-.532 3.86h.813c.422-.485.75-.657 1.313-.657.953 0 1.546.657 1.546 1.704 0 1.015-.593 1.64-1.546 1.64-.782 0-1.25-.39-1.454-1.187h-.89c.125.578.219.859.437 1.109.407.547 1.125.86 1.922.86 1.422 0 2.422-1.047 2.422-2.547 0-1.391-.922-2.36-2.281-2.36-.5 0-.906.125-1.313.438l.282-1.985h2.953Zm0 0" style="stroke:none"/></symbol><symbol id="d" overflow="visible"><path d="M2.594-5.156V0h.875v-7.234H2.89c-.313 1.109-.516 1.265-1.875 1.437v.64Zm0 0" style="stroke:none"/></symbol><symbol id="i" overflow="visible"><path d="M2.844-3.125H.454v.719h2.39Zm0 0" style="stroke:none"/></symbol><symbol id="j" overflow="visible"><path d="M5.063-.875H1.328c.094-.594.406-.969 1.281-1.5l1-.562c.985-.547 1.5-1.297 1.5-2.188a2.1 2.1 0 0 0-.656-1.547c-.422-.375-.937-.562-1.61-.562-.905 0-1.577.328-1.968.937-.25.39-.36.844-.375 1.563h.875c.031-.485.094-.782.219-1.016.218-.437.687-.703 1.219-.703.796 0 1.39.578 1.39 1.36 0 .577-.328 1.077-.953 1.437l-.922.531C.844-2.265.422-1.594.344-.015h4.719Zm0 0" style="stroke:none"/></symbol><symbol id="e" overflow="visible"><path d="M2.047-3.453h2.64C5.595-3.453 6-3.016 6-2.031v.719c0 .5.078.984.219 1.312h1.25v-.25C7.079-.516 7-.797 6.984-1.875c-.015-1.312-.218-1.719-1.093-2.078.906-.453 1.265-1 1.265-1.922 0-1.39-.86-2.14-2.437-2.14H1.016V0h1.03Zm0-.906v-2.75h2.469c.578 0 .906.078 1.156.297q.422.35.422 1.078c0 .953-.485 1.375-1.578 1.375Zm0 0" style="stroke:none"/></symbol><symbol id="f" overflow="visible"><path d="M5.89-.531c-.109.015-.156.015-.202.015-.313 0-.5-.171-.5-.453v-3.39c0-1.016-.75-1.563-2.157-1.563-.86 0-1.531.234-1.922.656-.265.297-.375.641-.39 1.204h.922c.078-.704.5-1.016 1.343-1.016.844 0 1.297.297 1.297.86v.234c-.015.39-.218.547-.953.64-1.297.172-1.5.203-1.86.36-.671.28-1 .78-1 1.53C.469-.405 1.189.25 2.36.25c.72 0 1.297-.25 1.954-.844.062.594.343.844.953.844.187 0 .312-.016.625-.094ZM4.282-1.812c0 .312-.093.5-.36.75-.374.343-.827.515-1.374.515-.703 0-1.125-.344-1.125-.922 0-.61.39-.922 1.39-1.062.97-.125 1.157-.172 1.47-.313Zm0 0" style="stroke:none"/></symbol><symbol id="g" overflow="visible"><path d="M2.797-5.766h-.953v-1.578H.937v1.578h-.78v.75h.78v4.36c0 .594.391.906 1.11.906.234 0 .437-.016.75-.078v-.766c-.14.031-.25.047-.438.047-.406 0-.515-.11-.515-.515v-3.954h.953Zm0 0" style="stroke:none"/></symbol><symbol id="h" overflow="visible"><path d="M5.64-2.578c0-.875-.062-1.406-.234-1.828-.375-.953-1.25-1.516-2.328-1.516-1.61 0-2.64 1.219-2.64 3.11 0 1.906 1 3.062 2.625 3.062 1.312 0 2.234-.75 2.453-2h-.922c-.25.766-.766 1.156-1.5 1.156a1.61 1.61 0 0 1-1.39-.75c-.22-.328-.298-.656-.313-1.234Zm-4.218-.75c.078-1.063.719-1.75 1.64-1.75.938 0 1.594.719 1.594 1.75Zm0 0" style="stroke:none"/></symbol><symbol id="s" overflow="visible"><path d="M.766-8.016V0h.922v-3.172c0-1.187.609-1.953 1.562-1.953.297 0 .594.094.813.25.265.203.375.469.375.875v4h.906v-4.36c0-.968-.688-1.562-1.813-1.562-.812 0-1.312.25-1.844.953v-3.047Zm0 0" style="stroke:none"/></symbol><symbol id="t" overflow="visible"><path d="M1.656-5.766H.734V0h.922Zm0-2.25H.72v1.157h.937Zm0 0" style="stroke:none"/></symbol><symbol id="u" overflow="visible"><path d="M4.813-4.156c0-1.14-.75-1.766-2.079-1.766-1.343 0-2.218.688-2.218 1.75 0 .906.468 1.328 1.828 1.656l.86.22c.64.155.89.39.89.796 0 .547-.547.906-1.344.906-.5 0-.906-.14-1.14-.39-.141-.157-.22-.328-.266-.735H.375C.422-.39 1.172.25 2.672.25c1.453 0 2.375-.719 2.375-1.828 0-.86-.484-1.328-1.625-1.594l-.875-.219c-.75-.171-1.078-.421-1.078-.828 0-.531.484-.86 1.219-.86.75 0 1.14.313 1.156.923Zm0 0" style="stroke:none"/></symbol><symbol id="v" overflow="visible"><path d="M2.984-5.922C1.36-5.922.391-4.782.391-2.844.39-.89 1.359.25 3 .25c1.625 0 2.61-1.156 2.61-3.047 0-2-.954-3.125-2.626-3.125M3-5.078c1.031 0 1.656.844 1.656 2.266 0 1.374-.64 2.218-1.656 2.218s-1.64-.843-1.64-2.25c0-1.39.624-2.234 1.64-2.234m0 0" style="stroke:none"/></symbol><symbol id="w" overflow="visible"><path d="M4.438-5.766v.844c-.454-.703-.97-1-1.688-1-1.39 0-2.36 1.297-2.36 3.14 0 .97.22 1.673.72 2.25.437.516.984.782 1.578.782.687 0 1.187-.312 1.671-1.031v.297c0 1.547-.437 2.109-1.578 2.109C2 1.625 1.594 1.313 1.5.656H.578c.078 1.078.922 1.735 2.188 1.735.843 0 1.547-.266 1.922-.735.437-.531.609-1.25.609-2.61v-4.812Zm-1.594.688c.969 0 1.515.812 1.515 2.266 0 1.406-.562 2.218-1.515 2.218s-1.5-.828-1.5-2.25c0-1.406.547-2.234 1.5-2.234m0 0" style="stroke:none"/></symbol><symbol id="x" overflow="visible"><path d="M.766-5.766V0h.922v-2.984c0-1.391.578-2.016 1.843-1.985v-.922c-.156-.03-.25-.03-.36-.03-.593 0-1.03.343-1.562 1.202v-1.047Zm0 0" style="stroke:none"/></symbol><symbol id="y" overflow="visible"><path d="M.766-5.766V0h.922v-3.625c0-.828.609-1.5 1.359-1.5.687 0 1.062.422 1.062 1.156V0h.922v-3.625c0-.828.61-1.5 1.36-1.5.672 0 1.062.422 1.062 1.156V0h.922v-4.328c0-1.031-.594-1.594-1.672-1.594-.766 0-1.219.219-1.766.875-.343-.625-.796-.875-1.546-.875-.766 0-1.297.281-1.782.969v-.813Zm0 0" style="stroke:none"/></symbol><symbol id="A" overflow="visible"><path d="M2.844-5.766h-.969v-.906c0-.375.219-.578.64-.578.079 0 .11 0 .329.016V-8c-.219-.047-.328-.047-.516-.047-.86 0-1.36.485-1.36 1.297v.984H.204v.75H.97V0h.906v-5.016h.969Zm0 0" style="stroke:none"/></symbol><symbol id="B" overflow="visible"><path d="M7.797-4.234H4.453v.906h2.438v.219c0 1.422-1.047 2.453-2.516 2.453-.812 0-1.547-.297-2.016-.813C1.83-2.03 1.5-2.984 1.5-3.984c0-1.97 1.125-3.266 2.828-3.266 1.219 0 2.094.625 2.313 1.656h1.047c-.282-1.625-1.516-2.562-3.36-2.562-.969 0-1.766.265-2.39.781C1-6.609.484-5.375.484-3.922.484-1.469 1.984.25 4.156.25 5.25.25 6.11-.156 6.891-1.016L7.156.047h.64Zm0 0" style="stroke:none"/></symbol><symbol id="C" overflow="visible"><path d="M2.594-8.016C1.5-6.578.797-4.578.797-2.844c0 1.735.703 3.735 1.797 5.172h.61C2.233.766 1.686-1.094 1.686-2.844s.547-3.61 1.516-5.172Zm0 0" style="stroke:none"/></symbol><symbol id="D" overflow="visible"><path d="M.766-5.766V0h.922v-3.172c0-1.187.625-1.953 1.562-1.953.734 0 1.188.438 1.188 1.125v4h.921v-4.36c0-.952-.718-1.562-1.828-1.562-.86 0-1.406.328-1.922 1.125v-.969Zm0 0" style="stroke:none"/></symbol><symbol id="E" overflow="visible"><path d="M1.672-8.016H.75V0h.922Zm0 0" style="stroke:none"/></symbol><symbol id="F" overflow="visible"><path d="M4.875-5.766H.578v.797h3.203L.344-.829V0H5.03v-.797H1.453l3.422-4.156Zm0 0" style="stroke:none"/></symbol><symbol id="G" overflow="visible"><path d="M5.438-8.016H4.53v2.985c-.39-.594-1-.89-1.765-.89-1.5 0-2.485 1.187-2.485 3.03C.281-.953 1.234.25 2.797.25c.797 0 1.344-.297 1.828-1.016V0h.813ZM2.922-5.078c.984 0 1.61.875 1.61 2.266 0 1.328-.641 2.203-1.61 2.203C1.906-.61 1.25-1.5 1.25-2.844s.656-2.234 1.672-2.234m0 0" style="stroke:none"/></symbol><symbol id="H" overflow="visible"><path d="M1.016 2.328C2.125.891 2.813-1.109 2.813-2.844s-.688-3.734-1.797-5.172H.422c.969 1.563 1.5 3.422 1.5 5.172S1.39.766.422 2.328Zm0 0" style="stroke:none"/></symbol><symbol id="k" overflow="visible"><path d="M-3.656-2.016v-3.828h-.89v3.828H-7.11v-4.359h-.907v5.39H0v-1.03Zm0 0" style="stroke:none"/></symbol><symbol id="l" overflow="visible"><path d="M-5.766-.766H0v-.921h-2.984c-1.391 0-2.016-.579-1.985-1.844h-.922c-.03.156-.03.25-.03.36 0 .593.343 1.03 1.202 1.562h-1.047Zm0 0" style="stroke:none"/></symbol><symbol id="m" overflow="visible"><path d="M-2.578-5.64c-.875 0-1.406.062-1.828.234-.953.375-1.516 1.25-1.516 2.328 0 1.61 1.219 2.64 3.11 2.64 1.906 0 3.062-1 3.062-2.624 0-1.313-.75-2.235-2-2.454v.922c.766.25 1.156.766 1.156 1.5a1.61 1.61 0 0 1-.75 1.39c-.328.22-.656.298-1.234.313Zm-.75 4.218c-1.063-.078-1.75-.719-1.75-1.64 0-.938.719-1.594 1.75-1.594Zm0 0" style="stroke:none"/></symbol><symbol id="n" overflow="visible"><path d="M2.39-5.437h-8.156v.812H-5c-.594.422-.922 1.078-.922 1.828 0 1.516 1.234 2.516 3.156 2.516C-.906-.281.25-1.22.25-2.75c0-.797-.281-1.36-.906-1.781H2.39Zm-7.468 2.515c0-.984.875-1.61 2.266-1.61 1.328 0 2.203.641 2.203 1.61 0 1.016-.891 1.672-2.235 1.672s-2.234-.656-2.234-1.672m0 0" style="stroke:none"/></symbol><symbol id="o" overflow="visible"><path d="M0-5.297h-5.766v.906H-2.5c1.188 0 1.953.625 1.953 1.579 0 .718-.437 1.187-1.14 1.187h-4.079v.906h4.454C-.36-.719.25-1.437.25-2.547c0-.86-.297-1.39-1.047-1.937H0Zm0 0" style="stroke:none"/></symbol><symbol id="p" overflow="visible"><path d="M-5.766-.766H0v-.921h-3.172c-1.187 0-1.953-.625-1.953-1.563 0-.734.438-1.187 1.125-1.187h4v-.922h-4.36c-.952 0-1.562.718-1.562 1.828 0 .86.328 1.406 1.125 1.922h-.969Zm0 0" style="stroke:none"/></symbol><symbol id="q" overflow="visible"><path d="M-3.828-5.187c-.563.046-.922.171-1.25.39-.531.39-.844 1.094-.844 1.89 0 1.563 1.219 2.563 3.14 2.563C-.921-.344.25-1.328.25-2.89c0-1.375-.828-2.25-2.234-2.359v.922c.922.156 1.39.625 1.39 1.406 0 1.016-.828 1.625-2.187 1.625-1.438 0-2.297-.594-2.297-1.594 0-.765.453-1.25 1.25-1.359Zm0 0" style="stroke:none"/></symbol><symbol id="r" overflow="visible"><path d="m-5.766-4.266 4.485 1.594-4.485 1.469v.984L.016-2.172l.922.36c.406.156.562.343.562.734 0 .156-.031.281-.062.484h.812c.11-.187.14-.375.14-.61a1.5 1.5 0 0 0-.265-.858c-.219-.297-.453-.454-.922-.626l-6.969-2.578Zm0 0" style="stroke:none"/></symbol><symbol id="I" overflow="visible"><path d="M.625-6.562V0h.75v-2.594c0-.969.5-1.594 1.281-1.594.25 0 .485.063.672.204.203.156.297.39.297.718V0h.75v-3.562c0-.797-.562-1.282-1.484-1.282-.672 0-1.078.203-1.516.782v-2.5Zm0 0" style="stroke:none"/></symbol><symbol id="J" overflow="visible"><path d="M1.344-4.719H.609V0h.735Zm0-1.843h-.75v.953h.75Zm0 0" style="stroke:none"/></symbol><symbol id="K" overflow="visible"><path d="M3.938-3.406c0-.922-.61-1.438-1.704-1.438S.422-4.28.422-3.406c0 .734.375 1.078 1.5 1.36l.703.171c.516.125.719.313.719.64 0 .454-.438.75-1.094.75-.406 0-.75-.124-.937-.312-.11-.14-.172-.281-.22-.61h-.78C.343-.311.953.204 2.188.204c1.187 0 1.937-.578 1.937-1.484 0-.703-.39-1.094-1.328-1.313l-.719-.172c-.61-.156-.875-.343-.875-.687 0-.438.39-.703 1-.703s.922.265.953.75Zm0 0" style="stroke:none"/></symbol><symbol id="L" overflow="visible"><path d="M2.281-4.719h-.765v-1.297h-.75v1.297H.125v.61h.64v3.562c0 .5.329.75.907.75.203 0 .36-.016.61-.062v-.625c-.11.03-.204.03-.36.03-.313 0-.406-.093-.406-.421v-3.234h.765Zm0 0" style="stroke:none"/></symbol><symbol id="M" overflow="visible"><path d="M2.453-4.844c-1.344 0-2.125.938-2.125 2.516C.328-.734 1.11.203 2.453.203c1.328 0 2.14-.937 2.14-2.484 0-1.64-.78-2.563-2.14-2.563m0 .688c.844 0 1.36.687 1.36 1.86 0 1.124-.532 1.812-1.36 1.812S1.11-1.172 1.11-2.328c0-1.14.516-1.828 1.344-1.828m0 0" style="stroke:none"/></symbol><symbol id="N" overflow="visible"><path d="M3.64-4.719v.688c-.374-.563-.796-.813-1.39-.813C1.11-4.844.313-3.78.313-2.28c0 .797.187 1.375.593 1.844.36.421.797.64 1.297.64.563 0 .969-.25 1.36-.844v.25c0 1.25-.344 1.72-1.282 1.72-.64 0-.969-.25-1.047-.782H.47c.078.86.765 1.422 1.797 1.422.687 0 1.265-.235 1.562-.61.36-.437.5-1.03.5-2.14v-3.94Zm-1.312.563c.781 0 1.235.672 1.235 1.86 0 1.14-.454 1.812-1.235 1.812s-1.234-.672-1.234-1.844c0-1.14.453-1.828 1.234-1.828m0 0" style="stroke:none"/></symbol><symbol id="O" overflow="visible"><path d="M.625-4.719V0h.75v-2.453c.016-1.125.484-1.64 1.516-1.61v-.765c-.125-.016-.203-.016-.297-.016-.485 0-.844.282-1.281.985v-.86Zm0 0" style="stroke:none"/></symbol><symbol id="P" overflow="visible"><path d="M4.813-.437c-.079.015-.11.015-.157.015-.265 0-.406-.14-.406-.375v-2.765c0-.844-.61-1.282-1.781-1.282-.688 0-1.235.188-1.563.547-.219.234-.297.516-.328.969h.766c.062-.563.406-.828 1.11-.828.671 0 1.046.25 1.046.703v.187c-.016.329-.172.454-.781.532-1.063.14-1.219.172-1.516.28-.547.235-.828.657-.828 1.267 0 .859.594 1.39 1.547 1.39C2.516.203 3 0 3.532-.484c.046.484.28.687.765.687.172 0 .266-.016.516-.078ZM3.5-1.484c0 .25-.078.406-.297.609a1.6 1.6 0 0 1-1.11.422c-.593 0-.937-.281-.937-.75 0-.5.328-.75 1.14-.86.798-.109.954-.156 1.204-.265Zm0 0" style="stroke:none"/></symbol><symbol id="Q" overflow="visible"><path d="M.625-4.719V0h.766v-2.969c0-.672.484-1.219 1.109-1.219.547 0 .86.329.86.938V0h.765v-2.969c0-.672.484-1.219 1.11-1.219.546 0 .874.344.874.938V0h.75v-3.531c0-.86-.484-1.313-1.375-1.313-.625 0-1 .188-1.437.719-.281-.516-.656-.719-1.281-.719s-1.047.235-1.438.797v-.672Zm0 0" style="stroke:none"/></symbol><symbol id="R" overflow="visible"><path d="M2.328-4.719h-.797v-.734c0-.313.172-.484.532-.484.062 0 .093 0 .265.015v-.625a2 2 0 0 0-.422-.047c-.703 0-1.11.407-1.11 1.078v.797h-.64v.61h.64V0h.735v-4.11h.797Zm0 0" style="stroke:none"/></symbol><symbol id="T" overflow="visible"><path d="M4.234-3.125c-.03-.469-.125-.766-.312-1.031-.328-.438-.89-.688-1.547-.688-1.281 0-2.094 1-2.094 2.563C.281-.75 1.094.203 2.36.203c1.125 0 1.844-.672 1.938-1.828H3.53c-.125.766-.5 1.14-1.14 1.14-.828 0-1.328-.671-1.328-1.796 0-1.172.484-1.875 1.296-1.875.641 0 1.032.375 1.125 1.031Zm0 0" style="stroke:none"/></symbol><symbol id="U" overflow="visible"><path d="M4.344 0v-4.719h-.75v2.672c0 .969-.5 1.594-1.297 1.594-.594 0-.969-.36-.969-.922v-3.344h-.75v3.64c0 .782.594 1.282 1.516 1.282.687 0 1.125-.234 1.562-.86V0Zm0 0" style="stroke:none"/></symbol><symbol id="V" overflow="visible"><path d="m2.563 0 1.812-4.719h-.844L2.203-.89.938-4.719H.094L1.75 0Zm0 0" style="stroke:none"/></symbol><symbol id="W" overflow="visible"><path d="M4.61-2.11c0-.718-.048-1.156-.188-1.5-.297-.78-1.016-1.234-1.906-1.234-1.313 0-2.157.985-2.157 2.547S1.172.203 2.5.203c1.078 0 1.828-.61 2.016-1.64h-.75c-.203.625-.641.953-1.235.953a1.31 1.31 0 0 1-1.14-.61c-.172-.281-.235-.547-.25-1.015Zm-3.454-.609c.063-.875.594-1.437 1.36-1.437.765 0 1.297.593 1.297 1.437Zm0 0" style="stroke:none"/></symbol></defs><path d="M0 0h288v496H0z" style="fill:#fff;fill-opacity:1;stroke:none"/><path d="M35.273 465.664h245.403v-453H35.273Zm0 0" style="stroke:none;fill-rule:nonzero;fill:#fff;fill-opacity:1"/><path d="M313.363 824.997v-755m115.215 755v-755m115.208 755v-755m115.215 755v-755m0 755H249.997m409.004-150.996H249.997m409.004-151.002H249.997m409.004-150.996H249.997M659.001 221H249.997M659.001 69.997H249.997" style="fill:none;stroke-width:.833333;stroke-linecap:butt;stroke-linejoin:round;stroke:#262626;stroke-opacity:.14902;stroke-miterlimit:10" transform="matrix(.6 0 0 .6 -114.725 -29.334)"/><path d="M249.997 824.997h409.004m-345.638 0v-7.545m115.215 7.545v-7.545m115.208 7.545v-7.545m115.215 7.545v-7.545" style="fill:none;stroke-width:.833333;stroke-linecap:square;stroke-linejoin:round;stroke:#262626;stroke-opacity:1;stroke-miterlimit:10" transform="matrix(.6 0 0 .6 -114.725 -29.334)"/><use xlink:href="#a" x="70.295" y="479.866" style="fill:#262626;fill-opacity:1"/><g style="fill:#262626;fill-opacity:1"><use xlink:href="#a" x="135.221" y="479.866"/><use xlink:href="#b" x="140.782" y="479.866"/><use xlink:href="#c" x="143.562" y="479.866"/></g><use xlink:href="#d" x="208.548" y="479.866" style="fill:#262626;fill-opacity:1"/><g style="fill:#262626;fill-opacity:1"><use xlink:href="#d" x="273.475" y="479.866"/><use xlink:href="#b" x="279.035" y="479.866"/><use xlink:href="#c" x="281.815" y="479.866"/></g><g style="fill:#262626;fill-opacity:1"><use xlink:href="#e" x="146.275" y="494.666"/><use xlink:href="#f" x="154.217" y="494.666"/><use xlink:href="#g" x="160.333" y="494.666"/><use xlink:href="#h" x="163.391" y="494.666"/></g><path d="M249.997 824.997v-755m0 755h7.552m-7.552-150.996h7.552m-7.552-151.002h7.552m-7.552-150.996h7.552M249.997 221h7.552m-7.552-151.003h7.552" style="fill:none;stroke-width:.833333;stroke-linecap:square;stroke-linejoin:round;stroke:#262626;stroke-opacity:1;stroke-miterlimit:10" transform="matrix(.6 0 0 .6 -114.725 -29.334)"/><g style="fill:#262626;fill-opacity:1"><use xlink:href="#i" x="13.875" y="469.566"/><use xlink:href="#a" x="17.205" y="469.566"/><use xlink:href="#b" x="22.765" y="469.566"/><use xlink:href="#c" x="25.545" y="469.566"/></g><use xlink:href="#a" x="25.275" y="378.966" style="fill:#262626;fill-opacity:1"/><g style="fill:#262626;fill-opacity:1"><use xlink:href="#a" x="16.875" y="288.366"/><use xlink:href="#b" x="22.435" y="288.366"/><use xlink:href="#c" x="25.215" y="288.366"/></g><use xlink:href="#d" x="25.275" y="197.766" style="fill:#262626;fill-opacity:1"/><g style="fill:#262626;fill-opacity:1"><use xlink:href="#d" x="16.875" y="107.166"/><use xlink:href="#b" x="22.435" y="107.166"/><use xlink:href="#c" x="25.215" y="107.166"/></g><use xlink:href="#j" x="25.275" y="16.566" style="fill:#262626;fill-opacity:1"/><g style="fill:#262626;fill-opacity:1"><use xlink:href="#k" x="7.875" y="265.265"/><use xlink:href="#l" x="7.875" y="258.545"/><use xlink:href="#m" x="7.875" y="254.882"/><use xlink:href="#n" x="7.875" y="248.766"/><use xlink:href="#o" x="7.875" y="242.65"/><use xlink:href="#m" x="7.875" y="236.534"/><use xlink:href="#p" x="7.875" y="230.418"/><use xlink:href="#q" x="7.875" y="224.302"/><use xlink:href="#r" x="7.875" y="218.802"/></g><g style="fill:#000;fill-opacity:1"><use xlink:href="#s" x="81.775" y="8.016"/><use xlink:href="#t" x="87.891" y="8.016"/><use xlink:href="#u" x="90.333" y="8.016"/><use xlink:href="#g" x="95.833" y="8.016"/><use xlink:href="#v" x="98.891" y="8.016"/><use xlink:href="#w" x="105.007" y="8.016"/><use xlink:href="#x" x="111.123" y="8.016"/><use xlink:href="#f" x="114.786" y="8.016"/><use xlink:href="#y" x="120.902" y="8.016"/><use xlink:href="#z" x="130.064" y="8.016"/><use xlink:href="#v" x="133.122" y="8.016"/><use xlink:href="#A" x="139.238" y="8.016"/><use xlink:href="#z" x="142.296" y="8.016"/><use xlink:href="#e" x="145.354" y="8.016"/><use xlink:href="#B" x="153.296" y="8.016"/><use xlink:href="#e" x="161.854" y="8.016"/><use xlink:href="#z" x="169.796" y="8.016"/><use xlink:href="#C" x="172.854" y="8.016"/><use xlink:href="#D" x="176.517" y="8.016"/><use xlink:href="#v" x="182.632" y="8.016"/><use xlink:href="#x" x="188.748" y="8.016"/><use xlink:href="#y" x="192.411" y="8.016"/><use xlink:href="#f" x="201.574" y="8.016"/><use xlink:href="#E" x="207.69" y="8.016"/><use xlink:href="#t" x="210.132" y="8.016"/><use xlink:href="#F" x="212.574" y="8.016"/><use xlink:href="#h" x="218.074" y="8.016"/><use xlink:href="#G" x="224.19" y="8.016"/><use xlink:href="#H" x="230.306" y="8.016"/></g><path d="M80.207 375.066v-120.8H45.645v120.8Zm34.563 0V193.867H80.207v181.2Zm34.566 0v-302H114.77v302Zm69.125-60.402h-34.563v60.402h69.125v-60.402Zm0 0" style="stroke:none;fill-rule:nonzero;fill:#0072bd;fill-opacity:.6"/><path d="M267.283 674.001V472.667h57.604m0 201.334V372.003h57.604" style="fill:none;stroke-width:.833333;stroke-linecap:square;stroke-linejoin:miter;stroke:#000;stroke-opacity:1;stroke-miterlimit:10" transform="matrix(.6 0 0 .6 -114.725 -29.334)"/><path d="M382.49 674.001V170.668h57.612v503.333m0 0h57.604m0 0v-100.67h57.604V674m0-100.67h57.604v100.671" style="fill:none;stroke-width:.833333;stroke-linecap:square;stroke-linejoin:miter;stroke:#000;stroke-opacity:1;stroke-miterlimit:10" transform="matrix(.6 0 0 .6 -114.725 -29.334)"/><path d="m262.673 526.73.378-.75.384-.748.377-.749.385-.749.377-.748.384-.743.378-.748.384-.749.378-.742.384-.749.377-.742.378-.749.384-.742.378-.742.384-.742.377-.742.385-.743.377-.742.384-.742.378-.742.384-.736.378-.742.384-.742.377-.736.378-.742.384-.742.378-.736.384-.736.377-.742.384-.735.378-.743.384-.735.378-.736.384-.742.755-1.472.384-.742.378-.735.384-.736.378-.736.384-.742.377-.736.384-.735.378-.743.384-.735.378-.736.377-.742.384-.736.378-.742.384-.736.378-.742.384-.735.377-.743.385-.742.377-.736.384-.742.755-1.484.385-.742.377-.742.384-.743.378-.742.384-.742.378-.749.384-.742.377-.742.384-.749.378-.748.384-.743.755-1.497.385-.749.377-.748.384-.756.378-.748.384-.75.378-.754.384-.749.377-.755.384-.755.756-1.51.384-.756.377-.755.384-.762.378-.755.384-.762.378-.762.384-.755.377-.762.385-.761.377-.762.378-.768.384-.762.378-.762.384-.768.377-.768.384-.762.378-.768.384-.768.378-.768.384-.769.377-.774.385-.769.377-.768.378-.775.384-.768.377-.775.385-.768.377-.775.384-.774.378-.775.384-.775.378-.775.384-.774.755-1.55.384-.775.378-.774.384-.775.377-.775.384-.781.378-.775.384-.774.378-.775.384-.775.755-1.55.384-.774.378-.775.384-.775.378-.774.384-.775.377-.775.384-.775.378-.768.384-.775.755-1.536.384-.768.378-.768.384-.769.378-.768.384-.762.377-.768.385-.762.377-.761.384-.762.378-.755.384-.762.755-1.51.384-.756.378-.748.384-.749.378-.749.384-.748.377-.743.384-.742.378-.735.384-.743.378-.735.377-.73.385-.729.377-.729.384-.729.378-.723.384-.716.378-.722.384-.71.377-.716.384-.71.756-1.406.384-.697.377-.696.384-.697.378-.684.384-.69.378-.677.384-.683.377-.67.385-.671.377-.671.384-.658.756-1.315.384-.65.377-.645.384-.638.378-.638.384-.632.378-.631.384-.619.377-.618.385-.612.377-.612.378-.6.384-.598.377-.593.385-.586.377-.585.384-.573.378-.573.384-.567.378-.56.384-.553.377-.547.378-.54.384-.54.378-.528.384-.527.377-.515.384-.514.378-.501.384-.502.378-.494.384-.482.378-.482.377-.469.384-.468.378-.456.384-.456.378-.443.384-.442.377-.43.384-.423.378-.417.384-.41.378-.404.384-.39.377-.39.378-.378.384-.372.378-.364.384-.358.377-.352.385-.338.377-.339.384-.325.378-.313.384-.312.378-.3.377-.293.384-.286.378-.28.384-.267.378-.26.384-.254.377-.248.385-.234.377-.228.384-.215.378-.215.377-.202.385-.188.377-.19.384-.175.378-.163.384-.163.378-.15.384-.136.377-.137.384-.117.378-.117.384-.104.378-.098.377-.085.384-.078.378-.071.384-.059.378-.052.384-.039.378-.033.384-.026.377-.013.384-.006h.378l.378.013.384.026.377.032.384.04.378.052.384.058.378.065.384.078.377.092.385.097.377.104.378.118.384.123.377.13.385.144.377.156.384.163.378.169.384.182.378.19.384.194.377.209.378.221.384.228.378.234.384.248.377.254.385.267.377.273.384.28.378.293.384.3.378.312.384.319.377.332.378.338.384.346.378.358.384.364.377.371.384.384.378.398.384.397.378.41.384.423.377.43.378.436.384.45.378.448.384.47.378.468.384.488.377.488.384.502.378.508.384.514.378.527.377.534.384.54.378.554.384.56.378.566.384.573.377.586.385.592.377.606.384.612.378.612.384.631.378.632.377.644.384.651.378.658.384.664.378.677.384.684.377.69.384.696.378.704.384.716.378.716.377.729.384.736.378.742.384.755.762 1.524.378.768.384.781.377.788.384.794.378.8.378.808.384.82.377.82.384.828.378.833.384.846.378.847.384.852.377.866.385.866.377.873.378.885.384.885.377.892.385.899.377.905.384.911.378.918.384.925.378.93.384.932.377.937.384.95.378.951.378.957.384.957.377.97.385.97.377.977.384.983.378.99.384.99.378.995.384 1.003.377 1.002.378 1.016.384 1.01.378 1.021.384 1.022.377 1.03.384 1.034.378 1.035.384 1.042.378 1.042.384 1.048.377 1.048.378 1.055.384 1.061.378 1.061.384 1.068.378 1.068.384 1.074.377 1.074.384 1.08.378 1.082.384 1.08.755 2.175.384 1.093.378 1.094.384 1.1.378 1.1.384 1.101.377 1.1.385 1.107.377 1.107.384 1.113.378 1.113.384 1.114.755 2.226.384 1.12.378 1.12.384 1.12.378 1.12.384 1.12.377 1.125.384 1.127.378 1.12.384 1.126.755 2.252.385 1.127.377 1.126.384 1.126.378 1.127.384 1.132.378 1.127.384 1.126.377 1.126.384 1.127.378 1.126.378 1.12.384 1.126.377 1.12.384 1.126.378 1.12.384 1.12.378 1.12.384 1.12.377 1.113.385 1.113.377 1.113.384 1.113.378 1.114.378 1.107.384 1.106.377 1.1.384 1.1.378 1.101.384 1.1.378 1.094.384 1.094.377 1.087.385 1.087.755 2.162.384 1.08.377 1.075.385 1.074.377 1.068.384 1.06.378 1.062.384 1.061.378 1.055.384 1.048.377 1.048.378 1.042.384 1.042.378 1.028.384 1.035.377 1.023.384 1.022.378 1.022.384 1.009.378 1.01.384 1.002.378 1.002.377.99.384.99.378.989.384.977.378.976.384.964.377.963.384.957.378.957.384.944.378.944.384.938.755 1.849.384.918.378.918.384.905.377.898.385.892.377.892.384.879.378.879.384.866.378.866.377.852.384.853.378.84.384.833.378.834.384.82.377.814.384.814.378.8.384.795.378.787.377.782.385.774.377.762.384.762.378.755.384.742.378.736.384.73.377.728.384.71.378.71.384.703.378.69.377.683.384.678.378.67.384.664.378.658.384.644.377.638.385.632.377.625.384.618.378.612.378.6.384.592.377.586.384.579.378.566.384.56.378.554.384.547.377.54.385.534.377.52.378.515.384.508.377.495.385.494.377.482.384.475.378.47.384.461.378.45.384.449.377.436.378.43.384.423.378.41.384.41.377.397.384.39.378.385.384.378.378.364.384.365.378.351.384.345.377.339.378.332.384.326.378.312.384.313.377.299.384.293.378.286.384.28.378.274.384.267.377.26.378.254.384.247.378.235.384.234.377.222.385.22.377.21.384.208.378.195.384.195.755.365.384.17.378.168.384.157.378.156.384.15.377.136.385.137.377.13.384.124.378.117.384.117.755.209.384.09.378.092.384.085.378.078.384.078.377.065.384.065.378.059.384.052.755.09.384.04.378.032.384.033.378.02.384.026.378.013.384.013.377.006h.762l.378-.006.384-.007.377-.02.384-.012.378-.026.384-.02.378-.033.384-.032.377-.033.385-.039.755-.09.384-.053.377-.052.385-.052.377-.059.384-.065.378-.065.384-.065.378-.072.384-.071.377-.078.384-.079.378-.078.378-.084.384-.085.377-.091.385-.085.377-.09.384-.099.378-.097.384-.098.378-.097.384-.105.755-.208.384-.104.378-.11.384-.111.377-.111.384-.11.378-.118.384-.11.378-.118.384-.117.377-.117.378-.124.384-.117.378-.124.384-.124.378-.117.384-.13.377-.124.384-.123.378-.124.384-.124.378-.13.377-.124.384-.13.378-.13.384-.124.378-.13.384-.13.377-.124.385-.13.377-.13.384-.13.378-.124.384-.13.378-.13.377-.124.384-.13.378-.124.384-.13.378-.124.384-.13.377-.124.384-.124.378-.13.384-.124.755-.247.384-.117.378-.124.384-.124.378-.117.384-.124.378-.117.384-.117.377-.117.384-.117.378-.11.378-.118.384-.11.377-.118.384-.11.378-.111.384-.105.378-.11.384-.104.377-.111.385-.104.377-.104.384-.098.378-.104.377-.098.385-.097.377-.098.384-.098.378-.091.384-.091.378-.091.384-.091.377-.092.384-.084.756-.17.384-.084.377-.085.385-.078.377-.078.384-.078.378-.072.384-.078.378-.071.384-.072.377-.065.378-.072.384-.065.378-.065.384-.059.377-.058.384-.065.378-.052.384-.059.378-.052.384-.052.755-.104.384-.046.378-.045.384-.046.378-.04.384-.038.377-.04.384-.038.378-.033.384-.032.378-.033.384-.032.755-.053.384-.026.378-.02.384-.019.377-.02.385-.019.377-.013.384-.013.378-.013.384-.006.755-.013.384-.007h1.14l.384.007.377.006.384.007.378.013.384.006.378.013.377.02.385.02.377.019.384.02.378.025.384.026.378.027.384.026.377.032.384.033.378.039.384.039.755.078.384.045.378.046.384.046.378.052.384.052.377.052.385.058.377.06.384.058.756.13.384.065.377.072.384.071.378.072.384.078.378.078.384.078.377.078.385.085.377.091.378.085.384.09.377.099.385.09.377.098.384.098.378.104.384.104.378.104.384.111.755.222.384.117.378.117.384.124.377.117.384.123.378.13.384.13.378.131.384.13.378.137.384.137.755.286.384.143.378.15.384.15.377.15.384.156.378.156.384.156.378.163.384.163.377.17.378.162.384.176.378.169.384.176.377.176.385.182.377.182.384.182.378.19.384.188.378.189.377.195.384.195.378.196.384.202.378.201.384.202.377.209.384.208.378.208.384.215.378.215.377.221.385.222.377.221.384.221.378.228.384.228.378.234.384.228.377.235.384.24.378.241.384.241.378.241.377.248.384.247.378.247.384.254.378.254.384.254.377.254.385.26.377.26.384.268.378.26.378.267.384.274.377.267.384.273.378.273.384.274.378.28.384.28.377.28.385.28.755.573.384.286.377.286.385.293.377.293.384.293.378.293.384.3.378.293.384.3.377.299.384.306.378.3.378.305.384.306.377.306.384.306.378.313.384.306.378.312.384.313.378.312.384.32.377.312.378.319.384.312.378.32.384.318.377.32.384.318.378.326.384.319.378.325.384.32.755.65.384.326.378.325.384.326.377.325" style="fill:none;stroke-width:.833333;stroke-linecap:butt;stroke-linejoin:round;stroke:#d95319;stroke-opacity:1;stroke-miterlimit:10" transform="matrix(.6 0 0 .6 -114.725 -29.334)"/><path d="M62.926 379.07a2.749 2.749 0 1 1 0 5.5 2.749 2.749 0 1 1 0-5.5m0-.5a3.25 3.25 0 0 0-3.25 3.25 3.25 3.25 0 1 0 3.25-3.25m34.562.512a2.749 2.749 0 1 1 0 5.5 2.749 2.749 0 1 1 0-5.5m0-.5a3.25 3.25 0 1 0 0 6.5 3.25 3.25 0 0 0 0-6.5M132.05 227.96a2.749 2.749 0 1 1 0 5.5 2.75 2.75 0 0 1-2.75-2.75 2.75 2.75 0 0 1 2.75-2.75m0-.5a3.25 3.25 0 1 0 0 6.5 3.25 3.25 0 0 0 0-6.5m34.567 208.688a2.751 2.751 0 0 1 0 5.5 2.749 2.749 0 1 1 0-5.5m0-.5a3.25 3.25 0 1 0 0 6.5 3.25 3.25 0 0 0 0-6.5m34.563-84.175a2.749 2.749 0 1 1 0 5.5 2.749 2.749 0 1 1 0-5.5m0-.5a3.25 3.25 0 1 0 0 6.5 3.25 3.25 0 0 0 0-6.5m34.562 7.25a2.749 2.749 0 1 1 0 5.5 2.749 2.749 0 1 1 0-5.5m0-.5a3.25 3.25 0 1 0 0 6.5 3.25 3.25 0 0 0 0-6.5m0 0" style="stroke:none;fill-rule:nonzero;fill:#0f0;fill-opacity:1"/><path d="M296.085 674.001v11.257m57.604-11.257v11.276m57.604-11.276V433.41m57.611 240.591v106.387m57.604-106.387v-34.74m57.604 34.74v-23.49" style="fill:none;stroke-width:.833333;stroke-linecap:butt;stroke-linejoin:round;stroke:#0f0;stroke-opacity:1;stroke-miterlimit:10" transform="matrix(.6 0 0 .6 -114.725 -29.334)"/><path d="M272.875 60.664v-40.2h-78v40.2Zm0 0" style="stroke:none;fill-rule:nonzero;fill:#fff;fill-opacity:1"/><g style="fill:#000;fill-opacity:1"><use xlink:href="#I" x="230.193" y="31.651"/><use xlink:href="#J" x="235.197" y="31.651"/><use xlink:href="#K" x="237.195" y="31.651"/><use xlink:href="#L" x="241.695" y="31.651"/><use xlink:href="#M" x="244.197" y="31.651"/><use xlink:href="#N" x="249.201" y="31.651"/><use xlink:href="#O" x="254.205" y="31.651"/><use xlink:href="#P" x="257.202" y="31.651"/><use xlink:href="#Q" x="262.206" y="31.651"/></g><path d="M227.938 32.602V23.5h-30.06v9.102Zm0 0" style="stroke:none;fill-rule:nonzero;fill:#0072bd;fill-opacity:.6"/><path d="M521.007 103.227v-15.17h50.097v15.17Zm0 0" style="fill:none;stroke-width:.833333;stroke-linecap:butt;stroke-linejoin:miter;stroke:#000;stroke-opacity:1;stroke-miterlimit:10" transform="matrix(.6 0 0 .6 -114.725 -29.334)"/><g style="fill:#000;fill-opacity:1"><use xlink:href="#R" x="230.193" y="44.166"/><use xlink:href="#J" x="232.695" y="44.166"/><use xlink:href="#L" x="234.693" y="44.166"/><use xlink:href="#S" x="237.195" y="44.166"/><use xlink:href="#T" x="239.697" y="44.166"/><use xlink:href="#U" x="244.197" y="44.166"/><use xlink:href="#O" x="249.201" y="44.166"/><use xlink:href="#V" x="252.198" y="44.166"/><use xlink:href="#W" x="256.698" y="44.166"/></g><path d="M521.007 116.501h50.097" style="fill:none;stroke-width:.833333;stroke-linecap:butt;stroke-linejoin:round;stroke:#d95319;stroke-opacity:1;stroke-miterlimit:10" transform="matrix(.6 0 0 .6 -114.725 -29.334)"/><g style="fill:#000;fill-opacity:1"><use xlink:href="#W" x="230.193" y="56.681"/><use xlink:href="#O" x="235.197" y="56.681"/><use xlink:href="#O" x="238.194" y="56.681"/><use xlink:href="#M" x="241.191" y="56.681"/><use xlink:href="#O" x="246.195" y="56.681"/></g><path d="M212.91 50.332a2.749 2.749 0 1 1 0 5.5 2.749 2.749 0 1 1 0-5.5m0-.5a3.25 3.25 0 1 0 0 6.5 3.25 3.25 0 0 0 0-6.5m0 0" style="stroke:none;fill-rule:nonzero;fill:#0f0;fill-opacity:1"/><path d="M516 149.997V83h130v66.998Zm0 0" style="fill:none;stroke-width:.833333;stroke-linecap:butt;stroke-linejoin:miter;stroke:#262626;stroke-opacity:1;stroke-miterlimit:10" transform="matrix(.6 0 0 .6 -114.725 -29.334)"/></svg>