<?xml version="1.0" encoding="UTF-8" standalone="no" ?>
<!DOCTYPE svg PUBLIC "-//W3C//DTD SVG 1.1//EN" "http://www.w3.org/Graphics/SVG/1.1/DTD/svg11.dtd">
<!-- Generated by graphviz version 4.0.0 (20220529.0937)
 -->
<!-- Pages: 1 -->
<svg width="194pt" height="128pt" viewBox="0.00 0.00 193.53 128.41" xmlns="http://www.w3.org/2000/svg" xmlns:xlink="http://www.w3.org/1999/xlink">
<g id="graph0" class="graph" transform="scale(1 1) rotate(0) translate(4 124.41)">
<polygon fill="white" stroke="transparent" points="-4,4 -4,-124.41 189.53,-124.41 189.53,4 -4,4" />
<!-- v -->
<g id="node1" class="node">
<title>v</title>
<ellipse fill="none" stroke="black" cx="44.3" cy="-18" rx="18" ry="18" />
<text text-anchor="middle" x="44.3" y="-14.3" font-family="Times New Roman,serif" font-size="14.00">v</text>
</g>
<!-- w -->
<g id="node2" class="node">
<title>w</title>
<ellipse fill="none" stroke="black" cx="18" cy="-73.93" rx="18" ry="18" />
<text text-anchor="middle" x="18" y="-70.23" font-family="Times New Roman,serif" font-size="14.00">w</text>
</g>
<!-- v&#45;&#45;w -->
<g id="edge4" class="edge">
<title>v&#45;&#45;w</title>
<path fill="none" stroke="black" d="M36.55,-34.48C33.16,-41.69 29.18,-50.15 25.78,-57.37" />
</g>
<!-- y -->
<g id="node3" class="node">
<title>y</title>
<ellipse fill="none" stroke="black" cx="101.05" cy="-45.67" rx="18" ry="18" />
<text text-anchor="middle" x="101.05" y="-41.97" font-family="Times New Roman,serif" font-size="14.00">y</text>
</g>
<!-- v&#45;&#45;y -->
<g id="edge5" class="edge">
<title>v&#45;&#45;y</title>
<path fill="none" stroke="black" d="M60.71,-26C68.31,-29.71 77.3,-34.09 84.87,-37.78" />
</g>
<!-- w&#45;&#45;y -->
<g id="edge1" class="edge">
<title>w&#45;&#45;y</title>
<path fill="none" stroke="black" d="M35.21,-68.07C49.46,-63.22 69.62,-56.36 83.86,-51.51" />
</g>
<!-- z -->
<g id="node4" class="node">
<title>z</title>
<ellipse fill="none" stroke="black" cx="149.53" cy="-102.41" rx="18" ry="18" />
<text text-anchor="middle" x="149.53" y="-98.71" font-family="Times New Roman,serif" font-size="14.00">z</text>
</g>
<!-- y&#45;&#45;z -->
<g id="edge2" class="edge">
<title>y&#45;&#45;z</title>
<path fill="none" stroke="black" d="M112.78,-59.4C120.29,-68.2 130.01,-79.57 137.57,-88.41" />
</g>
<!-- z&#45;&#45;z -->
<g id="edge3" class="edge">
<title>z&#45;&#45;z</title>
<path fill="none" stroke="black" d="M166.57,-108.79C176.39,-110.1 185.53,-107.97 185.53,-102.41 185.53,-96.86 176.39,-94.73 166.57,-96.04" />
</g>
<!-- x -->
<g id="node5" class="node">
<title>x</title>
<ellipse fill="none" stroke="black" cx="75.29" cy="-99.87" rx="18" ry="18" />
<text text-anchor="middle" x="75.29" y="-96.17" font-family="Times New Roman,serif" font-size="14.00">x</text>
</g>
<!-- x&#45;&#45;v -->
<g id="edge6" class="edge">
<title>x&#45;&#45;v</title>
<path fill="none" stroke="black" d="M68.87,-82.9C63.55,-68.85 56.03,-48.99 50.71,-34.94" />
</g>
<!-- x&#45;&#45;w -->
<g id="edge7" class="edge">
<title>x&#45;&#45;w</title>
<path fill="none" stroke="black" d="M58.72,-92.36C51.18,-88.95 42.28,-84.92 34.73,-81.5" />
</g>
<!-- x&#45;&#45;y -->
<g id="edge8" class="edge">
<title>x&#45;&#45;y</title>
<path fill="none" stroke="black" d="M83.02,-83.61C86.22,-76.87 89.93,-69.07 93.15,-62.29" />
</g>
<!-- x&#45;&#45;z -->
<g id="edge9" class="edge">
<title>x&#45;&#45;z</title>
<path fill="none" stroke="black" d="M93.64,-100.5C105.15,-100.89 119.92,-101.4 131.39,-101.79" />
</g>
</g>
</svg>
