<svg xmlns="http://www.w3.org/2000/svg" width="194pt" height="128pt" viewBox="0 0 193.53 128.41"><g class="graph"><path fill="#fff" stroke="transparent" d="M0 128.41V0h193.53v128.41z"/><g class="node" transform="translate(4 124.41)"><circle cx="44.3" cy="-18" r="18" fill="none" stroke="#000"/><text x="44.3" y="-14.3" font-family="Times New Roman,serif" font-size="14" text-anchor="middle">v</text></g><g class="node" transform="translate(4 124.41)"><circle cx="18" cy="-73.93" r="18" fill="none" stroke="#000"/><text x="18" y="-70.23" font-family="Times New Roman,serif" font-size="14" text-anchor="middle">w</text></g><g class="edge" transform="translate(4 124.41)"><path fill="none" stroke="#000" d="M36.55-34.48c-3.39-7.21-7.37-15.67-10.77-22.89"/></g><g class="node" transform="translate(4 124.41)"><circle cx="101.05" cy="-45.67" r="18" fill="none" stroke="#000"/><text x="101.05" y="-41.97" font-family="Times New Roman,serif" font-size="14" text-anchor="middle">y</text></g><g class="edge" transform="translate(4 124.41)"><path fill="none" stroke="#000" d="M60.71-26c7.6-3.71 16.59-8.09 24.16-11.78"/></g><g class="edge" transform="translate(4 124.41)"><path fill="none" stroke="#000" d="M35.21-68.07c14.25 4.85 34.41 11.71 48.65 16.56"/></g><g class="node" transform="translate(4 124.41)"><circle cx="149.53" cy="-102.41" r="18" fill="none" stroke="#000"/><text x="149.53" y="-98.71" font-family="Times New Roman,serif" font-size="14" text-anchor="middle">z</text></g><g class="edge" transform="translate(4 124.41)"><path fill="none" stroke="#000" d="M112.78-59.4c7.51-8.8 17.23-20.17 24.79-29.01"/></g><g class="edge" transform="translate(4 124.41)"><path fill="none" stroke="#000" d="M166.57-108.79c9.82-1.31 18.96.82 18.96 6.38 0 5.55-9.14 7.68-18.96 6.37"/></g><g class="node" transform="translate(4 124.41)"><circle cx="75.29" cy="-99.87" r="18" fill="none" stroke="#000"/><text x="75.29" y="-96.17" font-family="Times New Roman,serif" font-size="14" text-anchor="middle">x</text></g><g class="edge" transform="translate(4 124.41)"><path fill="none" stroke="#000" d="M68.87-82.9 50.71-34.94"/></g><g class="edge" transform="translate(4 124.41)"><path fill="none" stroke="#000" d="M58.72-92.36c-7.54 3.41-16.44 7.44-23.99 10.86"/></g><g class="edge" transform="translate(4 124.41)"><path fill="none" stroke="#000" d="M83.02-83.61c3.2 6.74 6.91 14.54 10.13 21.32"/></g><g class="edge" transform="translate(4 124.41)"><path fill="none" stroke="#000" d="M93.64-100.5c11.51-.39 26.28-.9 37.75-1.29"/></g></g></svg>