<?xml version="1.0" encoding="UTF-8" standalone="no" ?>
<svg width="250pt" height="223pt" viewBox="0.00 0.00 250.26 222.63" xmlns="http://www.w3.org/2000/svg" xmlns:xlink="http://www.w3.org/1999/xlink">
<g id="graph0" class="graph" transform="scale(1 1) rotate(0) translate(4 218.63)">
<polygon fill="white" stroke="transparent" points="-4,4 -4,-218.63 246.26,-218.63 246.26,4 -4,4" /><g id="node1" class="node">
<title>1</title>
<ellipse fill="none" stroke="black" cx="224.26" cy="-107.32" rx="18" ry="18" />
<text text-anchor="middle" x="224.26" y="-103.62" font-family="Times New Roman,serif" font-size="14.00">1</text>
</g><g id="node2" class="node">
<title>2</title>
<ellipse fill="none" stroke="black" cx="18" cy="-107.32" rx="18" ry="18" />
<text text-anchor="middle" x="18" y="-103.62" font-family="Times New Roman,serif" font-size="14.00">2</text>
</g><g id="edge1" class="edge">
<title>1&#45;&gt;2</title>
<path fill="none" stroke="blue" d="M206.68,-103.34C170.84,-99.94 89.12,-99.67 45.93,-102.52" />
<polygon fill="blue" stroke="blue" points="45.53,-99.04 35.83,-103.31 46.08,-106.02 45.53,-99.04" />
</g><g id="node5" class="node">
<title>5</title>
<ellipse fill="none" stroke="black" cx="172.7" cy="-18" rx="18" ry="18" />
<text text-anchor="middle" x="172.7" y="-14.3" font-family="Times New Roman,serif" font-size="14.00">5</text>
</g><g id="edge5" class="edge">
<title>1&#45;&gt;5</title>
<path fill="none" stroke="red" stroke-dasharray="1,5" d="M215.05,-91.35C207.27,-77.88 196.02,-58.39 187.06,-42.88" />
<polygon fill="red" stroke="red" points="189.87,-40.74 181.84,-33.83 183.81,-44.24 189.87,-40.74" />
<text text-anchor="middle" x="197.55" y="-70.91" font-family="Times New Roman,serif" font-size="14.00">e</text>
</g><g id="node6" class="node">
<title>6</title>
<ellipse fill="none" stroke="black" cx="172.7" cy="-196.63" rx="18" ry="18" />
<text text-anchor="middle" x="172.7" y="-192.93" font-family="Times New Roman,serif" font-size="14.00">6</text>
</g><g id="edge7" class="edge">
<title>1&#45;&gt;6</title>
<path fill="none" stroke="black" stroke-dasharray="1,5" d="M211,-119.86C201.54,-132.81 189.39,-153.3 181.16,-169.88" />
<polygon fill="black" stroke="black" points="177.91,-168.57 176.82,-179.11 184.25,-171.55 177.91,-168.57" />
</g><g id="node3" class="node">
<title>3</title>
<ellipse fill="none" stroke="black" cx="69.57" cy="-18" rx="18" ry="18" />
<text text-anchor="middle" x="69.57" y="-14.3" font-family="Times New Roman,serif" font-size="14.00">3</text>
</g><g id="edge2" class="edge">
<title>2&#45;&gt;3</title>
<path fill="none" stroke="blue" d="M31.27,-94.77C40.73,-81.82 52.88,-61.33 61.1,-44.75" />
<polygon fill="blue" stroke="blue" points="64.35,-46.06 65.44,-35.52 58.02,-43.08 64.35,-46.06" />
</g><g id="edge10" class="edge">
<title>2&#45;&gt;6</title>
<path fill="none" stroke="black" stroke-dasharray="1,5" d="M33.68,-116.37C60.67,-131.95 116.08,-163.94 148.19,-182.48" />
<polygon fill="black" stroke="black" points="146.56,-185.58 156.97,-187.55 150.06,-179.52 146.56,-185.58" />
</g><g id="node4" class="node">
<title>4</title>
<ellipse fill="none" stroke="black" cx="69.57" cy="-196.63" rx="18" ry="18" />
<text text-anchor="middle" x="69.57" y="-192.93" font-family="Times New Roman,serif" font-size="14.00">4</text>
</g><g id="edge3" class="edge">
<title>3&#45;&gt;4</title>
<path fill="none" stroke="blue" d="M65.32,-35.78C62.28,-66.94 62.01,-131.64 64.51,-168.79" />
<polygon fill="blue" stroke="blue" points="61.03,-169.24 65.33,-178.92 68.01,-168.67 61.03,-169.24" />
</g><g id="edge4" class="edge">
<title>4&#45;&gt;1</title>
<path fill="none" stroke="blue" d="M85.25,-187.58C112.24,-171.99 167.64,-140.01 199.76,-121.46" />
<polygon fill="blue" stroke="blue" points="201.63,-124.43 208.54,-116.39 198.13,-118.36 201.63,-124.43" />
</g><g id="edge12" class="edge">
<title>4&#45;&gt;2</title>
<path fill="none" stroke="black" stroke-dasharray="1,5" d="M60.35,-180.66C52.57,-167.2 41.32,-147.7 32.36,-132.2" />
<polygon fill="black" stroke="black" points="35.17,-130.06 27.14,-123.14 29.11,-133.56 35.17,-130.06" />
</g><g id="edge9" class="edge">
<title>5&#45;&gt;2</title>
<path fill="none" stroke="black" stroke-dasharray="1,5" d="M157.01,-27.06C130.03,-42.64 74.62,-74.62 42.51,-93.17" />
<polygon fill="black" stroke="black" points="40.64,-90.2 33.73,-98.24 44.14,-96.27 40.64,-90.2" />
</g><g id="edge6" class="edge">
<title>5&#45;&gt;3</title>
<path fill="none" stroke="red" stroke-dasharray="1,5" d="M154.26,-18C138.64,-18 115.99,-18 98.04,-18" />
<polygon fill="red" stroke="red" points="97.84,-14.5 87.84,-18 97.84,-21.5 97.84,-14.5" />
</g><g id="edge11" class="edge">
<title>6&#45;&gt;4</title>
<path fill="none" stroke="black" stroke-dasharray="1,5" d="M154.26,-196.63C138.64,-196.63 115.99,-196.63 98.04,-196.63" />
<polygon fill="black" stroke="black" points="97.84,-193.13 87.84,-196.63 97.84,-200.13 97.84,-193.13" />
</g><g id="edge8" class="edge">
<title>6&#45;&gt;5</title>
<path fill="none" stroke="black" stroke-dasharray="1,5" d="M176.94,-178.85C179.99,-147.69 180.26,-82.99 177.76,-45.85" />
<polygon fill="black" stroke="black" points="181.23,-45.39 176.94,-35.71 174.25,-45.96 181.23,-45.39" />
</g>
</g>
</svg>
