<svg xmlns="http://www.w3.org/2000/svg" width="250pt" height="223pt" viewBox="0 0 250.26 222.63"><g class="graph"><path fill="#fff" stroke="transparent" d="M0 222.63V0h250.26v222.63z"/><g class="node" transform="translate(4 218.63)"><circle cx="224.26" cy="-107.32" r="18" fill="none" stroke="#000"/><text x="224.26" y="-103.62" font-family="Times New Roman,serif" font-size="14" text-anchor="middle">1</text></g><g class="node" transform="translate(4 218.63)"><circle cx="18" cy="-107.32" r="18" fill="none" stroke="#000"/><text x="18" y="-103.62" font-family="Times New Roman,serif" font-size="14" text-anchor="middle">2</text></g><g class="edge" transform="translate(4 218.63)"><path fill="none" stroke="#00f" d="M206.68-103.34c-35.84 3.4-117.56 3.67-160.75.82"/><path fill="#00f" stroke="#00f" d="m45.53-99.04-9.7-4.27 10.25-2.71z"/></g><g class="node" transform="translate(4 218.63)"><circle cx="172.7" cy="-18" r="18" fill="none" stroke="#000"/><text x="172.7" y="-14.3" font-family="Times New Roman,serif" font-size="14" text-anchor="middle">5</text></g><g class="edge" transform="translate(4 218.63)"><path fill="none" stroke="red" stroke-dasharray="1,5" d="M215.05-91.35c-7.78 13.47-19.03 32.96-27.99 48.47"/><path fill="red" stroke="red" d="m189.87-40.74-8.03 6.91 1.97-10.41z"/><text x="197.55" y="-70.91" font-family="Times New Roman,serif" font-size="14" text-anchor="middle">e</text></g><g class="node" transform="translate(4 218.63)"><circle cx="172.7" cy="-196.63" r="18" fill="none" stroke="#000"/><text x="172.7" y="-192.93" font-family="Times New Roman,serif" font-size="14" text-anchor="middle">6</text></g><g class="edge" transform="translate(4 218.63)"><path fill="none" stroke="#000" stroke-dasharray="1,5" d="M211-119.86c-9.46-12.95-21.61-33.44-29.84-50.02"/><path stroke="#000" d="m177.91-168.57-1.09-10.54 7.43 7.56z"/></g><g class="node" transform="translate(4 218.63)"><circle cx="69.57" cy="-18" r="18" fill="none" stroke="#000"/><text x="69.57" y="-14.3" font-family="Times New Roman,serif" font-size="14" text-anchor="middle">3</text></g><g class="edge" transform="translate(4 218.63)"><path fill="none" stroke="#00f" d="M31.27-94.77c9.46 12.95 21.61 33.44 29.83 50.02"/><path fill="#00f" stroke="#00f" d="m64.35-46.06 1.09 10.54-7.42-7.56z"/></g><g class="edge" transform="translate(4 218.63)"><path fill="none" stroke="#000" stroke-dasharray="1,5" d="M33.68-116.37c26.99-15.58 82.4-47.57 114.51-66.11"/><path stroke="#000" d="m146.56-185.58 10.41-1.97-6.91 8.03z"/></g><g class="node" transform="translate(4 218.63)"><circle cx="69.57" cy="-196.63" r="18" fill="none" stroke="#000"/><text x="69.57" y="-192.93" font-family="Times New Roman,serif" font-size="14" text-anchor="middle">4</text></g><g class="edge" transform="translate(4 218.63)"><path fill="none" stroke="#00f" d="M65.32-35.78c-3.04-31.16-3.31-95.86-.81-133.01"/><path fill="#00f" stroke="#00f" d="m61.03-169.24 4.3-9.68 2.68 10.25z"/></g><g class="edge" transform="translate(4 218.63)"><path fill="none" stroke="#00f" d="M85.25-187.58c26.99 15.59 82.39 47.57 114.51 66.12"/><path fill="#00f" stroke="#00f" d="m201.63-124.43 6.91 8.04-10.41-1.97z"/></g><g class="edge" transform="translate(4 218.63)"><path fill="none" stroke="#000" stroke-dasharray="1,5" d="M60.35-180.66c-7.78 13.46-19.03 32.96-27.99 48.46"/><path stroke="#000" d="m35.17-130.06-8.03 6.92 1.97-10.42z"/></g><g class="edge" transform="translate(4 218.63)"><path fill="none" stroke="#000" stroke-dasharray="1,5" d="M157.01-27.06c-26.98-15.58-82.39-47.56-114.5-66.11"/><path stroke="#000" d="m40.64-90.2-6.91-8.04 10.41 1.97z"/></g><g class="edge" transform="translate(4 218.63)"><path fill="none" stroke="red" stroke-dasharray="1,5" d="M154.26-18H98.04"/><path fill="red" stroke="red" d="m97.84-14.5-10-3.5 10-3.5z"/></g><g class="edge" transform="translate(4 218.63)"><path fill="none" stroke="#000" stroke-dasharray="1,5" d="M154.26-196.63H98.04"/><path stroke="#000" d="m97.84-193.13-10-3.5 10-3.5z"/></g><g class="edge" transform="translate(4 218.63)"><path fill="none" stroke="#000" stroke-dasharray="1,5" d="M176.94-178.85c3.05 31.16 3.32 95.86.82 133"/><path stroke="#000" d="m181.23-45.39-4.29 9.68-2.69-10.25z"/></g></g></svg>