<svg xmlns="http://www.w3.org/2000/svg" xmlns:xlink="http://www.w3.org/1999/xlink" width="409pt" height="496pt" viewBox="0 0 409 496"><defs><symbol id="a" overflow="visible"><path d="M2.75-7.234c-.656 0-1.266.297-1.625.797C.656-5.797.438-4.844.438-3.5c0 2.438.796 3.734 2.312 3.734 1.5 0 2.313-1.296 2.313-3.671 0-1.407-.22-2.344-.688-3-.36-.5-.953-.797-1.625-.797m0 .78c.953 0 1.422.97 1.422 2.938C4.172-1.453 3.703-.5 2.734-.5c-.937 0-1.406-1-1.406-2.984 0-2 .469-2.97 1.422-2.97m0 0" style="stroke:none"/></symbol><symbol id="b" overflow="visible"><path d="M2.594-5.156V0h.875v-7.234H2.89c-.313 1.109-.516 1.265-1.875 1.437v.64Zm0 0" style="stroke:none"/></symbol><symbol id="c" overflow="visible"><path d="M5.063-.875H1.328c.094-.594.406-.969 1.281-1.5l1-.562c.985-.547 1.5-1.297 1.5-2.188a2.1 2.1 0 0 0-.656-1.547c-.422-.375-.937-.562-1.61-.562-.905 0-1.577.328-1.968.937-.25.39-.36.844-.375 1.563h.875c.031-.485.094-.782.219-1.016.218-.437.687-.703 1.219-.703.796 0 1.39.578 1.39 1.36 0 .577-.328 1.077-.953 1.437l-.922.531C.844-2.265.422-1.594.344-.015h4.719Zm0 0" style="stroke:none"/></symbol><symbol id="d" overflow="visible"><path d="M2.203-3.328h.485c.968 0 1.468.453 1.468 1.312 0 .922-.547 1.47-1.453 1.47-.969 0-1.437-.5-1.5-1.548h-.89c.046.578.14.953.312 1.281C1-.125 1.688.234 2.656.234c1.469 0 2.407-.89 2.407-2.25 0-.921-.36-1.421-1.204-1.718q.985-.423.985-1.5c0-1.25-.797-2-2.157-2C1.267-7.234.5-6.437.47-4.906h.875c.015-.438.062-.688.172-.907.187-.406.64-.64 1.187-.64.781 0 1.25.469 1.25 1.25 0 .5-.187.812-.578.984-.234.094-.562.14-1.172.157Zm0 0" style="stroke:none"/></symbol><symbol id="e" overflow="visible"><path d="M3.266-1.75V0h.89v-1.75h1.047v-.797H4.156v-4.687H3.5L.281-2.687v.937Zm0-.797h-2.22l2.22-3.187Zm0 0" style="stroke:none"/></symbol><symbol id="f" overflow="visible"><path d="M4.766-7.094H1.094l-.532 3.86h.813c.422-.485.75-.657 1.313-.657.953 0 1.546.657 1.546 1.704 0 1.015-.593 1.64-1.546 1.64-.782 0-1.25-.39-1.454-1.187h-.89c.125.578.219.859.437 1.109.407.547 1.125.86 1.922.86 1.422 0 2.422-1.047 2.422-2.547 0-1.391-.922-2.36-2.281-2.36-.5 0-.906.125-1.313.438l.282-1.985h2.953Zm0 0" style="stroke:none"/></symbol><symbol id="g" overflow="visible"><path d="M4.984-5.344c-.171-1.187-.937-1.89-2.015-1.89a2.27 2.27 0 0 0-1.906 1.03c-.438.72-.625 1.595-.625 2.907 0 1.219.156 1.985.593 2.625.375.594 1 .906 1.782.906 1.343 0 2.312-1.015 2.312-2.421 0-1.329-.89-2.266-2.172-2.266-.687 0-1.25.25-1.625.781.016-1.781.578-2.781 1.578-2.781.625 0 1.047.406 1.188 1.11Zm-2.14 1.657c.86 0 1.39.609 1.39 1.562 0 .922-.609 1.578-1.421 1.578s-1.438-.687-1.438-1.61c0-.905.61-1.53 1.469-1.53m0 0" style="stroke:none"/></symbol><symbol id="p" overflow="visible"><path d="M1.906-1.047H.875V0h1.031Zm0 0" style="stroke:none"/></symbol><symbol id="h" overflow="visible"><path d="M2.797-5.766h-.953v-1.578H.937v1.578h-.78v.75h.78v4.36c0 .594.391.906 1.11.906.234 0 .437-.016.75-.078v-.766c-.14.031-.25.047-.438.047-.406 0-.515-.11-.515-.515v-3.954h.953Zm0 0" style="stroke:none"/></symbol><symbol id="i" overflow="visible"><path d="M2.516-8.016-.094.22h.61l2.609-8.235Zm0 0" style="stroke:none"/></symbol><symbol id="j" overflow="visible"><path d="M.766-5.766V0h.922v-3.625c0-.828.609-1.5 1.359-1.5.687 0 1.062.422 1.062 1.156V0h.922v-3.625c0-.828.61-1.5 1.36-1.5.672 0 1.062.422 1.062 1.156V0h.922v-4.328c0-1.031-.594-1.594-1.672-1.594-.766 0-1.219.219-1.766.875-.343-.625-.796-.875-1.546-.875-.766 0-1.297.281-1.782.969v-.813Zm0 0" style="stroke:none"/></symbol><symbol id="k" overflow="visible"><path d="M1.656-5.766H.734V0h.922Zm0-2.25H.72v1.157h.937Zm0 0" style="stroke:none"/></symbol><symbol id="l" overflow="visible"><path d="M.766-5.766V0h.922v-3.172c0-1.187.625-1.953 1.562-1.953.734 0 1.188.438 1.188 1.125v4h.921v-4.36c0-.952-.718-1.562-1.828-1.562-.86 0-1.406.328-1.922 1.125v-.969Zm0 0" style="stroke:none"/></symbol><symbol id="m" overflow="visible"><path d="M5.297 0v-5.766H4.39V-2.5c0 1.188-.625 1.953-1.578 1.953-.72 0-1.188-.437-1.188-1.14v-4.079H.719v4.454C.719-.36 1.438.25 2.547.25c.86 0 1.39-.297 1.937-1.047V0Zm0 0" style="stroke:none"/></symbol><symbol id="n" overflow="visible"><path d="M5.64-2.578c0-.875-.062-1.406-.234-1.828-.375-.953-1.25-1.516-2.328-1.516-1.61 0-2.64 1.219-2.64 3.11 0 1.906 1 3.062 2.625 3.062 1.312 0 2.234-.75 2.453-2h-.922c-.25.766-.766 1.156-1.5 1.156a1.61 1.61 0 0 1-1.39-.75c-.22-.328-.298-.656-.313-1.234Zm-4.218-.75c.078-1.063.719-1.75 1.64-1.75.938 0 1.594.719 1.594 1.75Zm0 0" style="stroke:none"/></symbol><symbol id="o" overflow="visible"><path d="M4.813-4.156c0-1.14-.75-1.766-2.079-1.766-1.343 0-2.218.688-2.218 1.75 0 .906.468 1.328 1.828 1.656l.86.22c.64.155.89.39.89.796 0 .547-.547.906-1.344.906-.5 0-.906-.14-1.14-.39-.141-.157-.22-.328-.266-.735H.375C.422-.39 1.172.25 2.672.25c1.453 0 2.375-.719 2.375-1.828 0-.86-.484-1.328-1.625-1.594l-.875-.219c-.75-.171-1.078-.421-1.078-.828 0-.531.484-.86 1.219-.86.75 0 1.14.313 1.156.923Zm0 0" style="stroke:none"/></symbol><symbol id="t" overflow="visible"><path d="M2.016-3.656h3.828v-.89H2.016V-7.11h4.359v-.907H.985V0h1.03Zm0 0" style="stroke:none"/></symbol><symbol id="u" overflow="visible"><path d="M4.438-5.766v.844c-.454-.703-.97-1-1.688-1-1.39 0-2.36 1.297-2.36 3.14 0 .97.22 1.673.72 2.25.437.516.984.782 1.578.782.687 0 1.187-.312 1.671-1.031v.297c0 1.547-.437 2.109-1.578 2.109C2 1.625 1.594 1.313 1.5.656H.578c.078 1.078.922 1.735 2.188 1.735.843 0 1.547-.266 1.922-.735.437-.531.609-1.25.609-2.61v-4.812Zm-1.594.688c.969 0 1.515.812 1.515 2.266 0 1.406-.562 2.218-1.515 2.218s-1.5-.828-1.5-2.25c0-1.406.547-2.234 1.5-2.234m0 0" style="stroke:none"/></symbol><symbol id="v" overflow="visible"><path d="M2.094-1.14H.954V0h1.14Zm0 0" style="stroke:none"/></symbol><symbol id="x" overflow="visible"><path d="M2.844-5.672V0h.969v-7.953h-.641c-.328 1.219-.547 1.39-2.047 1.578v.703Zm0 0" style="stroke:none"/></symbol><symbol id="q" overflow="visible"><path d="M1.469-.281q0-.076.047-.156L3.594-2.5 1.516-4.578q-.048-.047-.047-.14 0-.06.062-.126a.2.2 0 0 1 .14-.062c.04 0 .095.023.157.062L3.891-2.78l2.062-2.063q.076-.06.14-.062.095.002.141.062.062.048.063.125 0 .095-.047.14L4.172-2.5 6.25-.437a.3.3 0 0 1 .047.156.2.2 0 0 1-.063.14q-.046.048-.14.047-.065 0-.14-.062L3.89-2.22 1.828-.156a.25.25 0 0 1-.156.062.18.18 0 0 1-.14-.062.17.17 0 0 1-.063-.125m0 0" style="stroke:none"/></symbol><symbol id="r" overflow="visible"><path d="M2.266-2.5H.375v.578h1.89Zm0 0" style="stroke:none"/></symbol><symbol id="s" overflow="visible"><path d="M2.61-1.406V0h.703v-1.406h.843v-.625h-.843v-3.75h-.516L.219-2.141v.735Zm0-.625H.843l1.765-2.547Zm0 0" style="stroke:none"/></symbol><symbol id="y" overflow="visible"><path d="M4.453-6.562h-.75v2.437c-.312-.469-.812-.719-1.437-.719-1.235 0-2.032.969-2.032 2.485 0 1.578.782 2.562 2.047 2.562.656 0 1.11-.234 1.5-.828V0h.672ZM2.391-4.156c.797 0 1.312.718 1.312 1.86C3.703-1.22 3.188-.5 2.391-.5c-.828 0-1.375-.719-1.375-1.828 0-1.094.547-1.828 1.375-1.828m0 0" style="stroke:none"/></symbol><symbol id="z" overflow="visible"><path d="M4.813-.437c-.079.015-.11.015-.157.015-.265 0-.406-.14-.406-.375v-2.765c0-.844-.61-1.282-1.781-1.282-.688 0-1.235.188-1.563.547-.219.234-.297.516-.328.969h.766c.062-.563.406-.828 1.11-.828.671 0 1.046.25 1.046.703v.187c-.016.329-.172.454-.781.532-1.063.14-1.219.172-1.516.28-.547.235-.828.657-.828 1.267 0 .859.594 1.39 1.547 1.39C2.516.203 3 0 3.532-.484c.046.484.28.687.765.687.172 0 .266-.016.516-.078ZM3.5-1.484c0 .25-.078.406-.297.609a1.59 1.59 0 0 1-1.11.422c-.593 0-.937-.281-.937-.75 0-.5.328-.75 1.14-.86.798-.109.954-.156 1.204-.265Zm0 0" style="stroke:none"/></symbol><symbol id="A" overflow="visible"><path d="M2.281-4.719h-.765v-1.297h-.75v1.297H.125v.61h.64v3.562c0 .5.329.75.907.75.203 0 .36-.016.61-.062v-.625c-.11.03-.204.03-.36.03-.313 0-.406-.093-.406-.421v-3.234h.765Zm0 0" style="stroke:none"/></symbol><symbol id="B" overflow="visible"><path d="M2.328-4.719h-.797v-.734c0-.313.172-.484.532-.484.062 0 .093 0 .265.015v-.625a2 2 0 0 0-.422-.047c-.703 0-1.11.407-1.11 1.078v.797h-.64v.61h.64V0h.735v-4.11h.797Zm0 0" style="stroke:none"/></symbol><symbol id="C" overflow="visible"><path d="M1.86-3.703V0h.64v-5.203h-.422c-.219.797-.36.906-1.344 1.031v.469Zm0 0" style="stroke:none"/></symbol></defs><path d="M0 0h409v496H0z" style="fill:#fff;fill-opacity:1;stroke:none"/><path d="M18.273 465.934h385.204v-453H18.273Zm0 0" style="stroke:none;fill-rule:nonzero;fill:#fff;fill-opacity:1"/><path d="M249.997 824.999h642.006M249.997 824.999v-7.546M357.003 824.999v-7.546M464.001 824.999v-7.546M571 824.999v-7.546M677.999 824.999v-7.546M784.997 824.999v-7.546M892.003 824.999v-7.546" style="fill:none;stroke-width:.833333;stroke-linecap:square;stroke-linejoin:round;stroke:#262626;stroke-opacity:1;stroke-miterlimit:10" transform="matrix(.6 0 0 .6 -131.725 -29.066)"/><use xlink:href="#a" x="15.275" y="480.134" style="fill:#262626;fill-opacity:1"/><g style="fill:#262626;fill-opacity:1"><use xlink:href="#b" x="76.775" y="480.134"/><use xlink:href="#a" x="82.335" y="480.134"/></g><g style="fill:#262626;fill-opacity:1"><use xlink:href="#c" x="140.975" y="480.134"/><use xlink:href="#a" x="146.535" y="480.134"/></g><g style="fill:#262626;fill-opacity:1"><use xlink:href="#d" x="205.175" y="480.134"/><use xlink:href="#a" x="210.735" y="480.134"/></g><g style="fill:#262626;fill-opacity:1"><use xlink:href="#e" x="269.375" y="480.134"/><use xlink:href="#a" x="274.935" y="480.134"/></g><g style="fill:#262626;fill-opacity:1"><use xlink:href="#f" x="333.575" y="480.134"/><use xlink:href="#a" x="339.135" y="480.134"/></g><g style="fill:#262626;fill-opacity:1"><use xlink:href="#g" x="397.775" y="480.134"/><use xlink:href="#a" x="403.335" y="480.134"/></g><g style="fill:#262626;fill-opacity:1"><use xlink:href="#h" x="188.375" y="494.934"/><use xlink:href="#i" x="191.433" y="494.934"/><use xlink:href="#j" x="194.491" y="494.934"/><use xlink:href="#k" x="203.654" y="494.934"/><use xlink:href="#l" x="206.096" y="494.934"/><use xlink:href="#m" x="212.212" y="494.934"/><use xlink:href="#h" x="218.328" y="494.934"/><use xlink:href="#n" x="221.386" y="494.934"/><use xlink:href="#o" x="227.501" y="494.934"/></g><path d="M249.997 824.999v-755M249.997 824.999h7.552M249.997 749.497h7.552M249.997 674.003h7.552M249.997 598.501h7.552M249.997 523h7.552M249.997 447.499h7.552M249.997 371.997h7.552M249.997 296.503h7.552M249.997 221.001h7.552M249.997 145.5h7.552M249.997 69.999h7.552" style="fill:none;stroke-width:.833333;stroke-linecap:square;stroke-linejoin:round;stroke:#262626;stroke-opacity:1;stroke-miterlimit:10" transform="matrix(.6 0 0 .6 -131.725 -29.066)"/><use xlink:href="#a" x="8.275" y="469.834" style="fill:#262626;fill-opacity:1"/><g style="fill:#262626;fill-opacity:1"><use xlink:href="#a" x="-.125" y="424.534"/><use xlink:href="#p" x="5.435" y="424.534"/><use xlink:href="#f" x="8.215" y="424.534"/></g><use xlink:href="#b" x="8.275" y="379.234" style="fill:#262626;fill-opacity:1"/><g style="fill:#262626;fill-opacity:1"><use xlink:href="#b" x="-.125" y="333.934"/><use xlink:href="#p" x="5.435" y="333.934"/><use xlink:href="#f" x="8.215" y="333.934"/></g><use xlink:href="#c" x="8.275" y="288.634" style="fill:#262626;fill-opacity:1"/><g style="fill:#262626;fill-opacity:1"><use xlink:href="#c" x="-.125" y="243.334"/><use xlink:href="#p" x="5.435" y="243.334"/><use xlink:href="#f" x="8.215" y="243.334"/></g><use xlink:href="#d" x="8.275" y="198.034" style="fill:#262626;fill-opacity:1"/><g style="fill:#262626;fill-opacity:1"><use xlink:href="#d" x="-.125" y="152.734"/><use xlink:href="#p" x="5.435" y="152.734"/><use xlink:href="#f" x="8.215" y="152.734"/></g><use xlink:href="#e" x="8.275" y="107.434" style="fill:#262626;fill-opacity:1"/><g style="fill:#262626;fill-opacity:1"><use xlink:href="#e" x="-.125" y="62.134"/><use xlink:href="#p" x="5.435" y="62.134"/><use xlink:href="#f" x="8.215" y="62.134"/></g><use xlink:href="#f" x="8.275" y="16.834" style="fill:#262626;fill-opacity:1"/><use xlink:href="#q" x="18.275" y="10.534" style="fill:#262626;fill-opacity:1"/><g style="fill:#262626;fill-opacity:1"><use xlink:href="#b" x="26.075" y="10.534"/><use xlink:href="#a" x="31.635" y="10.534"/></g><g style="fill:#262626;fill-opacity:1"><use xlink:href="#r" x="37.475" y="5.734"/><use xlink:href="#s" x="40.139" y="5.734"/></g><g style="fill:#000;fill-opacity:1"><use xlink:href="#t" x="197.075" y="8.284"/><use xlink:href="#k" x="203.796" y="8.284"/><use xlink:href="#u" x="206.238" y="8.284"/><use xlink:href="#v" x="212.354" y="8.284"/><use xlink:href="#w" x="215.412" y="8.284"/><use xlink:href="#x" x="218.47" y="8.284"/></g><path d="M-.003-5.001v10m-5-5h10m-8.535-3.535 7.07 7.07m-7.07 0 7.07-7.07" style="fill:none;stroke-width:.833333;stroke-linecap:butt;stroke-linejoin:miter;stroke:#000;stroke-opacity:1;stroke-miterlimit:10" transform="matrix(.6 0 0 .6 18.275 465.934)"/><path d="M0-5.002v10m-5-5H5m-8.535-3.535 7.07 7.07m-7.07 0 7.07-7.07" style="fill:none;stroke-width:.833333;stroke-linecap:butt;stroke-linejoin:miter;stroke:#000;stroke-opacity:1;stroke-miterlimit:10" transform="matrix(.6 0 0 .6 50.375 350.872)"/><path d="M.003-5V5m-5-5h10m-8.536-3.535 7.07 7.07m-7.07 0 7.07-7.07" style="fill:none;stroke-width:.833333;stroke-linecap:butt;stroke-linejoin:miter;stroke:#000;stroke-opacity:1;stroke-miterlimit:10" transform="matrix(.6 0 0 .6 82.475 270.238)"/><path d="M-.001-4.997v10m-5-5h10m-8.535-3.541 7.07 7.076m-7.07 0 7.07-7.076" style="fill:none;stroke-width:.833333;stroke-linecap:butt;stroke-linejoin:miter;stroke:#000;stroke-opacity:1;stroke-miterlimit:10" transform="matrix(.6 0 0 .6 114.575 206.818)"/><path d="M.001-5.001v10m-5-5h10m-8.535-3.536 7.07 7.07m-7.07 0 7.07-7.07" style="fill:none;stroke-width:.833333;stroke-linecap:butt;stroke-linejoin:miter;stroke:#000;stroke-opacity:1;stroke-miterlimit:10" transform="matrix(.6 0 0 .6 146.675 154.27)"/><path d="M-.003-5V5m-5-5h10m-8.535-3.535 7.07 7.07m-7.07 0 7.07-7.07" style="fill:none;stroke-width:.833333;stroke-linecap:butt;stroke-linejoin:miter;stroke:#000;stroke-opacity:1;stroke-miterlimit:10" transform="matrix(.6 0 0 .6 178.775 115.312)"/><path d="M0-4.998v10m-5-5H5m-8.535-3.536 7.07 7.07m-7.07 0 7.07-7.07" style="fill:none;stroke-width:.833333;stroke-linecap:butt;stroke-linejoin:miter;stroke:#000;stroke-opacity:1;stroke-miterlimit:10" transform="matrix(.6 0 0 .6 210.875 89.944)"/><path d="M.003-5.001v10m-5-5h10m-8.536-3.535 7.07 7.07m-7.07 0 7.07-7.07" style="fill:none;stroke-width:.833333;stroke-linecap:butt;stroke-linejoin:miter;stroke:#000;stroke-opacity:1;stroke-miterlimit:10" transform="matrix(.6 0 0 .6 242.975 70.012)"/><path d="M-.001-5V5m-5-5h10m-8.535-3.536 7.07 7.07m-7.07 0 7.07-7.07" style="fill:none;stroke-width:.833333;stroke-linecap:butt;stroke-linejoin:miter;stroke:#000;stroke-opacity:1;stroke-miterlimit:10" transform="matrix(.6 0 0 .6 275.075 57.328)"/><path d="M.001-4.997v10m-5-5h10m-8.535-3.542 7.07 7.077m-7.07 0 7.07-7.077" style="fill:none;stroke-width:.833333;stroke-linecap:butt;stroke-linejoin:miter;stroke:#000;stroke-opacity:1;stroke-miterlimit:10" transform="matrix(.6 0 0 .6 307.175 50.986)"/><path d="M-.003-5V5m-5-5h10m-8.535-3.535 7.07 7.07m-7.07 0 7.07-7.07" style="fill:none;stroke-width:.833333;stroke-linecap:butt;stroke-linejoin:miter;stroke:#000;stroke-opacity:1;stroke-miterlimit:10" transform="matrix(.6 0 0 .6 339.275 101.722)"/><path d="M0-5V5m-5-5H5m-8.535-3.534 7.07 7.07m-7.07 0 7.07-7.07" style="fill:none;stroke-width:.833333;stroke-linecap:butt;stroke-linejoin:miter;stroke:#000;stroke-opacity:1;stroke-miterlimit:10" transform="matrix(.6 0 0 .6 371.375 45.55)"/><path d="m249.997 824.999 1.29-4.805.644-2.396.638-2.39 1.29-4.765.637-2.37 1.29-4.726.637-2.357.645-2.35.644-2.344.645-2.337.638-2.33 1.289-4.65.638-2.31.644-2.312.645-2.304.644-2.299.638-2.291.645-2.292.645-2.279.638-2.278 1.289-4.531.644-2.26.638-2.252.645-2.253.644-2.24.638-2.239 1.29-4.453.644-2.22.638-2.214.644-2.213.645-2.2.638-2.201.645-2.194.644-2.188.645-2.18.638-2.175 1.289-4.336.638-2.162.644-2.155.645-2.148.638-2.142 1.289-4.27.644-2.123.638-2.123 1.29-4.231.637-2.103.645-2.103 1.29-4.18.637-2.083.645-2.083.644-2.07.638-2.071 1.934-6.172.638-2.044 1.289-4.076.638-2.031.644-2.025 1.29-4.036.637-2.012 1.29-3.997.638-1.999 1.289-3.971.638-1.98.644-1.972.645-1.966.644-1.96.638-1.96.645-1.953.644-1.946.638-1.94 1.29-3.868.644-1.927.638-1.92 1.289-3.828.638-1.901.645-1.901 1.289-3.79.638-1.881.644-1.882.645-1.875.638-1.868.644-1.869 1.29-3.71.637-1.85.645-1.848.644-1.836.638-1.836.645-1.83.644-1.823.639-1.816.644-1.816.645-1.81.644-1.804.638-1.803 1.29-3.58.637-1.785 1.29-3.554.644-1.771.638-1.764 1.289-3.516.638-1.745 1.289-3.49.644-1.731.639-1.732.644-1.725.645-1.719.638-1.719.644-1.712.645-1.706.644-1.699.638-1.693.645-1.692.644-1.687.638-1.686 1.29-3.346.637-1.667 1.29-3.32.644-1.654.638-1.647 1.29-3.281.637-1.634 1.29-3.255.644-1.622.638-1.614 1.289-3.216.638-1.595.644-1.602 1.29-3.177.637-1.582 1.29-3.151.637-1.563.645-1.569 1.29-3.112.637-1.549 1.29-3.086.637-1.53.645-1.536.644-1.524.638-1.523.645-1.517 1.289-3.021.638-1.504 1.289-2.995.638-1.484.644-1.491 1.29-2.956.638-1.471 1.289-2.93.638-1.458 1.289-2.904.644-1.445.638-1.439.645-1.439.644-1.432.638-1.426 1.29-2.838.644-1.413.638-1.413.644-1.406.645-1.4.638-1.393.645-1.393.644-1.387.645-1.38.638-1.38 1.289-2.748.638-1.36.644-1.368.645-1.354.638-1.354.644-1.348 1.29-2.682.637-1.335.645-1.334.645-1.322.638-1.328 1.289-2.63.644-1.309.638-1.308.645-1.296.644-1.302.638-1.289.645-1.29 1.289-2.564.638-1.276 1.289-2.54.638-1.262.644-1.263 1.29-2.5.638-1.25.644-1.244.645-1.237.638-1.237.644-1.23.645-1.224.638-1.224.644-1.218 1.29-2.422.637-1.204.645-1.204.644-1.198.638-1.192.645-1.191.644-1.185.645-1.178.638-1.179 1.29-2.344.637-1.165 1.29-2.318.644-1.152.638-1.146 1.289-2.291.638-1.133 1.289-2.266.644-1.126.638-1.12 1.29-2.227.637-1.113.645-1.107.645-1.1.638-1.1.644-1.094 1.29-2.174.637-1.081.645-1.08.644-1.075.638-1.068 1.29-2.135.644-1.055.638-1.061 1.289-2.096.638-1.042.645-1.042 1.289-2.07.638-1.029.644-1.028.645-1.016.638-1.022.644-1.01.645-1.015.644-1.002.638-1.003.645-1.003.644-.996.638-.99.645-.989.644-.983.645-.977.638-.976.645-.977.644-.97.638-.963.645-.964.644-.957.638-.957 1.29-1.9.644-.945.638-.937.644-.938.645-.93.638-.932 1.289-1.849.644-.918.638-.918.645-.911.645-.905.638-.905.644-.905.645-.898.644-.892.638-.892 1.29-1.771.637-.88.645-.878.644-.872.645-.866.638-.873 1.289-1.718.638-.86.644-.846.645-.853.638-.846 1.29-1.68.644-.833.638-.834 1.289-1.653.638-.82.644-.821 1.29-1.628.637-.807.645-.807.644-.801.638-.8 1.29-1.59.644-.787.638-.781 1.29-1.563.637-.775.645-.774.644-.769.645-.761.638-.768 1.289-1.51.638-.756 1.289-1.497.638-.743.644-.735.645-.743.644-.729.639-.729.644-.729.645-.723.638-.722 1.289-1.433.644-.71.638-.709 1.29-1.406.637-.697 1.29-1.393.644-.69.638-.684 1.289-1.367.638-.677 1.934-2.012.638-.664.644-.664.645-.657.638-.658 1.289-1.302.638-.645 1.289-1.289.644-.638.638-.631 1.29-1.263.637-.625.645-.625 1.29-1.237.637-.619.645-.605.644-.612.638-.606.645-.605 1.289-1.198.638-.592.644-.593.645-.586.638-.586.644-.586.645-.579.644-.573.638-.58.645-.566.645-.573.638-.566 1.933-1.68.638-.553 1.29-1.107.637-.54.645-.547.644-.54.638-.54 1.29-1.069.644-.527.638-.527.644-.528.645-.52.638-.521 1.934-1.543.638-.508.644-.508.645-.501.638-.502.644-.5 1.29-.99.637-.489.645-.488.644-.482.638-.488.645-.475.645-.482.644-.475.638-.47 1.29-.937.637-.468.645-.463.644-.455.638-.456 1.29-.911.644-.45.638-.442.644-.45.645-.442.638-.437 1.934-1.308.638-.43.644-.423.645-.43.638-.423 1.933-1.25.638-.417.645-.41.644-.403.638-.41.645-.404.644-.397.645-.404.638-.397 1.289-.781.638-.39.645-.392.644-.384.638-.377.645-.384 1.289-.756.638-.37 1.289-.743.638-.364 1.289-.73.644-.358.638-.358.645-.351.644-.358.639-.352 1.933-1.035.638-.345 1.29-.677.637-.339 1.934-.996.638-.325.644-.326.645-.319.638-.325.644-.32.645-.312.638-.319.645-.312.644-.306.645-.313.638-.306.644-.3.645-.305.638-.3.644-.3 1.29-.585.637-.293.645-.293.644-.287.638-.286.645-.287 1.289-.56.638-.28 1.29-.546.637-.274.645-.273 1.289-.534.638-.267 1.289-.52.638-.261.644-.254.645-.26.638-.248.644-.254 1.29-.495.637-.247.645-.247.645-.241.638-.241.644-.241 1.29-.469.637-.234.645-.228.644-.234.638-.228.645-.222.644-.228.645-.22.638-.222.644-.215.645-.221.638-.215.644-.215.645-.208.645-.215.638-.209.644-.208.645-.202.638-.202 1.933-.605.638-.195 1.29-.391.637-.189 1.29-.377.637-.19.645-.188 1.289-.365.638-.182.645-.176.644-.182.638-.176.645-.17.644-.175.645-.17.638-.168 1.289-.339.638-.163 1.933-.488.638-.163 1.29-.312.638-.156.644-.15.645-.156.644-.15.638-.15.645-.143.644-.15.638-.143 1.29-.287.637-.136.645-.144 1.289-.273.638-.137.644-.13.645-.137.638-.13.645-.13.644-.124.645-.13.638-.124 1.289-.247.638-.124.644-.117.645-.124.644-.117.638-.117.645-.11.644-.118.638-.11 1.934-.333.638-.11 1.29-.209.637-.104 1.29-.208.637-.098.645-.104 1.289-.195.638-.091.644-.098.645-.091.638-.098.644-.091.645-.085.644-.09.638-.092 1.29-.17.638-.084 1.289-.17.644-.077.638-.085 1.29-.156.637-.078.645-.078.644-.072.645-.078.638-.072 1.289-.143.638-.072.644-.065.645-.071.638-.065.645-.065.644-.072.645-.059.638-.065.644-.065.645-.058.638-.066 1.933-.175.638-.059.645-.052.644-.059.638-.052.645-.052.645-.058.644-.052.638-.046 1.29-.104.637-.046.645-.045.644-.052.645-.046.638-.046.644-.045.645-.04.638-.045.644-.039.645-.045.638-.04 1.934-.117.638-.039.644-.039.645-.032.638-.04 1.933-.097.638-.04.645-.025.644-.033.638-.032.645-.033.644-.026.645-.032.638-.026 1.289-.053.638-.032.645-.02 1.289-.052.638-.026.644-.02.645-.025.638-.02.644-.026 1.29-.039.637-.02 1.29-.039.637-.02 1.29-.038.638-.013.644-.02.645-.013.644-.02.638-.012 1.29-.026.637-.02 1.934-.039.638-.006 1.289-.026.638-.014.644-.006.645-.013.644-.007.639-.013.644-.006.645-.013.638-.007 1.933-.02.638-.006 1.29-.013.637-.006 1.29-.013.637-.007.645-.006h.644l.645-.007.638-.006h.645l.644-.007h.638l.645-.006h.644l.645-.007h.638l.644-.006h1.927l.645-.007h2.571l.638-.006h16.713l.644.006h1.927l.638-.006h5.788l.645-.007h1.927l.638-.006h1.289l.638-.007h.644l.645-.006h.644l.638-.007h.645l.644-.006h.639l1.933-.02h.638l1.29-.013.637-.006 1.934-.02.638-.006.644-.007.645-.013.638-.007.644-.006.645-.013.645-.007.638-.013.644-.006.645-.013.638-.007 1.289-.026.638-.013 1.933-.039.638-.013 1.29-.026.637-.02 1.29-.025.644-.02.638-.02.645-.012.644-.02.638-.02 1.934-.058.638-.02.644-.02.645-.025.638-.02.644-.026.645-.02.644-.025.638-.026.645-.02.644-.026.638-.026.645-.033.645-.026.638-.026.644-.032.645-.026.644-.033.638-.026 1.29-.065.637-.033.645-.032.644-.04.645-.032.638-.032 1.289-.078.638-.033 1.934-.117.638-.046.644-.039.645-.045.638-.04 1.933-.136.638-.046 1.29-.09.637-.053.645-.045.644-.053.638-.052 1.934-.156.638-.052.645-.059.644-.052.638-.058 1.934-.176.638-.065.644-.059.645-.065.638-.058 1.289-.13.644-.072.638-.065.645-.065.645-.072.638-.072 1.933-.215.638-.071 1.29-.156.637-.072.645-.078.644-.085.638-.078.645-.085.644-.078.645-.084.638-.085.644-.085.645-.09.638-.085 1.934-.274" style="fill:none;stroke-width:.833333;stroke-linecap:butt;stroke-linejoin:round;stroke:#000;stroke-opacity:1;stroke-miterlimit:10" transform="matrix(.6 0 0 .6 -131.725 -29.066)"/><path d="M395.676 51.934v-31.2h-56.403v31.2Zm0 0" style="stroke:none;fill-rule:nonzero;fill:#fff;fill-opacity:1"/><g style="fill:#000;fill-opacity:1"><use xlink:href="#y" x="374.619" y="31.889"/><use xlink:href="#z" x="379.623" y="31.889"/><use xlink:href="#A" x="384.627" y="31.889"/><use xlink:href="#z" x="387.129" y="31.889"/></g><path d="M.002-5V5m-5-5h10m-8.535-3.535 7.07 7.07m-7.07 0 7.07-7.07" style="fill:none;stroke-width:.833333;stroke-linecap:butt;stroke-linejoin:miter;stroke:#000;stroke-opacity:1;stroke-miterlimit:10" transform="matrix(.6 0 0 .6 357.323 28.289)"/><use xlink:href="#B" x="374.675" y="44.134" style="fill:#000;fill-opacity:1"/><use xlink:href="#C" x="377.675" y="48.334" style="fill:#000;fill-opacity:1"/><path d="M790.01 119.387h50.137" style="fill:none;stroke-width:.833333;stroke-linecap:butt;stroke-linejoin:round;stroke:#000;stroke-opacity:1;stroke-miterlimit:10" transform="matrix(.6 0 0 .6 -131.725 -29.066)"/><path d="M784.997 134.999V83h94.004v51.999Zm0 0" style="fill:none;stroke-width:.833333;stroke-linecap:butt;stroke-linejoin:miter;stroke:#262626;stroke-opacity:1;stroke-miterlimit:10" transform="matrix(.6 0 0 .6 -131.725 -29.066)"/></svg>