<svg xmlns="http://www.w3.org/2000/svg" xmlns:xlink="http://www.w3.org/1999/xlink" width="410pt" height="496pt" viewBox="0 0 410 496"><defs><symbol id="a" overflow="visible"><path d="M2.75-7.234c-.656 0-1.266.297-1.625.797C.656-5.797.438-4.844.438-3.5c0 2.438.796 3.734 2.312 3.734 1.5 0 2.313-1.296 2.313-3.671 0-1.407-.22-2.344-.688-3-.36-.5-.953-.797-1.625-.797m0 .78c.953 0 1.422.97 1.422 2.938C4.172-1.453 3.703-.5 2.734-.5c-.937 0-1.406-1-1.406-2.984 0-2 .469-2.97 1.422-2.97m0 0" style="stroke:none"/></symbol><symbol id="b" overflow="visible"><path d="M2.594-5.156V0h.875v-7.234H2.89c-.313 1.109-.516 1.265-1.875 1.437v.64Zm0 0" style="stroke:none"/></symbol><symbol id="c" overflow="visible"><path d="M5.063-.875H1.328c.094-.594.406-.969 1.281-1.5l1-.562c.985-.547 1.5-1.297 1.5-2.188a2.1 2.1 0 0 0-.656-1.547c-.422-.375-.937-.562-1.61-.562-.905 0-1.577.328-1.968.937-.25.39-.36.844-.375 1.563h.875c.031-.485.094-.782.219-1.016.218-.437.687-.703 1.219-.703.796 0 1.39.578 1.39 1.36 0 .577-.328 1.077-.953 1.437l-.922.531C.844-2.265.422-1.594.344-.015h4.719Zm0 0" style="stroke:none"/></symbol><symbol id="d" overflow="visible"><path d="M2.203-3.328h.485c.968 0 1.468.453 1.468 1.312 0 .922-.547 1.47-1.453 1.47-.969 0-1.437-.5-1.5-1.548h-.89c.046.578.14.953.312 1.281C1-.125 1.688.234 2.656.234c1.469 0 2.407-.89 2.407-2.25 0-.921-.36-1.421-1.204-1.718q.985-.423.985-1.5c0-1.25-.797-2-2.157-2C1.267-7.234.5-6.437.47-4.906h.875c.015-.438.062-.688.172-.907.187-.406.64-.64 1.187-.64.781 0 1.25.469 1.25 1.25 0 .5-.187.812-.578.984-.234.094-.562.14-1.172.157Zm0 0" style="stroke:none"/></symbol><symbol id="e" overflow="visible"><path d="M3.266-1.75V0h.89v-1.75h1.047v-.797H4.156v-4.687H3.5L.281-2.687v.937Zm0-.797h-2.22l2.22-3.187Zm0 0" style="stroke:none"/></symbol><symbol id="f" overflow="visible"><path d="M4.766-7.094H1.094l-.532 3.86h.813c.422-.485.75-.657 1.313-.657.953 0 1.546.657 1.546 1.704 0 1.015-.593 1.64-1.546 1.64-.782 0-1.25-.39-1.454-1.187h-.89c.125.578.219.859.437 1.109.407.547 1.125.86 1.922.86 1.422 0 2.422-1.047 2.422-2.547 0-1.391-.922-2.36-2.281-2.36-.5 0-.906.125-1.313.438l.282-1.985h2.953Zm0 0" style="stroke:none"/></symbol><symbol id="g" overflow="visible"><path d="M4.984-5.344c-.171-1.187-.937-1.89-2.015-1.89a2.27 2.27 0 0 0-1.906 1.03c-.438.72-.625 1.595-.625 2.907 0 1.219.156 1.985.593 2.625.375.594 1 .906 1.782.906 1.343 0 2.312-1.015 2.312-2.421 0-1.329-.89-2.266-2.172-2.266-.687 0-1.25.25-1.625.781.016-1.781.578-2.781 1.578-2.781.625 0 1.047.406 1.188 1.11Zm-2.14 1.657c.86 0 1.39.609 1.39 1.562 0 .922-.609 1.578-1.421 1.578s-1.438-.687-1.438-1.61c0-.905.61-1.53 1.469-1.53m0 0" style="stroke:none"/></symbol><symbol id="p" overflow="visible"><path d="M1.906-1.047H.875V0h1.031Zm0 0" style="stroke:none"/></symbol><symbol id="h" overflow="visible"><path d="M2.797-5.766h-.953v-1.578H.937v1.578h-.78v.75h.78v4.36c0 .594.391.906 1.11.906.234 0 .437-.016.75-.078v-.766c-.14.031-.25.047-.438.047-.406 0-.515-.11-.515-.515v-3.954h.953Zm0 0" style="stroke:none"/></symbol><symbol id="i" overflow="visible"><path d="M2.516-8.016-.094.22h.61l2.609-8.235Zm0 0" style="stroke:none"/></symbol><symbol id="j" overflow="visible"><path d="M.766-5.766V0h.922v-3.625c0-.828.609-1.5 1.359-1.5.687 0 1.062.422 1.062 1.156V0h.922v-3.625c0-.828.61-1.5 1.36-1.5.672 0 1.062.422 1.062 1.156V0h.922v-4.328c0-1.031-.594-1.594-1.672-1.594-.766 0-1.219.219-1.766.875-.343-.625-.796-.875-1.546-.875-.766 0-1.297.281-1.782.969v-.813Zm0 0" style="stroke:none"/></symbol><symbol id="k" overflow="visible"><path d="M1.656-5.766H.734V0h.922Zm0-2.25H.72v1.157h.937Zm0 0" style="stroke:none"/></symbol><symbol id="l" overflow="visible"><path d="M.766-5.766V0h.922v-3.172c0-1.187.625-1.953 1.562-1.953.734 0 1.188.438 1.188 1.125v4h.921v-4.36c0-.952-.718-1.562-1.828-1.562-.86 0-1.406.328-1.922 1.125v-.969Zm0 0" style="stroke:none"/></symbol><symbol id="m" overflow="visible"><path d="M5.297 0v-5.766H4.39V-2.5c0 1.188-.625 1.953-1.578 1.953-.72 0-1.188-.437-1.188-1.14v-4.079H.719v4.454C.719-.36 1.438.25 2.547.25c.86 0 1.39-.297 1.937-1.047V0Zm0 0" style="stroke:none"/></symbol><symbol id="n" overflow="visible"><path d="M5.64-2.578c0-.875-.062-1.406-.234-1.828-.375-.953-1.25-1.516-2.328-1.516-1.61 0-2.64 1.219-2.64 3.11 0 1.906 1 3.062 2.625 3.062 1.312 0 2.234-.75 2.453-2h-.922c-.25.766-.766 1.156-1.5 1.156a1.61 1.61 0 0 1-1.39-.75c-.22-.328-.298-.656-.313-1.234Zm-4.218-.75c.078-1.063.719-1.75 1.64-1.75.938 0 1.594.719 1.594 1.75Zm0 0" style="stroke:none"/></symbol><symbol id="o" overflow="visible"><path d="M4.813-4.156c0-1.14-.75-1.766-2.079-1.766-1.343 0-2.218.688-2.218 1.75 0 .906.468 1.328 1.828 1.656l.86.22c.64.155.89.39.89.796 0 .547-.547.906-1.344.906-.5 0-.906-.14-1.14-.39-.141-.157-.22-.328-.266-.735H.375C.422-.39 1.172.25 2.672.25c1.453 0 2.375-.719 2.375-1.828 0-.86-.484-1.328-1.625-1.594l-.875-.219c-.75-.171-1.078-.421-1.078-.828 0-.531.484-.86 1.219-.86.75 0 1.14.313 1.156.923Zm0 0" style="stroke:none"/></symbol><symbol id="t" overflow="visible"><path d="M2.016-3.656h3.828v-.89H2.016V-7.11h4.359v-.907H.985V0h1.03Zm0 0" style="stroke:none"/></symbol><symbol id="u" overflow="visible"><path d="M4.438-5.766v.844c-.454-.703-.97-1-1.688-1-1.39 0-2.36 1.297-2.36 3.14 0 .97.22 1.673.72 2.25.437.516.984.782 1.578.782.687 0 1.187-.312 1.671-1.031v.297c0 1.547-.437 2.109-1.578 2.109C2 1.625 1.594 1.313 1.5.656H.578c.078 1.078.922 1.735 2.188 1.735.843 0 1.547-.266 1.922-.735.437-.531.609-1.25.609-2.61v-4.812Zm-1.594.688c.969 0 1.515.812 1.515 2.266 0 1.406-.562 2.218-1.515 2.218s-1.5-.828-1.5-2.25c0-1.406.547-2.234 1.5-2.234m0 0" style="stroke:none"/></symbol><symbol id="v" overflow="visible"><path d="M2.094-1.14H.954V0h1.14Zm0 0" style="stroke:none"/></symbol><symbol id="x" overflow="visible"><path d="M5.563-.953H1.468c.093-.656.437-1.078 1.406-1.672l1.094-.61c1.094-.609 1.656-1.421 1.656-2.39 0-.672-.266-1.281-.734-1.719-.453-.406-1.032-.61-1.766-.61-.984 0-1.734.36-2.156 1.032C.688-6.5.579-6 .547-5.203h.969c.03-.531.093-.86.234-1.125.25-.484.766-.781 1.344-.781.875 0 1.531.64 1.531 1.5 0 .64-.36 1.187-1.047 1.578l-1.015.593C.937-2.5.469-1.75.374-.015h5.188Zm0 0" style="stroke:none"/></symbol><symbol id="q" overflow="visible"><path d="M1.469-.281q0-.076.047-.156L3.594-2.5 1.516-4.578q-.048-.047-.047-.14 0-.06.062-.126a.2.2 0 0 1 .14-.062c.04 0 .095.023.157.062L3.891-2.78l2.062-2.063q.076-.06.14-.062.095.002.141.062.062.048.063.125 0 .095-.047.14L4.172-2.5 6.25-.437a.3.3 0 0 1 .047.156.2.2 0 0 1-.063.14q-.046.048-.14.047-.065 0-.14-.062L3.89-2.22 1.828-.156a.25.25 0 0 1-.156.062.18.18 0 0 1-.14-.062.17.17 0 0 1-.063-.125m0 0" style="stroke:none"/></symbol><symbol id="r" overflow="visible"><path d="M2.266-2.5H.375v.578h1.89Zm0 0" style="stroke:none"/></symbol><symbol id="s" overflow="visible"><path d="M2.61-1.406V0h.703v-1.406h.843v-.625h-.843v-3.75h-.516L.219-2.141v.735Zm0-.625H.843l1.765-2.547Zm0 0" style="stroke:none"/></symbol><symbol id="y" overflow="visible"><path d="M4.453-6.562h-.75v2.437c-.312-.469-.812-.719-1.437-.719-1.235 0-2.032.969-2.032 2.485 0 1.578.782 2.562 2.047 2.562.656 0 1.11-.234 1.5-.828V0h.672ZM2.391-4.156c.797 0 1.312.718 1.312 1.86C3.703-1.22 3.188-.5 2.391-.5c-.828 0-1.375-.719-1.375-1.828 0-1.094.547-1.828 1.375-1.828m0 0" style="stroke:none"/></symbol><symbol id="z" overflow="visible"><path d="M4.813-.437c-.079.015-.11.015-.157.015-.265 0-.406-.14-.406-.375v-2.765c0-.844-.61-1.282-1.781-1.282-.688 0-1.235.188-1.563.547-.219.234-.297.516-.328.969h.766c.062-.563.406-.828 1.11-.828.671 0 1.046.25 1.046.703v.187c-.016.329-.172.454-.781.532-1.063.14-1.219.172-1.516.28-.547.235-.828.657-.828 1.267 0 .859.594 1.39 1.547 1.39C2.516.203 3 0 3.532-.484c.046.484.28.687.765.687.172 0 .266-.016.516-.078ZM3.5-1.484c0 .25-.078.406-.297.609a1.59 1.59 0 0 1-1.11.422c-.593 0-.937-.281-.937-.75 0-.5.328-.75 1.14-.86.798-.109.954-.156 1.204-.265Zm0 0" style="stroke:none"/></symbol><symbol id="A" overflow="visible"><path d="M2.281-4.719h-.765v-1.297h-.75v1.297H.125v.61h.64v3.562c0 .5.329.75.907.75.203 0 .36-.016.61-.062v-.625c-.11.03-.204.03-.36.03-.313 0-.406-.093-.406-.421v-3.234h.765Zm0 0" style="stroke:none"/></symbol><symbol id="B" overflow="visible"><path d="M2.328-4.719h-.797v-.734c0-.313.172-.484.532-.484.062 0 .093 0 .265.015v-.625a2 2 0 0 0-.422-.047c-.703 0-1.11.407-1.11 1.078v.797h-.64v.61h.64V0h.735v-4.11h.797Zm0 0" style="stroke:none"/></symbol><symbol id="C" overflow="visible"><path d="M3.64-.625H.954c.063-.437.297-.703.922-1.094l.719-.406c.719-.39 1.094-.922 1.094-1.562 0-.438-.172-.844-.485-1.11-.297-.281-.672-.406-1.156-.406-.656 0-1.125.219-1.406.672-.188.281-.266.593-.282 1.125H1c.016-.36.063-.563.14-.735a1 1 0 0 1 .891-.515c.563 0 1 .422 1 .984 0 .422-.234.781-.687 1.031l-.672.391C.609-1.64.297-1.14.25 0h3.39Zm0 0" style="stroke:none"/></symbol></defs><path d="M0 0h410v496H0z" style="fill:#fff;fill-opacity:1;stroke:none"/><path d="M18.273 465.934h385.801v-453h-385.8Zm0 0" style="stroke:none;fill-rule:nonzero;fill:#fff;fill-opacity:1"/><path d="M1094.998 824.999h643M1094.998 824.999v-7.546M1202.166 824.999v-7.546M1309.333 824.999v-7.546M1416.501 824.999v-7.546M1523.67 824.999v-7.546M1630.83 824.999v-7.546M1737.999 824.999v-7.546" style="fill:none;stroke-width:.833333;stroke-linecap:square;stroke-linejoin:round;stroke:#262626;stroke-opacity:1;stroke-miterlimit:10" transform="matrix(.6 0 0 .6 -638.725 -29.066)"/><use xlink:href="#a" x="15.275" y="480.134" style="fill:#262626;fill-opacity:1"/><g style="fill:#262626;fill-opacity:1"><use xlink:href="#b" x="76.875" y="480.134"/><use xlink:href="#a" x="82.435" y="480.134"/></g><g style="fill:#262626;fill-opacity:1"><use xlink:href="#c" x="141.175" y="480.134"/><use xlink:href="#a" x="146.735" y="480.134"/></g><g style="fill:#262626;fill-opacity:1"><use xlink:href="#d" x="205.475" y="480.134"/><use xlink:href="#a" x="211.035" y="480.134"/></g><g style="fill:#262626;fill-opacity:1"><use xlink:href="#e" x="269.775" y="480.134"/><use xlink:href="#a" x="275.335" y="480.134"/></g><g style="fill:#262626;fill-opacity:1"><use xlink:href="#f" x="334.075" y="480.134"/><use xlink:href="#a" x="339.635" y="480.134"/></g><g style="fill:#262626;fill-opacity:1"><use xlink:href="#g" x="398.375" y="480.134"/><use xlink:href="#a" x="403.935" y="480.134"/></g><g style="fill:#262626;fill-opacity:1"><use xlink:href="#h" x="188.675" y="494.934"/><use xlink:href="#i" x="191.733" y="494.934"/><use xlink:href="#j" x="194.791" y="494.934"/><use xlink:href="#k" x="203.954" y="494.934"/><use xlink:href="#l" x="206.396" y="494.934"/><use xlink:href="#m" x="212.512" y="494.934"/><use xlink:href="#h" x="218.628" y="494.934"/><use xlink:href="#n" x="221.686" y="494.934"/><use xlink:href="#o" x="227.801" y="494.934"/></g><path d="M1094.998 824.999v-755M1094.998 824.999h7.552M1094.998 749.497h7.552M1094.998 674.003h7.552M1094.998 598.501h7.552M1094.998 523h7.552M1094.998 447.499h7.552M1094.998 371.997h7.552M1094.998 296.503h7.552M1094.998 221.001h7.552M1094.998 145.5h7.552M1094.998 69.999h7.552" style="fill:none;stroke-width:.833333;stroke-linecap:square;stroke-linejoin:round;stroke:#262626;stroke-opacity:1;stroke-miterlimit:10" transform="matrix(.6 0 0 .6 -638.725 -29.066)"/><use xlink:href="#a" x="8.275" y="469.834" style="fill:#262626;fill-opacity:1"/><g style="fill:#262626;fill-opacity:1"><use xlink:href="#a" x="-.125" y="424.534"/><use xlink:href="#p" x="5.435" y="424.534"/><use xlink:href="#f" x="8.215" y="424.534"/></g><use xlink:href="#b" x="8.275" y="379.234" style="fill:#262626;fill-opacity:1"/><g style="fill:#262626;fill-opacity:1"><use xlink:href="#b" x="-.125" y="333.934"/><use xlink:href="#p" x="5.435" y="333.934"/><use xlink:href="#f" x="8.215" y="333.934"/></g><use xlink:href="#c" x="8.275" y="288.634" style="fill:#262626;fill-opacity:1"/><g style="fill:#262626;fill-opacity:1"><use xlink:href="#c" x="-.125" y="243.334"/><use xlink:href="#p" x="5.435" y="243.334"/><use xlink:href="#f" x="8.215" y="243.334"/></g><use xlink:href="#d" x="8.275" y="198.034" style="fill:#262626;fill-opacity:1"/><g style="fill:#262626;fill-opacity:1"><use xlink:href="#d" x="-.125" y="152.734"/><use xlink:href="#p" x="5.435" y="152.734"/><use xlink:href="#f" x="8.215" y="152.734"/></g><use xlink:href="#e" x="8.275" y="107.434" style="fill:#262626;fill-opacity:1"/><g style="fill:#262626;fill-opacity:1"><use xlink:href="#e" x="-.125" y="62.134"/><use xlink:href="#p" x="5.435" y="62.134"/><use xlink:href="#f" x="8.215" y="62.134"/></g><use xlink:href="#f" x="8.275" y="16.834" style="fill:#262626;fill-opacity:1"/><use xlink:href="#q" x="18.275" y="10.534" style="fill:#262626;fill-opacity:1"/><g style="fill:#262626;fill-opacity:1"><use xlink:href="#b" x="26.075" y="10.534"/><use xlink:href="#a" x="31.635" y="10.534"/></g><g style="fill:#262626;fill-opacity:1"><use xlink:href="#r" x="37.475" y="5.734"/><use xlink:href="#s" x="40.139" y="5.734"/></g><g style="fill:#000;fill-opacity:1"><use xlink:href="#t" x="197.376" y="8.284"/><use xlink:href="#k" x="204.097" y="8.284"/><use xlink:href="#u" x="206.539" y="8.284"/><use xlink:href="#v" x="212.654" y="8.284"/><use xlink:href="#w" x="215.712" y="8.284"/><use xlink:href="#x" x="218.77" y="8.284"/></g><path d="M-.002-5.001v10m-5-5h10m-8.536-3.535 7.07 7.07m-7.07 0 7.07-7.07" style="fill:none;stroke-width:.833333;stroke-linecap:butt;stroke-linejoin:miter;stroke:#000;stroke-opacity:1;stroke-miterlimit:10" transform="matrix(.6 0 0 .6 18.275 465.934)"/><path d="M.001-5.002v10m-5-5h10m-8.535-3.535 7.07 7.07m-7.07 0 7.07-7.07" style="fill:none;stroke-width:.833333;stroke-linecap:butt;stroke-linejoin:miter;stroke:#000;stroke-opacity:1;stroke-miterlimit:10" transform="matrix(.6 0 0 .6 50.425 350.872)"/><path d="M-.001-5V5m-5-5h10m-8.535-3.535 7.07 7.07m-7.07 0 7.07-7.07" style="fill:none;stroke-width:.833333;stroke-linecap:butt;stroke-linejoin:miter;stroke:#000;stroke-opacity:1;stroke-miterlimit:10" transform="matrix(.6 0 0 .6 82.575 270.238)"/><path d="M.003-4.997v10m-5-5h10m-8.535-3.541 7.07 7.076m-7.07 0 7.07-7.076" style="fill:none;stroke-width:.833333;stroke-linecap:butt;stroke-linejoin:miter;stroke:#000;stroke-opacity:1;stroke-miterlimit:10" transform="matrix(.6 0 0 .6 114.725 206.818)"/><path d="M0-5.001v10m-5-5H5m-8.535-3.536 7.07 7.07m-7.07 0 7.07-7.07" style="fill:none;stroke-width:.833333;stroke-linecap:butt;stroke-linejoin:miter;stroke:#000;stroke-opacity:1;stroke-miterlimit:10" transform="matrix(.6 0 0 .6 146.875 154.27)"/><path d="M-.002-5V5m-5-5h10m-8.536-3.535 7.07 7.07m-7.07 0 7.07-7.07" style="fill:none;stroke-width:.833333;stroke-linecap:butt;stroke-linejoin:miter;stroke:#000;stroke-opacity:1;stroke-miterlimit:10" transform="matrix(.6 0 0 .6 179.025 115.312)"/><path d="M.001-4.998v10m-5-5h10m-8.535-3.536 7.07 7.07m-7.07 0 7.07-7.07" style="fill:none;stroke-width:.833333;stroke-linecap:butt;stroke-linejoin:miter;stroke:#000;stroke-opacity:1;stroke-miterlimit:10" transform="matrix(.6 0 0 .6 211.175 89.944)"/><path d="M-.001-5.001v10m-5-5h10m-8.535-3.535 7.07 7.07m-7.07 0 7.07-7.07" style="fill:none;stroke-width:.833333;stroke-linecap:butt;stroke-linejoin:miter;stroke:#000;stroke-opacity:1;stroke-miterlimit:10" transform="matrix(.6 0 0 .6 243.325 70.012)"/><path d="M.003-5V5m-5-5h10m-8.535-3.536 7.07 7.07m-7.07 0 7.07-7.07" style="fill:none;stroke-width:.833333;stroke-linecap:butt;stroke-linejoin:miter;stroke:#000;stroke-opacity:1;stroke-miterlimit:10" transform="matrix(.6 0 0 .6 275.475 57.328)"/><path d="M0-4.997v10m-5-5H5m-8.535-3.542 7.07 7.077m-7.07 0 7.07-7.077" style="fill:none;stroke-width:.833333;stroke-linecap:butt;stroke-linejoin:miter;stroke:#000;stroke-opacity:1;stroke-miterlimit:10" transform="matrix(.6 0 0 .6 307.625 50.986)"/><path d="M-.002-5V5m-5-5h10m-8.536-3.535 7.07 7.07m-7.07 0 7.07-7.07" style="fill:none;stroke-width:.833333;stroke-linecap:butt;stroke-linejoin:miter;stroke:#000;stroke-opacity:1;stroke-miterlimit:10" transform="matrix(.6 0 0 .6 339.775 101.722)"/><path d="M.002-5V5m-5-5h10m-8.536-3.534 7.07 7.07m-7.07 0 7.07-7.07" style="fill:none;stroke-width:.833333;stroke-linecap:butt;stroke-linejoin:miter;stroke:#000;stroke-opacity:1;stroke-miterlimit:10" transform="matrix(.6 0 0 .6 371.925 45.55)"/><path d="m1094.998 822.303 1.289-4.765 1.289-4.74.644-2.363.645-2.357.638-2.357 1.289-4.687 1.289-4.662.644-2.324.645-2.318.638-2.31.645-2.312 1.289-4.596.644-2.292.645-2.285.644-2.279.645-2.272.638-2.266.644-2.265.645-2.26 1.933-6.738.645-2.233.638-2.226.644-2.227.645-2.22.645-2.213.644-2.207.645-2.2.644-2.195.638-2.194.645-2.187.644-2.181.645-2.175 1.289-4.336 1.289-4.31.638-2.148.644-2.142 1.29-4.27 1.289-4.246.644-2.116.638-2.109.645-2.11 1.289-4.192.644-2.09.645-2.083.644-2.077.638-2.07.645-2.07.644-2.064.645-2.058 1.289-4.101 1.289-4.076.638-2.031.645-2.025 1.289-4.036.644-2.012.645-2.005.644-1.999.638-1.992.645-1.992.644-1.986.645-1.98.644-1.972 1.29-3.932.637-1.96.645-1.953.645-1.946 1.289-3.88.644-1.934.645-1.927.644-1.92.638-1.921 1.934-5.723 1.289-3.79.644-1.88.638-1.889.645-1.875 1.289-3.737.645-1.862 1.289-3.71.638-1.843.644-1.843 1.29-3.671 1.288-3.646 1.29-3.633.637-1.803.645-1.804.644-1.797 1.29-3.58.644-1.784.645-1.778.638-1.77.644-1.771 1.934-5.274 1.289-3.49.638-1.738 1.289-3.463.644-1.725.645-1.72 1.289-3.424.644-1.705.638-1.7 1.29-3.385.644-1.686.645-1.68 1.289-3.346.638-1.667 1.289-3.32.644-1.647.645-1.654.644-1.64.645-1.635.638-1.634.644-1.634 1.29-3.242.644-1.615 1.29-3.216.644-1.601.638-1.595 1.289-3.178.644-1.582 1.29-3.15.644-1.57.638-1.562 1.289-3.112 1.289-3.1 1.289-3.072.638-1.536 1.29-3.047 1.288-3.034.645-1.504.644-1.51.645-1.498.638-1.497.644-1.491 1.29-2.969.644-1.478.644-1.471.645-1.465.638-1.465.645-1.465 1.289-2.903 1.289-2.891.644-1.432.638-1.44 1.29-2.85.644-1.42 1.289-2.825 1.289-2.813.638-1.393.644-1.4 1.29-2.773.644-1.38 1.29-2.748.637-1.367.645-1.367.644-1.354.645-1.361 1.289-2.695.644-1.342.638-1.34.645-1.329.644-1.335 1.29-2.643 1.289-2.63.644-1.309.638-1.302.645-1.302.644-1.295 1.29-2.578 1.288-2.566.638-1.269.645-1.276 1.289-2.526 1.289-2.513.645-1.25.638-1.244.644-1.243 1.29-2.474.644-1.23.644-1.225 1.29-2.434.637-1.218.645-1.21.644-1.205 1.29-2.396 1.288-2.383.638-1.185 1.29-2.357 1.289-2.343.644-1.166.645-1.158.638-1.16 1.289-2.304.644-1.146 1.29-2.279 1.288-2.265.638-1.12.645-1.126.644-1.114.645-1.12 1.29-2.213.644-1.1.638-1.1 1.289-2.188.644-1.087 1.29-2.162.644-1.074.638-1.074.644-1.068 1.934-3.183 1.934-3.145.638-1.042 1.933-3.105 1.934-3.066.638-1.016 1.289-2.018 1.289-2.005 1.289-1.993.638-.99 1.29-1.965 1.288-1.953 1.29-1.94.644-.964.638-.964.644-.957 1.29-1.9 1.288-1.889.645-.937.638-.938 1.289-1.862.645-.924 1.933-2.754.638-.912 1.29-1.81 1.288-1.796 1.29-1.784.644-.886.638-.879 1.289-1.757.644-.873 1.934-2.597.638-.86 1.29-1.706 1.288-1.692 1.29-1.68.637-.833.645-.834 1.289-1.653 1.289-1.64 1.289-1.628.638-.808.645-.807.644-.8.645-.795.644-.8 1.29-1.576.637-.788 1.29-1.563 1.288-1.55.645-.767.644-.762.638-.762.645-.762 1.29-1.51 1.288-1.497 1.29-1.485.637-.735.645-.736 1.289-1.458 1.289-1.446.644-.716.638-.716 1.934-2.129.645-.703 1.289-1.393.638-.697.644-.69 1.934-2.05 1.289-1.355.644-.67.638-.671 1.934-1.992.644-.651.645-.658.645-.65.638-.652.644-.644.645-.638.644-.645.645-.632.644-.638.645-.625.638-.631.644-.625 1.934-1.856 1.289-1.223.645-.606.638-.605.644-.606.645-.599 1.933-1.777.645-.586.638-.586 1.933-1.738.645-.573.644-.567.645-.573.638-.56.644-.566.645-.56 1.934-1.66 1.289-1.094.638-.547.644-.54 1.934-1.601 1.289-1.055.638-.528 1.289-1.041 1.289-1.029 1.29-1.015.637-.508 1.934-1.504 1.289-.99 1.289-.976.638-.482 1.289-.964 1.933-1.425.645-.47.638-.468 1.934-1.387 1.289-.911.644-.45.638-.449.645-.449 1.933-1.328 1.29-.872.644-.43.638-.43.645-.43 1.933-1.269 1.29-.833.637-.41 1.29-.82.644-.404.644-.41 1.29-.795.637-.397.645-.397 1.934-1.172 1.289-.768.644-.378.638-.377 1.29-.756.644-.37.644-.365.645-.371.644-.365.638-.364 1.934-1.075 1.934-1.054.638-.345 1.289-.69 1.933-1.016 1.29-.664.637-.332 2.578-1.302.645-.32.644-.312.639-.319 1.289-.625 2.578-1.224.638-.3 1.289-.598 1.933-.88 1.29-.572.637-.287.645-.28.645-.286.644-.273.645-.28 1.289-.547.638-.274 2.578-1.067 1.289-.521.638-.254.644-.26 1.29-.508 2.578-.99.638-.24 1.933-.723 1.934-.704.638-.227 1.933-.684 1.934-.664.638-.215.645-.221.644-.215.645-.208.644-.215 1.934-.625.638-.202 1.933-.606 1.934-.586.638-.195.645-.189.644-.195.645-.182.644-.189.645-.182.644-.19.638-.181.645-.176.644-.182 1.934-.528 1.289-.338.638-.17 1.289-.338 2.578-.651.638-.156 1.934-.47 1.289-.299.644-.156.638-.143.645-.15 3.223-.716.644-.137.638-.137 1.29-.273 2.577-.52.638-.131.645-.124.644-.13.645-.124.644-.117.645-.123.644-.118.639-.123.644-.118.645-.11 1.289-.235 1.933-.332.638-.104.645-.11 3.222-.521.638-.098 2.579-.39 1.289-.183.638-.091 1.933-.273 1.29-.17.644-.09.644-.086.638-.078.645-.084.644-.078.645-.085 1.29-.156.644-.072.638-.078.644-.072.645-.078 1.933-.215.645-.065.638-.071 1.289-.13.644-.072.645-.059 1.289-.13.645-.059.638-.065 2.578-.234.644-.052.645-.059.638-.052 3.867-.312.638-.046 3.867-.273.645-.04.638-.045 3.867-.234.638-.033.644-.039.645-.032.645-.04 1.933-.097.638-.033.645-.026.644-.032.645-.026.644-.033 1.29-.052.644-.033.638-.026.644-.02 1.934-.077.645-.02.644-.026.638-.02 1.29-.038.644-.026.644-.02.645-.013.644-.02.638-.02.645-.019.644-.013.645-.02 1.289-.025.644-.02.645-.013.638-.013 2.578-.052.645-.006.644-.013.638-.013.645-.007.644-.013 1.29-.013.644-.013.644-.007.638-.006 3.868-.04h.644l.638-.006.645-.006h.644l.645-.007h.644l.645-.006h.644l.638-.007h1.934l.645-.006h5.15l.644.006h2.571l.645.007h1.289l.645.006h.638l.644.007h1.29l.644.006h.644l.645.007h.638l1.289.013h.644l.645.006h.644l1.29.013h.637l.645.007h.645l1.289.013h.644l.645.007.638.006h.644l1.29.013h.644l.644.007h.645l.644.006.638.007h.645l.645.006h.644l1.29.013h.644l.638.007h.644l.645.006h.644l.645.007h1.289l.638.006h.644l.645.007h1.934l.644.006h8.366l.644-.006h1.283l.645-.007h.644l.645-.006h.644l1.29-.013h.644l.638-.007 3.867-.039.638-.006.644-.007.645-.013 1.29-.013.644-.013.644-.007.638-.013.645-.013.644-.006 2.578-.052.638-.013.645-.02 1.289-.026.645-.02.644-.012.645-.02.644-.013.638-.02 3.223-.097.644-.026.638-.02.645-.02 1.289-.051.644-.02 1.934-.078.638-.026.645-.033 1.289-.052 1.289-.065.644-.026.638-.032 1.29-.065.644-.04 1.289-.065.644-.039.638-.032 3.223-.195.645-.046.644-.04.638-.045.645-.045.644-.04 1.29-.09.644-.053.644-.045.638-.046 3.868-.312.638-.052 1.289-.117.644-.053.645-.058.644-.065.645-.059.638-.058.644-.066.645-.058 1.934-.195.644-.072.645-.065.638-.072.644-.065 1.934-.215.644-.078.645-.071.638-.079 1.289-.156" style="fill:none;stroke-width:.833333;stroke-linecap:butt;stroke-linejoin:round;stroke:#000;stroke-opacity:1;stroke-miterlimit:10" transform="matrix(.6 0 0 .6 -638.725 -29.066)"/><path d="M396.273 51.934v-31.2h-56.398v31.2Zm0 0" style="stroke:none;fill-rule:nonzero;fill:#fff;fill-opacity:1"/><g style="fill:#000;fill-opacity:1"><use xlink:href="#y" x="375.219" y="31.889"/><use xlink:href="#z" x="380.223" y="31.889"/><use xlink:href="#A" x="385.227" y="31.889"/><use xlink:href="#z" x="387.729" y="31.889"/></g><path d="M-.002-5V5m-5-5h10m-8.535-3.535 7.07 7.07m-7.07 0 7.07-7.07" style="fill:none;stroke-width:.833333;stroke-linecap:butt;stroke-linejoin:miter;stroke:#000;stroke-opacity:1;stroke-miterlimit:10" transform="matrix(.6 0 0 .6 357.923 28.289)"/><use xlink:href="#B" x="375.275" y="44.134" style="fill:#000;fill-opacity:1"/><use xlink:href="#C" x="378.275" y="48.334" style="fill:#000;fill-opacity:1"/><path d="M1636.013 119.387h50.13" style="fill:none;stroke-width:.833333;stroke-linecap:butt;stroke-linejoin:round;stroke:#000;stroke-opacity:1;stroke-miterlimit:10" transform="matrix(.6 0 0 .6 -638.725 -29.066)"/><path d="M1631 134.999V83h93.998v51.999Zm0 0" style="fill:none;stroke-width:.833333;stroke-linecap:butt;stroke-linejoin:miter;stroke:#262626;stroke-opacity:1;stroke-miterlimit:10" transform="matrix(.6 0 0 .6 -638.725 -29.066)"/></svg>