<svg xmlns="http://www.w3.org/2000/svg" xmlns:xlink="http://www.w3.org/1999/xlink" width="410pt" height="496pt" viewBox="0 0 410 496"><defs><symbol id="a" overflow="visible"><path d="M2.75-7.234c-.656 0-1.266.297-1.625.797C.656-5.797.438-4.844.438-3.5c0 2.438.796 3.734 2.312 3.734 1.5 0 2.313-1.296 2.313-3.671 0-1.407-.22-2.344-.688-3-.36-.5-.953-.797-1.625-.797m0 .78c.953 0 1.422.97 1.422 2.938C4.172-1.453 3.703-.5 2.734-.5c-.937 0-1.406-1-1.406-2.984 0-2 .469-2.97 1.422-2.97m0 0" style="stroke:none"/></symbol><symbol id="b" overflow="visible"><path d="M2.594-5.156V0h.875v-7.234H2.89c-.313 1.109-.516 1.265-1.875 1.437v.64Zm0 0" style="stroke:none"/></symbol><symbol id="c" overflow="visible"><path d="M5.063-.875H1.328c.094-.594.406-.969 1.281-1.5l1-.562c.985-.547 1.5-1.297 1.5-2.188a2.1 2.1 0 0 0-.656-1.547c-.422-.375-.937-.562-1.61-.562-.905 0-1.577.328-1.968.937-.25.39-.36.844-.375 1.563h.875c.031-.485.094-.782.219-1.016.218-.437.687-.703 1.219-.703.796 0 1.39.578 1.39 1.36 0 .577-.328 1.077-.953 1.437l-.922.531C.844-2.265.422-1.594.344-.015h4.719Zm0 0" style="stroke:none"/></symbol><symbol id="d" overflow="visible"><path d="M2.203-3.328h.485c.968 0 1.468.453 1.468 1.312 0 .922-.547 1.47-1.453 1.47-.969 0-1.437-.5-1.5-1.548h-.89c.046.578.14.953.312 1.281C1-.125 1.688.234 2.656.234c1.469 0 2.407-.89 2.407-2.25 0-.921-.36-1.421-1.204-1.718q.985-.423.985-1.5c0-1.25-.797-2-2.157-2C1.267-7.234.5-6.437.47-4.906h.875c.015-.438.062-.688.172-.907.187-.406.64-.64 1.187-.64.781 0 1.25.469 1.25 1.25 0 .5-.187.812-.578.984-.234.094-.562.14-1.172.157Zm0 0" style="stroke:none"/></symbol><symbol id="e" overflow="visible"><path d="M3.266-1.75V0h.89v-1.75h1.047v-.797H4.156v-4.687H3.5L.281-2.687v.937Zm0-.797h-2.22l2.22-3.187Zm0 0" style="stroke:none"/></symbol><symbol id="f" overflow="visible"><path d="M4.766-7.094H1.094l-.532 3.86h.813c.422-.485.75-.657 1.313-.657.953 0 1.546.657 1.546 1.704 0 1.015-.593 1.64-1.546 1.64-.782 0-1.25-.39-1.454-1.187h-.89c.125.578.219.859.437 1.109.407.547 1.125.86 1.922.86 1.422 0 2.422-1.047 2.422-2.547 0-1.391-.922-2.36-2.281-2.36-.5 0-.906.125-1.313.438l.282-1.985h2.953Zm0 0" style="stroke:none"/></symbol><symbol id="g" overflow="visible"><path d="M4.984-5.344c-.171-1.187-.937-1.89-2.015-1.89a2.27 2.27 0 0 0-1.906 1.03c-.438.72-.625 1.595-.625 2.907 0 1.219.156 1.985.593 2.625.375.594 1 .906 1.782.906 1.343 0 2.312-1.015 2.312-2.421 0-1.329-.89-2.266-2.172-2.266-.687 0-1.25.25-1.625.781.016-1.781.578-2.781 1.578-2.781.625 0 1.047.406 1.188 1.11Zm-2.14 1.657c.86 0 1.39.609 1.39 1.562 0 .922-.609 1.578-1.421 1.578s-1.438-.687-1.438-1.61c0-.905.61-1.53 1.469-1.53m0 0" style="stroke:none"/></symbol><symbol id="p" overflow="visible"><path d="M1.906-1.047H.875V0h1.031Zm0 0" style="stroke:none"/></symbol><symbol id="h" overflow="visible"><path d="M2.797-5.766h-.953v-1.578H.937v1.578h-.78v.75h.78v4.36c0 .594.391.906 1.11.906.234 0 .437-.016.75-.078v-.766c-.14.031-.25.047-.438.047-.406 0-.515-.11-.515-.515v-3.954h.953Zm0 0" style="stroke:none"/></symbol><symbol id="i" overflow="visible"><path d="M2.516-8.016-.094.22h.61l2.609-8.235Zm0 0" style="stroke:none"/></symbol><symbol id="j" overflow="visible"><path d="M.766-5.766V0h.922v-3.625c0-.828.609-1.5 1.359-1.5.687 0 1.062.422 1.062 1.156V0h.922v-3.625c0-.828.61-1.5 1.36-1.5.672 0 1.062.422 1.062 1.156V0h.922v-4.328c0-1.031-.594-1.594-1.672-1.594-.766 0-1.219.219-1.766.875-.343-.625-.796-.875-1.546-.875-.766 0-1.297.281-1.782.969v-.813Zm0 0" style="stroke:none"/></symbol><symbol id="k" overflow="visible"><path d="M1.656-5.766H.734V0h.922Zm0-2.25H.72v1.157h.937Zm0 0" style="stroke:none"/></symbol><symbol id="l" overflow="visible"><path d="M.766-5.766V0h.922v-3.172c0-1.187.625-1.953 1.562-1.953.734 0 1.188.438 1.188 1.125v4h.921v-4.36c0-.952-.718-1.562-1.828-1.562-.86 0-1.406.328-1.922 1.125v-.969Zm0 0" style="stroke:none"/></symbol><symbol id="m" overflow="visible"><path d="M5.297 0v-5.766H4.39V-2.5c0 1.188-.625 1.953-1.578 1.953-.72 0-1.188-.437-1.188-1.14v-4.079H.719v4.454C.719-.36 1.438.25 2.547.25c.86 0 1.39-.297 1.937-1.047V0Zm0 0" style="stroke:none"/></symbol><symbol id="n" overflow="visible"><path d="M5.64-2.578c0-.875-.062-1.406-.234-1.828-.375-.953-1.25-1.516-2.328-1.516-1.61 0-2.64 1.219-2.64 3.11 0 1.906 1 3.062 2.625 3.062 1.312 0 2.234-.75 2.453-2h-.922c-.25.766-.766 1.156-1.5 1.156a1.61 1.61 0 0 1-1.39-.75c-.22-.328-.298-.656-.313-1.234Zm-4.218-.75c.078-1.063.719-1.75 1.64-1.75.938 0 1.594.719 1.594 1.75Zm0 0" style="stroke:none"/></symbol><symbol id="o" overflow="visible"><path d="M4.813-4.156c0-1.14-.75-1.766-2.079-1.766-1.343 0-2.218.688-2.218 1.75 0 .906.468 1.328 1.828 1.656l.86.22c.64.155.89.39.89.796 0 .547-.547.906-1.344.906-.5 0-.906-.14-1.14-.39-.141-.157-.22-.328-.266-.735H.375C.422-.39 1.172.25 2.672.25c1.453 0 2.375-.719 2.375-1.828 0-.86-.484-1.328-1.625-1.594l-.875-.219c-.75-.171-1.078-.421-1.078-.828 0-.531.484-.86 1.219-.86.75 0 1.14.313 1.156.923Zm0 0" style="stroke:none"/></symbol><symbol id="t" overflow="visible"><path d="M2.016-3.656h3.828v-.89H2.016V-7.11h4.359v-.907H.985V0h1.03Zm0 0" style="stroke:none"/></symbol><symbol id="u" overflow="visible"><path d="M4.438-5.766v.844c-.454-.703-.97-1-1.688-1-1.39 0-2.36 1.297-2.36 3.14 0 .97.22 1.673.72 2.25.437.516.984.782 1.578.782.687 0 1.187-.312 1.671-1.031v.297c0 1.547-.437 2.109-1.578 2.109C2 1.625 1.594 1.313 1.5.656H.578c.078 1.078.922 1.735 2.188 1.735.843 0 1.547-.266 1.922-.735.437-.531.609-1.25.609-2.61v-4.812Zm-1.594.688c.969 0 1.515.812 1.515 2.266 0 1.406-.562 2.218-1.515 2.218s-1.5-.828-1.5-2.25c0-1.406.547-2.234 1.5-2.234m0 0" style="stroke:none"/></symbol><symbol id="v" overflow="visible"><path d="M2.094-1.14H.954V0h1.14Zm0 0" style="stroke:none"/></symbol><symbol id="x" overflow="visible"><path d="M2.438-3.656h.515c1.063 0 1.625.484 1.625 1.437 0 1.016-.61 1.61-1.61 1.61-1.062 0-1.577-.532-1.655-1.703H.359C.391-1.672.5-1.25.688-.907 1.094-.125 1.859.25 2.922.25c1.61 0 2.64-.969 2.64-2.469 0-1.015-.375-1.562-1.312-1.89.719-.297 1.078-.86 1.078-1.657 0-1.359-.89-2.187-2.375-2.187-1.562 0-2.406.875-2.437 2.562h.968c.016-.484.063-.765.172-1 .219-.453.703-.718 1.313-.718.86 0 1.375.515 1.375 1.375 0 .562-.203.906-.625 1.093-.266.11-.61.157-1.281.157Zm0 0" style="stroke:none"/></symbol><symbol id="y" overflow="visible"><path d="M5.438-8.016H4.53v2.985c-.39-.594-1-.89-1.765-.89-1.5 0-2.485 1.187-2.485 3.03C.281-.953 1.234.25 2.797.25c.797 0 1.344-.297 1.828-1.016V0h.813ZM2.922-5.078c.984 0 1.61.875 1.61 2.266 0 1.328-.641 2.203-1.61 2.203C1.906-.61 1.25-1.5 1.25-2.844s.656-2.234 1.672-2.234m0 0" style="stroke:none"/></symbol><symbol id="z" overflow="visible"><path d="M2.594-8.016C1.5-6.578.797-4.578.797-2.844c0 1.735.703 3.735 1.797 5.172h.61C2.233.766 1.686-1.094 1.686-2.844s.547-3.61 1.516-5.172Zm0 0" style="stroke:none"/></symbol><symbol id="A" overflow="visible"><path d="M2.844-5.766h-.969v-.906c0-.375.219-.578.64-.578.079 0 .11 0 .329.016V-8c-.219-.047-.328-.047-.516-.047-.86 0-1.36.485-1.36 1.297v.984H.204v.75H.97V0h.906v-5.016h.969Zm0 0" style="stroke:none"/></symbol><symbol id="B" overflow="visible"><path d="M1.016 2.328C2.125.891 2.813-1.109 2.813-2.844s-.688-3.734-1.797-5.172H.422c.969 1.563 1.5 3.422 1.5 5.172S1.39.766.422 2.328Zm0 0" style="stroke:none"/></symbol><symbol id="C" overflow="visible"><path d="M5.875-3.89H.547v.78h5.328Zm0 1.906H.547v.765h5.328Zm0 0" style="stroke:none"/></symbol><symbol id="D" overflow="visible"><path d="M5.563-.953H1.468c.093-.656.437-1.078 1.406-1.672l1.094-.61c1.094-.609 1.656-1.421 1.656-2.39 0-.672-.266-1.281-.734-1.719-.453-.406-1.032-.61-1.766-.61-.984 0-1.734.36-2.156 1.032C.688-6.5.579-6 .547-5.203h.969c.03-.531.093-.86.234-1.125.25-.484.766-.781 1.344-.781.875 0 1.531.64 1.531 1.5 0 .64-.36 1.187-1.047 1.578l-1.015.593C.937-2.5.469-1.75.374-.015h5.188Zm0 0" style="stroke:none"/></symbol><symbol id="q" overflow="visible"><path d="M1.469-.281q0-.076.047-.156L3.594-2.5 1.516-4.578q-.048-.047-.047-.14 0-.06.062-.126a.2.2 0 0 1 .14-.062c.04 0 .095.023.157.062L3.891-2.78l2.062-2.063q.076-.06.14-.062.095.002.141.062.062.048.063.125 0 .095-.047.14L4.172-2.5 6.25-.437a.3.3 0 0 1 .047.156.2.2 0 0 1-.063.14q-.046.048-.14.047-.065 0-.14-.062L3.89-2.22 1.828-.156a.25.25 0 0 1-.156.062.18.18 0 0 1-.14-.062.17.17 0 0 1-.063-.125m0 0" style="stroke:none"/></symbol><symbol id="r" overflow="visible"><path d="M2.266-2.5H.375v.578h1.89Zm0 0" style="stroke:none"/></symbol><symbol id="s" overflow="visible"><path d="M2.61-1.406V0h.703v-1.406h.843v-.625h-.843v-3.75h-.516L.219-2.141v.735Zm0-.625H.843l1.765-2.547Zm0 0" style="stroke:none"/></symbol><symbol id="E" overflow="visible"><path d="M4.453-6.562h-.75v2.437c-.312-.469-.812-.719-1.437-.719-1.235 0-2.032.969-2.032 2.485 0 1.578.782 2.562 2.047 2.562.656 0 1.11-.234 1.5-.828V0h.672ZM2.391-4.156c.797 0 1.312.718 1.312 1.86C3.703-1.22 3.188-.5 2.391-.5c-.828 0-1.375-.719-1.375-1.828 0-1.094.547-1.828 1.375-1.828m0 0" style="stroke:none"/></symbol><symbol id="F" overflow="visible"><path d="M4.813-.437c-.079.015-.11.015-.157.015-.265 0-.406-.14-.406-.375v-2.765c0-.844-.61-1.282-1.781-1.282-.688 0-1.235.188-1.563.547-.219.234-.297.516-.328.969h.766c.062-.563.406-.828 1.11-.828.671 0 1.046.25 1.046.703v.187c-.016.329-.172.454-.781.532-1.063.14-1.219.172-1.516.28-.547.235-.828.657-.828 1.267 0 .859.594 1.39 1.547 1.39C2.516.203 3 0 3.532-.484c.046.484.28.687.765.687.172 0 .266-.016.516-.078ZM3.5-1.484c0 .25-.078.406-.297.609a1.59 1.59 0 0 1-1.11.422c-.593 0-.937-.281-.937-.75 0-.5.328-.75 1.14-.86.798-.109.954-.156 1.204-.265Zm0 0" style="stroke:none"/></symbol><symbol id="G" overflow="visible"><path d="M2.281-4.719h-.765v-1.297h-.75v1.297H.125v.61h.64v3.562c0 .5.329.75.907.75.203 0 .36-.016.61-.062v-.625c-.11.03-.204.03-.36.03-.313 0-.406-.093-.406-.421v-3.234h.765Zm0 0" style="stroke:none"/></symbol><symbol id="H" overflow="visible"><path d="M2.328-4.719h-.797v-.734c0-.313.172-.484.532-.484.062 0 .093 0 .265.015v-.625a2 2 0 0 0-.422-.047c-.703 0-1.11.407-1.11 1.078v.797h-.64v.61h.64V0h.735v-4.11h.797Zm0 0" style="stroke:none"/></symbol><symbol id="I" overflow="visible"><path d="M3.64-.625H.954c.063-.437.297-.703.922-1.094l.719-.406c.719-.39 1.094-.922 1.094-1.562 0-.438-.172-.844-.485-1.11-.297-.281-.672-.406-1.156-.406-.656 0-1.125.219-1.406.672-.188.281-.266.593-.282 1.125H1c.016-.36.063-.563.14-.735a1 1 0 0 1 .891-.515c.563 0 1 .422 1 .984 0 .422-.234.781-.687 1.031l-.672.391C.609-1.64.297-1.14.25 0h3.39Zm0 0" style="stroke:none"/></symbol></defs><path d="M0 0h410v496H0z" style="fill:#fff;fill-opacity:1;stroke:none"/><path d="M18.273 465.934h385.801v-453h-385.8Zm0 0" style="stroke:none;fill-rule:nonzero;fill:#fff;fill-opacity:1"/><path d="M1094.998 824.999h643M1094.998 824.999v-7.546M1202.166 824.999v-7.546M1309.333 824.999v-7.546M1416.501 824.999v-7.546M1523.67 824.999v-7.546M1630.83 824.999v-7.546M1737.999 824.999v-7.546" style="fill:none;stroke-width:.833333;stroke-linecap:square;stroke-linejoin:round;stroke:#262626;stroke-opacity:1;stroke-miterlimit:10" transform="matrix(.6 0 0 .6 -638.725 -29.066)"/><use xlink:href="#a" x="15.275" y="480.134" style="fill:#262626;fill-opacity:1"/><g style="fill:#262626;fill-opacity:1"><use xlink:href="#b" x="76.875" y="480.134"/><use xlink:href="#a" x="82.435" y="480.134"/></g><g style="fill:#262626;fill-opacity:1"><use xlink:href="#c" x="141.175" y="480.134"/><use xlink:href="#a" x="146.735" y="480.134"/></g><g style="fill:#262626;fill-opacity:1"><use xlink:href="#d" x="205.475" y="480.134"/><use xlink:href="#a" x="211.035" y="480.134"/></g><g style="fill:#262626;fill-opacity:1"><use xlink:href="#e" x="269.775" y="480.134"/><use xlink:href="#a" x="275.335" y="480.134"/></g><g style="fill:#262626;fill-opacity:1"><use xlink:href="#f" x="334.075" y="480.134"/><use xlink:href="#a" x="339.635" y="480.134"/></g><g style="fill:#262626;fill-opacity:1"><use xlink:href="#g" x="398.375" y="480.134"/><use xlink:href="#a" x="403.935" y="480.134"/></g><g style="fill:#262626;fill-opacity:1"><use xlink:href="#h" x="188.675" y="494.934"/><use xlink:href="#i" x="191.733" y="494.934"/><use xlink:href="#j" x="194.791" y="494.934"/><use xlink:href="#k" x="203.954" y="494.934"/><use xlink:href="#l" x="206.396" y="494.934"/><use xlink:href="#m" x="212.512" y="494.934"/><use xlink:href="#h" x="218.628" y="494.934"/><use xlink:href="#n" x="221.686" y="494.934"/><use xlink:href="#o" x="227.801" y="494.934"/></g><path d="M1094.998 824.999v-755M1094.998 824.999h7.552M1094.998 749.497h7.552M1094.998 674.003h7.552M1094.998 598.501h7.552M1094.998 523h7.552M1094.998 447.499h7.552M1094.998 371.997h7.552M1094.998 296.503h7.552M1094.998 221.001h7.552M1094.998 145.5h7.552M1094.998 69.999h7.552" style="fill:none;stroke-width:.833333;stroke-linecap:square;stroke-linejoin:round;stroke:#262626;stroke-opacity:1;stroke-miterlimit:10" transform="matrix(.6 0 0 .6 -638.725 -29.066)"/><use xlink:href="#a" x="8.275" y="469.834" style="fill:#262626;fill-opacity:1"/><g style="fill:#262626;fill-opacity:1"><use xlink:href="#a" x="-.125" y="424.534"/><use xlink:href="#p" x="5.435" y="424.534"/><use xlink:href="#f" x="8.215" y="424.534"/></g><use xlink:href="#b" x="8.275" y="379.234" style="fill:#262626;fill-opacity:1"/><g style="fill:#262626;fill-opacity:1"><use xlink:href="#b" x="-.125" y="333.934"/><use xlink:href="#p" x="5.435" y="333.934"/><use xlink:href="#f" x="8.215" y="333.934"/></g><use xlink:href="#c" x="8.275" y="288.634" style="fill:#262626;fill-opacity:1"/><g style="fill:#262626;fill-opacity:1"><use xlink:href="#c" x="-.125" y="243.334"/><use xlink:href="#p" x="5.435" y="243.334"/><use xlink:href="#f" x="8.215" y="243.334"/></g><use xlink:href="#d" x="8.275" y="198.034" style="fill:#262626;fill-opacity:1"/><g style="fill:#262626;fill-opacity:1"><use xlink:href="#d" x="-.125" y="152.734"/><use xlink:href="#p" x="5.435" y="152.734"/><use xlink:href="#f" x="8.215" y="152.734"/></g><use xlink:href="#e" x="8.275" y="107.434" style="fill:#262626;fill-opacity:1"/><g style="fill:#262626;fill-opacity:1"><use xlink:href="#e" x="-.125" y="62.134"/><use xlink:href="#p" x="5.435" y="62.134"/><use xlink:href="#f" x="8.215" y="62.134"/></g><use xlink:href="#f" x="8.275" y="16.834" style="fill:#262626;fill-opacity:1"/><use xlink:href="#q" x="18.275" y="10.534" style="fill:#262626;fill-opacity:1"/><g style="fill:#262626;fill-opacity:1"><use xlink:href="#b" x="26.075" y="10.534"/><use xlink:href="#a" x="31.635" y="10.534"/></g><g style="fill:#262626;fill-opacity:1"><use xlink:href="#r" x="37.475" y="5.734"/><use xlink:href="#s" x="40.139" y="5.734"/></g><g style="fill:#000;fill-opacity:1"><use xlink:href="#t" x="172.176" y="8.284"/><use xlink:href="#k" x="178.897" y="8.284"/><use xlink:href="#u" x="181.339" y="8.284"/><use xlink:href="#v" x="187.454" y="8.284"/><use xlink:href="#w" x="190.512" y="8.284"/><use xlink:href="#x" x="193.57" y="8.284"/><use xlink:href="#w" x="199.686" y="8.284"/><use xlink:href="#y" x="202.744" y="8.284"/><use xlink:href="#n" x="208.86" y="8.284"/><use xlink:href="#u" x="214.976" y="8.284"/><use xlink:href="#z" x="221.092" y="8.284"/><use xlink:href="#A" x="224.755" y="8.284"/><use xlink:href="#B" x="227.813" y="8.284"/><use xlink:href="#w" x="231.476" y="8.284"/><use xlink:href="#C" x="234.534" y="8.284"/><use xlink:href="#w" x="240.957" y="8.284"/><use xlink:href="#D" x="244.015" y="8.284"/></g><path d="M-.002-5.001v10m-5-5h10m-8.536-3.535 7.07 7.07m-7.07 0 7.07-7.07" style="fill:none;stroke-width:.833333;stroke-linecap:butt;stroke-linejoin:miter;stroke:#000;stroke-opacity:1;stroke-miterlimit:10" transform="matrix(.6 0 0 .6 18.275 465.934)"/><path d="M.001-5.002v10m-5-5h10m-8.535-3.535 7.07 7.07m-7.07 0 7.07-7.07" style="fill:none;stroke-width:.833333;stroke-linecap:butt;stroke-linejoin:miter;stroke:#000;stroke-opacity:1;stroke-miterlimit:10" transform="matrix(.6 0 0 .6 50.425 350.872)"/><path d="M-.001-5V5m-5-5h10m-8.535-3.535 7.07 7.07m-7.07 0 7.07-7.07" style="fill:none;stroke-width:.833333;stroke-linecap:butt;stroke-linejoin:miter;stroke:#000;stroke-opacity:1;stroke-miterlimit:10" transform="matrix(.6 0 0 .6 82.575 270.238)"/><path d="M.003-4.997v10m-5-5h10m-8.535-3.541 7.07 7.076m-7.07 0 7.07-7.076" style="fill:none;stroke-width:.833333;stroke-linecap:butt;stroke-linejoin:miter;stroke:#000;stroke-opacity:1;stroke-miterlimit:10" transform="matrix(.6 0 0 .6 114.725 206.818)"/><path d="M0-5.001v10m-5-5H5m-8.535-3.536 7.07 7.07m-7.07 0 7.07-7.07" style="fill:none;stroke-width:.833333;stroke-linecap:butt;stroke-linejoin:miter;stroke:#000;stroke-opacity:1;stroke-miterlimit:10" transform="matrix(.6 0 0 .6 146.875 154.27)"/><path d="M-.002-5V5m-5-5h10m-8.536-3.535 7.07 7.07m-7.07 0 7.07-7.07" style="fill:none;stroke-width:.833333;stroke-linecap:butt;stroke-linejoin:miter;stroke:#000;stroke-opacity:1;stroke-miterlimit:10" transform="matrix(.6 0 0 .6 179.025 115.312)"/><path d="M.001-4.998v10m-5-5h10m-8.535-3.536 7.07 7.07m-7.07 0 7.07-7.07" style="fill:none;stroke-width:.833333;stroke-linecap:butt;stroke-linejoin:miter;stroke:#000;stroke-opacity:1;stroke-miterlimit:10" transform="matrix(.6 0 0 .6 211.175 89.944)"/><path d="M-.001-5.001v10m-5-5h10m-8.535-3.535 7.07 7.07m-7.07 0 7.07-7.07" style="fill:none;stroke-width:.833333;stroke-linecap:butt;stroke-linejoin:miter;stroke:#000;stroke-opacity:1;stroke-miterlimit:10" transform="matrix(.6 0 0 .6 243.325 70.012)"/><path d="M.003-5V5m-5-5h10m-8.535-3.536 7.07 7.07m-7.07 0 7.07-7.07" style="fill:none;stroke-width:.833333;stroke-linecap:butt;stroke-linejoin:miter;stroke:#000;stroke-opacity:1;stroke-miterlimit:10" transform="matrix(.6 0 0 .6 275.475 57.328)"/><path d="M0-4.997v10m-5-5H5m-8.535-3.542 7.07 7.077m-7.07 0 7.07-7.077" style="fill:none;stroke-width:.833333;stroke-linecap:butt;stroke-linejoin:miter;stroke:#000;stroke-opacity:1;stroke-miterlimit:10" transform="matrix(.6 0 0 .6 307.625 50.986)"/><path d="M-.002-5V5m-5-5h10m-8.536-3.535 7.07 7.07m-7.07 0 7.07-7.07" style="fill:none;stroke-width:.833333;stroke-linecap:butt;stroke-linejoin:miter;stroke:#000;stroke-opacity:1;stroke-miterlimit:10" transform="matrix(.6 0 0 .6 339.775 101.722)"/><path d="M.002-5V5m-5-5h10m-8.536-3.534 7.07 7.07m-7.07 0 7.07-7.07" style="fill:none;stroke-width:.833333;stroke-linecap:butt;stroke-linejoin:miter;stroke:#000;stroke-opacity:1;stroke-miterlimit:10" transform="matrix(.6 0 0 .6 371.925 45.55)"/><path d="m1094.998 790.2.644-1.848 1.29-3.685 1.288-3.672.645-1.83.638-1.836.644-1.823.645-1.829.644-1.823 1.934-5.45.638-1.815.645-1.804.644-1.81 1.29-3.607 1.933-5.39.638-1.79.644-1.79 1.934-5.352 1.289-3.555.638-1.771 1.289-3.542 1.289-3.528 1.29-3.516.637-1.758 1.29-3.502 1.933-5.235 1.289-3.476.638-1.732 1.289-3.464 1.289-3.45 1.29-3.438.637-1.718 1.934-5.137.644-1.706 1.29-3.398.637-1.7.645-1.699.644-1.692.645-1.687.644-1.692.645-1.68.644-1.686.645-1.68.638-1.68 1.29-3.346 1.933-5 .644-1.66.638-1.66.645-1.66.644-1.654.645-1.647.644-1.654.645-1.64.644-1.648.638-1.64.645-1.64 1.289-3.269 1.934-4.883.644-1.62.638-1.622.645-1.621 1.289-3.23 1.289-3.215.644-1.602.638-1.602.645-1.601 1.934-4.785 1.289-3.177.638-1.582.644-1.582 1.934-4.727 1.933-4.707.638-1.563.645-1.562 1.933-4.668.645-1.55.645-1.542.638-1.55.644-1.543 1.934-4.61 1.289-3.06.638-1.53 1.289-3.046 1.933-4.55 1.29-3.022.637-1.503 1.29-3.008.644-1.498.645-1.49.644-1.498.645-1.49.638-1.485.644-1.491.645-1.478.644-1.484.645-1.478 1.289-2.943.638-1.471.644-1.472.645-1.464 2.578-5.834.645-1.452.638-1.445 1.933-4.336.645-1.439 1.289-2.864.638-1.433.644-1.432.645-1.426.644-1.419.645-1.426.645-1.412.644-1.42.638-1.412.645-1.407.644-1.412.645-1.4.644-1.406 1.29-2.8.644-1.393.638-1.393 1.933-4.16 1.29-2.761.644-1.374.638-1.373.645-1.374 1.933-4.102.645-1.36.644-1.354.638-1.361.645-1.348.644-1.354 1.29-2.695 1.288-2.683.645-1.334.638-1.335.644-1.335 1.934-3.984.645-1.321.644-1.316.638-1.321.645-1.315 1.933-3.926 1.29-2.604.637-1.296.645-1.302.644-1.289.645-1.296.645-1.282.644-1.29 1.29-2.564.637-1.276 1.29-2.552.644-1.27.644-1.263.645-1.27.644-1.263.638-1.256 1.29-2.513 1.933-3.75.645-1.244.638-1.243 1.289-2.474.644-1.23.645-1.237.644-1.224.645-1.23.644-1.225.638-1.217 1.29-2.435 1.933-3.633.644-1.204.638-1.205 1.934-3.594 1.29-2.382.644-1.185.638-1.185.644-1.185.645-1.178.644-1.172.645-1.179.644-1.172.645-1.165.644-1.172.638-1.159.645-1.165.644-1.159.645-1.152.645-1.16.644-1.145.645-1.152.638-1.146.644-1.14.645-1.145.644-1.133.645-1.14.644-1.132.645-1.127.638-1.132.644-1.12.645-1.126.644-1.12.645-1.113.645-1.12.644-1.107.645-1.113.638-1.107.644-1.1.645-1.107.644-1.1 1.934-3.282.638-1.087.644-1.087 1.934-3.242 1.289-2.149.638-1.067 1.29-2.136 1.933-3.183.644-1.055.645-1.048.638-1.055.644-1.042.645-1.048 1.289-2.083 1.289-2.07.638-1.03 1.289-2.056 1.934-3.067.644-1.015.638-1.01.645-1.015.644-1.003.645-1.009 1.289-2.005 1.289-1.992.638-.99.644-.996 2.579-3.932.644-.977.638-.976 1.29-1.94.644-.964.644-.97.645-.957.644-.964.638-.95.645-.957 1.289-1.901 1.934-2.832.644-.938.638-.93.645-.938.644-.931 2.578-3.698.638-.912.645-.918 1.289-1.823 1.933-2.714.638-.899.645-.898 1.934-2.676.644-.885.645-.88.644-.885.638-.879.645-.872.644-.879.645-.866.644-.872.645-.866.644-.86.638-.859 1.29-1.719.644-.853 1.934-2.539.638-.846.644-.833.645-.84 1.289-1.667 1.933-2.48.638-.82 1.29-1.641.644-.814 1.934-2.422.638-.807.644-.801 2.578-3.177.645-.788.638-.781.644-.788.645-.775.644-.78.645-.776.644-.768.645-.775.645-.768.638-.761 1.289-1.524 1.289-1.51 1.289-1.498.638-.748 1.933-2.227.645-.736 1.289-1.458.638-.73.644-.728 1.29-1.446 1.289-1.432 1.289-1.42.638-.709 1.933-2.11.645-.696.644-.69.645-.697.638-.69 1.933-2.05 1.29-1.355.644-.67.638-.677.645-.664.644-.67.645-.665 1.933-1.973.645-.65.638-.652.644-.65.645-.645.644-.638.645-.645.644-.638.645-.631.638-.632.645-.631 1.933-1.875 1.29-1.237.637-.612 1.29-1.224.644-.606.644-.599.645-.605.644-.6.645-.592.638-.592 1.29-1.185.644-.58.644-.585 1.29-1.16.637-.572 1.29-1.146 1.288-1.133 1.29-1.12.637-.56 1.29-1.106 1.933-1.64 1.29-1.082.637-.533 1.29-1.068 1.288-1.055 1.29-1.041.637-.521 1.29-1.029 1.933-1.523.645-.502.638-.5 1.933-1.485 1.29-.977 1.288-.963.638-.482 1.29-.95 1.933-1.407.644-.462.639-.462 1.933-1.368 1.934-1.347.638-.443.644-.436.645-.443.644-.43.645-.436 1.289-.86.644-.422.638-.424 1.934-1.25 1.29-.82.644-.403.638-.41.644-.398.645-.403.644-.391.645-.397 1.289-.781.638-.385.644-.384 1.934-1.132 1.934-1.114.638-.364.644-.365 1.29-.716 1.933-1.055.638-.345 1.289-.69 1.289-.677 1.289-.664.638-.326.645-.332.644-.319.645-.325.644-.32 1.934-.937.638-.306 1.289-.612 1.289-.599 1.289-.586.638-.286.645-.293.644-.28.645-.286.644-.28 1.29-.547.637-.274 1.934-.8 1.289-.521 1.289-.508.638-.254 1.289-.495 1.934-.722.644-.235.638-.234 1.934-.684 1.289-.442.644-.215.638-.215.645-.215 1.289-.417 1.934-.605.644-.195.638-.196 1.934-.566 1.289-.365.644-.175.638-.176.645-.176 1.289-.339 1.933-.488.639-.156.644-.156 1.934-.45 1.933-.43.638-.136.645-.13.644-.137.645-.124.644-.13 1.29-.247.637-.117.645-.118 1.934-.332 1.289-.208.638-.098.644-.104.645-.09.644-.099.645-.084.644-.091 1.29-.17.637-.078.645-.078 1.934-.215 1.289-.13.638-.065 1.289-.117 1.289-.104 1.289-.092.638-.045 1.933-.117 1.29-.065 1.289-.053.638-.019 1.289-.04 1.933-.038.645-.007.638-.006h1.933l.645.006.644.013.645.007.638.013 2.578.078.645.026 1.289.065.638.033 1.933.117 1.29.091.644.052.638.052.644.052 1.29.117 1.933.196.638.071.645.072 1.289.156.644.085.645.078.644.091.645.085.638.091.644.098.645.09.644.105.645.098.645.104.644.11.638.105.645.117.644.11.645.118.644.123.645.118.644.13.638.123 1.29.26 1.288.274 1.934.43.638.15.645.15 1.933.468 1.29.326.637.169 1.29.339 1.933.527.644.182.638.189.645.182.645.196.644.188 1.29.391 1.288.404.638.208 1.29.417 1.288.43.645.22.644.216.638.227.645.222.644.234.645.228 1.289.469.645.24.638.242 1.933.742 1.934.761.644.26.638.261 1.29.534 1.933.82.645.28.638.28.644.28 1.29.573 1.933.88.638.299.644.306.645.299.644.306 1.934.938.644.319.638.319.645.319 1.29.65 1.933.997.638.338.644.345.645.339.644.345.645.351.644.345.645.359.644.351.638.358 1.934 1.094 1.934 1.113.638.378.644.377 1.934 1.153 1.289.781.638.397 1.289.794 1.289.808 1.289.82.638.41 1.29.834 1.933 1.27 1.289.858.638.437 1.289.872 1.289.885 1.289.899.638.45 1.934 1.366.644.463 1.934 1.406.638.469.644.475.645.482.644.475.645.488.644.482.645.488.638.488 1.289.99 1.934 1.504.644.508.638.508.645.514.644.508 2.578 2.083.638.527.645.528 1.289 1.067 1.934 1.622.644.546.638.547.645.547.644.554.645.56.644.553.645.56.644.566.638.567.645.566 1.933 1.719.645.58.645.585.644.58.638.585 1.934 1.778 1.933 1.797.638.605.645.606 1.289 1.224.644.618.645.612.644.625.638.618.645.625 1.934 1.895 1.933 1.914.638.645.645.644 1.933 1.953.645.658.644.664.638.657.645.664.644.671.645.664.645.677.644.67.645.678.638.683 1.933 2.051.645.697.644.69.645.697.638.696 1.933 2.11 1.29 1.419 1.289 1.432.638.716 1.289 1.446 1.933 2.187.645.736.638.735 1.289 1.485" style="fill:none;stroke-width:.833333;stroke-linecap:butt;stroke-linejoin:round;stroke:#000;stroke-opacity:1;stroke-miterlimit:10" transform="matrix(.6 0 0 .6 -638.725 -29.066)"/><path d="M396.273 51.934v-31.2h-56.398v31.2Zm0 0" style="stroke:none;fill-rule:nonzero;fill:#fff;fill-opacity:1"/><g style="fill:#000;fill-opacity:1"><use xlink:href="#E" x="375.219" y="31.889"/><use xlink:href="#F" x="380.223" y="31.889"/><use xlink:href="#G" x="385.227" y="31.889"/><use xlink:href="#F" x="387.729" y="31.889"/></g><path d="M-.002-5V5m-5-5h10m-8.535-3.535 7.07 7.07m-7.07 0 7.07-7.07" style="fill:none;stroke-width:.833333;stroke-linecap:butt;stroke-linejoin:miter;stroke:#000;stroke-opacity:1;stroke-miterlimit:10" transform="matrix(.6 0 0 .6 357.923 28.289)"/><use xlink:href="#H" x="375.275" y="44.134" style="fill:#000;fill-opacity:1"/><use xlink:href="#I" x="378.275" y="48.334" style="fill:#000;fill-opacity:1"/><path d="M1636.013 119.387h50.13" style="fill:none;stroke-width:.833333;stroke-linecap:butt;stroke-linejoin:round;stroke:#000;stroke-opacity:1;stroke-miterlimit:10" transform="matrix(.6 0 0 .6 -638.725 -29.066)"/><path d="M1631 134.999V83h93.998v51.999Zm0 0" style="fill:none;stroke-width:.833333;stroke-linecap:butt;stroke-linejoin:miter;stroke:#262626;stroke-opacity:1;stroke-miterlimit:10" transform="matrix(.6 0 0 .6 -638.725 -29.066)"/></svg>