<svg xmlns="http://www.w3.org/2000/svg" xmlns:xlink="http://www.w3.org/1999/xlink" width="404pt" height="496pt" viewBox="0 0 404 496"><defs><symbol id="a" overflow="visible"><path d="M2.75-7.234c-.656 0-1.266.297-1.625.797C.656-5.797.438-4.844.438-3.5c0 2.438.796 3.734 2.312 3.734 1.5 0 2.313-1.296 2.313-3.671 0-1.407-.22-2.344-.688-3-.36-.5-.953-.797-1.625-.797m0 .78c.953 0 1.422.97 1.422 2.938C4.172-1.453 3.703-.5 2.734-.5c-.937 0-1.406-1-1.406-2.984 0-2 .469-2.97 1.422-2.97m0 0" style="stroke:none"/></symbol><symbol id="b" overflow="visible"><path d="M2.594-5.156V0h.875v-7.234H2.89c-.313 1.109-.516 1.265-1.875 1.437v.64Zm0 0" style="stroke:none"/></symbol><symbol id="c" overflow="visible"><path d="M5.063-.875H1.328c.094-.594.406-.969 1.281-1.5l1-.562c.985-.547 1.5-1.297 1.5-2.188a2.1 2.1 0 0 0-.656-1.547c-.422-.375-.937-.562-1.61-.562-.905 0-1.577.328-1.968.937-.25.39-.36.844-.375 1.563h.875c.031-.485.094-.782.219-1.016.218-.437.687-.703 1.219-.703.796 0 1.39.578 1.39 1.36 0 .577-.328 1.077-.953 1.437l-.922.531C.844-2.265.422-1.594.344-.015h4.719Zm0 0" style="stroke:none"/></symbol><symbol id="d" overflow="visible"><path d="M2.203-3.328h.485c.968 0 1.468.453 1.468 1.312 0 .922-.547 1.47-1.453 1.47-.969 0-1.437-.5-1.5-1.548h-.89c.046.578.14.953.312 1.281C1-.125 1.688.234 2.656.234c1.469 0 2.407-.89 2.407-2.25 0-.921-.36-1.421-1.204-1.718q.985-.423.985-1.5c0-1.25-.797-2-2.157-2C1.267-7.234.5-6.437.47-4.906h.875c.015-.438.062-.688.172-.907.187-.406.64-.64 1.187-.64.781 0 1.25.469 1.25 1.25 0 .5-.187.812-.578.984-.234.094-.562.14-1.172.157Zm0 0" style="stroke:none"/></symbol><symbol id="e" overflow="visible"><path d="M3.266-1.75V0h.89v-1.75h1.047v-.797H4.156v-4.687H3.5L.281-2.687v.937Zm0-.797h-2.22l2.22-3.187Zm0 0" style="stroke:none"/></symbol><symbol id="f" overflow="visible"><path d="M4.766-7.094H1.094l-.532 3.86h.813c.422-.485.75-.657 1.313-.657.953 0 1.546.657 1.546 1.704 0 1.015-.593 1.64-1.546 1.64-.782 0-1.25-.39-1.454-1.187h-.89c.125.578.219.859.437 1.109.407.547 1.125.86 1.922.86 1.422 0 2.422-1.047 2.422-2.547 0-1.391-.922-2.36-2.281-2.36-.5 0-.906.125-1.313.438l.282-1.985h2.953Zm0 0" style="stroke:none"/></symbol><symbol id="g" overflow="visible"><path d="M4.984-5.344c-.171-1.187-.937-1.89-2.015-1.89a2.27 2.27 0 0 0-1.906 1.03c-.438.72-.625 1.595-.625 2.907 0 1.219.156 1.985.593 2.625.375.594 1 .906 1.782.906 1.343 0 2.312-1.015 2.312-2.421 0-1.329-.89-2.266-2.172-2.266-.687 0-1.25.25-1.625.781.016-1.781.578-2.781 1.578-2.781.625 0 1.047.406 1.188 1.11Zm-2.14 1.657c.86 0 1.39.609 1.39 1.562 0 .922-.609 1.578-1.421 1.578s-1.438-.687-1.438-1.61c0-.905.61-1.53 1.469-1.53m0 0" style="stroke:none"/></symbol><symbol id="p" overflow="visible"><path d="M2.844-3.125H.454v.719h2.39Zm0 0" style="stroke:none"/></symbol><symbol id="h" overflow="visible"><path d="M2.797-5.766h-.953v-1.578H.937v1.578h-.78v.75h.78v4.36c0 .594.391.906 1.11.906.234 0 .437-.016.75-.078v-.766c-.14.031-.25.047-.438.047-.406 0-.515-.11-.515-.515v-3.954h.953Zm0 0" style="stroke:none"/></symbol><symbol id="i" overflow="visible"><path d="M2.516-8.016-.094.22h.61l2.609-8.235Zm0 0" style="stroke:none"/></symbol><symbol id="j" overflow="visible"><path d="M.766-5.766V0h.922v-3.625c0-.828.609-1.5 1.359-1.5.687 0 1.062.422 1.062 1.156V0h.922v-3.625c0-.828.61-1.5 1.36-1.5.672 0 1.062.422 1.062 1.156V0h.922v-4.328c0-1.031-.594-1.594-1.672-1.594-.766 0-1.219.219-1.766.875-.343-.625-.796-.875-1.546-.875-.766 0-1.297.281-1.782.969v-.813Zm0 0" style="stroke:none"/></symbol><symbol id="k" overflow="visible"><path d="M1.656-5.766H.734V0h.922Zm0-2.25H.72v1.157h.937Zm0 0" style="stroke:none"/></symbol><symbol id="l" overflow="visible"><path d="M.766-5.766V0h.922v-3.172c0-1.187.625-1.953 1.562-1.953.734 0 1.188.438 1.188 1.125v4h.921v-4.36c0-.952-.718-1.562-1.828-1.562-.86 0-1.406.328-1.922 1.125v-.969Zm0 0" style="stroke:none"/></symbol><symbol id="m" overflow="visible"><path d="M5.297 0v-5.766H4.39V-2.5c0 1.188-.625 1.953-1.578 1.953-.72 0-1.188-.437-1.188-1.14v-4.079H.719v4.454C.719-.36 1.438.25 2.547.25c.86 0 1.39-.297 1.937-1.047V0Zm0 0" style="stroke:none"/></symbol><symbol id="n" overflow="visible"><path d="M5.64-2.578c0-.875-.062-1.406-.234-1.828-.375-.953-1.25-1.516-2.328-1.516-1.61 0-2.64 1.219-2.64 3.11 0 1.906 1 3.062 2.625 3.062 1.312 0 2.234-.75 2.453-2h-.922c-.25.766-.766 1.156-1.5 1.156a1.61 1.61 0 0 1-1.39-.75c-.22-.328-.298-.656-.313-1.234Zm-4.218-.75c.078-1.063.719-1.75 1.64-1.75.938 0 1.594.719 1.594 1.75Zm0 0" style="stroke:none"/></symbol><symbol id="o" overflow="visible"><path d="M4.813-4.156c0-1.14-.75-1.766-2.079-1.766-1.343 0-2.218.688-2.218 1.75 0 .906.468 1.328 1.828 1.656l.86.22c.64.155.89.39.89.796 0 .547-.547.906-1.344.906-.5 0-.906-.14-1.14-.39-.141-.157-.22-.328-.266-.735H.375C.422-.39 1.172.25 2.672.25c1.453 0 2.375-.719 2.375-1.828 0-.86-.484-1.328-1.625-1.594l-.875-.219c-.75-.171-1.078-.421-1.078-.828 0-.531.484-.86 1.219-.86.75 0 1.14.313 1.156.923Zm0 0" style="stroke:none"/></symbol><symbol id="t" overflow="visible"><path d="M2.016-3.656h3.828v-.89H2.016V-7.11h4.359v-.907H.985V0h1.03Zm0 0" style="stroke:none"/></symbol><symbol id="u" overflow="visible"><path d="M4.438-5.766v.844c-.454-.703-.97-1-1.688-1-1.39 0-2.36 1.297-2.36 3.14 0 .97.22 1.673.72 2.25.437.516.984.782 1.578.782.687 0 1.187-.312 1.671-1.031v.297c0 1.547-.437 2.109-1.578 2.109C2 1.625 1.594 1.313 1.5.656H.578c.078 1.078.922 1.735 2.188 1.735.843 0 1.547-.266 1.922-.735.437-.531.609-1.25.609-2.61v-4.812Zm-1.594.688c.969 0 1.515.812 1.515 2.266 0 1.406-.562 2.218-1.515 2.218s-1.5-.828-1.5-2.25c0-1.406.547-2.234 1.5-2.234m0 0" style="stroke:none"/></symbol><symbol id="v" overflow="visible"><path d="M2.094-1.14H.954V0h1.14Zm0 0" style="stroke:none"/></symbol><symbol id="x" overflow="visible"><path d="M3.594-1.922V0h.969v-1.922h1.156v-.875H4.562v-5.156h-.718l-3.531 5v1.031Zm0-.875H1.156l2.438-3.5Zm0 0" style="stroke:none"/></symbol><symbol id="y" overflow="visible"><path d="M5.438-8.016H4.53v2.985c-.39-.594-1-.89-1.765-.89-1.5 0-2.485 1.187-2.485 3.03C.281-.953 1.234.25 2.797.25c.797 0 1.344-.297 1.828-1.016V0h.813ZM2.922-5.078c.984 0 1.61.875 1.61 2.266 0 1.328-.641 2.203-1.61 2.203C1.906-.61 1.25-1.5 1.25-2.844s.656-2.234 1.672-2.234m0 0" style="stroke:none"/></symbol><symbol id="z" overflow="visible"><path d="M2.594-8.016C1.5-6.578.797-4.578.797-2.844c0 1.735.703 3.735 1.797 5.172h.61C2.233.766 1.686-1.094 1.686-2.844s.547-3.61 1.516-5.172Zm0 0" style="stroke:none"/></symbol><symbol id="A" overflow="visible"><path d="M2.844-5.766h-.969v-.906c0-.375.219-.578.64-.578.079 0 .11 0 .329.016V-8c-.219-.047-.328-.047-.516-.047-.86 0-1.36.485-1.36 1.297v.984H.204v.75H.97V0h.906v-5.016h.969Zm0 0" style="stroke:none"/></symbol><symbol id="B" overflow="visible"><path d="M1.016 2.328C2.125.891 2.813-1.109 2.813-2.844s-.688-3.734-1.797-5.172H.422c.969 1.563 1.5 3.422 1.5 5.172S1.39.766.422 2.328Zm0 0" style="stroke:none"/></symbol><symbol id="C" overflow="visible"><path d="M5.875-3.89H.547v.78h5.328Zm0 1.906H.547v.765h5.328Zm0 0" style="stroke:none"/></symbol><symbol id="D" overflow="visible"><path d="M5.234-7.797h-4.03l-.579 4.25h.89c.454-.547.829-.734 1.438-.734 1.047 0 1.703.718 1.703 1.875C4.656-1.281 4-.61 2.953-.61c-.86 0-1.375-.422-1.594-1.297H.391c.125.625.234.937.468 1.219.438.593 1.235.937 2.11.937C4.547.25 5.64-.89 5.64-2.547c0-1.531-1.016-2.594-2.516-2.594-.547 0-.984.141-1.437.485l.296-2.188h3.25Zm0 0" style="stroke:none"/></symbol><symbol id="q" overflow="visible"><path d="M1.469-.281q0-.076.047-.156L3.594-2.5 1.516-4.578q-.048-.047-.047-.14 0-.06.062-.126a.2.2 0 0 1 .14-.062c.04 0 .095.023.157.062L3.891-2.78l2.062-2.063q.076-.06.14-.062.095.002.141.062.062.048.063.125 0 .095-.047.14L4.172-2.5 6.25-.437a.3.3 0 0 1 .047.156.2.2 0 0 1-.063.14q-.046.048-.14.047-.065 0-.14-.062L3.89-2.22 1.828-.156a.25.25 0 0 1-.156.062.18.18 0 0 1-.14-.062.17.17 0 0 1-.063-.125m0 0" style="stroke:none"/></symbol><symbol id="r" overflow="visible"><path d="M2.266-2.5H.375v.578h1.89Zm0 0" style="stroke:none"/></symbol><symbol id="s" overflow="visible"><path d="M2.61-1.406V0h.703v-1.406h.843v-.625h-.843v-3.75h-.516L.219-2.141v.735Zm0-.625H.843l1.765-2.547Zm0 0" style="stroke:none"/></symbol><symbol id="E" overflow="visible"><path d="M4.453-6.562h-.75v2.437c-.312-.469-.812-.719-1.437-.719-1.235 0-2.032.969-2.032 2.485 0 1.578.782 2.562 2.047 2.562.656 0 1.11-.234 1.5-.828V0h.672ZM2.391-4.156c.797 0 1.312.718 1.312 1.86C3.703-1.22 3.188-.5 2.391-.5c-.828 0-1.375-.719-1.375-1.828 0-1.094.547-1.828 1.375-1.828m0 0" style="stroke:none"/></symbol><symbol id="F" overflow="visible"><path d="M4.813-.437c-.079.015-.11.015-.157.015-.265 0-.406-.14-.406-.375v-2.765c0-.844-.61-1.282-1.781-1.282-.688 0-1.235.188-1.563.547-.219.234-.297.516-.328.969h.766c.062-.563.406-.828 1.11-.828.671 0 1.046.25 1.046.703v.187c-.016.329-.172.454-.781.532-1.063.14-1.219.172-1.516.28-.547.235-.828.657-.828 1.267 0 .859.594 1.39 1.547 1.39C2.516.203 3 0 3.532-.484c.046.484.28.687.765.687.172 0 .266-.016.516-.078ZM3.5-1.484c0 .25-.078.406-.297.609a1.59 1.59 0 0 1-1.11.422c-.593 0-.937-.281-.937-.75 0-.5.328-.75 1.14-.86.798-.109.954-.156 1.204-.265Zm0 0" style="stroke:none"/></symbol><symbol id="G" overflow="visible"><path d="M2.281-4.719h-.765v-1.297h-.75v1.297H.125v.61h.64v3.562c0 .5.329.75.907.75.203 0 .36-.016.61-.062v-.625c-.11.03-.204.03-.36.03-.313 0-.406-.093-.406-.421v-3.234h.765Zm0 0" style="stroke:none"/></symbol><symbol id="H" overflow="visible"><path d="M2.328-4.719h-.797v-.734c0-.313.172-.484.532-.484.062 0 .093 0 .265.015v-.625a2 2 0 0 0-.422-.047c-.703 0-1.11.407-1.11 1.078v.797h-.64v.61h.64V0h.735v-4.11h.797Zm0 0" style="stroke:none"/></symbol><symbol id="I" overflow="visible"><path d="M3.64-.625H.954c.063-.437.297-.703.922-1.094l.719-.406c.719-.39 1.094-.922 1.094-1.562 0-.438-.172-.844-.485-1.11-.297-.281-.672-.406-1.156-.406-.656 0-1.125.219-1.406.672-.188.281-.266.593-.282 1.125H1c.016-.36.063-.563.14-.735a1 1 0 0 1 .891-.515c.563 0 1 .422 1 .984 0 .422-.234.781-.687 1.031l-.672.391C.609-1.64.297-1.14.25 0h3.39Zm0 0" style="stroke:none"/></symbol></defs><path d="M0 0h404v496H0z" style="fill:#fff;fill-opacity:1;stroke:none"/><path d="M12.688 465.934h385.8v-453h-385.8Zm0 0" style="stroke:none;fill-rule:nonzero;fill:#fff;fill-opacity:1"/><path d="M1095 824.999h643.001M1095 824.999v-7.546M1202.168 824.999v-7.546M1309.336 824.999v-7.546M1416.497 824.999v-7.546M1523.665 824.999v-7.546M1630.833 824.999v-7.546M1738.001 824.999v-7.546" style="fill:none;stroke-width:.833333;stroke-linecap:square;stroke-linejoin:round;stroke:#262626;stroke-opacity:1;stroke-miterlimit:10" transform="matrix(.6 0 0 .6 -644.313 -29.066)"/><use xlink:href="#a" x="9.687" y="480.134" style="fill:#262626;fill-opacity:1"/><g style="fill:#262626;fill-opacity:1"><use xlink:href="#b" x="71.287" y="480.134"/><use xlink:href="#a" x="76.848" y="480.134"/></g><g style="fill:#262626;fill-opacity:1"><use xlink:href="#c" x="135.587" y="480.134"/><use xlink:href="#a" x="141.148" y="480.134"/></g><g style="fill:#262626;fill-opacity:1"><use xlink:href="#d" x="199.887" y="480.134"/><use xlink:href="#a" x="205.448" y="480.134"/></g><g style="fill:#262626;fill-opacity:1"><use xlink:href="#e" x="264.187" y="480.134"/><use xlink:href="#a" x="269.748" y="480.134"/></g><g style="fill:#262626;fill-opacity:1"><use xlink:href="#f" x="328.487" y="480.134"/><use xlink:href="#a" x="334.048" y="480.134"/></g><g style="fill:#262626;fill-opacity:1"><use xlink:href="#g" x="392.787" y="480.134"/><use xlink:href="#a" x="398.348" y="480.134"/></g><g style="fill:#262626;fill-opacity:1"><use xlink:href="#h" x="183.088" y="494.934"/><use xlink:href="#i" x="186.146" y="494.934"/><use xlink:href="#j" x="189.204" y="494.934"/><use xlink:href="#k" x="198.366" y="494.934"/><use xlink:href="#l" x="200.808" y="494.934"/><use xlink:href="#m" x="206.924" y="494.934"/><use xlink:href="#h" x="213.04" y="494.934"/><use xlink:href="#n" x="216.098" y="494.934"/><use xlink:href="#o" x="222.214" y="494.934"/></g><path d="M1095 824.999v-755M1095 824.999h7.552M1095 717.14h7.552M1095 609.283h7.552M1095 501.431h7.552M1095 393.573h7.552M1095 285.715h7.552M1095 177.857h7.552M1095 69.999h7.552" style="fill:none;stroke-width:.833333;stroke-linecap:square;stroke-linejoin:round;stroke:#262626;stroke-opacity:1;stroke-miterlimit:10" transform="matrix(.6 0 0 .6 -644.313 -29.066)"/><g style="fill:#262626;fill-opacity:1"><use xlink:href="#p" x="-.313" y="469.834"/><use xlink:href="#b" x="3.018" y="469.834"/></g><use xlink:href="#a" x="2.687" y="405.12" style="fill:#262626;fill-opacity:1"/><use xlink:href="#b" x="2.687" y="340.406" style="fill:#262626;fill-opacity:1"/><use xlink:href="#c" x="2.687" y="275.692" style="fill:#262626;fill-opacity:1"/><use xlink:href="#d" x="2.687" y="210.977" style="fill:#262626;fill-opacity:1"/><use xlink:href="#e" x="2.687" y="146.263" style="fill:#262626;fill-opacity:1"/><use xlink:href="#f" x="2.687" y="81.549" style="fill:#262626;fill-opacity:1"/><use xlink:href="#g" x="2.687" y="16.834" style="fill:#262626;fill-opacity:1"/><use xlink:href="#q" x="12.687" y="10.534" style="fill:#262626;fill-opacity:1"/><g style="fill:#262626;fill-opacity:1"><use xlink:href="#b" x="20.487" y="10.534"/><use xlink:href="#a" x="26.048" y="10.534"/></g><g style="fill:#262626;fill-opacity:1"><use xlink:href="#r" x="31.887" y="5.734"/><use xlink:href="#s" x="34.551" y="5.734"/></g><g style="fill:#000;fill-opacity:1"><use xlink:href="#t" x="166.588" y="8.284"/><use xlink:href="#k" x="173.309" y="8.284"/><use xlink:href="#u" x="175.751" y="8.284"/><use xlink:href="#v" x="181.867" y="8.284"/><use xlink:href="#w" x="184.925" y="8.284"/><use xlink:href="#x" x="187.983" y="8.284"/><use xlink:href="#w" x="194.099" y="8.284"/><use xlink:href="#y" x="197.157" y="8.284"/><use xlink:href="#n" x="203.273" y="8.284"/><use xlink:href="#u" x="209.388" y="8.284"/><use xlink:href="#z" x="215.504" y="8.284"/><use xlink:href="#A" x="219.167" y="8.284"/><use xlink:href="#B" x="222.225" y="8.284"/><use xlink:href="#w" x="225.888" y="8.284"/><use xlink:href="#C" x="228.946" y="8.284"/><use xlink:href="#w" x="235.37" y="8.284"/><use xlink:href="#D" x="238.428" y="8.284"/></g><path d="M0-5.002v10m-5-5H5m-8.535-3.535 7.07 7.07m-7.07 0 7.07-7.07" style="fill:none;stroke-width:.833333;stroke-linecap:butt;stroke-linejoin:miter;stroke:#000;stroke-opacity:1;stroke-miterlimit:10" transform="matrix(.6 0 0 .6 12.687 401.22)"/><path d="M-.003-5.003v10m-5-5h10m-8.535-3.535 7.07 7.07m-7.07 0 7.07-7.07" style="fill:none;stroke-width:.833333;stroke-linecap:butt;stroke-linejoin:miter;stroke:#000;stroke-opacity:1;stroke-miterlimit:10" transform="matrix(.6 0 0 .6 44.837 319.033)"/><path d="M.001-5V5m-5-5h10m-8.535-3.535 7.07 7.07m-7.07 0 7.07-7.07" style="fill:none;stroke-width:.833333;stroke-linecap:butt;stroke-linejoin:miter;stroke:#000;stroke-opacity:1;stroke-miterlimit:10" transform="matrix(.6 0 0 .6 76.987 261.437)"/><path d="M-.001-5V5m-5-5h10m-8.535-3.536 7.07 7.07m-7.07 0 7.07-7.07" style="fill:none;stroke-width:.833333;stroke-linecap:butt;stroke-linejoin:miter;stroke:#000;stroke-opacity:1;stroke-miterlimit:10" transform="matrix(.6 0 0 .6 109.137 216.137)"/><path d="M.003-5.002v10m-5-5h10m-8.535-3.535 7.07 7.07m-7.07 0 7.07-7.07" style="fill:none;stroke-width:.833333;stroke-linecap:butt;stroke-linejoin:miter;stroke:#000;stroke-opacity:1;stroke-miterlimit:10" transform="matrix(.6 0 0 .6 141.287 178.603)"/><path d="M0-4.997v10m-5-5H5m-8.535-3.536 7.07 7.07m-7.07 0 7.07-7.07" style="fill:none;stroke-width:.833333;stroke-linecap:butt;stroke-linejoin:miter;stroke:#000;stroke-opacity:1;stroke-miterlimit:10" transform="matrix(.6 0 0 .6 173.437 150.776)"/><path d="M-.003-5V5m-5-5h10m-8.535-3.534 7.07 7.07m-7.07 0 7.07-7.07" style="fill:none;stroke-width:.833333;stroke-linecap:butt;stroke-linejoin:miter;stroke:#000;stroke-opacity:1;stroke-miterlimit:10" transform="matrix(.6 0 0 .6 205.587 132.656)"/><path d="M.001-5.001v10m-5-5h10m-8.535-3.535 7.07 7.07m-7.07 0 7.07-7.07" style="fill:none;stroke-width:.833333;stroke-linecap:butt;stroke-linejoin:miter;stroke:#000;stroke-opacity:1;stroke-miterlimit:10" transform="matrix(.6 0 0 .6 237.737 118.419)"/><path d="M-.001-4.999v10m-5-5h10m-8.535-3.535 7.07 7.07m-7.07 0 7.07-7.07" style="fill:none;stroke-width:.833333;stroke-linecap:butt;stroke-linejoin:miter;stroke:#000;stroke-opacity:1;stroke-miterlimit:10" transform="matrix(.6 0 0 .6 269.887 109.359)"/><path d="M.003-5V5m-5-5h10m-8.535-3.536 7.07 7.07m-7.07 0 7.07-7.07" style="fill:none;stroke-width:.833333;stroke-linecap:butt;stroke-linejoin:miter;stroke:#000;stroke-opacity:1;stroke-miterlimit:10" transform="matrix(.6 0 0 .6 302.037 104.829)"/><path d="M0-4.997v10m-5-5H5m-8.535-3.535 7.07 7.07m-7.07 0 7.07-7.07" style="fill:none;stroke-width:.833333;stroke-linecap:butt;stroke-linejoin:miter;stroke:#000;stroke-opacity:1;stroke-miterlimit:10" transform="matrix(.6 0 0 .6 334.187 141.069)"/><path d="M-.002-5V5m-5-5h10m-8.536-3.536 7.07 7.07m-7.07 0 7.07-7.07" style="fill:none;stroke-width:.833333;stroke-linecap:butt;stroke-linejoin:miter;stroke:#000;stroke-opacity:1;stroke-miterlimit:10" transform="matrix(.6 0 0 .6 366.337 100.946)"/><path d="m1095 719.55.645-2.214.644-2.2.645-2.188.638-2.175.644-2.161.645-2.148.644-2.13.645-2.122.644-2.103.645-2.09.638-2.076.644-2.07.645-2.051.645-2.038.644-2.025.645-2.012.644-1.998.645-1.993.638-1.972.644-1.96.645-1.953.644-1.94.645-1.92.644-1.915.645-1.9.638-1.895.644-1.875.645-1.869.644-1.849.645-1.842.645-1.836.644-1.816.638-1.81.645-1.797.644-1.79 1.29-3.542.644-1.752.644-1.744.645-1.732.638-1.719.644-1.712.645-1.706.644-1.686.645-1.68.644-1.673.645-1.66.638-1.654.645-1.64.644-1.628.645-1.621.644-1.615.645-1.601.644-1.589.638-1.588 1.29-3.138.644-1.556.644-1.543.645-1.537.644-1.53.645-1.523.638-1.51 1.289-2.995.645-1.485.644-1.478 1.29-2.93.637-1.451 1.29-2.878.644-1.425.644-1.42.645-1.412.644-1.407.638-1.393.645-1.387.644-1.38.645-1.374.645-1.367.644-1.36 1.29-2.696.637-1.334 1.29-2.657.644-1.315.644-1.308.645-1.302.644-1.296.638-1.283.645-1.282.644-1.276.645-1.27.644-1.263.645-1.256.645-1.25.638-1.237.644-1.237.645-1.23 1.289-2.449.644-1.21.645-1.205.644-1.198.638-1.198.645-1.191 1.289-2.357.644-1.172 1.29-2.33.637-1.153.645-1.152 1.934-3.418 1.289-2.253.638-1.113 1.289-2.227 1.289-2.2.644-1.094 1.29-2.174.637-1.081.645-1.074 1.289-2.136 1.29-2.122.644-1.048.638-1.048.644-1.049.645-1.041.644-1.035 1.29-2.058.644-1.022.638-1.022.644-1.016 1.29-2.018.644-1.003 1.934-2.988.638-.99 1.289-1.966.644-.976 1.934-2.91.638-.964.644-.963.645-.95.644-.958.645-.95 1.289-1.888.638-.944.645-.938 1.933-2.793 1.29-1.849.644-.918.638-.918 1.933-2.734.645-.905 1.289-1.797.638-.898.644-.899.645-.892 2.578-3.541.638-.88.645-.872.644-.879.645-.872 2.578-3.464.638-.859.644-.86 2.579-3.41.644-.847.638-.847 2.578-3.359 1.29-1.667.637-.833 2.578-3.307 1.29-1.64.644-.815.638-.82 1.934-2.441 1.933-2.422.638-.807 2.578-3.204 1.29-1.588.637-.794.645-.795.645-.787.644-.795.645-.787.644-.782.645-.788.644-.78.638-.789.645-.78.644-.776.645-.78 1.933-2.325.638-.775.645-.768.644-.775 1.29-1.536.644-.762.645-.768.638-.762.644-.768.645-.755 1.289-1.524.644-.755.645-.762.644-.755.638-.755.645-.749.644-.755 2.579-2.995.638-.748.644-.75 3.223-3.71.638-.736.644-.742 1.934-2.207.644-.73.645-.735.645-.729.638-.736 1.933-2.187.645-.723.644-.729.645-.723.638-.722 2.578-2.89 1.289-1.433.638-.716 1.934-2.149.644-.71.645-.716 1.289-1.419.638-.71 1.289-1.419 1.289-1.406.644-.71.645-.703.638-.703.644-.696.645-.704.644-.696.645-.703 1.29-1.394.637-.696.645-.69.644-.697 3.223-3.45.638-.69 1.289-1.368.644-.69.645-.683.645-.678.644-.683.638-.684 3.223-3.385.644-.67.638-.678 1.934-2.011.644-.665.645-.67.644-.664.645-.67.638-.665.645-.657 1.289-1.328 1.933-1.973.638-.658.645-.657 3.867-3.907.638-.644 1.934-1.934.644-.638.645-.644.644-.638.638-.638.645-.638.644-.632.645-.638 1.933-1.894.638-.625.645-.632 1.933-1.875 1.29-1.237.644-.625.638-.612 1.29-1.237 1.933-1.836.644-.605.638-.612.645-.606.644-.599 1.29-1.21 1.289-1.198.638-.593.644-.599 1.934-1.777.644-.586.645-.593.644-.585.638-.58.645-.586 1.933-1.738.645-.573.644-.58.638-.566 1.29-1.146 1.289-1.133.644-.56.645-.566.638-.56.644-.553.645-.56 1.933-1.66 1.29-1.094.637-.547.645-.547 1.289-1.08.645-.534.644-.54.645-.534.638-.534 2.578-2.11 1.289-1.041.638-.515.644-.52.645-.508.644-.515 2.579-2.03.638-.502.644-.495.645-.501.644-.495.645-.488.644-.495.645-.488.638-.489 1.933-1.445 1.934-1.426.638-.469.645-.468.644-.463.645-.468.644-.456.645-.462 1.289-.912.638-.449 1.289-.898 1.933-1.329.645-.436.638-.436 1.934-1.289 1.933-1.27.638-.416.645-.417 1.933-1.23 1.29-.808.644-.397.638-.397.644-.397 1.29-.781 1.933-1.153.638-.377.645-.371.644-.378.645-.371 1.933-1.094.638-.358 1.29-.716.644-.352 1.933-1.035.645-.338.638-.339.645-.338.644-.332 1.934-.977.644-.319.638-.319.645-.319.644-.312 1.934-.918.644-.3.638-.3 1.29-.585 1.933-.86 1.29-.56.637-.273.645-.267.644-.273.645-.26.644-.268.645-.26.644-.254.638-.254.645-.254.644-.247 1.934-.723.645-.234.638-.235 1.933-.683.645-.222 1.289-.43.644-.208.638-.214 1.934-.606 1.289-.39.645-.19.638-.188 1.289-.365 1.933-.527.645-.17.638-.162 1.289-.326.644-.156.645-.15.644-.156 1.29-.286.638-.144 1.933-.41.645-.123.644-.13.645-.124.638-.118 1.289-.234.644-.11.645-.105.644-.11.645-.098.638-.098.644-.097 1.934-.274.645-.084 1.289-.157.638-.071 1.289-.144 1.289-.13 1.289-.117.638-.052.644-.052 1.934-.137 1.29-.078.637-.033.645-.032 1.289-.052 1.933-.059.645-.013.638-.006 1.933-.02h.645l1.289.013.638.007 1.29.026 1.933.058.644.026.638.026 1.29.066 1.933.117 1.289.09.638.046 1.29.105 1.933.175.644.066.638.065 1.934.214 1.933.235.638.084 1.29.17 1.289.182 1.933.293.638.098 1.29.208.644.11.644.105.645.117.644.11.638.118 1.29.234 2.578.495.638.13.644.13.645.137.644.13 1.29.274 1.288.286.638.137.645.15.644.143 2.578.599.639.156 2.578.625 1.289.326.638.162 1.289.326 3.222.846.638.17.645.175.645.17 2.578.703.638.182 1.289.352 1.289.364.644.176.645.182.638.183 3.867 1.093.645.19.638.181 1.289.365.644.189 1.934.547.638.182.644.189 3.223.911.638.176 1.29.365.644.175.644.183 1.934.527.638.176 1.289.351.644.17.645.175 1.289.339.638.17.645.162.644.17 1.29.325.644.156.644.163.638.156 1.29.313 2.577.599.645.143.638.143.644.143 1.29.274 1.933.39.638.13.645.124.644.117.645.124.644.117 1.29.222.637.104 1.29.208 1.288.195.645.092 1.29.169.637.084.645.079 1.289.143 1.289.13.644.059.638.058.645.052.644.046 1.934.117.644.026.638.026 1.29.04.644.012.645.007h1.289l.644-.013.638-.013.645-.013 1.289-.052 1.289-.079.644-.045.638-.046.645-.058 1.289-.13 1.29-.157.644-.084.638-.092.644-.097 1.29-.222.644-.117.644-.123.645-.13.644-.144.638-.143.645-.15.644-.163 1.29-.338.644-.182.645-.19.638-.195 1.289-.416.644-.222.645-.227.644-.235.645-.247.638-.248.644-.26.645-.267.644-.28.645-.286.644-.293.645-.306.645-.313.638-.319.644-.332.645-.338.644-.345.645-.359.644-.37.645-.378.638-.384.644-.397.645-.41.644-.417.645-.423.644-.437.645-.449.638-.456.644-.468.645-.482.645-.488.644-.502.645-.514.644-.52.645-.535.638-.547.644-.553.645-.573.644-.58.645-.592.644-.599.645-.618.638-.625.644-.645.645-.65.645-.665.644-.677.645-.69.644-.703.638-.716.645-.73.644-.742.645-.755.644-.768.645-.781.644-.801.645-.807.638-.82.644-.84.645-.853.644-.866.645-.88.645-.898.644-.911.638-.925.645-.937.644-.957.645-.97.644-.983.645-1.003.644-1.015.638-1.03.645-1.047.644-1.068.645-1.08.644-1.095.645-1.113.644-1.126.645-1.146.638-1.165.645-1.179.644-1.198.645-1.21.644-1.231.645-1.25.644-1.27.638-1.282.645-1.302.644-1.322.645-1.334.644-1.361.645-1.374.644-1.393.638-1.413.645-1.432.644-1.445.645-1.472.645-1.49.644-1.511.645-1.523.644-1.55.638-1.569.645-1.588.644-1.609.645-1.627.644-1.647.645-1.673.644-1.687.638-1.712.645-1.738.644-1.752.645-1.777.645-1.797.644-1.816.645-1.843.638-1.862.644-1.888.645-1.907.644-1.934.645-1.953.644-1.973.645-1.998.644-2.025.638-2.044.645-2.07.644-2.097.645-2.116.644-2.142.645-2.168.645-2.187.638-2.214.644-2.24.645-2.265.644-2.292.645-2.31.644-2.345.645-2.363.638-2.396.644-2.415.645-2.441.644-2.474.645-2.494.644-2.526" style="fill:none;stroke-width:.833333;stroke-linecap:butt;stroke-linejoin:round;stroke:#000;stroke-opacity:1;stroke-miterlimit:10" transform="matrix(.6 0 0 .6 -644.313 -29.066)"/><path d="M390.688 51.934v-31.2h-56.399v31.2Zm0 0" style="stroke:none;fill-rule:nonzero;fill:#fff;fill-opacity:1"/><g style="fill:#000;fill-opacity:1"><use xlink:href="#E" x="369.631" y="31.889"/><use xlink:href="#F" x="374.635" y="31.889"/><use xlink:href="#G" x="379.639" y="31.889"/><use xlink:href="#F" x="382.141" y="31.889"/></g><path d="M0-5V5m-5-5H5m-8.534-3.535 7.07 7.07m-7.07 0 7.07-7.07" style="fill:none;stroke-width:.833333;stroke-linecap:butt;stroke-linejoin:miter;stroke:#000;stroke-opacity:1;stroke-miterlimit:10" transform="matrix(.6 0 0 .6 352.335 28.289)"/><use xlink:href="#H" x="369.687" y="44.134" style="fill:#000;fill-opacity:1"/><use xlink:href="#I" x="372.687" y="48.334" style="fill:#000;fill-opacity:1"/><path d="M1636.016 119.387h50.13" style="fill:none;stroke-width:.833333;stroke-linecap:butt;stroke-linejoin:round;stroke:#000;stroke-opacity:1;stroke-miterlimit:10" transform="matrix(.6 0 0 .6 -644.313 -29.066)"/><path d="M1631.003 134.999V83H1725v51.999Zm0 0" style="fill:none;stroke-width:.833333;stroke-linecap:butt;stroke-linejoin:miter;stroke:#262626;stroke-opacity:1;stroke-miterlimit:10" transform="matrix(.6 0 0 .6 -644.313 -29.066)"/></svg>