<?xml version="1.0" encoding="UTF-8"?><svg xmlns="http://www.w3.org/2000/svg" xmlns:xlink="http://www.w3.org/1999/xlink" width="222pt" height="204pt" viewBox="0.00 0.00 222.43 204.43"><g id="graph0" class="graph" transform="scale(1 1) rotate(0) translate(4 200.43)"><title>G</title><polygon fill="white" stroke="none" points="-4,4 -4,-200.43 218.43,-200.43 218.43,4 -4,4"/><g id="node1" class="node"><title>u</title><ellipse fill="none" stroke="black" cx="107.21" cy="-18" rx="27" ry="18"/><text text-anchor="middle" x="107.21" y="-14.3" font-family="Times New Roman,serif" font-size="14.00">u</text></g><g id="node2" class="node"><title>v</title><ellipse fill="none" stroke="black" cx="27" cy="-98.21" rx="27" ry="18"/><text text-anchor="middle" x="27" y="-94.51" font-family="Times New Roman,serif" font-size="14.00">v</text></g><g id="edge1" class="edge"><title>u-&gt;v</title><path fill="none" stroke="black" d="M92.13,-33.09C80.33,-44.89 63.71,-61.5 50.22,-74.99"/><polygon fill="black" stroke="black" points="47.96,-72.31 43.36,-81.85 52.91,-77.25 47.96,-72.31"/></g><g id="node3" class="node"><title>x</title><ellipse fill="none" stroke="black" cx="187.43" cy="-98.21" rx="27" ry="18"/><text text-anchor="middle" x="187.43" y="-94.51" font-family="Times New Roman,serif" font-size="14.00">x</text></g><g id="edge2" class="edge"><title>u-&gt;x</title><path fill="none" stroke="black" d="M122.3,-33.09C134.1,-44.89 150.72,-61.5 164.21,-74.99"/><polygon fill="black" stroke="black" points="161.52,-77.25 171.07,-81.85 166.47,-72.31 161.52,-77.25"/></g><g id="node4" class="node"><title>w</title><ellipse fill="none" stroke="black" cx="107.21" cy="-178.43" rx="27" ry="18"/><text text-anchor="middle" x="107.21" y="-174.73" font-family="Times New Roman,serif" font-size="14.00">w</text></g><g id="edge3" class="edge"><title>w-&gt;v</title><path fill="none" stroke="black" d="M92.13,-163.34C80.33,-151.54 63.71,-134.93 50.22,-121.43"/><polygon fill="black" stroke="black" points="52.91,-119.17 43.36,-114.58 47.96,-124.12 52.91,-119.17"/></g><g id="edge4" class="edge"><title>w-&gt;x</title><path fill="none" stroke="black" d="M122.3,-163.34C134.1,-151.54 150.72,-134.93 164.21,-121.43"/><polygon fill="black" stroke="black" points="166.47,-124.12 171.07,-114.58 161.52,-119.17 166.47,-124.12"/></g></g></svg>