<svg xmlns="http://www.w3.org/2000/svg" width="296" height="272" viewBox="0 0 222.43 204.43"><g class="graph"><path fill="#fff" d="M0 204.43V0h222.43v204.43z"/><g class="node" transform="translate(4 200.43)"><ellipse cx="107.21" cy="-18" fill="none" stroke="#000" rx="27" ry="18"/><text x="107.21" y="-14.3" font-family="Times New Roman,serif" font-size="14" text-anchor="middle">u</text></g><g class="node" transform="translate(4 200.43)"><ellipse cx="27" cy="-98.21" fill="none" stroke="#000" rx="27" ry="18"/><text x="27" y="-94.51" font-family="Times New Roman,serif" font-size="14" text-anchor="middle">v</text></g><g stroke="#000" class="edge"><path fill="none" d="M96.13 167.34c-11.8-11.8-28.42-28.41-41.91-41.9"/><path d="m51.96 128.12-4.6-9.54 9.55 4.6z"/></g><g class="node" transform="translate(4 200.43)"><ellipse cx="187.43" cy="-98.21" fill="none" stroke="#000" rx="27" ry="18"/><text x="187.43" y="-94.51" font-family="Times New Roman,serif" font-size="14" text-anchor="middle">x</text></g><g stroke="#000" class="edge"><path fill="none" d="M126.3 167.34c11.8-11.8 28.42-28.41 41.91-41.9"/><path d="m165.52 123.18 9.55-4.6-4.6 9.54z"/></g><g class="node" transform="translate(4 200.43)"><ellipse cx="107.21" cy="-178.43" fill="none" stroke="#000" rx="27" ry="18"/><text x="107.21" y="-174.73" font-family="Times New Roman,serif" font-size="14" text-anchor="middle">w</text></g><g stroke="#000" class="edge"><path fill="none" d="M96.13 37.09C84.33 48.89 67.71 65.5 54.22 79"/><path d="m56.91 81.26-9.55 4.59 4.6-9.54z"/></g><g stroke="#000" class="edge"><path fill="none" d="M126.3 37.09c11.8 11.8 28.42 28.41 41.91 41.91"/><path d="m170.47 76.31 4.6 9.54-9.55-4.59z"/></g></g></svg>