<svg xmlns="http://www.w3.org/2000/svg" width="221pt" height="148pt" viewBox="0 0 221 148"><g class="graph"><path fill="#fff" d="M0 148V0h221v148z"/><g class="cluster" transform="translate(4 144)"><path fill="none" stroke="#000" d="M63-8v-124h142V-8z"/></g><g class="node" transform="translate(4 144)"><ellipse cx="27" cy="-106" fill="none" stroke="#000" rx="27" ry="18"/><text x="27" y="-100.95" font-family="Times New Roman,serif" font-size="14" text-anchor="middle">b</text></g><g class="node" transform="translate(4 144)"><ellipse cx="134" cy="-106" fill="none" stroke="#000" rx="27" ry="18"/><text x="134" y="-100.95" font-family="Times New Roman,serif" font-size="14" text-anchor="middle">1</text></g><g class="node" transform="translate(4 144)"><ellipse cx="98" cy="-34" fill="none" stroke="#000" rx="27" ry="18"/><text x="98" y="-28.95" font-family="Times New Roman,serif" font-size="14" text-anchor="middle">2</text></g><g class="edge" transform="translate(4 144)"><path fill="none" stroke="#000" d="M125.65-88.76c-5.82 11.3-13.54 26.32-19.35 37.61"/></g><g class="node" transform="translate(4 144)"><ellipse cx="170" cy="-34" fill="none" stroke="#000" rx="27" ry="18"/><text x="170" y="-28.95" font-family="Times New Roman,serif" font-size="14" text-anchor="middle">a</text></g><g class="edge" transform="translate(4 144)"><path fill="none" stroke="#000" d="M142.35-88.76c5.82 11.3 13.54 26.32 19.35 37.61"/></g></g></svg>