<svg xmlns="http://www.w3.org/2000/svg" xmlns:xlink="http://www.w3.org/1999/xlink" width="284pt" height="496pt" viewBox="0 0 284 496"><defs><symbol id="a" overflow="visible"><path d="M2.203-3.328h.485c.968 0 1.468.453 1.468 1.312 0 .922-.547 1.47-1.453 1.47-.969 0-1.437-.5-1.5-1.548h-.89c.046.578.14.953.312 1.281C1-.125 1.688.234 2.656.234c1.469 0 2.407-.89 2.407-2.25 0-.921-.36-1.421-1.204-1.718q.985-.423.985-1.5c0-1.25-.797-2-2.157-2-1.42 0-2.187.797-2.217 2.328h.875c.015-.438.062-.688.172-.907.187-.406.64-.64 1.187-.64.781 0 1.25.469 1.25 1.25 0 .5-.187.812-.578.984-.234.094-.562.14-1.172.157Zm0 0" style="stroke:none"/></symbol><symbol id="b" overflow="visible"><path d="M3.266-1.75V0h.89v-1.75h1.047v-.797H4.156v-4.687H3.5L.281-2.687v.937Zm0-.797h-2.22l2.22-3.187Zm0 0" style="stroke:none"/></symbol><symbol id="c" overflow="visible"><path d="M4.766-7.094H1.094l-.532 3.86h.813c.422-.485.75-.657 1.313-.657.953 0 1.546.657 1.546 1.704 0 1.015-.593 1.64-1.546 1.64-.782 0-1.25-.39-1.454-1.187h-.89c.125.578.219.859.437 1.109.407.547 1.125.86 1.922.86 1.422 0 2.422-1.047 2.422-2.547 0-1.391-.922-2.36-2.281-2.36-.5 0-.906.125-1.313.438l.282-1.985h2.953Zm0 0" style="stroke:none"/></symbol><symbol id="d" overflow="visible"><path d="M4.984-5.344c-.171-1.187-.937-1.89-2.015-1.89a2.27 2.27 0 0 0-1.906 1.03c-.438.72-.625 1.595-.625 2.907 0 1.219.156 1.985.593 2.625.375.594 1 .906 1.782.906 1.343 0 2.312-1.015 2.312-2.421 0-1.329-.89-2.266-2.172-2.266-.687 0-1.25.25-1.625.781.016-1.781.578-2.781 1.578-2.781.625 0 1.047.406 1.188 1.11Zm-2.14 1.657c.86 0 1.39.609 1.39 1.562 0 .922-.609 1.578-1.421 1.578s-1.438-.687-1.438-1.61c0-.905.61-1.53 1.469-1.53m0 0" style="stroke:none"/></symbol><symbol id="e" overflow="visible"><path d="M5.203-7.094H.453v.875h3.844C2.594-3.812 1.907-2.329 1.375 0h.938c.39-2.266 1.28-4.219 2.89-6.344Zm0 0" style="stroke:none"/></symbol><symbol id="f" overflow="visible"><path d="M3.906-3.812c.75-.454.969-.813.969-1.485 0-1.14-.86-1.937-2.125-1.937-1.25 0-2.125.797-2.125 1.922 0 .687.219 1.046.953 1.5-.812.406-1.203 1-1.203 1.796 0 1.329.969 2.25 2.375 2.25s2.375-.921 2.375-2.25c0-.796-.39-1.39-1.219-1.796M2.75-6.453c.75 0 1.234.453 1.234 1.172 0 .687-.5 1.125-1.234 1.125-.75 0-1.234-.438-1.234-1.14C1.516-6 2-6.454 2.75-6.454m0 3.047c.875 0 1.484.578 1.484 1.422 0 .859-.593 1.437-1.5 1.437-.859 0-1.468-.594-1.468-1.437 0-.86.593-1.422 1.484-1.422m0 0" style="stroke:none"/></symbol><symbol id="k" overflow="visible"><path d="M2.844-3.125H.454v.719h2.39Zm0 0" style="stroke:none"/></symbol><symbol id="l" overflow="visible"><path d="M2.75-7.234c-.656 0-1.266.297-1.625.797C.656-5.797.438-4.844.438-3.5c0 2.438.796 3.734 2.312 3.734 1.5 0 2.313-1.296 2.313-3.671 0-1.407-.22-2.344-.688-3-.36-.5-.953-.797-1.625-.797m0 .78c.953 0 1.422.97 1.422 2.938C4.172-1.453 3.703-.5 2.734-.5c-.937 0-1.406-1-1.406-2.984 0-2 .469-2.97 1.422-2.97m0 0" style="stroke:none"/></symbol><symbol id="m" overflow="visible"><path d="M1.906-1.047H.875V0h1.031Zm0 0" style="stroke:none"/></symbol><symbol id="n" overflow="visible"><path d="M5.063-.875H1.328c.094-.594.406-.969 1.281-1.5l1-.562c.985-.547 1.5-1.297 1.5-2.188a2.1 2.1 0 0 0-.656-1.547c-.422-.375-.937-.562-1.61-.562-.905 0-1.577.328-1.968.937-.25.39-.36.844-.375 1.563h.875c.031-.485.094-.782.219-1.016.218-.437.687-.703 1.219-.703.796 0 1.39.578 1.39 1.36 0 .577-.328 1.077-.953 1.437l-.922.531C.844-2.265.422-1.594.344-.015h4.719Zm0 0" style="stroke:none"/></symbol><symbol id="g" overflow="visible"><path d="M2.047-3.453h2.64C5.595-3.453 6-3.016 6-2.031v.719c0 .5.078.984.219 1.312h1.25v-.25C7.079-.516 7-.797 6.984-1.875c-.015-1.312-.218-1.719-1.093-2.078.906-.453 1.265-1 1.265-1.922 0-1.39-.86-2.14-2.437-2.14H1.016V0h1.03Zm0-.906v-2.75h2.469c.578 0 .906.078 1.156.297q.422.35.422 1.078c0 .953-.485 1.375-1.578 1.375Zm0 0" style="stroke:none"/></symbol><symbol id="h" overflow="visible"><path d="M5.89-.531c-.109.015-.156.015-.202.015-.313 0-.5-.171-.5-.453v-3.39c0-1.016-.75-1.563-2.157-1.563-.86 0-1.531.234-1.922.656-.265.297-.375.641-.39 1.204h.922c.078-.704.5-1.016 1.343-1.016.844 0 1.297.297 1.297.86v.234c-.015.39-.218.547-.953.64-1.297.172-1.5.203-1.86.36-.671.28-1 .78-1 1.53C.469-.405 1.189.25 2.36.25c.72 0 1.297-.25 1.954-.844.062.594.343.844.953.844.187 0 .312-.016.625-.094ZM4.282-1.812c0 .312-.093.5-.36.75-.374.343-.827.515-1.374.515-.703 0-1.125-.344-1.125-.922 0-.61.39-.922 1.39-1.062.97-.125 1.157-.172 1.47-.313Zm0 0" style="stroke:none"/></symbol><symbol id="i" overflow="visible"><path d="M2.797-5.766h-.953v-1.578H.937v1.578h-.78v.75h.78v4.36c0 .594.391.906 1.11.906.234 0 .437-.016.75-.078v-.766c-.14.031-.25.047-.438.047-.406 0-.515-.11-.515-.515v-3.954h.953Zm0 0" style="stroke:none"/></symbol><symbol id="j" overflow="visible"><path d="M5.64-2.578c0-.875-.062-1.406-.234-1.828-.375-.953-1.25-1.516-2.328-1.516-1.61 0-2.64 1.219-2.64 3.11 0 1.906 1 3.062 2.625 3.062 1.312 0 2.234-.75 2.453-2h-.922c-.25.766-.766 1.156-1.5 1.156a1.61 1.61 0 0 1-1.39-.75c-.22-.328-.298-.656-.313-1.234Zm-4.218-.75c.078-1.063.719-1.75 1.64-1.75.938 0 1.594.719 1.594 1.75Zm0 0" style="stroke:none"/></symbol><symbol id="w" overflow="visible"><path d="M.766-8.016V0h.922v-3.172c0-1.187.609-1.953 1.562-1.953.297 0 .594.094.813.25.265.203.375.469.375.875v4h.906v-4.36c0-.968-.688-1.562-1.813-1.562-.812 0-1.312.25-1.844.953v-3.047Zm0 0" style="stroke:none"/></symbol><symbol id="x" overflow="visible"><path d="M1.656-5.766H.734V0h.922Zm0-2.25H.72v1.157h.937Zm0 0" style="stroke:none"/></symbol><symbol id="y" overflow="visible"><path d="M4.813-4.156c0-1.14-.75-1.766-2.079-1.766-1.343 0-2.218.688-2.218 1.75 0 .906.468 1.328 1.828 1.656l.86.22c.64.155.89.39.89.796 0 .547-.547.906-1.344.906-.5 0-.906-.14-1.14-.39-.141-.157-.22-.328-.266-.735H.375C.422-.39 1.172.25 2.672.25c1.453 0 2.375-.719 2.375-1.828 0-.86-.484-1.328-1.625-1.594l-.875-.219c-.75-.171-1.078-.421-1.078-.828 0-.531.484-.86 1.219-.86.75 0 1.14.313 1.156.923Zm0 0" style="stroke:none"/></symbol><symbol id="z" overflow="visible"><path d="M2.984-5.922C1.36-5.922.391-4.782.391-2.844.39-.89 1.359.25 3 .25c1.625 0 2.61-1.156 2.61-3.047 0-2-.954-3.125-2.626-3.125M3-5.078c1.031 0 1.656.844 1.656 2.266 0 1.374-.64 2.218-1.656 2.218s-1.64-.843-1.64-2.25c0-1.39.624-2.234 1.64-2.234m0 0" style="stroke:none"/></symbol><symbol id="A" overflow="visible"><path d="M4.438-5.766v.844c-.454-.703-.97-1-1.688-1-1.39 0-2.36 1.297-2.36 3.14 0 .97.22 1.673.72 2.25.437.516.984.782 1.578.782.687 0 1.187-.312 1.671-1.031v.297c0 1.547-.437 2.109-1.578 2.109C2 1.625 1.594 1.313 1.5.656H.578c.078 1.078.922 1.735 2.188 1.735.843 0 1.547-.266 1.922-.735.437-.531.609-1.25.609-2.61v-4.812Zm-1.594.688c.969 0 1.515.812 1.515 2.266 0 1.406-.562 2.218-1.515 2.218s-1.5-.828-1.5-2.25c0-1.406.547-2.234 1.5-2.234m0 0" style="stroke:none"/></symbol><symbol id="B" overflow="visible"><path d="M.766-5.766V0h.922v-2.984c0-1.391.578-2.016 1.843-1.985v-.922c-.156-.03-.25-.03-.36-.03-.593 0-1.03.343-1.562 1.202v-1.047Zm0 0" style="stroke:none"/></symbol><symbol id="C" overflow="visible"><path d="M.766-5.766V0h.922v-3.625c0-.828.609-1.5 1.359-1.5.687 0 1.062.422 1.062 1.156V0h.922v-3.625c0-.828.61-1.5 1.36-1.5.672 0 1.062.422 1.062 1.156V0h.922v-4.328c0-1.031-.594-1.594-1.672-1.594-.766 0-1.219.219-1.766.875-.343-.625-.796-.875-1.546-.875-.766 0-1.297.281-1.782.969v-.813Zm0 0" style="stroke:none"/></symbol><symbol id="E" overflow="visible"><path d="M2.844-5.766h-.969v-.906c0-.375.219-.578.64-.578.079 0 .11 0 .329.016V-8c-.219-.047-.328-.047-.516-.047-.86 0-1.36.485-1.36 1.297v.984H.204v.75H.97V0h.906v-5.016h.969Zm0 0" style="stroke:none"/></symbol><symbol id="F" overflow="visible"><path d="m4.25-3.14 3.016-4.876h-1.22l-2.28 3.907-2.36-3.907H.141L3.234-3.14V0H4.25Zm0 0" style="stroke:none"/></symbol><symbol id="G" overflow="visible"><path d="M7.797-4.234H4.453v.906h2.438v.219c0 1.422-1.047 2.453-2.516 2.453-.812 0-1.547-.297-2.016-.813C1.83-2.03 1.5-2.984 1.5-3.984c0-1.97 1.125-3.266 2.828-3.266 1.219 0 2.094.625 2.313 1.656h1.047c-.282-1.625-1.516-2.562-3.36-2.562-.969 0-1.766.265-2.39.781C1-6.609.484-5.375.484-3.922.484-1.469 1.984.25 4.156.25 5.25.25 6.11-.156 6.891-1.016L7.156.047h.64Zm0 0" style="stroke:none"/></symbol><symbol id="H" overflow="visible"><path d="M2.594-8.016C1.5-6.578.797-4.578.797-2.844c0 1.735.703 3.735 1.797 5.172h.61C2.233.766 1.686-1.094 1.686-2.844s.547-3.61 1.516-5.172Zm0 0" style="stroke:none"/></symbol><symbol id="I" overflow="visible"><path d="M.766-5.766V0h.922v-3.172c0-1.187.625-1.953 1.562-1.953.734 0 1.188.438 1.188 1.125v4h.921v-4.36c0-.952-.718-1.562-1.828-1.562-.86 0-1.406.328-1.922 1.125v-.969Zm0 0" style="stroke:none"/></symbol><symbol id="J" overflow="visible"><path d="M1.672-8.016H.75V0h.922Zm0 0" style="stroke:none"/></symbol><symbol id="K" overflow="visible"><path d="M4.875-5.766H.578v.797h3.203L.344-.829V0H5.03v-.797H1.453l3.422-4.156Zm0 0" style="stroke:none"/></symbol><symbol id="L" overflow="visible"><path d="M5.438-8.016H4.53v2.985c-.39-.594-1-.89-1.765-.89-1.5 0-2.485 1.187-2.485 3.03C.281-.953 1.234.25 2.797.25c.797 0 1.344-.297 1.828-1.016V0h.813ZM2.922-5.078c.984 0 1.61.875 1.61 2.266 0 1.328-.641 2.203-1.61 2.203C1.906-.61 1.25-1.5 1.25-2.844s.656-2.234 1.672-2.234m0 0" style="stroke:none"/></symbol><symbol id="M" overflow="visible"><path d="M1.016 2.328C2.125.891 2.813-1.109 2.813-2.844s-.688-3.734-1.797-5.172H.422c.969 1.563 1.5 3.422 1.5 5.172S1.39.766.422 2.328Zm0 0" style="stroke:none"/></symbol><symbol id="o" overflow="visible"><path d="M-3.656-2.016v-3.828h-.89v3.828H-7.11v-4.359h-.907v5.39H0v-1.03Zm0 0" style="stroke:none"/></symbol><symbol id="p" overflow="visible"><path d="M-5.766-.766H0v-.921h-2.984c-1.391 0-2.016-.579-1.985-1.844h-.922c-.03.156-.03.25-.03.36 0 .593.343 1.03 1.202 1.562h-1.047Zm0 0" style="stroke:none"/></symbol><symbol id="q" overflow="visible"><path d="M-2.578-5.64c-.875 0-1.406.062-1.828.234-.953.375-1.516 1.25-1.516 2.328 0 1.61 1.219 2.64 3.11 2.64 1.906 0 3.062-1 3.062-2.624 0-1.313-.75-2.235-2-2.454v.922c.766.25 1.156.766 1.156 1.5a1.61 1.61 0 0 1-.75 1.39c-.328.22-.656.298-1.234.313Zm-.75 4.218c-1.063-.078-1.75-.719-1.75-1.64 0-.938.719-1.594 1.75-1.594Zm0 0" style="stroke:none"/></symbol><symbol id="r" overflow="visible"><path d="M2.39-5.437h-8.156v.812H-5c-.594.422-.922 1.078-.922 1.828 0 1.516 1.234 2.516 3.156 2.516C-.906-.281.25-1.22.25-2.75c0-.797-.281-1.36-.906-1.781H2.39Zm-7.468 2.515c0-.984.875-1.61 2.266-1.61 1.328 0 2.203.641 2.203 1.61 0 1.016-.891 1.672-2.235 1.672s-2.234-.656-2.234-1.672m0 0" style="stroke:none"/></symbol><symbol id="s" overflow="visible"><path d="M0-5.297h-5.766v.906H-2.5c1.188 0 1.953.625 1.953 1.579 0 .718-.437 1.187-1.14 1.187h-4.079v.906h4.454C-.36-.719.25-1.437.25-2.547c0-.86-.297-1.39-1.047-1.937H0Zm0 0" style="stroke:none"/></symbol><symbol id="t" overflow="visible"><path d="M-5.766-.766H0v-.921h-3.172c-1.187 0-1.953-.625-1.953-1.563 0-.734.438-1.187 1.125-1.187h4v-.922h-4.36c-.952 0-1.562.718-1.562 1.828 0 .86.328 1.406 1.125 1.922h-.969Zm0 0" style="stroke:none"/></symbol><symbol id="u" overflow="visible"><path d="M-3.828-5.187c-.563.046-.922.171-1.25.39-.531.39-.844 1.094-.844 1.89 0 1.563 1.219 2.563 3.14 2.563C-.921-.344.25-1.328.25-2.89c0-1.375-.828-2.25-2.234-2.359v.922c.922.156 1.39.625 1.39 1.406 0 1.016-.828 1.625-2.187 1.625-1.438 0-2.297-.594-2.297-1.594 0-.765.453-1.25 1.25-1.359Zm0 0" style="stroke:none"/></symbol><symbol id="v" overflow="visible"><path d="m-5.766-4.266 4.485 1.594-4.485 1.469v.984L.016-2.172l.922.36c.406.156.562.343.562.734 0 .156-.031.281-.062.484h.812c.11-.187.14-.375.14-.61a1.5 1.5 0 0 0-.265-.858c-.219-.297-.453-.454-.922-.626l-6.969-2.578Zm0 0" style="stroke:none"/></symbol><symbol id="N" overflow="visible"><path d="M.625-6.562V0h.75v-2.594c0-.969.5-1.594 1.281-1.594.25 0 .485.063.672.204.203.156.297.39.297.718V0h.75v-3.562c0-.797-.562-1.282-1.484-1.282-.672 0-1.078.203-1.516.782v-2.5Zm0 0" style="stroke:none"/></symbol><symbol id="O" overflow="visible"><path d="M1.344-4.719H.609V0h.735Zm0-1.843h-.75v.953h.75Zm0 0" style="stroke:none"/></symbol><symbol id="P" overflow="visible"><path d="M3.938-3.406c0-.922-.61-1.438-1.704-1.438S.422-4.28.422-3.406c0 .734.375 1.078 1.5 1.36l.703.171c.516.125.719.313.719.64 0 .454-.438.75-1.094.75-.406 0-.75-.124-.937-.312-.11-.14-.172-.281-.22-.61h-.78C.343-.311.953.204 2.188.204c1.187 0 1.937-.578 1.937-1.484 0-.703-.39-1.094-1.328-1.313l-.719-.172c-.61-.156-.875-.343-.875-.687 0-.438.39-.703 1-.703s.922.265.953.75Zm0 0" style="stroke:none"/></symbol><symbol id="Q" overflow="visible"><path d="M2.281-4.719h-.765v-1.297h-.75v1.297H.125v.61h.64v3.562c0 .5.329.75.907.75.203 0 .36-.016.61-.062v-.625c-.11.03-.204.03-.36.03-.313 0-.406-.093-.406-.421v-3.234h.765Zm0 0" style="stroke:none"/></symbol><symbol id="R" overflow="visible"><path d="M2.453-4.844c-1.344 0-2.125.938-2.125 2.516C.328-.734 1.11.203 2.453.203c1.328 0 2.14-.937 2.14-2.484 0-1.64-.78-2.563-2.14-2.563m0 .688c.844 0 1.36.687 1.36 1.86 0 1.124-.532 1.812-1.36 1.812S1.11-1.172 1.11-2.328c0-1.14.516-1.828 1.344-1.828m0 0" style="stroke:none"/></symbol><symbol id="S" overflow="visible"><path d="M3.64-4.719v.688c-.374-.563-.796-.813-1.39-.813C1.11-4.844.313-3.78.313-2.28c0 .797.187 1.375.593 1.844.36.421.797.64 1.297.64.563 0 .969-.25 1.36-.844v.25c0 1.25-.344 1.72-1.282 1.72-.64 0-.969-.25-1.047-.782H.47c.078.86.765 1.422 1.797 1.422.687 0 1.265-.235 1.562-.61.36-.437.5-1.03.5-2.14v-3.94Zm-1.312.563c.781 0 1.235.672 1.235 1.86 0 1.14-.454 1.812-1.235 1.812s-1.234-.672-1.234-1.844c0-1.14.453-1.828 1.234-1.828m0 0" style="stroke:none"/></symbol><symbol id="T" overflow="visible"><path d="M.625-4.719V0h.75v-2.453c.016-1.125.484-1.64 1.516-1.61v-.765c-.125-.016-.203-.016-.297-.016-.485 0-.844.282-1.281.985v-.86Zm0 0" style="stroke:none"/></symbol><symbol id="U" overflow="visible"><path d="M4.813-.437c-.079.015-.11.015-.157.015-.265 0-.406-.14-.406-.375v-2.765c0-.844-.61-1.282-1.781-1.282-.688 0-1.235.188-1.563.547-.219.234-.297.516-.328.969h.766c.062-.563.406-.828 1.11-.828.671 0 1.046.25 1.046.703v.187c-.016.329-.172.454-.781.532-1.063.14-1.219.172-1.516.28-.547.235-.828.657-.828 1.267 0 .859.594 1.39 1.547 1.39C2.516.203 3 0 3.532-.484c.046.484.28.687.765.687.172 0 .266-.016.516-.078ZM3.5-1.484c0 .25-.078.406-.297.609a1.6 1.6 0 0 1-1.11.422c-.593 0-.937-.281-.937-.75 0-.5.328-.75 1.14-.86.798-.109.954-.156 1.204-.265Zm0 0" style="stroke:none"/></symbol><symbol id="V" overflow="visible"><path d="M.625-4.719V0h.766v-2.969c0-.672.484-1.219 1.109-1.219.547 0 .86.329.86.938V0h.765v-2.969c0-.672.484-1.219 1.11-1.219.546 0 .874.344.874.938V0h.75v-3.531c0-.86-.484-1.313-1.375-1.313-.625 0-1 .188-1.437.719-.281-.516-.656-.719-1.281-.719s-1.047.235-1.438.797v-.672Zm0 0" style="stroke:none"/></symbol><symbol id="W" overflow="visible"><path d="M2.328-4.719h-.797v-.734c0-.313.172-.484.532-.484.062 0 .093 0 .265.015v-.625a2 2 0 0 0-.422-.047c-.703 0-1.11.407-1.11 1.078v.797h-.64v.61h.64V0h.735v-4.11h.797Zm0 0" style="stroke:none"/></symbol><symbol id="Y" overflow="visible"><path d="M4.234-3.125c-.03-.469-.125-.766-.312-1.031-.328-.438-.89-.688-1.547-.688-1.281 0-2.094 1-2.094 2.563C.281-.75 1.094.203 2.36.203c1.125 0 1.844-.672 1.938-1.828H3.53c-.125.766-.5 1.14-1.14 1.14-.828 0-1.328-.671-1.328-1.796 0-1.172.484-1.875 1.296-1.875.641 0 1.032.375 1.125 1.031Zm0 0" style="stroke:none"/></symbol><symbol id="Z" overflow="visible"><path d="M4.344 0v-4.719h-.75v2.672c0 .969-.5 1.594-1.297 1.594-.594 0-.969-.36-.969-.922v-3.344h-.75v3.64c0 .782.594 1.282 1.516 1.282.687 0 1.125-.234 1.562-.86V0Zm0 0" style="stroke:none"/></symbol><symbol id="aa" overflow="visible"><path d="m2.563 0 1.812-4.719h-.844L2.203-.89.938-4.719H.094L1.75 0Zm0 0" style="stroke:none"/></symbol><symbol id="ab" overflow="visible"><path d="M4.61-2.11c0-.718-.048-1.156-.188-1.5-.297-.78-1.016-1.234-1.906-1.234-1.313 0-2.157.985-2.157 2.547S1.172.203 2.5.203c1.078 0 1.828-.61 2.016-1.64h-.75c-.203.625-.641.953-1.235.953a1.31 1.31 0 0 1-1.14-.61c-.172-.281-.235-.547-.25-1.015Zm-3.454-.609c.063-.875.594-1.437 1.36-1.437.765 0 1.297.593 1.297 1.437Zm0 0" style="stroke:none"/></symbol></defs><path d="M0 0h284v496H0z" style="fill:#fff;fill-opacity:1;stroke:none"/><path d="M35.273 465.664h245.403v-453H35.273Zm0 0" style="stroke:none;fill-rule:nonzero;fill:#fff;fill-opacity:1"/><path d="M788.997 824.997v-755m81.803 755v-755m81.798 755v-755m81.803 755v-755m81.797 755v-755m81.803 755v-755m0 755H788.997m409.004-125.833H788.997m409.004-125.834H788.997m409.004-125.833H788.997m409.004-125.833H788.997m409.004-125.834H788.997m409.004-125.833H788.997" style="fill:none;stroke-width:.833333;stroke-linecap:butt;stroke-linejoin:round;stroke:#262626;stroke-opacity:.14902;stroke-miterlimit:10" transform="matrix(.6 0 0 .6 -438.125 -29.334)"/><path d="M788.997 824.997h409.004m-409.004 0v-7.545m81.803 7.545v-7.545m81.798 7.545v-7.545m81.803 7.545v-7.545m81.797 7.545v-7.545m81.803 7.545v-7.545" style="fill:none;stroke-width:.833333;stroke-linecap:square;stroke-linejoin:round;stroke:#262626;stroke-opacity:1;stroke-miterlimit:10" transform="matrix(.6 0 0 .6 -438.125 -29.334)"/><use xlink:href="#a" x="32.275" y="479.866" style="fill:#262626;fill-opacity:1"/><use xlink:href="#b" x="81.355" y="479.866" style="fill:#262626;fill-opacity:1"/><use xlink:href="#c" x="130.435" y="479.866" style="fill:#262626;fill-opacity:1"/><use xlink:href="#d" x="179.515" y="479.866" style="fill:#262626;fill-opacity:1"/><use xlink:href="#e" x="228.595" y="479.866" style="fill:#262626;fill-opacity:1"/><use xlink:href="#f" x="277.675" y="479.866" style="fill:#262626;fill-opacity:1"/><g style="fill:#262626;fill-opacity:1"><use xlink:href="#g" x="146.275" y="494.666"/><use xlink:href="#h" x="154.217" y="494.666"/><use xlink:href="#i" x="160.333" y="494.666"/><use xlink:href="#j" x="163.391" y="494.666"/></g><path d="M788.997 824.997v-755m0 755h7.552m-7.552-125.833h7.552m-7.552-125.834h7.552m-7.552-125.833h7.552m-7.552-125.833h7.552m-7.552-125.834h7.552m-7.552-125.833h7.552" style="fill:none;stroke-width:.833333;stroke-linecap:square;stroke-linejoin:round;stroke:#262626;stroke-opacity:1;stroke-miterlimit:10" transform="matrix(.6 0 0 .6 -438.125 -29.334)"/><g style="fill:#262626;fill-opacity:1"><use xlink:href="#k" x="13.875" y="469.566"/><use xlink:href="#l" x="17.205" y="469.566"/><use xlink:href="#m" x="22.765" y="469.566"/><use xlink:href="#b" x="25.545" y="469.566"/></g><g style="fill:#262626;fill-opacity:1"><use xlink:href="#k" x="13.875" y="394.066"/><use xlink:href="#l" x="17.205" y="394.066"/><use xlink:href="#m" x="22.765" y="394.066"/><use xlink:href="#n" x="25.545" y="394.066"/></g><use xlink:href="#l" x="25.275" y="318.566" style="fill:#262626;fill-opacity:1"/><g style="fill:#262626;fill-opacity:1"><use xlink:href="#l" x="16.875" y="243.066"/><use xlink:href="#m" x="22.435" y="243.066"/><use xlink:href="#n" x="25.215" y="243.066"/></g><g style="fill:#262626;fill-opacity:1"><use xlink:href="#l" x="16.875" y="167.566"/><use xlink:href="#m" x="22.435" y="167.566"/><use xlink:href="#b" x="25.215" y="167.566"/></g><g style="fill:#262626;fill-opacity:1"><use xlink:href="#l" x="16.875" y="92.066"/><use xlink:href="#m" x="22.435" y="92.066"/><use xlink:href="#d" x="25.215" y="92.066"/></g><g style="fill:#262626;fill-opacity:1"><use xlink:href="#l" x="16.875" y="16.566"/><use xlink:href="#m" x="22.435" y="16.566"/><use xlink:href="#f" x="25.215" y="16.566"/></g><g style="fill:#262626;fill-opacity:1"><use xlink:href="#o" x="7.875" y="265.265"/><use xlink:href="#p" x="7.875" y="258.545"/><use xlink:href="#q" x="7.875" y="254.882"/><use xlink:href="#r" x="7.875" y="248.766"/><use xlink:href="#s" x="7.875" y="242.65"/><use xlink:href="#q" x="7.875" y="236.534"/><use xlink:href="#t" x="7.875" y="230.418"/><use xlink:href="#u" x="7.875" y="224.302"/><use xlink:href="#v" x="7.875" y="218.802"/></g><g style="fill:#000;fill-opacity:1"><use xlink:href="#w" x="82.076" y="8.016"/><use xlink:href="#x" x="88.191" y="8.016"/><use xlink:href="#y" x="90.633" y="8.016"/><use xlink:href="#i" x="96.133" y="8.016"/><use xlink:href="#z" x="99.191" y="8.016"/><use xlink:href="#A" x="105.307" y="8.016"/><use xlink:href="#B" x="111.423" y="8.016"/><use xlink:href="#h" x="115.086" y="8.016"/><use xlink:href="#C" x="121.202" y="8.016"/><use xlink:href="#D" x="130.365" y="8.016"/><use xlink:href="#z" x="133.423" y="8.016"/><use xlink:href="#E" x="139.539" y="8.016"/><use xlink:href="#D" x="142.596" y="8.016"/><use xlink:href="#F" x="145.654" y="8.016"/><use xlink:href="#G" x="152.991" y="8.016"/><use xlink:href="#g" x="161.549" y="8.016"/><use xlink:href="#D" x="169.491" y="8.016"/><use xlink:href="#H" x="172.549" y="8.016"/><use xlink:href="#I" x="176.212" y="8.016"/><use xlink:href="#z" x="182.328" y="8.016"/><use xlink:href="#B" x="188.444" y="8.016"/><use xlink:href="#C" x="192.107" y="8.016"/><use xlink:href="#h" x="201.269" y="8.016"/><use xlink:href="#J" x="207.385" y="8.016"/><use xlink:href="#x" x="209.827" y="8.016"/><use xlink:href="#K" x="212.269" y="8.016"/><use xlink:href="#j" x="217.769" y="8.016"/><use xlink:href="#L" x="223.885" y="8.016"/><use xlink:href="#M" x="230.001" y="8.016"/></g><path d="M104.969 314.664v-149.8H84.355v149.8Zm41.226 0v-149.8h-20.613v149.8Zm20.614 0V15.063h-20.614v299.601Zm41.226 0V15.063h-20.613v299.601Zm0 0" style="stroke:none;fill-rule:nonzero;fill:#0072bd;fill-opacity:.6"/><path d="M870.8 573.33V323.664h34.356V573.33m0 0h34.356m0 0V323.664h34.355m0 249.666V73.996h34.356V573.33m0 0h34.355m0 0V73.996h34.356V573.33" style="fill:none;stroke-width:.833333;stroke-linecap:square;stroke-linejoin:miter;stroke:#000;stroke-opacity:1;stroke-miterlimit:10" transform="matrix(.6 0 0 .6 -438.125 -29.334)"/><path d="m845.443 511.013.28-.384.286-.384.28-.39.287-.385.28-.384.572-.781.28-.391.287-.384.28-.39.286-.398.28-.39.287-.391.28-.397.286-.39.28-.398.286-.39.28-.398.287-.397.28-.397.286-.397.28-.397.287-.397.28-.404.286-.397.28-.404.286-.397.28-.404.287-.403.28-.397.286-.404.28-.404.287-.403.28-.404.286-.404.28-.41.573-.807.28-.41.286-.404.28-.41.287-.404.28-.41.286-.403.28-.41.287-.41.28-.411.286-.41.28-.41.286-.41.28-.41.287-.41.28-.41.286-.411.28-.41.287-.41.28-.417.286-.41.28-.41.286-.417.28-.41.287-.417.28-.41.286-.417.28-.41.573-.833.28-.41.286-.417.28-.417.287-.41.28-.416.286-.417.28-.417.287-.41.28-.417.286-.416.28-.417.287-.417.28-.416.286-.417.28-.417.286-.416.28-.417.287-.417.28-.416.286-.417.28-.417.287-.416.28-.417.286-.417.28-.416.286-.417.28-.417.287-.416.28-.417.573-.833.28-.417.286-.417.28-.423.286-.416.28-.417.287-.417.28-.416.286-.417.28-.417.287-.423.28-.417.286-.416.28-.417.286-.417.28-.416.287-.423.28-.417.286-.417.28-.416.287-.417.28-.417.286-.423.28-.417.287-.416.28-.417.286-.417.28-.416.286-.424.287-.416.28-.417.286-.417.28-.416.287-.423.28-.417.286-.417.28-.416.286-.417.28-.423.287-.417.28-.417.286-.416.28-.417.287-.423.28-.417.286-.416.28-.417.286-.417.28-.423.287-.417.28-.416.286-.417.28-.423.287-.417.28-.416.286-.424.28-.416.286-.417.28-.417.287-.423.286-.416.28-.417.287-.423.28-.417.286-.423.28-.417.287-.416.28-.424.286-.416.28-.423.286-.417.28-.417.287-.423.28-.417.286-.423.28-.416.287-.424.28-.416.286-.423.28-.424.286-.416.28-.424.287-.416.28-.423.286-.424.28-.416.287-.423.28-.424.286-.423.28-.416.573-.847.28-.423.286-.423.28-.423.287-.423.28-.424.286-.423.28-.423.287-.423.28-.423.286-.424.28-.423.286-.423.28-.423.287-.423.28-.423.286-.43.28-.423.287-.423.28-.43.286-.423.28-.423.286-.43.28-.423.287-.43.28-.423.286-.43.28-.423.287-.43.286-.423.28-.43.286-.43.28-.429.287-.423.28-.43.286-.43.28-.43.287-.429.28-.423.286-.43.28-.43.286-.43.28-.429.287-.43.28-.43.286-.429.28-.436.287-.43.28-.43.286-.43.28-.429.287-.436.28-.43.286-.43.28-.436.286-.43.28-.429.287-.436.286-.43.28-.436.287-.43.28-.436.286-.43.28-.436.286-.43.28-.436.287-.43.28-.436.286-.436.28-.43.287-.436.28-.436.286-.43.28-.436.286-.436.28-.43.287-.436.28-.436.286-.43.28-.436.287-.436.28-.436.286-.43.28-.436.286-.436.28-.437.287-.43.28-.436.573-.872.28-.43.286-.436.28-.436.287-.43.28-.436.286-.436.28-.43.286-.436.28-.43.287-.436.28-.436.286-.43.28-.436.287-.43.28-.43.286-.436.28-.43.286-.429.28-.436.287-.43.28-.43.286-.43.28-.429.287-.43.28-.43.286-.429.28-.43.286-.43.28-.429.287-.423.286-.43.28-.43.287-.423.28-.423.286-.43.28-.423.287-.423.28-.423.286-.423.28-.423.286-.424.28-.423.287-.423.28-.417.286-.423.28-.417.287-.416.28-.417.286-.423.28-.41.286-.417.28-.417.287-.416.28-.41.286-.41.28-.417.287-.41.28-.41.286-.41.286-.404.28-.41.287-.404.28-.404.286-.41.28-.397.287-.404.28-.403.286-.397.28-.404.286-.397.28-.397.287-.397.28-.391.286-.397.28-.39.287-.391.28-.391.286-.39.28-.385.286-.39.28-.385.287-.384.28-.384.286-.377.28-.385.287-.377.28-.378.286-.37.28-.378.573-.743.28-.37.286-.365.28-.371.287-.365.28-.365.286-.358.28-.364.287-.358.28-.358.286-.352.28-.358.286-.352.28-.351.287-.345.28-.352.286-.345.28-.338.287-.345.28-.339.286-.338.28-.339.286-.332.28-.332.287-.332.28-.326.286-.332.28-.319.287-.325.286-.32.28-.318.287-.32.28-.312.286-.312.28-.313.286-.312.28-.306.287-.306.28-.3.286-.3.28-.299.287-.293.28-.293.286-.293.28-.293.286-.286.28-.286.287-.28.28-.28.286-.28.28-.274.287-.273.28-.274.286-.267.28-.266.286-.267.28-.26.287-.261.28-.254.573-.508.28-.247.286-.248.28-.247.286-.241.28-.24.287-.242.28-.234.286-.235.28-.227.287-.228.28-.222.286-.227.28-.215.287-.222.28-.215.286-.208.28-.215.286-.202.28-.208.287-.202.28-.195.286-.202.28-.189.287-.195.28-.189.286-.182.28-.189.286-.176.28-.182.287-.176.286-.169.28-.17.287-.168.28-.17.286-.156.28-.163.286-.156.28-.156.287-.15.28-.15.286-.143.28-.143.287-.143.28-.137.286-.137.28-.13.286-.13.28-.13.287-.124.28-.117.286-.124.28-.11.287-.118.28-.11.286-.105.28-.11.287-.098.28-.104.286-.098.286-.091.28-.091.287-.091.28-.085.286-.085.28-.078.287-.078.28-.078.286-.072.28-.071.286-.065.28-.065.287-.066.28-.058.286-.052.28-.059.287-.045.28-.052.286-.046.28-.046.286-.039.28-.039.287-.032.28-.033.286-.032.28-.026.287-.02.28-.026.286-.02.287-.013.28-.02.286-.006.28-.013.286-.006h1.133l.28.006.287.013.28.013.286.013.28.013.286.02.28.026.287.02.28.032.286.026.28.033.287.032.28.04.286.038.28.04.286.045.28.046.287.052.28.052.286.052.28.058.573.118.28.065.286.065.28.071.287.072.28.072.286.071.28.078.287.085.28.078.286.085.28.09.287.086.28.097.286.091.28.098.286.098.28.097.287.105.28.104.286.11.28.111.287.11.28.118.286.117.28.117.286.117.28.124.287.13.28.124.573.26.28.137.286.137.28.137.286.143.28.143.287.143.28.144.286.15.28.149.287.156.28.157.286.156.28.156.286.163.28.163.287.169.28.17.286.168.28.17.287.175.28.176.286.176.28.182.287.183.28.182.286.182.28.189.286.189.287.195.28.195.286.196.28.195.287.202.28.202.286.201.28.209.286.208.28.208.287.209.28.215.286.214.28.222.287.215.28.221.286.221.28.228.286.228.28.228.287.234.28.228.286.235.28.24.287.235.28.24.286.248.28.241.286.247.28.248.287.247.286.254.28.254.287.254.28.26.286.26.28.261.287.26.28.268.286.266.28.267.286.274.28.273.287.274.28.28.286.273 1.133 1.133.28.293.286.286.28.293.287.293.28.293.286.3.28.3.287.299.28.306.572.612.28.306.287.312.28.313.286.312.28.32.287.318.28.32.286.325.28.319.286.325.28.332.287.326.28.332.286.338.28.332.287.339.28.338.286.346.28.338.287.352.28.345.286.351.28.345.286.358.28.352.287.358.28.358.286.365.287.358.28.364.286.371.28.365.286.371.28.378.287.37.28.378.286.378.28.384.287.378.28.384.286.39.28.385.286.39.28.397.287.39.28.398.286.397.28.404.287.403.28.404.286.404.28.41.286.41.28.41.287.417.28.417.286.416.28.423.287.417.286.43.28.423.287.43.28.43.286.429.28.436.286.436.28.437.287.442.28.443.286.443.28.442.287.45.28.449.286.45.28.455.286.456.28.455.287.463.28.462.286.462.28.469.287.462.28.475.286.469.28.475.286.476.28.475.287.475.28.482.286.482.287.488.28.488.286.488.28.489.287.495.28.494.286.495.28.495.286.501.28.501.287.502.28.508.286.507.28.508.287.508.28.514.286.515.28.514.286.52.28.522.287.52.28.521.286.528.28.527.287.527.28.528.286.534.28.533.573 1.068.28.54.286.54.28.541.287.547.28.54.286.547.28.547.286.554.28.553.287.547.28.56.286.553.28.56.287.553.28.56.286.567.28.56.287.566.28.566.286.567.28.566.286.573.28.573.287.573.28.573.286.573.28.58.287.579.28.58.572 1.158.28.586.287.58.28.585.286.586.28.586.287.593.28.586.286.592.28.592.286.593.28.592.287.6.28.592.286.599.28.599.287.599.28.599.286.599.28.598.286.606.28.599.287.605.28.606.286.605.28.606.287.605.28.606.286.612.28.605.573 1.224.28.606.286.612.28.612.287.612.28.612.286.611.28.619.287.612.28.612.286.618.28.612.286.612.28.619.287.618.28.612.286.619.28.618.287.612.28.619.286.618.28.612.286.619.28.618.287.619.28.618.286.612.28.619.573 1.237.28.618.287.612.28.619.286.618.28.612.286.619.28.612.287.618.28.612.286.619.28.611.287.619.28.612.286.612.28.612.286.612.28.612.287.612.28.612.286.605.28.612.287.612.28.606.286.605.28.612.286.606.28.605.287.6.28.605.286.605.287.599.28.605.286.6.28.598.286.6.28.598.287.593.28.599.286.592.28.593.287.599.28.585.286.593.28.592.287.586.28.586.286.586.28.586.286.58.28.585.287.58.28.58.286.579.28.573.287.58.28.572.286.573.28.573.286.566.287.573.28.567.286.56.28.566.287.56.28.566.286.56.28.553.286.56.28.554.287.553.28.547.286.553.28.547.287.547.28.54.286.547.28.54.286.535.28.54.287.534.28.534.286.534.28.527.287.527.28.528.286.52.28.528.286.52.287.515.28.52.286.515.28.508.287.514.28.508.286.501.28.508.287.501.28.502.286.495.28.5.286.49.28.494.287.488.28.488.286.489.28.482.287.481.28.476.286.481.28.47.286.474.28.47.287.468.28.469.286.462.28.462.287.456.28.456.286.455" style="fill:none;stroke-width:.833333;stroke-linecap:butt;stroke-linejoin:round;stroke:#d95319;stroke-opacity:1;stroke-miterlimit:10" transform="matrix(.6 0 0 .6 -438.125 -29.334)"/><path d="M99.078 243.035a2.749 2.749 0 1 1 0 5.5 2.749 2.749 0 1 1 0-5.5m0-.5a3.25 3.25 0 1 0 0 6.5 3.25 3.25 0 0 0 0-6.5m19.632 180.039a2.749 2.749 0 1 1 0 5.5 2.749 2.749 0 1 1 0-5.5m0-.5a3.25 3.25 0 1 0 0 6.5 3.25 3.25 0 0 0 0-6.5m19.634-122.539a2.749 2.749 0 1 1 0 5.5 2.749 2.749 0 1 1 0-5.5m0-.5a3.25 3.25 0 1 0 0 6.5 3.25 3.25 0 0 0 0-6.5m19.633-138.461a2.754 2.754 0 0 1 2.75 2.75 2.749 2.749 0 1 1-2.75-2.75m0-.5a3.25 3.25 0 1 0 0 6.5 3.25 3.25 0 0 0 0-6.5m19.628 291.098a2.749 2.749 0 1 1 .002 5.502 2.749 2.749 0 0 1-.002-5.502m0-.5a3.25 3.25 0 1 0 0 6.5 3.25 3.25 0 0 0 0-6.5m19.633-324.074a2.749 2.749 0 1 1 0 5.5 2.749 2.749 0 1 1 0-5.5m0-.5a3.25 3.25 0 1 0 0 6.5 3.25 3.25 0 0 0 0-6.5m0 0" style="stroke:none;fill-rule:nonzero;fill:#0f0;fill-opacity:1"/><path d="M895.339 573.33V458.534M928.06 573.33v184.434m32.721-184.434V552.7m32.722 20.63V321.099m32.714 252.231v232.097m32.722-232.097V264.47" style="fill:none;stroke-width:.833333;stroke-linecap:butt;stroke-linejoin:round;stroke:#0f0;stroke-opacity:1;stroke-miterlimit:10" transform="matrix(.6 0 0 .6 -438.125 -29.334)"/><path d="M272.875 60.664v-40.2h-78v40.2Zm0 0" style="stroke:none;fill-rule:nonzero;fill:#fff;fill-opacity:1"/><g style="fill:#000;fill-opacity:1"><use xlink:href="#N" x="230.193" y="31.651"/><use xlink:href="#O" x="235.197" y="31.651"/><use xlink:href="#P" x="237.195" y="31.651"/><use xlink:href="#Q" x="241.695" y="31.651"/><use xlink:href="#R" x="244.197" y="31.651"/><use xlink:href="#S" x="249.201" y="31.651"/><use xlink:href="#T" x="254.205" y="31.651"/><use xlink:href="#U" x="257.202" y="31.651"/><use xlink:href="#V" x="262.206" y="31.651"/></g><path d="M227.938 32.602V23.5h-30.06v9.102Zm0 0" style="stroke:none;fill-rule:nonzero;fill:#0072bd;fill-opacity:.6"/><path d="M1060.007 103.227v-15.17h50.097v15.17Zm0 0" style="fill:none;stroke-width:.833333;stroke-linecap:butt;stroke-linejoin:miter;stroke:#000;stroke-opacity:1;stroke-miterlimit:10" transform="matrix(.6 0 0 .6 -438.125 -29.334)"/><g style="fill:#000;fill-opacity:1"><use xlink:href="#W" x="230.193" y="44.166"/><use xlink:href="#O" x="232.695" y="44.166"/><use xlink:href="#Q" x="234.693" y="44.166"/><use xlink:href="#X" x="237.195" y="44.166"/><use xlink:href="#Y" x="239.697" y="44.166"/><use xlink:href="#Z" x="244.197" y="44.166"/><use xlink:href="#T" x="249.201" y="44.166"/><use xlink:href="#aa" x="252.198" y="44.166"/><use xlink:href="#ab" x="256.698" y="44.166"/></g><path d="M1060.007 116.501h50.097" style="fill:none;stroke-width:.833333;stroke-linecap:butt;stroke-linejoin:round;stroke:#d95319;stroke-opacity:1;stroke-miterlimit:10" transform="matrix(.6 0 0 .6 -438.125 -29.334)"/><g style="fill:#000;fill-opacity:1"><use xlink:href="#ab" x="230.193" y="56.681"/><use xlink:href="#T" x="235.197" y="56.681"/><use xlink:href="#T" x="238.194" y="56.681"/><use xlink:href="#R" x="241.191" y="56.681"/><use xlink:href="#T" x="246.195" y="56.681"/></g><path d="M212.91 50.332a2.749 2.749 0 1 1 0 5.5 2.749 2.749 0 1 1 0-5.5m0-.5a3.25 3.25 0 1 0 0 6.5 3.25 3.25 0 0 0 0-6.5m0 0" style="stroke:none;fill-rule:nonzero;fill:#0f0;fill-opacity:1"/><path d="M1055 149.997V83h130v66.998Zm0 0" style="fill:none;stroke-width:.833333;stroke-linecap:butt;stroke-linejoin:miter;stroke:#262626;stroke-opacity:1;stroke-miterlimit:10" transform="matrix(.6 0 0 .6 -438.125 -29.334)"/></svg>