<svg xmlns="http://www.w3.org/2000/svg" xmlns:xlink="http://www.w3.org/1999/xlink" width="289pt" height="496pt" viewBox="0 0 289 496"><defs><symbol id="a" overflow="visible"><path d="M3.266-1.75V0h.89v-1.75h1.047v-.797H4.156v-4.687H3.5L.281-2.687v.937Zm0-.797h-2.22l2.22-3.187Zm0 0" style="stroke:none"/></symbol><symbol id="b" overflow="visible"><path d="M1.906-1.047H.875V0h1.031Zm0 0" style="stroke:none"/></symbol><symbol id="c" overflow="visible"><path d="M4.766-7.094H1.094l-.532 3.86h.813c.422-.485.75-.657 1.313-.657.953 0 1.546.657 1.546 1.704 0 1.015-.593 1.64-1.546 1.64-.782 0-1.25-.39-1.454-1.187h-.89c.125.578.219.859.437 1.109.407.547 1.125.86 1.922.86 1.422 0 2.422-1.047 2.422-2.547 0-1.391-.922-2.36-2.281-2.36-.5 0-.906.125-1.313.438l.282-1.985h2.953Zm0 0" style="stroke:none"/></symbol><symbol id="d" overflow="visible"><path d="M4.984-5.344c-.171-1.187-.937-1.89-2.015-1.89a2.27 2.27 0 0 0-1.906 1.03c-.438.72-.625 1.595-.625 2.907 0 1.219.156 1.985.593 2.625.375.594 1 .906 1.782.906 1.343 0 2.312-1.015 2.312-2.421 0-1.329-.89-2.266-2.172-2.266-.687 0-1.25.25-1.625.781.016-1.781.578-2.781 1.578-2.781.625 0 1.047.406 1.188 1.11Zm-2.14 1.657c.86 0 1.39.609 1.39 1.562 0 .922-.609 1.578-1.421 1.578s-1.438-.687-1.438-1.61c0-.905.61-1.53 1.469-1.53m0 0" style="stroke:none"/></symbol><symbol id="i" overflow="visible"><path d="M2.844-3.125H.454v.719h2.39Zm0 0" style="stroke:none"/></symbol><symbol id="j" overflow="visible"><path d="M2.75-7.234c-.656 0-1.266.297-1.625.797C.656-5.797.438-4.844.438-3.5c0 2.438.796 3.734 2.312 3.734 1.5 0 2.313-1.296 2.313-3.671 0-1.407-.22-2.344-.688-3-.36-.5-.953-.797-1.625-.797m0 .78c.953 0 1.422.97 1.422 2.938C4.172-1.453 3.703-.5 2.734-.5c-.937 0-1.406-1-1.406-2.984 0-2 .469-2.97 1.422-2.97m0 0" style="stroke:none"/></symbol><symbol id="k" overflow="visible"><path d="M2.594-5.156V0h.875v-7.234H2.89c-.313 1.109-.516 1.265-1.875 1.437v.64Zm0 0" style="stroke:none"/></symbol><symbol id="l" overflow="visible"><path d="M5.063-.875H1.328c.094-.594.406-.969 1.281-1.5l1-.562c.985-.547 1.5-1.297 1.5-2.188a2.1 2.1 0 0 0-.656-1.547c-.422-.375-.937-.562-1.61-.562-.905 0-1.577.328-1.968.937-.25.39-.36.844-.375 1.563h.875c.031-.485.094-.782.219-1.016.218-.437.687-.703 1.219-.703.796 0 1.39.578 1.39 1.36 0 .577-.328 1.077-.953 1.437l-.922.531C.844-2.265.422-1.594.344-.015h4.719Zm0 0" style="stroke:none"/></symbol><symbol id="e" overflow="visible"><path d="M2.047-3.453h2.64C5.595-3.453 6-3.016 6-2.031v.719c0 .5.078.984.219 1.312h1.25v-.25C7.079-.516 7-.797 6.984-1.875c-.015-1.312-.218-1.719-1.093-2.078.906-.453 1.265-1 1.265-1.922 0-1.39-.86-2.14-2.437-2.14H1.016V0h1.03Zm0-.906v-2.75h2.469c.578 0 .906.078 1.156.297q.422.35.422 1.078c0 .953-.485 1.375-1.578 1.375Zm0 0" style="stroke:none"/></symbol><symbol id="f" overflow="visible"><path d="M5.89-.531c-.109.015-.156.015-.202.015-.313 0-.5-.171-.5-.453v-3.39c0-1.016-.75-1.563-2.157-1.563-.86 0-1.531.234-1.922.656-.265.297-.375.641-.39 1.204h.922c.078-.704.5-1.016 1.343-1.016.844 0 1.297.297 1.297.86v.234c-.015.39-.218.547-.953.64-1.297.172-1.5.203-1.86.36-.671.28-1 .78-1 1.53C.469-.405 1.189.25 2.36.25c.72 0 1.297-.25 1.954-.844.062.594.343.844.953.844.187 0 .312-.016.625-.094ZM4.282-1.812c0 .312-.093.5-.36.75-.374.343-.827.515-1.374.515-.703 0-1.125-.344-1.125-.922 0-.61.39-.922 1.39-1.062.97-.125 1.157-.172 1.47-.313Zm0 0" style="stroke:none"/></symbol><symbol id="g" overflow="visible"><path d="M2.797-5.766h-.953v-1.578H.937v1.578h-.78v.75h.78v4.36c0 .594.391.906 1.11.906.234 0 .437-.016.75-.078v-.766c-.14.031-.25.047-.438.047-.406 0-.515-.11-.515-.515v-3.954h.953Zm0 0" style="stroke:none"/></symbol><symbol id="h" overflow="visible"><path d="M5.64-2.578c0-.875-.062-1.406-.234-1.828-.375-.953-1.25-1.516-2.328-1.516-1.61 0-2.64 1.219-2.64 3.11 0 1.906 1 3.062 2.625 3.062 1.312 0 2.234-.75 2.453-2h-.922c-.25.766-.766 1.156-1.5 1.156a1.61 1.61 0 0 1-1.39-.75c-.22-.328-.298-.656-.313-1.234Zm-4.218-.75c.078-1.063.719-1.75 1.64-1.75.938 0 1.594.719 1.594 1.75Zm0 0" style="stroke:none"/></symbol><symbol id="u" overflow="visible"><path d="M.766-8.016V0h.922v-3.172c0-1.187.609-1.953 1.562-1.953.297 0 .594.094.813.25.265.203.375.469.375.875v4h.906v-4.36c0-.968-.688-1.562-1.813-1.562-.812 0-1.312.25-1.844.953v-3.047Zm0 0" style="stroke:none"/></symbol><symbol id="v" overflow="visible"><path d="M1.656-5.766H.734V0h.922Zm0-2.25H.72v1.157h.937Zm0 0" style="stroke:none"/></symbol><symbol id="w" overflow="visible"><path d="M4.813-4.156c0-1.14-.75-1.766-2.079-1.766-1.343 0-2.218.688-2.218 1.75 0 .906.468 1.328 1.828 1.656l.86.22c.64.155.89.39.89.796 0 .547-.547.906-1.344.906-.5 0-.906-.14-1.14-.39-.141-.157-.22-.328-.266-.735H.375C.422-.39 1.172.25 2.672.25c1.453 0 2.375-.719 2.375-1.828 0-.86-.484-1.328-1.625-1.594l-.875-.219c-.75-.171-1.078-.421-1.078-.828 0-.531.484-.86 1.219-.86.75 0 1.14.313 1.156.923Zm0 0" style="stroke:none"/></symbol><symbol id="x" overflow="visible"><path d="M2.984-5.922C1.36-5.922.391-4.782.391-2.844.39-.89 1.359.25 3 .25c1.625 0 2.61-1.156 2.61-3.047 0-2-.954-3.125-2.626-3.125M3-5.078c1.031 0 1.656.844 1.656 2.266 0 1.374-.64 2.218-1.656 2.218s-1.64-.843-1.64-2.25c0-1.39.624-2.234 1.64-2.234m0 0" style="stroke:none"/></symbol><symbol id="y" overflow="visible"><path d="M4.438-5.766v.844c-.454-.703-.97-1-1.688-1-1.39 0-2.36 1.297-2.36 3.14 0 .97.22 1.673.72 2.25.437.516.984.782 1.578.782.687 0 1.187-.312 1.671-1.031v.297c0 1.547-.437 2.109-1.578 2.109C2 1.625 1.594 1.313 1.5.656H.578c.078 1.078.922 1.735 2.188 1.735.843 0 1.547-.266 1.922-.735.437-.531.609-1.25.609-2.61v-4.812Zm-1.594.688c.969 0 1.515.812 1.515 2.266 0 1.406-.562 2.218-1.515 2.218s-1.5-.828-1.5-2.25c0-1.406.547-2.234 1.5-2.234m0 0" style="stroke:none"/></symbol><symbol id="z" overflow="visible"><path d="M.766-5.766V0h.922v-2.984c0-1.391.578-2.016 1.843-1.985v-.922c-.156-.03-.25-.03-.36-.03-.593 0-1.03.343-1.562 1.202v-1.047Zm0 0" style="stroke:none"/></symbol><symbol id="A" overflow="visible"><path d="M.766-5.766V0h.922v-3.625c0-.828.609-1.5 1.359-1.5.687 0 1.062.422 1.062 1.156V0h.922v-3.625c0-.828.61-1.5 1.36-1.5.672 0 1.062.422 1.062 1.156V0h.922v-4.328c0-1.031-.594-1.594-1.672-1.594-.766 0-1.219.219-1.766.875-.343-.625-.796-.875-1.546-.875-.766 0-1.297.281-1.782.969v-.813Zm0 0" style="stroke:none"/></symbol><symbol id="C" overflow="visible"><path d="M2.844-5.766h-.969v-.906c0-.375.219-.578.64-.578.079 0 .11 0 .329.016V-8c-.219-.047-.328-.047-.516-.047-.86 0-1.36.485-1.36 1.297v.984H.204v.75H.97V0h.906v-5.016h.969Zm0 0" style="stroke:none"/></symbol><symbol id="D" overflow="visible"><path d="M5.219-2.406 6.03 0h1.157L4.358-8.016H3.047L.187 0h1.094l.844-2.406Zm-.297-.86H2.375l1.328-3.656Zm0 0" style="stroke:none"/></symbol><symbol id="E" overflow="visible"><path d="M7.797-4.234H4.453v.906h2.438v.219c0 1.422-1.047 2.453-2.516 2.453-.812 0-1.547-.297-2.016-.813C1.83-2.03 1.5-2.984 1.5-3.984c0-1.97 1.125-3.266 2.828-3.266 1.219 0 2.094.625 2.313 1.656h1.047c-.282-1.625-1.516-2.562-3.36-2.562-.969 0-1.766.265-2.39.781C1-6.609.484-5.375.484-3.922.484-1.469 1.984.25 4.156.25 5.25.25 6.11-.156 6.891-1.016L7.156.047h.64Zm0 0" style="stroke:none"/></symbol><symbol id="F" overflow="visible"><path d="M2.594-8.016C1.5-6.578.797-4.578.797-2.844c0 1.735.703 3.735 1.797 5.172h.61C2.233.766 1.686-1.094 1.686-2.844s.547-3.61 1.516-5.172Zm0 0" style="stroke:none"/></symbol><symbol id="G" overflow="visible"><path d="M.766-5.766V0h.922v-3.172c0-1.187.625-1.953 1.562-1.953.734 0 1.188.438 1.188 1.125v4h.921v-4.36c0-.952-.718-1.562-1.828-1.562-.86 0-1.406.328-1.922 1.125v-.969Zm0 0" style="stroke:none"/></symbol><symbol id="H" overflow="visible"><path d="M1.672-8.016H.75V0h.922Zm0 0" style="stroke:none"/></symbol><symbol id="I" overflow="visible"><path d="M4.875-5.766H.578v.797h3.203L.344-.829V0H5.03v-.797H1.453l3.422-4.156Zm0 0" style="stroke:none"/></symbol><symbol id="J" overflow="visible"><path d="M5.438-8.016H4.53v2.985c-.39-.594-1-.89-1.765-.89-1.5 0-2.485 1.187-2.485 3.03C.281-.953 1.234.25 2.797.25c.797 0 1.344-.297 1.828-1.016V0h.813ZM2.922-5.078c.984 0 1.61.875 1.61 2.266 0 1.328-.641 2.203-1.61 2.203C1.906-.61 1.25-1.5 1.25-2.844s.656-2.234 1.672-2.234m0 0" style="stroke:none"/></symbol><symbol id="K" overflow="visible"><path d="M1.016 2.328C2.125.891 2.813-1.109 2.813-2.844s-.688-3.734-1.797-5.172H.422c.969 1.563 1.5 3.422 1.5 5.172S1.39.766.422 2.328Zm0 0" style="stroke:none"/></symbol><symbol id="m" overflow="visible"><path d="M-3.656-2.016v-3.828h-.89v3.828H-7.11v-4.359h-.907v5.39H0v-1.03Zm0 0" style="stroke:none"/></symbol><symbol id="n" overflow="visible"><path d="M-5.766-.766H0v-.921h-2.984c-1.391 0-2.016-.579-1.985-1.844h-.922c-.03.156-.03.25-.03.36 0 .593.343 1.03 1.202 1.562h-1.047Zm0 0" style="stroke:none"/></symbol><symbol id="o" overflow="visible"><path d="M-2.578-5.64c-.875 0-1.406.062-1.828.234-.953.375-1.516 1.25-1.516 2.328 0 1.61 1.219 2.64 3.11 2.64 1.906 0 3.062-1 3.062-2.624 0-1.313-.75-2.235-2-2.454v.922c.766.25 1.156.766 1.156 1.5a1.61 1.61 0 0 1-.75 1.39c-.328.22-.656.298-1.234.313Zm-.75 4.218c-1.063-.078-1.75-.719-1.75-1.64 0-.938.719-1.594 1.75-1.594Zm0 0" style="stroke:none"/></symbol><symbol id="p" overflow="visible"><path d="M2.39-5.437h-8.156v.812H-5c-.594.422-.922 1.078-.922 1.828 0 1.516 1.234 2.516 3.156 2.516C-.906-.281.25-1.22.25-2.75c0-.797-.281-1.36-.906-1.781H2.39Zm-7.468 2.515c0-.984.875-1.61 2.266-1.61 1.328 0 2.203.641 2.203 1.61 0 1.016-.891 1.672-2.235 1.672s-2.234-.656-2.234-1.672m0 0" style="stroke:none"/></symbol><symbol id="q" overflow="visible"><path d="M0-5.297h-5.766v.906H-2.5c1.188 0 1.953.625 1.953 1.579 0 .718-.437 1.187-1.14 1.187h-4.079v.906h4.454C-.36-.719.25-1.437.25-2.547c0-.86-.297-1.39-1.047-1.937H0Zm0 0" style="stroke:none"/></symbol><symbol id="r" overflow="visible"><path d="M-5.766-.766H0v-.921h-3.172c-1.187 0-1.953-.625-1.953-1.563 0-.734.438-1.187 1.125-1.187h4v-.922h-4.36c-.952 0-1.562.718-1.562 1.828 0 .86.328 1.406 1.125 1.922h-.969Zm0 0" style="stroke:none"/></symbol><symbol id="s" overflow="visible"><path d="M-3.828-5.187c-.563.046-.922.171-1.25.39-.531.39-.844 1.094-.844 1.89 0 1.563 1.219 2.563 3.14 2.563C-.921-.344.25-1.328.25-2.89c0-1.375-.828-2.25-2.234-2.359v.922c.922.156 1.39.625 1.39 1.406 0 1.016-.828 1.625-2.187 1.625-1.438 0-2.297-.594-2.297-1.594 0-.765.453-1.25 1.25-1.359Zm0 0" style="stroke:none"/></symbol><symbol id="t" overflow="visible"><path d="m-5.766-4.266 4.485 1.594-4.485 1.469v.984L.016-2.172l.922.36c.406.156.562.343.562.734 0 .156-.031.281-.062.484h.812c.11-.187.14-.375.14-.61a1.5 1.5 0 0 0-.265-.858c-.219-.297-.453-.454-.922-.626l-6.969-2.578Zm0 0" style="stroke:none"/></symbol><symbol id="L" overflow="visible"><path d="M.625-6.562V0h.75v-2.594c0-.969.5-1.594 1.281-1.594.25 0 .485.063.672.204.203.156.297.39.297.718V0h.75v-3.562c0-.797-.562-1.282-1.484-1.282-.672 0-1.078.203-1.516.782v-2.5Zm0 0" style="stroke:none"/></symbol><symbol id="M" overflow="visible"><path d="M1.344-4.719H.609V0h.735Zm0-1.843h-.75v.953h.75Zm0 0" style="stroke:none"/></symbol><symbol id="N" overflow="visible"><path d="M3.938-3.406c0-.922-.61-1.438-1.704-1.438S.422-4.28.422-3.406c0 .734.375 1.078 1.5 1.36l.703.171c.516.125.719.313.719.64 0 .454-.438.75-1.094.75-.406 0-.75-.124-.937-.312-.11-.14-.172-.281-.22-.61h-.78C.343-.311.953.204 2.188.204c1.187 0 1.937-.578 1.937-1.484 0-.703-.39-1.094-1.328-1.313l-.719-.172c-.61-.156-.875-.343-.875-.687 0-.438.39-.703 1-.703s.922.265.953.75Zm0 0" style="stroke:none"/></symbol><symbol id="O" overflow="visible"><path d="M2.281-4.719h-.765v-1.297h-.75v1.297H.125v.61h.64v3.562c0 .5.329.75.907.75.203 0 .36-.016.61-.062v-.625c-.11.03-.204.03-.36.03-.313 0-.406-.093-.406-.421v-3.234h.765Zm0 0" style="stroke:none"/></symbol><symbol id="P" overflow="visible"><path d="M2.453-4.844c-1.344 0-2.125.938-2.125 2.516C.328-.734 1.11.203 2.453.203c1.328 0 2.14-.937 2.14-2.484 0-1.64-.78-2.563-2.14-2.563m0 .688c.844 0 1.36.687 1.36 1.86 0 1.124-.532 1.812-1.36 1.812S1.11-1.172 1.11-2.328c0-1.14.516-1.828 1.344-1.828m0 0" style="stroke:none"/></symbol><symbol id="Q" overflow="visible"><path d="M3.64-4.719v.688c-.374-.563-.796-.813-1.39-.813C1.11-4.844.313-3.78.313-2.28c0 .797.187 1.375.593 1.844.36.421.797.64 1.297.64.563 0 .969-.25 1.36-.844v.25c0 1.25-.344 1.72-1.282 1.72-.64 0-.969-.25-1.047-.782H.47c.078.86.765 1.422 1.797 1.422.687 0 1.265-.235 1.562-.61.36-.437.5-1.03.5-2.14v-3.94Zm-1.312.563c.781 0 1.235.672 1.235 1.86 0 1.14-.454 1.812-1.235 1.812s-1.234-.672-1.234-1.844c0-1.14.453-1.828 1.234-1.828m0 0" style="stroke:none"/></symbol><symbol id="R" overflow="visible"><path d="M.625-4.719V0h.75v-2.453c.016-1.125.484-1.64 1.516-1.61v-.765c-.125-.016-.203-.016-.297-.016-.485 0-.844.282-1.281.985v-.86Zm0 0" style="stroke:none"/></symbol><symbol id="S" overflow="visible"><path d="M4.813-.437c-.079.015-.11.015-.157.015-.265 0-.406-.14-.406-.375v-2.765c0-.844-.61-1.282-1.781-1.282-.688 0-1.235.188-1.563.547-.219.234-.297.516-.328.969h.766c.062-.563.406-.828 1.11-.828.671 0 1.046.25 1.046.703v.187c-.016.329-.172.454-.781.532-1.063.14-1.219.172-1.516.28-.547.235-.828.657-.828 1.267 0 .859.594 1.39 1.547 1.39C2.516.203 3 0 3.532-.484c.046.484.28.687.765.687.172 0 .266-.016.516-.078ZM3.5-1.484c0 .25-.078.406-.297.609a1.6 1.6 0 0 1-1.11.422c-.593 0-.937-.281-.937-.75 0-.5.328-.75 1.14-.86.798-.109.954-.156 1.204-.265Zm0 0" style="stroke:none"/></symbol><symbol id="T" overflow="visible"><path d="M.625-4.719V0h.766v-2.969c0-.672.484-1.219 1.109-1.219.547 0 .86.329.86.938V0h.765v-2.969c0-.672.484-1.219 1.11-1.219.546 0 .874.344.874.938V0h.75v-3.531c0-.86-.484-1.313-1.375-1.313-.625 0-1 .188-1.437.719-.281-.516-.656-.719-1.281-.719s-1.047.235-1.438.797v-.672Zm0 0" style="stroke:none"/></symbol><symbol id="U" overflow="visible"><path d="M2.328-4.719h-.797v-.734c0-.313.172-.484.532-.484.062 0 .093 0 .265.015v-.625a2 2 0 0 0-.422-.047c-.703 0-1.11.407-1.11 1.078v.797h-.64v.61h.64V0h.735v-4.11h.797Zm0 0" style="stroke:none"/></symbol><symbol id="W" overflow="visible"><path d="M4.234-3.125c-.03-.469-.125-.766-.312-1.031-.328-.438-.89-.688-1.547-.688-1.281 0-2.094 1-2.094 2.563C.281-.75 1.094.203 2.36.203c1.125 0 1.844-.672 1.938-1.828H3.53c-.125.766-.5 1.14-1.14 1.14-.828 0-1.328-.671-1.328-1.796 0-1.172.484-1.875 1.296-1.875.641 0 1.032.375 1.125 1.031Zm0 0" style="stroke:none"/></symbol><symbol id="X" overflow="visible"><path d="M4.344 0v-4.719h-.75v2.672c0 .969-.5 1.594-1.297 1.594-.594 0-.969-.36-.969-.922v-3.344h-.75v3.64c0 .782.594 1.282 1.516 1.282.687 0 1.125-.234 1.562-.86V0Zm0 0" style="stroke:none"/></symbol><symbol id="Y" overflow="visible"><path d="m2.563 0 1.812-4.719h-.844L2.203-.89.938-4.719H.094L1.75 0Zm0 0" style="stroke:none"/></symbol><symbol id="Z" overflow="visible"><path d="M4.61-2.11c0-.718-.048-1.156-.188-1.5-.297-.78-1.016-1.234-1.906-1.234-1.313 0-2.157.985-2.157 2.547S1.172.203 2.5.203c1.078 0 1.828-.61 2.016-1.64h-.75c-.203.625-.641.953-1.235.953a1.31 1.31 0 0 1-1.14-.61c-.172-.281-.235-.547-.25-1.015Zm-3.454-.609c.063-.875.594-1.437 1.36-1.437.765 0 1.297.593 1.297 1.437Zm0 0" style="stroke:none"/></symbol></defs><path d="M0 0h289v496H0z" style="fill:#fff;fill-opacity:1;stroke:none"/><path d="M35.273 465.664h246v-453h-246Zm0 0" style="stroke:none;fill-rule:nonzero;fill:#fff;fill-opacity:1"/><path d="M1327.997 824.997v-755m82.006 755v-755m81.998 755v-755m81.999 755v-755m81.999 755v-755m81.998 755v-755m0 755h-410m410-125.833h-410m410-125.834h-410m410-125.833h-410m410-125.833h-410m410-125.834h-410m410-125.833h-410" style="fill:none;stroke-width:.833333;stroke-linecap:butt;stroke-linejoin:round;stroke:#262626;stroke-opacity:.14902;stroke-miterlimit:10" transform="matrix(.6 0 0 .6 -761.525 -29.334)"/><path d="M1327.997 824.997h410m-410 0v-7.545m82.006 7.545v-7.545m81.998 7.545v-7.545m81.999 7.545v-7.545m81.999 7.545v-7.545m81.998 7.545v-7.545" style="fill:none;stroke-width:.833333;stroke-linecap:square;stroke-linejoin:round;stroke:#262626;stroke-opacity:1;stroke-miterlimit:10" transform="matrix(.6 0 0 .6 -761.525 -29.334)"/><use xlink:href="#a" x="32.275" y="479.866" style="fill:#262626;fill-opacity:1"/><g style="fill:#262626;fill-opacity:1"><use xlink:href="#a" x="77.275" y="479.866"/><use xlink:href="#b" x="82.835" y="479.866"/><use xlink:href="#c" x="85.615" y="479.866"/></g><use xlink:href="#c" x="130.675" y="479.866" style="fill:#262626;fill-opacity:1"/><g style="fill:#262626;fill-opacity:1"><use xlink:href="#c" x="175.675" y="479.866"/><use xlink:href="#b" x="181.235" y="479.866"/><use xlink:href="#c" x="184.015" y="479.866"/></g><use xlink:href="#d" x="229.075" y="479.866" style="fill:#262626;fill-opacity:1"/><g style="fill:#262626;fill-opacity:1"><use xlink:href="#d" x="274.075" y="479.866"/><use xlink:href="#b" x="279.635" y="479.866"/><use xlink:href="#c" x="282.415" y="479.866"/></g><g style="fill:#262626;fill-opacity:1"><use xlink:href="#e" x="146.575" y="494.666"/><use xlink:href="#f" x="154.517" y="494.666"/><use xlink:href="#g" x="160.633" y="494.666"/><use xlink:href="#h" x="163.691" y="494.666"/></g><path d="M1327.997 824.997v-755m0 755h7.553m-7.553-125.833h7.553m-7.553-125.834h7.553m-7.553-125.833h7.553m-7.553-125.833h7.553m-7.553-125.834h7.553m-7.553-125.833h7.553" style="fill:none;stroke-width:.833333;stroke-linecap:square;stroke-linejoin:round;stroke:#262626;stroke-opacity:1;stroke-miterlimit:10" transform="matrix(.6 0 0 .6 -761.525 -29.334)"/><g style="fill:#262626;fill-opacity:1"><use xlink:href="#i" x="13.875" y="469.566"/><use xlink:href="#j" x="17.205" y="469.566"/><use xlink:href="#b" x="22.765" y="469.566"/><use xlink:href="#c" x="25.545" y="469.566"/></g><use xlink:href="#j" x="25.275" y="394.066" style="fill:#262626;fill-opacity:1"/><g style="fill:#262626;fill-opacity:1"><use xlink:href="#j" x="16.875" y="318.566"/><use xlink:href="#b" x="22.435" y="318.566"/><use xlink:href="#c" x="25.215" y="318.566"/></g><use xlink:href="#k" x="25.275" y="243.066" style="fill:#262626;fill-opacity:1"/><g style="fill:#262626;fill-opacity:1"><use xlink:href="#k" x="16.875" y="167.566"/><use xlink:href="#b" x="22.435" y="167.566"/><use xlink:href="#c" x="25.215" y="167.566"/></g><use xlink:href="#l" x="25.275" y="92.066" style="fill:#262626;fill-opacity:1"/><g style="fill:#262626;fill-opacity:1"><use xlink:href="#l" x="16.875" y="16.566"/><use xlink:href="#b" x="22.435" y="16.566"/><use xlink:href="#c" x="25.215" y="16.566"/></g><g style="fill:#262626;fill-opacity:1"><use xlink:href="#m" x="7.875" y="265.265"/><use xlink:href="#n" x="7.875" y="258.545"/><use xlink:href="#o" x="7.875" y="254.882"/><use xlink:href="#p" x="7.875" y="248.766"/><use xlink:href="#q" x="7.875" y="242.65"/><use xlink:href="#o" x="7.875" y="236.534"/><use xlink:href="#r" x="7.875" y="230.418"/><use xlink:href="#s" x="7.875" y="224.302"/><use xlink:href="#t" x="7.875" y="218.802"/></g><g style="fill:#000;fill-opacity:1"><use xlink:href="#u" x="82.376" y="8.016"/><use xlink:href="#v" x="88.492" y="8.016"/><use xlink:href="#w" x="90.934" y="8.016"/><use xlink:href="#g" x="96.434" y="8.016"/><use xlink:href="#x" x="99.492" y="8.016"/><use xlink:href="#y" x="105.607" y="8.016"/><use xlink:href="#z" x="111.723" y="8.016"/><use xlink:href="#f" x="115.386" y="8.016"/><use xlink:href="#A" x="121.502" y="8.016"/><use xlink:href="#B" x="130.665" y="8.016"/><use xlink:href="#x" x="133.723" y="8.016"/><use xlink:href="#C" x="139.839" y="8.016"/><use xlink:href="#B" x="142.897" y="8.016"/><use xlink:href="#D" x="145.955" y="8.016"/><use xlink:href="#E" x="153.292" y="8.016"/><use xlink:href="#e" x="161.849" y="8.016"/><use xlink:href="#B" x="169.791" y="8.016"/><use xlink:href="#F" x="172.849" y="8.016"/><use xlink:href="#G" x="176.512" y="8.016"/><use xlink:href="#x" x="182.628" y="8.016"/><use xlink:href="#z" x="188.744" y="8.016"/><use xlink:href="#A" x="192.407" y="8.016"/><use xlink:href="#f" x="201.57" y="8.016"/><use xlink:href="#H" x="207.686" y="8.016"/><use xlink:href="#v" x="210.128" y="8.016"/><use xlink:href="#I" x="212.569" y="8.016"/><use xlink:href="#h" x="218.069" y="8.016"/><use xlink:href="#J" x="224.185" y="8.016"/><use xlink:href="#K" x="230.301" y="8.016"/></g><path d="M137.61 390.164v-269.64h-13.774v269.64Zm13.777-89.879h-13.778v89.88h27.555v-89.88Zm27.55 89.88V210.401h-13.773v179.762Zm13.778 0V30.64h-13.778v359.523Zm13.777 0v-89.88h-13.777v89.88Zm0 0" style="stroke:none;fill-rule:nonzero;fill:#0072bd;fill-opacity:.6"/><path d="M1475.602 699.164V249.763h22.955v449.401m0-149.798h22.963m0 149.798V549.366h22.962m0 149.798V399.561h22.956m0 299.603V99.958h22.962v599.206m0-149.798h22.962v149.798" style="fill:none;stroke-width:.833333;stroke-linecap:square;stroke-linejoin:miter;stroke:#000;stroke-opacity:1;stroke-miterlimit:10" transform="matrix(.6 0 0 .6 -761.525 -29.334)"/><path d="m1395.237 695.453.612-.195.306-.104.306-.098.306-.11.306-.105.612-.221.306-.117.3-.118.305-.117.612-.247.918-.39.306-.138.306-.143.306-.136.3-.15.306-.143.306-.15.918-.469.306-.163.918-.508.3-.175.917-.547.306-.195.306-.19.306-.195.306-.201.918-.625.3-.215.612-.443.306-.228.611-.469.306-.24.918-.743.3-.26.306-.26.306-.267.612-.547.612-.56.612-.586.306-.3.605-.605.306-.32.306-.312.612-.65.306-.333.306-.338.306-.345.306-.352.3-.351.306-.358.306-.365.612-.742.612-.768.306-.391.306-.397.306-.404.3-.41.611-.833.612-.86.306-.436.306-.443.306-.449.306-.456.306-.462.3-.462.611-.95.612-.977.612-1.003.306-.508.306-.514.306-.52.3-.528.306-.534.306-.54.306-.547.306-.554.612-1.12.306-.572.306-.58.306-.586.3-.586.611-1.197.612-1.224.612-1.25.306-.632.612-1.289.3-.651.612-1.328.306-.67.306-.678.306-.683.306-.69.612-1.394.306-.71.299-.716.612-1.445.306-.729.612-1.484.306-.75.306-.754.306-.762.306-.768.306-.775.3-.775.611-1.575.306-.795.612-1.601.612-1.628.612-1.653.3-.827.612-1.68.306-.846.612-1.706.306-.86.306-.865.612-1.745.3-.879.611-1.77.612-1.785.306-.898.612-1.81.612-1.823.3-.918.918-2.773.611-1.862.612-1.875.612-1.888.3-.944.918-2.852 1.224-3.828.612-1.927.3-.964.305-.97.306-.963.306-.97.306-.964 1.53-4.85.3-.97 2.142-6.79.612-1.927.3-.964.611-1.927.306-.957.306-.964.306-.957 1.224-3.802.3-.944.305-.944.918-2.812.306-.931.918-2.774.306-.918.3-.911.306-.912.612-1.81.306-.898.612-1.784.306-.885.306-.88.612-1.744.3-.866.611-1.719.306-.852.306-.847.306-.84.306-.833.612-1.654.306-.813.3-.814.306-.808.306-.8.612-1.576.612-1.562.306-.769.306-.761.306-.755.299-.75.306-.741.306-.736.306-.73.306-.722.612-1.42.306-.702.612-1.38.3-.678.305-.677.306-.664.306-.657.306-.651.306-.645.612-1.263.612-1.237.3-.605.306-.6.612-1.171.306-.58.306-.566.306-.56.306-.553.306-.547.306-.54.3-.528.305-.527.306-.514.306-.508.306-.502.306-.494.306-.489.612-.95.306-.462.3-.456.306-.45.306-.442.306-.436.306-.43.611-.833.306-.41.306-.398.306-.39.3-.39.306-.378.612-.743.306-.358.306-.351.612-.69.306-.332.306-.326.3-.325.611-.625.306-.306.306-.3.306-.293.306-.286.306-.28.612-.547.306-.267.3-.26.612-.508.918-.723.306-.234.306-.228.612-.443.3-.215.917-.625.306-.202.612-.39.918-.567.3-.182.305-.182.612-.352.306-.169.306-.176.306-.17.306-.162.306-.17.306-.162.3-.163.306-.162.306-.157.306-.162 1.836-.938.3-.156 1.835-.938.306-.162.306-.157.306-.162.3-.163.612-.326.306-.169.306-.163.306-.169.306-.176.306-.17.306-.175.306-.182.299-.176.306-.189.306-.182.612-.378.612-.39.612-.404.306-.208.3-.209.305-.214.918-.664.306-.228.612-.47.306-.24.306-.247.3-.248.306-.254.612-.52.306-.267.612-.547.306-.287.306-.28.612-.586.3-.306.611-.612.612-.638.306-.325.612-.664.612-.69.3-.352.306-.358.612-.73.305-.37.306-.378.306-.384.612-.781.306-.404.3-.403.306-.404.306-.417.612-.846.306-.43.612-.872.612-.899.3-.449.611-.924.306-.47.306-.474.612-.964.612-.976.306-.495.3-.502.918-1.523.918-1.563.306-.527.612-1.068.3-.533.305-.547.306-.54.306-.548.306-.553.306-.547.306-.56.306-.553.306-.56.306-.566.3-.56.305-.567.306-.573.306-.566 1.53-2.865.306-.579.3-.58.306-.572.918-1.739.306-.573.306-.579.306-.573.306-.58.306-.572.3-.573.917-1.719.918-1.7.612-1.119.306-.553.3-.554.306-.553.306-.547.918-1.621.306-.534.306-.527.612-1.042.306-.514.299-.515.612-1.002.306-.495.306-.488.306-.482.306-.475.306-.469.612-.924.3-.45.305-.442.306-.437.306-.43.306-.422.612-.82.306-.398.612-.768.3-.371.306-.365.306-.358.306-.345.306-.332.306-.326.306-.319.306-.306.306-.299.306-.286.3-.28.305-.267.306-.254.306-.248.306-.234.306-.221.306-.215.306-.202.306-.189.306-.176.3-.169.306-.15.306-.143.306-.13.305-.117.306-.104.306-.098.306-.078.306-.065.306-.059.3-.039.306-.026.306-.02h.306l.306.014.306.019.306.04.306.051.306.072.306.078.3.091.305.11.306.118.306.137.306.15.306.162.306.182.306.19.306.208.306.22.3.242.306.247.306.267.306.28.306.293.306.313.306.319.306.345.306.351.306.365.3.384.305.397.306.417.306.423.306.443.306.455.306.476.306.488.306.501.306.514.3.528.305.547.306.56.306.572.306.593.306.599.306.618.306.632.306.65.306.658.306.678.3.69.306.703.306.716.306.73.306.741.306.762.306.775.306.781.306.8.306.815.3.826.305.84.306.853.306.866.306.879.306.885.306.905.306.918.306.931.306.938.3.957.306.963.306.977.306.99.306 1.002.306 1.01.306 1.028.306 1.035.306 1.042.306 1.06.299 1.069.306 1.074.306 1.094.306 1.1.306 1.107.306 1.12.306 1.126.306 1.139.306 1.152.306 1.16.3 1.165.305 1.178.306 1.185.306 1.191.306 1.205.306 1.21.306 1.218.612 2.461.306 1.243.3 1.25.306 1.257.306 1.263.612 2.552.306 1.283.306 1.289.612 2.604.306 1.308.3 1.31.305 1.32.612 2.657.612 2.67.612 2.694.612 2.709.3 1.36.306 1.361.612 2.735.917 4.12.306 1.38.306 1.388.306 1.38.3 1.387.612 2.773.306 1.393.306 1.387 1.836 8.36.3 1.392.305 1.387.612 2.787.306 1.386.306 1.394.612 2.773.306 1.38.306 1.387.3 1.38.306 1.374.306 1.38.306 1.374.918 4.101.612 2.722.306 1.354.3 1.354.611 2.695.306 1.342.306 1.334.918 3.985.612 2.63.3 1.308.611 2.604.612 2.579.306 1.282.306 1.276.612 2.54.306 1.256.3 1.256.612 2.487.612 2.461.612 2.435.612 2.409.306 1.191.3 1.185.305 1.185.306 1.172.306 1.165.612 2.305.306 1.146.306 1.133.306 1.126.306 1.12.3 1.113.306 1.107.306 1.094.306 1.087.306 1.08.306 1.075.612 2.122.306 1.048.306 1.036.299 1.035.306 1.022.306 1.015.612 2.006.306.99.306.982.306.97.306.964.306.957.306.944.3.944.611 1.849.306.911.306.905.306.899.306.885.306.88.306.871.3.86.306.853.306.846.306.833.306.827.306.82.306.808.306.8.306.795.306.781.306.775.3.768.305.762.306.749.306.742.612 1.458.306.716.612 1.406.306.69.3.684.306.677.306.664.305.658.306.65.306.645.306.638.306.625.306.619.606 1.21.306.6.306.586.306.58.306.572.612 1.12.306.547.612 1.08.3.521.305.521.306.514.306.508.306.495.612.977.306.475.306.469.306.462.3.456.306.449.306.443.306.436.306.43.306.423.306.416.306.41.306.404.306.397.3.39.305.391.306.378.306.371.612.73.612.702.306.346.306.338.3.332.305.326.612.638.306.312.306.306.306.3.612.586.306.28.3.28.612.546.306.267.306.26.612.508.306.241.306.248.612.468.3.228.305.228.306.222.306.214.918.625.306.202.306.196.3.188.612.378.306.182.612.352.612.338.612.326.306.156.299.156.612.3.918.43.306.13.306.136.612.26.3.125.305.123.918.352.612.221.306.104.306.111.306.098.3.104.612.195.918.274.306.084.306.091.306.085.306.078.3.078.917.235.612.143.306.065.306.072.612.13.3.058.306.066.917.175.306.052.306.059.918.156.3.046.306.045.306.052.306.046.306.04.612.09.918.117.3.04.305.039.612.065.306.039.918.097.306.026.306.033.306.026.3.033 1.836.156.306.02.306.025" style="fill:none;stroke-width:.833333;stroke-linecap:butt;stroke-linejoin:round;stroke:#d95319;stroke-opacity:1;stroke-miterlimit:10" transform="matrix(.6 0 0 .6 -761.525 -29.334)"/><path d="M130.395 231.469a2.749 2.749 0 1 1 0 5.5 2.749 2.749 0 1 1 0-5.5m0-.5a3.25 3.25 0 1 0 0 6.5 3.25 3.25 0 0 0 0-6.5m13.121 192.136a2.749 2.749 0 1 1 0 5.5 2.749 2.749 0 1 1 0-5.5m0-.5a3.25 3.25 0 1 0 0 6.5 3.25 3.25 0 0 0 0-6.5m13.121 10.766c1.515 0 2.75 1.23 2.75 2.75s-1.235 2.75-2.75 2.75a2.749 2.749 0 1 1 0-5.5m0-.5a3.25 3.25 0 1 0 0 6.5 3.25 3.25 0 0 0 0-6.5m13.117-66.898a2.749 2.749 0 1 1 0 5.5 2.749 2.749 0 1 1 0-5.5m0-.5a3.25 3.25 0 1 0 0 6.5 3.25 3.25 0 0 0 0-6.5m13.121-166.371a2.749 2.749 0 1 1 0 5.5 2.749 2.749 0 1 1 0-5.5m0-.5a3.25 3.25 0 1 0 0 6.5 3.25 3.25 0 0 0 0-6.5m13.121 244.211a2.749 2.749 0 1 1 0 5.5 2.749 2.749 0 1 1 0-5.5m0-.5a3.25 3.25 0 1 0 0 6.5 3.25 3.25 0 0 0 0-6.5m0 0" style="stroke:none;fill-rule:nonzero;fill:#0f0;fill-opacity:1"/><path d="M1486.533 699.164V439.255m21.868 259.909v59.486m21.869-59.486v76.595m21.862-76.595v-35.736M1574 699.164V385.31m21.869 313.854v92.33" style="fill:none;stroke-width:.833333;stroke-linecap:butt;stroke-linejoin:round;stroke:#0f0;stroke-opacity:1;stroke-miterlimit:10" transform="matrix(.6 0 0 .6 -761.525 -29.334)"/><path d="M273.477 60.664v-40.2h-78v40.2Zm0 0" style="stroke:none;fill-rule:nonzero;fill:#fff;fill-opacity:1"/><g style="fill:#000;fill-opacity:1"><use xlink:href="#L" x="230.793" y="31.651"/><use xlink:href="#M" x="235.797" y="31.651"/><use xlink:href="#N" x="237.795" y="31.651"/><use xlink:href="#O" x="242.295" y="31.651"/><use xlink:href="#P" x="244.797" y="31.651"/><use xlink:href="#Q" x="249.801" y="31.651"/><use xlink:href="#R" x="254.805" y="31.651"/><use xlink:href="#S" x="257.802" y="31.651"/><use xlink:href="#T" x="262.806" y="31.651"/></g><path d="M228.54 32.602V23.5h-30.06v9.102Zm0 0" style="stroke:none;fill-rule:nonzero;fill:#0072bd;fill-opacity:.6"/><path d="M1600.01 103.227v-15.17h50.097v15.17Zm0 0" style="fill:none;stroke-width:.833333;stroke-linecap:butt;stroke-linejoin:miter;stroke:#000;stroke-opacity:1;stroke-miterlimit:10" transform="matrix(.6 0 0 .6 -761.525 -29.334)"/><g style="fill:#000;fill-opacity:1"><use xlink:href="#U" x="230.793" y="44.166"/><use xlink:href="#M" x="233.295" y="44.166"/><use xlink:href="#O" x="235.293" y="44.166"/><use xlink:href="#V" x="237.795" y="44.166"/><use xlink:href="#W" x="240.297" y="44.166"/><use xlink:href="#X" x="244.797" y="44.166"/><use xlink:href="#R" x="249.801" y="44.166"/><use xlink:href="#Y" x="252.798" y="44.166"/><use xlink:href="#Z" x="257.298" y="44.166"/></g><path d="M1600.01 116.501h50.097" style="fill:none;stroke-width:.833333;stroke-linecap:butt;stroke-linejoin:round;stroke:#d95319;stroke-opacity:1;stroke-miterlimit:10" transform="matrix(.6 0 0 .6 -761.525 -29.334)"/><g style="fill:#000;fill-opacity:1"><use xlink:href="#Z" x="230.793" y="56.681"/><use xlink:href="#R" x="235.797" y="56.681"/><use xlink:href="#R" x="238.794" y="56.681"/><use xlink:href="#P" x="241.791" y="56.681"/><use xlink:href="#R" x="246.795" y="56.681"/></g><path d="M213.508 50.332a2.749 2.749 0 1 1 .002 5.498 2.749 2.749 0 0 1-.002-5.498m0-.5a3.25 3.25 0 1 0 0 6.5 3.25 3.25 0 0 0 0-6.5m0 0" style="stroke:none;fill-rule:nonzero;fill:#0f0;fill-opacity:1"/><path d="M1595.003 149.997V83h130v66.998Zm0 0" style="fill:none;stroke-width:.833333;stroke-linecap:butt;stroke-linejoin:miter;stroke:#262626;stroke-opacity:1;stroke-miterlimit:10" transform="matrix(.6 0 0 .6 -761.525 -29.334)"/></svg>