<svg version="1.1" xmlns="https://www.w3.org/2000/svg" xmlns:xlink="https://www.w3.org/1999/xlink" width="1148" height="668">
  <defs>
    <clipPath id="ZyCnrPKPpfZi">
      <path fill="none" stroke="none" d=" M 0 0 L 1148 0 L 1148 668 L 0 668 L 0 0 Z" />
    </clipPath>
  </defs>
  <g transform="scale(1,1)" clip-path="url(#ZyCnrPKPpfZi)">
    <g>
      <rect fill="rgb(255,255,255)" stroke="none" x="0" y="0" width="1148" height="668" fill-opacity="1" />
      <path fill="none" stroke="rgb(192,192,192)" paint-order="fill stroke markers" d=" M 8.5 0.5 L 8.5 668.5 M 8.5 0.5 L 8.5 668.5 M 52.5 0.5 L 52.5 668.5 M 97.5 0.5 L 97.5 668.5 M 141.5 0.5 L 141.5 668.5 M 185.5 0.5 L 185.5 668.5 M 230.5 0.5 L 230.5 668.5 M 274.5 0.5 L 274.5 668.5 M 319.5 0.5 L 319.5 668.5 M 363.5 0.5 L 363.5 668.5 M 408.5 0.5 L 408.5 668.5 M 497.5 0.5 L 497.5 668.5 M 541.5 0.5 L 541.5 668.5 M 586.5 0.5 L 586.5 668.5 M 630.5 0.5 L 630.5 668.5 M 674.5 0.5 L 674.5 668.5 M 719.5 0.5 L 719.5 668.5 M 763.5 0.5 L 763.5 668.5 M 808.5 0.5 L 808.5 668.5 M 852.5 0.5 L 852.5 668.5 M 897.5 0.5 L 897.5 668.5 M 941.5 0.5 L 941.5 668.5 M 986.5 0.5 L 986.5 668.5 M 1030.5 0.5 L 1030.5 668.5 M 1074.5 0.5 L 1074.5 668.5 M 1119.5 0.5 L 1119.5 668.5" stroke-opacity="1" stroke-linecap="round" stroke-linejoin="round" stroke-miterlimit="10" />
      <path fill="none" stroke="rgb(192,192,192)" paint-order="fill stroke markers" d=" M 17.5 0.5 L 17.5 668.5 M 25.5 0.5 L 25.5 668.5 M 34.5 0.5 L 34.5 668.5 M 43.5 0.5 L 43.5 668.5 M 61.5 0.5 L 61.5 668.5 M 70.5 0.5 L 70.5 668.5 M 79.5 0.5 L 79.5 668.5 M 88.5 0.5 L 88.5 668.5 M 105.5 0.5 L 105.5 668.5 M 114.5 0.5 L 114.5 668.5 M 123.5 0.5 L 123.5 668.5 M 132.5 0.5 L 132.5 668.5 M 150.5 0.5 L 150.5 668.5 M 159.5 0.5 L 159.5 668.5 M 168.5 0.5 L 168.5 668.5 M 177.5 0.5 L 177.5 668.5 M 194.5 0.5 L 194.5 668.5 M 203.5 0.5 L 203.5 668.5 M 212.5 0.5 L 212.5 668.5 M 221.5 0.5 L 221.5 668.5 M 239.5 0.5 L 239.5 668.5 M 248.5 0.5 L 248.5 668.5 M 257.5 0.5 L 257.5 668.5 M 265.5 0.5 L 265.5 668.5 M 283.5 0.5 L 283.5 668.5 M 292.5 0.5 L 292.5 668.5 M 301.5 0.5 L 301.5 668.5 M 310.5 0.5 L 310.5 668.5 M 328.5 0.5 L 328.5 668.5 M 337.5 0.5 L 337.5 668.5 M 345.5 0.5 L 345.5 668.5 M 354.5 0.5 L 354.5 668.5 M 372.5 0.5 L 372.5 668.5 M 381.5 0.5 L 381.5 668.5 M 390.5 0.5 L 390.5 668.5 M 399.5 0.5 L 399.5 668.5 M 417.5 0.5 L 417.5 668.5 M 426.5 0.5 L 426.5 668.5 M 434.5 0.5 L 434.5 668.5 M 443.5 0.5 L 443.5 668.5 M 461.5 0.5 L 461.5 668.5 M 470.5 0.5 L 470.5 668.5 M 479.5 0.5 L 479.5 668.5 M 488.5 0.5 L 488.5 668.5 M 506.5 0.5 L 506.5 668.5 M 514.5 0.5 L 514.5 668.5 M 523.5 0.5 L 523.5 668.5 M 532.5 0.5 L 532.5 668.5 M 550.5 0.5 L 550.5 668.5 M 559.5 0.5 L 559.5 668.5 M 568.5 0.5 L 568.5 668.5 M 577.5 0.5 L 577.5 668.5 M 594.5 0.5 L 594.5 668.5 M 603.5 0.5 L 603.5 668.5 M 612.5 0.5 L 612.5 668.5 M 621.5 0.5 L 621.5 668.5 M 639.5 0.5 L 639.5 668.5 M 648.5 0.5 L 648.5 668.5 M 657.5 0.5 L 657.5 668.5 M 666.5 0.5 L 666.5 668.5 M 683.5 0.5 L 683.5 668.5 M 692.5 0.5 L 692.5 668.5 M 701.5 0.5 L 701.5 668.5 M 710.5 0.5 L 710.5 668.5 M 728.5 0.5 L 728.5 668.5 M 737.5 0.5 L 737.5 668.5 M 746.5 0.5 L 746.5 668.5 M 754.5 0.5 L 754.5 668.5 M 772.5 0.5 L 772.5 668.5 M 781.5 0.5 L 781.5 668.5 M 790.5 0.5 L 790.5 668.5 M 799.5 0.5 L 799.5 668.5 M 817.5 0.5 L 817.5 668.5 M 826.5 0.5 L 826.5 668.5 M 834.5 0.5 L 834.5 668.5 M 843.5 0.5 L 843.5 668.5 M 861.5 0.5 L 861.5 668.5 M 870.5 0.5 L 870.5 668.5 M 879.5 0.5 L 879.5 668.5 M 888.5 0.5 L 888.5 668.5 M 906.5 0.5 L 906.5 668.5 M 914.5 0.5 L 914.5 668.5 M 923.5 0.5 L 923.5 668.5 M 932.5 0.5 L 932.5 668.5 M 950.5 0.5 L 950.5 668.5 M 959.5 0.5 L 959.5 668.5 M 968.5 0.5 L 968.5 668.5 M 977.5 0.5 L 977.5 668.5 M 994.5 0.5 L 994.5 668.5 M 1003.5 0.5 L 1003.5 668.5 M 1012.5 0.5 L 1012.5 668.5 M 1021.5 0.5 L 1021.5 668.5 M 1039.5 0.5 L 1039.5 668.5 M 1048.5 0.5 L 1048.5 668.5 M 1057.5 0.5 L 1057.5 668.5 M 1066.5 0.5 L 1066.5 668.5 M 1083.5 0.5 L 1083.5 668.5 M 1092.5 0.5 L 1092.5 668.5 M 1101.5 0.5 L 1101.5 668.5 M 1110.5 0.5 L 1110.5 668.5 M 1128.5 0.5 L 1128.5 668.5 M 1137.5 0.5 L 1137.5 668.5 M 1146.5 0.5 L 1146.5 668.5" stroke-opacity="0.23529411764705882" stroke-linecap="round" stroke-linejoin="round" stroke-miterlimit="10" />
      <path fill="none" stroke="rgb(192,192,192)" paint-order="fill stroke markers" d=" M 0.5 22.5 L 1148.5 22.5 M 0.5 22.5 L 1148.5 22.5 M 0.5 66.5 L 1148.5 66.5 M 0.5 110.5 L 1148.5 110.5 M 0.5 155.5 L 1148.5 155.5 M 0.5 199.5 L 1148.5 199.5 M 0.5 244.5 L 1148.5 244.5 M 0.5 288.5 L 1148.5 288.5 M 0.5 333.5 L 1148.5 333.5 M 0.5 421.5 L 1148.5 421.5 M 0.5 466.5 L 1148.5 466.5 M 0.5 510.5 L 1148.5 510.5 M 0.5 555.5 L 1148.5 555.5 M 0.5 599.5 L 1148.5 599.5 M 0.5 644.5 L 1148.5 644.5" stroke-opacity="1" stroke-linecap="round" stroke-linejoin="round" stroke-miterlimit="10" />
      <path fill="none" stroke="rgb(192,192,192)" paint-order="fill stroke markers" d=" M 0.5 4.5 L 1148.5 4.5 M 0.5 4.5 L 1148.5 4.5 M 0.5 13.5 L 1148.5 13.5 M 0.5 30.5 L 1148.5 30.5 M 0.5 39.5 L 1148.5 39.5 M 0.5 48.5 L 1148.5 48.5 M 0.5 57.5 L 1148.5 57.5 M 0.5 75.5 L 1148.5 75.5 M 0.5 84.5 L 1148.5 84.5 M 0.5 93.5 L 1148.5 93.5 M 0.5 102.5 L 1148.5 102.5 M 0.5 119.5 L 1148.5 119.5 M 0.5 128.5 L 1148.5 128.5 M 0.5 137.5 L 1148.5 137.5 M 0.5 146.5 L 1148.5 146.5 M 0.5 164.5 L 1148.5 164.5 M 0.5 173.5 L 1148.5 173.5 M 0.5 182.5 L 1148.5 182.5 M 0.5 190.5 L 1148.5 190.5 M 0.5 208.5 L 1148.5 208.5 M 0.5 217.5 L 1148.5 217.5 M 0.5 226.5 L 1148.5 226.5 M 0.5 235.5 L 1148.5 235.5 M 0.5 253.5 L 1148.5 253.5 M 0.5 262.5 L 1148.5 262.5 M 0.5 270.5 L 1148.5 270.5 M 0.5 279.5 L 1148.5 279.5 M 0.5 297.5 L 1148.5 297.5 M 0.5 306.5 L 1148.5 306.5 M 0.5 315.5 L 1148.5 315.5 M 0.5 324.5 L 1148.5 324.5 M 0.5 342.5 L 1148.5 342.5 M 0.5 350.5 L 1148.5 350.5 M 0.5 359.5 L 1148.5 359.5 M 0.5 368.5 L 1148.5 368.5 M 0.5 386.5 L 1148.5 386.5 M 0.5 395.5 L 1148.5 395.5 M 0.5 404.5 L 1148.5 404.5 M 0.5 413.5 L 1148.5 413.5 M 0.5 430.5 L 1148.5 430.5 M 0.5 439.5 L 1148.5 439.5 M 0.5 448.5 L 1148.5 448.5 M 0.5 457.5 L 1148.5 457.5 M 0.5 475.5 L 1148.5 475.5 M 0.5 484.5 L 1148.5 484.5 M 0.5 493.5 L 1148.5 493.5 M 0.5 501.5 L 1148.5 501.5 M 0.5 519.5 L 1148.5 519.5 M 0.5 528.5 L 1148.5 528.5 M 0.5 537.5 L 1148.5 537.5 M 0.5 546.5 L 1148.5 546.5 M 0.5 564.5 L 1148.5 564.5 M 0.5 573.5 L 1148.5 573.5 M 0.5 581.5 L 1148.5 581.5 M 0.5 590.5 L 1148.5 590.5 M 0.5 608.5 L 1148.5 608.5 M 0.5 617.5 L 1148.5 617.5 M 0.5 626.5 L 1148.5 626.5 M 0.5 635.5 L 1148.5 635.5 M 0.5 653.5 L 1148.5 653.5 M 0.5 661.5 L 1148.5 661.5" stroke-opacity="0.23529411764705882" stroke-linecap="round" stroke-linejoin="round" stroke-miterlimit="10" />
      <path fill="none" stroke="rgb(0,0,0)" paint-order="fill stroke markers" d=" M 452.5 2.5 L 452.5 668.5" stroke-opacity="1" stroke-miterlimit="10" />
      <path fill="none" stroke="rgb(0,0,0)" paint-order="fill stroke markers" d=" M 452.5 1.5 L 448.5 5.5" stroke-opacity="1" stroke-miterlimit="10" />
      <path fill="none" stroke="rgb(0,0,0)" paint-order="fill stroke markers" d=" M 452.5 1.5 L 456.5 5.5" stroke-opacity="1" stroke-miterlimit="10" />
      <path fill="none" stroke="rgb(0,0,0)" paint-order="fill stroke markers" d=" M 0.5 377.5 L 1146.5 377.5" stroke-opacity="1" stroke-miterlimit="10" />
      <path fill="none" stroke="rgb(0,0,0)" paint-order="fill stroke markers" d=" M 1147.5 377.5 L 1143.5 373.5" stroke-opacity="1" stroke-miterlimit="10" />
      <path fill="none" stroke="rgb(0,0,0)" paint-order="fill stroke markers" d=" M 1147.5 377.5 L 1143.5 381.5" stroke-opacity="1" stroke-miterlimit="10" />
      <text fill="rgb(0,0,0)" stroke="none" font-family="geogebra-sans-serif, sans-serif" font-size="12px" font-style="normal" font-weight="normal" text-decoration="normal" x="44" y="393" text-anchor="start" dominant-baseline="alphabetic" fill-opacity="1">–18</text>
      <text fill="none" stroke="rgb(255,255,255)" font-family="geogebra-sans-serif, sans-serif" font-size="12px" font-style="normal" font-weight="normal" text-decoration="normal" x="44" y="393" text-anchor="start" dominant-baseline="alphabetic" stroke-opacity="1" stroke-linejoin="bevel" stroke-miterlimit="10" stroke-width="3">–18</text>
      <text fill="rgb(0,0,0)" stroke="none" font-family="geogebra-sans-serif, sans-serif" font-size="12px" font-style="normal" font-weight="normal" text-decoration="normal" x="44" y="393" text-anchor="start" dominant-baseline="alphabetic" fill-opacity="1">–18</text>
      <text fill="rgb(0,0,0)" stroke="none" font-family="geogebra-sans-serif, sans-serif" font-size="12px" font-style="normal" font-weight="normal" text-decoration="normal" x="89" y="393" text-anchor="start" dominant-baseline="alphabetic" fill-opacity="1">–16</text>
      <text fill="none" stroke="rgb(255,255,255)" font-family="geogebra-sans-serif, sans-serif" font-size="12px" font-style="normal" font-weight="normal" text-decoration="normal" x="89" y="393" text-anchor="start" dominant-baseline="alphabetic" stroke-opacity="1" stroke-linejoin="bevel" stroke-miterlimit="10" stroke-width="3">–16</text>
      <text fill="rgb(0,0,0)" stroke="none" font-family="geogebra-sans-serif, sans-serif" font-size="12px" font-style="normal" font-weight="normal" text-decoration="normal" x="89" y="393" text-anchor="start" dominant-baseline="alphabetic" fill-opacity="1">–16</text>
      <text fill="rgb(0,0,0)" stroke="none" font-family="geogebra-sans-serif, sans-serif" font-size="12px" font-style="normal" font-weight="normal" text-decoration="normal" x="133" y="393" text-anchor="start" dominant-baseline="alphabetic" fill-opacity="1">–14</text>
      <text fill="none" stroke="rgb(255,255,255)" font-family="geogebra-sans-serif, sans-serif" font-size="12px" font-style="normal" font-weight="normal" text-decoration="normal" x="133" y="393" text-anchor="start" dominant-baseline="alphabetic" stroke-opacity="1" stroke-linejoin="bevel" stroke-miterlimit="10" stroke-width="3">–14</text>
      <text fill="rgb(0,0,0)" stroke="none" font-family="geogebra-sans-serif, sans-serif" font-size="12px" font-style="normal" font-weight="normal" text-decoration="normal" x="133" y="393" text-anchor="start" dominant-baseline="alphabetic" fill-opacity="1">–14</text>
      <text fill="rgb(0,0,0)" stroke="none" font-family="geogebra-sans-serif, sans-serif" font-size="12px" font-style="normal" font-weight="normal" text-decoration="normal" x="177" y="393" text-anchor="start" dominant-baseline="alphabetic" fill-opacity="1">–12</text>
      <text fill="none" stroke="rgb(255,255,255)" font-family="geogebra-sans-serif, sans-serif" font-size="12px" font-style="normal" font-weight="normal" text-decoration="normal" x="177" y="393" text-anchor="start" dominant-baseline="alphabetic" stroke-opacity="1" stroke-linejoin="bevel" stroke-miterlimit="10" stroke-width="3">–12</text>
      <text fill="rgb(0,0,0)" stroke="none" font-family="geogebra-sans-serif, sans-serif" font-size="12px" font-style="normal" font-weight="normal" text-decoration="normal" x="177" y="393" text-anchor="start" dominant-baseline="alphabetic" fill-opacity="1">–12</text>
      <text fill="rgb(0,0,0)" stroke="none" font-family="geogebra-sans-serif, sans-serif" font-size="12px" font-style="normal" font-weight="normal" text-decoration="normal" x="222" y="393" text-anchor="start" dominant-baseline="alphabetic" fill-opacity="1">–10</text>
      <text fill="none" stroke="rgb(255,255,255)" font-family="geogebra-sans-serif, sans-serif" font-size="12px" font-style="normal" font-weight="normal" text-decoration="normal" x="222" y="393" text-anchor="start" dominant-baseline="alphabetic" stroke-opacity="1" stroke-linejoin="bevel" stroke-miterlimit="10" stroke-width="3">–10</text>
      <text fill="rgb(0,0,0)" stroke="none" font-family="geogebra-sans-serif, sans-serif" font-size="12px" font-style="normal" font-weight="normal" text-decoration="normal" x="222" y="393" text-anchor="start" dominant-baseline="alphabetic" fill-opacity="1">–10</text>
      <text fill="rgb(0,0,0)" stroke="none" font-family="geogebra-sans-serif, sans-serif" font-size="12px" font-style="normal" font-weight="normal" text-decoration="normal" x="269" y="393" text-anchor="start" dominant-baseline="alphabetic" fill-opacity="1">–8</text>
      <text fill="none" stroke="rgb(255,255,255)" font-family="geogebra-sans-serif, sans-serif" font-size="12px" font-style="normal" font-weight="normal" text-decoration="normal" x="269" y="393" text-anchor="start" dominant-baseline="alphabetic" stroke-opacity="1" stroke-linejoin="bevel" stroke-miterlimit="10" stroke-width="3">–8</text>
      <text fill="rgb(0,0,0)" stroke="none" font-family="geogebra-sans-serif, sans-serif" font-size="12px" font-style="normal" font-weight="normal" text-decoration="normal" x="269" y="393" text-anchor="start" dominant-baseline="alphabetic" fill-opacity="1">–8</text>
      <text fill="rgb(0,0,0)" stroke="none" font-family="geogebra-sans-serif, sans-serif" font-size="12px" font-style="normal" font-weight="normal" text-decoration="normal" x="314" y="393" text-anchor="start" dominant-baseline="alphabetic" fill-opacity="1">–6</text>
      <text fill="none" stroke="rgb(255,255,255)" font-family="geogebra-sans-serif, sans-serif" font-size="12px" font-style="normal" font-weight="normal" text-decoration="normal" x="314" y="393" text-anchor="start" dominant-baseline="alphabetic" stroke-opacity="1" stroke-linejoin="bevel" stroke-miterlimit="10" stroke-width="3">–6</text>
      <text fill="rgb(0,0,0)" stroke="none" font-family="geogebra-sans-serif, sans-serif" font-size="12px" font-style="normal" font-weight="normal" text-decoration="normal" x="314" y="393" text-anchor="start" dominant-baseline="alphabetic" fill-opacity="1">–6</text>
      <text fill="rgb(0,0,0)" stroke="none" font-family="geogebra-sans-serif, sans-serif" font-size="12px" font-style="normal" font-weight="normal" text-decoration="normal" x="358" y="393" text-anchor="start" dominant-baseline="alphabetic" fill-opacity="1">–4</text>
      <text fill="none" stroke="rgb(255,255,255)" font-family="geogebra-sans-serif, sans-serif" font-size="12px" font-style="normal" font-weight="normal" text-decoration="normal" x="358" y="393" text-anchor="start" dominant-baseline="alphabetic" stroke-opacity="1" stroke-linejoin="bevel" stroke-miterlimit="10" stroke-width="3">–4</text>
      <text fill="rgb(0,0,0)" stroke="none" font-family="geogebra-sans-serif, sans-serif" font-size="12px" font-style="normal" font-weight="normal" text-decoration="normal" x="358" y="393" text-anchor="start" dominant-baseline="alphabetic" fill-opacity="1">–4</text>
      <text fill="rgb(0,0,0)" stroke="none" font-family="geogebra-sans-serif, sans-serif" font-size="12px" font-style="normal" font-weight="normal" text-decoration="normal" x="403" y="393" text-anchor="start" dominant-baseline="alphabetic" fill-opacity="1">–2</text>
      <text fill="none" stroke="rgb(255,255,255)" font-family="geogebra-sans-serif, sans-serif" font-size="12px" font-style="normal" font-weight="normal" text-decoration="normal" x="403" y="393" text-anchor="start" dominant-baseline="alphabetic" stroke-opacity="1" stroke-linejoin="bevel" stroke-miterlimit="10" stroke-width="3">–2</text>
      <text fill="rgb(0,0,0)" stroke="none" font-family="geogebra-sans-serif, sans-serif" font-size="12px" font-style="normal" font-weight="normal" text-decoration="normal" x="403" y="393" text-anchor="start" dominant-baseline="alphabetic" fill-opacity="1">–2</text>
      <text fill="rgb(0,0,0)" stroke="none" font-family="geogebra-sans-serif, sans-serif" font-size="12px" font-style="normal" font-weight="normal" text-decoration="normal" x="495" y="393" text-anchor="start" dominant-baseline="alphabetic" fill-opacity="1">2</text>
      <text fill="none" stroke="rgb(255,255,255)" font-family="geogebra-sans-serif, sans-serif" font-size="12px" font-style="normal" font-weight="normal" text-decoration="normal" x="495" y="393" text-anchor="start" dominant-baseline="alphabetic" stroke-opacity="1" stroke-linejoin="bevel" stroke-miterlimit="10" stroke-width="3">2</text>
      <text fill="rgb(0,0,0)" stroke="none" font-family="geogebra-sans-serif, sans-serif" font-size="12px" font-style="normal" font-weight="normal" text-decoration="normal" x="495" y="393" text-anchor="start" dominant-baseline="alphabetic" fill-opacity="1">2</text>
      <text fill="rgb(0,0,0)" stroke="none" font-family="geogebra-sans-serif, sans-serif" font-size="12px" font-style="normal" font-weight="normal" text-decoration="normal" x="539" y="393" text-anchor="start" dominant-baseline="alphabetic" fill-opacity="1">4</text>
      <text fill="none" stroke="rgb(255,255,255)" font-family="geogebra-sans-serif, sans-serif" font-size="12px" font-style="normal" font-weight="normal" text-decoration="normal" x="539" y="393" text-anchor="start" dominant-baseline="alphabetic" stroke-opacity="1" stroke-linejoin="bevel" stroke-miterlimit="10" stroke-width="3">4</text>
      <text fill="rgb(0,0,0)" stroke="none" font-family="geogebra-sans-serif, sans-serif" font-size="12px" font-style="normal" font-weight="normal" text-decoration="normal" x="539" y="393" text-anchor="start" dominant-baseline="alphabetic" fill-opacity="1">4</text>
      <text fill="rgb(0,0,0)" stroke="none" font-family="geogebra-sans-serif, sans-serif" font-size="12px" font-style="normal" font-weight="normal" text-decoration="normal" x="584" y="393" text-anchor="start" dominant-baseline="alphabetic" fill-opacity="1">6</text>
      <text fill="none" stroke="rgb(255,255,255)" font-family="geogebra-sans-serif, sans-serif" font-size="12px" font-style="normal" font-weight="normal" text-decoration="normal" x="584" y="393" text-anchor="start" dominant-baseline="alphabetic" stroke-opacity="1" stroke-linejoin="bevel" stroke-miterlimit="10" stroke-width="3">6</text>
      <text fill="rgb(0,0,0)" stroke="none" font-family="geogebra-sans-serif, sans-serif" font-size="12px" font-style="normal" font-weight="normal" text-decoration="normal" x="584" y="393" text-anchor="start" dominant-baseline="alphabetic" fill-opacity="1">6</text>
      <text fill="rgb(0,0,0)" stroke="none" font-family="geogebra-sans-serif, sans-serif" font-size="12px" font-style="normal" font-weight="normal" text-decoration="normal" x="628" y="393" text-anchor="start" dominant-baseline="alphabetic" fill-opacity="1">8</text>
      <text fill="none" stroke="rgb(255,255,255)" font-family="geogebra-sans-serif, sans-serif" font-size="12px" font-style="normal" font-weight="normal" text-decoration="normal" x="628" y="393" text-anchor="start" dominant-baseline="alphabetic" stroke-opacity="1" stroke-linejoin="bevel" stroke-miterlimit="10" stroke-width="3">8</text>
      <text fill="rgb(0,0,0)" stroke="none" font-family="geogebra-sans-serif, sans-serif" font-size="12px" font-style="normal" font-weight="normal" text-decoration="normal" x="628" y="393" text-anchor="start" dominant-baseline="alphabetic" fill-opacity="1">8</text>
      <text fill="rgb(0,0,0)" stroke="none" font-family="geogebra-sans-serif, sans-serif" font-size="12px" font-style="normal" font-weight="normal" text-decoration="normal" x="669" y="393" text-anchor="start" dominant-baseline="alphabetic" fill-opacity="1">10</text>
      <text fill="none" stroke="rgb(255,255,255)" font-family="geogebra-sans-serif, sans-serif" font-size="12px" font-style="normal" font-weight="normal" text-decoration="normal" x="669" y="393" text-anchor="start" dominant-baseline="alphabetic" stroke-opacity="1" stroke-linejoin="bevel" stroke-miterlimit="10" stroke-width="3">10</text>
      <text fill="rgb(0,0,0)" stroke="none" font-family="geogebra-sans-serif, sans-serif" font-size="12px" font-style="normal" font-weight="normal" text-decoration="normal" x="669" y="393" text-anchor="start" dominant-baseline="alphabetic" fill-opacity="1">10</text>
      <text fill="rgb(0,0,0)" stroke="none" font-family="geogebra-sans-serif, sans-serif" font-size="12px" font-style="normal" font-weight="normal" text-decoration="normal" x="714" y="393" text-anchor="start" dominant-baseline="alphabetic" fill-opacity="1">12</text>
      <text fill="none" stroke="rgb(255,255,255)" font-family="geogebra-sans-serif, sans-serif" font-size="12px" font-style="normal" font-weight="normal" text-decoration="normal" x="714" y="393" text-anchor="start" dominant-baseline="alphabetic" stroke-opacity="1" stroke-linejoin="bevel" stroke-miterlimit="10" stroke-width="3">12</text>
      <text fill="rgb(0,0,0)" stroke="none" font-family="geogebra-sans-serif, sans-serif" font-size="12px" font-style="normal" font-weight="normal" text-decoration="normal" x="714" y="393" text-anchor="start" dominant-baseline="alphabetic" fill-opacity="1">12</text>
      <text fill="rgb(0,0,0)" stroke="none" font-family="geogebra-sans-serif, sans-serif" font-size="12px" font-style="normal" font-weight="normal" text-decoration="normal" x="758" y="393" text-anchor="start" dominant-baseline="alphabetic" fill-opacity="1">14</text>
      <text fill="none" stroke="rgb(255,255,255)" font-family="geogebra-sans-serif, sans-serif" font-size="12px" font-style="normal" font-weight="normal" text-decoration="normal" x="758" y="393" text-anchor="start" dominant-baseline="alphabetic" stroke-opacity="1" stroke-linejoin="bevel" stroke-miterlimit="10" stroke-width="3">14</text>
      <text fill="rgb(0,0,0)" stroke="none" font-family="geogebra-sans-serif, sans-serif" font-size="12px" font-style="normal" font-weight="normal" text-decoration="normal" x="758" y="393" text-anchor="start" dominant-baseline="alphabetic" fill-opacity="1">14</text>
      <text fill="rgb(0,0,0)" stroke="none" font-family="geogebra-sans-serif, sans-serif" font-size="12px" font-style="normal" font-weight="normal" text-decoration="normal" x="803" y="393" text-anchor="start" dominant-baseline="alphabetic" fill-opacity="1">16</text>
      <text fill="none" stroke="rgb(255,255,255)" font-family="geogebra-sans-serif, sans-serif" font-size="12px" font-style="normal" font-weight="normal" text-decoration="normal" x="803" y="393" text-anchor="start" dominant-baseline="alphabetic" stroke-opacity="1" stroke-linejoin="bevel" stroke-miterlimit="10" stroke-width="3">16</text>
      <text fill="rgb(0,0,0)" stroke="none" font-family="geogebra-sans-serif, sans-serif" font-size="12px" font-style="normal" font-weight="normal" text-decoration="normal" x="803" y="393" text-anchor="start" dominant-baseline="alphabetic" fill-opacity="1">16</text>
      <text fill="rgb(0,0,0)" stroke="none" font-family="geogebra-sans-serif, sans-serif" font-size="12px" font-style="normal" font-weight="normal" text-decoration="normal" x="847" y="393" text-anchor="start" dominant-baseline="alphabetic" fill-opacity="1">18</text>
      <text fill="none" stroke="rgb(255,255,255)" font-family="geogebra-sans-serif, sans-serif" font-size="12px" font-style="normal" font-weight="normal" text-decoration="normal" x="847" y="393" text-anchor="start" dominant-baseline="alphabetic" stroke-opacity="1" stroke-linejoin="bevel" stroke-miterlimit="10" stroke-width="3">18</text>
      <text fill="rgb(0,0,0)" stroke="none" font-family="geogebra-sans-serif, sans-serif" font-size="12px" font-style="normal" font-weight="normal" text-decoration="normal" x="847" y="393" text-anchor="start" dominant-baseline="alphabetic" fill-opacity="1">18</text>
      <text fill="rgb(0,0,0)" stroke="none" font-family="geogebra-sans-serif, sans-serif" font-size="12px" font-style="normal" font-weight="normal" text-decoration="normal" x="892" y="393" text-anchor="start" dominant-baseline="alphabetic" fill-opacity="1">20</text>
      <text fill="none" stroke="rgb(255,255,255)" font-family="geogebra-sans-serif, sans-serif" font-size="12px" font-style="normal" font-weight="normal" text-decoration="normal" x="892" y="393" text-anchor="start" dominant-baseline="alphabetic" stroke-opacity="1" stroke-linejoin="bevel" stroke-miterlimit="10" stroke-width="3">20</text>
      <text fill="rgb(0,0,0)" stroke="none" font-family="geogebra-sans-serif, sans-serif" font-size="12px" font-style="normal" font-weight="normal" text-decoration="normal" x="892" y="393" text-anchor="start" dominant-baseline="alphabetic" fill-opacity="1">20</text>
      <text fill="rgb(0,0,0)" stroke="none" font-family="geogebra-sans-serif, sans-serif" font-size="12px" font-style="normal" font-weight="normal" text-decoration="normal" x="936" y="393" text-anchor="start" dominant-baseline="alphabetic" fill-opacity="1">22</text>
      <text fill="none" stroke="rgb(255,255,255)" font-family="geogebra-sans-serif, sans-serif" font-size="12px" font-style="normal" font-weight="normal" text-decoration="normal" x="936" y="393" text-anchor="start" dominant-baseline="alphabetic" stroke-opacity="1" stroke-linejoin="bevel" stroke-miterlimit="10" stroke-width="3">22</text>
      <text fill="rgb(0,0,0)" stroke="none" font-family="geogebra-sans-serif, sans-serif" font-size="12px" font-style="normal" font-weight="normal" text-decoration="normal" x="936" y="393" text-anchor="start" dominant-baseline="alphabetic" fill-opacity="1">22</text>
      <text fill="rgb(0,0,0)" stroke="none" font-family="geogebra-sans-serif, sans-serif" font-size="12px" font-style="normal" font-weight="normal" text-decoration="normal" x="981" y="393" text-anchor="start" dominant-baseline="alphabetic" fill-opacity="1">24</text>
      <text fill="none" stroke="rgb(255,255,255)" font-family="geogebra-sans-serif, sans-serif" font-size="12px" font-style="normal" font-weight="normal" text-decoration="normal" x="981" y="393" text-anchor="start" dominant-baseline="alphabetic" stroke-opacity="1" stroke-linejoin="bevel" stroke-miterlimit="10" stroke-width="3">24</text>
      <text fill="rgb(0,0,0)" stroke="none" font-family="geogebra-sans-serif, sans-serif" font-size="12px" font-style="normal" font-weight="normal" text-decoration="normal" x="981" y="393" text-anchor="start" dominant-baseline="alphabetic" fill-opacity="1">24</text>
      <text fill="rgb(0,0,0)" stroke="none" font-family="geogebra-sans-serif, sans-serif" font-size="12px" font-style="normal" font-weight="normal" text-decoration="normal" x="1025" y="393" text-anchor="start" dominant-baseline="alphabetic" fill-opacity="1">26</text>
      <text fill="none" stroke="rgb(255,255,255)" font-family="geogebra-sans-serif, sans-serif" font-size="12px" font-style="normal" font-weight="normal" text-decoration="normal" x="1025" y="393" text-anchor="start" dominant-baseline="alphabetic" stroke-opacity="1" stroke-linejoin="bevel" stroke-miterlimit="10" stroke-width="3">26</text>
      <text fill="rgb(0,0,0)" stroke="none" font-family="geogebra-sans-serif, sans-serif" font-size="12px" font-style="normal" font-weight="normal" text-decoration="normal" x="1025" y="393" text-anchor="start" dominant-baseline="alphabetic" fill-opacity="1">26</text>
      <text fill="rgb(0,0,0)" stroke="none" font-family="geogebra-sans-serif, sans-serif" font-size="12px" font-style="normal" font-weight="normal" text-decoration="normal" x="1069" y="393" text-anchor="start" dominant-baseline="alphabetic" fill-opacity="1">28</text>
      <text fill="none" stroke="rgb(255,255,255)" font-family="geogebra-sans-serif, sans-serif" font-size="12px" font-style="normal" font-weight="normal" text-decoration="normal" x="1069" y="393" text-anchor="start" dominant-baseline="alphabetic" stroke-opacity="1" stroke-linejoin="bevel" stroke-miterlimit="10" stroke-width="3">28</text>
      <text fill="rgb(0,0,0)" stroke="none" font-family="geogebra-sans-serif, sans-serif" font-size="12px" font-style="normal" font-weight="normal" text-decoration="normal" x="1069" y="393" text-anchor="start" dominant-baseline="alphabetic" fill-opacity="1">28</text>
      <text fill="rgb(0,0,0)" stroke="none" font-family="geogebra-sans-serif, sans-serif" font-size="12px" font-style="normal" font-weight="normal" text-decoration="normal" x="1114" y="393" text-anchor="start" dominant-baseline="alphabetic" fill-opacity="1">30</text>
      <text fill="none" stroke="rgb(255,255,255)" font-family="geogebra-sans-serif, sans-serif" font-size="12px" font-style="normal" font-weight="normal" text-decoration="normal" x="1114" y="393" text-anchor="start" dominant-baseline="alphabetic" stroke-opacity="1" stroke-linejoin="bevel" stroke-miterlimit="10" stroke-width="3">30</text>
      <text fill="rgb(0,0,0)" stroke="none" font-family="geogebra-sans-serif, sans-serif" font-size="12px" font-style="normal" font-weight="normal" text-decoration="normal" x="1114" y="393" text-anchor="start" dominant-baseline="alphabetic" fill-opacity="1">30</text>
      <text fill="rgb(0,0,0)" stroke="none" font-family="geogebra-sans-serif, sans-serif" font-size="12px" font-style="normal" font-weight="normal" text-decoration="normal" x="424" y="649" text-anchor="start" dominant-baseline="alphabetic" fill-opacity="1">–12</text>
      <text fill="none" stroke="rgb(255,255,255)" font-family="geogebra-sans-serif, sans-serif" font-size="12px" font-style="normal" font-weight="normal" text-decoration="normal" x="424" y="649" text-anchor="start" dominant-baseline="alphabetic" stroke-opacity="1" stroke-linejoin="bevel" stroke-miterlimit="10" stroke-width="3">–12</text>
      <text fill="rgb(0,0,0)" stroke="none" font-family="geogebra-sans-serif, sans-serif" font-size="12px" font-style="normal" font-weight="normal" text-decoration="normal" x="424" y="649" text-anchor="start" dominant-baseline="alphabetic" fill-opacity="1">–12</text>
      <text fill="rgb(0,0,0)" stroke="none" font-family="geogebra-sans-serif, sans-serif" font-size="12px" font-style="normal" font-weight="normal" text-decoration="normal" x="424" y="604" text-anchor="start" dominant-baseline="alphabetic" fill-opacity="1">–10</text>
      <text fill="none" stroke="rgb(255,255,255)" font-family="geogebra-sans-serif, sans-serif" font-size="12px" font-style="normal" font-weight="normal" text-decoration="normal" x="424" y="604" text-anchor="start" dominant-baseline="alphabetic" stroke-opacity="1" stroke-linejoin="bevel" stroke-miterlimit="10" stroke-width="3">–10</text>
      <text fill="rgb(0,0,0)" stroke="none" font-family="geogebra-sans-serif, sans-serif" font-size="12px" font-style="normal" font-weight="normal" text-decoration="normal" x="424" y="604" text-anchor="start" dominant-baseline="alphabetic" fill-opacity="1">–10</text>
      <text fill="rgb(0,0,0)" stroke="none" font-family="geogebra-sans-serif, sans-serif" font-size="12px" font-style="normal" font-weight="normal" text-decoration="normal" x="431" y="560" text-anchor="start" dominant-baseline="alphabetic" fill-opacity="1">–8</text>
      <text fill="none" stroke="rgb(255,255,255)" font-family="geogebra-sans-serif, sans-serif" font-size="12px" font-style="normal" font-weight="normal" text-decoration="normal" x="431" y="560" text-anchor="start" dominant-baseline="alphabetic" stroke-opacity="1" stroke-linejoin="bevel" stroke-miterlimit="10" stroke-width="3">–8</text>
      <text fill="rgb(0,0,0)" stroke="none" font-family="geogebra-sans-serif, sans-serif" font-size="12px" font-style="normal" font-weight="normal" text-decoration="normal" x="431" y="560" text-anchor="start" dominant-baseline="alphabetic" fill-opacity="1">–8</text>
      <text fill="rgb(0,0,0)" stroke="none" font-family="geogebra-sans-serif, sans-serif" font-size="12px" font-style="normal" font-weight="normal" text-decoration="normal" x="431" y="515" text-anchor="start" dominant-baseline="alphabetic" fill-opacity="1">–6</text>
      <text fill="none" stroke="rgb(255,255,255)" font-family="geogebra-sans-serif, sans-serif" font-size="12px" font-style="normal" font-weight="normal" text-decoration="normal" x="431" y="515" text-anchor="start" dominant-baseline="alphabetic" stroke-opacity="1" stroke-linejoin="bevel" stroke-miterlimit="10" stroke-width="3">–6</text>
      <text fill="rgb(0,0,0)" stroke="none" font-family="geogebra-sans-serif, sans-serif" font-size="12px" font-style="normal" font-weight="normal" text-decoration="normal" x="431" y="515" text-anchor="start" dominant-baseline="alphabetic" fill-opacity="1">–6</text>
      <text fill="rgb(0,0,0)" stroke="none" font-family="geogebra-sans-serif, sans-serif" font-size="12px" font-style="normal" font-weight="normal" text-decoration="normal" x="431" y="471" text-anchor="start" dominant-baseline="alphabetic" fill-opacity="1">–4</text>
      <text fill="none" stroke="rgb(255,255,255)" font-family="geogebra-sans-serif, sans-serif" font-size="12px" font-style="normal" font-weight="normal" text-decoration="normal" x="431" y="471" text-anchor="start" dominant-baseline="alphabetic" stroke-opacity="1" stroke-linejoin="bevel" stroke-miterlimit="10" stroke-width="3">–4</text>
      <text fill="rgb(0,0,0)" stroke="none" font-family="geogebra-sans-serif, sans-serif" font-size="12px" font-style="normal" font-weight="normal" text-decoration="normal" x="431" y="471" text-anchor="start" dominant-baseline="alphabetic" fill-opacity="1">–4</text>
      <text fill="rgb(0,0,0)" stroke="none" font-family="geogebra-sans-serif, sans-serif" font-size="12px" font-style="normal" font-weight="normal" text-decoration="normal" x="431" y="427" text-anchor="start" dominant-baseline="alphabetic" fill-opacity="1">–2</text>
      <text fill="none" stroke="rgb(255,255,255)" font-family="geogebra-sans-serif, sans-serif" font-size="12px" font-style="normal" font-weight="normal" text-decoration="normal" x="431" y="427" text-anchor="start" dominant-baseline="alphabetic" stroke-opacity="1" stroke-linejoin="bevel" stroke-miterlimit="10" stroke-width="3">–2</text>
      <text fill="rgb(0,0,0)" stroke="none" font-family="geogebra-sans-serif, sans-serif" font-size="12px" font-style="normal" font-weight="normal" text-decoration="normal" x="431" y="427" text-anchor="start" dominant-baseline="alphabetic" fill-opacity="1">–2</text>
      <text fill="rgb(0,0,0)" stroke="none" font-family="geogebra-sans-serif, sans-serif" font-size="12px" font-style="normal" font-weight="normal" text-decoration="normal" x="438" y="338" text-anchor="start" dominant-baseline="alphabetic" fill-opacity="1">2</text>
      <text fill="none" stroke="rgb(255,255,255)" font-family="geogebra-sans-serif, sans-serif" font-size="12px" font-style="normal" font-weight="normal" text-decoration="normal" x="438" y="338" text-anchor="start" dominant-baseline="alphabetic" stroke-opacity="1" stroke-linejoin="bevel" stroke-miterlimit="10" stroke-width="3">2</text>
      <text fill="rgb(0,0,0)" stroke="none" font-family="geogebra-sans-serif, sans-serif" font-size="12px" font-style="normal" font-weight="normal" text-decoration="normal" x="438" y="338" text-anchor="start" dominant-baseline="alphabetic" fill-opacity="1">2</text>
      <text fill="rgb(0,0,0)" stroke="none" font-family="geogebra-sans-serif, sans-serif" font-size="12px" font-style="normal" font-weight="normal" text-decoration="normal" x="438" y="293" text-anchor="start" dominant-baseline="alphabetic" fill-opacity="1">4</text>
      <text fill="none" stroke="rgb(255,255,255)" font-family="geogebra-sans-serif, sans-serif" font-size="12px" font-style="normal" font-weight="normal" text-decoration="normal" x="438" y="293" text-anchor="start" dominant-baseline="alphabetic" stroke-opacity="1" stroke-linejoin="bevel" stroke-miterlimit="10" stroke-width="3">4</text>
      <text fill="rgb(0,0,0)" stroke="none" font-family="geogebra-sans-serif, sans-serif" font-size="12px" font-style="normal" font-weight="normal" text-decoration="normal" x="438" y="293" text-anchor="start" dominant-baseline="alphabetic" fill-opacity="1">4</text>
      <text fill="rgb(0,0,0)" stroke="none" font-family="geogebra-sans-serif, sans-serif" font-size="12px" font-style="normal" font-weight="normal" text-decoration="normal" x="438" y="249" text-anchor="start" dominant-baseline="alphabetic" fill-opacity="1">6</text>
      <text fill="none" stroke="rgb(255,255,255)" font-family="geogebra-sans-serif, sans-serif" font-size="12px" font-style="normal" font-weight="normal" text-decoration="normal" x="438" y="249" text-anchor="start" dominant-baseline="alphabetic" stroke-opacity="1" stroke-linejoin="bevel" stroke-miterlimit="10" stroke-width="3">6</text>
      <text fill="rgb(0,0,0)" stroke="none" font-family="geogebra-sans-serif, sans-serif" font-size="12px" font-style="normal" font-weight="normal" text-decoration="normal" x="438" y="249" text-anchor="start" dominant-baseline="alphabetic" fill-opacity="1">6</text>
      <text fill="rgb(0,0,0)" stroke="none" font-family="geogebra-sans-serif, sans-serif" font-size="12px" font-style="normal" font-weight="normal" text-decoration="normal" x="438" y="204" text-anchor="start" dominant-baseline="alphabetic" fill-opacity="1">8</text>
      <text fill="none" stroke="rgb(255,255,255)" font-family="geogebra-sans-serif, sans-serif" font-size="12px" font-style="normal" font-weight="normal" text-decoration="normal" x="438" y="204" text-anchor="start" dominant-baseline="alphabetic" stroke-opacity="1" stroke-linejoin="bevel" stroke-miterlimit="10" stroke-width="3">8</text>
      <text fill="rgb(0,0,0)" stroke="none" font-family="geogebra-sans-serif, sans-serif" font-size="12px" font-style="normal" font-weight="normal" text-decoration="normal" x="438" y="204" text-anchor="start" dominant-baseline="alphabetic" fill-opacity="1">8</text>
      <text fill="rgb(0,0,0)" stroke="none" font-family="geogebra-sans-serif, sans-serif" font-size="12px" font-style="normal" font-weight="normal" text-decoration="normal" x="431" y="160" text-anchor="start" dominant-baseline="alphabetic" fill-opacity="1">10</text>
      <text fill="none" stroke="rgb(255,255,255)" font-family="geogebra-sans-serif, sans-serif" font-size="12px" font-style="normal" font-weight="normal" text-decoration="normal" x="431" y="160" text-anchor="start" dominant-baseline="alphabetic" stroke-opacity="1" stroke-linejoin="bevel" stroke-miterlimit="10" stroke-width="3">10</text>
      <text fill="rgb(0,0,0)" stroke="none" font-family="geogebra-sans-serif, sans-serif" font-size="12px" font-style="normal" font-weight="normal" text-decoration="normal" x="431" y="160" text-anchor="start" dominant-baseline="alphabetic" fill-opacity="1">10</text>
      <text fill="rgb(0,0,0)" stroke="none" font-family="geogebra-sans-serif, sans-serif" font-size="12px" font-style="normal" font-weight="normal" text-decoration="normal" x="431" y="115" text-anchor="start" dominant-baseline="alphabetic" fill-opacity="1">12</text>
      <text fill="none" stroke="rgb(255,255,255)" font-family="geogebra-sans-serif, sans-serif" font-size="12px" font-style="normal" font-weight="normal" text-decoration="normal" x="431" y="115" text-anchor="start" dominant-baseline="alphabetic" stroke-opacity="1" stroke-linejoin="bevel" stroke-miterlimit="10" stroke-width="3">12</text>
      <text fill="rgb(0,0,0)" stroke="none" font-family="geogebra-sans-serif, sans-serif" font-size="12px" font-style="normal" font-weight="normal" text-decoration="normal" x="431" y="115" text-anchor="start" dominant-baseline="alphabetic" fill-opacity="1">12</text>
      <text fill="rgb(0,0,0)" stroke="none" font-family="geogebra-sans-serif, sans-serif" font-size="12px" font-style="normal" font-weight="normal" text-decoration="normal" x="431" y="71" text-anchor="start" dominant-baseline="alphabetic" fill-opacity="1">14</text>
      <text fill="none" stroke="rgb(255,255,255)" font-family="geogebra-sans-serif, sans-serif" font-size="12px" font-style="normal" font-weight="normal" text-decoration="normal" x="431" y="71" text-anchor="start" dominant-baseline="alphabetic" stroke-opacity="1" stroke-linejoin="bevel" stroke-miterlimit="10" stroke-width="3">14</text>
      <text fill="rgb(0,0,0)" stroke="none" font-family="geogebra-sans-serif, sans-serif" font-size="12px" font-style="normal" font-weight="normal" text-decoration="normal" x="431" y="71" text-anchor="start" dominant-baseline="alphabetic" fill-opacity="1">14</text>
      <text fill="rgb(0,0,0)" stroke="none" font-family="geogebra-sans-serif, sans-serif" font-size="12px" font-style="normal" font-weight="normal" text-decoration="normal" x="431" y="27" text-anchor="start" dominant-baseline="alphabetic" fill-opacity="1">16</text>
      <text fill="none" stroke="rgb(255,255,255)" font-family="geogebra-sans-serif, sans-serif" font-size="12px" font-style="normal" font-weight="normal" text-decoration="normal" x="431" y="27" text-anchor="start" dominant-baseline="alphabetic" stroke-opacity="1" stroke-linejoin="bevel" stroke-miterlimit="10" stroke-width="3">16</text>
      <text fill="rgb(0,0,0)" stroke="none" font-family="geogebra-sans-serif, sans-serif" font-size="12px" font-style="normal" font-weight="normal" text-decoration="normal" x="431" y="27" text-anchor="start" dominant-baseline="alphabetic" fill-opacity="1">16</text>
      <text fill="rgb(0,0,0)" stroke="none" font-family="geogebra-sans-serif, sans-serif" font-size="12px" font-style="normal" font-weight="normal" text-decoration="normal" x="438" y="393" text-anchor="start" dominant-baseline="alphabetic" fill-opacity="1">0</text>
      <text fill="none" stroke="rgb(255,255,255)" font-family="geogebra-sans-serif, sans-serif" font-size="12px" font-style="normal" font-weight="normal" text-decoration="normal" x="438" y="393" text-anchor="start" dominant-baseline="alphabetic" stroke-opacity="1" stroke-linejoin="bevel" stroke-miterlimit="10" stroke-width="3">0</text>
      <text fill="rgb(0,0,0)" stroke="none" font-family="geogebra-sans-serif, sans-serif" font-size="12px" font-style="normal" font-weight="normal" text-decoration="normal" x="438" y="393" text-anchor="start" dominant-baseline="alphabetic" fill-opacity="1">0</text>
      <path fill="rgb(153,51,0)" stroke="none" paint-order="stroke fill markers" fill-rule="evenodd" d=" M 452.66666666666674 377.5555555555555 L 741.5555555555559 88.66666666666714 L 741.5555555555559 377.5555555555555 Z" fill-opacity="0.09803921568627451" />
      <text fill="rgb(153,51,0)" stroke="none" font-family="geogebra-sans-serif, sans-serif" font-size="16px" font-style="normal" font-weight="normal" text-decoration="normal" x="645" y="281" text-anchor="start" dominant-baseline="alphabetic" fill-opacity="1">t1</text>
      <text fill="none" stroke="rgb(255,255,255)" font-family="geogebra-sans-serif, sans-serif" font-size="16px" font-style="normal" font-weight="normal" text-decoration="normal" x="645" y="281" text-anchor="start" dominant-baseline="alphabetic" stroke-opacity="1" stroke-linejoin="bevel" stroke-miterlimit="10" stroke-width="3">t1</text>
      <text fill="rgb(153,51,0)" stroke="none" font-family="geogebra-sans-serif, sans-serif" font-size="16px" font-style="normal" font-weight="normal" text-decoration="normal" x="645" y="281" text-anchor="start" dominant-baseline="alphabetic" fill-opacity="1">t1</text>
      <path fill="none" stroke="rgb(0,0,0)" paint-order="fill stroke markers" d=" M 741.5555555555559 88.66666666666714 L 741.5555555555559 377.5555555555555" stroke-opacity="0.6980392156862745" stroke-linecap="round" stroke-linejoin="round" stroke-miterlimit="10" stroke-width="2.5" />
      <path fill="none" stroke="rgb(0,0,0)" paint-order="fill stroke markers" d=" M 452.66666666666674 377.5555555555555 L 741.5555555555559 88.66666666666714" stroke-opacity="0.6980392156862745" stroke-linecap="round" stroke-linejoin="round" stroke-miterlimit="10" stroke-width="2.5" />
      <path fill="none" stroke="rgb(153,51,0)" paint-order="fill stroke markers" d=" M 452.66666666666674 377.5555555555555 L 741.5555555555559 88.66666666666714" stroke-opacity="0.6980392156862745" stroke-linecap="round" stroke-linejoin="round" stroke-miterlimit="10" stroke-width="2.5" />
      <path fill="none" stroke="rgb(153,51,0)" paint-order="fill stroke markers" d=" M 741.5555555555559 88.66666666666714 L 741.5555555555559 377.5555555555555" stroke-opacity="0.6980392156862745" stroke-linecap="round" stroke-linejoin="round" stroke-miterlimit="10" stroke-width="2.5" />
      <path fill="none" stroke="rgb(153,51,0)" paint-order="fill stroke markers" d=" M 741.5555555555559 377.5555555555555 L 452.66666666666674 377.5555555555555" stroke-opacity="0.6980392156862745" stroke-linecap="round" stroke-linejoin="round" stroke-miterlimit="10" stroke-width="2.5" />
      <path fill="rgb(77,77,255)" stroke="none" paint-order="stroke fill markers" d=" M 746.5555555555559 88.66666666666714 C 746.5555555555559 91.4280904158211 744.3169793047099 93.66666666666714 741.5555555555559 93.66666666666714 C 738.7941318064019 93.66666666666714 736.5555555555559 91.4280904158211 736.5555555555559 88.66666666666714 C 736.5555555555559 85.90524291751318 738.7941318064019 83.66666666666714 741.5555555555559 83.66666666666714 C 744.3169793047099 83.66666666666714 746.5555555555559 85.90524291751318 746.5555555555559 88.66666666666714 Z" fill-opacity="1" />
      <path fill="none" stroke="rgb(0,0,0)" paint-order="fill stroke markers" d=" M 746.5555555555559 88.66666666666714 C 746.5555555555559 91.4280904158211 744.3169793047099 93.66666666666714 741.5555555555559 93.66666666666714 C 738.7941318064019 93.66666666666714 736.5555555555559 91.4280904158211 736.5555555555559 88.66666666666714 C 736.5555555555559 85.90524291751318 738.7941318064019 83.66666666666714 741.5555555555559 83.66666666666714 C 744.3169793047099 83.66666666666714 746.5555555555559 85.90524291751318 746.5555555555559 88.66666666666714 Z" stroke-opacity="1" stroke-linecap="round" stroke-linejoin="round" stroke-miterlimit="10" />
      <path fill="rgb(125,125,255)" stroke="none" paint-order="stroke fill markers" d=" M 746.5555555555559 377.5555555555555 C 746.5555555555559 380.31697930470943 744.3169793047099 382.5555555555555 741.5555555555559 382.5555555555555 C 738.7941318064019 382.5555555555555 736.5555555555559 380.31697930470943 736.5555555555559 377.5555555555555 C 736.5555555555559 374.79413180640154 738.7941318064019 372.5555555555555 741.5555555555559 372.5555555555555 C 744.3169793047099 372.5555555555555 746.5555555555559 374.79413180640154 746.5555555555559 377.5555555555555 Z" fill-opacity="1" />
      <path fill="none" stroke="rgb(0,0,0)" paint-order="fill stroke markers" d=" M 746.5555555555559 377.5555555555555 C 746.5555555555559 380.31697930470943 744.3169793047099 382.5555555555555 741.5555555555559 382.5555555555555 C 738.7941318064019 382.5555555555555 736.5555555555559 380.31697930470943 736.5555555555559 377.5555555555555 C 736.5555555555559 374.79413180640154 738.7941318064019 372.5555555555555 741.5555555555559 372.5555555555555 C 744.3169793047099 372.5555555555555 746.5555555555559 374.79413180640154 746.5555555555559 377.5555555555555 Z" stroke-opacity="1" stroke-linecap="round" stroke-linejoin="round" stroke-miterlimit="10" />
      <path fill="rgb(68,68,68)" stroke="none" paint-order="stroke fill markers" d=" M 456.66666666666674 377.5555555555555 C 456.66666666666674 379.76469455487864 454.8758056659899 381.5555555555555 452.66666666666674 381.5555555555555 C 450.4575276673436 381.5555555555555 448.66666666666674 379.76469455487864 448.66666666666674 377.5555555555555 C 448.66666666666674 375.3464165562323 450.4575276673436 373.5555555555555 452.66666666666674 373.5555555555555 C 454.8758056659899 373.5555555555555 456.66666666666674 375.3464165562323 456.66666666666674 377.5555555555555 Z" fill-opacity="1" />
      <path fill="none" stroke="rgb(0,0,0)" paint-order="fill stroke markers" d=" M 456.66666666666674 377.5555555555555 C 456.66666666666674 379.76469455487864 454.8758056659899 381.5555555555555 452.66666666666674 381.5555555555555 C 450.4575276673436 381.5555555555555 448.66666666666674 379.76469455487864 448.66666666666674 377.5555555555555 C 448.66666666666674 375.3464165562323 450.4575276673436 373.5555555555555 452.66666666666674 373.5555555555555 C 454.8758056659899 373.5555555555555 456.66666666666674 375.3464165562323 456.66666666666674 377.5555555555555 Z" stroke-opacity="1" stroke-linecap="round" stroke-linejoin="round" stroke-miterlimit="10" />
    </g>
  </g>
</svg>
