<svg xmlns="http://www.w3.org/2000/svg" xmlns:xlink="http://www.w3.org/1999/xlink" width="540" height="218pt" viewBox="0 0 405 218"><defs><symbol id="a" overflow="visible"><path d="M2.75-7.234c-.656 0-1.266.297-1.625.797C.656-5.797.438-4.844.438-3.5c0 2.438.796 3.734 2.312 3.734 1.5 0 2.313-1.296 2.313-3.671 0-1.407-.22-2.344-.688-3-.36-.5-.953-.797-1.625-.797m0 .78c.953 0 1.422.97 1.422 2.938C4.172-1.453 3.703-.5 2.734-.5c-.937 0-1.406-1-1.406-2.984 0-2 .469-2.97 1.422-2.97m0 0" style="stroke:none"/></symbol><symbol id="b" overflow="visible"><path d="M1.906-1.047H.875V0h1.031Zm0 0" style="stroke:none"/></symbol><symbol id="c" overflow="visible"><path d="M5.063-.875H1.328c.094-.594.406-.969 1.281-1.5l1-.562c.985-.547 1.5-1.297 1.5-2.188a2.1 2.1 0 0 0-.656-1.547c-.422-.375-.937-.562-1.61-.562-.905 0-1.577.328-1.968.937-.25.39-.36.844-.375 1.563h.875c.031-.485.094-.782.219-1.016.218-.437.687-.703 1.219-.703.796 0 1.39.578 1.39 1.36 0 .577-.328 1.077-.953 1.437l-.922.531C.844-2.265.422-1.594.344-.015h4.719Zm0 0" style="stroke:none"/></symbol><symbol id="d" overflow="visible"><path d="M2.203-3.328h.485c.968 0 1.468.453 1.468 1.312 0 .922-.547 1.47-1.453 1.47-.969 0-1.437-.5-1.5-1.548h-.89c.046.578.14.953.312 1.281C1-.125 1.688.234 2.656.234c1.469 0 2.407-.89 2.407-2.25 0-.921-.36-1.421-1.204-1.718q.985-.423.985-1.5c0-1.25-.797-2-2.157-2C1.267-7.234.5-6.437.47-4.906h.875c.015-.438.062-.688.172-.907.187-.406.64-.64 1.187-.64.781 0 1.25.469 1.25 1.25 0 .5-.187.812-.578.984-.234.094-.562.14-1.172.157Zm0 0" style="stroke:none"/></symbol><symbol id="e" overflow="visible"><path d="M3.266-1.75V0h.89v-1.75h1.047v-.797H4.156v-4.687H3.5L.281-2.687v.937Zm0-.797h-2.22l2.22-3.187Zm0 0" style="stroke:none"/></symbol><symbol id="f" overflow="visible"><path d="M4.766-7.094H1.094l-.532 3.86h.813c.422-.485.75-.657 1.313-.657.953 0 1.546.657 1.546 1.704 0 1.015-.593 1.64-1.546 1.64-.782 0-1.25-.39-1.454-1.187h-.89c.125.578.219.859.437 1.109.407.547 1.125.86 1.922.86 1.422 0 2.422-1.047 2.422-2.547 0-1.391-.922-2.36-2.281-2.36-.5 0-.906.125-1.313.438l.282-1.985h2.953Zm0 0" style="stroke:none"/></symbol><symbol id="g" overflow="visible"><path d="M4.984-5.344c-.171-1.187-.937-1.89-2.015-1.89a2.27 2.27 0 0 0-1.906 1.03c-.438.72-.625 1.595-.625 2.907 0 1.219.156 1.985.593 2.625.375.594 1 .906 1.782.906 1.343 0 2.312-1.015 2.312-2.421 0-1.329-.89-2.266-2.172-2.266-.687 0-1.25.25-1.625.781.016-1.781.578-2.781 1.578-2.781.625 0 1.047.406 1.188 1.11Zm-2.14 1.657c.86 0 1.39.609 1.39 1.562 0 .922-.609 1.578-1.421 1.578s-1.438-.687-1.438-1.61c0-.905.61-1.53 1.469-1.53m0 0" style="stroke:none"/></symbol><symbol id="h" overflow="visible"><path d="M5.203-7.094H.453v.875h3.844C2.594-3.812 1.907-2.329 1.375 0h.938c.39-2.266 1.28-4.219 2.89-6.344Zm0 0" style="stroke:none"/></symbol><symbol id="i" overflow="visible"><path d="M3.906-3.812c.75-.454.969-.813.969-1.485 0-1.14-.86-1.937-2.125-1.937-1.25 0-2.125.797-2.125 1.922 0 .687.219 1.046.953 1.5-.812.406-1.203 1-1.203 1.796 0 1.329.969 2.25 2.375 2.25s2.375-.921 2.375-2.25c0-.796-.39-1.39-1.219-1.796M2.75-6.453c.75 0 1.234.453 1.234 1.172 0 .687-.5 1.125-1.234 1.125-.75 0-1.234-.438-1.234-1.14C1.516-6 2-6.454 2.75-6.454m0 3.047c.875 0 1.484.578 1.484 1.422 0 .859-.593 1.437-1.5 1.437-.859 0-1.468-.594-1.468-1.437 0-.86.593-1.422 1.484-1.422m0 0" style="stroke:none"/></symbol><symbol id="j" overflow="visible"><path d="M.531-1.656C.703-.47 1.453.234 2.547.234a2.27 2.27 0 0 0 1.906-1.03c.438-.72.64-1.595.64-2.907 0-1.219-.187-1.985-.609-2.625-.39-.594-1-.906-1.78-.906-1.36 0-2.329 1.015-2.329 2.422 0 1.328.906 2.265 2.188 2.265.671 0 1.171-.25 1.624-.797C4.173-1.547 3.61-.547 2.595-.547c-.61 0-1.047-.406-1.188-1.11Zm2.157-4.797c.828 0 1.437.687 1.437 1.61 0 .89-.594 1.515-1.469 1.515-.844 0-1.375-.61-1.375-1.563 0-.906.594-1.562 1.407-1.562m0 0" style="stroke:none"/></symbol><symbol id="k" overflow="visible"><path d="M2.594-5.156V0h.875v-7.234H2.89c-.313 1.109-.516 1.265-1.875 1.437v.64Zm0 0" style="stroke:none"/></symbol><symbol id="l" overflow="visible"><path d="M2.844-3.125H.454v.719h2.39Zm0 0" style="stroke:none"/></symbol><symbol id="n" overflow="visible"><path d="M2.469-3.453h3.5v-1.375h-3.5v-1.813h3.984v-1.375H.813V0h1.656Zm0 0" style="stroke:none"/></symbol><symbol id="o" overflow="visible"><path d="M2.281-5.937H.734V0h1.547Zm0-2.079H.734v1.375h1.547Zm0 0" style="stroke:none"/></symbol><symbol id="p" overflow="visible"><path d="M4.406-5.937v.906c-.437-.688-.906-1-1.531-1-.531 0-1.11.25-1.516.687-.593.61-.906 1.469-.906 2.516C.453-1 1.422.25 2.843.25 3.47.25 3.86.047 4.407-.61v.813c0 .703-.515 1.203-1.234 1.203-.547 0-.89-.234-1.016-.687H.578c0 .453.172.781.578 1.11.469.39 1.125.562 1.953.562 1.72 0 2.75-.813 2.75-2.188v-6.14ZM3.156-4.75c.735 0 1.266.797 1.266 1.906 0 1.078-.516 1.813-1.281 1.813-.672 0-1.157-.735-1.157-1.813 0-1.125.485-1.906 1.172-1.906m0 0" style="stroke:none"/></symbol><symbol id="q" overflow="visible"><path d="M2.36-1.61H.702V0H2.36Zm0 0" style="stroke:none"/></symbol><symbol id="r" overflow="visible"><path d="M2.39-3.484c.594 0 .626 0 .891.078.531.14.86.594.86 1.156 0 .703-.485 1.188-1.157 1.188-.734 0-1.125-.422-1.171-1.22h-1.5C.328-.718 1.343.25 2.953.25c1.656 0 2.719-.969 2.719-2.5 0-.906-.39-1.5-1.266-1.937.703-.438 1.016-.938 1.016-1.657 0-1.297-.969-2.125-2.469-2.125-1.14 0-2 .5-2.344 1.344C.47-6.25.422-6 .422-5.344h1.422c.015-.422.047-.625.125-.828.14-.344.5-.547.953-.547.61 0 .969.375.969 1.016 0 .797-.453 1.187-1.375 1.187H2.39Zm0 0" style="stroke:none"/></symbol><symbol id="t" overflow="visible"><path d="M7.11-8.016h-.97v6.547L1.954-8.016H.843V0h.954v-6.5L5.953 0H7.11Zm0 0" style="stroke:none"/></symbol><symbol id="u" overflow="visible"><path d="M5.64-2.578c0-.875-.062-1.406-.234-1.828-.375-.953-1.25-1.516-2.328-1.516-1.61 0-2.64 1.219-2.64 3.11 0 1.906 1 3.062 2.625 3.062 1.312 0 2.234-.75 2.453-2h-.922c-.25.766-.766 1.156-1.5 1.156a1.61 1.61 0 0 1-1.39-.75c-.22-.328-.298-.656-.313-1.234Zm-4.218-.75c.078-1.063.719-1.75 1.64-1.75.938 0 1.594.719 1.594 1.75Zm0 0" style="stroke:none"/></symbol><symbol id="v" overflow="visible"><path d="m3.14 0 2.204-5.766H4.312L2.688-1.094 1.142-5.766H.109L2.141 0Zm0 0" style="stroke:none"/></symbol><symbol id="w" overflow="visible"><path d="M1.656-5.766H.734V0h.922Zm0-2.25H.72v1.157h.937Zm0 0" style="stroke:none"/></symbol><symbol id="x" overflow="visible"><path d="M1.672-8.016H.75V0h.922Zm0 0" style="stroke:none"/></symbol><symbol id="y" overflow="visible"><path d="M.766-5.766V0h.922v-3.172c0-1.187.625-1.953 1.562-1.953.734 0 1.188.438 1.188 1.125v4h.921v-4.36c0-.952-.718-1.562-1.828-1.562-.86 0-1.406.328-1.922 1.125v-.969Zm0 0" style="stroke:none"/></symbol><symbol id="z" overflow="visible"><path d="M2.797-5.766h-.953v-1.578H.937v1.578h-.78v.75h.78v4.36c0 .594.391.906 1.11.906.234 0 .437-.016.75-.078v-.766c-.14.031-.25.047-.438.047-.406 0-.515-.11-.515-.515v-3.954h.953Zm0 0" style="stroke:none"/></symbol><symbol id="A" overflow="visible"><path d="M.766-5.766V0h.922v-2.984c0-1.391.578-2.016 1.843-1.985v-.922c-.156-.03-.25-.03-.36-.03-.593 0-1.03.343-1.562 1.202v-1.047Zm0 0" style="stroke:none"/></symbol><symbol id="B" overflow="visible"><path d="M.594 2.39h.922v-3C2-.015 2.546.25 3.28.25c1.5 0 2.469-1.203 2.469-3.031 0-1.938-.937-3.14-2.469-3.14-.781 0-1.406.343-1.844 1.03v-.875H.595Zm2.531-7.468c1.016 0 1.672.89 1.672 2.266C4.797-1.5 4.125-.61 3.125-.61c-.984 0-1.61-.875-1.61-2.235 0-1.344.626-2.234 1.61-2.234m0 0" style="stroke:none"/></symbol><symbol id="C" overflow="visible"><path d="M2.984-5.922C1.36-5.922.391-4.782.391-2.844.39-.89 1.359.25 3 .25c1.625 0 2.61-1.156 2.61-3.047 0-2-.954-3.125-2.626-3.125M3-5.078c1.031 0 1.656.844 1.656 2.266 0 1.374-.64 2.218-1.656 2.218s-1.64-.843-1.64-2.25c0-1.39.624-2.234 1.64-2.234m0 0" style="stroke:none"/></symbol><symbol id="D" overflow="visible"><path d="M5.89-.531c-.109.015-.156.015-.202.015-.313 0-.5-.171-.5-.453v-3.39c0-1.016-.75-1.563-2.157-1.563-.86 0-1.531.234-1.922.656-.265.297-.375.641-.39 1.204h.922c.078-.704.5-1.016 1.343-1.016.844 0 1.297.297 1.297.86v.234c-.015.39-.218.547-.953.64-1.297.172-1.5.203-1.86.36-.671.28-1 .78-1 1.53C.469-.405 1.189.25 2.36.25c.72 0 1.297-.25 1.954-.844.062.594.343.844.953.844.187 0 .312-.016.625-.094ZM4.282-1.812c0 .312-.093.5-.36.75-.374.343-.827.515-1.374.515-.703 0-1.125-.344-1.125-.922 0-.61.39-.922 1.39-1.062.97-.125 1.157-.172 1.47-.313Zm0 0" style="stroke:none"/></symbol><symbol id="E" overflow="visible"><path d="M4.438-5.766v.844c-.454-.703-.97-1-1.688-1-1.39 0-2.36 1.297-2.36 3.14 0 .97.22 1.673.72 2.25.437.516.984.782 1.578.782.687 0 1.187-.312 1.671-1.031v.297c0 1.547-.437 2.109-1.578 2.109C2 1.625 1.594 1.313 1.5.656H.578c.078 1.078.922 1.735 2.188 1.735.843 0 1.547-.266 1.922-.735.437-.531.609-1.25.609-2.61v-4.812Zm-1.594.688c.969 0 1.515.812 1.515 2.266 0 1.406-.562 2.218-1.515 2.218s-1.5-.828-1.5-2.25c0-1.406.547-2.234 1.5-2.234m0 0" style="stroke:none"/></symbol><symbol id="F" overflow="visible"><path d="M4.266-5.766 2.672-1.28 1.203-5.766H.22L2.172.016l-.36.922c-.156.406-.343.562-.734.562-.156 0-.281-.031-.484-.062v.812c.187.11.375.14.61.14.296 0 .624-.093.859-.265.296-.219.453-.453.624-.922l2.579-6.969Zm0 0" style="stroke:none"/></symbol><symbol id="G" overflow="visible"><path d="M.766-5.766V0h.922v-3.625c0-.828.609-1.5 1.359-1.5.687 0 1.062.422 1.062 1.156V0h.922v-3.625c0-.828.61-1.5 1.36-1.5.672 0 1.062.422 1.062 1.156V0h.922v-4.328c0-1.031-.594-1.594-1.672-1.594-.766 0-1.219.219-1.766.875-.343-.625-.796-.875-1.546-.875-.766 0-1.297.281-1.782.969v-.813Zm0 0" style="stroke:none"/></symbol><symbol id="H" overflow="visible"><path d="M1.75-6.562H.906V0h.844Zm0 0" style="stroke:none"/></symbol><symbol id="I" overflow="visible"><path d="M.625-4.719V0h.766v-2.594c0-.969.5-1.594 1.265-1.594.61 0 .985.36.985.922V0h.75v-3.562c0-.782-.594-1.282-1.5-1.282-.703 0-1.157.266-1.563.922v-.797Zm0 0" style="stroke:none"/></symbol><symbol id="J" overflow="visible"><path d="M.484 1.969h.75V-.5c.407.484.844.703 1.454.703 1.234 0 2.015-.984 2.015-2.484 0-1.578-.766-2.563-2.016-2.563-.64 0-1.156.282-1.515.844v-.719H.484Zm2.079-6.125c.828 0 1.359.734 1.359 1.86C3.922-1.22 3.375-.5 2.562-.5c-.812 0-1.328-.719-1.328-1.828 0-1.094.516-1.828 1.329-1.828m0 0" style="stroke:none"/></symbol><symbol id="K" overflow="visible"><path d="M4.344 0v-4.719h-.75v2.672c0 .969-.5 1.594-1.297 1.594-.594 0-.969-.36-.969-.922v-3.344h-.75v3.64c0 .782.594 1.282 1.516 1.282.687 0 1.125-.234 1.562-.86V0Zm0 0" style="stroke:none"/></symbol><symbol id="L" overflow="visible"><path d="M2.281-4.719h-.765v-1.297h-.75v1.297H.125v.61h.64v3.562c0 .5.329.75.907.75.203 0 .36-.016.61-.062v-.625c-.11.03-.204.03-.36.03-.313 0-.406-.093-.406-.421v-3.234h.765Zm0 0" style="stroke:none"/></symbol><symbol id="N" overflow="visible"><path d="M2.453-4.844c-1.344 0-2.125.938-2.125 2.516C.328-.734 1.11.203 2.453.203c1.328 0 2.14-.937 2.14-2.484 0-1.64-.78-2.563-2.14-2.563m0 .688c.844 0 1.36.687 1.36 1.86 0 1.124-.532 1.812-1.36 1.812S1.11-1.172 1.11-2.328c0-1.14.516-1.828 1.344-1.828m0 0" style="stroke:none"/></symbol><symbol id="O" overflow="visible"><path d="M1.344-4.719H.609V0h.735Zm0-1.843h-.75v.953h.75Zm0 0" style="stroke:none"/></symbol><symbol id="P" overflow="visible"><path d="M3.938-3.406c0-.922-.61-1.438-1.704-1.438S.422-4.28.422-3.406c0 .734.375 1.078 1.5 1.36l.703.171c.516.125.719.313.719.64 0 .454-.438.75-1.094.75-.406 0-.75-.124-.937-.312-.11-.14-.172-.281-.22-.61h-.78C.343-.311.953.204 2.188.204c1.187 0 1.937-.578 1.937-1.484 0-.703-.39-1.094-1.328-1.313l-.719-.172c-.61-.156-.875-.343-.875-.687 0-.438.39-.703 1-.703s.922.265.953.75Zm0 0" style="stroke:none"/></symbol><symbol id="Q" overflow="visible"><path d="M4.61-2.11c0-.718-.048-1.156-.188-1.5-.297-.78-1.016-1.234-1.906-1.234-1.313 0-2.157.985-2.157 2.547S1.172.203 2.5.203c1.078 0 1.828-.61 2.016-1.64h-.75c-.203.625-.641.953-1.235.953a1.31 1.31 0 0 1-1.14-.61c-.172-.281-.235-.547-.25-1.015Zm-3.454-.609c.063-.875.594-1.437 1.36-1.437.765 0 1.297.593 1.297 1.437Zm0 0" style="stroke:none"/></symbol><symbol id="R" overflow="visible"><path d="M.625-4.719V0h.75v-2.453c.016-1.125.484-1.64 1.516-1.61v-.765c-.125-.016-.203-.016-.297-.016-.485 0-.844.282-1.281.985v-.86Zm0 0" style="stroke:none"/></symbol><symbol id="S" overflow="visible"><path d="M1.375-6.562H.609V0h.766Zm0 0" style="stroke:none"/></symbol><symbol id="T" overflow="visible"><path d="M4.813-.437c-.079.015-.11.015-.157.015-.265 0-.406-.14-.406-.375v-2.765c0-.844-.61-1.282-1.781-1.282-.688 0-1.235.188-1.563.547-.219.234-.297.516-.328.969h.766c.062-.563.406-.828 1.11-.828.671 0 1.046.25 1.046.703v.187c-.016.329-.172.454-.781.532-1.063.14-1.219.172-1.516.28-.547.235-.828.657-.828 1.267 0 .859.594 1.39 1.547 1.39C2.516.203 3 0 3.532-.484c.046.484.28.687.765.687.172 0 .266-.016.516-.078ZM3.5-1.484c0 .25-.078.406-.297.609a1.59 1.59 0 0 1-1.11.422c-.593 0-.937-.281-.937-.75 0-.5.328-.75 1.14-.86.798-.109.954-.156 1.204-.265Zm0 0" style="stroke:none"/></symbol><symbol id="U" overflow="visible"><path d="M3.64-4.719v.688c-.374-.563-.796-.813-1.39-.813C1.11-4.844.313-3.78.313-2.28c0 .797.187 1.375.593 1.844.36.421.797.64 1.297.64.563 0 .969-.25 1.36-.844v.25c0 1.25-.344 1.72-1.282 1.72-.64 0-.969-.25-1.047-.782H.47c.078.86.765 1.422 1.797 1.422.687 0 1.265-.235 1.562-.61.36-.437.5-1.03.5-2.14V-4.72Zm-1.312.563c.781 0 1.235.672 1.235 1.86 0 1.14-.454 1.812-1.235 1.812s-1.234-.672-1.234-1.844c0-1.14.453-1.828 1.234-1.828m0 0" style="stroke:none"/></symbol><symbol id="V" overflow="visible"><path d="M3.484-4.719 2.188-1.047.984-4.719H.188L1.766.016l-.282.75c-.125.328-.28.453-.609.453-.125 0-.234-.016-.39-.047v.672c.156.078.312.125.5.125.25 0 .515-.094.703-.235.234-.171.375-.359.515-.75l2.094-5.703Zm0 0" style="stroke:none"/></symbol><symbol id="W" overflow="visible"><path d="M.625-4.719V0h.766v-2.969c0-.672.484-1.219 1.109-1.219.547 0 .86.329.86.938V0h.765v-2.969c0-.672.484-1.219 1.11-1.219.546 0 .874.344.874.938V0h.75v-3.531c0-.86-.484-1.313-1.375-1.313-.625 0-1 .188-1.437.719-.281-.516-.656-.719-1.281-.719s-1.047.235-1.438.797v-.672Zm0 0" style="stroke:none"/></symbol><symbol id="X" overflow="visible"><path d="M6.594.016 5.75-.687c.625-.688.922-1.516.922-2.563 0-2.047-1.266-3.422-3.156-3.422-1.907 0-3.172 1.375-3.172 3.438C.344-1.172 1.609.203 3.516.203c.656 0 1.187-.14 1.718-.453l.938.781Zm-2.266-1.86-.406.5.656.563c-.39.187-.687.25-1.078.25-1.39 0-2.328-1.078-2.328-2.703 0-1.61.937-2.703 2.344-2.703 1.39 0 2.328 1.093 2.328 2.703 0 .843-.235 1.5-.719 2.047Zm0 0" style="stroke:none"/></symbol></defs><path d="M0 0h405v218H0z" style="fill:#fff;fill-opacity:1;stroke:none"/><path d="M12.688 202.305h385.199V12.707h-385.2Zm0 0" style="stroke:none;fill-rule:nonzero;fill:#fff;fill-opacity:1"/><path d="M250 824.997h641.999M250 824.997v-6.419M314.2 824.997v-6.419M378.398 824.997v-6.419M442.598 824.997v-6.419M506.797 824.997v-6.419M571.003 824.997v-6.419M635.202 824.997v-6.419M699.401 824.997v-6.419M763.6 824.997v-6.419M827.8 824.997v-6.419M891.999 824.997v-6.419" style="fill:none;stroke-width:.833333;stroke-linecap:square;stroke-linejoin:round;stroke:#262626;stroke-opacity:1;stroke-miterlimit:10" transform="matrix(.6 0 0 .6 -137.313 -292.694)"/><g style="fill:#262626;fill-opacity:1"><use xlink:href="#a" x="5.487" y="216.506"/><use xlink:href="#b" x="11.048" y="216.506"/><use xlink:href="#c" x="13.828" y="216.506"/></g><g style="fill:#262626;fill-opacity:1"><use xlink:href="#a" x="44.008" y="216.506"/><use xlink:href="#b" x="49.568" y="216.506"/><use xlink:href="#d" x="52.348" y="216.506"/></g><g style="fill:#262626;fill-opacity:1"><use xlink:href="#a" x="82.527" y="216.506"/><use xlink:href="#b" x="88.088" y="216.506"/><use xlink:href="#e" x="90.868" y="216.506"/></g><g style="fill:#262626;fill-opacity:1"><use xlink:href="#a" x="121.048" y="216.506"/><use xlink:href="#b" x="126.608" y="216.506"/><use xlink:href="#f" x="129.388" y="216.506"/></g><g style="fill:#262626;fill-opacity:1"><use xlink:href="#a" x="159.568" y="216.506"/><use xlink:href="#b" x="165.128" y="216.506"/><use xlink:href="#g" x="167.908" y="216.506"/></g><g style="fill:#262626;fill-opacity:1"><use xlink:href="#a" x="198.088" y="216.506"/><use xlink:href="#b" x="203.648" y="216.506"/><use xlink:href="#h" x="206.428" y="216.506"/></g><g style="fill:#262626;fill-opacity:1"><use xlink:href="#a" x="236.608" y="216.506"/><use xlink:href="#b" x="242.168" y="216.506"/><use xlink:href="#i" x="244.948" y="216.506"/></g><g style="fill:#262626;fill-opacity:1"><use xlink:href="#a" x="275.127" y="216.506"/><use xlink:href="#b" x="280.688" y="216.506"/><use xlink:href="#j" x="283.468" y="216.506"/></g><use xlink:href="#k" x="317.847" y="216.506" style="fill:#262626;fill-opacity:1"/><g style="fill:#262626;fill-opacity:1"><use xlink:href="#k" x="352.167" y="216.506"/><use xlink:href="#b" x="357.728" y="216.506"/><use xlink:href="#k" x="360.508" y="216.506"/></g><g style="fill:#262626;fill-opacity:1"><use xlink:href="#k" x="390.688" y="216.506"/><use xlink:href="#b" x="396.248" y="216.506"/><use xlink:href="#c" x="399.028" y="216.506"/></g><path d="M250 824.997V509.001M250 824.997h6.42M250 772.335h6.42M250 719.665h6.42M250 667.003h6.42M250 614.333h6.42M250 561.664h6.42M250 509.001h6.42" style="fill:none;stroke-width:.833333;stroke-linecap:square;stroke-linejoin:round;stroke:#262626;stroke-opacity:1;stroke-miterlimit:10" transform="matrix(.6 0 0 .6 -137.313 -292.694)"/><g style="fill:#262626;fill-opacity:1"><use xlink:href="#l" x="-.313" y="206.206"/><use xlink:href="#c" x="3.018" y="206.206"/></g><g style="fill:#262626;fill-opacity:1"><use xlink:href="#l" x="-.313" y="174.606"/><use xlink:href="#k" x="3.018" y="174.606"/></g><use xlink:href="#a" x="2.687" y="143.006" style="fill:#262626;fill-opacity:1"/><use xlink:href="#k" x="2.687" y="111.406" style="fill:#262626;fill-opacity:1"/><use xlink:href="#c" x="2.687" y="79.806" style="fill:#262626;fill-opacity:1"/><use xlink:href="#d" x="2.687" y="48.206" style="fill:#262626;fill-opacity:1"/><use xlink:href="#e" x="2.687" y="16.606" style="fill:#262626;fill-opacity:1"/><g style="fill:#000;fill-opacity:1"><use xlink:href="#m" x="111.688" y="7.906"/><use xlink:href="#n" x="114.745" y="7.906"/><use xlink:href="#o" x="121.466" y="7.906"/><use xlink:href="#p" x="124.524" y="7.906"/><use xlink:href="#q" x="131.245" y="7.906"/><use xlink:href="#m" x="134.303" y="7.906"/><use xlink:href="#r" x="137.361" y="7.906"/></g><g style="fill:#000;fill-opacity:1"><use xlink:href="#s" x="143.488" y="7.906"/><use xlink:href="#t" x="146.545" y="7.906"/><use xlink:href="#u" x="154.487" y="7.906"/><use xlink:href="#v" x="160.603" y="7.906"/><use xlink:href="#w" x="166.103" y="7.906"/><use xlink:href="#x" x="168.545" y="7.906"/><use xlink:href="#x" x="170.987" y="7.906"/><use xlink:href="#u" x="173.429" y="7.906"/><use xlink:href="#s" x="179.545" y="7.906"/><use xlink:href="#w" x="182.603" y="7.906"/><use xlink:href="#y" x="185.045" y="7.906"/><use xlink:href="#z" x="191.161" y="7.906"/><use xlink:href="#u" x="194.219" y="7.906"/><use xlink:href="#A" x="200.334" y="7.906"/><use xlink:href="#B" x="203.997" y="7.906"/><use xlink:href="#C" x="210.113" y="7.906"/><use xlink:href="#x" x="216.229" y="7.906"/><use xlink:href="#D" x="218.671" y="7.906"/><use xlink:href="#z" x="224.787" y="7.906"/><use xlink:href="#w" x="227.845" y="7.906"/><use xlink:href="#y" x="230.287" y="7.906"/><use xlink:href="#E" x="236.403" y="7.906"/><use xlink:href="#s" x="242.519" y="7.906"/><use xlink:href="#B" x="245.577" y="7.906"/><use xlink:href="#C" x="251.693" y="7.906"/><use xlink:href="#x" x="257.808" y="7.906"/><use xlink:href="#F" x="260.25" y="7.906"/><use xlink:href="#y" x="265.75" y="7.906"/><use xlink:href="#C" x="271.866" y="7.906"/><use xlink:href="#G" x="277.982" y="7.906"/><use xlink:href="#w" x="287.145" y="7.906"/><use xlink:href="#D" x="289.587" y="7.906"/><use xlink:href="#x" x="295.703" y="7.906"/></g><path d="M-.002-5.003v10m-5-5h10m-8.535-3.535 7.07 7.07m-7.07 0 7.07-7.07" style="fill:none;stroke-width:.833333;stroke-linecap:butt;stroke-linejoin:miter;stroke:#000;stroke-opacity:1;stroke-miterlimit:10" transform="matrix(.6 0 0 .6 89.727 126.127)"/><path d="M0-5.001v10m-5-5H5m-8.535-3.535 7.07 7.07m-7.07 0 7.07-7.07" style="fill:none;stroke-width:.833333;stroke-linecap:butt;stroke-linejoin:miter;stroke:#000;stroke-opacity:1;stroke-miterlimit:10" transform="matrix(.6 0 0 .6 147.508 120.837)"/><path d="M0-4.998v10m-5-5H5m-8.535-3.536 7.07 7.07m-7.07 0 7.07-7.07" style="fill:none;stroke-width:.833333;stroke-linecap:butt;stroke-linejoin:miter;stroke:#000;stroke-opacity:1;stroke-miterlimit:10" transform="matrix(.6 0 0 .6 186.027 117.089)"/><path d="M.002-4.997v10m-5-5h10M-3.533-3.54l7.07 7.077m-7.07 0 7.07-7.077" style="fill:none;stroke-width:.833333;stroke-linecap:butt;stroke-linejoin:miter;stroke:#000;stroke-opacity:1;stroke-miterlimit:10" transform="matrix(.6 0 0 .6 243.808 110.666)"/><path d="M-.003-4.997v10m-5-5h10m-8.535-3.536 7.07 7.07m-7.07 0 7.07-7.07" style="fill:none;stroke-width:.833333;stroke-linecap:butt;stroke-linejoin:miter;stroke:#000;stroke-opacity:1;stroke-miterlimit:10" transform="matrix(.6 0 0 .6 301.587 107.506)"/><path d="M.003-5.002v10m-5-5h10m-8.541-3.535 7.076 7.07m-7.076 0 7.076-7.07" style="fill:none;stroke-width:.833333;stroke-linecap:butt;stroke-linejoin:miter;stroke:#000;stroke-opacity:1;stroke-miterlimit:10" transform="matrix(.6 0 0 .6 340.107 99.486)"/><path d="m250 816.43.645-1.426.638-1.42.644-1.4.645-1.386.644-1.38.638-1.36.645-1.355.644-1.334.638-1.329.645-1.315.644-1.302 1.283-2.565.644-1.263.645-1.25.638-1.243.644-1.23.645-1.212.638-1.21.645-1.192.644-1.179.645-1.171.638-1.16.644-1.152.645-1.132.638-1.127.644-1.113.645-1.107.644-1.094.638-1.08.645-1.074.644-1.055.638-1.055 1.29-2.07.644-1.016.638-1.009.645-.996.644-.99.638-.976.645-.97.644-.957.645-.95.638-.938.644-.931.645-.918.638-.912.644-.905.645-.885.638-.885.644-.873.645-.866.644-.853.639-.846 1.289-1.667.638-.813.644-.814.645-.801.644-.794.638-.782.645-.78.644-.769.638-.755.645-.755.644-.743.645-.735.638-.723.644-.723.645-.71.638-.702.645-.697 1.289-1.367.638-.67.644-.665.645-.657.638-.651.644-.645 1.29-1.263.637-.618 1.29-1.224.637-.6.645-.592.644-.586.638-.58.645-.572.645-.566.644-.56.638-.554 1.29-1.08.637-.534.645-.528.644-.52.645-.515.638-.508 1.289-1.002.638-.489 1.289-.963.644-.469.638-.469.645-.462.645-.456.638-.449 1.289-.885.644-.43.638-.43.645-.423.644-.416.638-.41.645-.41.644-.398.638-.397 1.29-.781.644-.378.638-.377.644-.372.645-.364.638-.365.645-.358 1.289-.703.638-.338 1.289-.678.638-.325 1.289-.651.644-.313.638-.319 1.29-.612.637-.299 1.29-.586.644-.286.638-.287 1.29-.56.637-.273 1.29-.534.637-.26 1.934-.762.638-.248 1.289-.481.638-.241.644-.228.645-.235.645-.227.638-.222.644-.221.645-.215.638-.215 1.933-.625.638-.202 1.29-.39.637-.196 1.934-.566.638-.176.644-.182.645-.176.638-.176 1.29-.338.637-.17 1.29-.325.644-.156.638-.156.644-.157.645-.15.638-.15.644-.142.645-.15.644-.143.638-.137 1.29-.273.637-.137 1.934-.39.638-.125 1.29-.247.637-.124 1.29-.234.644-.11.638-.118 1.289-.221.638-.104.644-.111 1.29-.208.638-.098.644-.098.645-.104.638-.091 1.289-.195.638-.091 1.289-.183.644-.084.638-.085.645-.091.644-.085.638-.078.645-.085.644-.078.645-.084.638-.078.645-.072.644-.078.638-.078 1.934-.215.638-.072.644-.071.645-.066.638-.071 1.933-.195.638-.066.645-.065.644-.058.638-.065 1.29-.118.638-.058 1.933-.176.638-.059.645-.052.644-.058.638-.052.645-.052.644-.059.645-.052.638-.052.644-.052.645-.046.638-.052 1.289-.104.645-.046.638-.045.644-.052.645-.046.638-.045.644-.052 1.29-.092.637-.045 1.29-.091.637-.046.645-.039.644-.046.638-.045.645-.046.644-.039.645-.045.638-.046.645-.039.644-.046.638-.039.645-.045 1.289-.078.638-.046.644-.039.645-.046.638-.039.644-.039.645-.045.644-.04.638-.038.645-.04.644-.045.639-.039 1.289-.078.644-.046.638-.039.645-.039.644-.045.638-.04 1.29-.078.637-.045 1.29-.078.644-.046.638-.039.644-.039.645-.046.638-.039.645-.039.644-.045.645-.04.638-.045 1.289-.078.638-.046.644-.045.645-.04.644-.045.638-.039 1.29-.091.637-.04 1.934-.136.638-.039 1.29-.091.637-.046 1.934-.136.638-.046 1.289-.091.638-.052 1.289-.091.638-.046.644-.052.645-.045.644-.053.638-.045.645-.052.645-.046.638-.052.644-.045 1.29-.105.637-.052.645-.045.644-.052.638-.052 1.934-.157.638-.052.644-.058.645-.052.638-.053.644-.052.645-.058.645-.052.638-.059.644-.052.645-.059.638-.052 1.289-.117.638-.052 1.933-.176.638-.058 1.29-.117.637-.06 1.29-.116.644-.065.638-.059.645-.059.644-.065.638-.058.645-.059 1.289-.13.638-.059 1.289-.13.638-.058 1.933-.196.638-.065 1.29-.13.638-.065 1.289-.13.638-.072 1.289-.13.644-.072.638-.065.645-.072.644-.065.638-.071.645-.065.644-.072.645-.065.638-.072 1.289-.143.638-.065 1.934-.215.638-.071 1.289-.144.638-.071 1.289-.144.644-.078.638-.071 1.29-.144.637-.078 1.29-.143.638-.078.644-.072.645-.078.644-.071.638-.078.645-.072.644-.078.638-.072 1.29-.156.644-.072.638-.078 1.289-.156.638-.072 1.933-.234.639-.078.644-.078.645-.072.638-.078 1.933-.234.638-.079 1.29-.156.637-.078 1.29-.156.637-.078 1.934-.235.638-.078 1.29-.156.637-.085 1.934-.234.638-.078 1.289-.156.638-.079 1.289-.156.644-.084.638-.079 1.29-.156.637-.078 1.934-.234.638-.078 1.29-.157.637-.078 1.934-.234.638-.078 1.289-.157.638-.078 1.289-.156.638-.078.644-.078.645-.072.645-.078.638-.078 1.289-.156.638-.072 1.289-.156.644-.072.638-.078.645-.078.644-.072.638-.078.645-.071.644-.079.645-.071.638-.078 1.289-.144.638-.078 1.29-.143.644-.078.638-.072 1.289-.143.638-.071 1.289-.144.638-.071 1.933-.215.638-.072.645-.071.644-.065.639-.072.644-.072.645-.065.644-.071.638-.066.645-.071.644-.065.638-.072 1.29-.13.644-.072.638-.065 1.289-.13.638-.065 1.934-.195.638-.066.644-.065.645-.058.638-.065.644-.065.645-.059.638-.065.644-.059.645-.065.644-.058.638-.059.645-.059.644-.065.638-.058 1.934-.176.638-.059.645-.058.644-.052.638-.059.645-.059.644-.052.645-.058.638-.052.644-.059.645-.052.638-.059 1.933-.156.638-.052 1.29-.104.637-.052 1.29-.104.638-.046 1.289-.104.644-.046.638-.052 1.29-.09.637-.053 1.934-.137.638-.045 1.289-.091.638-.046 1.289-.091.645-.04.638-.045.644-.039.645-.045.638-.04.644-.045 1.29-.078.637-.046 1.29-.078.637-.039 1.934-.117.638-.04.645-.032.644-.039.638-.039.645-.032.644-.04.638-.032.645-.039.644-.033.645-.039.638-.032 1.289-.065.638-.04 1.933-.097.638-.033 1.29-.065.638-.032.644-.026 1.29-.065.637-.033.645-.026.644-.033.638-.032.645-.026.644-.033.645-.026.638-.032 1.289-.052.638-.033 1.289-.052.638-.033 1.934-.078.638-.032 1.289-.052.638-.026 1.933-.078.638-.027.645-.032.644-.026.638-.026 1.934-.078.638-.026 1.29-.052.637-.026 1.934-.079.638-.026.644-.026.645-.032.638-.026 1.289-.052.638-.026.644-.026.645-.033.644-.026.639-.026.644-.026.645-.033.638-.026.644-.032.645-.026.644-.033.638-.026.645-.032.644-.026.638-.033 1.29-.065.644-.026.638-.033 1.289-.065.638-.032.645-.04 1.289-.065.638-.032.644-.04.645-.032.638-.039 1.289-.078.638-.032.644-.04.645-.045.644-.04.638-.038.645-.04.644-.045.638-.039 1.934-.137.638-.045.645-.046.644-.052.638-.045.645-.052.644-.046.645-.052.638-.052.644-.052.645-.059.638-.052 1.933-.176.638-.058 1.29-.118.638-.065 1.933-.195.638-.065 1.29-.143.637-.072 1.29-.143.637-.078 1.934-.235.638-.084.644-.085.645-.078.638-.091.645-.085 1.289-.182.638-.091.644-.098.645-.091.638-.104 1.289-.196.644-.104.638-.11.645-.105.644-.11.638-.11.645-.112 1.289-.234.638-.117 1.29-.248.637-.123 1.29-.26.637-.13 1.29-.274.644-.144.638-.136.644-.15.645-.143.638-.15.644-.156.645-.15.645-.156.638-.163 1.289-.325.638-.17.644-.176.645-.169.644-.176.638-.182 1.29-.364.637-.19 1.934-.585.638-.202.644-.202.645-.208.638-.209.645-.214.644-.222.638-.215 1.934-.683.638-.235 1.289-.481.638-.248.644-.247.645-.254.644-.26.638-.26.645-.261.644-.267.638-.274 1.29-.56.644-.286.638-.286.645-.293.644-.3.638-.3.645-.305 1.289-.625.638-.32 1.289-.65.638-.339.644-.332.645-.345.638-.345.644-.352.645-.358.645-.364.638-.365.644-.371.645-.378.638-.384.644-.384 1.29-.794.637-.404.645-.403.644-.417.638-.417 1.29-.86.644-.435.638-.436.645-.45.644-.455.638-.456 1.29-.938.644-.475.638-.482 1.289-.99.638-.5.644-.508.645-.515.638-.52.644-.528.645-.534.644-.54.638-.54 1.29-1.12.638-.567.644-.573.645-.579.644-.586.638-.599.645-.599.644-.612.638-.618.645-.619.644-.631.645-.638.638-.651.644-.651.645-.664.638-.665.644-.677 1.29-1.38.638-.703.644-.703.645-.716.638-.73.644-.729.645-.742.644-.748.638-.762.645-.768.644-.775.638-.781.645-.795.644-.8.638-.808.645-.82.644-.827.645-.84.638-.846.645-.853.644-.866.638-.872.645-.886.644-.892.645-.898.638-.911.644-.925.645-.93.638-.945.644-.95.645-.957.644-.97.638-.984 1.29-1.992.638-1.015.644-1.023.645-1.035.644-1.041.638-1.055.645-1.068.644-1.074.638-1.087.645-1.1.644-1.107.638-1.12.645-1.133.644-1.146.645-1.152.638-1.165.644-1.179.645-1.185.638-1.204.645-1.211.644-1.224.645-1.237.638-1.25.644-1.263.645-1.27.638-1.289.644-1.295.645-1.315.644-1.322.638-1.335.645-1.347.644-1.36.638-1.375.645-1.386.644-1.407.645-1.412.638-1.426.645-1.439.644-1.458.638-1.465.645-1.484.644-1.491.638-1.51.645-1.524" style="fill:none;stroke-width:.833333;stroke-linecap:butt;stroke-linejoin:round;stroke:#000;stroke-opacity:1;stroke-miterlimit:10" transform="matrix(.6 0 0 .6 -137.313 -292.694)"/><path d="M165.227 116.582a2.749 2.749 0 1 1 0 5.5 2.749 2.749 0 1 1 0-5.5m0-.5a3.25 3.25 0 1 0 0 6.5 3.25 3.25 0 0 0 0-6.5M316.996 103.043a2.749 2.749 0 1 1 0 5.5 2.749 2.749 0 1 1 0-5.5m0-.5a3.25 3.25 0 1 0 0 6.5 3.25 3.25 0 0 0 0-6.5m0 0" style="stroke:none;fill-rule:nonzero;fill:#000;fill-opacity:1"/><path d="M157.29 60.707v-40.2H23.487v40.2Zm0 0" style="stroke:none;fill-rule:nonzero;fill:#fff;fill-opacity:1"/><g style="fill:#000;fill-opacity:1"><use xlink:href="#H" x="58.777" y="31.691"/><use xlink:href="#I" x="61.279" y="31.691"/><use xlink:href="#J" x="66.283" y="31.691"/><use xlink:href="#K" x="71.287" y="31.691"/><use xlink:href="#L" x="76.291" y="31.691"/><use xlink:href="#M" x="78.793" y="31.691"/><use xlink:href="#J" x="81.295" y="31.691"/><use xlink:href="#N" x="86.299" y="31.691"/><use xlink:href="#O" x="91.303" y="31.691"/><use xlink:href="#I" x="93.301" y="31.691"/><use xlink:href="#L" x="98.305" y="31.691"/><use xlink:href="#P" x="100.807" y="31.691"/></g><path d="M0-5.002v10m-5-5H5m-8.535-3.535 7.07 7.07m-7.07 0 7.07-7.07" style="fill:none;stroke-width:.833333;stroke-linecap:butt;stroke-linejoin:miter;stroke:#000;stroke-opacity:1;stroke-miterlimit:10" transform="matrix(.6 0 0 .6 41.508 28.091)"/><g style="fill:#000;fill-opacity:1"><use xlink:href="#H" x="58.777" y="44.206"/><use xlink:href="#I" x="61.279" y="44.206"/><use xlink:href="#L" x="66.283" y="44.206"/><use xlink:href="#Q" x="68.785" y="44.206"/><use xlink:href="#R" x="73.789" y="44.206"/><use xlink:href="#J" x="76.786" y="44.206"/><use xlink:href="#N" x="81.79" y="44.206"/><use xlink:href="#S" x="86.794" y="44.206"/><use xlink:href="#T" x="88.792" y="44.206"/><use xlink:href="#L" x="93.796" y="44.206"/><use xlink:href="#O" x="96.298" y="44.206"/><use xlink:href="#I" x="98.296" y="44.206"/><use xlink:href="#U" x="103.3" y="44.206"/><use xlink:href="#M" x="108.304" y="44.206"/><use xlink:href="#J" x="110.806" y="44.206"/><use xlink:href="#N" x="115.81" y="44.206"/><use xlink:href="#S" x="120.814" y="44.206"/><use xlink:href="#V" x="122.812" y="44.206"/><use xlink:href="#I" x="127.312" y="44.206"/><use xlink:href="#N" x="132.316" y="44.206"/><use xlink:href="#W" x="137.32" y="44.206"/><use xlink:href="#O" x="144.817" y="44.206"/><use xlink:href="#T" x="146.815" y="44.206"/><use xlink:href="#S" x="151.819" y="44.206"/></g><path d="M273.008 555.499h50.052" style="fill:none;stroke-width:.833333;stroke-linecap:butt;stroke-linejoin:round;stroke:#000;stroke-opacity:1;stroke-miterlimit:10" transform="matrix(.6 0 0 .6 -137.313 -292.694)"/><g style="fill:#000;fill-opacity:1"><use xlink:href="#X" x="58.777" y="56.721"/><use xlink:href="#K" x="65.779" y="56.721"/><use xlink:href="#Q" x="70.783" y="56.721"/><use xlink:href="#R" x="75.787" y="56.721"/><use xlink:href="#V" x="78.784" y="56.721"/><use xlink:href="#M" x="83.284" y="56.721"/><use xlink:href="#J" x="85.786" y="56.721"/><use xlink:href="#N" x="90.79" y="56.721"/><use xlink:href="#O" x="95.794" y="56.721"/><use xlink:href="#I" x="97.792" y="56.721"/><use xlink:href="#L" x="102.796" y="56.721"/><use xlink:href="#P" x="105.298" y="56.721"/></g><path d="M41.508 50.371a2.749 2.749 0 1 1 0 5.5 2.749 2.749 0 1 1 0-5.5m0-.5a3.25 3.25 0 1 0 0 6.5 3.25 3.25 0 0 0 0-6.5m0 0" style="stroke:none;fill-rule:nonzero;fill:#000;fill-opacity:1"/><path d="M268.001 589.001v-66.998h223.002V589Zm0 0" style="fill:none;stroke-width:.833333;stroke-linecap:butt;stroke-linejoin:miter;stroke:#262626;stroke-opacity:1;stroke-miterlimit:10" transform="matrix(.6 0 0 .6 -137.313 -292.694)"/></svg>