<svg xmlns="http://www.w3.org/2000/svg" xmlns:xlink="http://www.w3.org/1999/xlink" width="406pt" height="218pt" viewBox="0 0 406 218"><defs><symbol id="a" overflow="visible"><path d="M2.75-7.234c-.656 0-1.266.297-1.625.797C.656-5.797.438-4.844.438-3.5c0 2.438.796 3.734 2.312 3.734 1.5 0 2.313-1.296 2.313-3.671 0-1.407-.22-2.344-.688-3-.36-.5-.953-.797-1.625-.797m0 .78c.953 0 1.422.97 1.422 2.938C4.172-1.453 3.703-.5 2.734-.5c-.937 0-1.406-1-1.406-2.984 0-2 .469-2.97 1.422-2.97m0 0" style="stroke:none"/></symbol><symbol id="b" overflow="visible"><path d="M1.906-1.047H.875V0h1.031Zm0 0" style="stroke:none"/></symbol><symbol id="c" overflow="visible"><path d="M5.063-.875H1.328c.094-.594.406-.969 1.281-1.5l1-.562c.985-.547 1.5-1.297 1.5-2.188a2.1 2.1 0 0 0-.656-1.547c-.422-.375-.937-.562-1.61-.562-.905 0-1.577.328-1.968.937-.25.39-.36.844-.375 1.563h.875c.031-.485.094-.782.219-1.016.218-.437.687-.703 1.219-.703.796 0 1.39.578 1.39 1.36 0 .577-.328 1.077-.953 1.437l-.922.531C.844-2.265.422-1.594.344-.015h4.719Zm0 0" style="stroke:none"/></symbol><symbol id="d" overflow="visible"><path d="M2.203-3.328h.485c.968 0 1.468.453 1.468 1.312 0 .922-.547 1.47-1.453 1.47-.969 0-1.437-.5-1.5-1.548h-.89c.046.578.14.953.312 1.281C1-.125 1.688.234 2.656.234c1.469 0 2.407-.89 2.407-2.25 0-.921-.36-1.421-1.204-1.718q.985-.423.985-1.5c0-1.25-.797-2-2.157-2C1.267-7.234.5-6.437.47-4.906h.875c.015-.438.062-.688.172-.907.187-.406.64-.64 1.187-.64.781 0 1.25.469 1.25 1.25 0 .5-.187.812-.578.984-.234.094-.562.14-1.172.157Zm0 0" style="stroke:none"/></symbol><symbol id="e" overflow="visible"><path d="M3.266-1.75V0h.89v-1.75h1.047v-.797H4.156v-4.687H3.5L.281-2.687v.937Zm0-.797h-2.22l2.22-3.187Zm0 0" style="stroke:none"/></symbol><symbol id="f" overflow="visible"><path d="M4.766-7.094H1.094l-.532 3.86h.813c.422-.485.75-.657 1.313-.657.953 0 1.546.657 1.546 1.704 0 1.015-.593 1.64-1.546 1.64-.782 0-1.25-.39-1.454-1.187h-.89c.125.578.219.859.437 1.109.407.547 1.125.86 1.922.86 1.422 0 2.422-1.047 2.422-2.547 0-1.391-.922-2.36-2.281-2.36-.5 0-.906.125-1.313.438l.282-1.985h2.953Zm0 0" style="stroke:none"/></symbol><symbol id="g" overflow="visible"><path d="M4.984-5.344c-.171-1.187-.937-1.89-2.015-1.89a2.27 2.27 0 0 0-1.906 1.03c-.438.72-.625 1.595-.625 2.907 0 1.219.156 1.985.593 2.625.375.594 1 .906 1.782.906 1.343 0 2.312-1.015 2.312-2.421 0-1.329-.89-2.266-2.172-2.266-.687 0-1.25.25-1.625.781.016-1.781.578-2.781 1.578-2.781.625 0 1.047.406 1.188 1.11Zm-2.14 1.657c.86 0 1.39.609 1.39 1.562 0 .922-.609 1.578-1.421 1.578s-1.438-.687-1.438-1.61c0-.905.61-1.53 1.469-1.53m0 0" style="stroke:none"/></symbol><symbol id="h" overflow="visible"><path d="M5.203-7.094H.453v.875h3.844C2.594-3.812 1.907-2.329 1.375 0h.938c.39-2.266 1.28-4.219 2.89-6.344Zm0 0" style="stroke:none"/></symbol><symbol id="i" overflow="visible"><path d="M3.906-3.812c.75-.454.969-.813.969-1.485 0-1.14-.86-1.937-2.125-1.937-1.25 0-2.125.797-2.125 1.922 0 .687.219 1.046.953 1.5-.812.406-1.203 1-1.203 1.796 0 1.329.969 2.25 2.375 2.25s2.375-.921 2.375-2.25c0-.796-.39-1.39-1.219-1.796M2.75-6.453c.75 0 1.234.453 1.234 1.172 0 .687-.5 1.125-1.234 1.125-.75 0-1.234-.438-1.234-1.14C1.516-6 2-6.454 2.75-6.454m0 3.047c.875 0 1.484.578 1.484 1.422 0 .859-.593 1.437-1.5 1.437-.859 0-1.468-.594-1.468-1.437 0-.86.593-1.422 1.484-1.422m0 0" style="stroke:none"/></symbol><symbol id="j" overflow="visible"><path d="M.531-1.656C.703-.47 1.453.234 2.547.234a2.27 2.27 0 0 0 1.906-1.03c.438-.72.64-1.595.64-2.907 0-1.219-.187-1.985-.609-2.625-.39-.594-1-.906-1.78-.906-1.36 0-2.329 1.015-2.329 2.422 0 1.328.906 2.265 2.188 2.265.671 0 1.171-.25 1.624-.797C4.173-1.547 3.61-.547 2.595-.547c-.61 0-1.047-.406-1.188-1.11Zm2.157-4.797c.828 0 1.437.687 1.437 1.61 0 .89-.594 1.515-1.469 1.515-.844 0-1.375-.61-1.375-1.563 0-.906.594-1.562 1.407-1.562m0 0" style="stroke:none"/></symbol><symbol id="k" overflow="visible"><path d="M2.594-5.156V0h.875v-7.234H2.89c-.313 1.109-.516 1.265-1.875 1.437v.64Zm0 0" style="stroke:none"/></symbol><symbol id="l" overflow="visible"><path d="M2.844-3.125H.454v.719h2.39Zm0 0" style="stroke:none"/></symbol><symbol id="n" overflow="visible"><path d="M2.469-3.453h3.5v-1.375h-3.5v-1.813h3.984v-1.375H.813V0h1.656Zm0 0" style="stroke:none"/></symbol><symbol id="o" overflow="visible"><path d="M2.281-5.937H.734V0h1.547Zm0-2.079H.734v1.375h1.547Zm0 0" style="stroke:none"/></symbol><symbol id="p" overflow="visible"><path d="M4.406-5.937v.906c-.437-.688-.906-1-1.531-1-.531 0-1.11.25-1.516.687-.593.61-.906 1.469-.906 2.516C.453-1 1.422.25 2.843.25 3.47.25 3.86.047 4.407-.61v.813c0 .703-.515 1.203-1.234 1.203-.547 0-.89-.234-1.016-.687H.578c0 .453.172.781.578 1.11.469.39 1.125.562 1.953.562 1.72 0 2.75-.813 2.75-2.188v-6.14ZM3.156-4.75c.735 0 1.266.797 1.266 1.906 0 1.078-.516 1.813-1.281 1.813-.672 0-1.157-.735-1.157-1.813 0-1.125.485-1.906 1.172-1.906m0 0" style="stroke:none"/></symbol><symbol id="q" overflow="visible"><path d="M2.36-1.61H.702V0H2.36Zm0 0" style="stroke:none"/></symbol><symbol id="r" overflow="visible"><path d="M5.734-3h-.812v-4.797H3.109L.266-3.03v1.297H3.39V0h1.53v-1.734h.813ZM3.391-3H1.359l2.032-3.344Zm0 0" style="stroke:none"/></symbol><symbol id="t" overflow="visible"><path d="M7.11-8.016h-.97v6.547L1.954-8.016H.843V0h.954v-6.5L5.953 0H7.11Zm0 0" style="stroke:none"/></symbol><symbol id="u" overflow="visible"><path d="M5.64-2.578c0-.875-.062-1.406-.234-1.828-.375-.953-1.25-1.516-2.328-1.516-1.61 0-2.64 1.219-2.64 3.11 0 1.906 1 3.062 2.625 3.062 1.312 0 2.234-.75 2.453-2h-.922c-.25.766-.766 1.156-1.5 1.156a1.61 1.61 0 0 1-1.39-.75c-.22-.328-.298-.656-.313-1.234Zm-4.218-.75c.078-1.063.719-1.75 1.64-1.75.938 0 1.594.719 1.594 1.75Zm0 0" style="stroke:none"/></symbol><symbol id="v" overflow="visible"><path d="M6.094 0 7.78-5.766H6.75L5.61-1.28 4.483-5.766H3.36L2.25-1.28 1.078-5.766H.062L1.735 0h1.032L3.89-4.516 5.047 0Zm0 0" style="stroke:none"/></symbol><symbol id="w" overflow="visible"><path d="M2.797-5.766h-.953v-1.578H.937v1.578h-.78v.75h.78v4.36c0 .594.391.906 1.11.906.234 0 .437-.016.75-.078v-.766c-.14.031-.25.047-.438.047-.406 0-.515-.11-.515-.515v-3.954h.953Zm0 0" style="stroke:none"/></symbol><symbol id="x" overflow="visible"><path d="M2.984-5.922C1.36-5.922.391-4.782.391-2.844.39-.89 1.359.25 3 .25c1.625 0 2.61-1.156 2.61-3.047 0-2-.954-3.125-2.626-3.125M3-5.078c1.031 0 1.656.844 1.656 2.266 0 1.374-.64 2.218-1.656 2.218s-1.64-.843-1.64-2.25c0-1.39.624-2.234 1.64-2.234m0 0" style="stroke:none"/></symbol><symbol id="y" overflow="visible"><path d="M.766-5.766V0h.922v-3.172c0-1.187.625-1.953 1.562-1.953.734 0 1.188.438 1.188 1.125v4h.921v-4.36c0-.952-.718-1.562-1.828-1.562-.86 0-1.406.328-1.922 1.125v-.969Zm0 0" style="stroke:none"/></symbol><symbol id="z" overflow="visible"><path d="M1.656-5.766H.734V0h.922Zm0-2.25H.72v1.157h.937Zm0 0" style="stroke:none"/></symbol><symbol id="A" overflow="visible"><path d="M.766-5.766V0h.922v-2.984c0-1.391.578-2.016 1.843-1.985v-.922c-.156-.03-.25-.03-.36-.03-.593 0-1.03.343-1.562 1.202v-1.047Zm0 0" style="stroke:none"/></symbol><symbol id="B" overflow="visible"><path d="M.594 2.39h.922v-3C2-.015 2.546.25 3.28.25c1.5 0 2.469-1.203 2.469-3.031 0-1.938-.937-3.14-2.469-3.14-.781 0-1.406.343-1.844 1.03v-.875H.595Zm2.531-7.468c1.016 0 1.672.89 1.672 2.266C4.797-1.5 4.125-.61 3.125-.61c-.984 0-1.61-.875-1.61-2.235 0-1.344.626-2.234 1.61-2.234m0 0" style="stroke:none"/></symbol><symbol id="C" overflow="visible"><path d="M1.672-8.016H.75V0h.922Zm0 0" style="stroke:none"/></symbol><symbol id="D" overflow="visible"><path d="M5.89-.531c-.109.015-.156.015-.202.015-.313 0-.5-.171-.5-.453v-3.39c0-1.016-.75-1.563-2.157-1.563-.86 0-1.531.234-1.922.656-.265.297-.375.641-.39 1.204h.922c.078-.704.5-1.016 1.343-1.016.844 0 1.297.297 1.297.86v.234c-.015.39-.218.547-.953.64-1.297.172-1.5.203-1.86.36-.671.28-1 .78-1 1.53C.469-.405 1.189.25 2.36.25c.72 0 1.297-.25 1.954-.844.062.594.343.844.953.844.187 0 .312-.016.625-.094ZM4.282-1.812c0 .312-.093.5-.36.75-.374.343-.827.515-1.374.515-.703 0-1.125-.344-1.125-.922 0-.61.39-.922 1.39-1.062.97-.125 1.157-.172 1.47-.313Zm0 0" style="stroke:none"/></symbol><symbol id="E" overflow="visible"><path d="M4.438-5.766v.844c-.454-.703-.97-1-1.688-1-1.39 0-2.36 1.297-2.36 3.14 0 .97.22 1.673.72 2.25.437.516.984.782 1.578.782.687 0 1.187-.312 1.671-1.031v.297c0 1.547-.437 2.109-1.578 2.109C2 1.625 1.594 1.313 1.5.656H.578c.078 1.078.922 1.735 2.188 1.735.843 0 1.547-.266 1.922-.735.437-.531.609-1.25.609-2.61v-4.812Zm-1.594.688c.969 0 1.515.812 1.515 2.266 0 1.406-.562 2.218-1.515 2.218s-1.5-.828-1.5-2.25c0-1.406.547-2.234 1.5-2.234m0 0" style="stroke:none"/></symbol><symbol id="F" overflow="visible"><path d="M4.266-5.766 2.672-1.28 1.203-5.766H.22L2.172.016l-.36.922c-.156.406-.343.562-.734.562-.156 0-.281-.031-.484-.062v.812c.187.11.375.14.61.14.296 0 .624-.093.859-.265.296-.219.453-.453.624-.922l2.579-6.969Zm0 0" style="stroke:none"/></symbol><symbol id="G" overflow="visible"><path d="M.766-5.766V0h.922v-3.625c0-.828.609-1.5 1.359-1.5.687 0 1.062.422 1.062 1.156V0h.922v-3.625c0-.828.61-1.5 1.36-1.5.672 0 1.062.422 1.062 1.156V0h.922v-4.328c0-1.031-.594-1.594-1.672-1.594-.766 0-1.219.219-1.766.875-.343-.625-.796-.875-1.546-.875-.766 0-1.297.281-1.782.969v-.813Zm0 0" style="stroke:none"/></symbol><symbol id="H" overflow="visible"><path d="M1.75-6.562H.906V0h.844Zm0 0" style="stroke:none"/></symbol><symbol id="I" overflow="visible"><path d="M.625-4.719V0h.766v-2.594c0-.969.5-1.594 1.265-1.594.61 0 .985.36.985.922V0h.75v-3.562c0-.782-.594-1.282-1.5-1.282-.703 0-1.157.266-1.563.922v-.797Zm0 0" style="stroke:none"/></symbol><symbol id="J" overflow="visible"><path d="M.484 1.969h.75V-.5c.407.484.844.703 1.454.703 1.234 0 2.015-.984 2.015-2.484 0-1.578-.766-2.563-2.016-2.563-.64 0-1.156.282-1.515.844v-.719H.484Zm2.079-6.125c.828 0 1.359.734 1.359 1.86C3.922-1.22 3.375-.5 2.562-.5c-.812 0-1.328-.719-1.328-1.828 0-1.094.516-1.828 1.329-1.828m0 0" style="stroke:none"/></symbol><symbol id="K" overflow="visible"><path d="M4.344 0v-4.719h-.75v2.672c0 .969-.5 1.594-1.297 1.594-.594 0-.969-.36-.969-.922v-3.344h-.75v3.64c0 .782.594 1.282 1.516 1.282.687 0 1.125-.234 1.562-.86V0Zm0 0" style="stroke:none"/></symbol><symbol id="L" overflow="visible"><path d="M2.281-4.719h-.765v-1.297h-.75v1.297H.125v.61h.64v3.562c0 .5.329.75.907.75.203 0 .36-.016.61-.062v-.625c-.11.03-.204.03-.36.03-.313 0-.406-.093-.406-.421v-3.234h.765Zm0 0" style="stroke:none"/></symbol><symbol id="N" overflow="visible"><path d="M2.453-4.844c-1.344 0-2.125.938-2.125 2.516C.328-.734 1.11.203 2.453.203c1.328 0 2.14-.937 2.14-2.484 0-1.64-.78-2.563-2.14-2.563m0 .688c.844 0 1.36.687 1.36 1.86 0 1.124-.532 1.812-1.36 1.812S1.11-1.172 1.11-2.328c0-1.14.516-1.828 1.344-1.828m0 0" style="stroke:none"/></symbol><symbol id="O" overflow="visible"><path d="M1.344-4.719H.609V0h.735Zm0-1.843h-.75v.953h.75Zm0 0" style="stroke:none"/></symbol><symbol id="P" overflow="visible"><path d="M3.938-3.406c0-.922-.61-1.438-1.704-1.438S.422-4.28.422-3.406c0 .734.375 1.078 1.5 1.36l.703.171c.516.125.719.313.719.64 0 .454-.438.75-1.094.75-.406 0-.75-.124-.937-.312-.11-.14-.172-.281-.22-.61h-.78C.343-.311.953.204 2.188.204c1.187 0 1.937-.578 1.937-1.484 0-.703-.39-1.094-1.328-1.313l-.719-.172c-.61-.156-.875-.343-.875-.687 0-.438.39-.703 1-.703s.922.265.953.75Zm0 0" style="stroke:none"/></symbol><symbol id="Q" overflow="visible"><path d="M4.61-2.11c0-.718-.048-1.156-.188-1.5-.297-.78-1.016-1.234-1.906-1.234-1.313 0-2.157.985-2.157 2.547S1.172.203 2.5.203c1.078 0 1.828-.61 2.016-1.64h-.75c-.203.625-.641.953-1.235.953a1.31 1.31 0 0 1-1.14-.61c-.172-.281-.235-.547-.25-1.015Zm-3.454-.609c.063-.875.594-1.437 1.36-1.437.765 0 1.297.593 1.297 1.437Zm0 0" style="stroke:none"/></symbol><symbol id="R" overflow="visible"><path d="M.625-4.719V0h.75v-2.453c.016-1.125.484-1.64 1.516-1.61v-.765c-.125-.016-.203-.016-.297-.016-.485 0-.844.282-1.281.985v-.86Zm0 0" style="stroke:none"/></symbol><symbol id="S" overflow="visible"><path d="M1.375-6.562H.609V0h.766Zm0 0" style="stroke:none"/></symbol><symbol id="T" overflow="visible"><path d="M4.813-.437c-.079.015-.11.015-.157.015-.265 0-.406-.14-.406-.375v-2.765c0-.844-.61-1.282-1.781-1.282-.688 0-1.235.188-1.563.547-.219.234-.297.516-.328.969h.766c.062-.563.406-.828 1.11-.828.671 0 1.046.25 1.046.703v.187c-.016.329-.172.454-.781.532-1.063.14-1.219.172-1.516.28-.547.235-.828.657-.828 1.267 0 .859.594 1.39 1.547 1.39C2.516.203 3 0 3.532-.484c.046.484.28.687.765.687.172 0 .266-.016.516-.078ZM3.5-1.484c0 .25-.078.406-.297.609a1.59 1.59 0 0 1-1.11.422c-.593 0-.937-.281-.937-.75 0-.5.328-.75 1.14-.86.798-.109.954-.156 1.204-.265Zm0 0" style="stroke:none"/></symbol><symbol id="U" overflow="visible"><path d="M3.64-4.719v.688c-.374-.563-.796-.813-1.39-.813C1.11-4.844.313-3.78.313-2.28c0 .797.187 1.375.593 1.844.36.421.797.64 1.297.64.563 0 .969-.25 1.36-.844v.25c0 1.25-.344 1.72-1.282 1.72-.64 0-.969-.25-1.047-.782H.47c.078.86.765 1.422 1.797 1.422.687 0 1.265-.235 1.562-.61.36-.437.5-1.03.5-2.14V-4.72Zm-1.312.563c.781 0 1.235.672 1.235 1.86 0 1.14-.454 1.812-1.235 1.812s-1.234-.672-1.234-1.844c0-1.14.453-1.828 1.234-1.828m0 0" style="stroke:none"/></symbol><symbol id="V" overflow="visible"><path d="M3.484-4.719 2.188-1.047.984-4.719H.188L1.766.016l-.282.75c-.125.328-.28.453-.609.453-.125 0-.234-.016-.39-.047v.672c.156.078.312.125.5.125.25 0 .515-.094.703-.235.234-.171.375-.359.515-.75l2.094-5.703Zm0 0" style="stroke:none"/></symbol><symbol id="W" overflow="visible"><path d="M.625-4.719V0h.766v-2.969c0-.672.484-1.219 1.109-1.219.547 0 .86.329.86.938V0h.765v-2.969c0-.672.484-1.219 1.11-1.219.546 0 .874.344.874.938V0h.75v-3.531c0-.86-.484-1.313-1.375-1.313-.625 0-1 .188-1.437.719-.281-.516-.656-.719-1.281-.719s-1.047.235-1.438.797v-.672Zm0 0" style="stroke:none"/></symbol><symbol id="X" overflow="visible"><path d="M6.594.016 5.75-.687c.625-.688.922-1.516.922-2.563 0-2.047-1.266-3.422-3.156-3.422-1.907 0-3.172 1.375-3.172 3.438C.344-1.172 1.609.203 3.516.203c.656 0 1.187-.14 1.718-.453l.938.781Zm-2.266-1.86-.406.5.656.563c-.39.187-.687.25-1.078.25-1.39 0-2.328-1.078-2.328-2.703 0-1.61.937-2.703 2.344-2.703 1.39 0 2.328 1.093 2.328 2.703 0 .843-.235 1.5-.719 2.047Zm0 0" style="stroke:none"/></symbol></defs><path d="M0 0h406v218H0z" style="fill:#fff;fill-opacity:1;stroke:none"/><path d="M12.688 202.305h385.8V12.707h-385.8Zm0 0" style="stroke:none;fill-rule:nonzero;fill:#fff;fill-opacity:1"/><path d="M1095 824.997h643.001M1095 824.997v-6.425M1159.297 824.997v-6.425M1223.6 824.997v-6.425M1287.897 824.997v-6.425M1352.2 824.997v-6.425M1416.497 824.997v-6.425M1480.8 824.997v-6.425M1545.098 824.997v-6.425M1609.401 824.997v-6.425M1673.698 824.997v-6.425M1738.001 824.997v-6.425" style="fill:none;stroke-width:.833333;stroke-linecap:square;stroke-linejoin:round;stroke:#262626;stroke-opacity:1;stroke-miterlimit:10" transform="matrix(.6 0 0 .6 -644.313 -292.694)"/><g style="fill:#262626;fill-opacity:1"><use xlink:href="#a" x="5.487" y="216.506"/><use xlink:href="#b" x="11.048" y="216.506"/><use xlink:href="#c" x="13.828" y="216.506"/></g><g style="fill:#262626;fill-opacity:1"><use xlink:href="#a" x="44.067" y="216.506"/><use xlink:href="#b" x="49.628" y="216.506"/><use xlink:href="#d" x="52.408" y="216.506"/></g><g style="fill:#262626;fill-opacity:1"><use xlink:href="#a" x="82.647" y="216.506"/><use xlink:href="#b" x="88.208" y="216.506"/><use xlink:href="#e" x="90.988" y="216.506"/></g><g style="fill:#262626;fill-opacity:1"><use xlink:href="#a" x="121.227" y="216.506"/><use xlink:href="#b" x="126.788" y="216.506"/><use xlink:href="#f" x="129.568" y="216.506"/></g><g style="fill:#262626;fill-opacity:1"><use xlink:href="#a" x="159.807" y="216.506"/><use xlink:href="#b" x="165.368" y="216.506"/><use xlink:href="#g" x="168.148" y="216.506"/></g><g style="fill:#262626;fill-opacity:1"><use xlink:href="#a" x="198.387" y="216.506"/><use xlink:href="#b" x="203.948" y="216.506"/><use xlink:href="#h" x="206.728" y="216.506"/></g><g style="fill:#262626;fill-opacity:1"><use xlink:href="#a" x="236.967" y="216.506"/><use xlink:href="#b" x="242.528" y="216.506"/><use xlink:href="#i" x="245.308" y="216.506"/></g><g style="fill:#262626;fill-opacity:1"><use xlink:href="#a" x="275.547" y="216.506"/><use xlink:href="#b" x="281.108" y="216.506"/><use xlink:href="#j" x="283.888" y="216.506"/></g><use xlink:href="#k" x="318.327" y="216.506" style="fill:#262626;fill-opacity:1"/><g style="fill:#262626;fill-opacity:1"><use xlink:href="#k" x="352.707" y="216.506"/><use xlink:href="#b" x="358.268" y="216.506"/><use xlink:href="#k" x="361.048" y="216.506"/></g><g style="fill:#262626;fill-opacity:1"><use xlink:href="#k" x="391.287" y="216.506"/><use xlink:href="#b" x="396.848" y="216.506"/><use xlink:href="#c" x="399.628" y="216.506"/></g><path d="M1095 824.997V509.001M1095 824.997h6.432M1095 772.335h6.432M1095 719.665h6.432M1095 667.003h6.432M1095 614.333h6.432M1095 561.664h6.432M1095 509.001h6.432" style="fill:none;stroke-width:.833333;stroke-linecap:square;stroke-linejoin:round;stroke:#262626;stroke-opacity:1;stroke-miterlimit:10" transform="matrix(.6 0 0 .6 -644.313 -292.694)"/><g style="fill:#262626;fill-opacity:1"><use xlink:href="#l" x="-.313" y="206.206"/><use xlink:href="#c" x="3.018" y="206.206"/></g><g style="fill:#262626;fill-opacity:1"><use xlink:href="#l" x="-.313" y="174.606"/><use xlink:href="#k" x="3.018" y="174.606"/></g><use xlink:href="#a" x="2.687" y="143.006" style="fill:#262626;fill-opacity:1"/><use xlink:href="#k" x="2.687" y="111.406" style="fill:#262626;fill-opacity:1"/><use xlink:href="#c" x="2.687" y="79.806" style="fill:#262626;fill-opacity:1"/><use xlink:href="#d" x="2.687" y="48.206" style="fill:#262626;fill-opacity:1"/><use xlink:href="#e" x="2.687" y="16.606" style="fill:#262626;fill-opacity:1"/><g style="fill:#000;fill-opacity:1"><use xlink:href="#m" x="110.487" y="7.906"/><use xlink:href="#n" x="113.545" y="7.906"/><use xlink:href="#o" x="120.266" y="7.906"/><use xlink:href="#p" x="123.324" y="7.906"/><use xlink:href="#q" x="130.045" y="7.906"/><use xlink:href="#m" x="133.103" y="7.906"/><use xlink:href="#r" x="136.161" y="7.906"/></g><g style="fill:#000;fill-opacity:1"><use xlink:href="#s" x="142.287" y="7.906"/><use xlink:href="#t" x="145.345" y="7.906"/><use xlink:href="#u" x="153.287" y="7.906"/><use xlink:href="#v" x="159.403" y="7.906"/><use xlink:href="#w" x="167.345" y="7.906"/><use xlink:href="#x" x="170.403" y="7.906"/><use xlink:href="#y" x="176.519" y="7.906"/><use xlink:href="#s" x="182.635" y="7.906"/><use xlink:href="#z" x="185.693" y="7.906"/><use xlink:href="#y" x="188.135" y="7.906"/><use xlink:href="#w" x="194.25" y="7.906"/><use xlink:href="#u" x="197.308" y="7.906"/><use xlink:href="#A" x="203.424" y="7.906"/><use xlink:href="#B" x="207.087" y="7.906"/><use xlink:href="#x" x="213.203" y="7.906"/><use xlink:href="#C" x="219.319" y="7.906"/><use xlink:href="#D" x="221.761" y="7.906"/><use xlink:href="#w" x="227.877" y="7.906"/><use xlink:href="#z" x="230.935" y="7.906"/><use xlink:href="#y" x="233.377" y="7.906"/><use xlink:href="#E" x="239.493" y="7.906"/><use xlink:href="#s" x="245.609" y="7.906"/><use xlink:href="#B" x="248.667" y="7.906"/><use xlink:href="#x" x="254.782" y="7.906"/><use xlink:href="#C" x="260.898" y="7.906"/><use xlink:href="#F" x="263.34" y="7.906"/><use xlink:href="#y" x="268.84" y="7.906"/><use xlink:href="#x" x="274.956" y="7.906"/><use xlink:href="#G" x="281.072" y="7.906"/><use xlink:href="#z" x="290.235" y="7.906"/><use xlink:href="#D" x="292.677" y="7.906"/><use xlink:href="#C" x="298.793" y="7.906"/></g><path d="M0-5.003v10m-5-5H5m-8.535-3.535 7.07 7.07m-7.07 0 7.07-7.07" style="fill:none;stroke-width:.833333;stroke-linecap:butt;stroke-linejoin:miter;stroke:#000;stroke-opacity:1;stroke-miterlimit:10" transform="matrix(.6 0 0 .6 89.847 126.127)"/><path d="M.002-5.001v10m-5-5h10m-8.535-3.535 7.07 7.07m-7.07 0 7.07-7.07" style="fill:none;stroke-width:.833333;stroke-linecap:butt;stroke-linejoin:miter;stroke:#000;stroke-opacity:1;stroke-miterlimit:10" transform="matrix(.6 0 0 .6 147.717 120.837)"/><path d="M0-4.998v10m-5-5H5m-8.536-3.536 7.07 7.07m-7.07 0 7.07-7.07" style="fill:none;stroke-width:.833333;stroke-linecap:butt;stroke-linejoin:miter;stroke:#000;stroke-opacity:1;stroke-miterlimit:10" transform="matrix(.6 0 0 .6 186.297 117.089)"/><path d="M0-4.997v10m-5-5H5M-3.533-3.54l7.07 7.077m-7.07 0 7.07-7.077" style="fill:none;stroke-width:.833333;stroke-linecap:butt;stroke-linejoin:miter;stroke:#000;stroke-opacity:1;stroke-miterlimit:10" transform="matrix(.6 0 0 .6 244.167 110.666)"/><path d="M.003-4.997v10m-5-5h10m-8.535-3.536 7.07 7.07m-7.07 0 7.07-7.07" style="fill:none;stroke-width:.833333;stroke-linecap:butt;stroke-linejoin:miter;stroke:#000;stroke-opacity:1;stroke-miterlimit:10" transform="matrix(.6 0 0 .6 302.037 107.506)"/><path d="M0-5.002v10m-5-5H5m-8.536-3.535 7.07 7.07m-7.07 0 7.07-7.07" style="fill:none;stroke-width:.833333;stroke-linecap:butt;stroke-linejoin:miter;stroke:#000;stroke-opacity:1;stroke-miterlimit:10" transform="matrix(.6 0 0 .6 340.617 99.486)"/><path d="m1095 816.43.645-1.426.644-1.42.645-1.4.638-1.386.644-1.38.645-1.36.644-1.355.645-1.334.644-1.329.645-1.315.638-1.302.644-1.289.645-1.276.645-1.263.644-1.25.645-1.243.644-1.23.645-1.212.638-1.21.644-1.192.645-1.179.644-1.171.645-1.16.644-1.152.645-1.132.638-1.127.644-1.113.645-1.107.644-1.094.645-1.08.645-1.074.644-1.055.638-1.055 1.29-2.07.644-1.016.644-1.009.645-.996.644-.99.645-.976.638-.97.644-.957.645-.95.644-.938.645-.931.644-.918.645-.912.638-.905 1.29-1.77.644-.873.644-.866.645-.853.644-.846.638-.833.645-.834 1.289-1.627.644-.801.645-.794 1.289-1.563.638-.768 1.289-1.51.645-.743.644-.735 1.29-1.446.637-.71.645-.702.644-.697 1.29-1.367.644-.67.644-.665.638-.657.645-.651.644-.645 1.29-1.263.644-.618 1.29-1.224.637-.6.645-.592.644-.586.645-.58.644-.572.645-.566.644-.56.638-.554 1.29-1.08.644-.534.644-.528.645-.52.645-.515.638-.508 1.289-1.002.644-.489 1.29-.963 1.288-.938.638-.462.645-.456.644-.449 1.29-.885 1.288-.86.638-.423.645-.416 1.29-.82 1.288-.795.645-.39.638-.391 1.289-.755.644-.372 1.29-.729.644-.358.644-.351.638-.352 1.934-1.016 1.934-.976.638-.313.644-.319 1.29-.612.644-.299 1.289-.586.638-.286.644-.287 1.29-.56.644-.273 1.29-.534.644-.26.638-.254 1.289-.508.644-.248 1.934-.722.638-.228.644-.235.645-.227 1.289-.443 1.289-.43.638-.208 1.29-.417.644-.202 1.933-.586.645-.188.638-.19.644-.188.645-.176.644-.182 1.29-.352.644-.169.638-.17.644-.168 1.29-.326 1.933-.469.638-.15.645-.15.644-.142.645-.15.644-.143 1.934-.41.638-.137 1.934-.39 1.933-.372.638-.124 1.29-.234.644-.11.644-.118 1.29-.221.637-.104.645-.111 1.289-.208 1.289-.196.645-.104.644-.091.638-.098.645-.097 1.933-.274 1.29-.169.637-.091.645-.085.644-.078.645-.085.644-.078.645-.084.644-.078.638-.072 1.29-.156 3.222-.358.638-.066.645-.071 3.222-.326.638-.058.645-.065 3.223-.293.638-.059.644-.059.645-.052.644-.058 1.29-.104.644-.059.644-.052.638-.052.645-.052.644-.046 1.934-.156.645-.046.638-.045.644-.052 1.29-.091.644-.052 1.289-.092.638-.045 1.933-.137.645-.039 1.934-.137.638-.039 1.289-.09.644-.04.645-.046.644-.039.645-.045.638-.04.644-.038.645-.046.644-.039.645-.046 1.289-.078.638-.045 1.934-.117.644-.046 1.934-.117.638-.046 1.289-.078.644-.045 1.934-.118.638-.045 1.289-.078.644-.046 1.29-.078.644-.046.638-.039.645-.039.644-.045.645-.04.644-.045 1.29-.078.644-.046.638-.045.644-.04.645-.045.644-.039 1.29-.091.644-.04.638-.045 1.29-.09.644-.04 2.578-.182.638-.046 2.578-.182.644-.052.645-.046.638-.045.645-.046.644-.052.645-.045.644-.053.645-.045.644-.052.638-.046.645-.052.644-.045 1.934-.157.644-.045.645-.052.638-.052 2.578-.209.645-.058.644-.052.638-.053.645-.052.644-.058.645-.052.644-.059.645-.052.644-.059.638-.052 1.29-.117.644-.052 2.578-.234.638-.059 2.578-.234.645-.065.644-.059.638-.059.645-.065 1.289-.117 1.289-.13.645-.059.638-.065.644-.065.645-.058 3.222-.326.638-.065 1.934-.195.644-.072 1.29-.13.637-.072.645-.065.645-.072.644-.065.645-.071.644-.065.645-.072.638-.065 1.933-.215.645-.065 1.289-.143.638-.072 3.867-.43.645-.078.638-.071 1.289-.144.644-.078 1.29-.143.644-.078.638-.072.644-.078.645-.071.644-.078.645-.072.644-.078.645-.072.645-.078.638-.078.644-.072 1.934-.234.644-.072.645-.078.638-.078 1.933-.234.645-.072 1.289-.156.638-.078 4.512-.547.638-.078 3.867-.47.638-.084 3.867-.468.638-.079 1.29-.156.644-.084 2.578-.313.638-.078 3.867-.469.638-.078 3.867-.469.638-.078 1.934-.234.644-.072 1.934-.234.638-.078.645-.072 1.289-.156.644-.072 1.29-.156.637-.072.645-.078.644-.071.645-.079.644-.071.645-.078.644-.072.638-.072.645-.078 1.29-.143.644-.078 1.933-.215.638-.071 3.867-.43.638-.072.645-.071.644-.065 1.29-.144.644-.065.645-.071.638-.066.644-.071.645-.065.644-.072 1.29-.13.644-.072.644-.065.638-.065 3.868-.39.638-.066.644-.058 1.29-.13.644-.059.644-.065.645-.059.638-.065 1.933-.176.645-.065 1.933-.175.639-.06 1.289-.116.644-.052 1.29-.118.644-.052.638-.058.644-.052.645-.059.644-.052.645-.059 1.289-.104.638-.052 3.867-.312.645-.046.638-.052.644-.052.645-.046.644-.052 1.29-.09.644-.053.638-.046 3.867-.273.638-.046.645-.045.644-.04.645-.045.644-.039.645-.045.644-.04.645-.045.638-.04.644-.038.645-.046 2.578-.156.638-.039 1.29-.078.644-.033 1.289-.078.644-.032.638-.04.645-.032.644-.039.645-.033.644-.039 1.934-.097.638-.04 3.867-.195.638-.032.645-.026 1.933-.098.645-.026.644-.033.638-.032.645-.026.644-.033.645-.026.645-.032 1.289-.052.644-.033.638-.026.645-.026.644-.033 1.934-.078.644-.032.638-.026 3.868-.157.638-.032 4.511-.182.638-.026 3.867-.157.639-.032 3.222-.13.645-.033.638-.026 1.289-.052.644-.033.645-.026.644-.032.645-.026.644-.033.638-.026.645-.032.645-.026 1.933-.098.645-.026.638-.033 1.933-.097.645-.04 1.289-.065.638-.032.644-.04.645-.032 1.934-.117.644-.032.645-.04.638-.045 1.933-.117.645-.046.644-.039.645-.045.638-.046 1.933-.137.645-.052.644-.045.645-.052.638-.046 1.934-.156.644-.059.645-.052 1.289-.117.638-.059 1.933-.176 1.934-.195.638-.065.645-.065 3.222-.358.638-.078 1.934-.235 1.289-.169.644-.078.645-.091.638-.085 1.934-.273.644-.098.645-.091.644-.104.638-.098.645-.098.644-.104.645-.11.644-.105 1.29-.22.637-.112 1.934-.351 1.934-.371.644-.13.638-.13.645-.13 1.289-.274.644-.144.645-.136.644-.15.638-.143.645-.15.644-.156.645-.15.644-.156 1.29-.326.637-.162.645-.17.645-.176.644-.169.645-.176 1.933-.546.638-.19 1.934-.585 1.289-.404.644-.208.638-.209.645-.214.645-.222.644-.215 1.934-.683.638-.235 1.289-.481 1.289-.495.644-.254 1.29-.52.637-.261.645-.267.644-.274 1.29-.56 1.289-.572.638-.293 1.289-.6.644-.305 1.29-.625.644-.32.638-.325.644-.325.645-.339.644-.332 1.29-.69.644-.352.645-.358.638-.364.644-.365.645-.371.644-.378 1.29-.768.644-.397.638-.397 1.289-.807 1.289-.834 1.289-.86.638-.435.644-.436.645-.45 1.29-.911 1.288-.938.645-.475.638-.482 1.289-.99.644-.5.645-.508.644-.515.645-.52.638-.528.644-.534 1.29-1.08 1.289-1.12.644-.567.638-.573.645-.579.644-.586 1.29-1.198.644-.612 1.289-1.237.638-.631.644-.638 1.29-1.302 1.289-1.329.644-.677.638-.69.645-.69 1.289-1.406.644-.716 1.29-1.459.637-.742.645-.748.644-.762.645-.768.644-.775.645-.781.644-.795.645-.8.638-.808.645-.82.644-.827.645-.84.644-.846.645-.853.644-.866.638-.872.645-.886.644-.892.645-.898.644-.911.645-.925.644-.93.638-.945.645-.95.644-.957.645-.97.645-.984 1.289-1.992.644-1.015.638-1.023.645-1.035.644-1.041.645-1.055.644-1.068.645-1.074.644-1.087.638-1.1.645-1.107.644-1.12.645-1.133.645-1.146.644-1.152.645-1.165.638-1.179.644-1.185.645-1.204.644-1.211.645-1.224.644-1.237.645-1.25.644-1.263.638-1.27.645-1.289.644-1.295.645-1.315.644-1.322.645-1.335.645-1.347.638-1.36.644-1.375.645-1.386.644-1.407.645-1.412.644-1.426.645-1.439.638-1.458.644-1.465.645-1.484.644-1.491.645-1.51.644-1.524" style="fill:none;stroke-width:.833333;stroke-linecap:butt;stroke-linejoin:round;stroke:#000;stroke-opacity:1;stroke-miterlimit:10" transform="matrix(.6 0 0 .6 -644.313 -292.694)"/><path d="M165.465 116.582a2.749 2.749 0 1 1 0 5.5 2.749 2.749 0 1 1 0-5.5m0-.5a3.25 3.25 0 1 0 0 6.5 3.25 3.25 0 0 0 0-6.5M317.469 103.043a2.749 2.749 0 1 1 0 5.5 2.749 2.749 0 1 1 0-5.5m0-.5a3.25 3.25 0 1 0 0 6.5 3.25 3.25 0 0 0 0-6.5m0 0" style="stroke:none;fill-rule:nonzero;fill:#000;fill-opacity:1"/><path d="M160.29 60.105V19.906H26.487v40.2Zm0 0" style="stroke:none;fill-rule:nonzero;fill:#fff;fill-opacity:1"/><g style="fill:#000;fill-opacity:1"><use xlink:href="#H" x="61.777" y="31.091"/><use xlink:href="#I" x="64.279" y="31.091"/><use xlink:href="#J" x="69.283" y="31.091"/><use xlink:href="#K" x="74.287" y="31.091"/><use xlink:href="#L" x="79.291" y="31.091"/><use xlink:href="#M" x="81.793" y="31.091"/><use xlink:href="#J" x="84.295" y="31.091"/><use xlink:href="#N" x="89.299" y="31.091"/><use xlink:href="#O" x="94.303" y="31.091"/><use xlink:href="#I" x="96.301" y="31.091"/><use xlink:href="#L" x="101.305" y="31.091"/><use xlink:href="#P" x="103.807" y="31.091"/></g><path d="M0-4.998v10m-5-5H5m-8.535-3.535 7.07 7.07m-7.07 0 7.07-7.07" style="fill:none;stroke-width:.833333;stroke-linecap:butt;stroke-linejoin:miter;stroke:#000;stroke-opacity:1;stroke-miterlimit:10" transform="matrix(.6 0 0 .6 44.508 27.491)"/><g style="fill:#000;fill-opacity:1"><use xlink:href="#H" x="61.777" y="43.606"/><use xlink:href="#I" x="64.279" y="43.606"/><use xlink:href="#L" x="69.283" y="43.606"/><use xlink:href="#Q" x="71.785" y="43.606"/><use xlink:href="#R" x="76.789" y="43.606"/><use xlink:href="#J" x="79.786" y="43.606"/><use xlink:href="#N" x="84.79" y="43.606"/><use xlink:href="#S" x="89.794" y="43.606"/><use xlink:href="#T" x="91.792" y="43.606"/><use xlink:href="#L" x="96.796" y="43.606"/><use xlink:href="#O" x="99.298" y="43.606"/><use xlink:href="#I" x="101.296" y="43.606"/><use xlink:href="#U" x="106.3" y="43.606"/><use xlink:href="#M" x="111.304" y="43.606"/><use xlink:href="#J" x="113.806" y="43.606"/><use xlink:href="#N" x="118.81" y="43.606"/><use xlink:href="#S" x="123.814" y="43.606"/><use xlink:href="#V" x="125.812" y="43.606"/><use xlink:href="#I" x="130.312" y="43.606"/><use xlink:href="#N" x="135.316" y="43.606"/><use xlink:href="#W" x="140.32" y="43.606"/><use xlink:href="#O" x="147.817" y="43.606"/><use xlink:href="#T" x="149.815" y="43.606"/><use xlink:href="#S" x="154.819" y="43.606"/></g><path d="M1123.008 554.503h50.052" style="fill:none;stroke-width:.833333;stroke-linecap:butt;stroke-linejoin:round;stroke:#000;stroke-opacity:1;stroke-miterlimit:10" transform="matrix(.6 0 0 .6 -644.313 -292.694)"/><g style="fill:#000;fill-opacity:1"><use xlink:href="#X" x="61.777" y="56.121"/><use xlink:href="#K" x="68.779" y="56.121"/><use xlink:href="#Q" x="73.783" y="56.121"/><use xlink:href="#R" x="78.787" y="56.121"/><use xlink:href="#V" x="81.784" y="56.121"/><use xlink:href="#M" x="86.284" y="56.121"/><use xlink:href="#J" x="88.786" y="56.121"/><use xlink:href="#N" x="93.79" y="56.121"/><use xlink:href="#O" x="98.794" y="56.121"/><use xlink:href="#I" x="100.792" y="56.121"/><use xlink:href="#L" x="105.796" y="56.121"/><use xlink:href="#P" x="108.298" y="56.121"/></g><path d="M44.508 49.77a2.749 2.749 0 1 1-2.75 2.75c0-1.516 1.23-2.75 2.75-2.75m0-.5a3.25 3.25 0 1 0 0 6.5 3.25 3.25 0 0 0 0-6.5m0 0" style="stroke:none;fill-rule:nonzero;fill:#000;fill-opacity:1"/><path d="M1118.001 587.999V521h223.002v66.999Zm0 0" style="fill:none;stroke-width:.833333;stroke-linecap:butt;stroke-linejoin:miter;stroke:#262626;stroke-opacity:1;stroke-miterlimit:10" transform="matrix(.6 0 0 .6 -644.313 -292.694)"/></svg>