<svg xmlns="http://www.w3.org/2000/svg" xmlns:xlink="http://www.w3.org/1999/xlink" width="406pt" height="218pt" viewBox="0 0 406 218"><defs><symbol id="a" overflow="visible"><path d="M2.75-7.234c-.656 0-1.266.297-1.625.797C.656-5.797.438-4.844.438-3.5c0 2.438.796 3.734 2.312 3.734 1.5 0 2.313-1.296 2.313-3.671 0-1.407-.22-2.344-.688-3-.36-.5-.953-.797-1.625-.797m0 .78c.953 0 1.422.97 1.422 2.938C4.172-1.453 3.703-.5 2.734-.5c-.937 0-1.406-1-1.406-2.984 0-2 .469-2.97 1.422-2.97m0 0" style="stroke:none"/></symbol><symbol id="b" overflow="visible"><path d="M2.594-5.156V0h.875v-7.234H2.89c-.313 1.109-.516 1.265-1.875 1.437v.64Zm0 0" style="stroke:none"/></symbol><symbol id="c" overflow="visible"><path d="M5.063-.875H1.328c.094-.594.406-.969 1.281-1.5l1-.562c.985-.547 1.5-1.297 1.5-2.188a2.1 2.1 0 0 0-.656-1.547c-.422-.375-.937-.562-1.61-.562-.905 0-1.577.328-1.968.937-.25.39-.36.844-.375 1.563h.875c.031-.485.094-.782.219-1.016.218-.437.687-.703 1.219-.703.796 0 1.39.578 1.39 1.36 0 .577-.328 1.077-.953 1.437l-.922.531C.844-2.265.422-1.594.344-.015h4.719Zm0 0" style="stroke:none"/></symbol><symbol id="d" overflow="visible"><path d="M2.203-3.328h.485c.968 0 1.468.453 1.468 1.312 0 .922-.547 1.47-1.453 1.47-.969 0-1.437-.5-1.5-1.548h-.89c.046.578.14.953.312 1.281C1-.125 1.688.234 2.656.234c1.469 0 2.407-.89 2.407-2.25 0-.921-.36-1.421-1.204-1.718q.985-.423.985-1.5c0-1.25-.797-2-2.157-2C1.267-7.234.5-6.437.47-4.906h.875c.015-.438.062-.688.172-.907.187-.406.64-.64 1.187-.64.781 0 1.25.469 1.25 1.25 0 .5-.187.812-.578.984-.234.094-.562.14-1.172.157Zm0 0" style="stroke:none"/></symbol><symbol id="e" overflow="visible"><path d="M3.266-1.75V0h.89v-1.75h1.047v-.797H4.156v-4.687H3.5L.281-2.687v.937Zm0-.797h-2.22l2.22-3.187Zm0 0" style="stroke:none"/></symbol><symbol id="f" overflow="visible"><path d="M4.766-7.094H1.094l-.532 3.86h.813c.422-.485.75-.657 1.313-.657.953 0 1.546.657 1.546 1.704 0 1.015-.593 1.64-1.546 1.64-.782 0-1.25-.39-1.454-1.187h-.89c.125.578.219.859.437 1.109.407.547 1.125.86 1.922.86 1.422 0 2.422-1.047 2.422-2.547 0-1.391-.922-2.36-2.281-2.36-.5 0-.906.125-1.313.438l.282-1.985h2.953Zm0 0" style="stroke:none"/></symbol><symbol id="g" overflow="visible"><path d="M4.984-5.344c-.171-1.187-.937-1.89-2.015-1.89a2.27 2.27 0 0 0-1.906 1.03c-.438.72-.625 1.595-.625 2.907 0 1.219.156 1.985.593 2.625.375.594 1 .906 1.782.906 1.343 0 2.312-1.015 2.312-2.421 0-1.329-.89-2.266-2.172-2.266-.687 0-1.25.25-1.625.781.016-1.781.578-2.781 1.578-2.781.625 0 1.047.406 1.188 1.11Zm-2.14 1.657c.86 0 1.39.609 1.39 1.562 0 .922-.609 1.578-1.421 1.578s-1.438-.687-1.438-1.61c0-.905.61-1.53 1.469-1.53m0 0" style="stroke:none"/></symbol><symbol id="h" overflow="visible"><path d="M5.203-7.094H.453v.875h3.844C2.594-3.812 1.907-2.329 1.375 0h.938c.39-2.266 1.28-4.219 2.89-6.344Zm0 0" style="stroke:none"/></symbol><symbol id="i" overflow="visible"><path d="M3.906-3.812c.75-.454.969-.813.969-1.485 0-1.14-.86-1.937-2.125-1.937-1.25 0-2.125.797-2.125 1.922 0 .687.219 1.046.953 1.5-.812.406-1.203 1-1.203 1.796 0 1.329.969 2.25 2.375 2.25s2.375-.921 2.375-2.25c0-.796-.39-1.39-1.219-1.796M2.75-6.453c.75 0 1.234.453 1.234 1.172 0 .687-.5 1.125-1.234 1.125-.75 0-1.234-.438-1.234-1.14C1.516-6 2-6.454 2.75-6.454m0 3.047c.875 0 1.484.578 1.484 1.422 0 .859-.593 1.437-1.5 1.437-.859 0-1.468-.594-1.468-1.437 0-.86.593-1.422 1.484-1.422m0 0" style="stroke:none"/></symbol><symbol id="j" overflow="visible"><path d="M.531-1.656C.703-.47 1.453.234 2.547.234a2.27 2.27 0 0 0 1.906-1.03c.438-.72.64-1.595.64-2.907 0-1.219-.187-1.985-.609-2.625-.39-.594-1-.906-1.78-.906-1.36 0-2.329 1.015-2.329 2.422 0 1.328.906 2.265 2.188 2.265.671 0 1.171-.25 1.624-.797C4.173-1.547 3.61-.547 2.595-.547c-.61 0-1.047-.406-1.188-1.11Zm2.157-4.797c.828 0 1.437.687 1.437 1.61 0 .89-.594 1.515-1.469 1.515-.844 0-1.375-.61-1.375-1.563 0-.906.594-1.562 1.407-1.562m0 0" style="stroke:none"/></symbol><symbol id="k" overflow="visible"><path d="M1.906-1.047H.875V0h1.031Zm0 0" style="stroke:none"/></symbol><symbol id="m" overflow="visible"><path d="M2.469-3.453h3.5v-1.375h-3.5v-1.813h3.984v-1.375H.813V0h1.656Zm0 0" style="stroke:none"/></symbol><symbol id="n" overflow="visible"><path d="M2.281-5.937H.734V0h1.547Zm0-2.079H.734v1.375h1.547Zm0 0" style="stroke:none"/></symbol><symbol id="o" overflow="visible"><path d="M4.406-5.937v.906c-.437-.688-.906-1-1.531-1-.531 0-1.11.25-1.516.687-.593.61-.906 1.469-.906 2.516C.453-1 1.422.25 2.843.25 3.47.25 3.86.047 4.407-.61v.813c0 .703-.515 1.203-1.234 1.203-.547 0-.89-.234-1.016-.687H.578c0 .453.172.781.578 1.11.469.39 1.125.562 1.953.562 1.72 0 2.75-.813 2.75-2.188v-6.14ZM3.156-4.75c.735 0 1.266.797 1.266 1.906 0 1.078-.516 1.813-1.281 1.813-.672 0-1.157-.735-1.157-1.813 0-1.125.485-1.906 1.172-1.906m0 0" style="stroke:none"/></symbol><symbol id="p" overflow="visible"><path d="M2.36-1.61H.702V0H2.36Zm0 0" style="stroke:none"/></symbol><symbol id="q" overflow="visible"><path d="M2.625-5.375V0h1.531v-7.797H3.141c-.25.922-1.047 1.39-2.391 1.39v1.032Zm0 0" style="stroke:none"/></symbol><symbol id="s" overflow="visible"><path d="M1.906-8.016H.875V0h4.984v-.906H1.906Zm0 0" style="stroke:none"/></symbol><symbol id="t" overflow="visible"><path d="M5.89-.531c-.109.015-.156.015-.202.015-.313 0-.5-.171-.5-.453v-3.39c0-1.016-.75-1.563-2.157-1.563-.86 0-1.531.234-1.922.656-.265.297-.375.641-.39 1.204h.922c.078-.704.5-1.016 1.343-1.016.844 0 1.297.297 1.297.86v.234c-.015.39-.218.547-.953.64-1.297.172-1.5.203-1.86.36-.671.28-1 .78-1 1.53C.469-.405 1.189.25 2.36.25c.72 0 1.297-.25 1.954-.844.062.594.343.844.953.844.187 0 .312-.016.625-.094ZM4.282-1.812c0 .312-.093.5-.36.75-.374.343-.827.515-1.374.515-.703 0-1.125-.344-1.125-.922 0-.61.39-.922 1.39-1.062.97-.125 1.157-.172 1.47-.313Zm0 0" style="stroke:none"/></symbol><symbol id="u" overflow="visible"><path d="M4.438-5.766v.844c-.454-.703-.97-1-1.688-1-1.39 0-2.36 1.297-2.36 3.14 0 .97.22 1.673.72 2.25.437.516.984.782 1.578.782.687 0 1.187-.312 1.671-1.031v.297c0 1.547-.437 2.109-1.578 2.109C2 1.625 1.594 1.313 1.5.656H.578c.078 1.078.922 1.735 2.188 1.735.843 0 1.547-.266 1.922-.735.437-.531.609-1.25.609-2.61v-4.812Zm-1.594.688c.969 0 1.515.812 1.515 2.266 0 1.406-.562 2.218-1.515 2.218s-1.5-.828-1.5-2.25c0-1.406.547-2.234 1.5-2.234m0 0" style="stroke:none"/></symbol><symbol id="v" overflow="visible"><path d="M.766-5.766V0h.922v-2.984c0-1.391.578-2.016 1.843-1.985v-.922c-.156-.03-.25-.03-.36-.03-.593 0-1.03.343-1.562 1.202v-1.047Zm0 0" style="stroke:none"/></symbol><symbol id="w" overflow="visible"><path d="M.766-5.766V0h.922v-3.172c0-1.187.625-1.953 1.562-1.953.734 0 1.188.438 1.188 1.125v4h.921v-4.36c0-.952-.718-1.562-1.828-1.562-.86 0-1.406.328-1.922 1.125v-.969Zm0 0" style="stroke:none"/></symbol><symbol id="x" overflow="visible"><path d="M5.64-2.578c0-.875-.062-1.406-.234-1.828-.375-.953-1.25-1.516-2.328-1.516-1.61 0-2.64 1.219-2.64 3.11 0 1.906 1 3.062 2.625 3.062 1.312 0 2.234-.75 2.453-2h-.922c-.25.766-.766 1.156-1.5 1.156a1.61 1.61 0 0 1-1.39-.75c-.22-.328-.298-.656-.313-1.234Zm-4.218-.75c.078-1.063.719-1.75 1.64-1.75.938 0 1.594.719 1.594 1.75Zm0 0" style="stroke:none"/></symbol><symbol id="y" overflow="visible"><path d="M1.656-5.766H.734V0h.922Zm0-2.25H.72v1.157h.937Zm0 0" style="stroke:none"/></symbol><symbol id="z" overflow="visible"><path d="M2.797-5.766h-.953v-1.578H.937v1.578h-.78v.75h.78v4.36c0 .594.391.906 1.11.906.234 0 .437-.016.75-.078v-.766c-.14.031-.25.047-.438.047-.406 0-.515-.11-.515-.515v-3.954h.953Zm0 0" style="stroke:none"/></symbol><symbol id="A" overflow="visible"><path d="M.594 2.39h.922v-3C2-.015 2.546.25 3.28.25c1.5 0 2.469-1.203 2.469-3.031 0-1.938-.937-3.14-2.469-3.14-.781 0-1.406.343-1.844 1.03v-.875H.595Zm2.531-7.468c1.016 0 1.672.89 1.672 2.266C4.797-1.5 4.125-.61 3.125-.61c-.984 0-1.61-.875-1.61-2.235 0-1.344.626-2.234 1.61-2.234m0 0" style="stroke:none"/></symbol><symbol id="B" overflow="visible"><path d="M2.984-5.922C1.36-5.922.391-4.782.391-2.844.39-.89 1.359.25 3 .25c1.625 0 2.61-1.156 2.61-3.047 0-2-.954-3.125-2.626-3.125M3-5.078c1.031 0 1.656.844 1.656 2.266 0 1.374-.64 2.218-1.656 2.218s-1.64-.843-1.64-2.25c0-1.39.624-2.234 1.64-2.234m0 0" style="stroke:none"/></symbol><symbol id="C" overflow="visible"><path d="M1.672-8.016H.75V0h.922Zm0 0" style="stroke:none"/></symbol><symbol id="D" overflow="visible"><path d="M4.266-5.766 2.672-1.28 1.203-5.766H.22L2.172.016l-.36.922c-.156.406-.343.562-.734.562-.156 0-.281-.031-.484-.062v.812c.187.11.375.14.61.14.296 0 .624-.093.859-.265.296-.219.453-.453.624-.922l2.579-6.969Zm0 0" style="stroke:none"/></symbol><symbol id="E" overflow="visible"><path d="M.766-5.766V0h.922v-3.625c0-.828.609-1.5 1.359-1.5.687 0 1.062.422 1.062 1.156V0h.922v-3.625c0-.828.61-1.5 1.36-1.5.672 0 1.062.422 1.062 1.156V0h.922v-4.328c0-1.031-.594-1.594-1.672-1.594-.766 0-1.219.219-1.766.875-.343-.625-.796-.875-1.546-.875-.766 0-1.297.281-1.782.969v-.813Zm0 0" style="stroke:none"/></symbol><symbol id="F" overflow="visible"><path d="M1.75-6.562H.906V0h.844Zm0 0" style="stroke:none"/></symbol><symbol id="G" overflow="visible"><path d="M.625-4.719V0h.766v-2.594c0-.969.5-1.594 1.265-1.594.61 0 .985.36.985.922V0h.75v-3.562c0-.782-.594-1.282-1.5-1.282-.703 0-1.157.266-1.563.922v-.797Zm0 0" style="stroke:none"/></symbol><symbol id="H" overflow="visible"><path d="M.484 1.969h.75V-.5c.407.484.844.703 1.454.703 1.234 0 2.015-.984 2.015-2.484 0-1.578-.766-2.563-2.016-2.563-.64 0-1.156.282-1.515.844v-.719H.484Zm2.079-6.125c.828 0 1.359.734 1.359 1.86C3.922-1.22 3.375-.5 2.562-.5c-.812 0-1.328-.719-1.328-1.828 0-1.094.516-1.828 1.329-1.828m0 0" style="stroke:none"/></symbol><symbol id="I" overflow="visible"><path d="M4.344 0v-4.719h-.75v2.672c0 .969-.5 1.594-1.297 1.594-.594 0-.969-.36-.969-.922v-3.344h-.75v3.64c0 .782.594 1.282 1.516 1.282.687 0 1.125-.234 1.562-.86V0Zm0 0" style="stroke:none"/></symbol><symbol id="J" overflow="visible"><path d="M2.281-4.719h-.765v-1.297h-.75v1.297H.125v.61h.64v3.562c0 .5.329.75.907.75.203 0 .36-.016.61-.062v-.625c-.11.03-.204.03-.36.03-.313 0-.406-.093-.406-.421v-3.234h.765Zm0 0" style="stroke:none"/></symbol><symbol id="L" overflow="visible"><path d="M2.453-4.844c-1.344 0-2.125.938-2.125 2.516C.328-.734 1.11.203 2.453.203c1.328 0 2.14-.937 2.14-2.484 0-1.64-.78-2.563-2.14-2.563m0 .688c.844 0 1.36.687 1.36 1.86 0 1.124-.532 1.812-1.36 1.812S1.11-1.172 1.11-2.328c0-1.14.516-1.828 1.344-1.828m0 0" style="stroke:none"/></symbol><symbol id="M" overflow="visible"><path d="M1.344-4.719H.609V0h.735Zm0-1.843h-.75v.953h.75Zm0 0" style="stroke:none"/></symbol><symbol id="N" overflow="visible"><path d="M3.938-3.406c0-.922-.61-1.438-1.704-1.438S.422-4.28.422-3.406c0 .734.375 1.078 1.5 1.36l.703.171c.516.125.719.313.719.64 0 .454-.438.75-1.094.75-.406 0-.75-.124-.937-.312-.11-.14-.172-.281-.22-.61h-.78C.343-.311.953.204 2.188.204c1.187 0 1.937-.578 1.937-1.484 0-.703-.39-1.094-1.328-1.313l-.719-.172c-.61-.156-.875-.343-.875-.687 0-.438.39-.703 1-.703s.922.265.953.75Zm0 0" style="stroke:none"/></symbol><symbol id="O" overflow="visible"><path d="M4.61-2.11c0-.718-.048-1.156-.188-1.5-.297-.78-1.016-1.234-1.906-1.234-1.313 0-2.157.985-2.157 2.547S1.172.203 2.5.203c1.078 0 1.828-.61 2.016-1.64h-.75c-.203.625-.641.953-1.235.953a1.31 1.31 0 0 1-1.14-.61c-.172-.281-.235-.547-.25-1.015Zm-3.454-.609c.063-.875.594-1.437 1.36-1.437.765 0 1.297.593 1.297 1.437Zm0 0" style="stroke:none"/></symbol><symbol id="P" overflow="visible"><path d="M.625-4.719V0h.75v-2.453c.016-1.125.484-1.64 1.516-1.61v-.765c-.125-.016-.203-.016-.297-.016-.485 0-.844.282-1.281.985v-.86Zm0 0" style="stroke:none"/></symbol><symbol id="Q" overflow="visible"><path d="M1.375-6.562H.609V0h.766Zm0 0" style="stroke:none"/></symbol><symbol id="R" overflow="visible"><path d="M4.813-.437c-.079.015-.11.015-.157.015-.265 0-.406-.14-.406-.375v-2.765c0-.844-.61-1.282-1.781-1.282-.688 0-1.235.188-1.563.547-.219.234-.297.516-.328.969h.766c.062-.563.406-.828 1.11-.828.671 0 1.046.25 1.046.703v.187c-.016.329-.172.454-.781.532-1.063.14-1.219.172-1.516.28-.547.235-.828.657-.828 1.267 0 .859.594 1.39 1.547 1.39C2.516.203 3 0 3.532-.484c.046.484.28.687.765.687.172 0 .266-.016.516-.078ZM3.5-1.484c0 .25-.078.406-.297.609a1.59 1.59 0 0 1-1.11.422c-.593 0-.937-.281-.937-.75 0-.5.328-.75 1.14-.86.798-.109.954-.156 1.204-.265Zm0 0" style="stroke:none"/></symbol><symbol id="S" overflow="visible"><path d="M3.64-4.719v.688c-.374-.563-.796-.813-1.39-.813C1.11-4.844.313-3.78.313-2.28c0 .797.187 1.375.593 1.844.36.421.797.64 1.297.64.563 0 .969-.25 1.36-.844v.25c0 1.25-.344 1.72-1.282 1.72-.64 0-.969-.25-1.047-.782H.47c.078.86.765 1.422 1.797 1.422.687 0 1.265-.235 1.562-.61.36-.437.5-1.03.5-2.14V-4.72Zm-1.312.563c.781 0 1.235.672 1.235 1.86 0 1.14-.454 1.812-1.235 1.812s-1.234-.672-1.234-1.844c0-1.14.453-1.828 1.234-1.828m0 0" style="stroke:none"/></symbol><symbol id="T" overflow="visible"><path d="M3.484-4.719 2.188-1.047.984-4.719H.188L1.766.016l-.282.75c-.125.328-.28.453-.609.453-.125 0-.234-.016-.39-.047v.672c.156.078.312.125.5.125.25 0 .515-.094.703-.235.234-.171.375-.359.515-.75l2.094-5.703Zm0 0" style="stroke:none"/></symbol><symbol id="U" overflow="visible"><path d="M.625-4.719V0h.766v-2.969c0-.672.484-1.219 1.109-1.219.547 0 .86.329.86.938V0h.765v-2.969c0-.672.484-1.219 1.11-1.219.546 0 .874.344.874.938V0h.75v-3.531c0-.86-.484-1.313-1.375-1.313-.625 0-1 .188-1.437.719-.281-.516-.656-.719-1.281-.719s-1.047.235-1.438.797v-.672Zm0 0" style="stroke:none"/></symbol><symbol id="V" overflow="visible"><path d="M6.594.016 5.75-.687c.625-.688.922-1.516.922-2.563 0-2.047-1.266-3.422-3.156-3.422-1.907 0-3.172 1.375-3.172 3.438C.344-1.172 1.609.203 3.516.203c.656 0 1.187-.14 1.718-.453l.938.781Zm-2.266-1.86-.406.5.656.563c-.39.187-.687.25-1.078.25-1.39 0-2.328-1.078-2.328-2.703 0-1.61.937-2.703 2.344-2.703 1.39 0 2.328 1.093 2.328 2.703 0 .843-.235 1.5-.719 2.047Zm0 0" style="stroke:none"/></symbol></defs><path d="M0 0h406v218H0z" style="fill:#fff;fill-opacity:1;stroke:none"/><path d="M17.977 202.305H403.18V12.707H17.977Zm0 0" style="stroke:none;fill-rule:nonzero;fill:#fff;fill-opacity:1"/><path d="M249.997 385.997h642.006M249.997 385.997v-6.419M321.332 385.997v-6.419M392.667 385.997v-6.419M464.001 385.997v-6.419M535.336 385.997v-6.419M606.664 385.997v-6.419M677.999 385.997v-6.419M749.333 385.997v-6.419M820.668 385.997v-6.419M892.003 385.997v-6.419" style="fill:none;stroke-width:.833333;stroke-linecap:square;stroke-linejoin:round;stroke:#262626;stroke-opacity:1;stroke-miterlimit:10" transform="matrix(.6 0 0 .6 -132.022 -29.294)"/><use xlink:href="#a" x="14.978" y="216.506" style="fill:#262626;fill-opacity:1"/><use xlink:href="#b" x="57.778" y="216.506" style="fill:#262626;fill-opacity:1"/><use xlink:href="#c" x="100.578" y="216.506" style="fill:#262626;fill-opacity:1"/><use xlink:href="#d" x="143.378" y="216.506" style="fill:#262626;fill-opacity:1"/><use xlink:href="#e" x="186.178" y="216.506" style="fill:#262626;fill-opacity:1"/><use xlink:href="#f" x="228.978" y="216.506" style="fill:#262626;fill-opacity:1"/><use xlink:href="#g" x="271.778" y="216.506" style="fill:#262626;fill-opacity:1"/><use xlink:href="#h" x="314.578" y="216.506" style="fill:#262626;fill-opacity:1"/><use xlink:href="#i" x="357.378" y="216.506" style="fill:#262626;fill-opacity:1"/><use xlink:href="#j" x="400.178" y="216.506" style="fill:#262626;fill-opacity:1"/><path d="M249.997 385.997V70.001M249.997 385.88h6.426M249.997 322.703h6.426M249.997 259.526h6.426M249.997 196.349h6.426M249.997 133.178h6.426M249.997 70.001h6.426" style="fill:none;stroke-width:.833333;stroke-linecap:square;stroke-linejoin:round;stroke:#262626;stroke-opacity:1;stroke-miterlimit:10" transform="matrix(.6 0 0 .6 -132.022 -29.294)"/><use xlink:href="#a" x="7.978" y="206.133" style="fill:#262626;fill-opacity:1"/><g style="fill:#262626;fill-opacity:1"><use xlink:href="#a" x="-.422" y="168.227"/><use xlink:href="#k" x="5.138" y="168.227"/><use xlink:href="#c" x="7.918" y="168.227"/></g><g style="fill:#262626;fill-opacity:1"><use xlink:href="#a" x="-.422" y="130.322"/><use xlink:href="#k" x="5.138" y="130.322"/><use xlink:href="#e" x="7.918" y="130.322"/></g><g style="fill:#262626;fill-opacity:1"><use xlink:href="#a" x="-.422" y="92.417"/><use xlink:href="#k" x="5.138" y="92.417"/><use xlink:href="#g" x="7.918" y="92.417"/></g><g style="fill:#262626;fill-opacity:1"><use xlink:href="#a" x="-.422" y="54.512"/><use xlink:href="#k" x="5.138" y="54.512"/><use xlink:href="#i" x="7.918" y="54.512"/></g><use xlink:href="#b" x="7.978" y="16.606" style="fill:#262626;fill-opacity:1"/><g style="fill:#000;fill-opacity:1"><use xlink:href="#l" x="110.378" y="7.906"/><use xlink:href="#m" x="113.436" y="7.906"/><use xlink:href="#n" x="120.157" y="7.906"/><use xlink:href="#o" x="123.215" y="7.906"/><use xlink:href="#p" x="129.936" y="7.906"/><use xlink:href="#l" x="132.994" y="7.906"/><use xlink:href="#q" x="136.052" y="7.906"/></g><g style="fill:#000;fill-opacity:1"><use xlink:href="#r" x="142.178" y="7.906"/><use xlink:href="#s" x="145.236" y="7.906"/><use xlink:href="#t" x="151.352" y="7.906"/><use xlink:href="#u" x="157.468" y="7.906"/><use xlink:href="#v" x="163.584" y="7.906"/><use xlink:href="#t" x="167.247" y="7.906"/><use xlink:href="#w" x="173.363" y="7.906"/><use xlink:href="#u" x="179.478" y="7.906"/><use xlink:href="#x" x="185.594" y="7.906"/><use xlink:href="#r" x="191.71" y="7.906"/><use xlink:href="#y" x="194.768" y="7.906"/><use xlink:href="#w" x="197.21" y="7.906"/><use xlink:href="#z" x="203.326" y="7.906"/><use xlink:href="#x" x="206.384" y="7.906"/><use xlink:href="#v" x="212.5" y="7.906"/><use xlink:href="#A" x="216.163" y="7.906"/><use xlink:href="#B" x="222.279" y="7.906"/><use xlink:href="#C" x="228.395" y="7.906"/><use xlink:href="#t" x="230.837" y="7.906"/><use xlink:href="#z" x="236.952" y="7.906"/><use xlink:href="#y" x="240.01" y="7.906"/><use xlink:href="#w" x="242.452" y="7.906"/><use xlink:href="#u" x="248.568" y="7.906"/><use xlink:href="#r" x="254.684" y="7.906"/><use xlink:href="#A" x="257.742" y="7.906"/><use xlink:href="#B" x="263.858" y="7.906"/><use xlink:href="#C" x="269.974" y="7.906"/><use xlink:href="#D" x="272.416" y="7.906"/><use xlink:href="#w" x="277.916" y="7.906"/><use xlink:href="#B" x="284.032" y="7.906"/><use xlink:href="#E" x="290.147" y="7.906"/><use xlink:href="#y" x="299.31" y="7.906"/><use xlink:href="#t" x="301.752" y="7.906"/><use xlink:href="#C" x="307.868" y="7.906"/></g><path d="M-.001-4.998v10m-5-5h10m-8.535-3.535 7.07 7.07m-7.07 0 7.07-7.07" style="fill:none;stroke-width:.833333;stroke-linecap:butt;stroke-linejoin:miter;stroke:#000;stroke-opacity:1;stroke-miterlimit:10" transform="matrix(.6 0 0 .6 60.778 132.487)"/><path d="M0-4.997v10m-5-5H5m-8.535-3.542 7.07 7.077m-7.07 0 7.07-7.077" style="fill:none;stroke-width:.833333;stroke-linecap:butt;stroke-linejoin:miter;stroke:#000;stroke-opacity:1;stroke-miterlimit:10" transform="matrix(.6 0 0 .6 103.578 176.647)"/><path d="M.001-4.998v10m-5-5h10m-8.535-3.535 7.07 7.07m-7.07 0 7.07-7.07" style="fill:none;stroke-width:.833333;stroke-linecap:butt;stroke-linejoin:miter;stroke:#000;stroke-opacity:1;stroke-miterlimit:10" transform="matrix(.6 0 0 .6 146.378 192.756)"/><path d="M.003-5.001v10m-5-5h10m-8.536-3.536 7.07 7.07m-7.07 0 7.07-7.07" style="fill:none;stroke-width:.833333;stroke-linecap:butt;stroke-linejoin:miter;stroke:#000;stroke-opacity:1;stroke-miterlimit:10" transform="matrix(.6 0 0 .6 189.178 198.821)"/><path d="M-.003-5V5m-5-5h10m-8.535-3.535 7.07 7.07m-7.07 0 7.07-7.07" style="fill:none;stroke-width:.833333;stroke-linecap:butt;stroke-linejoin:miter;stroke:#000;stroke-opacity:1;stroke-miterlimit:10" transform="matrix(.6 0 0 .6 231.978 200.906)"/><path d="M-.001-4.997v10m-5-5h10m-8.535-3.542 7.07 7.077m-7.07 0 7.07-7.077" style="fill:none;stroke-width:.833333;stroke-linecap:butt;stroke-linejoin:miter;stroke:#000;stroke-opacity:1;stroke-miterlimit:10" transform="matrix(.6 0 0 .6 274.778 201.854)"/><path d="M0-5V5m-5-5H5m-8.535-3.535 7.07 7.07m-7.07 0 7.07-7.07" style="fill:none;stroke-width:.833333;stroke-linecap:butt;stroke-linejoin:miter;stroke:#000;stroke-opacity:1;stroke-miterlimit:10" transform="matrix(.6 0 0 .6 317.578 202.043)"/><path d="m249.997 71.577.645 2.747.644 2.722.645 2.701.638 2.676.645 2.656.644 2.63.638 2.611.645 2.591.644 2.572.638 2.546.645 2.526.644 2.506.645 2.487.638 2.461.644 2.448.645 2.422.638 2.402.644 2.383.645 2.363.644 2.344.638 2.324.645 2.305.645 2.285.638 2.266.644 2.252.645 2.227.644 2.207.638 2.194.645 2.174.644 2.149.638 2.142.645 2.116.644 2.096.645 2.083.638 2.07.644 2.045.645 2.031.638 2.012.645 1.992.644 1.98.645 1.965.638 1.947.644 1.927.645 1.908.638 1.9.644 1.876.645 1.868.638 1.843.644 1.836.645 1.816.644 1.797.638 1.784.645 1.77.644 1.752.638 1.745.645 1.718.645 1.713.644 1.692.638 1.68.645 1.667.644 1.653.638 1.635.645 1.62.644 1.609.645 1.595.638 1.582.644 1.562.645 1.556.638 1.537.644 1.53.645 1.51.644 1.497.638 1.491.645 1.472.645 1.458.638 1.452.644 1.432.645 1.426.638 1.406.644 1.4.645 1.38.644 1.374.638 1.36.645 1.355.644 1.334.638 1.322.645 1.315.644 1.302.645 1.29.638 1.282.644 1.263.645 1.256.638 1.25.645 1.23.644 1.225.645 1.21.638 1.205.644 1.191.645 1.179.638 1.165.644 1.166.645 1.145.644 1.14.638 1.126.645 1.12.644 1.107.638 1.1.645 1.087.644 1.08.639 1.069.644 1.06.645 1.049.644 1.042.638 1.028.645 1.022.644 1.016.638 1.003.645.996.644.983.645.976.638.97.644.957.645.95.638.945.644.93.645.925.644.918.639.905.644.905.645.892.638.88.644.878.645.866.644.86.638.852.645.846.644.834.638.833.645.82.644.814.638.808.645.8 1.289 1.576.638.775.645.774.644.762.638.755 1.29 1.498.644.735.638.73.644.722.645.716.638.71.644.703.645.697.644.69.638.683.645.677.644.671.638.664.645.664 1.29 1.302.637.638.645.638.644.625.638.625.645.619 1.289 1.224.638.599.644.599.645.586.638.586.644.579.645.573.638.573 1.289 1.12.645.553.638.553 1.289 1.081.638.534 1.289 1.055.644.514.638.514.645.515.644.5.638.502 1.29.99.644.488.638.482 1.289.95.638.47 1.29.924.644.455.638.456.644.45.645.442.638.436 1.289.873.638.423.644.43 1.29.833.637.416.645.404.645.41.638.397.644.404 1.29.781.637.39.645.385.644.378.638.377 1.29.742.644.365.638.365 1.289.716.638.351 1.289.703.645.339.638.345.644.339.645.332.638.332.644.332.645.325.638.32 1.289.637.644.313.638.312.645.313.644.3.638.305 1.29.6.644.292.638.293.645.293.644.286.638.28.645.287.644.28.645.273.638.274 1.289.547.638.266.644.26.645.268.644.26.638.254.645.26.644.248.638.254 1.29.495.638.247 1.289.482.644.234.638.241.645.234.644.228.638.228 1.29.456.644.221.638.222 1.289.442.638.215.645.215.644.208.645.215.638.209.644.201.645.209.638.202 1.289.403.644.195.638.196 1.29.39.637.19 1.29.377.637.182.645.189 1.29.364.637.176.645.183.644.175.638.176.645.17.644.175.645.17.638.169.644.169.645.163.638.163 1.933.488.638.156.645.163.645.156.638.15.644.156.645.15.644.156.638.15.645.143.644.15.638.143.645.15.644.143.645.137.638.143.644.143.645.137.638.137 1.289.273.638.13.645.13.644.137.645.13.638.124 1.289.26.638.124 1.933.371.638.124.645.117.644.124.638.117 1.29.234.644.111.638.117.645.11.644.118.638.11 1.29.222.644.104.638.111 1.289.208.638.104 1.289.209.638.104.644.098.645.104.644.097.639.098 1.289.195.638.098.644.098 1.29.182.637.098 1.29.182.637.091.645.085 1.289.182.638.085 1.289.169.638.085 1.934.254.638.078.644.084.645.078.638.079 1.289.156.638.078 1.289.156.644.072.638.078.645.071.644.079.638.071 1.934.215.638.065 1.29.143.637.066.645.065.644.071.645.065.638.065 1.289.13.638.066.644.058.645.065.644.059.638.065 1.29.117.638.065 1.933.176.638.052 1.29.117.637.053.645.058.644.052.638.059 1.934.156.638.052 1.289.104.638.052.645.046 1.289.104.638.046.644.052.645.045.638.046 1.933.137.638.045 1.29.091.637.046.645.046.645.039.644.045.638.04.645.045.644.039.638.039.645.046.644.039.638.039 1.934.117.638.039.644.032.645.04.638.039.644.032.645.04.645.032.638.039.644.032.645.04.638.032 1.933.098.638.032 1.29.065.637.033 1.934.097.638.027 1.289.065.638.026.645.032.644.026.638.026.645.033 1.289.052.638.033 1.289.052.638.026 1.933.078.638.026 1.29.052.638.02 1.933.078.638.02.645.025.644.02.638.026.645.02.644.025.645.02.638.026 1.289.039.638.026 1.289.039.638.02.645.02.644.025.645.02.638.02 1.289.038.638.02 1.933.058.638.013 1.29.04.637.019 1.29.039.644.013.638.02.645.02.644.012.638.02.645.02.644.012.645.02.638.013.644.02.645.012.638.02.644.013.645.02.638.012.644.02 1.29.026.637.02.645.013.645.02.638.012.644.013.645.02.644.013.638.013.645.013.644.02.638.012 1.29.026.644.02.638.013 1.289.026.638.013.644.02 1.29.025.638.014 1.289.026.638.013.644.02 1.29.025.637.013 1.29.026.637.013 1.29.026.637.02 1.934.039.638.013 1.29.026.637.013 1.934.039.638.013 1.289.026.638.02 1.933.039.638.013 1.29.026.638.013 1.933.039.638.013.645.013.644.02.638.012 1.29.026.637.013 1.934.04.638.013.644.02.645.012.638.013 1.934.04.638.012.644.013.645.02.638.013 1.933.039.638.013.645.013.644.02.638.012 1.934.04.638.013.645.02.644.012.638.013 1.29.026.637.013.645.02 1.289.026.638.013 1.289.026.638.013.644.02 1.29.025.637.013 1.29.026.638.013.644.02 1.29.026.637.013 1.29.026.637.013 1.934.04.638.012 1.289.026.638.013 1.289.026.638.013 1.934.04.638.012.644.013.645.007.638.013 1.289.026.644.007.638.013.645.013.644.006.638.013.645.013.645.007.644.013.638.006.645.013.644.007.638.006.645.013 1.289.013.638.013 1.289.013.638.007 1.933.02.638.006h.645l.645.006.638.007.644.006h.645l.638.007h.644l.645.006h5.78l.645-.006h.645l.638-.007h.645l1.289-.013.638-.006 1.289-.013.638-.007.644-.013.645-.006.644-.013.638-.007 1.29-.026.637-.013 1.29-.026.638-.02.644-.012 1.29-.04.637-.019 1.29-.04.637-.025.645-.02 1.289-.052.638-.026 1.289-.052.638-.032.644-.033.645-.026.644-.04.639-.032.644-.032.645-.04.638-.038 1.933-.117.638-.046 1.29-.091.637-.046.645-.052.644-.045.638-.053.645-.052 1.289-.117.638-.058 1.29-.118.637-.065 1.29-.13.644-.071.638-.066.644-.071.645-.078.638-.072 1.289-.156.644-.085.638-.084.645-.085.644-.091.638-.085.645-.091 1.29-.195.637-.098.645-.098.644-.104.638-.104 1.29-.221.637-.111 1.29-.234.644-.124.638-.117.644-.13.645-.124.638-.137.644-.13 1.29-.274.638-.143.644-.15.645-.143.638-.156.644-.15.645-.156.644-.163.638-.163 1.29-.338.637-.17.645-.175 1.289-.365.638-.188.644-.19.645-.195.638-.195 1.29-.404.644-.208.638-.215.644-.215.645-.22.638-.222.644-.228.645-.235.638-.234.644-.24 1.29-.496.637-.253.645-.254.644-.26.639-.268 1.289-.547.644-.28.638-.286.645-.286.644-.293.638-.3 1.29-.612.644-.312.638-.32 1.289-.65.638-.339.644-.339.645-.345.645-.351.638-.352 1.289-.729.638-.377.644-.378.645-.384.638-.39 1.289-.795.644-.41.638-.417 1.29-.846.637-.436.645-.437 1.289-.898.638-.462 1.29-.938.637-.482.645-.488.644-.495.645-.501.638-.508.644-.514.645-.521.638-.534.644-.534.645-.547.644-.553.638-.56 1.29-1.146.637-.586.645-.592.645-.599.638-.612.644-.612 1.29-1.263.637-.645.645-.65.644-.658.638-.67.645-.678.644-.683.645-.697.638-.703.644-.716.645-.723.638-.736.644-.742.645-.748.645-.762.638-.775.644-.781.645-.794.638-.801.644-.808.645-.826.644-.834.638-.84.645-.852.644-.866.638-.88.645-.885.644-.898.638-.905.645-.918.645-.93.644-.945.638-.957.645-.964.644-.976.638-.99.645-1.002.644-1.016.645-1.022.638-1.042.644-1.048.645-1.061.638-1.08.644-1.088.645-1.1.644-1.114.638-1.126.645-1.146.645-1.152.638-1.165.644-1.185.645-1.192.644-1.21.638-1.225.645-1.237.644-1.25.638-1.263.645-1.282.644-1.296.645-1.308.638-1.322.644-1.341.645-1.354.638-1.367.644-1.387.645-1.4.638-1.42.645-1.431.644-1.446.645-1.465" style="fill:none;stroke-width:.833333;stroke-linecap:butt;stroke-linejoin:round;stroke:#000;stroke-opacity:1;stroke-miterlimit:10" transform="matrix(.6 0 0 .6 -132.022 -29.294)"/><path d="M95.02 168.258c1.515 0 2.75 1.23 2.75 2.75a2.754 2.754 0 0 1-2.75 2.75 2.749 2.749 0 1 1 0-5.5m0-.5a3.25 3.25 0 1 0 0 6.5 3.25 3.25 0 0 0 0-6.5M281.2 199.242a2.749 2.749 0 1 1 0 5.5 2.749 2.749 0 1 1 0-5.5m0-.5a3.25 3.25 0 1 0 0 6.5 3.25 3.25 0 0 0 0-6.5m0 0" style="stroke:none;fill-rule:nonzero;fill:#000;fill-opacity:1"/><path d="M395.379 60.707v-40.2h-133.8v40.2Zm0 0" style="stroke:none;fill-rule:nonzero;fill:#fff;fill-opacity:1"/><g style="fill:#000;fill-opacity:1"><use xlink:href="#F" x="296.868" y="31.691"/><use xlink:href="#G" x="299.37" y="31.691"/><use xlink:href="#H" x="304.374" y="31.691"/><use xlink:href="#I" x="309.378" y="31.691"/><use xlink:href="#J" x="314.382" y="31.691"/><use xlink:href="#K" x="316.884" y="31.691"/><use xlink:href="#H" x="319.386" y="31.691"/><use xlink:href="#L" x="324.39" y="31.691"/><use xlink:href="#M" x="329.394" y="31.691"/><use xlink:href="#G" x="331.392" y="31.691"/><use xlink:href="#J" x="336.396" y="31.691"/><use xlink:href="#N" x="338.898" y="31.691"/></g><path d="M-.001-5.002v10m-5-5h10m-8.535-3.535 7.07 7.07m-7.07 0 7.07-7.07" style="fill:none;stroke-width:.833333;stroke-linecap:butt;stroke-linejoin:miter;stroke:#000;stroke-opacity:1;stroke-miterlimit:10" transform="matrix(.6 0 0 .6 279.598 28.091)"/><g style="fill:#000;fill-opacity:1"><use xlink:href="#F" x="296.868" y="44.206"/><use xlink:href="#G" x="299.37" y="44.206"/><use xlink:href="#J" x="304.374" y="44.206"/><use xlink:href="#O" x="306.876" y="44.206"/><use xlink:href="#P" x="311.88" y="44.206"/><use xlink:href="#H" x="314.877" y="44.206"/><use xlink:href="#L" x="319.881" y="44.206"/><use xlink:href="#Q" x="324.885" y="44.206"/><use xlink:href="#R" x="326.883" y="44.206"/><use xlink:href="#J" x="331.887" y="44.206"/><use xlink:href="#M" x="334.389" y="44.206"/><use xlink:href="#G" x="336.387" y="44.206"/><use xlink:href="#S" x="341.391" y="44.206"/><use xlink:href="#K" x="346.395" y="44.206"/><use xlink:href="#H" x="348.897" y="44.206"/><use xlink:href="#L" x="353.901" y="44.206"/><use xlink:href="#Q" x="358.905" y="44.206"/><use xlink:href="#T" x="360.903" y="44.206"/><use xlink:href="#G" x="365.403" y="44.206"/><use xlink:href="#L" x="370.407" y="44.206"/><use xlink:href="#U" x="375.411" y="44.206"/><use xlink:href="#M" x="382.908" y="44.206"/><use xlink:href="#R" x="384.906" y="44.206"/><use xlink:href="#Q" x="389.91" y="44.206"/></g><path d="M661.007 116.499h50.052" style="fill:none;stroke-width:.833333;stroke-linecap:butt;stroke-linejoin:round;stroke:#000;stroke-opacity:1;stroke-miterlimit:10" transform="matrix(.6 0 0 .6 -132.022 -29.294)"/><g style="fill:#000;fill-opacity:1"><use xlink:href="#V" x="296.868" y="56.721"/><use xlink:href="#I" x="303.87" y="56.721"/><use xlink:href="#O" x="308.874" y="56.721"/><use xlink:href="#P" x="313.878" y="56.721"/><use xlink:href="#T" x="316.875" y="56.721"/><use xlink:href="#K" x="321.375" y="56.721"/><use xlink:href="#H" x="323.877" y="56.721"/><use xlink:href="#L" x="328.881" y="56.721"/><use xlink:href="#M" x="333.885" y="56.721"/><use xlink:href="#G" x="335.883" y="56.721"/><use xlink:href="#J" x="340.887" y="56.721"/><use xlink:href="#N" x="343.389" y="56.721"/></g><path d="M279.598 50.371a2.749 2.749 0 1 1 0 5.5 2.749 2.749 0 1 1 0-5.5m0-.5a3.25 3.25 0 1 0 0 6.5 3.25 3.25 0 0 0 0-6.5m0 0" style="stroke:none;fill-rule:nonzero;fill:#000;fill-opacity:1"/><path d="M656 150.001V83.003h223.001V150Zm0 0" style="fill:none;stroke-width:.833333;stroke-linecap:butt;stroke-linejoin:miter;stroke:#262626;stroke-opacity:1;stroke-miterlimit:10" transform="matrix(.6 0 0 .6 -132.022 -29.294)"/></svg>