<svg xmlns="http://www.w3.org/2000/svg" xmlns:xlink="http://www.w3.org/1999/xlink" width="410pt" height="218pt" viewBox="0 0 410 218"><defs><symbol id="a" overflow="visible"><path d="M2.75-7.234c-.656 0-1.266.297-1.625.797C.656-5.797.438-4.844.438-3.5c0 2.438.796 3.734 2.312 3.734 1.5 0 2.313-1.296 2.313-3.671 0-1.407-.22-2.344-.688-3-.36-.5-.953-.797-1.625-.797m0 .78c.953 0 1.422.97 1.422 2.938C4.172-1.453 3.703-.5 2.734-.5c-.937 0-1.406-1-1.406-2.984 0-2 .469-2.97 1.422-2.97m0 0" style="stroke:none"/></symbol><symbol id="b" overflow="visible"><path d="M2.594-5.156V0h.875v-7.234H2.89c-.313 1.109-.516 1.265-1.875 1.437v.64Zm0 0" style="stroke:none"/></symbol><symbol id="c" overflow="visible"><path d="M5.063-.875H1.328c.094-.594.406-.969 1.281-1.5l1-.562c.985-.547 1.5-1.297 1.5-2.188a2.1 2.1 0 0 0-.656-1.547c-.422-.375-.937-.562-1.61-.562-.905 0-1.577.328-1.968.937-.25.39-.36.844-.375 1.563h.875c.031-.485.094-.782.219-1.016.218-.437.687-.703 1.219-.703.796 0 1.39.578 1.39 1.36 0 .577-.328 1.077-.953 1.437l-.922.531C.844-2.265.422-1.594.344-.015h4.719Zm0 0" style="stroke:none"/></symbol><symbol id="d" overflow="visible"><path d="M2.203-3.328h.485c.968 0 1.468.453 1.468 1.312 0 .922-.547 1.47-1.453 1.47-.969 0-1.437-.5-1.5-1.548h-.89c.046.578.14.953.312 1.281C1-.125 1.688.234 2.656.234c1.469 0 2.407-.89 2.407-2.25 0-.921-.36-1.421-1.204-1.718q.985-.423.985-1.5c0-1.25-.797-2-2.157-2C1.267-7.234.5-6.437.47-4.906h.875c.015-.438.062-.688.172-.907.187-.406.64-.64 1.187-.64.781 0 1.25.469 1.25 1.25 0 .5-.187.812-.578.984-.234.094-.562.14-1.172.157Zm0 0" style="stroke:none"/></symbol><symbol id="e" overflow="visible"><path d="M3.266-1.75V0h.89v-1.75h1.047v-.797H4.156v-4.687H3.5L.281-2.687v.937Zm0-.797h-2.22l2.22-3.187Zm0 0" style="stroke:none"/></symbol><symbol id="f" overflow="visible"><path d="M4.766-7.094H1.094l-.532 3.86h.813c.422-.485.75-.657 1.313-.657.953 0 1.546.657 1.546 1.704 0 1.015-.593 1.64-1.546 1.64-.782 0-1.25-.39-1.454-1.187h-.89c.125.578.219.859.437 1.109.407.547 1.125.86 1.922.86 1.422 0 2.422-1.047 2.422-2.547 0-1.391-.922-2.36-2.281-2.36-.5 0-.906.125-1.313.438l.282-1.985h2.953Zm0 0" style="stroke:none"/></symbol><symbol id="g" overflow="visible"><path d="M4.984-5.344c-.171-1.187-.937-1.89-2.015-1.89a2.27 2.27 0 0 0-1.906 1.03c-.438.72-.625 1.595-.625 2.907 0 1.219.156 1.985.593 2.625.375.594 1 .906 1.782.906 1.343 0 2.312-1.015 2.312-2.421 0-1.329-.89-2.266-2.172-2.266-.687 0-1.25.25-1.625.781.016-1.781.578-2.781 1.578-2.781.625 0 1.047.406 1.188 1.11Zm-2.14 1.657c.86 0 1.39.609 1.39 1.562 0 .922-.609 1.578-1.421 1.578s-1.438-.687-1.438-1.61c0-.905.61-1.53 1.469-1.53m0 0" style="stroke:none"/></symbol><symbol id="h" overflow="visible"><path d="M5.203-7.094H.453v.875h3.844C2.594-3.812 1.907-2.329 1.375 0h.938c.39-2.266 1.28-4.219 2.89-6.344Zm0 0" style="stroke:none"/></symbol><symbol id="i" overflow="visible"><path d="M3.906-3.812c.75-.454.969-.813.969-1.485 0-1.14-.86-1.937-2.125-1.937-1.25 0-2.125.797-2.125 1.922 0 .687.219 1.046.953 1.5-.812.406-1.203 1-1.203 1.796 0 1.329.969 2.25 2.375 2.25s2.375-.921 2.375-2.25c0-.796-.39-1.39-1.219-1.796M2.75-6.453c.75 0 1.234.453 1.234 1.172 0 .687-.5 1.125-1.234 1.125-.75 0-1.234-.438-1.234-1.14C1.516-6 2-6.454 2.75-6.454m0 3.047c.875 0 1.484.578 1.484 1.422 0 .859-.593 1.437-1.5 1.437-.859 0-1.468-.594-1.468-1.437 0-.86.593-1.422 1.484-1.422m0 0" style="stroke:none"/></symbol><symbol id="j" overflow="visible"><path d="M.531-1.656C.703-.47 1.453.234 2.547.234a2.27 2.27 0 0 0 1.906-1.03c.438-.72.64-1.595.64-2.907 0-1.219-.187-1.985-.609-2.625-.39-.594-1-.906-1.78-.906-1.36 0-2.329 1.015-2.329 2.422 0 1.328.906 2.265 2.188 2.265.671 0 1.171-.25 1.624-.797C4.173-1.547 3.61-.547 2.595-.547c-.61 0-1.047-.406-1.188-1.11Zm2.157-4.797c.828 0 1.437.687 1.437 1.61 0 .89-.594 1.515-1.469 1.515-.844 0-1.375-.61-1.375-1.563 0-.906.594-1.562 1.407-1.562m0 0" style="stroke:none"/></symbol><symbol id="k" overflow="visible"><path d="M2.844-3.125H.454v.719h2.39Zm0 0" style="stroke:none"/></symbol><symbol id="l" overflow="visible"><path d="M1.906-1.047H.875V0h1.031Zm0 0" style="stroke:none"/></symbol><symbol id="n" overflow="visible"><path d="M2.469-3.453h3.5v-1.375h-3.5v-1.813h3.984v-1.375H.813V0h1.656Zm0 0" style="stroke:none"/></symbol><symbol id="o" overflow="visible"><path d="M2.281-5.937H.734V0h1.547Zm0-2.079H.734v1.375h1.547Zm0 0" style="stroke:none"/></symbol><symbol id="p" overflow="visible"><path d="M4.406-5.937v.906c-.437-.688-.906-1-1.531-1-.531 0-1.11.25-1.516.687-.593.61-.906 1.469-.906 2.516C.453-1 1.422.25 2.843.25 3.47.25 3.86.047 4.407-.61v.813c0 .703-.515 1.203-1.234 1.203-.547 0-.89-.234-1.016-.687H.578c0 .453.172.781.578 1.11.469.39 1.125.562 1.953.562 1.72 0 2.75-.813 2.75-2.188v-6.14ZM3.156-4.75c.735 0 1.266.797 1.266 1.906 0 1.078-.516 1.813-1.281 1.813-.672 0-1.157-.735-1.157-1.813 0-1.125.485-1.906 1.172-1.906m0 0" style="stroke:none"/></symbol><symbol id="q" overflow="visible"><path d="M2.36-1.61H.702V0H2.36Zm0 0" style="stroke:none"/></symbol><symbol id="r" overflow="visible"><path d="M5.625-1.375H2.328c.203-.422.438-.656 1.594-1.469 1.344-1 1.75-1.578 1.75-2.64C5.672-7 4.625-7.97 2.984-7.97 1.375-7.969.422-7 .422-5.359v.28h1.484v-.25c0-.874.422-1.374 1.125-1.374.672 0 1.094.469 1.094 1.25 0 .86-.266 1.187-2 2.422C.797-2.141.391-1.453.328 0h5.297Zm0 0" style="stroke:none"/></symbol><symbol id="t" overflow="visible"><path d="M7.281-5.531C6.97-7.297 5.953-8.156 4.188-8.156c-1.079 0-1.938.344-2.532 1C.922-6.36.531-5.22.531-3.922c0 1.328.407 2.453 1.156 3.235.626.64 1.422.937 2.454.937 1.968 0 3.062-1.047 3.312-3.172H6.391c-.094.547-.203.922-.36 1.235-.328.671-1.015 1.03-1.875 1.03-1.593 0-2.61-1.265-2.61-3.265 0-2.062.97-3.328 2.516-3.328.657 0 1.266.188 1.594.5.297.281.453.61.578 1.219Zm0 0" style="stroke:none"/></symbol><symbol id="u" overflow="visible"><path d="M5.297 0v-5.766H4.39V-2.5c0 1.188-.625 1.953-1.578 1.953-.72 0-1.188-.437-1.188-1.14v-4.079H.719v4.454C.719-.36 1.438.25 2.547.25c.86 0 1.39-.297 1.937-1.047V0Zm0 0" style="stroke:none"/></symbol><symbol id="v" overflow="visible"><path d="M.594-8.016V0h.828v-.734C1.859-.062 2.438.25 3.25.25c1.516 0 2.5-1.234 2.5-3.156 0-1.875-.937-3.016-2.469-3.016-.781 0-1.344.297-1.781.938v-3.032Zm2.515 2.938c1.032 0 1.688.89 1.688 2.266C4.797-1.5 4.109-.61 3.109-.61 2.141-.61 1.5-1.484 1.5-2.844c0-1.344.64-2.234 1.61-2.234m0 0" style="stroke:none"/></symbol><symbol id="w" overflow="visible"><path d="M1.656-5.766H.734V0h.922Zm0-2.25H.72v1.157h.937Zm0 0" style="stroke:none"/></symbol><symbol id="x" overflow="visible"><path d="M5.188-3.828c-.047-.563-.172-.922-.391-1.25-.39-.531-1.094-.844-1.89-.844-1.563 0-2.563 1.219-2.563 3.14C.344-.921 1.328.25 2.89.25c1.375 0 2.25-.828 2.359-2.234h-.922c-.156.922-.625 1.39-1.406 1.39-1.016 0-1.625-.828-1.625-2.187 0-1.438.594-2.297 1.594-2.297.765 0 1.25.453 1.359 1.25Zm0 0" style="stroke:none"/></symbol><symbol id="y" overflow="visible"><path d="M4.813-4.156c0-1.14-.75-1.766-2.079-1.766-1.343 0-2.218.688-2.218 1.75 0 .906.468 1.328 1.828 1.656l.86.22c.64.155.89.39.89.796 0 .547-.547.906-1.344.906-.5 0-.906-.14-1.14-.39-.141-.157-.22-.328-.266-.735H.375C.422-.39 1.172.25 2.672.25c1.453 0 2.375-.719 2.375-1.828 0-.86-.484-1.328-1.625-1.594l-.875-.219c-.75-.171-1.078-.421-1.078-.828 0-.531.484-.86 1.219-.86.75 0 1.14.313 1.156.923Zm0 0" style="stroke:none"/></symbol><symbol id="z" overflow="visible"><path d="M.594 2.39h.922v-3C2-.015 2.546.25 3.28.25c1.5 0 2.469-1.203 2.469-3.031 0-1.938-.937-3.14-2.469-3.14-.781 0-1.406.343-1.844 1.03v-.875H.595Zm2.531-7.468c1.016 0 1.672.89 1.672 2.266C4.797-1.5 4.125-.61 3.125-.61c-.984 0-1.61-.875-1.61-2.235 0-1.344.626-2.234 1.61-2.234m0 0" style="stroke:none"/></symbol><symbol id="A" overflow="visible"><path d="M1.672-8.016H.75V0h.922Zm0 0" style="stroke:none"/></symbol><symbol id="B" overflow="visible"><path d="M.766-5.766V0h.922v-3.172c0-1.187.625-1.953 1.562-1.953.734 0 1.188.438 1.188 1.125v4h.921v-4.36c0-.952-.718-1.562-1.828-1.562-.86 0-1.406.328-1.922 1.125v-.969Zm0 0" style="stroke:none"/></symbol><symbol id="C" overflow="visible"><path d="M5.64-2.578c0-.875-.062-1.406-.234-1.828-.375-.953-1.25-1.516-2.328-1.516-1.61 0-2.64 1.219-2.64 3.11 0 1.906 1 3.062 2.625 3.062 1.312 0 2.234-.75 2.453-2h-.922c-.25.766-.766 1.156-1.5 1.156a1.61 1.61 0 0 1-1.39-.75c-.22-.328-.298-.656-.313-1.234Zm-4.218-.75c.078-1.063.719-1.75 1.64-1.75.938 0 1.594.719 1.594 1.75Zm0 0" style="stroke:none"/></symbol><symbol id="D" overflow="visible"><path d="M2.797-5.766h-.953v-1.578H.937v1.578h-.78v.75h.78v4.36c0 .594.391.906 1.11.906.234 0 .437-.016.75-.078v-.766c-.14.031-.25.047-.438.047-.406 0-.515-.11-.515-.515v-3.954h.953Zm0 0" style="stroke:none"/></symbol><symbol id="E" overflow="visible"><path d="M.766-5.766V0h.922v-2.984c0-1.391.578-2.016 1.843-1.985v-.922c-.156-.03-.25-.03-.36-.03-.593 0-1.03.343-1.562 1.202v-1.047Zm0 0" style="stroke:none"/></symbol><symbol id="F" overflow="visible"><path d="M2.984-5.922C1.36-5.922.391-4.782.391-2.844.39-.89 1.359.25 3 .25c1.625 0 2.61-1.156 2.61-3.047 0-2-.954-3.125-2.626-3.125M3-5.078c1.031 0 1.656.844 1.656 2.266 0 1.374-.64 2.218-1.656 2.218s-1.64-.843-1.64-2.25c0-1.39.624-2.234 1.64-2.234m0 0" style="stroke:none"/></symbol><symbol id="G" overflow="visible"><path d="M5.89-.531c-.109.015-.156.015-.202.015-.313 0-.5-.171-.5-.453v-3.39c0-1.016-.75-1.563-2.157-1.563-.86 0-1.531.234-1.922.656-.265.297-.375.641-.39 1.204h.922c.078-.704.5-1.016 1.343-1.016.844 0 1.297.297 1.297.86v.234c-.015.39-.218.547-.953.64-1.297.172-1.5.203-1.86.36-.671.28-1 .78-1 1.53C.469-.405 1.189.25 2.36.25c.72 0 1.297-.25 1.954-.844.062.594.343.844.953.844.187 0 .312-.016.625-.094ZM4.282-1.812c0 .312-.093.5-.36.75-.374.343-.827.515-1.374.515-.703 0-1.125-.344-1.125-.922 0-.61.39-.922 1.39-1.062.97-.125 1.157-.172 1.47-.313Zm0 0" style="stroke:none"/></symbol><symbol id="H" overflow="visible"><path d="M4.438-5.766v.844c-.454-.703-.97-1-1.688-1-1.39 0-2.36 1.297-2.36 3.14 0 .97.22 1.673.72 2.25.437.516.984.782 1.578.782.687 0 1.187-.312 1.671-1.031v.297c0 1.547-.437 2.109-1.578 2.109C2 1.625 1.594 1.313 1.5.656H.578c.078 1.078.922 1.735 2.188 1.735.843 0 1.547-.266 1.922-.735.437-.531.609-1.25.609-2.61v-4.812Zm-1.594.688c.969 0 1.515.812 1.515 2.266 0 1.406-.562 2.218-1.515 2.218s-1.5-.828-1.5-2.25c0-1.406.547-2.234 1.5-2.234m0 0" style="stroke:none"/></symbol><symbol id="I" overflow="visible"><path d="M4.266-5.766 2.672-1.28 1.203-5.766H.22L2.172.016l-.36.922c-.156.406-.343.562-.734.562-.156 0-.281-.031-.484-.062v.812c.187.11.375.14.61.14.296 0 .624-.093.859-.265.296-.219.453-.453.624-.922l2.579-6.969Zm0 0" style="stroke:none"/></symbol><symbol id="J" overflow="visible"><path d="M.766-5.766V0h.922v-3.625c0-.828.609-1.5 1.359-1.5.687 0 1.062.422 1.062 1.156V0h.922v-3.625c0-.828.61-1.5 1.36-1.5.672 0 1.062.422 1.062 1.156V0h.922v-4.328c0-1.031-.594-1.594-1.672-1.594-.766 0-1.219.219-1.766.875-.343-.625-.796-.875-1.546-.875-.766 0-1.297.281-1.782.969v-.813Zm0 0" style="stroke:none"/></symbol><symbol id="K" overflow="visible"><path d="M1.75-6.562H.906V0h.844Zm0 0" style="stroke:none"/></symbol><symbol id="L" overflow="visible"><path d="M.625-4.719V0h.766v-2.594c0-.969.5-1.594 1.265-1.594.61 0 .985.36.985.922V0h.75v-3.562c0-.782-.594-1.282-1.5-1.282-.703 0-1.157.266-1.563.922v-.797Zm0 0" style="stroke:none"/></symbol><symbol id="M" overflow="visible"><path d="M.484 1.969h.75V-.5c.407.484.844.703 1.454.703 1.234 0 2.015-.984 2.015-2.484 0-1.578-.766-2.563-2.016-2.563-.64 0-1.156.282-1.515.844v-.719H.484Zm2.079-6.125c.828 0 1.359.734 1.359 1.86C3.922-1.22 3.375-.5 2.562-.5c-.812 0-1.328-.719-1.328-1.828 0-1.094.516-1.828 1.329-1.828m0 0" style="stroke:none"/></symbol><symbol id="N" overflow="visible"><path d="M4.344 0v-4.719h-.75v2.672c0 .969-.5 1.594-1.297 1.594-.594 0-.969-.36-.969-.922v-3.344h-.75v3.64c0 .782.594 1.282 1.516 1.282.687 0 1.125-.234 1.562-.86V0Zm0 0" style="stroke:none"/></symbol><symbol id="O" overflow="visible"><path d="M2.281-4.719h-.765v-1.297h-.75v1.297H.125v.61h.64v3.562c0 .5.329.75.907.75.203 0 .36-.016.61-.062v-.625c-.11.03-.204.03-.36.03-.313 0-.406-.093-.406-.421v-3.234h.765Zm0 0" style="stroke:none"/></symbol><symbol id="Q" overflow="visible"><path d="M2.453-4.844c-1.344 0-2.125.938-2.125 2.516C.328-.734 1.11.203 2.453.203c1.328 0 2.14-.937 2.14-2.484 0-1.64-.78-2.563-2.14-2.563m0 .688c.844 0 1.36.687 1.36 1.86 0 1.124-.532 1.812-1.36 1.812S1.11-1.172 1.11-2.328c0-1.14.516-1.828 1.344-1.828m0 0" style="stroke:none"/></symbol><symbol id="R" overflow="visible"><path d="M1.344-4.719H.609V0h.735Zm0-1.843h-.75v.953h.75Zm0 0" style="stroke:none"/></symbol><symbol id="S" overflow="visible"><path d="M3.938-3.406c0-.922-.61-1.438-1.704-1.438S.422-4.28.422-3.406c0 .734.375 1.078 1.5 1.36l.703.171c.516.125.719.313.719.64 0 .454-.438.75-1.094.75-.406 0-.75-.124-.937-.312-.11-.14-.172-.281-.22-.61h-.78C.343-.311.953.204 2.188.204c1.187 0 1.937-.578 1.937-1.484 0-.703-.39-1.094-1.328-1.313l-.719-.172c-.61-.156-.875-.343-.875-.687 0-.438.39-.703 1-.703s.922.265.953.75Zm0 0" style="stroke:none"/></symbol><symbol id="T" overflow="visible"><path d="M4.61-2.11c0-.718-.048-1.156-.188-1.5-.297-.78-1.016-1.234-1.906-1.234-1.313 0-2.157.985-2.157 2.547S1.172.203 2.5.203c1.078 0 1.828-.61 2.016-1.64h-.75c-.203.625-.641.953-1.235.953a1.31 1.31 0 0 1-1.14-.61c-.172-.281-.235-.547-.25-1.015Zm-3.454-.609c.063-.875.594-1.437 1.36-1.437.765 0 1.297.593 1.297 1.437Zm0 0" style="stroke:none"/></symbol><symbol id="U" overflow="visible"><path d="M.625-4.719V0h.75v-2.453c.016-1.125.484-1.64 1.516-1.61v-.765c-.125-.016-.203-.016-.297-.016-.485 0-.844.282-1.281.985v-.86Zm0 0" style="stroke:none"/></symbol><symbol id="V" overflow="visible"><path d="M1.375-6.562H.609V0h.766Zm0 0" style="stroke:none"/></symbol><symbol id="W" overflow="visible"><path d="M4.813-.437c-.079.015-.11.015-.157.015-.265 0-.406-.14-.406-.375v-2.765c0-.844-.61-1.282-1.781-1.282-.688 0-1.235.188-1.563.547-.219.234-.297.516-.328.969h.766c.062-.563.406-.828 1.11-.828.671 0 1.046.25 1.046.703v.187c-.016.329-.172.454-.781.532-1.063.14-1.219.172-1.516.28-.547.235-.828.657-.828 1.267 0 .859.594 1.39 1.547 1.39C2.516.203 3 0 3.532-.484c.046.484.28.687.765.687.172 0 .266-.016.516-.078ZM3.5-1.484c0 .25-.078.406-.297.609a1.59 1.59 0 0 1-1.11.422c-.593 0-.937-.281-.937-.75 0-.5.328-.75 1.14-.86.798-.109.954-.156 1.204-.265Zm0 0" style="stroke:none"/></symbol><symbol id="X" overflow="visible"><path d="M3.64-4.719v.688c-.374-.563-.796-.813-1.39-.813C1.11-4.844.313-3.78.313-2.28c0 .797.187 1.375.593 1.844.36.421.797.64 1.297.64.563 0 .969-.25 1.36-.844v.25c0 1.25-.344 1.72-1.282 1.72-.64 0-.969-.25-1.047-.782H.47c.078.86.765 1.422 1.797 1.422.687 0 1.265-.235 1.562-.61.36-.437.5-1.03.5-2.14V-4.72Zm-1.312.563c.781 0 1.235.672 1.235 1.86 0 1.14-.454 1.812-1.235 1.812s-1.234-.672-1.234-1.844c0-1.14.453-1.828 1.234-1.828m0 0" style="stroke:none"/></symbol><symbol id="Y" overflow="visible"><path d="M3.484-4.719 2.188-1.047.984-4.719H.188L1.766.016l-.282.75c-.125.328-.28.453-.609.453-.125 0-.234-.016-.39-.047v.672c.156.078.312.125.5.125.25 0 .515-.094.703-.235.234-.171.375-.359.515-.75l2.094-5.703Zm0 0" style="stroke:none"/></symbol><symbol id="Z" overflow="visible"><path d="M.625-4.719V0h.766v-2.969c0-.672.484-1.219 1.109-1.219.547 0 .86.329.86.938V0h.765v-2.969c0-.672.484-1.219 1.11-1.219.546 0 .874.344.874.938V0h.75v-3.531c0-.86-.484-1.313-1.375-1.313-.625 0-1 .188-1.437.719-.281-.516-.656-.719-1.281-.719s-1.047.235-1.438.797v-.672Zm0 0" style="stroke:none"/></symbol><symbol id="aa" overflow="visible"><path d="M6.594.016 5.75-.687c.625-.688.922-1.516.922-2.563 0-2.047-1.266-3.422-3.156-3.422-1.907 0-3.172 1.375-3.172 3.438C.344-1.172 1.609.203 3.516.203c.656 0 1.187-.14 1.718-.453l.938.781Zm-2.266-1.86-.406.5.656.563c-.39.187-.687.25-1.078.25-1.39 0-2.328-1.078-2.328-2.703 0-1.61.937-2.703 2.344-2.703 1.39 0 2.328 1.093 2.328 2.703 0 .843-.235 1.5-.719 2.047Zm0 0" style="stroke:none"/></symbol></defs><path d="M0 0h410v218H0z" style="fill:#fff;fill-opacity:1;stroke:none"/><path d="M21.086 202.414h385.8V12.816h-385.8Zm0 0" style="stroke:none;fill-rule:nonzero;fill:#fff;fill-opacity:1"/><path d="M1094.998 385.997h643M1094.998 385.997v-6.425M1166.443 385.997v-6.425M1237.888 385.997v-6.425M1309.333 385.997v-6.425M1380.779 385.997v-6.425M1452.224 385.997v-6.425M1523.67 385.997v-6.425M1595.108 385.997v-6.425M1666.554 385.997v-6.425M1737.999 385.997v-6.425" style="fill:none;stroke-width:.833333;stroke-linecap:square;stroke-linejoin:round;stroke:#262626;stroke-opacity:1;stroke-miterlimit:10" transform="matrix(.6 0 0 .6 -635.913 -29.184)"/><use xlink:href="#a" x="18.087" y="216.616" style="fill:#262626;fill-opacity:1"/><use xlink:href="#b" x="60.954" y="216.616" style="fill:#262626;fill-opacity:1"/><use xlink:href="#c" x="103.821" y="216.616" style="fill:#262626;fill-opacity:1"/><use xlink:href="#d" x="146.687" y="216.616" style="fill:#262626;fill-opacity:1"/><use xlink:href="#e" x="189.554" y="216.616" style="fill:#262626;fill-opacity:1"/><use xlink:href="#f" x="232.421" y="216.616" style="fill:#262626;fill-opacity:1"/><use xlink:href="#g" x="275.287" y="216.616" style="fill:#262626;fill-opacity:1"/><use xlink:href="#h" x="318.154" y="216.616" style="fill:#262626;fill-opacity:1"/><use xlink:href="#i" x="361.021" y="216.616" style="fill:#262626;fill-opacity:1"/><use xlink:href="#j" x="403.887" y="216.616" style="fill:#262626;fill-opacity:1"/><path d="M1094.998 385.997V70.001M1094.998 385.997h6.432M1094.998 346.499h6.432M1094.998 307h6.432M1094.998 267.501h6.432M1094.998 228.003h6.432M1094.998 188.497h6.432M1094.998 148.999h6.432M1094.998 109.5h6.432M1094.998 70.001h6.432" style="fill:none;stroke-width:.833333;stroke-linecap:square;stroke-linejoin:round;stroke:#262626;stroke-opacity:1;stroke-miterlimit:10" transform="matrix(.6 0 0 .6 -635.913 -29.184)"/><g style="fill:#262626;fill-opacity:1"><use xlink:href="#k" x="-.313" y="206.316"/><use xlink:href="#a" x="3.017" y="206.316"/><use xlink:href="#l" x="8.578" y="206.316"/><use xlink:href="#b" x="11.358" y="206.316"/></g><use xlink:href="#a" x="11.087" y="182.616" style="fill:#262626;fill-opacity:1"/><g style="fill:#262626;fill-opacity:1"><use xlink:href="#a" x="2.687" y="158.916"/><use xlink:href="#l" x="8.248" y="158.916"/><use xlink:href="#b" x="11.028" y="158.916"/></g><g style="fill:#262626;fill-opacity:1"><use xlink:href="#a" x="2.687" y="135.216"/><use xlink:href="#l" x="8.248" y="135.216"/><use xlink:href="#c" x="11.028" y="135.216"/></g><g style="fill:#262626;fill-opacity:1"><use xlink:href="#a" x="2.687" y="111.516"/><use xlink:href="#l" x="8.248" y="111.516"/><use xlink:href="#d" x="11.028" y="111.516"/></g><g style="fill:#262626;fill-opacity:1"><use xlink:href="#a" x="2.687" y="87.816"/><use xlink:href="#l" x="8.248" y="87.816"/><use xlink:href="#e" x="11.028" y="87.816"/></g><g style="fill:#262626;fill-opacity:1"><use xlink:href="#a" x="2.687" y="64.116"/><use xlink:href="#l" x="8.248" y="64.116"/><use xlink:href="#f" x="11.028" y="64.116"/></g><g style="fill:#262626;fill-opacity:1"><use xlink:href="#a" x="2.687" y="40.416"/><use xlink:href="#l" x="8.248" y="40.416"/><use xlink:href="#g" x="11.028" y="40.416"/></g><g style="fill:#262626;fill-opacity:1"><use xlink:href="#a" x="2.687" y="16.716"/><use xlink:href="#l" x="8.248" y="16.716"/><use xlink:href="#h" x="11.028" y="16.716"/></g><g style="fill:#000;fill-opacity:1"><use xlink:href="#m" x="107.487" y="8.016"/><use xlink:href="#n" x="110.545" y="8.016"/><use xlink:href="#o" x="117.266" y="8.016"/><use xlink:href="#p" x="120.324" y="8.016"/><use xlink:href="#q" x="127.045" y="8.016"/><use xlink:href="#m" x="130.103" y="8.016"/><use xlink:href="#r" x="133.161" y="8.016"/></g><g style="fill:#000;fill-opacity:1"><use xlink:href="#s" x="139.287" y="8.016"/><use xlink:href="#t" x="142.345" y="8.016"/><use xlink:href="#u" x="150.287" y="8.016"/><use xlink:href="#v" x="156.403" y="8.016"/><use xlink:href="#w" x="162.519" y="8.016"/><use xlink:href="#x" x="164.961" y="8.016"/><use xlink:href="#s" x="170.461" y="8.016"/><use xlink:href="#y" x="173.519" y="8.016"/><use xlink:href="#z" x="179.019" y="8.016"/><use xlink:href="#A" x="185.135" y="8.016"/><use xlink:href="#w" x="187.577" y="8.016"/><use xlink:href="#B" x="190.018" y="8.016"/><use xlink:href="#C" x="196.134" y="8.016"/><use xlink:href="#s" x="202.25" y="8.016"/><use xlink:href="#w" x="205.308" y="8.016"/><use xlink:href="#B" x="207.75" y="8.016"/><use xlink:href="#D" x="213.866" y="8.016"/><use xlink:href="#C" x="216.924" y="8.016"/><use xlink:href="#E" x="223.04" y="8.016"/><use xlink:href="#z" x="226.703" y="8.016"/><use xlink:href="#F" x="232.819" y="8.016"/><use xlink:href="#A" x="238.935" y="8.016"/><use xlink:href="#G" x="241.377" y="8.016"/><use xlink:href="#D" x="247.492" y="8.016"/><use xlink:href="#w" x="250.55" y="8.016"/><use xlink:href="#B" x="252.992" y="8.016"/><use xlink:href="#H" x="259.108" y="8.016"/><use xlink:href="#s" x="265.224" y="8.016"/><use xlink:href="#z" x="268.282" y="8.016"/><use xlink:href="#F" x="274.398" y="8.016"/><use xlink:href="#A" x="280.514" y="8.016"/><use xlink:href="#I" x="282.956" y="8.016"/><use xlink:href="#B" x="288.456" y="8.016"/><use xlink:href="#F" x="294.572" y="8.016"/><use xlink:href="#J" x="300.687" y="8.016"/><use xlink:href="#w" x="309.85" y="8.016"/><use xlink:href="#G" x="312.292" y="8.016"/><use xlink:href="#A" x="318.408" y="8.016"/></g><path d="M-.002-5V5m-5-5h10m-8.535-3.535 7.07 7.07m-7.07 0 7.07-7.07" style="fill:none;stroke-width:.833333;stroke-linecap:butt;stroke-linejoin:miter;stroke:#000;stroke-opacity:1;stroke-miterlimit:10" transform="matrix(.6 0 0 .6 63.954 91.5)"/><path d="M0-5.003v10m-5-5H5m-8.536-3.535 7.07 7.077m-7.07 0 7.07-7.077" style="fill:none;stroke-width:.833333;stroke-linecap:butt;stroke-linejoin:miter;stroke:#000;stroke-opacity:1;stroke-miterlimit:10" transform="matrix(.6 0 0 .6 106.82 146.72)"/><path d="M0-4.997v10m-5-5H5m-8.535-3.536 7.07 7.07m-7.07 0 7.07-7.07" style="fill:none;stroke-width:.833333;stroke-linecap:butt;stroke-linejoin:miter;stroke:#000;stroke-opacity:1;stroke-miterlimit:10" transform="matrix(.6 0 0 .6 149.687 166.866)"/><path d="M.001-5V5m-5-5h10m-8.535-3.536 7.07 7.07m-7.07 0 7.07-7.07" style="fill:none;stroke-width:.833333;stroke-linecap:butt;stroke-linejoin:miter;stroke:#000;stroke-opacity:1;stroke-miterlimit:10" transform="matrix(.6 0 0 .6 192.554 174.45)"/><path d="M.002-5.003v10m-5-5h10m-8.535-3.535 7.07 7.076m-7.07 0 7.07-7.076" style="fill:none;stroke-width:.833333;stroke-linecap:butt;stroke-linejoin:miter;stroke:#000;stroke-opacity:1;stroke-miterlimit:10" transform="matrix(.6 0 0 .6 235.42 177.057)"/><path d="M.003-5V5m-5-5h10m-8.535-3.534 7.07 7.07m-7.07 0 7.07-7.07" style="fill:none;stroke-width:.833333;stroke-linecap:butt;stroke-linejoin:miter;stroke:#000;stroke-opacity:1;stroke-miterlimit:10" transform="matrix(.6 0 0 .6 278.287 178.242)"/><path d="M-.003-4.997v10m-5-5h10m-8.535-3.542 7.07 7.077m-7.07 0 7.07-7.077" style="fill:none;stroke-width:.833333;stroke-linecap:butt;stroke-linejoin:miter;stroke:#000;stroke-opacity:1;stroke-miterlimit:10" transform="matrix(.6 0 0 .6 321.154 178.479)"/><path d="m1094.998 109.103 1.289 1.159.644.586 1.29 1.198.644.612.638.612 1.289 1.25 1.289 1.276 1.289 1.302.638.657 1.289 1.341.645.677.644.684.645.69 1.289 1.393.638.71.644.71.645.716.644.722.645.73.644.735.645.742.638.743.644.748.645.756 1.289 1.523.645.768.644.775.638.781.645.781.644.795.645.787 1.289 1.602 1.289 1.615.638.82.644.814 1.29 1.653 1.289 1.667.644.84.638.846 1.29 1.693.644.853.644.86.645.865.644.86.638.872 1.29 1.745 1.288 1.757 1.29 1.771.644.892.638.892 1.934 2.695 1.289 1.81.644.912.638.911.645.912 1.289 1.836.644.924.645.918.644.925.638.93.645.932.645.924.644.938.645.93 1.933 2.813.638.944.645.944.644.938.645.95 1.289 1.888.644.95.638.951 1.934 2.852.645.957.644.95.645.957.638.957.644.95 3.223 4.786.644.964.638.957 3.223 4.785.645.963.638.957.644.95 2.578 3.829.645.95.638.951.644.957 1.934 2.852.644.944.645.95.644.944.638.944 1.934 2.832 1.934 2.813.638.93 1.933 2.794 1.934 2.773.638.925.644.918.645.911.645.918.644.911.645.905.644.912.645.905.638.898 1.289 1.797 1.289 1.784 1.289 1.77.638.88.644.879 1.29 1.744 1.933 2.598.638.853.645.86 1.933 2.538.645.84 1.289 1.667.638.827 1.289 1.64 1.289 1.628.644.807.645.801.638.794.645.795 1.289 1.575 1.933 2.324.638.762.645.762.644.755.645.749 1.289 1.484 1.289 1.458.638.723.644.723 1.29 1.419 1.289 1.393.644.69.638.684.645.677.644.67 1.29 1.329 1.288 1.302.638.638.645.638 1.289 1.25 1.289 1.224.645.599.644.592.638.593.645.579 1.289 1.146.644.56.645.553.644.547.638.54.645.534.644.528.645.52.644.515.645.507.645.502.638.495.644.488.645.482 1.289.95.644.462 1.29.912.637.443.645.442.644.436.645.43.644.423.645.417.644.41.638.41 1.29.795.644.39 1.29.768.644.372.638.37.644.365 1.29.716.644.352.644.345 1.29.677.637.332 1.29.651.644.313.645.319 1.289.612.638.3.644.299.645.293 1.289.572.644.28.645.274.638.273.644.274.645.26.644.267.645.254.645.26 1.289.495.638.248.644.24 1.934.704 1.289.455.638.222.644.221 1.934.645.644.208.645.202.638.208.645.202 2.578.781.644.189.645.182.638.189 1.933.547 1.934.527.638.17 2.578.677 1.29.325.637.163.645.163.644.156.645.163 2.578.625.638.15.644.156.645.15.644.156 1.934.449.638.15 1.29.299.644.143.644.15.645.143.644.15.638.143.645.143.644.15.645.143.644.137 1.934.43.638.137.645.143 3.222.683.638.137 1.29.274.644.13.644.136 1.29.26.637.131 3.223.651 1.29.247.637.13 3.223.62.644.116.638.124.645.117.644.124 2.579.469.638.117.644.11.645.118.644.11.645.118 1.933.332.638.11.645.111.644.104.645.11.644.105.645.11.645.105.638.104 1.933.313.645.097.644.104.645.098.638.098 3.222.488.645.091.645.098.638.09 3.222.457.645.084.638.091 3.867.508.638.078.644.085 3.868.469.638.071.644.078 3.223.359.638.065.644.071 1.29.13.644.072.645.065.644.059.638.065.645.065.644.059.645.065 2.578.234.638.059.644.058.645.052.644.059.645.052.644.059.645.052.638.052 1.29.104.644.046 1.289.104.644.045.638.052 4.512.32.638.038.645.046.644.039.645.046 1.933.117.638.045 1.29.079.644.032 1.289.078.644.033.638.039.645.039 1.289.065.645.039 1.933.098.638.032 2.578.13.645.026.644.033.638.033.645.026.644.032.645.026.644.033.645.026.645.032.638.026 1.289.052.644.033 2.578.104.638.026 1.29.052.644.02 1.933.078.639.026.644.02 1.29.052.644.02 1.289.051.638.02.644.026.645.02.644.025.645.02.644.026.645.02.644.026.638.02.645.025.645.02.644.026 1.29.039.644.026.638.02.644.025.645.02.644.026 1.29.039.644.026.638.02.644.02.645.025.644.02.645.026 1.29.039.644.026.638.02 1.289.038.644.026 1.29.04.644.026.638.02 1.289.038.644.026 1.934.059.638.02.645.025 3.867.118.638.02.644.025 3.223.098.638.02 3.223.097.644.013.638.02 3.223.097.644.013.645.02.638.02.644.019.645.013 1.29.039.644.013.644.02.638.019.645.013.644.02.645.013 1.289.039.644.013.638.02 1.29.025.644.02.644.013.645.02 1.29.025.637.02 1.29.026.644.02 1.933.038.638.014.645.013.644.02 2.578.051.639.013 1.933.04.645.006 1.933.039.638.013.645.013.644.006 1.29.026.644.007.644.013.638.006 1.29.026.644.007.645.013 1.289.013.638.013 1.289.013.644.013 1.29.013.644.013.644.007.638.006 2.579.026.644.013.645.007.638.006 2.578.026h.644l.645.007.638.006 1.933.02h.645l1.934.02h.638l1.289.012h.644l1.29.013h.644l.638.007h.644l1.29.013h.644l.644.006h.645l.638.007h1.289l.645.006h.644l.645.007h1.289l.638.006h.644l.645.007h1.933l.645.007h1.282l.645.006h2.578l.638.007h3.223l.644.006h4.506l.644.007h13.516l.644.006h14.798l.645.007h5.15l.644.006h3.216l.645.007h1.933l.645.006h1.927l.645.007h1.289l.644.006h1.283l.644.007h1.29l.644.006h.644l.645.007h.644l.638.006h1.29l.644.007h.645l1.289.013h.638l.644.006h.645l1.289.013h.644l.645.007.638.006h.644l1.934.02h.645l1.289.013.638.006 1.933.02h.645l1.289.013.638.006 1.289.013.644.013 2.579.026.638.007.644.006.645.014 1.289.013.644.013.645.006.638.007.644.013.645.006.644.013.645.007.644.013.645.006.638.013.645.007.644.013.645.006 1.933.04.645.006.638.013 3.222.065.645.006.638.013.644.02 3.223.065.638.013.645.02 1.289.026.644.02.645.012.644.02.645.013.638.02.644.012.645.02.645.013 1.289.039.644.013.638.02 3.867.117.638.02 3.223.097.645.026.644.02.638.019.645.026.644.02.645.026.644.02.645.025.644.02.638.026 1.29.052.644.02 1.933.077.638.027 3.223.13.645.032.638.026.644.026.645.033.644.026.645.033.644.026.645.032.644.026.638.033 1.29.065.644.026 1.934.098.638.032 1.933.098.645.039 1.289.065.638.039.644.032.645.04.644.032.645.04.645.032 1.289.078.638.039.644.032 2.578.157.645.045.638.04 1.289.077" style="fill:none;stroke-width:.833333;stroke-linecap:butt;stroke-linejoin:round;stroke:#000;stroke-opacity:1;stroke-miterlimit:10" transform="matrix(.6 0 0 .6 -635.913 -29.184)"/><path d="M98.246 135.398a2.749 2.749 0 1 1 0 5.5 2.75 2.75 0 0 1-2.75-2.75c0-1.52 1.234-2.75 2.75-2.75m0-.5a3.25 3.25 0 1 0 0 6.5 3.25 3.25 0 0 0 0-6.5M284.719 175.582c1.515 0 2.75 1.23 2.75 2.75s-1.235 2.75-2.75 2.75a2.749 2.749 0 1 1 0-5.5m0-.5a3.25 3.25 0 1 0 0 6.5 3.25 3.25 0 0 0 0-6.5m0 0" style="stroke:none;fill-rule:nonzero;fill:#000;fill-opacity:1"/><path d="M399.086 60.816V20.617H265.289v40.2Zm0 0" style="stroke:none;fill-rule:nonzero;fill:#fff;fill-opacity:1"/><g style="fill:#000;fill-opacity:1"><use xlink:href="#K" x="300.577" y="31.801"/><use xlink:href="#L" x="303.079" y="31.801"/><use xlink:href="#M" x="308.083" y="31.801"/><use xlink:href="#N" x="313.087" y="31.801"/><use xlink:href="#O" x="318.091" y="31.801"/><use xlink:href="#P" x="320.593" y="31.801"/><use xlink:href="#M" x="323.095" y="31.801"/><use xlink:href="#Q" x="328.099" y="31.801"/><use xlink:href="#R" x="333.103" y="31.801"/><use xlink:href="#L" x="335.101" y="31.801"/><use xlink:href="#O" x="340.105" y="31.801"/><use xlink:href="#S" x="342.607" y="31.801"/></g><path d="M.002-5.002v10m-5-5h10m-8.536-3.535 7.07 7.07m-7.07 0 7.07-7.07" style="fill:none;stroke-width:.833333;stroke-linecap:butt;stroke-linejoin:miter;stroke:#000;stroke-opacity:1;stroke-miterlimit:10" transform="matrix(.6 0 0 .6 283.308 28.2)"/><g style="fill:#000;fill-opacity:1"><use xlink:href="#K" x="300.577" y="44.316"/><use xlink:href="#L" x="303.079" y="44.316"/><use xlink:href="#O" x="308.083" y="44.316"/><use xlink:href="#T" x="310.585" y="44.316"/><use xlink:href="#U" x="315.589" y="44.316"/><use xlink:href="#M" x="318.586" y="44.316"/><use xlink:href="#Q" x="323.59" y="44.316"/><use xlink:href="#V" x="328.594" y="44.316"/><use xlink:href="#W" x="330.592" y="44.316"/><use xlink:href="#O" x="335.596" y="44.316"/><use xlink:href="#R" x="338.098" y="44.316"/><use xlink:href="#L" x="340.096" y="44.316"/><use xlink:href="#X" x="345.1" y="44.316"/><use xlink:href="#P" x="350.104" y="44.316"/><use xlink:href="#M" x="352.606" y="44.316"/><use xlink:href="#Q" x="357.61" y="44.316"/><use xlink:href="#V" x="362.614" y="44.316"/><use xlink:href="#Y" x="364.612" y="44.316"/><use xlink:href="#L" x="369.112" y="44.316"/><use xlink:href="#Q" x="374.116" y="44.316"/><use xlink:href="#Z" x="379.12" y="44.316"/><use xlink:href="#R" x="386.617" y="44.316"/><use xlink:href="#W" x="388.615" y="44.316"/><use xlink:href="#V" x="393.619" y="44.316"/></g><path d="M1507.003 116.499h50.058" style="fill:none;stroke-width:.833333;stroke-linecap:butt;stroke-linejoin:round;stroke:#000;stroke-opacity:1;stroke-miterlimit:10" transform="matrix(.6 0 0 .6 -635.913 -29.184)"/><g style="fill:#000;fill-opacity:1"><use xlink:href="#aa" x="300.577" y="56.831"/><use xlink:href="#N" x="307.579" y="56.831"/><use xlink:href="#T" x="312.583" y="56.831"/><use xlink:href="#U" x="317.587" y="56.831"/><use xlink:href="#Y" x="320.584" y="56.831"/><use xlink:href="#P" x="325.084" y="56.831"/><use xlink:href="#M" x="327.586" y="56.831"/><use xlink:href="#Q" x="332.59" y="56.831"/><use xlink:href="#R" x="337.594" y="56.831"/><use xlink:href="#L" x="339.592" y="56.831"/><use xlink:href="#O" x="344.596" y="56.831"/><use xlink:href="#S" x="347.098" y="56.831"/></g><path d="M283.309 50.48a2.749 2.749 0 1 1 0 5.5 2.749 2.749 0 1 1 0-5.5m0-.5a3.25 3.25 0 1 0 0 6.5 3.25 3.25 0 0 0 0-6.5m0 0" style="stroke:none;fill-rule:nonzero;fill:#000;fill-opacity:1"/><path d="M1502.003 150.001V83.003h222.995V150Zm0 0" style="fill:none;stroke-width:.833333;stroke-linecap:butt;stroke-linejoin:miter;stroke:#262626;stroke-opacity:1;stroke-miterlimit:10" transform="matrix(.6 0 0 .6 -635.913 -29.184)"/></svg>