<svg xmlns="http://www.w3.org/2000/svg" xmlns:xlink="http://www.w3.org/1999/xlink" width="407pt" height="218pt" viewBox="0 0 407 218"><defs><symbol id="a" overflow="visible"><path d="M2.75-7.234c-.656 0-1.266.297-1.625.797C.656-5.797.438-4.844.438-3.5c0 2.438.796 3.734 2.312 3.734 1.5 0 2.313-1.296 2.313-3.671 0-1.407-.22-2.344-.688-3-.36-.5-.953-.797-1.625-.797m0 .78c.953 0 1.422.97 1.422 2.938C4.172-1.453 3.703-.5 2.734-.5c-.937 0-1.406-1-1.406-2.984 0-2 .469-2.97 1.422-2.97m0 0" style="stroke:none"/></symbol><symbol id="b" overflow="visible"><path d="M2.594-5.156V0h.875v-7.234H2.89c-.313 1.109-.516 1.265-1.875 1.437v.64Zm0 0" style="stroke:none"/></symbol><symbol id="c" overflow="visible"><path d="M5.063-.875H1.328c.094-.594.406-.969 1.281-1.5l1-.562c.985-.547 1.5-1.297 1.5-2.188a2.1 2.1 0 0 0-.656-1.547c-.422-.375-.937-.562-1.61-.562-.905 0-1.577.328-1.968.937-.25.39-.36.844-.375 1.563h.875c.031-.485.094-.782.219-1.016.218-.437.687-.703 1.219-.703.796 0 1.39.578 1.39 1.36 0 .577-.328 1.077-.953 1.437l-.922.531C.844-2.265.422-1.594.344-.015h4.719Zm0 0" style="stroke:none"/></symbol><symbol id="d" overflow="visible"><path d="M2.203-3.328h.485c.968 0 1.468.453 1.468 1.312 0 .922-.547 1.47-1.453 1.47-.969 0-1.437-.5-1.5-1.548h-.89c.046.578.14.953.312 1.281C1-.125 1.688.234 2.656.234c1.469 0 2.407-.89 2.407-2.25 0-.921-.36-1.421-1.204-1.718q.985-.423.985-1.5c0-1.25-.797-2-2.157-2C1.267-7.234.5-6.437.47-4.906h.875c.015-.438.062-.688.172-.907.187-.406.64-.64 1.187-.64.781 0 1.25.469 1.25 1.25 0 .5-.187.812-.578.984-.234.094-.562.14-1.172.157Zm0 0" style="stroke:none"/></symbol><symbol id="e" overflow="visible"><path d="M3.266-1.75V0h.89v-1.75h1.047v-.797H4.156v-4.687H3.5L.281-2.687v.937Zm0-.797h-2.22l2.22-3.187Zm0 0" style="stroke:none"/></symbol><symbol id="f" overflow="visible"><path d="M4.766-7.094H1.094l-.532 3.86h.813c.422-.485.75-.657 1.313-.657.953 0 1.546.657 1.546 1.704 0 1.015-.593 1.64-1.546 1.64-.782 0-1.25-.39-1.454-1.187h-.89c.125.578.219.859.437 1.109.407.547 1.125.86 1.922.86 1.422 0 2.422-1.047 2.422-2.547 0-1.391-.922-2.36-2.281-2.36-.5 0-.906.125-1.313.438l.282-1.985h2.953Zm0 0" style="stroke:none"/></symbol><symbol id="g" overflow="visible"><path d="M4.984-5.344c-.171-1.187-.937-1.89-2.015-1.89a2.27 2.27 0 0 0-1.906 1.03c-.438.72-.625 1.595-.625 2.907 0 1.219.156 1.985.593 2.625.375.594 1 .906 1.782.906 1.343 0 2.312-1.015 2.312-2.421 0-1.329-.89-2.266-2.172-2.266-.687 0-1.25.25-1.625.781.016-1.781.578-2.781 1.578-2.781.625 0 1.047.406 1.188 1.11Zm-2.14 1.657c.86 0 1.39.609 1.39 1.562 0 .922-.609 1.578-1.421 1.578s-1.438-.687-1.438-1.61c0-.905.61-1.53 1.469-1.53m0 0" style="stroke:none"/></symbol><symbol id="h" overflow="visible"><path d="M5.203-7.094H.453v.875h3.844C2.594-3.812 1.907-2.329 1.375 0h.938c.39-2.266 1.28-4.219 2.89-6.344Zm0 0" style="stroke:none"/></symbol><symbol id="i" overflow="visible"><path d="M3.906-3.812c.75-.454.969-.813.969-1.485 0-1.14-.86-1.937-2.125-1.937-1.25 0-2.125.797-2.125 1.922 0 .687.219 1.046.953 1.5-.812.406-1.203 1-1.203 1.796 0 1.329.969 2.25 2.375 2.25s2.375-.921 2.375-2.25c0-.796-.39-1.39-1.219-1.796M2.75-6.453c.75 0 1.234.453 1.234 1.172 0 .687-.5 1.125-1.234 1.125-.75 0-1.234-.438-1.234-1.14C1.516-6 2-6.454 2.75-6.454m0 3.047c.875 0 1.484.578 1.484 1.422 0 .859-.593 1.437-1.5 1.437-.859 0-1.468-.594-1.468-1.437 0-.86.593-1.422 1.484-1.422m0 0" style="stroke:none"/></symbol><symbol id="j" overflow="visible"><path d="M.531-1.656C.703-.47 1.453.234 2.547.234a2.27 2.27 0 0 0 1.906-1.03c.438-.72.64-1.595.64-2.907 0-1.219-.187-1.985-.609-2.625-.39-.594-1-.906-1.78-.906-1.36 0-2.329 1.015-2.329 2.422 0 1.328.906 2.265 2.188 2.265.671 0 1.171-.25 1.624-.797C4.173-1.547 3.61-.547 2.595-.547c-.61 0-1.047-.406-1.188-1.11Zm2.157-4.797c.828 0 1.437.687 1.437 1.61 0 .89-.594 1.515-1.469 1.515-.844 0-1.375-.61-1.375-1.563 0-.906.594-1.562 1.407-1.562m0 0" style="stroke:none"/></symbol><symbol id="k" overflow="visible"><path d="M1.906-1.047H.875V0h1.031Zm0 0" style="stroke:none"/></symbol><symbol id="m" overflow="visible"><path d="M2.469-3.453h3.5v-1.375h-3.5v-1.813h3.984v-1.375H.813V0h1.656Zm0 0" style="stroke:none"/></symbol><symbol id="n" overflow="visible"><path d="M2.281-5.937H.734V0h1.547Zm0-2.079H.734v1.375h1.547Zm0 0" style="stroke:none"/></symbol><symbol id="o" overflow="visible"><path d="M4.406-5.937v.906c-.437-.688-.906-1-1.531-1-.531 0-1.11.25-1.516.687-.593.61-.906 1.469-.906 2.516C.453-1 1.422.25 2.843.25 3.47.25 3.86.047 4.407-.61v.813c0 .703-.515 1.203-1.234 1.203-.547 0-.89-.234-1.016-.687H.578c0 .453.172.781.578 1.11.469.39 1.125.562 1.953.562 1.72 0 2.75-.813 2.75-2.188v-6.14ZM3.156-4.75c.735 0 1.266.797 1.266 1.906 0 1.078-.516 1.813-1.281 1.813-.672 0-1.157-.735-1.157-1.813 0-1.125.485-1.906 1.172-1.906m0 0" style="stroke:none"/></symbol><symbol id="p" overflow="visible"><path d="M2.36-1.61H.702V0H2.36Zm0 0" style="stroke:none"/></symbol><symbol id="q" overflow="visible"><path d="M5.734-3h-.812v-4.797H3.109L.266-3.03v1.297H3.39V0h1.53v-1.734h.813ZM3.391-3H1.359l2.032-3.344Zm0 0" style="stroke:none"/></symbol><symbol id="s" overflow="visible"><path d="M7.11-8.016h-.97v6.547L1.954-8.016H.843V0h.954v-6.5L5.953 0H7.11Zm0 0" style="stroke:none"/></symbol><symbol id="t" overflow="visible"><path d="M5.64-2.578c0-.875-.062-1.406-.234-1.828-.375-.953-1.25-1.516-2.328-1.516-1.61 0-2.64 1.219-2.64 3.11 0 1.906 1 3.062 2.625 3.062 1.312 0 2.234-.75 2.453-2h-.922c-.25.766-.766 1.156-1.5 1.156a1.61 1.61 0 0 1-1.39-.75c-.22-.328-.298-.656-.313-1.234Zm-4.218-.75c.078-1.063.719-1.75 1.64-1.75.938 0 1.594.719 1.594 1.75Zm0 0" style="stroke:none"/></symbol><symbol id="u" overflow="visible"><path d="M6.094 0 7.78-5.766H6.75L5.61-1.28 4.483-5.766H3.36L2.25-1.28 1.078-5.766H.062L1.735 0h1.032L3.89-4.516 5.047 0Zm0 0" style="stroke:none"/></symbol><symbol id="v" overflow="visible"><path d="M2.797-5.766h-.953v-1.578H.937v1.578h-.78v.75h.78v4.36c0 .594.391.906 1.11.906.234 0 .437-.016.75-.078v-.766c-.14.031-.25.047-.438.047-.406 0-.515-.11-.515-.515v-3.954h.953Zm0 0" style="stroke:none"/></symbol><symbol id="w" overflow="visible"><path d="M2.984-5.922C1.36-5.922.391-4.782.391-2.844.39-.89 1.359.25 3 .25c1.625 0 2.61-1.156 2.61-3.047 0-2-.954-3.125-2.626-3.125M3-5.078c1.031 0 1.656.844 1.656 2.266 0 1.374-.64 2.218-1.656 2.218s-1.64-.843-1.64-2.25c0-1.39.624-2.234 1.64-2.234m0 0" style="stroke:none"/></symbol><symbol id="x" overflow="visible"><path d="M.766-5.766V0h.922v-3.172c0-1.187.625-1.953 1.562-1.953.734 0 1.188.438 1.188 1.125v4h.921v-4.36c0-.952-.718-1.562-1.828-1.562-.86 0-1.406.328-1.922 1.125v-.969Zm0 0" style="stroke:none"/></symbol><symbol id="y" overflow="visible"><path d="M1.656-5.766H.734V0h.922Zm0-2.25H.72v1.157h.937Zm0 0" style="stroke:none"/></symbol><symbol id="z" overflow="visible"><path d="M.766-5.766V0h.922v-2.984c0-1.391.578-2.016 1.843-1.985v-.922c-.156-.03-.25-.03-.36-.03-.593 0-1.03.343-1.562 1.202v-1.047Zm0 0" style="stroke:none"/></symbol><symbol id="A" overflow="visible"><path d="M.594 2.39h.922v-3C2-.015 2.546.25 3.28.25c1.5 0 2.469-1.203 2.469-3.031 0-1.938-.937-3.14-2.469-3.14-.781 0-1.406.343-1.844 1.03v-.875H.595Zm2.531-7.468c1.016 0 1.672.89 1.672 2.266C4.797-1.5 4.125-.61 3.125-.61c-.984 0-1.61-.875-1.61-2.235 0-1.344.626-2.234 1.61-2.234m0 0" style="stroke:none"/></symbol><symbol id="B" overflow="visible"><path d="M1.672-8.016H.75V0h.922Zm0 0" style="stroke:none"/></symbol><symbol id="C" overflow="visible"><path d="M5.89-.531c-.109.015-.156.015-.202.015-.313 0-.5-.171-.5-.453v-3.39c0-1.016-.75-1.563-2.157-1.563-.86 0-1.531.234-1.922.656-.265.297-.375.641-.39 1.204h.922c.078-.704.5-1.016 1.343-1.016.844 0 1.297.297 1.297.86v.234c-.015.39-.218.547-.953.64-1.297.172-1.5.203-1.86.36-.671.28-1 .78-1 1.53C.469-.405 1.189.25 2.36.25c.72 0 1.297-.25 1.954-.844.062.594.343.844.953.844.187 0 .312-.016.625-.094ZM4.282-1.812c0 .312-.093.5-.36.75-.374.343-.827.515-1.374.515-.703 0-1.125-.344-1.125-.922 0-.61.39-.922 1.39-1.062.97-.125 1.157-.172 1.47-.313Zm0 0" style="stroke:none"/></symbol><symbol id="D" overflow="visible"><path d="M4.438-5.766v.844c-.454-.703-.97-1-1.688-1-1.39 0-2.36 1.297-2.36 3.14 0 .97.22 1.673.72 2.25.437.516.984.782 1.578.782.687 0 1.187-.312 1.671-1.031v.297c0 1.547-.437 2.109-1.578 2.109C2 1.625 1.594 1.313 1.5.656H.578c.078 1.078.922 1.735 2.188 1.735.843 0 1.547-.266 1.922-.735.437-.531.609-1.25.609-2.61v-4.812Zm-1.594.688c.969 0 1.515.812 1.515 2.266 0 1.406-.562 2.218-1.515 2.218s-1.5-.828-1.5-2.25c0-1.406.547-2.234 1.5-2.234m0 0" style="stroke:none"/></symbol><symbol id="E" overflow="visible"><path d="M4.266-5.766 2.672-1.28 1.203-5.766H.22L2.172.016l-.36.922c-.156.406-.343.562-.734.562-.156 0-.281-.031-.484-.062v.812c.187.11.375.14.61.14.296 0 .624-.093.859-.265.296-.219.453-.453.624-.922l2.579-6.969Zm0 0" style="stroke:none"/></symbol><symbol id="F" overflow="visible"><path d="M.766-5.766V0h.922v-3.625c0-.828.609-1.5 1.359-1.5.687 0 1.062.422 1.062 1.156V0h.922v-3.625c0-.828.61-1.5 1.36-1.5.672 0 1.062.422 1.062 1.156V0h.922v-4.328c0-1.031-.594-1.594-1.672-1.594-.766 0-1.219.219-1.766.875-.343-.625-.796-.875-1.546-.875-.766 0-1.297.281-1.782.969v-.813Zm0 0" style="stroke:none"/></symbol><symbol id="G" overflow="visible"><path d="M1.75-6.562H.906V0h.844Zm0 0" style="stroke:none"/></symbol><symbol id="H" overflow="visible"><path d="M.625-4.719V0h.766v-2.594c0-.969.5-1.594 1.265-1.594.61 0 .985.36.985.922V0h.75v-3.562c0-.782-.594-1.282-1.5-1.282-.703 0-1.157.266-1.563.922v-.797Zm0 0" style="stroke:none"/></symbol><symbol id="I" overflow="visible"><path d="M.484 1.969h.75V-.5c.407.484.844.703 1.454.703 1.234 0 2.015-.984 2.015-2.484 0-1.578-.766-2.563-2.016-2.563-.64 0-1.156.282-1.515.844v-.719H.484Zm2.079-6.125c.828 0 1.359.734 1.359 1.86C3.922-1.22 3.375-.5 2.562-.5c-.812 0-1.328-.719-1.328-1.828 0-1.094.516-1.828 1.329-1.828m0 0" style="stroke:none"/></symbol><symbol id="J" overflow="visible"><path d="M4.344 0v-4.719h-.75v2.672c0 .969-.5 1.594-1.297 1.594-.594 0-.969-.36-.969-.922v-3.344h-.75v3.64c0 .782.594 1.282 1.516 1.282.687 0 1.125-.234 1.562-.86V0Zm0 0" style="stroke:none"/></symbol><symbol id="K" overflow="visible"><path d="M2.281-4.719h-.765v-1.297h-.75v1.297H.125v.61h.64v3.562c0 .5.329.75.907.75.203 0 .36-.016.61-.062v-.625c-.11.03-.204.03-.36.03-.313 0-.406-.093-.406-.421v-3.234h.765Zm0 0" style="stroke:none"/></symbol><symbol id="M" overflow="visible"><path d="M2.453-4.844c-1.344 0-2.125.938-2.125 2.516C.328-.734 1.11.203 2.453.203c1.328 0 2.14-.937 2.14-2.484 0-1.64-.78-2.563-2.14-2.563m0 .688c.844 0 1.36.687 1.36 1.86 0 1.124-.532 1.812-1.36 1.812S1.11-1.172 1.11-2.328c0-1.14.516-1.828 1.344-1.828m0 0" style="stroke:none"/></symbol><symbol id="N" overflow="visible"><path d="M1.344-4.719H.609V0h.735Zm0-1.843h-.75v.953h.75Zm0 0" style="stroke:none"/></symbol><symbol id="O" overflow="visible"><path d="M3.938-3.406c0-.922-.61-1.438-1.704-1.438S.422-4.28.422-3.406c0 .734.375 1.078 1.5 1.36l.703.171c.516.125.719.313.719.64 0 .454-.438.75-1.094.75-.406 0-.75-.124-.937-.312-.11-.14-.172-.281-.22-.61h-.78C.343-.311.953.204 2.188.204c1.187 0 1.937-.578 1.937-1.484 0-.703-.39-1.094-1.328-1.313l-.719-.172c-.61-.156-.875-.343-.875-.687 0-.438.39-.703 1-.703s.922.265.953.75Zm0 0" style="stroke:none"/></symbol><symbol id="P" overflow="visible"><path d="M4.61-2.11c0-.718-.048-1.156-.188-1.5-.297-.78-1.016-1.234-1.906-1.234-1.313 0-2.157.985-2.157 2.547S1.172.203 2.5.203c1.078 0 1.828-.61 2.016-1.64h-.75c-.203.625-.641.953-1.235.953a1.31 1.31 0 0 1-1.14-.61c-.172-.281-.235-.547-.25-1.015Zm-3.454-.609c.063-.875.594-1.437 1.36-1.437.765 0 1.297.593 1.297 1.437Zm0 0" style="stroke:none"/></symbol><symbol id="Q" overflow="visible"><path d="M.625-4.719V0h.75v-2.453c.016-1.125.484-1.64 1.516-1.61v-.765c-.125-.016-.203-.016-.297-.016-.485 0-.844.282-1.281.985v-.86Zm0 0" style="stroke:none"/></symbol><symbol id="R" overflow="visible"><path d="M1.375-6.562H.609V0h.766Zm0 0" style="stroke:none"/></symbol><symbol id="S" overflow="visible"><path d="M4.813-.437c-.079.015-.11.015-.157.015-.265 0-.406-.14-.406-.375v-2.765c0-.844-.61-1.282-1.781-1.282-.688 0-1.235.188-1.563.547-.219.234-.297.516-.328.969h.766c.062-.563.406-.828 1.11-.828.671 0 1.046.25 1.046.703v.187c-.016.329-.172.454-.781.532-1.063.14-1.219.172-1.516.28-.547.235-.828.657-.828 1.267 0 .859.594 1.39 1.547 1.39C2.516.203 3 0 3.532-.484c.046.484.28.687.765.687.172 0 .266-.016.516-.078ZM3.5-1.484c0 .25-.078.406-.297.609a1.59 1.59 0 0 1-1.11.422c-.593 0-.937-.281-.937-.75 0-.5.328-.75 1.14-.86.798-.109.954-.156 1.204-.265Zm0 0" style="stroke:none"/></symbol><symbol id="T" overflow="visible"><path d="M3.64-4.719v.688c-.374-.563-.796-.813-1.39-.813C1.11-4.844.313-3.78.313-2.28c0 .797.187 1.375.593 1.844.36.421.797.64 1.297.64.563 0 .969-.25 1.36-.844v.25c0 1.25-.344 1.72-1.282 1.72-.64 0-.969-.25-1.047-.782H.47c.078.86.765 1.422 1.797 1.422.687 0 1.265-.235 1.562-.61.36-.437.5-1.03.5-2.14V-4.72Zm-1.312.563c.781 0 1.235.672 1.235 1.86 0 1.14-.454 1.812-1.235 1.812s-1.234-.672-1.234-1.844c0-1.14.453-1.828 1.234-1.828m0 0" style="stroke:none"/></symbol><symbol id="U" overflow="visible"><path d="M3.484-4.719 2.188-1.047.984-4.719H.188L1.766.016l-.282.75c-.125.328-.28.453-.609.453-.125 0-.234-.016-.39-.047v.672c.156.078.312.125.5.125.25 0 .515-.094.703-.235.234-.171.375-.359.515-.75l2.094-5.703Zm0 0" style="stroke:none"/></symbol><symbol id="V" overflow="visible"><path d="M.625-4.719V0h.766v-2.969c0-.672.484-1.219 1.109-1.219.547 0 .86.329.86.938V0h.765v-2.969c0-.672.484-1.219 1.11-1.219.546 0 .874.344.874.938V0h.75v-3.531c0-.86-.484-1.313-1.375-1.313-.625 0-1 .188-1.437.719-.281-.516-.656-.719-1.281-.719s-1.047.235-1.438.797v-.672Zm0 0" style="stroke:none"/></symbol><symbol id="W" overflow="visible"><path d="M6.594.016 5.75-.687c.625-.688.922-1.516.922-2.563 0-2.047-1.266-3.422-3.156-3.422-1.907 0-3.172 1.375-3.172 3.438C.344-1.172 1.609.203 3.516.203c.656 0 1.187-.14 1.718-.453l.938.781Zm-2.266-1.86-.406.5.656.563c-.39.187-.687.25-1.078.25-1.39 0-2.328-1.078-2.328-2.703 0-1.61.937-2.703 2.344-2.703 1.39 0 2.328 1.093 2.328 2.703 0 .843-.235 1.5-.719 2.047Zm0 0" style="stroke:none"/></symbol></defs><path d="M0 0h407v218H0z" style="fill:#fff;fill-opacity:1;stroke:none"/><path d="M17.977 202.305h385.8V12.707h-385.8Zm0 0" style="stroke:none;fill-rule:nonzero;fill:#fff;fill-opacity:1"/><path d="M1094.997 824.997H1738M1094.997 824.997v-6.425M1166.443 824.997v-6.425M1237.888 824.997v-6.425M1309.333 824.997v-6.425M1380.779 824.997v-6.425M1452.224 824.997v-6.425M1523.67 824.997v-6.425M1595.108 824.997v-6.425M1666.553 824.997v-6.425M1737.999 824.997v-6.425" style="fill:none;stroke-width:.833333;stroke-linecap:square;stroke-linejoin:round;stroke:#262626;stroke-opacity:1;stroke-miterlimit:10" transform="matrix(.6 0 0 .6 -639.022 -292.694)"/><use xlink:href="#a" x="14.978" y="216.506" style="fill:#262626;fill-opacity:1"/><use xlink:href="#b" x="57.845" y="216.506" style="fill:#262626;fill-opacity:1"/><use xlink:href="#c" x="100.711" y="216.506" style="fill:#262626;fill-opacity:1"/><use xlink:href="#d" x="143.578" y="216.506" style="fill:#262626;fill-opacity:1"/><use xlink:href="#e" x="186.445" y="216.506" style="fill:#262626;fill-opacity:1"/><use xlink:href="#f" x="229.311" y="216.506" style="fill:#262626;fill-opacity:1"/><use xlink:href="#g" x="272.178" y="216.506" style="fill:#262626;fill-opacity:1"/><use xlink:href="#h" x="315.045" y="216.506" style="fill:#262626;fill-opacity:1"/><use xlink:href="#i" x="357.911" y="216.506" style="fill:#262626;fill-opacity:1"/><use xlink:href="#j" x="400.778" y="216.506" style="fill:#262626;fill-opacity:1"/><path d="M1094.997 824.997V509.001M1094.997 824.88h6.433M1094.997 761.703h6.433M1094.997 698.526h6.433M1094.997 635.349h6.433M1094.997 572.178h6.433M1094.997 509.001h6.433" style="fill:none;stroke-width:.833333;stroke-linecap:square;stroke-linejoin:round;stroke:#262626;stroke-opacity:1;stroke-miterlimit:10" transform="matrix(.6 0 0 .6 -639.022 -292.694)"/><use xlink:href="#a" x="7.978" y="206.133" style="fill:#262626;fill-opacity:1"/><g style="fill:#262626;fill-opacity:1"><use xlink:href="#a" x="-.422" y="168.227"/><use xlink:href="#k" x="5.138" y="168.227"/><use xlink:href="#c" x="7.918" y="168.227"/></g><g style="fill:#262626;fill-opacity:1"><use xlink:href="#a" x="-.422" y="130.322"/><use xlink:href="#k" x="5.138" y="130.322"/><use xlink:href="#e" x="7.918" y="130.322"/></g><g style="fill:#262626;fill-opacity:1"><use xlink:href="#a" x="-.422" y="92.417"/><use xlink:href="#k" x="5.138" y="92.417"/><use xlink:href="#g" x="7.918" y="92.417"/></g><g style="fill:#262626;fill-opacity:1"><use xlink:href="#a" x="-.422" y="54.512"/><use xlink:href="#k" x="5.138" y="54.512"/><use xlink:href="#i" x="7.918" y="54.512"/></g><use xlink:href="#b" x="7.978" y="16.606" style="fill:#262626;fill-opacity:1"/><g style="fill:#000;fill-opacity:1"><use xlink:href="#l" x="115.778" y="7.906"/><use xlink:href="#m" x="118.836" y="7.906"/><use xlink:href="#n" x="125.557" y="7.906"/><use xlink:href="#o" x="128.615" y="7.906"/><use xlink:href="#p" x="135.336" y="7.906"/><use xlink:href="#l" x="138.394" y="7.906"/><use xlink:href="#q" x="141.452" y="7.906"/></g><g style="fill:#000;fill-opacity:1"><use xlink:href="#r" x="147.578" y="7.906"/><use xlink:href="#s" x="150.636" y="7.906"/><use xlink:href="#t" x="158.578" y="7.906"/><use xlink:href="#u" x="164.694" y="7.906"/><use xlink:href="#v" x="172.636" y="7.906"/><use xlink:href="#w" x="175.694" y="7.906"/><use xlink:href="#x" x="181.809" y="7.906"/><use xlink:href="#r" x="187.925" y="7.906"/><use xlink:href="#y" x="190.983" y="7.906"/><use xlink:href="#x" x="193.425" y="7.906"/><use xlink:href="#v" x="199.541" y="7.906"/><use xlink:href="#t" x="202.599" y="7.906"/><use xlink:href="#z" x="208.715" y="7.906"/><use xlink:href="#A" x="212.378" y="7.906"/><use xlink:href="#w" x="218.494" y="7.906"/><use xlink:href="#B" x="224.61" y="7.906"/><use xlink:href="#C" x="227.052" y="7.906"/><use xlink:href="#v" x="233.168" y="7.906"/><use xlink:href="#y" x="236.225" y="7.906"/><use xlink:href="#x" x="238.667" y="7.906"/><use xlink:href="#D" x="244.783" y="7.906"/><use xlink:href="#r" x="250.899" y="7.906"/><use xlink:href="#A" x="253.957" y="7.906"/><use xlink:href="#w" x="260.073" y="7.906"/><use xlink:href="#B" x="266.189" y="7.906"/><use xlink:href="#E" x="268.631" y="7.906"/><use xlink:href="#x" x="274.131" y="7.906"/><use xlink:href="#w" x="280.247" y="7.906"/><use xlink:href="#F" x="286.363" y="7.906"/><use xlink:href="#y" x="295.525" y="7.906"/><use xlink:href="#C" x="297.967" y="7.906"/><use xlink:href="#B" x="304.083" y="7.906"/></g><path d="M-.002-4.998v10m-5-5h10m-8.535-3.535 7.07 7.07m-7.07 0 7.07-7.07" style="fill:none;stroke-width:.833333;stroke-linecap:butt;stroke-linejoin:miter;stroke:#000;stroke-opacity:1;stroke-miterlimit:10" transform="matrix(.6 0 0 .6 60.845 132.487)"/><path d="M0-4.997v10m-5-5H5m-8.536-3.542 7.07 7.077m-7.07 0 7.07-7.077" style="fill:none;stroke-width:.833333;stroke-linecap:butt;stroke-linejoin:miter;stroke:#000;stroke-opacity:1;stroke-miterlimit:10" transform="matrix(.6 0 0 .6 103.711 176.647)"/><path d="M0-4.997v10m-5-5H5m-8.535-3.536 7.07 7.07m-7.07 0 7.07-7.07" style="fill:none;stroke-width:.833333;stroke-linecap:butt;stroke-linejoin:miter;stroke:#000;stroke-opacity:1;stroke-miterlimit:10" transform="matrix(.6 0 0 .6 146.578 192.756)"/><path d="M0-5.001v10m-5-5H5m-8.534-3.536 7.07 7.07m-7.07 0 7.07-7.07" style="fill:none;stroke-width:.833333;stroke-linecap:butt;stroke-linejoin:miter;stroke:#000;stroke-opacity:1;stroke-miterlimit:10" transform="matrix(.6 0 0 .6 189.445 198.821)"/><path d="M.002-5V5m-5-5h10m-8.535-3.535 7.07 7.07m-7.07 0 7.07-7.07" style="fill:none;stroke-width:.833333;stroke-linecap:butt;stroke-linejoin:miter;stroke:#000;stroke-opacity:1;stroke-miterlimit:10" transform="matrix(.6 0 0 .6 232.311 200.906)"/><path d="M.003-4.997v10m-5-5h10m-8.535-3.541 7.07 7.076m-7.07 0 7.07-7.076" style="fill:none;stroke-width:.833333;stroke-linecap:butt;stroke-linejoin:miter;stroke:#000;stroke-opacity:1;stroke-miterlimit:10" transform="matrix(.6 0 0 .6 275.178 201.854)"/><path d="M-.003-5V5m-5-5h10m-8.535-3.535 7.077 7.07m-7.077 0 7.077-7.07" style="fill:none;stroke-width:.833333;stroke-linecap:butt;stroke-linejoin:miter;stroke:#000;stroke-opacity:1;stroke-miterlimit:10" transform="matrix(.6 0 0 .6 318.045 202.043)"/><path d="m1094.997 510.577.645 2.747.645 2.722.644 2.701.645 2.676.644 2.656.645 2.63.638 2.611.644 2.592.645 2.571.644 2.546.645 2.526.644 2.506.645 2.487.638 2.461.644 2.448.645 2.422.644 2.402.645 2.383.645 2.363.644 2.344.645 2.324.638 2.305.644 2.285.645 2.266.644 2.252.645 2.227.644 2.207.645 2.194.638 2.175.644 2.148.645 2.142.644 2.116.645 2.096.644 2.083.645 2.07.638 2.045.645 2.031.644 2.012.645 1.992.644 1.98.645 1.966.644 1.946.645 1.927.638 1.908.644 1.9.645 1.876.644 1.868.645 1.843.644 1.836.645 1.816.638 1.797.645 1.784.644 1.77.645 1.752.644 1.745.645 1.718.644 1.713.638 1.692.645 1.68.644 1.667.645 1.653.644 1.635.645 1.62.644 1.609.645 1.595.638 1.582.644 1.562.645 1.556.645 1.537.644 1.53.645 1.51.644 1.498.638 1.49.645 1.472.644 1.458.645 1.452.644 1.432.645 1.426.644 1.406.638 1.4.645 1.38.644 1.374.645 1.36.644 1.355.645 1.334.645 1.322.644 1.315.638 1.302.645 1.29.644 1.282.645 1.263.644 1.256.645 1.25.644 1.23.638 1.225.645 1.21.644 1.205.645 1.191.644 1.179 1.29 2.33.637 1.146.645 1.14.645 1.126.644 1.12.645 1.107.644 1.1.645 1.087.644 1.08.638 1.069.645 1.06.644 1.049.645 1.042.644 1.028.645 1.022.644 1.016.638 1.003.645.996.645.983.644.976.645.97.644.957.645.951.638.944.644.931.645.924.644.918 1.29 1.81.644.892.644.88.638.878.645.866.644.86.645.852.645.847 1.289 1.666.638.82.644.814.645.808.644.8 1.29 1.576.644.775.638.774.644.762.645.755 1.289 1.498.644.735.645.73.645.722.638.716.644.71.645.703.644.697.645.69.644.683.645.677.638.671 1.289 1.328 1.289 1.302 1.289 1.276.638.625.644.625.645.619 1.29 1.224 1.288 1.198.645.586.638.586.644.579 1.29 1.146 1.288 1.12.645.553.638.553 1.289 1.081.645.534 1.289 1.055.644.514.638.514.645.515 1.289 1.002 1.289.99.644.488.645.482.638.475.644.475.645.47 1.289.924 1.29.911.637.45.645.442 1.933 1.309.645.423.644.43.638.416 1.29.833.644.404.644.41.645.397.644.404.645.39.638.391.645.39.644.385 1.29.755 1.288.742.638.365.645.365 1.289.716 1.933 1.054.638.339.645.345.644.339 1.934.996.645.325.644.32.638.318.645.32 1.933.937.645.3.644.305.638.3.645.3 1.934.878.644.286.645.28.638.287.644.28 2.578 1.094.645.267.644.26.638.267.645.26.644.254.645.26.644.248.645.254.645.247.638.248.644.247 1.29.482.644.234.644.241.645.235.638.227 1.933.684 2.578.885.638.215.645.215.645.208.644.215.645.209.644.201.645.209.638.202 1.289.403 2.578.781.638.19 1.289.377.644.182.645.189 1.29.365.644.175.638.183 1.289.351.644.17.645.175 1.289.339.638.169 3.223.814.644.156.638.163.645.156.644.15.645.156.644.15.645.156.644.15.645.143.638.15.644.143.645.15.644.143.645.137 1.289.286.638.137 1.934.41 1.289.26.644.137.638.13.645.124 1.289.26 2.578.495.638.124.644.117.645.124 1.934.351.644.111.638.117.645.111.644.117 1.934.332.644.104.638.111 3.868.625.644.098.638.104 3.867.586.638.09.645.092.644.098 1.934.273.645.085.638.091.644.091 3.867.508.638.085.645.078.644.084 2.578.313.638.078 1.29.156.644.072.645.078 1.289.143.638.078 1.933.215.645.065 1.289.143.644.066.638.065.645.071 3.223.326.638.058.644.066.645.058.644.065 1.29.117.644.065.638.06 1.289.116.644.052 1.29.118.644.052.645.058.638.052.644.059 3.223.26.638.052.644.052.645.046 1.289.104.644.046.645.052.638.045 4.512.32.638.045.644.046.645.039.644.045.645.04.644.045.645.039.638.039.644.046 3.223.195.638.039.645.033 1.289.078.644.032.645.04.644.032.645.039.638.032.644.04 3.223.162.638.033 3.223.163.644.026.638.032.645.033.644.026.645.032 1.289.052.644.033.645.026.638.026.645.033 3.222.13.638.026 1.934.078.644.02 1.29.052.637.026.645.02.645.025.644.02.645.026.644.02.645.025.644.02.638.026 1.29.039.644.026 1.933.059.638.02.645.025 3.223.098.638.02 1.289.038.644.013 2.578.079.638.013 1.934.058.644.013 1.29.04.638.012.644.02.645.013.644.02.645.012.644.02.645.013.638.02.644.012.645.02 1.289.026.644.02.645.013.644.02.639.012.644.013.645.02 1.933.039.645.02.638.012 1.289.026.644.02 1.934.039.638.013.644.02 3.868.078.638.02 3.867.077.638.013.644.013.645.02 2.578.052.638.013 4.512.091.638.013.644.02 3.223.065.638.013 3.867.078.638.02 4.512.09.638.014.645.02 3.222.064.638.013.645.013.644.02 2.578.052.638.013.645.013.644.02 3.223.065.638.02 3.223.064.644.02.638.013 3.223.065.645.02.638.012 3.222.066.645.02.644.012.638.013 3.867.078.639.013 3.867.078.638.013 3.222.065.645.007.644.013.638.013.645.013.645.007 1.289.026.644.006.645.013.638.013.644.007.645.013.644.006.645.013 1.289.013.638.013 1.289.013.644.013 2.579.026.638.007 1.289.013h.644l1.934.02h.638l.644.006h.645l.644.006h5.795l.644-.006h.645l.638-.007h.644l3.223-.032.638-.007.645-.013.644-.006.645-.013.644-.007 1.29-.026.637-.013 1.29-.026.644-.02.644-.012 1.934-.059.638-.02.644-.019.645-.026.645-.02 1.933-.078.638-.026.645-.026 1.289-.065.644-.026.645-.039.644-.033.638-.032 3.223-.195 1.29-.092.637-.045.645-.046.644-.052.645-.045.644-.052.645-.06.644-.051.638-.059 1.934-.176 1.933-.195.638-.071.645-.066.645-.071.644-.078.645-.072.644-.078.645-.085.644-.078.638-.084.645-.085.644-.091.645-.085.644-.091 1.29-.195.637-.098.645-.098 1.289-.208 1.934-.332.638-.117.644-.117.645-.124.644-.117.645-.13.644-.124.645-.137.644-.13.638-.137.645-.136.644-.144.645-.15.645-.143.644-.156.645-.15.638-.156 1.289-.325 1.933-.508.645-.176.638-.182.644-.183 1.29-.377 1.288-.39 1.29-.405.638-.208 1.289-.43 1.289-.442.644-.228.645-.234.638-.235.644-.24 1.29-.496 1.288-.507.645-.26.644-.268.638-.273.645-.274.645-.28 1.289-.572.644-.293.645-.3.638-.306.644-.306.645-.312.644-.32 1.29-.65.644-.339.638-.338.644-.346 1.29-.703 1.289-.729 1.289-.755.638-.384.644-.39 1.29-.795.644-.41.644-.417.645-.423.638-.423 1.289-.873 1.289-.898.645-.462.644-.47.638-.468.645-.482.644-.488.645-.495.644-.5.645-.509.644-.514.645-.52.638-.535.644-.534.645-.546.644-.554.645-.56 1.289-1.146.638-.586.645-.592.644-.599.645-.612.644-.618.645-.625.644-.632.638-.644.645-.652.644-.657.645-.67.644-.678.645-.683.644-.697.645-.703.638-.716.644-.723.645-.736.645-.742.644-.748.645-.762.644-.775.638-.781.645-.794.644-.801.645-.807.644-.827.645-.834.644-.84.638-.852.645-.866.644-.88.645-.885.645-.898.644-.905.645-.918.638-.93.644-.945.645-.957.644-.963.645-.977.644-.99.645-1.002.644-1.016.638-1.022.645-1.042.644-1.048.645-1.061.644-1.08.645-1.088.645-1.1.638-1.114.644-1.126.645-1.146.644-1.152.645-1.165.644-1.185.645-1.192.638-1.21.644-1.225.645-1.237.644-1.25.645-1.263.644-1.282.645-1.296.644-1.308.638-1.322.645-1.341.645-1.354.644-1.367.645-1.387.644-1.4.645-1.42.638-1.431.644-1.446.645-1.465" style="fill:none;stroke-width:.833333;stroke-linecap:butt;stroke-linejoin:round;stroke:#000;stroke-opacity:1;stroke-miterlimit:10" transform="matrix(.6 0 0 .6 -639.022 -292.694)"/><path d="M95.137 168.258a2.749 2.749 0 1 1 .002 5.498 2.749 2.749 0 0 1-.002-5.498m0-.5a3.25 3.25 0 1 0 0 6.5 3.25 3.25 0 0 0 0-6.5M281.61 199.242c1.515 0 2.75 1.23 2.75 2.75s-1.235 2.75-2.75 2.75a2.749 2.749 0 1 1 0-5.5m0-.5a3.25 3.25 0 1 0 0 6.5 3.25 3.25 0 0 0 0-6.5m0 0" style="stroke:none;fill-rule:nonzero;fill:#000;fill-opacity:1"/><path d="M395.977 60.707v-40.2H262.18v40.2Zm0 0" style="stroke:none;fill-rule:nonzero;fill:#fff;fill-opacity:1"/><g style="fill:#000;fill-opacity:1"><use xlink:href="#G" x="297.468" y="31.691"/><use xlink:href="#H" x="299.97" y="31.691"/><use xlink:href="#I" x="304.974" y="31.691"/><use xlink:href="#J" x="309.978" y="31.691"/><use xlink:href="#K" x="314.982" y="31.691"/><use xlink:href="#L" x="317.484" y="31.691"/><use xlink:href="#I" x="319.986" y="31.691"/><use xlink:href="#M" x="324.99" y="31.691"/><use xlink:href="#N" x="329.994" y="31.691"/><use xlink:href="#H" x="331.992" y="31.691"/><use xlink:href="#K" x="336.996" y="31.691"/><use xlink:href="#O" x="339.498" y="31.691"/></g><path d="M.002-5.002v10m-5-5h10m-8.536-3.535 7.07 7.07m-7.07 0 7.07-7.07" style="fill:none;stroke-width:.833333;stroke-linecap:butt;stroke-linejoin:miter;stroke:#000;stroke-opacity:1;stroke-miterlimit:10" transform="matrix(.6 0 0 .6 280.198 28.091)"/><g style="fill:#000;fill-opacity:1"><use xlink:href="#G" x="297.468" y="44.206"/><use xlink:href="#H" x="299.97" y="44.206"/><use xlink:href="#K" x="304.974" y="44.206"/><use xlink:href="#P" x="307.476" y="44.206"/><use xlink:href="#Q" x="312.48" y="44.206"/><use xlink:href="#I" x="315.477" y="44.206"/><use xlink:href="#M" x="320.481" y="44.206"/><use xlink:href="#R" x="325.485" y="44.206"/><use xlink:href="#S" x="327.483" y="44.206"/><use xlink:href="#K" x="332.487" y="44.206"/><use xlink:href="#N" x="334.989" y="44.206"/><use xlink:href="#H" x="336.987" y="44.206"/><use xlink:href="#T" x="341.991" y="44.206"/><use xlink:href="#L" x="346.995" y="44.206"/><use xlink:href="#I" x="349.497" y="44.206"/><use xlink:href="#M" x="354.501" y="44.206"/><use xlink:href="#R" x="359.505" y="44.206"/><use xlink:href="#U" x="361.503" y="44.206"/><use xlink:href="#H" x="366.003" y="44.206"/><use xlink:href="#M" x="371.007" y="44.206"/><use xlink:href="#V" x="376.011" y="44.206"/><use xlink:href="#N" x="383.508" y="44.206"/><use xlink:href="#S" x="385.506" y="44.206"/><use xlink:href="#R" x="390.51" y="44.206"/></g><path d="M1507.003 555.499h50.058" style="fill:none;stroke-width:.833333;stroke-linecap:butt;stroke-linejoin:round;stroke:#000;stroke-opacity:1;stroke-miterlimit:10" transform="matrix(.6 0 0 .6 -639.022 -292.694)"/><g style="fill:#000;fill-opacity:1"><use xlink:href="#W" x="297.468" y="56.721"/><use xlink:href="#J" x="304.47" y="56.721"/><use xlink:href="#P" x="309.474" y="56.721"/><use xlink:href="#Q" x="314.478" y="56.721"/><use xlink:href="#U" x="317.475" y="56.721"/><use xlink:href="#L" x="321.975" y="56.721"/><use xlink:href="#I" x="324.477" y="56.721"/><use xlink:href="#M" x="329.481" y="56.721"/><use xlink:href="#N" x="334.485" y="56.721"/><use xlink:href="#H" x="336.483" y="56.721"/><use xlink:href="#K" x="341.487" y="56.721"/><use xlink:href="#O" x="343.989" y="56.721"/></g><path d="M280.2 50.371a2.749 2.749 0 1 1 0 5.5 2.749 2.749 0 1 1 0-5.5m0-.5a3.25 3.25 0 1 0 0 6.5 3.25 3.25 0 0 0 0-6.5m0 0" style="stroke:none;fill-rule:nonzero;fill:#000;fill-opacity:1"/><path d="M1502.003 589.001v-66.998h222.994V589Zm0 0" style="fill:none;stroke-width:.833333;stroke-linecap:butt;stroke-linejoin:miter;stroke:#262626;stroke-opacity:1;stroke-miterlimit:10" transform="matrix(.6 0 0 .6 -639.022 -292.694)"/></svg>