<svg xmlns="https://www.w3.org/2000/svg" width="480" height="480" version="1.0" viewBox="0 0 360 360"><path d="M156 32.7c-42.3 7.5-80.6 36-100.2 74.6-5.6 11-11.2 27.9-13.3 40.1-2 11.8-1.9 34.6.1 46.7 7.3 42.9 35.7 81.3 74.7 101.1 11 5.6 27.9 11.2 40.1 13.3 11.8 2 34.6 1.9 46.7-.1 42.9-7.3 81.3-35.7 101.1-74.7 5.6-11 11.2-27.9 13.3-40.1 2-11.8 1.9-34.6-.1-46.7-7.3-42.9-35.7-81.3-74.7-101.1-11-5.6-27.9-11.2-40.1-13.3-11.4-1.9-36.2-1.8-47.6.2M257.5 116c0 30.5-.1 32.7-2 36.5-4.8 9.5-16.8 11.4-23.8 3.7-3.3-3.6-4.7-11.8-4.7-28V113h-32v117.8l13.8.4c19.6.6 25 3.5 25.9 13.7.6 6.4-2 11-7.7 13.8-4.4 2.3-4.9 2.3-46.5 2.3-47.8 0-49.6-.2-53.7-6.8-2.8-4.6-2.9-12.3-.1-16.1 3.8-5.1 8.5-6.5 23.6-6.9l13.7-.4V113h-31.8l-.4 18.7c-.4 21.6-1.1 23.9-8 27.4-7.3 3.7-15.8 1.4-19.5-5.4-1.6-2.8-1.8-6.9-2.1-35.6-.2-17.8-.1-33 .2-33.7.5-1.2 12.5-1.4 77.8-1.2l77.3.3z"/></svg>