<svg xmlns="http://www.w3.org/2000/svg" xmlns:xlink="http://www.w3.org/1999/xlink" width="169pt" height="145pt" viewBox="0 0 169 145"><defs><symbol id="a" overflow="visible"><path d="M4.516-6.734h-3.47l-.5 3.672h.767c.39-.47.718-.641 1.25-.641.89 0 1.453.625 1.453 1.625 0 .969-.563 1.562-1.47 1.562-.733 0-1.171-.375-1.374-1.14H.328c.125.547.219.812.406 1.062.391.516 1.079.813 1.829.813 1.359 0 2.312-.985 2.312-2.406 0-1.344-.89-2.25-2.172-2.25-.484 0-.86.125-1.25.406l.266-1.875h2.797Zm0 0" style="stroke:none"/></symbol><symbol id="b" overflow="visible"><path d="M2.61-6.875c-.626 0-1.188.297-1.547.75-.438.61-.657 1.531-.657 2.797C.406-1 1.172.219 2.61.219 4.031.219 4.813-1 4.813-3.266c0-1.328-.204-2.218-.657-2.859-.343-.469-.906-.75-1.547-.75m0 .75c.906 0 1.359.922 1.359 2.781 0 1.953-.438 2.875-1.375 2.875-.89 0-1.328-.953-1.328-2.843s.437-2.813 1.343-2.813m0 0" style="stroke:none"/></symbol><symbol id="c" overflow="visible"><path d="M2.453-4.89V0h.844v-6.875H2.75C2.453-5.812 2.266-5.672.969-5.5v.61Zm0 0" style="stroke:none"/></symbol><symbol id="d" overflow="visible"><path d="M2.094-3.156h.469c.906 0 1.39.422 1.39 1.25 0 .86-.531 1.39-1.39 1.39C1.64-.516 1.203-.984 1.14-2H.297c.047.563.14.922.297 1.219.36.672 1.015 1 1.937 1 1.375 0 2.282-.844 2.282-2.14 0-.876-.344-1.345-1.141-1.626.625-.265.937-.734.937-1.437 0-1.172-.765-1.891-2.046-1.891-1.36 0-2.094.766-2.11 2.219h.828c.016-.422.047-.657.157-.86.187-.39.609-.625 1.125-.625.75 0 1.187.454 1.187 1.188 0 .484-.172.781-.531.937-.235.11-.547.141-1.125.157Zm0 0" style="stroke:none"/></symbol><symbol id="e" overflow="visible"><path d="M3.11-1.656V0h.828v-1.656h1v-.75h-1v-4.469h-.61L.266-2.547v.89Zm0-.75H1l2.11-3.031Zm0 0" style="stroke:none"/></symbol><symbol id="f" overflow="visible"><path d="M4.734-5.078c-.171-1.125-.89-1.797-1.906-1.797-.75 0-1.406.375-1.812.984-.422.672-.61 1.516-.61 2.75 0 1.172.156 1.891.578 2.5.36.563.938.86 1.688.86 1.281 0 2.203-.953 2.203-2.297 0-1.266-.86-2.156-2.062-2.156q-1.008 0-1.547.75c0-1.703.547-2.641 1.5-2.641.593 0 1 .375 1.125 1.047ZM2.704-3.5c.812 0 1.312.578 1.312 1.484 0 .86-.563 1.5-1.344 1.5-.766 0-1.36-.656-1.36-1.53 0-.86.563-1.454 1.391-1.454m0 0" style="stroke:none"/></symbol><symbol id="g" overflow="visible"><path d="M4.938-6.734h-4.5v.828h3.64C2.468-3.625 1.812-2.22 1.312 0h.891c.375-2.156 1.219-4.016 2.735-6.031Zm0 0" style="stroke:none"/></symbol><symbol id="h" overflow="visible"><path d="M3.719-3.625c.703-.422.922-.766.922-1.406 0-1.094-.828-1.844-2.032-1.844-1.187 0-2.015.75-2.015 1.828 0 .656.219.984.906 1.422-.766.39-1.156.953-1.156 1.719 0 1.25.922 2.125 2.265 2.125 1.329 0 2.266-.875 2.266-2.125 0-.766-.375-1.328-1.156-1.719m-1.11-2.5c.72 0 1.172.422 1.172 1.11 0 .64-.469 1.077-1.172 1.077S1.438-4.374 1.438-5.03c0-.672.468-1.094 1.171-1.094m0 2.89c.844 0 1.407.547 1.407 1.344 0 .829-.563 1.375-1.422 1.375-.813 0-1.39-.562-1.39-1.359 0-.828.562-1.36 1.405-1.36m0 0" style="stroke:none"/></symbol><symbol id="i" overflow="visible"><path d="M1.906-3.469h3.64v-.86h-3.64v-2.437h4.14v-.859H.939V0h.968Zm0 0" style="stroke:none"/></symbol><symbol id="j" overflow="visible"><path d="M1.563-5.484h-.86V0h.86Zm0-2.141H.688v1.11h.875Zm0 0" style="stroke:none"/></symbol><symbol id="k" overflow="visible"><path d="M4.219-5.484v.797c-.438-.657-.922-.954-1.61-.954-1.328 0-2.25 1.235-2.25 3 0 .922.22 1.579.704 2.141.406.484.921.734 1.484.734.656 0 1.125-.28 1.594-.968v.28c0 1.454-.407 2-1.5 2-.735 0-1.125-.296-1.203-.921H.547c.078 1.016.89 1.656 2.078 1.656.797 0 1.469-.265 1.828-.703.422-.516.578-1.187.578-2.484v-4.578Zm-1.516.656c.906 0 1.438.766 1.438 2.156 0 1.328-.532 2.11-1.438 2.11s-1.422-.782-1.422-2.141c0-1.328.516-2.125 1.422-2.125m0 0" style="stroke:none"/></symbol><symbol id="l" overflow="visible"><path d="M2-1.094H.906V0H2Zm0 0" style="stroke:none"/></symbol><symbol id="n" overflow="visible"><path d="M2.703-5.39V0h.922v-7.562h-.61c-.312 1.171-.53 1.328-1.953 1.515v.656Zm0 0" style="stroke:none"/></symbol><symbol id="o" overflow="visible"><path d="M2.875-7.562c-.687 0-1.312.312-1.703.828-.484.672-.719 1.672-.719 3.078 0 2.547.828 3.89 2.422 3.89 1.563 0 2.422-1.343 2.422-3.828 0-1.469-.234-2.453-.719-3.14a2.1 2.1 0 0 0-1.703-.828m0 .812c1 0 1.484 1.016 1.484 3.078 0 2.14-.484 3.156-1.5 3.156-.984 0-1.468-1.046-1.468-3.125 0-2.093.484-3.109 1.484-3.109m0 0" style="stroke:none"/></symbol></defs><path d="M0 0h169v145H0z" style="fill:#fff;fill-opacity:1;stroke:none"/><path d="M24.875 131.156h142.8v-120h-142.8Zm0 0" style="stroke:none;fill-rule:nonzero;fill:#fff;fill-opacity:1"/><path d="M1500 547.002h238.001m-193.379 0v-2.383m74.375 2.383v-2.383m74.375 2.383v-2.383" style="fill:none;stroke-width:.833333;stroke-linecap:square;stroke-linejoin:round;stroke:#262626;stroke-opacity:1;stroke-miterlimit:10" transform="matrix(.6 0 0 .6 -875.125 -197.045)"/><g style="fill:#262626;fill-opacity:1"><use xlink:href="#a" x="43.55" y="144.155"/><use xlink:href="#b" x="48.832" y="144.155"/><use xlink:href="#b" x="54.114" y="144.155"/></g><g style="fill:#262626;fill-opacity:1"><use xlink:href="#c" x="85.475" y="144.155"/><use xlink:href="#b" x="90.757" y="144.155"/><use xlink:href="#b" x="96.039" y="144.155"/><use xlink:href="#b" x="101.321" y="144.155"/></g><g style="fill:#262626;fill-opacity:1"><use xlink:href="#c" x="130.1" y="144.155"/><use xlink:href="#a" x="135.382" y="144.155"/><use xlink:href="#b" x="140.664" y="144.155"/><use xlink:href="#b" x="145.946" y="144.155"/></g><path d="M1500 547.002v-200m0 194.362h2.383M1500 505.94h2.383M1500 470.518h2.383M1500 435.101h2.383M1500 399.678h2.383M1500 364.255h2.383" style="fill:none;stroke-width:.833333;stroke-linecap:square;stroke-linejoin:round;stroke:#262626;stroke-opacity:1;stroke-miterlimit:10" transform="matrix(.6 0 0 .6 -875.125 -197.045)"/><g style="fill:#262626;fill-opacity:1"><use xlink:href="#d" x="-.125" y="131.372"/><use xlink:href="#b" x="5.157" y="131.372"/><use xlink:href="#b" x="10.439" y="131.372"/><use xlink:href="#b" x="15.721" y="131.372"/></g><g style="fill:#262626;fill-opacity:1"><use xlink:href="#e" x="-.125" y="110.119"/><use xlink:href="#b" x="5.157" y="110.119"/><use xlink:href="#b" x="10.439" y="110.119"/><use xlink:href="#b" x="15.721" y="110.119"/></g><g style="fill:#262626;fill-opacity:1"><use xlink:href="#a" x="-.125" y="88.867"/><use xlink:href="#b" x="5.157" y="88.867"/><use xlink:href="#b" x="10.439" y="88.867"/><use xlink:href="#b" x="15.721" y="88.867"/></g><g style="fill:#262626;fill-opacity:1"><use xlink:href="#f" x="-.125" y="67.614"/><use xlink:href="#b" x="5.157" y="67.614"/><use xlink:href="#b" x="10.439" y="67.614"/><use xlink:href="#b" x="15.721" y="67.614"/></g><g style="fill:#262626;fill-opacity:1"><use xlink:href="#g" x="-.125" y="46.361"/><use xlink:href="#b" x="5.157" y="46.361"/><use xlink:href="#b" x="10.439" y="46.361"/><use xlink:href="#b" x="15.721" y="46.361"/></g><g style="fill:#262626;fill-opacity:1"><use xlink:href="#h" x="-.125" y="25.108"/><use xlink:href="#b" x="5.157" y="25.108"/><use xlink:href="#b" x="10.439" y="25.108"/><use xlink:href="#b" x="15.721" y="25.108"/></g><g style="fill:#000;fill-opacity:1"><use xlink:href="#i" x="80.076" y="7.187"/><use xlink:href="#j" x="86.461" y="7.187"/><use xlink:href="#k" x="88.781" y="7.187"/><use xlink:href="#l" x="94.591" y="7.187"/><use xlink:href="#m" x="97.496" y="7.187"/><use xlink:href="#n" x="100.402" y="7.187"/><use xlink:href="#o" x="106.212" y="7.187"/></g><path d="m1737.63 529.287-.618-.37-.625-.28-.619-.34-.625-.364-.618-.17-.625-.195-.625-.39-.619-.397-.625-.612-.625-.73-.625-.787-.625-.944-.625-.749-.625-.788-.625-1.028-.625-.736-.625-.944-.631-.918-.625-.866-.625-.97-.632-1.016-.625-.813-.631-.97-.625-1.1-.632-1.31-.631-1.334-.625-1.601-.632-1.361-.631-1.165-.632-.912-.631-.827-.632-1.067-.631-1.244-.632-1.986-.631-3.007-.632-4.955-.638-8.704-.631-13.763-.632-17.657-.638-13.893-.631-2.363-.638 8.418-.632 12.077-.638 9.023-.632 5.287-.638 3.06-.638 2.102-.638 1.257-.638-.046-.638-.612-.631-.69-.645-.892-.638-1.237-.638-2.265-.638-2.52-.638-2.35-.644-1.732-.638-.573-.638-.176-.645.365-.638.514-.644.762-.638-.098-.645-2.936-.645-6.523-.644-11.53-.638-13.216-.645-10.606-.644-1.992-.645 5.02-.644 6.68-.645 5.885-.65 6.51-.645 7.285-.645 6.999-.644 5.072-.651 3.138-.645 1.608-.651.442-.644-2.37-.652-4.16-.644-.332-.651 3.861-.651 3.477-.651 1.191-.651.17-.645 1.223-.65 2.37-.652 1.745-.657 1.634-.651.41-.651-.156-.652-.677-.65-.573-.658-.195-.651-.814-.658-1.51-.65-1.205-.658-.45-.651-.325-.658-2.226-.657-5.508-.658-11.348-.651-16.83-.658-15.553-.657-4.153-.658 8.053-.657 10.54-.658 6.452-.664 2.767-.657.228-.658.658-.664 3.476-.658 6.36-.657 7.156-.664 4.941-.658 2.923-.664 1.205-.664.065-.657-.488-.664-1.211-.665-1.114-.664-1.126-.664.046-.664 1.425-.664 2.058-.664 1.146-.664-1.303-.67-5.449-.665-15.618-.664-25.091-.67-13.594-.664 11.667-.67 20.201-.665 11.693-.67 3.379-.671.755-.664 1.79-.67 2.702-.671 2.65-.67 1.686-.671.853-.671.925-.67.82-.671.534-.67-1.504-.678-2.494-.67-1.158-.67.898-.678 1.934-.67 1.347-.678 1.1-.67.84-.677.567-.677.065-.677-.235-.671-.247-.677-.397-.677-.775-.677-.527-.677-1.003-.684-.065-.677.84-.677.723-.677.455-.684-.084-.677-.235-.684-.3-.677-.592-.683-1.113-.677-.749-.684-1.035-.683-1.803-.684-2.005-.684-.795-.677.482-.683.755-.69.769-.684-.593-.684-3.288-.683-3.444-.684-1.914-.69.079-.683 1.464-.69 2.214-.684 1.595-.69.566-.684-.214-.69-.586-.69.045-.69.462-.69.41-.69.105-.69.058-.69-.136-.69-.456-.69-.67-.69-.717-.698-.592-.69-1.029-.69-.866-.696-.898-.69-.43-.697.202-.697.208-.69-.039-.696-.358-.697-.495-.697-.455-.696-.704-.697-.846-.696-1.465-.697-.866-.697-1.38-.703-.742-.696-.228-.697-.039-.703.04-.697-.665-.703-.573-.697-1.295-.703-2.52-.703-5.918-.703-8.763-.703-5.879-.703-1.315-.703 1.309-.703 3.678-.704 3.835-.703 2.285-.703 1.927-.71 1.601-.703.814-.703.182-.71-.397-.702 1.16-.71 1.327-.71 1.049-.703.8-.71.56-.71.293-.709-.54-.71-1.42-.709-6.425-.71-15.02-.71-14.388-.715 1.517-.71 12.741-.71 10.827-.716 6.334-.71 2.91-.716.587-.71-.586-.715-.658-.717-1.198-.716-1.855-.71-2.89-.715-9.793-.717-28.372-.716-27.24-.716 15.944-.723 30.71-.716 18.34-.716 5.82-.723 1.205-.716.996-.722 1.712-.716 1.315-.723 1.113-.716.554-.723.267-.723-.332-.722.156-.723-1.556-.723-1.322-.722 2.507-.723.338-.723-.084-.722-.756-.73-.514-.722-.716-.73-.814-.722.013-.729-.338-.723 1.263-.729.846-.729.612-.73.358-.728.45-.73-.033-.729.325-.729.625-.729 1.048-.73-.104-.728-.735-.736.39-.73.19-.735 2.043-.729 2.546-.736 1.927-.735.221-.73-1.139-.735-2.454-.736-5.658-.736-10.566-.735-9.584-.736 3.672-.736 13.991-.735 12.591-.742 7.188-.736 3.665-.736 2.142-.742.924-.736.788-.742-.189-.742-1.49-.736-4.532-.742-8.28-.742-11.446-.742-9.226-.742-.377-.743 8.073-.742 11.465-.742 9.804-.749 7.787-.742 5.039-.749 3.646" style="fill:none;stroke-width:.833333;stroke-linecap:butt;stroke-linejoin:round;stroke:#0072bd;stroke-opacity:1;stroke-miterlimit:10" transform="matrix(.6 0 0 .6 -875.125 -197.045)"/><path d="M152.012 61.602a2.749 2.749 0 1 1-2.75 2.75c0-1.516 1.23-2.75 2.75-2.75m0-.5a3.25 3.25 0 1 0 0 6.5 3.25 3.25 0 0 0 0-6.5m-10.742-9.778a2.749 2.749 0 1 1 0 5.5 2.749 2.749 0 1 1 0-5.5m0-.5a3.25 3.25 0 1 0 0 6.5 3.25 3.25 0 0 0 0-6.5m-5.043 25.566a2.75 2.75 0 0 1 2.75 2.75 2.754 2.754 0 0 1-2.75 2.75 2.749 2.749 0 1 1 0-5.5m0-.5a3.25 3.25 0 1 0 0 6.5 3.25 3.25 0 0 0 0-6.5m-9.407-26.765a2.749 2.749 0 1 1-2.75 2.75c0-1.516 1.23-2.75 2.75-2.75m0-.5a3.25 3.25 0 1 0 0 6.5 3.25 3.25 0 0 0 0-6.5m-10.332-2.797a2.749 2.749 0 1 1 0 5.5 2.749 2.749 0 1 1 0-5.5m0-.5a3.25 3.25 0 1 0 0 6.5 3.25 3.25 0 0 0 0-6.5m-38.617 6.731a2.749 2.749 0 1 1 .002 5.498 2.749 2.749 0 0 1-.002-5.498m0-.5a3.25 3.25 0 1 0 0 6.5 3.25 3.25 0 0 0 0-6.5m-8.481-9.922a2.751 2.751 0 0 1 0 5.5 2.749 2.749 0 1 1 0-5.5m0-.5a3.25 3.25 0 1 0 0 6.5 3.25 3.25 0 0 0 0-6.5m-5.995-22.106c1.515 0 2.75 1.23 2.75 2.75s-1.235 2.75-2.75 2.75a2.749 2.749 0 1 1 0-5.5m0-.5a3.25 3.25 0 1 0 0 6.5 3.25 3.25 0 0 0 0-6.5M43.348 53.309a2.749 2.749 0 1 1 0 5.5 2.749 2.749 0 1 1 0-5.5m0-.5a3.25 3.25 0 1 0 0 6.5 3.25 3.25 0 0 0 0-6.5m-6.653 6.151a2.749 2.749 0 1 1 0 5.5 2.749 2.749 0 1 1 0-5.5m0-.5a3.25 3.25 0 1 0 0 6.5 3.25 3.25 0 0 0 0-6.5m0 0" style="stroke:none;fill-rule:nonzero;fill:red;fill-opacity:1"/></svg>