<svg xmlns="http://www.w3.org/2000/svg" xmlns:xlink="http://www.w3.org/1999/xlink" width="224" height="145pt" viewBox="0 0 168 145"><defs><symbol id="a" overflow="visible"><path d="M4.516-6.734h-3.47l-.5 3.672h.767c.39-.47.718-.641 1.25-.641.89 0 1.453.625 1.453 1.625 0 .969-.563 1.562-1.47 1.562-.733 0-1.171-.375-1.374-1.14H.328c.125.547.219.812.406 1.062.391.516 1.079.813 1.829.813 1.359 0 2.312-.985 2.312-2.406 0-1.344-.89-2.25-2.172-2.25-.484 0-.86.125-1.25.406l.266-1.875h2.797Zm0 0" style="stroke:none"/></symbol><symbol id="b" overflow="visible"><path d="M2.61-6.875c-.626 0-1.188.297-1.547.75-.438.61-.657 1.531-.657 2.797C.406-1 1.172.219 2.61.219 4.031.219 4.813-1 4.813-3.266c0-1.328-.204-2.218-.657-2.859-.343-.469-.906-.75-1.547-.75m0 .75c.906 0 1.359.922 1.359 2.781 0 1.953-.438 2.875-1.375 2.875-.89 0-1.328-.953-1.328-2.843s.437-2.813 1.343-2.813m0 0" style="stroke:none"/></symbol><symbol id="c" overflow="visible"><path d="M2.453-4.89V0h.844v-6.875H2.75C2.453-5.812 2.266-5.672.969-5.5v.61Zm0 0" style="stroke:none"/></symbol><symbol id="d" overflow="visible"><path d="M4.813-.828H1.265c.078-.563.39-.922 1.218-1.438l.938-.53c.953-.517 1.437-1.22 1.437-2.063 0-.578-.234-1.11-.625-1.485-.406-.36-.906-.531-1.53-.531-.86 0-1.5.313-1.86.906-.25.36-.344.782-.375 1.469h.844c.03-.453.078-.734.203-.969a1.3 1.3 0 0 1 1.156-.672C3.422-6.14 4-5.594 4-4.844c0 .547-.312 1.032-.906 1.36l-.875.515C.813-2.156.406-1.516.329-.016h4.484Zm0 0" style="stroke:none"/></symbol><symbol id="e" overflow="visible"><path d="M2.094-3.156h.469c.906 0 1.39.422 1.39 1.25 0 .86-.531 1.39-1.39 1.39C1.64-.516 1.203-.984 1.14-2H.297c.047.563.14.922.297 1.219.36.672 1.015 1 1.937 1 1.375 0 2.282-.844 2.282-2.14 0-.876-.344-1.345-1.141-1.626.625-.265.937-.734.937-1.437 0-1.172-.765-1.891-2.046-1.891-1.36 0-2.094.766-2.11 2.219h.828c.016-.422.047-.657.157-.86.187-.39.609-.625 1.125-.625.75 0 1.187.454 1.187 1.188 0 .484-.172.781-.531.937-.235.11-.547.141-1.125.157Zm0 0" style="stroke:none"/></symbol><symbol id="f" overflow="visible"><path d="M3.11-1.656V0h.828v-1.656h1v-.75h-1v-4.469h-.61L.266-2.547v.89Zm0-.75H1l2.11-3.031Zm0 0" style="stroke:none"/></symbol><symbol id="g" overflow="visible"><path d="M1.906-3.469h3.64v-.86h-3.64v-2.437h4.14v-.859H.939V0h.968Zm0 0" style="stroke:none"/></symbol><symbol id="h" overflow="visible"><path d="M1.563-5.484h-.86V0h.86Zm0-2.141H.688v1.11h.875Zm0 0" style="stroke:none"/></symbol><symbol id="i" overflow="visible"><path d="M4.219-5.484v.797c-.438-.657-.922-.954-1.61-.954-1.328 0-2.25 1.235-2.25 3 0 .922.22 1.579.704 2.141.406.484.921.734 1.484.734.656 0 1.125-.28 1.594-.968v.28c0 1.454-.407 2-1.5 2-.735 0-1.125-.296-1.203-.921H.547c.078 1.016.89 1.656 2.078 1.656.797 0 1.469-.265 1.828-.703.422-.516.578-1.187.578-2.484v-4.578Zm-1.516.656c.906 0 1.438.766 1.438 2.156 0 1.328-.532 2.11-1.438 2.11s-1.422-.782-1.422-2.141c0-1.328.516-2.125 1.422-2.125m0 0" style="stroke:none"/></symbol><symbol id="j" overflow="visible"><path d="M2-1.094H.906V0H2Zm0 0" style="stroke:none"/></symbol><symbol id="l" overflow="visible"><path d="M2.703-5.39V0h.922v-7.562h-.61c-.312 1.171-.53 1.328-1.953 1.515v.656Zm0 0" style="stroke:none"/></symbol></defs><path d="M0 0h168v145H0z" style="fill:#fff;fill-opacity:1;stroke:none"/><path d="M24.875 131.156h142.2v-120h-142.2Zm0 0" style="stroke:none;fill-rule:nonzero;fill:#fff;fill-opacity:1"/><path d="M250 825.002h236.999m-192.559 0v-2.37m74.063 2.37v-2.37m74.062 2.37v-2.37" style="fill:none;stroke-width:.833333;stroke-linecap:square;stroke-linejoin:round;stroke:#262626;stroke-opacity:1;stroke-miterlimit:10" transform="matrix(.6 0 0 .6 -125.125 -363.845)"/><g style="fill:#262626;fill-opacity:1"><use xlink:href="#a" x="43.438" y="144.155"/><use xlink:href="#b" x="48.719" y="144.155"/><use xlink:href="#b" x="54.001" y="144.155"/></g><g style="fill:#262626;fill-opacity:1"><use xlink:href="#c" x="85.175" y="144.155"/><use xlink:href="#b" x="90.457" y="144.155"/><use xlink:href="#b" x="95.739" y="144.155"/><use xlink:href="#b" x="101.021" y="144.155"/></g><g style="fill:#262626;fill-opacity:1"><use xlink:href="#c" x="129.613" y="144.155"/><use xlink:href="#a" x="134.894" y="144.155"/><use xlink:href="#b" x="140.176" y="144.155"/><use xlink:href="#b" x="145.458" y="144.155"/></g><path d="M250 825.002v-200m0 160.794h2.37M250 724.703h2.37M250 663.609h2.37" style="fill:none;stroke-width:.833333;stroke-linecap:square;stroke-linejoin:round;stroke:#262626;stroke-opacity:1;stroke-miterlimit:10" transform="matrix(.6 0 0 .6 -125.125 -363.845)"/><g style="fill:#262626;fill-opacity:1"><use xlink:href="#d" x="-.125" y="111.233"/><use xlink:href="#b" x="5.157" y="111.233"/><use xlink:href="#b" x="10.439" y="111.233"/><use xlink:href="#b" x="15.721" y="111.233"/></g><g style="fill:#262626;fill-opacity:1"><use xlink:href="#e" x="-.125" y="74.576"/><use xlink:href="#b" x="5.157" y="74.576"/><use xlink:href="#b" x="10.439" y="74.576"/><use xlink:href="#b" x="15.721" y="74.576"/></g><g style="fill:#262626;fill-opacity:1"><use xlink:href="#f" x="-.125" y="37.919"/><use xlink:href="#b" x="5.157" y="37.919"/><use xlink:href="#b" x="10.439" y="37.919"/><use xlink:href="#b" x="15.721" y="37.919"/></g><g style="fill:#000;fill-opacity:1"><use xlink:href="#g" x="79.775" y="7.188"/><use xlink:href="#h" x="86.16" y="7.188"/><use xlink:href="#i" x="88.48" y="7.188"/><use xlink:href="#j" x="94.291" y="7.188"/><use xlink:href="#k" x="97.196" y="7.188"/><use xlink:href="#l" x="100.101" y="7.188"/><use xlink:href="#l" x="105.911" y="7.188"/></g><path d="m486.634 792.222-.618-.28-.619-.13-.618-.098-.619-.163-.625-.182-.618.052-.619-.189-.625-.039-.618-.351-.619-.593-.625-.586-.618-1.1-.625-1.152-.625-1.192-.619-1.373-.625-1.283-.625-1.308-.625-1.348-.625-1.328-.625-1.543-.625-1.66-.625-1.322-.625-1.575-.625-1.628-.625-1.908-.631-1.842-.625-2.077-.625-1.634-.632-1.803-.625-2.24-.631-3.952-.625-8.353-.632-15.416-.631-19.134-.625-8.75-.632 7.793-.631 14.375-.632 10.833-.631 5.143-.632 1.621-.631-.195-.632-1.432-.631-2.142-.632-3.242-.631-2.943-.638-1.94-.632-.508-.638-.469-.632-1.96-.638-4.375-.631-8.522-.638-13.457-.632-10.716-.638.827-.638 10.137-.638 9.407-.638 5.085-.638 3.242-.638 2.448-.638 1.504-.638.039-.638-1.237-.638-2.083-.638-4.753-.644-9.85-.638-16.784-.638-17.175-.645-7.923-.638 7.923-.644 17.924-.645 17.916-.638 12.383-.645 7.149-.644 3.242-.645 1.608-.644 1.4-.645 1.23-.644.957-.645.749-.644.202-.645-.547-.644-.795-.645-1.81-.65-2.48-.645-.651-.651 1.458-.645.86-.651-.13-.645.813-.65 3.151-.652 2.455-.644 1.478-.651-.02-.651-1.185-.651-1.907-.651-3.06-.651-3.58-.651-4.93-.651-11.4-.658-23.495-.651-27.409-.651-9.44-.651 14.088-.658 22.383-.65 19.61-.658 12.877-.651 7.09-.658 2.923-.657.091-.658-2.317-.651-3.008-.658-1.804-.657-.416-.658.306-.657.71-.658-1.244-.657-2.162-.664 1.218-.658 5.026-.658 4.83-.664 2.67-.657 2.428-.658 3.17-.664 4.213-.664 3.62-.657 2.591-.664 2.116-.664 1.484-.658 1.146-.664.664-.664.495-.664.17-.664-.066-.664-.156-.67-1.113-.665-2.272-.664-3.484-.664-5.514-.67-8.424-.665-10.593-.67-6.198-.664 4.2-.67 11.386-.665 9.167-.67 3.262-.671.006-.67 1.843-.671 3.964-.67 3.106-.671.436-.671-2.923-.67-3.32-.671.267-.67 3.704-.671 3.848-.677 2.578-.671 2.116-.677.924-.67-.065-.678-.56-.67-.69-.677.124-.677 1.133-.678.833-.677.41-.67-.423-.677-.462-.677-.267-.684.039-.677-.28-.677-.052-.677-.17-.684-.768-.677-1.035-.677-.182-.684.67-.677.15-.683-1.185-.684-3.6-.677-6.55-.683-4.18-.684 2.657-.684 7.272-.683 6.048-.684 4.095-.683 2.78-.684 1.732-.684 1.1-.69.567-1.367 1.002-.69.267-.684.02-.69.273-.69.358-.683.013-.69.105-.69-.092-.69.118-.69-.228-.691-.241-.69-.475-.69-.248-.69-.176-.69-.006-.69-.046-.697-.26-.69-.17-.697-.117-.69.046-.697.24-.69-.019-.696.098-.697-.339-.696-.468-.69-.677-.697-.521-.697-.215-.696-.488-.704-.47-.696-.696-.697-.631-.696-.502-.704-.592-.696-1.25-.703-3.51-.697-8.671-.703-12.767-.697-4.798-.703 7.695-.703 10.046-.703 6.191-.703 4.42-.703 3.308-.703 1.725-.704 1.452-.703.931-.703.866-.71.358-.703.274-.703.494-.71.567-.702.553-.71-.078-.71-.11-.703.377-1.42.846-.709.046-.71-.228-.709.28-.71.267-.71-.371-.709-.378-.71-.508-.716-.494-.71-.32-.715-.996-.71-1.178-.716-1.146-.71.046-.716.273-.716.521-.716.182-.716-.631-.717-.749-.716-.332-.716-.208-.716.071-.716-.22-.716-.457-.723-.533-.716-.085-.723-1.413-.716-1.523-.723-1.687-.722-2.825-.716-4.14-.723-6.693-.723-9.297-.722-9.616-.723-5.606-.723-.026-.722-2.142-.723-14.74-.723-28.118-.729-11.543-.722 23.36-.73 34.98-.722 23.464-.73 11.452-.722 5.325-.73 3.444-.728 2.123-.723 1.627-.73 1.42-.728.416-.73 1.328-.729 1.634-.735 1.537-.73 1.015-.729.73-.729.579-.736.605-.729 1.042-.735 1.074-.73.847-.735.188-.736-.37-.736-.86-.735-1.263-.73-1.178-.735-.73-.736.957-.742 2.07-.736 2.481-.735 1.172-.736-.11-.742-.665-.736-.162-.742.755-.736.501-.742-1.107-.742-2.877-.742-2.24-.736-.182-.742 1.868" style="fill:none;stroke-width:.833333;stroke-linecap:butt;stroke-linejoin:round;stroke:#0072bd;stroke-opacity:1;stroke-miterlimit:10" transform="matrix(.6 0 0 .6 -125.125 -363.845)"/><path d="M153.75 56.25a2.749 2.749 0 1 1 0 5.5 2.749 2.749 0 1 1 0-5.5m0-.5a3.25 3.25 0 1 0 0 6.5 3.25 3.25 0 0 0 0-6.5m-6.836-6.781a2.751 2.751 0 0 1 0 5.5 2.749 2.749 0 1 1 0-5.5m0-.5a3.25 3.25 0 1 0 0 6.5 3.25 3.25 0 0 0 0-6.5m-5.75-15.769a2.749 2.749 0 1 1 0 5.5 2.749 2.749 0 1 1 0-5.5m0-.5a3.25 3.25 0 1 0 0 6.5 3.25 3.25 0 0 0 0-6.5m-13.204-5.466a2.749 2.749 0 1 1 0 5.5 2.749 2.749 0 1 1 0-5.5m0-.5a3.25 3.25 0 1 0 0 6.5 3.25 3.25 0 0 0 0-6.5m-15.452 40.789a2.749 2.749 0 1 1 .002 5.502 2.749 2.749 0 0 1-.002-5.502m0-.5a3.25 3.25 0 1 0 0 6.5 3.25 3.25 0 0 0 0-6.5M96.313 83.496a2.749 2.749 0 1 1 0 5.5 2.749 2.749 0 1 1 0-5.5m0-.5a3.25 3.25 0 1 0 0 6.5 3.25 3.25 0 0 0 0-6.5m-19.923-5.43c1.516 0 2.75 1.23 2.75 2.75a2.754 2.754 0 0 1-2.75 2.75 2.749 2.749 0 1 1 0-5.5m0-.5a3.25 3.25 0 1 0 0 6.5 3.25 3.25 0 0 0 0-6.5M51.578 37.605a2.749 2.749 0 1 1 0 5.5 2.749 2.749 0 1 1 0-5.5m0-.5a3.25 3.25 0 1 0 0 6.5 3.25 3.25 0 0 0 0-6.5m0 0" style="stroke:none;fill-rule:nonzero;fill:red;fill-opacity:1"/></svg>