<svg xmlns="http://www.w3.org/2000/svg" xmlns:xlink="http://www.w3.org/1999/xlink" width="169pt" height="145pt" viewBox="0 0 169 145"><defs><symbol id="a" overflow="visible"><path d="M4.516-6.734h-3.47l-.5 3.672h.767c.39-.47.718-.641 1.25-.641.89 0 1.453.625 1.453 1.625 0 .969-.563 1.562-1.47 1.562-.733 0-1.171-.375-1.374-1.14H.328c.125.547.219.812.406 1.062.391.516 1.079.813 1.829.813 1.359 0 2.312-.985 2.312-2.406 0-1.344-.89-2.25-2.172-2.25-.484 0-.86.125-1.25.406l.266-1.875h2.797Zm0 0" style="stroke:none"/></symbol><symbol id="b" overflow="visible"><path d="M2.61-6.875c-.626 0-1.188.297-1.547.75-.438.61-.657 1.531-.657 2.797C.406-1 1.172.219 2.61.219 4.031.219 4.813-1 4.813-3.266c0-1.328-.204-2.218-.657-2.859-.343-.469-.906-.75-1.547-.75m0 .75c.906 0 1.359.922 1.359 2.781 0 1.953-.438 2.875-1.375 2.875-.89 0-1.328-.953-1.328-2.843s.437-2.813 1.343-2.813m0 0" style="stroke:none"/></symbol><symbol id="c" overflow="visible"><path d="M2.453-4.89V0h.844v-6.875H2.75C2.453-5.812 2.266-5.672.969-5.5v.61Zm0 0" style="stroke:none"/></symbol><symbol id="d" overflow="visible"><path d="M2.094-3.156h.469c.906 0 1.39.422 1.39 1.25 0 .86-.531 1.39-1.39 1.39C1.64-.516 1.203-.984 1.14-2H.297c.047.563.14.922.297 1.219.36.672 1.015 1 1.937 1 1.375 0 2.282-.844 2.282-2.14 0-.876-.344-1.345-1.141-1.626.625-.265.937-.734.937-1.437 0-1.172-.765-1.891-2.046-1.891-1.36 0-2.094.766-2.11 2.219h.828c.016-.422.047-.657.157-.86.187-.39.609-.625 1.125-.625.75 0 1.187.454 1.187 1.188 0 .484-.172.781-.531.937-.235.11-.547.141-1.125.157Zm0 0" style="stroke:none"/></symbol><symbol id="e" overflow="visible"><path d="M3.11-1.656V0h.828v-1.656h1v-.75h-1v-4.469h-.61L.266-2.547v.89Zm0-.75H1l2.11-3.031Zm0 0" style="stroke:none"/></symbol><symbol id="f" overflow="visible"><path d="M4.734-5.078c-.171-1.125-.89-1.797-1.906-1.797-.75 0-1.406.375-1.812.984-.422.672-.61 1.516-.61 2.75 0 1.172.156 1.891.578 2.5.36.563.938.86 1.688.86 1.281 0 2.203-.953 2.203-2.297 0-1.266-.86-2.156-2.062-2.156q-1.008 0-1.547.75c0-1.703.547-2.641 1.5-2.641.593 0 1 .375 1.125 1.047ZM2.704-3.5c.812 0 1.312.578 1.312 1.484 0 .86-.563 1.5-1.344 1.5-.766 0-1.36-.656-1.36-1.53 0-.86.563-1.454 1.391-1.454m0 0" style="stroke:none"/></symbol><symbol id="g" overflow="visible"><path d="M4.938-6.734h-4.5v.828h3.64C2.468-3.625 1.812-2.22 1.312 0h.891c.375-2.156 1.219-4.016 2.735-6.031Zm0 0" style="stroke:none"/></symbol><symbol id="h" overflow="visible"><path d="M1.906-3.469h3.64v-.86h-3.64v-2.437h4.14v-.859H.939V0h.968Zm0 0" style="stroke:none"/></symbol><symbol id="i" overflow="visible"><path d="M1.563-5.484h-.86V0h.86Zm0-2.141H.688v1.11h.875Zm0 0" style="stroke:none"/></symbol><symbol id="j" overflow="visible"><path d="M4.219-5.484v.797c-.438-.657-.922-.954-1.61-.954-1.328 0-2.25 1.235-2.25 3 0 .922.22 1.579.704 2.141.406.484.921.734 1.484.734.656 0 1.125-.28 1.594-.968v.28c0 1.454-.407 2-1.5 2-.735 0-1.125-.296-1.203-.921H.547c.078 1.016.89 1.656 2.078 1.656.797 0 1.469-.265 1.828-.703.422-.516.578-1.187.578-2.484v-4.578Zm-1.516.656c.906 0 1.438.766 1.438 2.156 0 1.328-.532 2.11-1.438 2.11s-1.422-.782-1.422-2.141c0-1.328.516-2.125 1.422-2.125m0 0" style="stroke:none"/></symbol><symbol id="k" overflow="visible"><path d="M2-1.094H.906V0H2Zm0 0" style="stroke:none"/></symbol><symbol id="m" overflow="visible"><path d="M4.969-7.406H1.156L.594-3.375h.844c.437-.516.78-.687 1.375-.687 1 0 1.609.671 1.609 1.765 0 1.078-.61 1.719-1.625 1.719C2-.578 1.5-.984 1.28-1.813H.36c.125.594.235.891.454 1.172.421.563 1.171.875 2.015.875C4.313.234 5.36-.844 5.36-2.422c0-1.453-.968-2.453-2.39-2.453-.516 0-.938.125-1.375.438L1.89-6.5h3.078Zm0 0" style="stroke:none"/></symbol></defs><path d="M0 0h169v145H0z" style="fill:#fff;fill-opacity:1;stroke:none"/><path d="M24.875 131.125h142.8v-120h-142.8Zm0 0" style="stroke:none;fill-rule:nonzero;fill:#fff;fill-opacity:1"/><path d="M1500 270.002h238.001m-193.379 0v-2.383m74.375 2.383v-2.383m74.375 2.383v-2.383" style="fill:none;stroke-width:.833333;stroke-linecap:square;stroke-linejoin:round;stroke:#262626;stroke-opacity:1;stroke-miterlimit:10" transform="matrix(.6 0 0 .6 -875.125 -30.876)"/><g style="fill:#262626;fill-opacity:1"><use xlink:href="#a" x="43.55" y="144.124"/><use xlink:href="#b" x="48.832" y="144.124"/><use xlink:href="#b" x="54.114" y="144.124"/></g><g style="fill:#262626;fill-opacity:1"><use xlink:href="#c" x="85.475" y="144.124"/><use xlink:href="#b" x="90.757" y="144.124"/><use xlink:href="#b" x="96.039" y="144.124"/><use xlink:href="#b" x="101.321" y="144.124"/></g><g style="fill:#262626;fill-opacity:1"><use xlink:href="#c" x="130.1" y="144.124"/><use xlink:href="#a" x="135.382" y="144.124"/><use xlink:href="#b" x="140.664" y="144.124"/><use xlink:href="#b" x="145.946" y="144.124"/></g><path d="M1500 270.002v-200m0 189.44h2.383M1500 219.703h2.383m-2.383-39.74h2.383M1500 140.23h2.383M1500 100.49h2.383" style="fill:none;stroke-width:.833333;stroke-linecap:square;stroke-linejoin:round;stroke:#262626;stroke-opacity:1;stroke-miterlimit:10" transform="matrix(.6 0 0 .6 -875.125 -30.876)"/><g style="fill:#262626;fill-opacity:1"><use xlink:href="#d" x="-.125" y="128.388"/><use xlink:href="#b" x="5.157" y="128.388"/><use xlink:href="#b" x="10.439" y="128.388"/><use xlink:href="#b" x="15.721" y="128.388"/></g><g style="fill:#262626;fill-opacity:1"><use xlink:href="#e" x="-.125" y="104.545"/><use xlink:href="#b" x="5.157" y="104.545"/><use xlink:href="#b" x="10.439" y="104.545"/><use xlink:href="#b" x="15.721" y="104.545"/></g><g style="fill:#262626;fill-opacity:1"><use xlink:href="#a" x="-.125" y="80.702"/><use xlink:href="#b" x="5.157" y="80.702"/><use xlink:href="#b" x="10.439" y="80.702"/><use xlink:href="#b" x="15.721" y="80.702"/></g><g style="fill:#262626;fill-opacity:1"><use xlink:href="#f" x="-.125" y="56.86"/><use xlink:href="#b" x="5.157" y="56.86"/><use xlink:href="#b" x="10.439" y="56.86"/><use xlink:href="#b" x="15.721" y="56.86"/></g><g style="fill:#262626;fill-opacity:1"><use xlink:href="#g" x="-.125" y="33.017"/><use xlink:href="#b" x="5.157" y="33.017"/><use xlink:href="#b" x="10.439" y="33.017"/><use xlink:href="#b" x="15.721" y="33.017"/></g><g style="fill:#000;fill-opacity:1"><use xlink:href="#h" x="83.076" y="7.156"/><use xlink:href="#i" x="89.461" y="7.156"/><use xlink:href="#j" x="91.781" y="7.156"/><use xlink:href="#k" x="97.591" y="7.156"/><use xlink:href="#l" x="100.496" y="7.156"/><use xlink:href="#m" x="103.402" y="7.156"/></g><path d="m1737.63 249.546-.618-.28-.625-.058-.619-.176-.625-.326-.618-.345-.625-.078-.625-.364-.619-.157-.625-.527-.625-.762-.625-.716-.625-1.041-.625-.925-.625-1.074-.625-1.322-.625-1.178-.625-1.218-.631-1.295-.625-1.146-.625-1.289-.632-1.374-.625-1.009-.631-1.413-.625-1.165-.632-1.335-.631-1.302-.625-1.451-.632-1.166-.631-1.439-.632-1.451-.631-1.732-.632-2.162-.631-2.747-.632-4.037-.631-6.777-.632-12.812-.638-22.943-.631-30.195-.632-22.748-.638-1.465-.631 15.827-.638 19.395-.632 14.941-.638 9.193-.632 5.996-.638 4.004-.638 2.487-.638.872-.638-1.12-.638-2.135-.631-2.175-.645-1.92-.638-.254-.638.137-.638.39-.638-1.21-.644-2.956-.638-3.588-.638-2.643-.645-.09-.638 1.262-.644.827-.638-1.08-.645-3.835-.645-6.23-.644-9.858-.638-13.724-.645-18.118-.644-12.865-.645 2.559-.644 14.83-.645 12.579-.65 5.377-.645 2.917-.645 6.022-.644 9.31-.651 9.186-.645 6.582-.651 4.31-.644 1.908-.652.13-.644-1.1-.651-2.429-.651-3.691-.651-2.663-.651-.638-.645 1.908-.65 3.073-.652 2.584-.657 2.324-.651 1.4-.651.593-.652-.378-.65-.677-.658-.15-.651-.338-.658-.873-.65-1.51-.658-2.637-.651-3.802-.658-4.76-.657-5.136-.658-4.18-.651-3.079-.658-.8-.657 1.093-.658 1.875-.657 1.432-.658.977-.664.306-.657-1.524-.658-4.303-.664-10.423-.658-16.504-.657-13.086-.664 1.478-.658 14.2-.664 15.312-.664 10.729-.657 6.751-.664 3.79-.665 2.122-.664.865-.664.625-.664.495-.664.853-.664 1.016-.664.534-.67.286-.665-.54-.664-.677-.67-.586-.664-.521-.67-.033-.665-.462-.67-1.322-.671-1.588-.664-1.615-.67-2.87-.671-3.1-.67-1.497-.671 1.185-.671 3.073-.67 2.793-.671 1.68-.67.116-.678-.104-.67.078-.67-.93-.678-1.068-.67-2.025-.678-3.965-.67-4.036-.677.56-.677 4.134-.677 3.58-.671 2.032-.677.638-.677-.254-.677-.13-.677-1.218-.684-2.617-.677-4.16-.677-5.11-.677-5.509-.684-5.872-.677-3.672-.684-.098-.677 2.435-.683 3.197-.677 3.398-.684 2.312-.683 1.06-.684 1.277-.684 2.148-.677 3.119-.683 2.2-.69 1.263-.684-1.334-.684-4.232-.683-2.546-.684 2.181-.69 4.245-.683 2.37-.69.781-.684.078-.69-.137-.684-.611-.69-.665-.69-.156-.69-.117-.69-.312-.69-.606-.69.078-.69.508-.69.638-.69.547-.69.338-.698.424-.69-.209-.69-.15-.696-.058-.69-.046-.697.222-.697.208h-.69l-.696-.143-.697-.033-.697.124-.696.006-.697.105-.696-.352-.697-.059-.697-.332-.703.007-.696.202-.697.312-.703.502-.697-.372-.703-.722-.697-1.38-.703-1.01-.703.307-.703 1.106-.703.931-.703.02-.703-.462-.703.319-.704.586-.703-.32-.703-1.12-.71-2.669-.703-6.543-.703-18.3-.71-30.977-.702-11.725-.71 20.794-.71 25.677-.703 15.43-.71 8.724-.71 4.74-.709 2.519-.71 1.849-.709.742-.71.293-.71-.208-.715-1.53-.71-2.233-.71-3.555-.716-5.905-.71-5.006-.716 2.604-.71 7.467-.715 3.815-.717-3.008-.716-5.377-.71 1.55-.715 8.398-.717 8.138-.716 3.737-.716 1.413-.723-1.856-.716 1.218-.716 2.141-.723 2.045-.716 1.432-.722.254-.716-.905-.723-.176-.716 1.302-.723 1.64-.723 1.576-.722 2.162-.723.67-.723 1.16-.722 3.769-.723 1.77-.723 1.225-.722.742-.73.814-.722.826-.73.332-.722.105-.729-1.153-.723-.071-.729.722-.729 1.452-.73 1.12-.728.638-.73-1.035-.729-3.028-.729-3.125-.729.788-.73 3.724-.728 4.746-.736 4.766-.73 3.105-.735 2.754-.729 1.934-.736 1.621-.735.918-.73.781-.735.619-.736.26-.736-.612-.735-3.821-.736-8.575-.736-7.304-.735 3.261-.742 10.593-.736 9.4-.736 5.385-.742 2.428-.736 2.077-.742 2.546-.742 3.092-.736 2.337-.742 1.85-.742 1.21-.742.742-.742.443-.743.313-.742.045-.742-1.002-.749-2.292-.742-4.772-.749-7.969" style="fill:none;stroke-width:.833333;stroke-linecap:butt;stroke-linejoin:round;stroke:#0072bd;stroke-opacity:1;stroke-miterlimit:10" transform="matrix(.6 0 0 .6 -875.125 -30.876)"/><path d="M152.39 35.102a2.749 2.749 0 1 1 0 5.5 2.75 2.75 0 0 1-2.75-2.75c0-1.52 1.235-2.75 2.75-2.75m0-.5a3.25 3.25 0 1 0 0 6.5 3.25 3.25 0 0 0 0-6.5m-11.12-4.582a2.749 2.749 0 1 1 0 5.5 2.749 2.749 0 1 1 0-5.5m0-.5a3.25 3.25 0 1 0 0 6.5 3.25 3.25 0 0 0 0-6.5m-6.606 39.613a2.749 2.749 0 1 1 .002 5.498 2.749 2.749 0 0 1-.002-5.498m0-.5a3.25 3.25 0 1 0 0 6.5 3.25 3.25 0 0 0 0-6.5m-11.402-33.457c1.515 0 2.75 1.23 2.75 2.75s-1.235 2.75-2.75 2.75a2.749 2.749 0 1 1 0-5.5m0-.5a3.25 3.25 0 1 0 0 6.5 3.25 3.25 0 0 0 0-6.5m-10.383 27.047a2.749 2.749 0 1 1 0 5.5 2.749 2.749 0 1 1 0-5.5m0-.5a3.25 3.25 0 1 0 0 6.5 3.25 3.25 0 0 0 0-6.5m0 0" style="stroke:none;fill-rule:nonzero;fill:red;fill-opacity:1"/><path d="M108.04 59.8a2.75 2.75 0 0 1 2.75 2.75 2.749 2.749 0 1 1-2.75-2.75m0-.5a3.25 3.25 0 1 0 0 6.5 3.25 3.25 0 0 0 0-6.5m-6.102-10.116a2.749 2.749 0 1 1 .002 5.502 2.749 2.749 0 0 1-.002-5.502m0-.5a3.25 3.25 0 1 0 0 6.5 3.25 3.25 0 0 0 0-6.5m-5.325 9.078a2.749 2.749 0 1 1 0 5.5 2.749 2.749 0 1 1 0-5.5m0-.5a3.25 3.25 0 1 0 0 6.5 3.25 3.25 0 0 0 0-6.5M73.645 20.297c1.515 0 2.75 1.23 2.75 2.75a2.754 2.754 0 0 1-2.75 2.75 2.749 2.749 0 1 1 0-5.5m0-.5a3.25 3.25 0 1 0 0 6.5 3.25 3.25 0 0 0 0-6.5m-6.391 37.898a2.749 2.749 0 1 1-2.75 2.75c0-1.515 1.23-2.75 2.75-2.75m0-.5a3.25 3.25 0 1 0 0 6.5 3.25 3.25 0 0 0 0-6.5M42.465 89.02a2.749 2.749 0 1 1 0 5.5 2.749 2.749 0 1 1 0-5.5m0-.5a3.25 3.25 0 1 0 0 6.5 3.25 3.25 0 0 0 0-6.5m0 0" style="stroke:none;fill-rule:nonzero;fill:red;fill-opacity:1"/></svg>