<svg xmlns="http://www.w3.org/2000/svg" xmlns:xlink="http://www.w3.org/1999/xlink" width="224" height="145pt" viewBox="0 0 168 145"><defs><symbol id="a" overflow="visible"><path d="M4.516-6.734h-3.47l-.5 3.672h.767c.39-.47.718-.641 1.25-.641.89 0 1.453.625 1.453 1.625 0 .969-.563 1.562-1.47 1.562-.733 0-1.171-.375-1.374-1.14H.328c.125.547.219.812.406 1.062.391.516 1.079.813 1.829.813 1.359 0 2.312-.985 2.312-2.406 0-1.344-.89-2.25-2.172-2.25-.484 0-.86.125-1.25.406l.266-1.875h2.797Zm0 0" style="stroke:none"/></symbol><symbol id="b" overflow="visible"><path d="M2.61-6.875c-.626 0-1.188.297-1.547.75-.438.61-.657 1.531-.657 2.797C.406-1 1.172.219 2.61.219 4.031.219 4.813-1 4.813-3.266c0-1.328-.204-2.218-.657-2.859-.343-.469-.906-.75-1.547-.75m0 .75c.906 0 1.359.922 1.359 2.781 0 1.953-.438 2.875-1.375 2.875-.89 0-1.328-.953-1.328-2.843s.437-2.813 1.343-2.813m0 0" style="stroke:none"/></symbol><symbol id="c" overflow="visible"><path d="M2.453-4.89V0h.844v-6.875H2.75C2.453-5.812 2.266-5.672.969-5.5v.61Zm0 0" style="stroke:none"/></symbol><symbol id="d" overflow="visible"><path d="M3.11-1.656V0h.828v-1.656h1v-.75h-1v-4.469h-.61L.266-2.547v.89Zm0-.75H1l2.11-3.031Zm0 0" style="stroke:none"/></symbol><symbol id="e" overflow="visible"><path d="M4.734-5.078c-.171-1.125-.89-1.797-1.906-1.797-.75 0-1.406.375-1.812.984-.422.672-.61 1.516-.61 2.75 0 1.172.156 1.891.578 2.5.36.563.938.86 1.688.86 1.281 0 2.203-.953 2.203-2.297 0-1.266-.86-2.156-2.062-2.156q-1.008 0-1.547.75c0-1.703.547-2.641 1.5-2.641.593 0 1 .375 1.125 1.047ZM2.704-3.5c.812 0 1.312.578 1.312 1.484 0 .86-.563 1.5-1.344 1.5-.766 0-1.36-.656-1.36-1.53 0-.86.563-1.454 1.391-1.454m0 0" style="stroke:none"/></symbol><symbol id="f" overflow="visible"><path d="M3.719-3.625c.703-.422.922-.766.922-1.406 0-1.094-.828-1.844-2.032-1.844-1.187 0-2.015.75-2.015 1.828 0 .656.219.984.906 1.422-.766.39-1.156.953-1.156 1.719 0 1.25.922 2.125 2.265 2.125 1.329 0 2.266-.875 2.266-2.125 0-.766-.375-1.328-1.156-1.719m-1.11-2.5c.72 0 1.172.422 1.172 1.11 0 .64-.469 1.077-1.172 1.077S1.438-4.374 1.438-5.03c0-.672.468-1.094 1.171-1.094m0 2.89c.844 0 1.407.547 1.407 1.344 0 .829-.563 1.375-1.422 1.375-.813 0-1.39-.562-1.39-1.359 0-.828.562-1.36 1.405-1.36m0 0" style="stroke:none"/></symbol><symbol id="g" overflow="visible"><path d="M1.906-3.469h3.64v-.86h-3.64v-2.437h4.14v-.859H.939V0h.968Zm0 0" style="stroke:none"/></symbol><symbol id="h" overflow="visible"><path d="M1.563-5.484h-.86V0h.86Zm0-2.141H.688v1.11h.875Zm0 0" style="stroke:none"/></symbol><symbol id="i" overflow="visible"><path d="M4.219-5.484v.797c-.438-.657-.922-.954-1.61-.954-1.328 0-2.25 1.235-2.25 3 0 .922.22 1.579.704 2.141.406.484.921.734 1.484.734.656 0 1.125-.28 1.594-.968v.28c0 1.454-.407 2-1.5 2-.735 0-1.125-.296-1.203-.921H.547c.078 1.016.89 1.656 2.078 1.656.797 0 1.469-.265 1.828-.703.422-.516.578-1.187.578-2.484v-4.578Zm-1.516.656c.906 0 1.438.766 1.438 2.156 0 1.328-.532 2.11-1.438 2.11s-1.422-.782-1.422-2.141c0-1.328.516-2.125 1.422-2.125m0 0" style="stroke:none"/></symbol><symbol id="j" overflow="visible"><path d="M2-1.094H.906V0H2Zm0 0" style="stroke:none"/></symbol><symbol id="l" overflow="visible"><path d="M5.203-5.594c-.172-1.234-.969-1.968-2.094-1.968-.812 0-1.546.406-1.984 1.078-.484.75-.672 1.672-.672 3.03 0 1.282.172 2.079.625 2.75.39.626 1.047.938 1.86.938 1.406 0 2.421-1.046 2.421-2.53 0-1.376-.937-2.36-2.265-2.36-.735 0-1.313.265-1.703.812.015-1.86.593-2.906 1.656-2.906.64 0 1.094.422 1.234 1.156Zm-2.219 1.75c.891 0 1.438.625 1.438 1.625 0 .953-.625 1.64-1.469 1.64-.86 0-1.515-.718-1.515-1.687 0-.937.625-1.578 1.546-1.578m0 0" style="stroke:none"/></symbol></defs><path d="M0 0h168v145H0z" style="fill:#fff;fill-opacity:1;stroke:none"/><path d="M24.875 131.156h142.2v-120h-142.2Zm0 0" style="stroke:none;fill-rule:nonzero;fill:#fff;fill-opacity:1"/><path d="M250 547.002h236.999m-192.559 0v-2.37m74.063 2.37v-2.37m74.062 2.37v-2.37" style="fill:none;stroke-width:.833333;stroke-linecap:square;stroke-linejoin:round;stroke:#262626;stroke-opacity:1;stroke-miterlimit:10" transform="matrix(.6 0 0 .6 -125.125 -197.045)"/><g style="fill:#262626;fill-opacity:1"><use xlink:href="#a" x="43.438" y="144.155"/><use xlink:href="#b" x="48.719" y="144.155"/><use xlink:href="#b" x="54.001" y="144.155"/></g><g style="fill:#262626;fill-opacity:1"><use xlink:href="#c" x="85.175" y="144.155"/><use xlink:href="#b" x="90.457" y="144.155"/><use xlink:href="#b" x="95.739" y="144.155"/><use xlink:href="#b" x="101.021" y="144.155"/></g><g style="fill:#262626;fill-opacity:1"><use xlink:href="#c" x="129.613" y="144.155"/><use xlink:href="#a" x="134.894" y="144.155"/><use xlink:href="#b" x="140.176" y="144.155"/><use xlink:href="#b" x="145.458" y="144.155"/></g><path d="M250 547.002v-200m0 146.055h2.37M250 437.881h2.37M250 382.705h2.37" style="fill:none;stroke-width:.833333;stroke-linecap:square;stroke-linejoin:round;stroke:#262626;stroke-opacity:1;stroke-miterlimit:10" transform="matrix(.6 0 0 .6 -125.125 -197.045)"/><g style="fill:#262626;fill-opacity:1"><use xlink:href="#d" x="-.125" y="102.39"/><use xlink:href="#b" x="5.157" y="102.39"/><use xlink:href="#b" x="10.439" y="102.39"/><use xlink:href="#b" x="15.721" y="102.39"/></g><g style="fill:#262626;fill-opacity:1"><use xlink:href="#e" x="-.125" y="69.283"/><use xlink:href="#b" x="5.157" y="69.283"/><use xlink:href="#b" x="10.439" y="69.283"/><use xlink:href="#b" x="15.721" y="69.283"/></g><g style="fill:#262626;fill-opacity:1"><use xlink:href="#f" x="-.125" y="36.177"/><use xlink:href="#b" x="5.157" y="36.177"/><use xlink:href="#b" x="10.439" y="36.177"/><use xlink:href="#b" x="15.721" y="36.177"/></g><g style="fill:#000;fill-opacity:1"><use xlink:href="#g" x="82.775" y="7.187"/><use xlink:href="#h" x="89.16" y="7.187"/><use xlink:href="#i" x="91.48" y="7.187"/><use xlink:href="#j" x="97.291" y="7.187"/><use xlink:href="#k" x="100.196" y="7.187"/><use xlink:href="#l" x="103.101" y="7.187"/></g><path d="m486.634 533.018-.618-.202-1.237-.221-.619-.014-.625.13-.618.235-.619.137-.625.123-.618-.078-.619-.273-.625-.365-.618-.664-.625-.768-.625-.983-.619-1.217-.625-1.25-.625-1.316-.625-1.224-.625-.794-.625-.638-.625-.403-.625-.163-.625-.397-.625-.73-.625-.976-.631-1.14-.625-1.23-.625-1.159-.632-1.445-.625-2.194-.631-4.095-.625-8.744-.632-15.586-.631-16.77-.625-6.485-.632 5.853-.631 9.746-.632 7.904-.631 5.026-.632 3.073-.631 1.614-.632.306-.631-1.1-.632-1.686-.631-.846-.638-.013-.632.631-.638.71-.632-.378-.638-2.122-.631-5.651-.638-12.442-.632-23.496-.638-30.742-.638-17.181-.638 10.228-.638 25.15-.638 21.94-.638 12.18-.638 5.02-.638.957-.638-1.354-.638-2.46-.638-1.641-.644-1.374-.638-9.59-.638-18.906-.645-10.977-.638 10.664-.644 20.098-.645 15.716-.638 8.691-.645 4.668-.644 2.37-.645 1.621-.644 1.875-.645 1.869-.644 1.295-.645.782-.644.325-.645-.189-.644-.54-.645-1.315-.65-2.494-.645-3.548-.651-4.193-.645-2.259-.651 1.133-.645 2.643-.65 2.891-.652 2.233-.644 1.999-.651.807-.651-.71-.651-3.099-.651-8.21-.651-17.89-.651-28.847-.651-28.171-.658-10.853-.651 8.77-.651 20.065-.651 23.314-.658 19.264-.65 11.888-.658 5.67-.651 2.214-.658 1.29-.657 1.79-.658 2.31-.651 2.051-.658 1.57-.657.761-.658.091-.657-.123-.658-.521-.657-1.393-.664-3.158-.658-4.876-.658-5.137-.664-1.875-.657 4.707-.658 8.119-.664 6.653-.664 3.776-.657 2.005-.664.957-.664.267-.658.118-.664-.144-.664-.156-.664-.234-.664-.515-.664-.78-.67-1.804-.665-4.206-.664-6.25-.664-5.443-.67-2.962-.665-2.754-.67-4.486-.664.079-.67 8.138-.665 9.674-.67 5.964-.671 2.441-.67.983-.671.378-.67-.15-.671.013-.671.527-.67 1.049-.671.774-.67.384-.671-.071-.677-.072-.671.26-.677.163-.67-.306-.678-.618-.67-1.667-.677-2.402-.677-2.103-.678-.996-.677.117-.67.755-.677 1.16-.677 1.347-.684 1.308-.677 1.075-.677 1.113-.677.781-.684.052-.677-.37-.677-.092-.684.267-.677.026-.683.032-.684-.787-.677-2.63-.683-2.175-.684.645-.684 2.441-.683 1.693-.684.807-.683.033-.684-.293-.684-.619-.69-.963-.683-1.895-.684-5.872-.69-12.11-.684-8.535-.69 4.635-.69 9.336-.683 5.443-.69 2.064-.69.234-.69-.306-.69-.742-.691-.716-.69-1.146-.69-.976-.69.006-.69.69-.69.54-.697.176-.69-.058-.697.013-.69.09-.697-.149-.69-.495-.696-.286-.697-.475-.696-.521-.69-.88-.697-1.073-.697-.384-.696.026-.704.56-.696.39-.697.091-.696-.221-.704-.684-.696-1.152-.703-1.413-.697-1.738-.703-2.728-.697-6.4-.703-14.668-.703-18.216-.703-3.541-.703 14.238-.703 14.811-.703 7.708-.704 3.575-.703 1.432-.703-.143-.71-2.233-.703-3.366-.703-2.728-.71.176-.702 3.3-.71 3.301-.71 2.279-.703 1.758-.71 1.152-.71.527-.709-.319-.71-1.295-.709-2.168-.71-3.959-.71-4.628-.709-5.795-.71-19.889-.716-31.074-.71-4.538-.715 22.155-.71 19.792-.716 10.006-.71 2.774-.716-3.855-.716-.117-.716 4.258-.716 3.691-.717.385-.716-.99-.716-.82-.716-.013-.716.13-.716-.345-.723-1.061-.716-.6-.723-1.113-.716-.911-.723 2.135-.722 1.172-.716.814-.723.267-.723.215-.722.02-.723-.3-.723-.137-.722-.846-.723-.41-.723-.664-.729-.293-.722-.274-.73-.97-.722-3.06-.73-4.57-.722-4.538-.73-3.685-.728-4.824-.723-6.354-.73-8.561-.728-13.366-.73-16.361-.729-16.888-.735-8.822-.73 1.4-.729 5.495-.729 4.401-.736 5.39-.729 12.8-.735 20.508-.73 19.993-.735 12.299-.736 6.132-.736 3.223-.735 1.719-.73.872-.735-1.575-.736-8.269-.742-28.613-.736-50.944-.735-25-.736 32.682-.742 42.97-.736 22.57-.742 9.766-.736 4.545-.742 1.823-.742-.957-.742-1.23-.736.878-.742 3.02" style="fill:none;stroke-width:.833333;stroke-linecap:butt;stroke-linejoin:round;stroke:#0072bd;stroke-opacity:1;stroke-miterlimit:10" transform="matrix(.6 0 0 .6 -125.125 -197.045)"/><path d="M153.75 77.477a2.749 2.749 0 1 1 0 5.5 2.749 2.749 0 1 1 0-5.5m0-.5a3.25 3.25 0 1 0 0 6.5 3.25 3.25 0 0 0 0-6.5M146.148 41a2.749 2.749 0 1 1 0 5.5 2.749 2.749 0 1 1 0-5.5m0-.5a3.25 3.25 0 1 0 0 6.5 3.25 3.25 0 0 0 0-6.5m-4.984 18.004a2.749 2.749 0 1 1 0 5.5 2.749 2.749 0 1 1 0-5.5m0-.5a3.25 3.25 0 1 0 0 6.5 3.25 3.25 0 0 0 0-6.5m-7.348 33.762a2.749 2.749 0 1 1-2.75 2.75c0-1.516 1.23-2.75 2.75-2.75m0-.5a3.25 3.25 0 1 0 0 6.5 3.25 3.25 0 0 0 0-6.5m-5.074-51.145a2.749 2.749 0 1 1 0 5.5 2.75 2.75 0 0 1-2.75-2.75c0-1.52 1.235-2.75 2.75-2.75m0-.5a3.25 3.25 0 1 0 0 6.5 3.25 3.25 0 0 0 0-6.5M120.473 90.5a2.749 2.749 0 1 1 0 5.5 2.75 2.75 0 0 1-2.75-2.75c0-1.52 1.234-2.75 2.75-2.75m0-.5a3.25 3.25 0 1 0 0 6.5 3.25 3.25 0 0 0 0-6.5m-7.965-1.379a2.749 2.749 0 1 1 0 5.5 2.75 2.75 0 0 1-2.75-2.75c0-1.52 1.234-2.75 2.75-2.75m0-.5a3.25 3.25 0 1 0 0 6.5 3.25 3.25 0 0 0 0-6.5m-9.27 13.965a2.749 2.749 0 1 1 .002 5.502 2.749 2.749 0 0 1-.002-5.502m0-.5a3.25 3.25 0 1 0 0 6.5 3.25 3.25 0 0 0 0-6.5m-6.925 1.687a2.749 2.749 0 1 1 0 5.5 2.749 2.749 0 1 1 0-5.5m0-.5a3.25 3.25 0 1 0 0 6.5 3.25 3.25 0 0 0 0-6.5m-4.93-14.3c1.515 0 2.75 1.23 2.75 2.75s-1.235 2.75-2.75 2.75a2.749 2.749 0 1 1 0-5.5m0-.5a3.25 3.25 0 1 0 0 6.5 3.25 3.25 0 0 0 0-6.5M75.125 67.668a2.749 2.749 0 1 1 0 5.5 2.749 2.749 0 1 1 0-5.5m0-.5a3.25 3.25 0 1 0 0 6.5 3.25 3.25 0 0 0 0-6.5m-3.801 20.477a2.749 2.749 0 1 1 0 5.5 2.749 2.749 0 1 1 0-5.5m0-.5a3.25 3.25 0 1 0 0 6.5 3.25 3.25 0 0 0 0-6.5m-6.808-36.204a2.749 2.749 0 1 1 0 5.5 2.749 2.749 0 1 1 0-5.5m0-.5a3.25 3.25 0 1 0 0 6.5 3.25 3.25 0 0 0 0-6.5m-18.614-21.66a2.749 2.749 0 1 1 0 5.5 2.75 2.75 0 0 1-2.75-2.75c0-1.52 1.235-2.75 2.75-2.75m0-.5a3.25 3.25 0 1 0 0 6.5 3.25 3.25 0 0 0 0-6.5M38.418 16.68a2.749 2.749 0 1 1-2.75 2.75c0-1.516 1.23-2.75 2.75-2.75m0-.5a3.25 3.25 0 1 0 0 6.5 3.25 3.25 0 0 0 0-6.5m0 0" style="stroke:none;fill-rule:nonzero;fill:red;fill-opacity:1"/></svg>