<svg xmlns="http://www.w3.org/2000/svg" xmlns:xlink="http://www.w3.org/1999/xlink" width="169pt" height="145pt" viewBox="0 0 169 145"><defs><symbol id="a" overflow="visible"><path d="M4.516-6.734h-3.47l-.5 3.672h.767c.39-.47.718-.641 1.25-.641.89 0 1.453.625 1.453 1.625 0 .969-.563 1.562-1.47 1.562-.733 0-1.171-.375-1.374-1.14H.328c.125.547.219.812.406 1.062.391.516 1.079.813 1.829.813 1.359 0 2.312-.985 2.312-2.406 0-1.344-.89-2.25-2.172-2.25-.484 0-.86.125-1.25.406l.266-1.875h2.797Zm0 0" style="stroke:none"/></symbol><symbol id="b" overflow="visible"><path d="M2.61-6.875c-.626 0-1.188.297-1.547.75-.438.61-.657 1.531-.657 2.797C.406-1 1.172.219 2.61.219 4.031.219 4.813-1 4.813-3.266c0-1.328-.204-2.218-.657-2.859-.343-.469-.906-.75-1.547-.75m0 .75c.906 0 1.359.922 1.359 2.781 0 1.953-.438 2.875-1.375 2.875-.89 0-1.328-.953-1.328-2.843s.437-2.813 1.343-2.813m0 0" style="stroke:none"/></symbol><symbol id="c" overflow="visible"><path d="M2.453-4.89V0h.844v-6.875H2.75C2.453-5.812 2.266-5.672.969-5.5v.61Zm0 0" style="stroke:none"/></symbol><symbol id="d" overflow="visible"><path d="M4.813-.828H1.265c.078-.563.39-.922 1.218-1.438l.938-.53c.953-.517 1.437-1.22 1.437-2.063 0-.578-.234-1.11-.625-1.485-.406-.36-.906-.531-1.53-.531-.86 0-1.5.313-1.86.906-.25.36-.344.782-.375 1.469h.844c.03-.453.078-.734.203-.969a1.3 1.3 0 0 1 1.156-.672C3.422-6.14 4-5.594 4-4.844c0 .547-.312 1.032-.906 1.36l-.875.515C.813-2.156.406-1.516.329-.016h4.484Zm0 0" style="stroke:none"/></symbol><symbol id="e" overflow="visible"><path d="M2.094-3.156h.469c.906 0 1.39.422 1.39 1.25 0 .86-.531 1.39-1.39 1.39C1.64-.516 1.203-.984 1.14-2H.297c.047.563.14.922.297 1.219.36.672 1.015 1 1.937 1 1.375 0 2.282-.844 2.282-2.14 0-.876-.344-1.345-1.141-1.626.625-.265.937-.734.937-1.437 0-1.172-.765-1.891-2.046-1.891-1.36 0-2.094.766-2.11 2.219h.828c.016-.422.047-.657.157-.86.187-.39.609-.625 1.125-.625.75 0 1.187.454 1.187 1.188 0 .484-.172.781-.531.937-.235.11-.547.141-1.125.157Zm0 0" style="stroke:none"/></symbol><symbol id="f" overflow="visible"><path d="M3.11-1.656V0h.828v-1.656h1v-.75h-1v-4.469h-.61L.266-2.547v.89Zm0-.75H1l2.11-3.031Zm0 0" style="stroke:none"/></symbol><symbol id="g" overflow="visible"><path d="M4.734-5.078c-.171-1.125-.89-1.797-1.906-1.797-.75 0-1.406.375-1.812.984-.422.672-.61 1.516-.61 2.75 0 1.172.156 1.891.578 2.5.36.563.938.86 1.688.86 1.281 0 2.203-.953 2.203-2.297 0-1.266-.86-2.156-2.062-2.156q-1.008 0-1.547.75c0-1.703.547-2.641 1.5-2.641.593 0 1 .375 1.125 1.047ZM2.704-3.5c.812 0 1.312.578 1.312 1.484 0 .86-.563 1.5-1.344 1.5-.766 0-1.36-.656-1.36-1.53 0-.86.563-1.454 1.391-1.454m0 0" style="stroke:none"/></symbol><symbol id="h" overflow="visible"><path d="M4.938-6.734h-4.5v.828h3.64C2.468-3.625 1.812-2.22 1.312 0h.891c.375-2.156 1.219-4.016 2.735-6.031Zm0 0" style="stroke:none"/></symbol><symbol id="i" overflow="visible"><path d="M1.906-3.469h3.64v-.86h-3.64v-2.437h4.14v-.859H.939V0h.968Zm0 0" style="stroke:none"/></symbol><symbol id="j" overflow="visible"><path d="M1.563-5.484h-.86V0h.86Zm0-2.141H.688v1.11h.875Zm0 0" style="stroke:none"/></symbol><symbol id="k" overflow="visible"><path d="M4.219-5.484v.797c-.438-.657-.922-.954-1.61-.954-1.328 0-2.25 1.235-2.25 3 0 .922.22 1.579.704 2.141.406.484.921.734 1.484.734.656 0 1.125-.28 1.594-.968v.28c0 1.454-.407 2-1.5 2-.735 0-1.125-.296-1.203-.921H.547c.078 1.016.89 1.656 2.078 1.656.797 0 1.469-.265 1.828-.703.422-.516.578-1.187.578-2.484v-4.578Zm-1.516.656c.906 0 1.438.766 1.438 2.156 0 1.328-.532 2.11-1.438 2.11s-1.422-.782-1.422-2.141c0-1.328.516-2.125 1.422-2.125m0 0" style="stroke:none"/></symbol><symbol id="l" overflow="visible"><path d="M2-1.094H.906V0H2Zm0 0" style="stroke:none"/></symbol><symbol id="n" overflow="visible"><path d="M.547-1.719C.734-.484 1.53.234 2.657.234c.827 0 1.562-.39 2-1.078.452-.734.671-1.656.671-3.031 0-1.266-.203-2.078-.64-2.734-.407-.625-1.047-.953-1.86-.953C1.406-7.562.391-6.5.391-5.033c0 1.391.953 2.36 2.28 2.36.704 0 1.235-.25 1.704-.812C4.359-1.61 3.781-.578 2.719-.578c-.656 0-1.094-.422-1.25-1.14ZM2.813-6.75c.859 0 1.5.719 1.5 1.688 0 .937-.625 1.578-1.532 1.578-.89 0-1.437-.625-1.437-1.625 0-.953.61-1.641 1.469-1.641m0 0" style="stroke:none"/></symbol></defs><path d="M0 0h169v145H0z" style="fill:#fff;fill-opacity:1;stroke:none"/><path d="M24.875 131.156h142.8v-120h-142.8Zm0 0" style="stroke:none;fill-rule:nonzero;fill:#fff;fill-opacity:1"/><path d="M1187 547.002h238.001m-193.378 0v-2.383m74.375 2.383v-2.383m74.375 2.383v-2.383" style="fill:none;stroke-width:.833333;stroke-linecap:square;stroke-linejoin:round;stroke:#262626;stroke-opacity:1;stroke-miterlimit:10" transform="matrix(.6 0 0 .6 -687.325 -197.045)"/><g style="fill:#262626;fill-opacity:1"><use xlink:href="#a" x="43.55" y="144.155"/><use xlink:href="#b" x="48.832" y="144.155"/><use xlink:href="#b" x="54.114" y="144.155"/></g><g style="fill:#262626;fill-opacity:1"><use xlink:href="#c" x="85.475" y="144.155"/><use xlink:href="#b" x="90.757" y="144.155"/><use xlink:href="#b" x="96.039" y="144.155"/><use xlink:href="#b" x="101.321" y="144.155"/></g><g style="fill:#262626;fill-opacity:1"><use xlink:href="#c" x="130.1" y="144.155"/><use xlink:href="#a" x="135.382" y="144.155"/><use xlink:href="#b" x="140.664" y="144.155"/><use xlink:href="#b" x="145.946" y="144.155"/></g><path d="M1187 547.002v-200m0 192.884h2.383M1187 504.144h2.383M1187 468.402h2.383M1187 432.653h2.383M1187 396.91h2.383M1187 361.169h2.383" style="fill:none;stroke-width:.833333;stroke-linecap:square;stroke-linejoin:round;stroke:#262626;stroke-opacity:1;stroke-miterlimit:10" transform="matrix(.6 0 0 .6 -687.325 -197.045)"/><g style="fill:#262626;fill-opacity:1"><use xlink:href="#d" x="-.125" y="130.486"/><use xlink:href="#b" x="5.157" y="130.486"/><use xlink:href="#b" x="10.439" y="130.486"/><use xlink:href="#b" x="15.721" y="130.486"/></g><g style="fill:#262626;fill-opacity:1"><use xlink:href="#e" x="-.125" y="109.04"/><use xlink:href="#b" x="5.157" y="109.04"/><use xlink:href="#b" x="10.439" y="109.04"/><use xlink:href="#b" x="15.721" y="109.04"/></g><g style="fill:#262626;fill-opacity:1"><use xlink:href="#f" x="-.125" y="87.594"/><use xlink:href="#b" x="5.157" y="87.594"/><use xlink:href="#b" x="10.439" y="87.594"/><use xlink:href="#b" x="15.721" y="87.594"/></g><g style="fill:#262626;fill-opacity:1"><use xlink:href="#a" x="-.125" y="66.148"/><use xlink:href="#b" x="5.157" y="66.148"/><use xlink:href="#b" x="10.439" y="66.148"/><use xlink:href="#b" x="15.721" y="66.148"/></g><g style="fill:#262626;fill-opacity:1"><use xlink:href="#g" x="-.125" y="44.703"/><use xlink:href="#b" x="5.157" y="44.703"/><use xlink:href="#b" x="10.439" y="44.703"/><use xlink:href="#b" x="15.721" y="44.703"/></g><g style="fill:#262626;fill-opacity:1"><use xlink:href="#h" x="-.125" y="23.257"/><use xlink:href="#b" x="5.157" y="23.257"/><use xlink:href="#b" x="10.439" y="23.257"/><use xlink:href="#b" x="15.721" y="23.257"/></g><g style="fill:#000;fill-opacity:1"><use xlink:href="#i" x="83.076" y="7.187"/><use xlink:href="#j" x="89.461" y="7.187"/><use xlink:href="#k" x="91.781" y="7.187"/><use xlink:href="#l" x="97.591" y="7.187"/><use xlink:href="#m" x="100.496" y="7.187"/><use xlink:href="#n" x="103.401" y="7.187"/></g><path d="m1424.63 527.568-.618.072-.625.13-.619-.039-.625-.006-.618.084-.625.287-.625.032-.619-.026-.625-.24-.625-.209-.625-.195-.625-.521-.625-.586-.625-.742-.625-.788-.625-.41-.625-.378-.631-.325-.625-.117-.625-.313-.632-.56-.625-.442-.631-.762-.625-.82-.632-1.153-.631-1.159-.625-1.393-.632-1.276-.631-1.29-.632-.995-.631-.86-.632-.957-.631-1.002-.632-1.224-.631-1.465-.632-1.439-.638-1.426-.631-1.347-.632-1.524-.638-1.777-.631-2.415-.638-3.216-.632-4.193-.638-5.078-.631-4.226-.638-1.569-.638 1.309-.638 2.513-.638 1.96-.639.957-.638.24-.638-.15-.638-.11-.638-.508-.638-.586-.638-1.087-.644-2.376-.638-4.681-.638-9.369-.645-13.743-.638-11.628-.644-1.992-.638 7.35-.645 11.29-.644 10.722-.645 7.135-.638 4.597-.644 2.35-.645.716-.645-1.504-.644-3.84-.645-4.454-.65-1.608-.645 2.044-.645 4.089-.644 3.594-.651 1.783-.645-.169-.65-1.862-.645-3.965-.651-5.807-.645-7.083-.651-7.728-.651-7.969-.651-7.025-.651-3.515-.645 4.231-.65 11.55-.652 12.591-.657 9.955-.651 6.562-.651 4.675-.651 2.851-.651 1.615-.658.787-.651.248-.658-.371-.65-.645-.658-1.048-.651-1.113-.658-.534-.657.625-.658 1.178-.65.436-.658-.078-.658-.423-.658-.117-.657.137-.658.508-.664.742-.657.442-.658.293-.664-.332-.657-.312-.658.54-.664.808-.658.305-.664-.898-.664-2.18-.664-2.351-.657-2.318-.664-2.904-.664-4.752-.665-7.8-.664-9.238-.664-4.225-.664 4.206-.664 8.3-.67 8.021-.664 5.45-.665 3.287-.67 1.192-.664-.678-.67-2.59-.665-6.85-.67-15.273-.67-26.354-.665-24.733-.67-5.267-.671 5.573-.67-4.434-.671-11.159-.67 4.388-.671 23.653-.671 25.553-.67 15.43-.678 6.21-.67-1.536-.67-9.915-.678-13.457-.67-5.378-.678 9.056-.67 15.807-.677 13.132-.677 7.806-.677 3.926-.677 1.816-.671.267-.677-.644-.677-1.524-.677-3.262-.684-4.882-.677-4.98-.677-6.004-.677-11.048-.684-20.136-.677-19.2-.683-1.744-.677 15.28-.684 19.147-.677 16.21-.684 11.498-.683 6.576-.684 3.053-.684 1.42-.677 1.034-.69.326-.683-.573-.684-2.65-.683-5.436-.684-5.059-.684-2.773-.69-2.272-.683-3.978-.69-2.246-.684 1.686-.69 3.626-.684 3.815-.69 3.998-.69 2.851-.69.267-.69-2.233-.69-3.86-.69-4.089-.69-2.89-.69.585-.69 4.16-.69 4.226-.697 1.81-.69-2.774-.69-11.582-.697-28.444-.69-26.42-.697 10.938-.697 33.288-.69 23.034-.696 10.04-.697 3.645-.697.078-.696-1.79-.697-3.073-.696-4.232-.697-1.842-.697 3.652-.703 6.888-.696 5.384-.697 3.08-.703 2.011-.697 1.12-.703.833-.703.326-.697.228-.703.084-.703-.169-.703-.332-.703-.404-.703-.312-.703-.033-.703-.188-.704-.827-.703-1.341-.71-2.383-.702-2.95-.704-1.985-.71-.059-.702 1.27-.71.618-.71.065-.703-.683-.71-1.589-.709-2.122-.71-1.094-.71.215-.709-.625-.71-2.337-.71-4.46-.715-8.02-.71-13.236-.71-25.997-.716-43.45-.71-32.747-.716 12.493-.71 37.767-.715 30.033-.716 17.005-.717 7.884-.71 2.884-.715.638-.717-.58-.716-2.708-.722-2.676-.716-2.356-.717.957-.716 1.015-.722-.332-.717-2.715-.722-9.036-.716-23.379-.723-42.253-.716-23.6-.723 31.66-.722 48.217-.723 26.666-.723 7.292-.722 7.031-.723 3.809-.723 2.174-.722 1.14-.723.28-.73-.124-.722-.443-.73-.84-.722-.95-.729-2.038-.723-2.721-.729-6.491-.729-11.836-.729-14.265-.73-10.579-.728-7.487-.73-7.865-.729-8.411-.729-4.16-.729 3.418-.73 10.501-.735 10.638-.729 3.867-.736-1.178-.729-11.458-.736-27.312-.735-22.584-.73 8.678-.735 23.197-.736 17.558-.735 13.034-.736 10.736-.736 8.47-.735 5.69-.736 3.594-.742 1.888-.736.963-.736.808-.742.911-.736 1.79-.742 1.485-.742 1.315-.736.599-.742.371-.742-.026-.742-.065-.742-.137-.743-.612-.742-1.354-.748-2.676-.743-2.897-.742-2.103-.749 1.608" style="fill:none;stroke-width:.833333;stroke-linecap:butt;stroke-linejoin:round;stroke:#0072bd;stroke-opacity:1;stroke-miterlimit:10" transform="matrix(.6 0 0 .6 -687.325 -197.045)"/><path d="M150.105 88.031a2.749 2.749 0 1 1 0 5.5 2.749 2.749 0 1 1 0-5.5m0-.5a3.25 3.25 0 1 0 0 6.5 3.25 3.25 0 0 0 0-6.5m-6.136-23.051a2.749 2.749 0 1 1 0 5.5 2.749 2.749 0 1 1 0-5.5m0-.5a3.25 3.25 0 1 0 0 6.5 3.25 3.25 0 0 0 0-6.5m-4.25 20.153a2.749 2.749 0 1 1 0 5.5 2.75 2.75 0 0 1-2.75-2.75c0-1.52 1.234-2.75 2.75-2.75m0-.5a3.25 3.25 0 1 0 0 6.5 3.25 3.25 0 0 0 0-6.5m-5.055-19.668a2.749 2.749 0 1 1 .002 5.498 2.749 2.749 0 0 1-.002-5.498m0-.5a3.25 3.25 0 1 0 0 6.5 3.25 3.25 0 0 0 0-6.5m-15.777 12.164a2.749 2.749 0 1 1 0 5.5 2.749 2.749 0 1 1 0-5.5m0-.5a3.25 3.25 0 1 0 0 6.5 3.25 3.25 0 0 0 0-6.5m-6.41-36.285a2.749 2.749 0 1 1 0 5.5 2.749 2.749 0 1 1 0-5.5m0-.5a3.25 3.25 0 1 0 0 6.5 3.25 3.25 0 0 0 0-6.5m-3.629 27.469c1.515 0 2.75 1.23 2.75 2.75a2.749 2.749 0 1 1-2.75-2.75m0-.5a3.25 3.25 0 1 0 0 6.5 3.25 3.25 0 0 0 0-6.5m-6.91-12.469a2.749 2.749 0 1 1 0 5.5 2.75 2.75 0 0 1-2.75-2.75c0-1.52 1.234-2.75 2.75-2.75m0-.5a3.25 3.25 0 1 0 0 6.5 3.25 3.25 0 0 0 0-6.5m-6.973 30.234a2.749 2.749 0 1 1 .002 5.502 2.749 2.749 0 0 1-.002-5.502m0-.5a3.25 3.25 0 1 0 0 6.5 3.25 3.25 0 0 0 0-6.5m0 0" style="stroke:none;fill-rule:nonzero;fill:red;fill-opacity:1"/><path d="M90.832 84.48a2.749 2.749 0 1 1 .002 5.502 2.749 2.749 0 0 1-.002-5.502m0-.5a3.25 3.25 0 1 0 0 6.5 3.25 3.25 0 0 0 0-6.5m-3.32-34.562c1.515 0 2.75 1.23 2.75 2.75s-1.235 2.75-2.75 2.75a2.749 2.749 0 1 1 0-5.5m0-.5a3.25 3.25 0 1 0 0 6.5 3.25 3.25 0 0 0 0-6.5m-4.176 42.551a2.749 2.749 0 1 1 0 5.5 2.749 2.749 0 1 1 0-5.5m0-.5a3.25 3.25 0 1 0 0 6.5 3.25 3.25 0 0 0 0-6.5M67.254 18.527a2.749 2.749 0 1 1 0 5.5 2.749 2.749 0 1 1 0-5.5m0-.5a3.25 3.25 0 1 0 0 6.5 3.25 3.25 0 0 0 0-6.5m-8.172 1.125a2.751 2.751 0 0 1 0 5.5 2.749 2.749 0 1 1 0-5.5m0-.5a3.25 3.25 0 1 0 0 6.5 3.25 3.25 0 0 0 0-6.5M49.066 49.188a2.749 2.749 0 1 1 0 5.5 2.749 2.749 0 1 1 0-5.5m0-.5a3.25 3.25 0 1 0 0 6.5 3.25 3.25 0 0 0 0-6.5M45.55 28.723a2.749 2.749 0 1 1 .002 5.502 2.749 2.749 0 0 1-.001-5.502m0-.5a3.25 3.25 0 1 0 0 6.5 3.25 3.25 0 0 0 0-6.5m0 0" style="stroke:none;fill-rule:nonzero;fill:red;fill-opacity:1"/></svg>