<svg xmlns="http://www.w3.org/2000/svg" xmlns:xlink="http://www.w3.org/1999/xlink" width="931pt" height="496pt" viewBox="0 0 931 496"><defs><symbol id="a" overflow="visible"><path d="M2.75-7.234c-.656 0-1.266.297-1.625.797C.656-5.797.438-4.844.438-3.5c0 2.438.796 3.734 2.312 3.734 1.5 0 2.313-1.296 2.313-3.671 0-1.407-.22-2.344-.688-3-.36-.5-.953-.797-1.625-.797m0 .78c.953 0 1.422.97 1.422 2.938C4.172-1.453 3.703-.5 2.734-.5c-.937 0-1.406-1-1.406-2.984 0-2 .469-2.97 1.422-2.97m0 0" style="stroke:none"/></symbol><symbol id="b" overflow="visible"><path d="M1.906-1.047H.875V0h1.031Zm0 0" style="stroke:none"/></symbol><symbol id="c" overflow="visible"><path d="M3.906-3.812c.75-.454.969-.813.969-1.485 0-1.14-.86-1.937-2.125-1.937-1.25 0-2.125.797-2.125 1.922 0 .687.219 1.046.953 1.5-.812.406-1.203 1-1.203 1.796 0 1.329.969 2.25 2.375 2.25s2.375-.921 2.375-2.25c0-.796-.39-1.39-1.219-1.796M2.75-6.453c.75 0 1.234.453 1.234 1.172 0 .687-.5 1.125-1.234 1.125-.75 0-1.234-.438-1.234-1.14C1.516-6 2-6.454 2.75-6.454m0 3.047c.875 0 1.484.578 1.484 1.422 0 .859-.593 1.437-1.5 1.437-.859 0-1.468-.594-1.468-1.437 0-.86.593-1.422 1.484-1.422m0 0" style="stroke:none"/></symbol><symbol id="d" overflow="visible"><path d="M2.594-5.156V0h.875v-7.234H2.89c-.313 1.109-.516 1.265-1.875 1.437v.64Zm0 0" style="stroke:none"/></symbol><symbol id="e" overflow="visible"><path d="M5.063-.875H1.328c.094-.594.406-.969 1.281-1.5l1-.562c.985-.547 1.5-1.297 1.5-2.188a2.1 2.1 0 0 0-.656-1.547c-.422-.375-.937-.562-1.61-.562-.905 0-1.577.328-1.968.937-.25.39-.36.844-.375 1.563h.875c.031-.485.094-.782.219-1.016.218-.437.687-.703 1.219-.703.796 0 1.39.578 1.39 1.36 0 .577-.328 1.077-.953 1.437l-.922.531C.844-2.265.422-1.594.344-.015h4.719Zm0 0" style="stroke:none"/></symbol><symbol id="f" overflow="visible"><path d="M3.266-1.75V0h.89v-1.75h1.047v-.797H4.156v-4.687H3.5L.281-2.687v.937Zm0-.797h-2.22l2.22-3.187Zm0 0" style="stroke:none"/></symbol><symbol id="g" overflow="visible"><path d="M4.984-5.344c-.171-1.187-.937-1.89-2.015-1.89a2.27 2.27 0 0 0-1.906 1.03c-.438.72-.625 1.595-.625 2.907 0 1.219.156 1.985.593 2.625.375.594 1 .906 1.782.906 1.343 0 2.312-1.015 2.312-2.421 0-1.329-.89-2.266-2.172-2.266-.687 0-1.25.25-1.625.781.016-1.781.578-2.781 1.578-2.781.625 0 1.047.406 1.188 1.11Zm-2.14 1.657c.86 0 1.39.609 1.39 1.562 0 .922-.609 1.578-1.421 1.578s-1.438-.687-1.438-1.61c0-.905.61-1.53 1.469-1.53m0 0" style="stroke:none"/></symbol><symbol id="i" overflow="visible"><path d="M2.203-3.328h.485c.968 0 1.468.453 1.468 1.312 0 .922-.547 1.47-1.453 1.47-.969 0-1.437-.5-1.5-1.548h-.89c.046.578.14.953.312 1.281C1-.125 1.688.234 2.656.234c1.469 0 2.407-.89 2.407-2.25 0-.921-.36-1.421-1.204-1.718q.985-.423.985-1.5c0-1.25-.797-2-2.157-2C1.267-7.234.5-6.437.47-4.906h.875c.015-.438.062-.688.172-.907.187-.406.64-.64 1.187-.64.781 0 1.25.469 1.25 1.25 0 .5-.187.812-.578.984-.234.094-.562.14-1.172.157Zm0 0" style="stroke:none"/></symbol><symbol id="j" overflow="visible"><path d="M4.766-7.094H1.094l-.532 3.86h.813c.422-.485.75-.657 1.313-.657.953 0 1.546.657 1.546 1.704 0 1.015-.593 1.64-1.546 1.64-.782 0-1.25-.39-1.454-1.187h-.89c.125.578.219.859.437 1.109.407.547 1.125.86 1.922.86 1.422 0 2.422-1.047 2.422-2.547 0-1.391-.922-2.36-2.281-2.36-.5 0-.906.125-1.313.438l.282-1.985h2.953Zm0 0" style="stroke:none"/></symbol><symbol id="k" overflow="visible"><path d="M5.203-7.094H.453v.875h3.844C2.594-3.812 1.907-2.329 1.375 0h.938c.39-2.266 1.28-4.219 2.89-6.344Zm0 0" style="stroke:none"/></symbol><symbol id="l" overflow="visible"><path d="M.531-1.656C.703-.47 1.453.234 2.547.234a2.27 2.27 0 0 0 1.906-1.03c.438-.72.64-1.595.64-2.907 0-1.219-.187-1.985-.609-2.625-.39-.594-1-.906-1.78-.906-1.36 0-2.329 1.015-2.329 2.422 0 1.328.906 2.265 2.188 2.265.671 0 1.171-.25 1.624-.797C4.173-1.547 3.61-.547 2.595-.547c-.61 0-1.047-.406-1.188-1.11Zm2.157-4.797c.828 0 1.437.687 1.437 1.61 0 .89-.594 1.515-1.469 1.515-.844 0-1.375-.61-1.375-1.563 0-.906.594-1.562 1.407-1.562m0 0" style="stroke:none"/></symbol><symbol id="h" overflow="visible"><path d="M1.328.125C.91.125.61-.023.422-.328.242-.641.156-1.016.156-1.453q-.002-.434.078-.844A5 5 0 0 1 .47-3.14a5 5 0 0 1 .36-.796q.198-.373.468-.735c.031-.05.07-.078.125-.078q.06 0 .11.047.045.048.046.11a.2.2 0 0 1-.031.109C.867-3.566.53-2.72.53-1.937q0 .502.235.859.233.362.718.36.405 0 .75-.235c.239-.164.446-.375.625-.625 0-.125.02-.32.063-.594.039-.27.11-.508.203-.719q.155-.328.344-.328c.176 0 .265.102.265.297q0 .175-.078.438-.08.251-.172.484a9 9 0 0 1-.203.5q.124.783.781.781c.25 0 .5-.07.75-.219q.388-.215.688-.578.293-.356.469-.765.17-.42.172-.781c0-.227-.04-.399-.11-.516a2 2 0 0 0-.265-.39c-.118-.134-.172-.243-.172-.329 0-.144.054-.273.172-.39q.187-.188.39-.188c.176 0 .301.086.375.25q.124.235.125.547-.002.518-.203 1.281Q6.247-2.03 6-1.516q-.364.692-.89 1.172a1.78 1.78 0 0 1-1.204.469.97.97 0 0 1-.687-.25q-.27-.264-.328-.703-.317.44-.703.703-.392.248-.86.25m0 0" style="stroke:none"/></symbol><symbol id="m" overflow="visible"><path d="M-5.672-6.562c-.547 0-.703.046-1.078.218-.922.438-1.406 1.375-1.406 2.719 0 1.766.906 2.86 2.36 2.86.984 0 1.593-.516 1.874-1.579l.516-1.984c.265-1.031.672-1.484 1.312-1.484.422 0 .86.234 1.11.578.218.312.328.828.328 1.468 0 .891-.203 1.47-.656 1.86-.36.297-.75.422-1.235.406v.969c.735 0 1.219-.156 1.656-.469C-.125-1.547.25-2.469.25-3.703c0-.953-.219-1.735-.61-2.25a2.45 2.45 0 0 0-1.843-.875c-.985 0-1.719.61-2.016 1.703l-.531 2.016c-.266.968-.578 1.312-1.187 1.312-.813 0-1.36-.719-1.36-1.797 0-1.265.578-1.984 1.625-2Zm0 0" style="stroke:none"/></symbol><symbol id="n" overflow="visible"><path d="M-5.766-2.797v.953h-1.578v.907h1.578v.78h.75v-.78h4.36c.594 0 .906-.391.906-1.11 0-.234-.016-.437-.078-.75h-.766c.031.14.047.25.047.438 0 .406-.11.515-.515.515h-3.954v-.953Zm0 0" style="stroke:none"/></symbol><symbol id="o" overflow="visible"><path d="M-2.578-5.64c-.875 0-1.406.062-1.828.234-.953.375-1.516 1.25-1.516 2.328 0 1.61 1.219 2.64 3.11 2.64 1.906 0 3.062-1 3.062-2.624 0-1.313-.75-2.235-2-2.454v.922c.766.25 1.156.766 1.156 1.5a1.61 1.61 0 0 1-.75 1.39c-.328.22-.656.298-1.234.313Zm-.75 4.218c-1.063-.078-1.75-.719-1.75-1.64 0-.938.719-1.594 1.75-1.594Zm0 0" style="stroke:none"/></symbol><symbol id="p" overflow="visible"><path d="M2.39-.594v-.922h-3C-.015-2 .25-2.546.25-3.28c0-1.5-1.203-2.469-3.031-2.469-1.938 0-3.14.938-3.14 2.469 0 .781.343 1.406 1.03 1.844h-.875v.843Zm-7.468-2.531c0-1.016.89-1.672 2.266-1.672 1.312 0 2.203.672 2.203 1.672 0 .984-.875 1.61-2.235 1.61-1.344 0-2.234-.626-2.234-1.61m0 0" style="stroke:none"/></symbol><symbol id="q" overflow="visible"><path d="M-4.156-4.812c-1.14 0-1.766.75-1.766 2.078 0 1.343.688 2.218 1.75 2.218.906 0 1.328-.468 1.656-1.828l.22-.86c.155-.64.39-.89.796-.89.547 0 .906.547.906 1.344 0 .5-.14.906-.39 1.14-.157.141-.328.22-.735.266v.969C-.39-.422.25-1.172.25-2.672c0-1.453-.719-2.375-1.828-2.375-.86 0-1.328.484-1.594 1.625l-.219.875c-.171.75-.421 1.078-.828 1.078-.531 0-.86-.484-.86-1.218 0-.75.313-1.141.923-1.157Zm0 0" style="stroke:none"/></symbol><symbol id="r" overflow="visible"><path d="M1.36-1.547c0 .242.038.469.124.688.094.21.227.375.407.5q.279.187.64.187.246 0 .516-.094.281-.105.515-.234.249-.14.25-.14.059 0 .094.078a.2.2 0 0 1 .047.125q-.001.064-.031.078-.692.485-1.406.484-.58-.001-1.047-.266A1.86 1.86 0 0 1 .75-.906 2.2 2.2 0 0 1 .5-1.953c0-.383.07-.75.219-1.094q.232-.515.64-.89.406-.373.922-.594a2.8 2.8 0 0 1 1.094-.219h.61q.17.001.171.172a.22.22 0 0 1-.062.156.2.2 0 0 1-.14.063h-.61q-.44.002-.797.203a1.7 1.7 0 0 0-.61.531q-.235.346-.359.781h1.938q.076 0 .125.047.046.048.046.11a.22.22 0 0 1-.062.156.2.2 0 0 1-.156.062h-2q-.11.582-.11.922m0 0" style="stroke:none"/></symbol><symbol id="t" overflow="visible"><path d="M5.875-3.89H.547v.78h5.328Zm0 1.906H.547v.765h5.328Zm0 0" style="stroke:none"/></symbol><symbol id="u" overflow="visible"><path d="M2.844-5.672V0h.969v-7.953h-.641c-.328 1.219-.547 1.39-2.047 1.578v.703Zm0 0" style="stroke:none"/></symbol><symbol id="v" overflow="visible"><path d="M2.094-1.14H.954V0h1.14Zm0 0" style="stroke:none"/></symbol><symbol id="w" overflow="visible"><path d="M3.031-7.953c-.734 0-1.39.328-1.797.875C.72-6.375.47-5.328.47-3.844.469-1.172 1.359.25 3.03.25c1.64 0 2.547-1.422 2.547-4.031 0-1.547-.25-2.578-.766-3.297-.406-.563-1.046-.875-1.78-.875m0 .86c1.031 0 1.563 1.062 1.563 3.218C4.594-1.609 4.078-.547 3-.547c-1.016 0-1.531-1.11-1.531-3.297s.515-3.25 1.562-3.25m0 0" style="stroke:none"/></symbol><symbol id="x" overflow="visible"><path d="M5.64-2.578c0-.875-.062-1.406-.234-1.828-.375-.953-1.25-1.516-2.328-1.516-1.61 0-2.64 1.219-2.64 3.11 0 1.906 1 3.062 2.625 3.062 1.312 0 2.234-.75 2.453-2h-.922c-.25.766-.766 1.156-1.5 1.156a1.61 1.61 0 0 1-1.39-.75c-.22-.328-.298-.656-.313-1.234Zm-4.218-.75c.078-1.063.719-1.75 1.64-1.75.938 0 1.594.719 1.594 1.75Zm0 0" style="stroke:none"/></symbol><symbol id="y" overflow="visible"><path d="M3.125-3.437H.5v.796h2.625Zm0 0" style="stroke:none"/></symbol><symbol id="z" overflow="visible"><path d="M3.594-1.922V0h.969v-1.922h1.156v-.875H4.562v-5.156h-.718l-3.531 5v1.031Zm0-.875H1.156l2.438-3.5Zm0 0" style="stroke:none"/></symbol></defs><path d="M0 0h931v496H0z" style="fill:#fff;fill-opacity:1;stroke:none"/><path d="M34.816 465.707h892.801v-453h-892.8Zm0 0" style="stroke:none;fill-rule:nonzero;fill:#fff;fill-opacity:1"/><path d="M250.001 825.001v-755M498.003 825.001v-755M745.997 825.001v-755M993.999 825.001v-755M1242 825.001v-755M1490.001 825.001v-755M1738.003 825.001v-755M1738.003 825.001H250M1738.003 749.5H250M1738.003 673.999H250M1738.003 598.497H250M1738.003 523.003H250M1738.003 447.501H250M1738.003 372H250M1738.003 296.499H250M1738.003 220.997H250M1738.003 145.503H250M1738.003 70.001H250" style="fill:none;stroke-width:.833333;stroke-linecap:butt;stroke-linejoin:round;stroke:#262626;stroke-opacity:.14902;stroke-miterlimit:10" transform="matrix(.6 0 0 .6 -115.184 -29.294)"/><path d="M250.001 825.001h1488.002M250.001 70.001h1488.002M250.001 825.001v-14.883M498.003 825.001v-14.883M745.997 825.001v-14.883M993.999 825.001v-14.883M1242 825.001v-14.883M1490.001 825.001v-14.883M1738.003 825.001v-14.883M250.001 70.001v14.877M498.003 70.001v14.877M745.997 70.001v14.877M993.999 70.001v14.877M1242 70.001v14.877M1490.001 70.001v14.877M1738.003 70.001v14.877" style="fill:none;stroke-width:.833333;stroke-linecap:square;stroke-linejoin:round;stroke:#262626;stroke-opacity:1;stroke-miterlimit:10" transform="matrix(.6 0 0 .6 -115.184 -29.294)"/><g style="fill:#262626;fill-opacity:1"><use xlink:href="#a" x="27.616" y="479.906"/><use xlink:href="#b" x="33.176" y="479.906"/><use xlink:href="#c" x="35.956" y="479.906"/></g><use xlink:href="#d" x="180.616" y="479.906" style="fill:#262626;fill-opacity:1"/><g style="fill:#262626;fill-opacity:1"><use xlink:href="#d" x="325.216" y="479.906"/><use xlink:href="#b" x="330.776" y="479.906"/><use xlink:href="#e" x="333.556" y="479.906"/></g><g style="fill:#262626;fill-opacity:1"><use xlink:href="#d" x="474.016" y="479.906"/><use xlink:href="#b" x="479.576" y="479.906"/><use xlink:href="#f" x="482.356" y="479.906"/></g><g style="fill:#262626;fill-opacity:1"><use xlink:href="#d" x="622.816" y="479.906"/><use xlink:href="#b" x="628.376" y="479.906"/><use xlink:href="#g" x="631.156" y="479.906"/></g><g style="fill:#262626;fill-opacity:1"><use xlink:href="#d" x="771.616" y="479.906"/><use xlink:href="#b" x="777.176" y="479.906"/><use xlink:href="#c" x="779.956" y="479.906"/></g><use xlink:href="#e" x="924.616" y="479.906" style="fill:#262626;fill-opacity:1"/><use xlink:href="#h" x="477.616" y="494.506" style="fill:#262626;fill-opacity:1"/><path d="M250.001 825.001v-755M1738.003 825.001v-755M250.001 825.001h14.877M250.001 749.5h14.877M250.001 673.999h14.877M250.001 598.497h14.877M250.001 523.003h14.877M250.001 447.501h14.877M250.001 372h14.877M250.001 296.499h14.877M250.001 220.997h14.877M250.001 145.503h14.877M250.001 70.001h14.877M1738.003 825.001h-14.883M1738.003 749.5h-14.883M1738.003 673.999h-14.883M1738.003 598.497h-14.883M1738.003 523.003h-14.883M1738.003 447.501h-14.883M1738.003 372h-14.883M1738.003 296.499h-14.883M1738.003 220.997h-14.883M1738.003 145.503h-14.883M1738.003 70.001h-14.883" style="fill:none;stroke-width:.833333;stroke-linecap:square;stroke-linejoin:round;stroke:#262626;stroke-opacity:1;stroke-miterlimit:10" transform="matrix(.6 0 0 .6 -115.184 -29.294)"/><use xlink:href="#a" x="24.816" y="469.606" style="fill:#262626;fill-opacity:1"/><g style="fill:#262626;fill-opacity:1"><use xlink:href="#d" x="19.416" y="424.306"/><use xlink:href="#a" x="24.976" y="424.306"/></g><g style="fill:#262626;fill-opacity:1"><use xlink:href="#e" x="19.416" y="379.006"/><use xlink:href="#a" x="24.976" y="379.006"/></g><g style="fill:#262626;fill-opacity:1"><use xlink:href="#i" x="19.416" y="333.706"/><use xlink:href="#a" x="24.976" y="333.706"/></g><g style="fill:#262626;fill-opacity:1"><use xlink:href="#f" x="19.416" y="288.406"/><use xlink:href="#a" x="24.976" y="288.406"/></g><g style="fill:#262626;fill-opacity:1"><use xlink:href="#j" x="19.416" y="243.106"/><use xlink:href="#a" x="24.976" y="243.106"/></g><g style="fill:#262626;fill-opacity:1"><use xlink:href="#g" x="19.416" y="197.806"/><use xlink:href="#a" x="24.976" y="197.806"/></g><g style="fill:#262626;fill-opacity:1"><use xlink:href="#k" x="19.416" y="152.506"/><use xlink:href="#a" x="24.976" y="152.506"/></g><g style="fill:#262626;fill-opacity:1"><use xlink:href="#c" x="19.416" y="107.206"/><use xlink:href="#a" x="24.976" y="107.206"/></g><g style="fill:#262626;fill-opacity:1"><use xlink:href="#l" x="19.416" y="61.906"/><use xlink:href="#a" x="24.976" y="61.906"/></g><g style="fill:#262626;fill-opacity:1"><use xlink:href="#d" x="14.016" y="16.606"/><use xlink:href="#a" x="19.576" y="16.606"/><use xlink:href="#a" x="25.136" y="16.606"/></g><g style="fill:#262626;fill-opacity:1"><use xlink:href="#m" x="8.016" y="253.306"/><use xlink:href="#n" x="8.016" y="245.969"/><use xlink:href="#o" x="8.016" y="242.911"/><use xlink:href="#p" x="8.016" y="236.795"/><use xlink:href="#q" x="8.016" y="230.679"/></g><use xlink:href="#r" x="456.616" y="7.906" style="fill:#000;fill-opacity:1"/><g style="fill:#000;fill-opacity:1"><use xlink:href="#s" x="461.416" y="7.906"/><use xlink:href="#t" x="464.474" y="7.906"/><use xlink:href="#s" x="470.897" y="7.906"/><use xlink:href="#u" x="473.955" y="7.906"/><use xlink:href="#v" x="480.071" y="7.906"/><use xlink:href="#w" x="483.129" y="7.906"/><use xlink:href="#x" x="489.245" y="7.906"/><use xlink:href="#y" x="495.361" y="7.906"/><use xlink:href="#z" x="499.024" y="7.906"/></g><path d="M250.001 726.85 312 734.402l61.999 7.546 61.998 7.552 62.006 7.552H622l123.997-15.104 62.006-15.098L870 719.298 932 711.753l61.999-15.105 61.998-7.545 62.006-7.552L1180 666.453l61.999-7.552 61.999-22.65 61.998-45.3 62.006-60.403L1490 462.6 1552 319.149 1613.999 70" style="fill:none;stroke-width:.833333;stroke-linecap:butt;stroke-linejoin:round;stroke:#0072bd;stroke-opacity:1;stroke-miterlimit:10" transform="matrix(.6 0 0 .6 -115.184 -29.294)"/></svg>