<svg xmlns="http://www.w3.org/2000/svg" width="800pt" height="44pt" viewBox="0 0 800 44"><g class="graph"><path fill="#fff" stroke="transparent" d="M0 44V0h800v44z"/><g class="node" transform="translate(4 40)"><circle cx="18" cy="-18" r="18" fill="none" stroke="purple"/><text x="18" y="-14.3" font-family="Times New Roman,serif" font-size="14" text-anchor="middle">0</text></g><g class="node" transform="translate(4 40)"><circle cx="72" cy="-18" r="18" fill="none" stroke="purple"/><text x="72" y="-14.3" font-family="Times New Roman,serif" font-size="14" text-anchor="middle">0</text></g><g class="node" transform="translate(4 40)"><circle cx="126" cy="-18" r="18" fill="red" stroke="red"/><text x="126" y="-14.3" font-family="Times New Roman,serif" font-size="14" text-anchor="middle">1</text></g><g class="node" transform="translate(4 40)"><circle cx="180" cy="-18" r="18" fill="none" stroke="#deb887"/><text x="180" y="-14.3" font-family="Times New Roman,serif" font-size="14" text-anchor="middle">0</text></g><g class="node" transform="translate(4 40)"><circle cx="234" cy="-18" r="18" fill="none" stroke="#deb887"/><text x="234" y="-14.3" font-family="Times New Roman,serif" font-size="14" text-anchor="middle">0</text></g><g class="node" transform="translate(4 40)"><circle cx="288" cy="-18" r="18" fill="#adff2f" stroke="#adff2f"/><text x="288" y="-14.3" font-family="Times New Roman,serif" font-size="14" text-anchor="middle">1</text></g><g class="node" transform="translate(4 40)"><circle cx="342" cy="-18" r="18" fill="none" stroke="brown"/><text x="342" y="-14.3" font-family="Times New Roman,serif" font-size="14" text-anchor="middle">0</text></g><g class="node" transform="translate(4 40)"><circle cx="396" cy="-18" r="18" fill="none" stroke="brown"/><text x="396" y="-14.3" font-family="Times New Roman,serif" font-size="14" text-anchor="middle">0</text></g><g class="node" transform="translate(4 40)"><circle cx="450" cy="-18" r="18" fill="#adff2f" stroke="#adff2f"/><text x="450" y="-14.3" font-family="Times New Roman,serif" font-size="14" text-anchor="middle">1</text></g><g class="node" transform="translate(4 40)"><circle cx="504" cy="-18" r="18" fill="none" stroke="#deb887"/><text x="504" y="-14.3" font-family="Times New Roman,serif" font-size="14" text-anchor="middle">0</text></g><g class="node" transform="translate(4 40)"><circle cx="558" cy="-18" r="18" fill="red" stroke="red"/><text x="558" y="-14.3" font-family="Times New Roman,serif" font-size="14" text-anchor="middle">1</text></g><g class="node" transform="translate(4 40)"><circle cx="612" cy="-18" r="18" fill="none" stroke="purple"/><text x="612" y="-14.3" font-family="Times New Roman,serif" font-size="14" text-anchor="middle">0</text></g><g class="node" transform="translate(4 40)"><circle cx="666" cy="-18" r="18" fill="none" stroke="purple"/><text x="666" y="-14.3" font-family="Times New Roman,serif" font-size="14" text-anchor="middle">0</text></g><g class="node" transform="translate(4 40)"><circle cx="720" cy="-18" r="18" fill="none" stroke="purple"/><text x="720" y="-14.3" font-family="Times New Roman,serif" font-size="14" text-anchor="middle">0</text></g><g class="node" transform="translate(4 40)"><circle cx="774" cy="-18" r="18" fill="none" stroke="purple"/><text x="774" y="-14.3" font-family="Times New Roman,serif" font-size="14" text-anchor="middle">0</text></g></g></svg>