<?xml version="1.0" encoding="UTF-8" standalone="no" ?>
<!DOCTYPE svg PUBLIC "-//W3C//DTD SVG 1.1//EN" "http://www.w3.org/Graphics/SVG/1.1/DTD/svg11.dtd">
<!-- Generated by graphviz version 4.0.0 (20220529.0937)
 -->
<!-- Pages: 1 -->
<svg width="800pt" height="44pt" viewBox="0.00 0.00 800.00 44.00" xmlns="http://www.w3.org/2000/svg" xmlns:xlink="http://www.w3.org/1999/xlink">
<g id="graph0" class="graph" transform="scale(1 1) rotate(0) translate(4 40)">
<polygon fill="white" stroke="transparent" points="-4,4 -4,-40 796,-40 796,4 -4,4" />
<!-- 0 -->
<g id="node1" class="node">
<title>0</title>
<ellipse fill="none" stroke="purple" cx="18" cy="-18" rx="18" ry="18" />
<text text-anchor="middle" x="18" y="-14.3" font-family="Times New Roman,serif" font-size="14.00">0</text>
</g>
<!-- 1 -->
<g id="node2" class="node">
<title>1</title>
<ellipse fill="none" stroke="purple" cx="72" cy="-18" rx="18" ry="18" />
<text text-anchor="middle" x="72" y="-14.3" font-family="Times New Roman,serif" font-size="14.00">0</text>
</g>
<!-- 2 -->
<g id="node3" class="node">
<title>2</title>
<ellipse fill="red" stroke="red" cx="126" cy="-18" rx="18" ry="18" />
<text text-anchor="middle" x="126" y="-14.3" font-family="Times New Roman,serif" font-size="14.00">1</text>
</g>
<!-- 3 -->
<g id="node4" class="node">
<title>3</title>
<ellipse fill="none" stroke="burlywood" cx="180" cy="-18" rx="18" ry="18" />
<text text-anchor="middle" x="180" y="-14.3" font-family="Times New Roman,serif" font-size="14.00">0</text>
</g>
<!-- 4 -->
<g id="node5" class="node">
<title>4</title>
<ellipse fill="none" stroke="burlywood" cx="234" cy="-18" rx="18" ry="18" />
<text text-anchor="middle" x="234" y="-14.3" font-family="Times New Roman,serif" font-size="14.00">0</text>
</g>
<!-- 5 -->
<g id="node6" class="node">
<title>5</title>
<ellipse fill="greenyellow" stroke="greenyellow" cx="288" cy="-18" rx="18" ry="18" />
<text text-anchor="middle" x="288" y="-14.3" font-family="Times New Roman,serif" font-size="14.00">1</text>
</g>
<!-- 6 -->
<g id="node7" class="node">
<title>6</title>
<ellipse fill="none" stroke="brown" cx="342" cy="-18" rx="18" ry="18" />
<text text-anchor="middle" x="342" y="-14.3" font-family="Times New Roman,serif" font-size="14.00">0</text>
</g>
<!-- 7 -->
<g id="node8" class="node">
<title>7</title>
<ellipse fill="none" stroke="brown" cx="396" cy="-18" rx="18" ry="18" />
<text text-anchor="middle" x="396" y="-14.3" font-family="Times New Roman,serif" font-size="14.00">0</text>
</g>
<!-- 8 -->
<g id="node9" class="node">
<title>8</title>
<ellipse fill="greenyellow" stroke="greenyellow" cx="450" cy="-18" rx="18" ry="18" />
<text text-anchor="middle" x="450" y="-14.3" font-family="Times New Roman,serif" font-size="14.00">1</text>
</g>
<!-- 9 -->
<g id="node10" class="node">
<title>9</title>
<ellipse fill="none" stroke="burlywood" cx="504" cy="-18" rx="18" ry="18" />
<text text-anchor="middle" x="504" y="-14.3" font-family="Times New Roman,serif" font-size="14.00">0</text>
</g>
<!-- 10 -->
<g id="node11" class="node">
<title>10</title>
<ellipse fill="red" stroke="red" cx="558" cy="-18" rx="18" ry="18" />
<text text-anchor="middle" x="558" y="-14.3" font-family="Times New Roman,serif" font-size="14.00">1</text>
</g>
<!-- 11 -->
<g id="node12" class="node">
<title>11</title>
<ellipse fill="none" stroke="purple" cx="612" cy="-18" rx="18" ry="18" />
<text text-anchor="middle" x="612" y="-14.3" font-family="Times New Roman,serif" font-size="14.00">0</text>
</g>
<!-- 12 -->
<g id="node13" class="node">
<title>12</title>
<ellipse fill="none" stroke="purple" cx="666" cy="-18" rx="18" ry="18" />
<text text-anchor="middle" x="666" y="-14.3" font-family="Times New Roman,serif" font-size="14.00">0</text>
</g>
<!-- 13 -->
<g id="node14" class="node">
<title>13</title>
<ellipse fill="none" stroke="purple" cx="720" cy="-18" rx="18" ry="18" />
<text text-anchor="middle" x="720" y="-14.3" font-family="Times New Roman,serif" font-size="14.00">0</text>
</g>
<!-- 14 -->
<g id="node15" class="node">
<title>14</title>
<ellipse fill="none" stroke="purple" cx="774" cy="-18" rx="18" ry="18" />
<text text-anchor="middle" x="774" y="-14.3" font-family="Times New Roman,serif" font-size="14.00">0</text>
</g>
</g>
</svg>
