<?xml version="1.0" encoding="UTF-8"?><svg xmlns="http://www.w3.org/2000/svg" xmlns:xlink="http://www.w3.org/1999/xlink" width="605pt" height="591pt" viewBox="0.00 0.00 605.50 591.42"><g id="graph0" class="graph" transform="scale(1 1) rotate(0) translate(4 587.42)"><title>G</title><polygon fill="white" stroke="transparent" points="-4,4 -4,-587.42 601.5,-587.42 601.5,4 -4,4"/><g id="node2" class="node"><title>1</title><ellipse fill="none" stroke="black" cx="236.28" cy="-18" rx="18" ry="18"/><text text-anchor="middle" x="236.28" y="-14.3" font-family="Times New Roman,serif" font-size="14.00">0</text></g><g id="node3" class="node"><title>2</title><ellipse fill="none" stroke="black" cx="123.7" cy="-72.21" rx="18" ry="18"/><text text-anchor="middle" x="123.7" y="-68.51" font-family="Times New Roman,serif" font-size="14.00">0</text></g><g id="node4" class="node"><title>3</title><ellipse fill="none" stroke="black" cx="45.8" cy="-169.9" rx="18" ry="18"/><text text-anchor="middle" x="45.8" y="-166.2" font-family="Times New Roman,serif" font-size="14.00">0</text></g><g id="node5" class="node"><title>4</title><ellipse fill="none" stroke="black" cx="18" cy="-291.71" rx="18" ry="18"/><text text-anchor="middle" x="18" y="-288.01" font-family="Times New Roman,serif" font-size="14.00">1</text></g><g id="node6" class="node"><title>5</title><ellipse fill="none" stroke="black" cx="123.7" cy="-511.21" rx="18" ry="18"/><text text-anchor="middle" x="123.7" y="-507.51" font-family="Times New Roman,serif" font-size="14.00">0</text></g><g id="node7" class="node"><title>6</title><ellipse fill="none" stroke="black" cx="361.22" cy="-565.42" rx="18" ry="18"/><text text-anchor="middle" x="361.22" y="-561.72" font-family="Times New Roman,serif" font-size="14.00">1</text></g><g id="node8" class="node"><title>7</title><ellipse fill="none" stroke="black" cx="236.28" cy="-565.42" rx="18" ry="18"/><text text-anchor="middle" x="236.28" y="-561.72" font-family="Times New Roman,serif" font-size="14.00">0</text></g><g id="node9" class="node"><title>8</title><ellipse fill="none" stroke="black" cx="551.7" cy="-169.9" rx="18" ry="18"/><text text-anchor="middle" x="551.7" y="-166.2" font-family="Times New Roman,serif" font-size="14.00">0</text></g><g id="node10" class="node"><title>9</title><ellipse fill="none" stroke="black" cx="473.79" cy="-72.21" rx="18" ry="18"/><text text-anchor="middle" x="473.79" y="-68.51" font-family="Times New Roman,serif" font-size="14.00">0</text></g><g id="node11" class="node"><title>10</title><ellipse fill="none" stroke="black" cx="361.22" cy="-18" rx="18" ry="18"/><text text-anchor="middle" x="361.22" y="-14.3" font-family="Times New Roman,serif" font-size="14.00">1</text></g><g id="node12" class="node"><title>11</title><ellipse fill="none" stroke="black" cx="473.79" cy="-511.21" rx="18" ry="18"/><text text-anchor="middle" x="473.79" y="-507.51" font-family="Times New Roman,serif" font-size="14.00">0</text></g><g id="node13" class="node"><title>12</title><ellipse fill="none" stroke="black" cx="551.7" cy="-413.52" rx="18" ry="18"/><text text-anchor="middle" x="551.7" y="-409.82" font-family="Times New Roman,serif" font-size="14.00">0</text></g><g id="node14" class="node"><title>13</title><ellipse fill="none" stroke="black" cx="579.5" cy="-291.71" rx="18" ry="18"/><text text-anchor="middle" x="579.5" y="-288.01" font-family="Times New Roman,serif" font-size="14.00">1</text></g><g id="edge14" class="edge"><title>1--2</title><path fill="none" stroke="black" d="M219.67,-26C198.26,-36.31 161.28,-54.12 140.02,-64.36"/></g><g id="edge15" class="edge"><title>1--5</title><path fill="none" stroke="black" d="M232.27,-35.55C214.78,-112.17 145.23,-416.9 127.72,-493.61"/></g><g id="edge16" class="edge"><title>1--8</title><path fill="none" stroke="black" d="M252.79,-25.95C307.3,-52.2 481.08,-135.89 535.34,-162.02"/></g><g id="edge17" class="edge"><title>1--11</title><path fill="none" stroke="black" d="M244.18,-34.41C280.32,-109.46 429.66,-419.56 465.86,-494.74"/></g><g id="edge25" class="edge"><title>2--3</title><path fill="none" stroke="black" d="M112.21,-86.63C97.4,-105.2 71.8,-137.29 57.09,-155.74"/></g><g id="edge26" class="edge"><title>3--4</title><path fill="none" stroke="black" d="M41.76,-187.61C36.49,-210.71 27.32,-250.87 22.05,-273.98"/></g><g id="edge24" class="edge"><title>5--7</title><path fill="none" stroke="black" d="M140.32,-519.21C161.72,-529.52 198.7,-547.33 219.96,-557.57"/></g><g id="edge28" class="edge"><title>6--7</title><path fill="none" stroke="black" d="M343.05,-565.42C319.37,-565.42 278.17,-565.42 254.47,-565.42"/></g><g id="edge29" class="edge"><title>8--9</title><path fill="none" stroke="black" d="M540.2,-155.48C525.39,-136.91 499.79,-104.82 485.08,-86.37"/></g><g id="edge30" class="edge"><title>9--10</title><path fill="none" stroke="black" d="M457.18,-64.21C435.78,-53.9 398.79,-36.09 377.53,-25.86"/></g><g id="edge31" class="edge"><title>11--12</title><path fill="none" stroke="black" d="M485.29,-496.8C500.1,-478.22 525.69,-446.13 540.41,-427.68"/></g><g id="edge32" class="edge"><title>12--13</title><path fill="none" stroke="black" d="M555.74,-395.81C561.01,-372.72 570.18,-332.55 575.45,-309.44"/></g></g></svg>