<svg xmlns="http://www.w3.org/2000/svg" width="605pt" height="788" viewBox="0 0 605.5 591.42"><g class="graph"><path fill="#fff" stroke="transparent" d="M0 591.42V0h605.5v591.42z"/><g class="node" transform="translate(4 587.42)"><circle cx="236.28" cy="-18" r="18" fill="none" stroke="#000"/><text x="236.28" y="-14.3" font-family="Times New Roman,serif" font-size="14" text-anchor="middle">0</text></g><g class="node" transform="translate(4 587.42)"><circle cx="123.7" cy="-72.21" r="18" fill="none" stroke="#000"/><text x="123.7" y="-68.51" font-family="Times New Roman,serif" font-size="14" text-anchor="middle">0</text></g><g class="node" transform="translate(4 587.42)"><circle cx="45.8" cy="-169.9" r="18" fill="none" stroke="#000"/><text x="45.8" y="-166.2" font-family="Times New Roman,serif" font-size="14" text-anchor="middle">0</text></g><g class="node" transform="translate(4 587.42)"><circle cx="18" cy="-291.71" r="18" fill="none" stroke="#000"/><text x="18" y="-288.01" font-family="Times New Roman,serif" font-size="14" text-anchor="middle">1</text></g><g class="node" transform="translate(4 587.42)"><circle cx="123.7" cy="-511.21" r="18" fill="none" stroke="#000"/><text x="123.7" y="-507.51" font-family="Times New Roman,serif" font-size="14" text-anchor="middle">0</text></g><g class="node" transform="translate(4 587.42)"><circle cx="361.22" cy="-565.42" r="18" fill="none" stroke="#000"/><text x="361.22" y="-561.72" font-family="Times New Roman,serif" font-size="14" text-anchor="middle">1</text></g><g class="node" transform="translate(4 587.42)"><circle cx="236.28" cy="-565.42" r="18" fill="none" stroke="#000"/><text x="236.28" y="-561.72" font-family="Times New Roman,serif" font-size="14" text-anchor="middle">0</text></g><g class="node" transform="translate(4 587.42)"><circle cx="551.7" cy="-169.9" r="18" fill="none" stroke="#000"/><text x="551.7" y="-166.2" font-family="Times New Roman,serif" font-size="14" text-anchor="middle">0</text></g><g class="node" transform="translate(4 587.42)"><circle cx="473.79" cy="-72.21" r="18" fill="none" stroke="#000"/><text x="473.79" y="-68.51" font-family="Times New Roman,serif" font-size="14" text-anchor="middle">0</text></g><g class="node" transform="translate(4 587.42)"><circle cx="361.22" cy="-18" r="18" fill="none" stroke="#000"/><text x="361.22" y="-14.3" font-family="Times New Roman,serif" font-size="14" text-anchor="middle">1</text></g><g class="node" transform="translate(4 587.42)"><circle cx="473.79" cy="-511.21" r="18" fill="none" stroke="#000"/><text x="473.79" y="-507.51" font-family="Times New Roman,serif" font-size="14" text-anchor="middle">0</text></g><g class="node" transform="translate(4 587.42)"><circle cx="551.7" cy="-413.52" r="18" fill="none" stroke="#000"/><text x="551.7" y="-409.82" font-family="Times New Roman,serif" font-size="14" text-anchor="middle">0</text></g><g class="node" transform="translate(4 587.42)"><circle cx="579.5" cy="-291.71" r="18" fill="none" stroke="#000"/><text x="579.5" y="-288.01" font-family="Times New Roman,serif" font-size="14" text-anchor="middle">1</text></g><path fill="none" stroke="#000" d="M223.67 561.42c-21.41-10.31-58.39-28.12-79.65-38.36m92.25 28.81c-17.49-76.62-87.04-381.35-104.55-458.06m125.07 467.66L539.34 425.4M248.18 553.01c36.14-75.05 185.48-385.15 221.68-460.33M116.21 500.79c-14.81-18.57-40.41-50.66-55.12-69.11m-15.33-31.87c-5.27-23.1-14.44-63.26-19.71-86.37M144.32 68.21c21.4-10.31 58.38-28.12 79.64-38.36M347.05 22h-88.58M544.2 431.94c-14.81 18.57-40.41 50.66-55.12 69.11m-27.9 22.16c-21.4 10.31-58.39 28.12-79.65 38.35M489.29 90.62c14.81 18.58 40.4 50.67 55.12 69.12m15.33 31.87c5.27 23.09 14.44 63.26 19.71 86.37" class="edge"/></g></svg>