<?xml version="1.0" encoding="UTF-8" standalone="no" ?>
<!DOCTYPE svg PUBLIC "-//W3C//DTD SVG 1.1//EN" "http://www.w3.org/Graphics/SVG/1.1/DTD/svg11.dtd">
<!-- Generated by graphviz version 4.0.0 (20220529.0937)
 -->
<!-- Pages: 1 -->
<svg width="412pt" height="399pt" viewBox="0.00 0.00 412.08 399.48" xmlns="http://www.w3.org/2000/svg" xmlns:xlink="http://www.w3.org/1999/xlink">
<g id="graph0" class="graph" transform="scale(1 1) rotate(0) translate(4 395.48)">
<polygon fill="white" stroke="transparent" points="-4,4 -4,-395.48 408.08,-395.48 408.08,4 -4,4" />
<!-- 1 -->
<g id="node1" class="node">
<title>1</title>
<ellipse fill="none" stroke="black" stroke-width="2" cx="106.36" cy="-352.04" rx="27" ry="18" />
<text text-anchor="middle" x="106.36" y="-348.34" font-family="Times New Roman,serif" font-size="14.00">1</text>
</g>
<!-- 3 -->
<g id="node3" class="node">
<title>3</title>
<ellipse fill="none" stroke="black" cx="334.85" cy="-79.73" rx="27" ry="18" />
<text text-anchor="middle" x="334.85" y="-76.03" font-family="Times New Roman,serif" font-size="14.00">3</text>
</g>
<!-- 1&#45;&#45;3 -->
<g id="edge1" class="edge">
<title>1&#45;&#45;3</title>
<path fill="none" stroke="black" d="M119.63,-336.22C160.01,-288.09 281.11,-143.78 321.55,-95.59" />
</g>
<!-- 5 -->
<g id="node4" class="node">
<title>5</title>
<ellipse fill="none" stroke="black" cx="227.94" cy="-18" rx="27" ry="18" />
<text text-anchor="middle" x="227.94" y="-14.3" font-family="Times New Roman,serif" font-size="14.00">5</text>
</g>
<!-- 1&#45;&#45;5 -->
<g id="edge2" class="edge">
<title>1&#45;&#45;5</title>
<path fill="none" stroke="black" d="M112.89,-334.08C134.05,-275.95 200.52,-93.32 221.52,-35.64" />
</g>
<!-- 6 -->
<g id="node5" class="node">
<title>6</title>
<ellipse fill="none" stroke="black" cx="106.36" cy="-39.44" rx="27" ry="18" />
<text text-anchor="middle" x="106.36" y="-35.74" font-family="Times New Roman,serif" font-size="14.00">6</text>
</g>
<!-- 1&#45;&#45;6 -->
<g id="edge3" class="edge">
<title>1&#45;&#45;6</title>
<path fill="none" stroke="black" d="M106.36,-333.88C106.36,-278.63 106.36,-112.96 106.36,-57.65" />
</g>
<!-- 7 -->
<g id="node6" class="node">
<title>7</title>
<ellipse fill="none" stroke="black" cx="227.94" cy="-373.48" rx="27" ry="18" />
<text text-anchor="middle" x="227.94" y="-369.78" font-family="Times New Roman,serif" font-size="14.00">7</text>
</g>
<!-- 1&#45;&#45;7 -->
<g id="edge4" class="edge">
<title>1&#45;&#45;7</title>
<path fill="none" stroke="black" d="M132.74,-356.69C153.13,-360.29 181.23,-365.24 201.61,-368.84" />
</g>
<!-- 8 -->
<g id="node7" class="node">
<title>8</title>
<ellipse fill="none" stroke="black" cx="377.08" cy="-195.74" rx="27" ry="18" />
<text text-anchor="middle" x="377.08" y="-192.04" font-family="Times New Roman,serif" font-size="14.00">8</text>
</g>
<!-- 1&#45;&#45;8 -->
<g id="edge5" class="edge">
<title>1&#45;&#45;8</title>
<path fill="none" stroke="black" d="M127.15,-340.04C177.67,-310.87 306.38,-236.56 356.59,-207.57" />
</g>
<!-- 9 -->
<g id="node2" class="node">
<title>9</title>
<ellipse fill="none" stroke="black" stroke-width="2" cx="334.85" cy="-311.75" rx="27" ry="18" />
<text text-anchor="middle" x="334.85" y="-308.05" font-family="Times New Roman,serif" font-size="14.00">9</text>
</g>
<!-- 9&#45;&#45;3 -->
<g id="edge20" class="edge">
<title>9&#45;&#45;3</title>
<path fill="none" stroke="black" d="M334.85,-293.54C334.85,-250.17 334.85,-141.14 334.85,-97.85" />
</g>
<!-- 9&#45;&#45;5 -->
<g id="edge21" class="edge">
<title>9&#45;&#45;5</title>
<path fill="none" stroke="black" d="M328.49,-294.26C309.52,-242.13 253.51,-88.26 234.41,-35.78" />
</g>
<!-- 9&#45;&#45;6 -->
<g id="edge22" class="edge">
<title>9&#45;&#45;6</title>
<path fill="none" stroke="black" d="M321.58,-295.93C281.2,-247.8 160.1,-103.49 119.67,-55.3" />
</g>
<!-- 2 -->
<g id="node8" class="node">
<title>2</title>
<ellipse fill="none" stroke="black" cx="27" cy="-134.01" rx="27" ry="18" />
<text text-anchor="middle" x="27" y="-130.31" font-family="Times New Roman,serif" font-size="14.00">2</text>
</g>
<!-- 9&#45;&#45;2 -->
<g id="edge23" class="edge">
<title>9&#45;&#45;2</title>
<path fill="none" stroke="black" d="M314.18,-299.81C258.09,-267.43 103.56,-178.22 47.59,-145.9" />
</g>
<!-- 4 -->
<g id="node9" class="node">
<title>4</title>
<ellipse fill="none" stroke="black" cx="27" cy="-257.47" rx="27" ry="18" />
<text text-anchor="middle" x="27" y="-253.77" font-family="Times New Roman,serif" font-size="14.00">4</text>
</g>
<!-- 9&#45;&#45;4 -->
<g id="edge24" class="edge">
<title>9&#45;&#45;4</title>
<path fill="none" stroke="black" d="M308.61,-307.12C250.44,-296.87 111.28,-272.33 53.18,-262.08" />
</g>
<!-- 3&#45;&#45;5 -->
<g id="edge11" class="edge">
<title>3&#45;&#45;5</title>
<path fill="none" stroke="black" d="M314.24,-67.83C295.31,-56.9 267.4,-40.78 248.49,-29.87" />
</g>
<!-- 3&#45;&#45;4 -->
<g id="edge12" class="edge">
<title>3&#45;&#45;4</title>
<path fill="none" stroke="black" d="M314.18,-91.67C258.09,-124.05 103.56,-213.26 47.59,-245.58" />
</g>
<!-- 5&#45;&#45;6 -->
<g id="edge16" class="edge">
<title>5&#45;&#45;6</title>
<path fill="none" stroke="black" d="M201.56,-22.65C181.16,-26.25 153.07,-31.2 132.69,-34.8" />
</g>
<!-- 6&#45;&#45;3 -->
<g id="edge17" class="edge">
<title>6&#45;&#45;3</title>
<path fill="none" stroke="black" d="M132.57,-44.06C176.53,-51.81 264.61,-67.34 308.6,-75.1" />
</g>
<!-- 7&#45;&#45;9 -->
<g id="edge18" class="edge">
<title>7&#45;&#45;9</title>
<path fill="none" stroke="black" d="M248.55,-361.58C267.48,-350.65 295.39,-334.54 314.3,-323.62" />
</g>
<!-- 8&#45;&#45;9 -->
<g id="edge19" class="edge">
<title>8&#45;&#45;9</title>
<path fill="none" stroke="black" d="M370.67,-213.36C362.73,-235.16 349.29,-272.08 341.33,-293.97" />
</g>
<!-- 2&#45;&#45;1 -->
<g id="edge6" class="edge">
<title>2&#45;&#45;1</title>
<path fill="none" stroke="black" d="M33.49,-151.85C48.41,-192.84 84.99,-293.33 99.88,-334.26" />
</g>
<!-- 2&#45;&#45;3 -->
<g id="edge7" class="edge">
<title>2&#45;&#45;3</title>
<path fill="none" stroke="black" d="M53.25,-129.38C111.41,-119.13 250.57,-94.59 308.67,-84.34" />
</g>
<!-- 2&#45;&#45;5 -->
<g id="edge8" class="edge">
<title>2&#45;&#45;5</title>
<path fill="none" stroke="black" d="M47.75,-122.03C86.35,-99.74 168.78,-52.15 207.3,-29.91" />
</g>
<!-- 2&#45;&#45;6 -->
<g id="edge9" class="edge">
<title>2&#45;&#45;6</title>
<path fill="none" stroke="black" d="M40.46,-117.97C55.14,-100.47 78.49,-72.65 93.09,-55.24" />
</g>
<!-- 2&#45;&#45;4 -->
<g id="edge10" class="edge">
<title>2&#45;&#45;4</title>
<path fill="none" stroke="black" d="M27,-152.23C27,-175.57 27,-215.8 27,-239.18" />
</g>
<!-- 4&#45;&#45;1 -->
<g id="edge13" class="edge">
<title>4&#45;&#45;1</title>
<path fill="none" stroke="black" d="M40.46,-273.51C55.14,-291.01 78.49,-318.83 93.09,-336.24" />
</g>
<!-- 4&#45;&#45;5 -->
<g id="edge14" class="edge">
<title>4&#45;&#45;5</title>
<path fill="none" stroke="black" d="M40.18,-241.76C76.59,-198.37 178.24,-77.23 214.71,-33.77" />
</g>
<!-- 4&#45;&#45;6 -->
<g id="edge15" class="edge">
<title>4&#45;&#45;6</title>
<path fill="none" stroke="black" d="M33.49,-239.63C48.41,-198.64 84.99,-98.15 99.88,-57.22" />
</g>
</g>
</svg>
