<svg xmlns="http://www.w3.org/2000/svg" width="412pt" height="532" viewBox="0 0 412.08 399.48"><g class="graph"><path fill="#fff" stroke="transparent" d="M0 399.48V0h412.08v399.48z"/><g class="node" transform="translate(4 395.48)"><ellipse cx="106.36" cy="-352.04" fill="none" stroke="#000" stroke-width="2" rx="27" ry="18"/><text x="106.36" y="-348.34" font-family="Times New Roman,serif" font-size="14" text-anchor="middle">1</text></g><g class="node" transform="translate(4 395.48)"><ellipse cx="334.85" cy="-79.73" fill="none" stroke="#000" rx="27" ry="18"/><text x="334.85" y="-76.03" font-family="Times New Roman,serif" font-size="14" text-anchor="middle">3</text></g><g class="edge" transform="translate(4 395.48)"><path fill="none" stroke="#000" d="M119.63-336.22c40.38 48.13 161.48 192.44 201.92 240.63"/></g><g class="node" transform="translate(4 395.48)"><ellipse cx="227.94" cy="-18" fill="none" stroke="#000" rx="27" ry="18"/><text x="227.94" y="-14.3" font-family="Times New Roman,serif" font-size="14" text-anchor="middle">5</text></g><g class="edge" transform="translate(4 395.48)"><path fill="none" stroke="#000" d="M112.89-334.08c21.16 58.13 87.63 240.76 108.63 298.44"/></g><g class="node" transform="translate(4 395.48)"><ellipse cx="106.36" cy="-39.44" fill="none" stroke="#000" rx="27" ry="18"/><text x="106.36" y="-35.74" font-family="Times New Roman,serif" font-size="14" text-anchor="middle">6</text></g><g class="edge" transform="translate(4 395.48)"><path fill="none" stroke="#000" d="M106.36-333.88v276.23"/></g><g class="node" transform="translate(4 395.48)"><ellipse cx="227.94" cy="-373.48" fill="none" stroke="#000" rx="27" ry="18"/><text x="227.94" y="-369.78" font-family="Times New Roman,serif" font-size="14" text-anchor="middle">7</text></g><g class="edge" transform="translate(4 395.48)"><path fill="none" stroke="#000" d="M132.74-356.69c20.39-3.6 48.49-8.55 68.87-12.15"/></g><g class="node" transform="translate(4 395.48)"><ellipse cx="377.08" cy="-195.74" fill="none" stroke="#000" rx="27" ry="18"/><text x="377.08" y="-192.04" font-family="Times New Roman,serif" font-size="14" text-anchor="middle">8</text></g><g class="edge" transform="translate(4 395.48)"><path fill="none" stroke="#000" d="M127.15-340.04c50.52 29.17 179.23 103.48 229.44 132.47"/></g><g class="node" transform="translate(4 395.48)"><ellipse cx="334.85" cy="-311.75" fill="none" stroke="#000" stroke-width="2" rx="27" ry="18"/><text x="334.85" y="-308.05" font-family="Times New Roman,serif" font-size="14" text-anchor="middle">9</text></g><g class="edge" transform="translate(4 395.48)"><path fill="none" stroke="#000" d="M334.85-293.54v195.69"/></g><g class="edge" transform="translate(4 395.48)"><path fill="none" stroke="#000" d="M328.49-294.26c-18.97 52.13-74.98 206-94.08 258.48"/></g><g class="edge" transform="translate(4 395.48)"><path fill="none" stroke="#000" d="M321.58-295.93C281.2-247.8 160.1-103.49 119.67-55.3"/></g><g class="node" transform="translate(4 395.48)"><ellipse cx="27" cy="-134.01" fill="none" stroke="#000" rx="27" ry="18"/><text x="27" y="-130.31" font-family="Times New Roman,serif" font-size="14" text-anchor="middle">2</text></g><g class="edge" transform="translate(4 395.48)"><path fill="none" stroke="#000" d="M314.18-299.81A3930443 3930443 0 0 0 47.59-145.9"/></g><g class="node" transform="translate(4 395.48)"><ellipse cx="27" cy="-257.47" fill="none" stroke="#000" rx="27" ry="18"/><text x="27" y="-253.77" font-family="Times New Roman,serif" font-size="14" text-anchor="middle">4</text></g><g class="edge" transform="translate(4 395.48)"><path fill="none" stroke="#000" d="M308.61-307.12c-58.17 10.25-197.33 34.79-255.43 45.04"/></g><g class="edge" transform="translate(4 395.48)"><path fill="none" stroke="#000" d="M314.24-67.83c-18.93 10.93-46.84 27.05-65.75 37.96"/></g><g class="edge" transform="translate(4 395.48)"><path fill="none" stroke="#000" d="M314.18-91.67A3930443 3930443 0 0 1 47.59-245.58"/></g><g class="edge" transform="translate(4 395.48)"><path fill="none" stroke="#000" d="M201.56-22.65c-20.4-3.6-48.49-8.55-68.87-12.15"/></g><g class="edge" transform="translate(4 395.48)"><path fill="none" stroke="#000" d="M132.57-44.06c43.96-7.75 132.04-23.28 176.03-31.04"/></g><g class="edge" transform="translate(4 395.48)"><path fill="none" stroke="#000" d="M248.55-361.58c18.93 10.93 46.84 27.04 65.75 37.96"/></g><g class="edge" transform="translate(4 395.48)"><path fill="none" stroke="#000" d="M370.67-213.36c-7.94-21.8-21.38-58.72-29.34-80.61"/></g><g class="edge" transform="translate(4 395.48)"><path fill="none" stroke="#000" d="M33.49-151.85c14.92-40.99 51.5-141.48 66.39-182.41"/></g><g class="edge" transform="translate(4 395.48)"><path fill="none" stroke="#000" d="M53.25-129.38c58.16 10.25 197.32 34.79 255.42 45.04"/></g><g class="edge" transform="translate(4 395.48)"><path fill="none" stroke="#000" d="M47.75-122.03c38.6 22.29 121.03 69.88 159.55 92.12"/></g><g class="edge" transform="translate(4 395.48)"><path fill="none" stroke="#000" d="M40.46-117.97c14.68 17.5 38.03 45.32 52.63 62.73"/></g><g class="edge" transform="translate(4 395.48)"><path fill="none" stroke="#000" d="M27-152.23v-86.95"/></g><g class="edge" transform="translate(4 395.48)"><path fill="none" stroke="#000" d="M40.46-273.51c14.68-17.5 38.03-45.32 52.63-62.73"/></g><g class="edge" transform="translate(4 395.48)"><path fill="none" stroke="#000" d="M40.18-241.76C76.59-198.37 178.24-77.23 214.71-33.77"/></g><g class="edge" transform="translate(4 395.48)"><path fill="none" stroke="#000" d="M33.49-239.63c14.92 40.99 51.5 141.48 66.39 182.41"/></g></g></svg>