<svg xmlns="http://www.w3.org/2000/svg" width="206pt" height="260pt" viewBox="0 0 206 260"><g class="graph"><path fill="#fff" d="M0 260V0h206v260z"/><g class="node" transform="translate(4 256)"><ellipse cx="135" cy="-234" fill="none" stroke="#000" rx="27" ry="18"/><text x="135" y="-228.95" font-family="Times New Roman,serif" font-size="14" text-anchor="middle">1</text></g><g class="node" transform="translate(4 256)"><ellipse cx="99" cy="-162" fill="none" stroke="#000" rx="27" ry="18"/><text x="99" y="-156.95" font-family="Times New Roman,serif" font-size="14" text-anchor="middle">2</text></g><g class="edge" transform="translate(4 256)"><path fill="none" stroke="#000" d="M126.65-216.76c-5.82 11.3-13.54 26.32-19.35 37.61"/></g><g class="node" transform="translate(4 256)"><ellipse cx="171" cy="-162" fill="none" stroke="#000" rx="27" ry="18"/><text x="171" y="-156.95" font-family="Times New Roman,serif" font-size="14" text-anchor="middle">5</text></g><g class="edge" transform="translate(4 256)"><path fill="none" stroke="#000" d="M143.35-216.76c5.82 11.3 13.54 26.32 19.35 37.61"/></g><g class="node" transform="translate(4 256)"><ellipse cx="27" cy="-90" fill="none" stroke="#000" rx="27" ry="18"/><text x="27" y="-84.95" font-family="Times New Roman,serif" font-size="14" text-anchor="middle">3</text></g><g class="edge" transform="translate(4 256)"><path fill="none" stroke="#000" d="M84.08-146.5c-12.36 12.02-29.83 29.01-42.18 41.01"/></g><g class="node" transform="translate(4 256)"><ellipse cx="99" cy="-90" fill="none" stroke="#000" rx="27" ry="18"/><text x="99" y="-84.95" font-family="Times New Roman,serif" font-size="14" text-anchor="middle">4</text></g><g class="edge" transform="translate(4 256)"><path fill="none" stroke="#000" d="M99-143.7v35.6"/></g><g class="node" transform="translate(4 256)"><ellipse cx="171" cy="-90" fill="none" stroke="#000" rx="27" ry="18"/><text x="171" y="-84.95" font-family="Times New Roman,serif" font-size="14" text-anchor="middle">7</text></g><g class="edge" transform="translate(4 256)"><path fill="none" stroke="#000" d="M113.92-146.5c12.36 12.02 29.83 29.01 42.18 41.01"/></g><g class="node" transform="translate(4 256)"><ellipse cx="99" cy="-18" fill="none" stroke="#000" rx="27" ry="18"/><text x="99" y="-12.95" font-family="Times New Roman,serif" font-size="14" text-anchor="middle">6</text></g><g class="edge" transform="translate(4 256)"><path fill="none" stroke="#000" d="M99-71.7v35.6"/></g></g></svg>