<svg xmlns="http://www.w3.org/2000/svg" width="394pt" height="220pt" viewBox="0 0 394 220"><g class="graph"><path fill="#fff" d="M0 220V0h394v220z"/><g class="cluster" transform="translate(4 216)"><path fill="none" stroke="#000" d="M8-8v-196h142V-8z"/></g><g class="cluster" transform="translate(4 216)"><path fill="none" stroke="#000" d="M158-80v-124h70v124z"/></g><g class="cluster" transform="translate(4 216)"><path fill="none" stroke="#000" d="M236-8v-196h142V-8z"/></g><g class="node" transform="translate(4 216)"><ellipse cx="79" cy="-178" fill="none" stroke="#000" rx="27" ry="18"/><text x="79" y="-172.95" font-family="Times New Roman,serif" font-size="14" text-anchor="middle">1</text></g><g class="node" transform="translate(4 216)"><ellipse cx="43" cy="-106" fill="none" stroke="#000" rx="27" ry="18"/><text x="43" y="-100.95" font-family="Times New Roman,serif" font-size="14" text-anchor="middle">2</text></g><g class="edge" transform="translate(4 216)"><path fill="none" stroke="#000" d="M70.65-160.76c-5.82 11.3-13.54 26.32-19.35 37.61"/></g><g class="node" transform="translate(4 216)"><ellipse cx="115" cy="-106" fill="none" stroke="#000" rx="27" ry="18"/><text x="115" y="-100.95" font-family="Times New Roman,serif" font-size="14" text-anchor="middle">3</text></g><g class="edge" transform="translate(4 216)"><path fill="none" stroke="#000" d="M87.35-160.76c5.82 11.3 13.54 26.32 19.35 37.61"/></g><g class="node" transform="translate(4 216)"><ellipse cx="43" cy="-34" fill="none" stroke="#000" rx="27" ry="18"/><text x="43" y="-28.95" font-family="Times New Roman,serif" font-size="14" text-anchor="middle">4</text></g><g class="edge" transform="translate(4 216)"><path fill="none" stroke="#000" d="M43-87.7v35.6"/></g><g class="node" transform="translate(4 216)"><ellipse cx="115" cy="-34" fill="none" stroke="#000" rx="27" ry="18"/><text x="115" y="-28.95" font-family="Times New Roman,serif" font-size="14" text-anchor="middle">5</text></g><g class="edge" transform="translate(4 216)"><path fill="none" stroke="#000" d="M57.92-90.5c12.36 12.02 29.83 29.01 42.18 41.01"/></g><g class="node" transform="translate(4 216)"><ellipse cx="193" cy="-178" fill="none" stroke="#000" rx="27" ry="18"/><text x="193" y="-172.95" font-family="Times New Roman,serif" font-size="14" text-anchor="middle">6</text></g><g class="node" transform="translate(4 216)"><ellipse cx="193" cy="-106" fill="none" stroke="#000" rx="27" ry="18"/><text x="193" y="-100.95" font-family="Times New Roman,serif" font-size="14" text-anchor="middle">7</text></g><g class="edge" transform="translate(4 216)"><path fill="none" stroke="#000" d="M193-159.7v35.6"/></g><g class="node" transform="translate(4 216)"><ellipse cx="307" cy="-178" fill="none" stroke="#000" rx="27" ry="18"/><text x="307" y="-172.95" font-family="Times New Roman,serif" font-size="14" text-anchor="middle">8</text></g><g class="node" transform="translate(4 216)"><ellipse cx="307" cy="-106" fill="none" stroke="#000" rx="27" ry="18"/><text x="307" y="-100.95" font-family="Times New Roman,serif" font-size="14" text-anchor="middle">9</text></g><g class="edge" transform="translate(4 216)"><path fill="none" stroke="#000" d="M307-159.7v35.6"/></g><g class="node" transform="translate(4 216)"><ellipse cx="271" cy="-34" fill="none" stroke="#000" rx="27" ry="18"/><text x="271" y="-28.95" font-family="Times New Roman,serif" font-size="14" text-anchor="middle">10</text></g><g class="edge" transform="translate(4 216)"><path fill="none" stroke="#000" d="M298.65-88.76c-5.82 11.3-13.54 26.32-19.35 37.61"/></g><g class="node" transform="translate(4 216)"><ellipse cx="343" cy="-34" fill="none" stroke="#000" rx="27" ry="18"/><text x="343" y="-28.95" font-family="Times New Roman,serif" font-size="14" text-anchor="middle">11</text></g><g class="edge" transform="translate(4 216)"><path fill="none" stroke="#000" d="M315.35-88.76c5.82 11.3 13.54 26.32 19.35 37.61"/></g></g></svg>