<?xml version="1.0" standalone="no"?>
<!DOCTYPE svg PUBLIC "-//W3C//DTD SVG 20010904//EN"
 "http://www.w3.org/TR/2001/REC-SVG-20010904/DTD/svg10.dtd">
<svg version="1.0" xmlns="http://www.w3.org/2000/svg"
 width="360.000000pt" height="360.000000pt" viewBox="0 0 360.000000 360.000000"
 preserveAspectRatio="xMidYMid meet">
<metadata>
Created by potrace 1.11, written by Peter Selinger 2001-2013
</metadata>
<g transform="translate(0.000000,360.000000) scale(0.100000,-0.100000)"
fill="#000000" stroke="none">
<path d="M1560 3273 c-423 -75 -806 -360 -1002 -746 -56 -110 -112 -279 -133
-401 -20 -118 -19 -346 1 -467 73 -429 357 -813 747 -1011 110 -56 279 -112
401 -133 118 -20 346 -19 467 1 429 73 813 357 1011 747 56 110 112 279 133
401 20 118 19 346 -1 467 -73 429 -357 813 -747 1011 -110 56 -279 112 -401
133 -114 19 -362 18 -476 -2z m1015 -833 c0 -305 -1 -327 -20 -365 -48 -95
-168 -114 -238 -37 -33 36 -47 118 -47 280 l0 152 -160 0 -160 0 0 -589 0
-589 138 -4 c196 -6 250 -35 259 -137 6 -64 -20 -110 -77 -138 -44 -23 -49
-23 -465 -23 -478 0 -496 2 -537 68 -28 46 -29 123 -1 161 38 51 85 65 236 69
l137 4 0 589 0 589 -159 0 -159 0 -4 -187 c-4 -216 -11 -239 -80 -274 -73 -37
-158 -14 -195 54 -16 28 -18 69 -21 356 -2 178 -1 330 2 337 5 12 125 14 778
12 l773 -3 0 -325z"/>
</g>
</svg>
