<svg xmlns="http://www.w3.org/2000/svg" width="1154pt" height="188pt" viewBox="0 0 1154.25 188"><g class="graph"><path fill="#fff" d="M0 188V0h1154.25v188z"/><g class="node" transform="translate(4 184)"><path fill="none" stroke="#000" d="M764.5-36H168V0h596.5z"/><text x="466.25" y="-12.95" font-family="Times New Roman,serif" font-size="14" text-anchor="middle">std::basic_ostream&lt;CharT, Traits&gt;&amp; operator&lt;&lt;(std::basic_ostream&lt;CharT, Traits&gt;&amp;, const Container&amp;)</text></g><g class="node" transform="translate(4 184)"><path fill="none" stroke="#00f" d="M350.5-108H0v36h350.5z"/><text x="175.25" y="-84.95" font-family="Times New Roman,serif" font-size="14" text-anchor="middle">std::ostream&amp; operator&lt;&lt;(std::ostream&amp;, const Container&amp;)</text></g><g class="edge" transform="translate(4 184)"><path fill="none" stroke="#000" d="M247.93-71.52c40.88 9.84 92.08 22.15 134.62 32.39"/><path stroke="#000" d="m383.36-42.54 8.91 5.74-10.54 1.07z"/></g><g class="node" transform="translate(4 184)"><path fill="none" stroke="red" d="M1146.25-108h-778v36h778z"/><text x="757.25" y="-84.95" font-family="Times New Roman,serif" font-size="14" text-anchor="middle">std::basic_ostream&lt;CharT, Traits&gt;&amp; operator&lt;&lt;(std::basic_ostream&lt;CharT, Traits&gt;&amp;, const std::basic_string&lt;CharT, Traits, Allocator&gt;&amp;)</text></g><g class="edge" transform="translate(4 184)"><path fill="none" stroke="#000" d="M684.57-71.52c-40.88 9.84-92.08 22.15-134.62 32.39"/><path stroke="#000" d="m550.77-35.73-10.54-1.07 8.91-5.74z"/></g><g class="node" transform="translate(4 184)"><path fill="none" stroke="#000" d="M641.88-180H290.62v36h351.26z"/><text x="466.25" y="-156.95" font-family="Times New Roman,serif" font-size="14" text-anchor="middle">std::ostream&amp; operator&lt;&lt;(std::ostream&amp;, const std::string&amp;)</text></g><g class="edge" transform="translate(4 184)"><path fill="none" stroke="#000" d="M393.57-143.52c-40.88 9.84-92.08 22.15-134.62 32.39"/><path stroke="#000" d="m259.77-107.73-10.54-1.07 8.91-5.74z"/></g><g class="edge" transform="translate(4 184)"><path fill="none" stroke="#000" d="M538.93-143.52c40.88 9.84 92.08 22.15 134.62 32.39"/><path stroke="#000" d="m674.36-114.54 8.91 5.74-10.54 1.07z"/></g></g></svg>